<?xml version="1.0" standalone="no"?>
<!DOCTYPE svg PUBLIC "-//W3C//DTD SVG 1.1//EN" "http://www.w3.org/Graphics/SVG/1.1/DTD/svg11.dtd" >
<svg xmlns="http://www.w3.org/2000/svg" xmlns:xlink="http://www.w3.org/1999/xlink" version="1.1">
<metadata>
Created by FontForge 20170731 at Fri Feb  7 20:03:34 2014
 By Aleksey,,,
Copyright (c) 2014 by Fontfabric LLC. All rights reserved.
</metadata>
<defs>
<font id="GloberBook" horiz-adv-x="548" >
  <font-face 
    font-family="Glober Book"
    font-weight="400"
    font-stretch="normal"
    units-per-em="1000"
    panose-1="0 0 0 0 0 0 0 0 0 0"
    ascent="750"
    descent="-250"
    x-height="526"
    cap-height="720"
    bbox="-154 -250.793 1019 1052.19"
    underline-thickness="50"
    underline-position="-200"
    unicode-range="U+0020-FB02"
  />
<missing-glyph horiz-adv-x="618" 
d="M575 0h-538v720h538v-720zM455 505q0 57 -38 92.5t-111 35.5q-33 0 -63.5 -6.5t-44.5 -12.5l-14 -7q-3 -19 13 -30q40 20 105 20q110 0 110 -95q0 -32 -10.5 -56.5t-26 -39t-34 -32.5t-34 -36t-26 -50.5t-10.5 -75.5q6 -4 16 -4l17 4q0 43 15.5 74.5t37.5 51.5t44.5 39.5
t38 51.5t15.5 76zM313 129q-8 3 -25 3l-25 -3v-45q8 -3 25 -3l25 3v45z" />
    <glyph glyph-name="fi" unicode="fi" horiz-adv-x="558" 
d="M106 586q0 82 40.5 123t138.5 41q43 0 87.5 -7t67.5 -14l23 -7q3 -24 -13 -40q-72 25 -160 25q-75 0 -104.5 -27.5t-29.5 -88.5v-65h284q5 0 15.5 -1t13.5 -1v-520q-8 -4 -25 -4l-25 4v480h-263v-480q-7 -4 -25 -4l-25 4v480h-64q-4 7 -4 21l4 21h64v60z" />
    <glyph glyph-name="fl" unicode="fl" horiz-adv-x="560" 
d="M106 586q0 164 171 164q46 0 94 -8.5t73 -17.5l25 -8v-712q-8 -4 -25 -4l-25 4v682q-68 21 -137 21q-70 0 -98 -28.5t-28 -87.5v-65h124q4 -12 4 -21t-4 -21h-124v-480q-7 -4 -25 -4l-25 4v480h-64q-4 12 -4 21t4 21h64v60z" />
    <glyph glyph-name=".notdef" horiz-adv-x="618" 
d="M575 0h-538v720h538v-720zM455 505q0 57 -38 92.5t-111 35.5q-33 0 -63.5 -6.5t-44.5 -12.5l-14 -7q-3 -19 13 -30q40 20 105 20q110 0 110 -95q0 -32 -10.5 -56.5t-26 -39t-34 -32.5t-34 -36t-26 -50.5t-10.5 -75.5q6 -4 16 -4l17 4q0 43 15.5 74.5t37.5 51.5t44.5 39.5
t38 51.5t15.5 76zM313 129q-8 3 -25 3l-25 -3v-45q8 -3 25 -3l25 3v45z" />
    <glyph glyph-name=".null" horiz-adv-x="0" 
 />
    <glyph glyph-name="nonmarkingreturn" horiz-adv-x="333" 
 />
    <glyph glyph-name="space" unicode=" " horiz-adv-x="247" 
 />
    <glyph glyph-name="exclam" unicode="!" horiz-adv-x="246" 
d="M104 164l-8 552q1 4 27 4l27 -4l-8 -552q-6 -5 -19 -5q-6 0 -11 1.5t-6 2.5zM153 60v-56q-9 -4 -30 -4l-30 4v56q9 4 30 4z" />
    <glyph glyph-name="quotedbl" unicode="&#x22;" horiz-adv-x="310" 
d="M81 522l-10 194q9 4 26 4l26 -4l-10 -194q-5 -3 -16 -3zM197 522l-10 194q8 4 26 4l26 -4l-10 -194q-5 -3 -16 -3z" />
    <glyph glyph-name="numbersign" unicode="#" horiz-adv-x="652" 
d="M498 619q11 4 24 4q15 0 23 -4l-41 -145h98q4 -12 4 -21t-4 -23h-110l-69 -245h95q4 -8 4 -22t-4 -22h-108l-38 -136q-15 -5 -24 -5q-8 0 -23 5l38 136h-167l-38 -136q-15 -5 -25 -5q-7 0 -22 5l38 136h-102q-3 9 -3 22q0 10 3 22h115l69 245h-100q-4 14 -4 22t4 22h112
l41 145q11 4 24 4q15 0 23 -4l-41 -145h167zM278 430l-69 -245h167l69 245h-167z" />
    <glyph glyph-name="dollar" unicode="$" horiz-adv-x="559" 
d="M252 785q8 4 25 4l26 -4l-6 -117q47 0 89 -6t60 -12l19 -5q0 -12 -3 -22q-4 -10 -12 -18q-66 19 -153 19q-91 0 -137 -33t-46 -94q0 -38 21.5 -64t55.5 -39.5t75.5 -23.5t82.5 -22.5t75 -30.5t55.5 -53t21.5 -84q0 -78 -53.5 -124.5t-151.5 -52.5l7 -128q-7 -4 -25 -4
l-26 4l6 127q-53 0 -102 8.5t-72 17.5l-22 8q0 15 2 22q4 13 11 18q89 -27 184 -27q189 0 189 128q0 47 -28.5 76.5t-71.5 41.5t-93.5 26t-93.5 29t-71.5 51.5t-28.5 91.5q0 76 51 121.5t146 52.5z" />
    <glyph glyph-name="percent" unicode="%" horiz-adv-x="747" 
d="M594 698l-388 -704q-8 -4 -26 -4l-23 4l388 704q7 4 25 4zM181 345q-129 0 -129 173t129 173q131 0 131 -173t-131 -173zM181 653q-41 0 -62.5 -31t-21.5 -104q0 -74 21.5 -104t62.5 -30t62.5 30t21.5 104q0 135 -84 135zM566 -10q-129 0 -129 173t129 173
q131 0 131 -173t-131 -173zM566 298q-41 0 -62.5 -31t-21.5 -104q0 -74 21.5 -104t62.5 -30t62.5 30t21.5 104q0 135 -84 135z" />
    <glyph glyph-name="ampersand" unicode="&#x26;" horiz-adv-x="635" 
d="M323 690q64 0 101 -35t37 -85q0 -71 -49 -119.5t-152 -103.5q61 -119 185 -211q50 59 73 144q30 2 44 -19q-21 -77 -84 -150q54 -38 128 -68q2 -29 -22 -44q-69 27 -140 75q-14 -15 -33.5 -30t-68.5 -34.5t-103 -19.5q-79 0 -133.5 43t-54.5 127q0 52 29 97t58.5 66.5
t62.5 38.5q-36 79 -36 155q0 81 40.5 127t117.5 46zM319 650q-50 0 -77.5 -33t-27.5 -96q0 -67 29 -137q85 44 126.5 84t41.5 95q0 40 -24 63.5t-68 23.5zM246 34q93 0 165 65q-126 96 -193 227q-114 -66 -114 -161q0 -61 38.5 -96t103.5 -35z" />
    <glyph glyph-name="quotesingle" unicode="'" horiz-adv-x="194" 
d="M81 522l-10 194q8 4 26 4l26 -4l-10 -194q-5 -3 -16 -3z" />
    <glyph glyph-name="parenleft" unicode="(" horiz-adv-x="285" 
d="M233 805q5 -3 9 -7l6 -6l1 -3q-6 -7 -15 -21.5t-32.5 -61.5t-41.5 -98t-32.5 -129.5t-14.5 -158.5t14 -157.5t34 -131.5t40 -96.5t34 -62.5l14 -21q-4 -9 -16 -16q-5 -3 -10.5 -4.5t-8.5 -1.5h-3q-6 8 -16 23.5t-36 66.5t-45.5 104.5t-35.5 135t-16 161.5t15.5 160.5
t37.5 137.5t43.5 102.5t37.5 67.5l15 23q10 1 22 -6z" />
    <glyph glyph-name="parenright" unicode=")" horiz-adv-x="284" 
d="M171 320q0 80 -14 157.5t-33.5 131.5t-39.5 96.5t-34 62.5l-14 21q3 9 16 16q5 3 10.5 4.5t7.5 1.5h3q6 -8 16 -23.5t36 -66.5t45.5 -104.5t35.5 -135t16 -161.5t-15.5 -160.5t-37 -137.5t-43.5 -102.5t-38 -67.5l-15 -23q-10 -1 -22 6q-5 3 -9 7t-5 6l-1 3
q5 7 14.5 21.5t32.5 61.5t41 98t32.5 129.5t14.5 158.5z" />
    <glyph glyph-name="asterisk" unicode="*" horiz-adv-x="347" 
d="M157 616v87q17 6 33 0v-87l84 28q10 -10 10 -32l-85 -27l54 -74q-12 -14 -26 -18l-54 72l-52 -73q-15 4 -27 18l53 75l-84 27q0 21 10 32z" />
    <glyph glyph-name="plus" unicode="+" horiz-adv-x="466" 
d="M212 269h-148q-4 7 -4 21l4 21h148v148q7 4 21 4l21 -4v-148h148q4 -7 4 -21l-4 -21h-148v-148q-7 -4 -21 -4l-21 4v148z" />
    <glyph glyph-name="comma" unicode="," horiz-adv-x="218" 
d="M87 -102l-22 15q30 30 34 87l-22 4v56q11 4 32 4l32 -4v-40q0 -36 -13.5 -66.5t-27.5 -43.5z" />
    <glyph glyph-name="hyphen" unicode="-" horiz-adv-x="356" 
d="M272 269h-188q-4 7 -4 21l4 21h188q4 -7 4 -21z" />
    <glyph glyph-name="period" unicode="." horiz-adv-x="218" 
d="M141 60v-56q-11 -4 -32 -4l-32 4v56q11 4 32 4z" />
    <glyph glyph-name="slash" unicode="/" horiz-adv-x="437" 
d="M23 -43l338 789q9 4 26 4l27 -4l-338 -789q-10 -4 -28 -4z" />
    <glyph glyph-name="zero" unicode="0" horiz-adv-x="620" 
d="M309 -10q-118 0 -178 83.5t-60 266.5q0 181 60 265.5t178 84.5q119 0 179.5 -84t60.5 -266t-60.5 -266t-179.5 -84zM309 645q-94 0 -139 -72t-45 -233q0 -160 45 -232.5t139 -72.5q95 0 140 72t45 233t-45 233t-140 72z" />
    <glyph glyph-name="one" unicode="1" horiz-adv-x="394" 
d="M38 524q130 34 202 152q7 4 25 4l24 -4v-672q-7 -4 -26 -4l-26 4v460q0 86 5 138q-66 -89 -191 -122q-18 18 -13 44z" />
    <glyph glyph-name="two" unicode="2" horiz-adv-x="528" 
d="M98 616q-17 12 -15 38q73 36 183 36q90 0 145 -42t55 -131q0 -42 -11.5 -73.5t-41.5 -60t-56.5 -46.5t-81.5 -52q-7 -4 -30.5 -17.5t-34 -20.5t-30 -21.5t-29.5 -27t-22 -30.5t-17 -39t-5 -45v-11.5t0.5 -10t1 -7.5t0.5 -5v-2h343q4 -12 4 -24t-4 -24h-389q-6 32 -6 67
q0 32 5 59.5t18 50t23 38t33.5 33.5t34 26t40.5 26.5t39 23.5q5 3 27 17t26.5 17l22.5 15t22 16.5t17.5 16t17 18.5t11.5 19t10.5 22t5 23.5t2.5 27.5q0 130 -155 130q-37 0 -77 -7.5t-61 -14.5z" />
    <glyph glyph-name="three" unicode="3" horiz-adv-x="516" 
d="M448 173q0 -80 -55 -131.5t-175 -51.5q-44 0 -85 8t-60 16l-19 9q-2 26 14 38q82 -25 147 -25q181 0 181 145q0 154 -179 154h-53q-8 21 0 43h53q159 0 159 138q0 62 -38.5 96t-116.5 34q-36 0 -71 -6t-52 -12l-17 -7q-20 12 -18 37q67 32 163 32q98 0 150 -45t52 -121
q0 -130 -107 -167q127 -37 127 -184z" />
    <glyph glyph-name="four" unicode="4" horiz-adv-x="572" 
d="M41 225l332 451q8 4 27 4l25 -4v-451h102q4 -7 4 -22l-4 -22h-102v-177q-8 -4 -25 -4l-25 4v177h-334q-4 7 -4 22zM375 603l-278 -378h278v378z" />
    <glyph glyph-name="five" unicode="5" horiz-adv-x="516" 
d="M144 633v-252l4 1q5 0 12.5 1t17 2t22 1.5t25.5 0.5q230 0 230 -201q0 -196 -246 -196q-48 0 -86.5 7t-52.5 13l-15 7q-4 26 13 39q58 -21 135 -21q100 0 149 36.5t49 114.5q0 74 -42.5 115t-148.5 41q-37 0 -117 -10v348h333q9 -24 0 -47h-282z" />
    <glyph glyph-name="six" unicode="6" horiz-adv-x="552" 
d="M427 680q8 -21 0 -42q-253 -26 -295 -267q80 45 163 45q91 0 146.5 -52.5t55.5 -160.5q0 -102 -58.5 -157.5t-155.5 -55.5q-99 0 -156.5 66t-57.5 201q0 203 95 307.5t263 115.5zM443 203q0 85 -41.5 127.5t-112.5 42.5q-78 0 -164 -54q-3 -31 -3 -66q0 -111 43.5 -165.5
t117.5 -54.5q72 0 116 43.5t44 126.5z" />
    <glyph glyph-name="seven" unicode="7" horiz-adv-x="494" 
d="M41 680h407q4 -13 4 -30q-1 -68 -27.5 -128.5t-63.5 -109.5t-74.5 -102.5t-63.5 -132t-26 -173.5q-16 -4 -25 -4q-14 0 -26 4q0 97 24.5 177t60 134t71.5 101.5t64.5 102t33.5 113.5h-359q-4 9 -4 24z" />
    <glyph glyph-name="eight" unicode="8" horiz-adv-x="581" 
d="M287 -10q-105 0 -163 47t-58 123q0 40 15 76t39.5 62t44.5 41.5t42 28.5q-56 28 -87 66t-31 96q0 73 54 116.5t145 43.5q92 0 146 -43t54 -116q0 -114 -115 -182q68 -32 105.5 -73.5t37.5 -110.5q0 -80 -59.5 -127.5t-169.5 -47.5zM288 647q-68 0 -108 -31t-40 -83
q0 -32 13 -56.5t41.5 -43.5t52 -30.5t65.5 -28.5q4 -2 6.5 -3t6.5 -2.5t7 -2.5q105 65 105 161q0 57 -40 88.5t-109 31.5zM291 34q81 0 127 36t46 93q0 23 -6 42t-20 35t-26.5 27.5t-37 24t-38.5 19t-45 19.5t-43 18q-16 -9 -32 -21t-41.5 -35.5t-41.5 -57t-16 -70.5
q0 -58 44 -94t130 -36z" />
    <glyph glyph-name="nine" unicode="9" horiz-adv-x="551" 
d="M125 0q-10 19 -1 42q253 26 294 267q-78 -45 -162 -45q-91 0 -146.5 52.5t-55.5 160.5q0 102 58.5 157.5t155.5 55.5q99 0 156.5 -66t57.5 -201q0 -203 -95 -307.5t-262 -115.5zM108 477q0 -85 41.5 -127.5t112.5 -42.5q83 0 164 54q3 32 3 66q0 111 -43.5 165.5
t-117.5 54.5q-72 0 -116 -43.5t-44 -126.5z" />
    <glyph glyph-name="colon" unicode=":" horiz-adv-x="224" 
d="M144 455v-56q-11 -4 -32 -4l-32 4v56q11 4 32 4zM144 60v-56q-11 -4 -32 -4l-32 4v56q11 4 32 4z" />
    <glyph glyph-name="semicolon" unicode=";" horiz-adv-x="239" 
d="M154 455v-56q-11 -4 -32 -4l-32 4v56q11 4 32 4zM100 -102l-21 15q29 30 33 87l-22 4v56q11 4 32 4l32 -4v-40q0 -36 -13.5 -66.5t-26.5 -43.5z" />
    <glyph glyph-name="less" unicode="&#x3c;" horiz-adv-x="468" 
d="M382 116l-320 147q-4 11 -4 27l4 26l320 147q4 -6 4 -22l-4 -23l-280 -129l280 -127q4 -7 4 -23z" />
    <glyph glyph-name="equal" unicode="=" horiz-adv-x="509" 
d="M423 354h-336q-5 22 0 42h336q5 -19 0 -42zM423 184h-336q-6 22 0 42h336q5 -17 0 -42z" />
    <glyph glyph-name="greater" unicode="&#x3e;" horiz-adv-x="468" 
d="M406 263l-320 -147q-4 8 -4 23l4 23l280 127l-280 129q-4 8 -4 23l4 22l320 -147q4 -10 4 -26z" />
    <glyph glyph-name="question" unicode="?" horiz-adv-x="431" 
d="M380 530q0 -55 -19.5 -94.5t-47 -64.5t-54.5 -49.5t-46.5 -64t-19.5 -93.5q-7 -5 -22 -5l-21 5q0 63 18 107.5t44.5 70t52.5 48t44 56.5t18 81q0 54 -33.5 86t-103.5 32q-36 0 -69 -6.5t-48 -12.5l-15 -6q-20 13 -16 38q59 32 154 32q90 0 137 -44t47 -116zM204 60v-56
q-11 -4 -32 -4l-32 4v56q11 4 32 4z" />
    <glyph glyph-name="at" unicode="@" horiz-adv-x="915" 
d="M846 303q0 -102 -44 -160t-124 -58q-83 0 -105 71q-36 -71 -129 -71q-72 0 -115.5 46t-43.5 147q0 103 43.5 148.5t115.5 45.5q83 0 121 -58v55q8 4 22 4l23 -4v-249q0 -98 70 -98q52 0 87 45t35 136q0 155 -90.5 247.5t-250.5 92.5q-155 0 -252 -99t-97 -265
q0 -176 97.5 -266t244.5 -90q150 0 277 84q19 -8 19 -29q-129 -94 -305 -94q-162 0 -270.5 102.5t-108.5 292.5q0 182 111 291.5t284 109.5q182 0 283.5 -103.5t101.5 -273.5zM334 278q0 -157 122 -157q48 0 77.5 32t31.5 75v98q0 44 -29.5 77t-79.5 33q-56 0 -89 -34
t-33 -124z" />
    <glyph glyph-name="A" unicode="A" horiz-adv-x="642" 
d="M295 716q9 4 26 4l26 -4l275 -712q-9 -4 -28 -4l-27 4l-79 204h-337l-80 -204q-8 -4 -27 -4l-24 4zM321 653h-2q-5 -21 -16 -52l-136 -347h304l-134 347z" />
    <glyph glyph-name="B" unicode="B" horiz-adv-x="626" 
d="M102 720h242q101 0 147.5 -52.5t46.5 -136.5q0 -114 -91 -165l7 -2q7 -3 12.5 -6t15.5 -8.5t18 -12.5t17.5 -16.5t17 -22.5t13.5 -28t9.5 -35t3.5 -42q0 -90 -52.5 -141.5t-160.5 -51.5h-246v720zM154 386h180q150 0 150 145q0 70 -35 107t-117 37h-178v-289zM154 45h188
q88 0 126 37.5t38 110.5q0 77 -40 113t-125 36h-187v-297z" />
    <glyph glyph-name="C" unicode="C" horiz-adv-x="557" 
d="M70 360q0 370 270 370q48 0 90 -8t60 -16l17 -9q-1 -23 -17 -40q-58 27 -143 27q-108 0 -165 -73.5t-57 -251.5q0 -92 15.5 -156t45.5 -99.5t69 -51t92 -15.5q41 0 79.5 6.5t56.5 13.5l18 7q15 -15 17 -41q-60 -33 -178 -33q-270 0 -270 370z" />
    <glyph glyph-name="D" unicode="D" horiz-adv-x="659" 
d="M102 720h198q149 0 219 -80.5t70 -279.5t-70 -279.5t-219 -80.5h-198v720zM154 46h141q60 0 102 14t74 48.5t47 96.5t15 155t-15 155t-47 96.5t-73.5 48.5t-102.5 14h-141v-628z" />
    <glyph glyph-name="E" unicode="E" horiz-adv-x="556" 
d="M102 720h391q4 -12 4 -22q0 -15 -4 -24h-339v-286h289q4 -14 4 -22q0 -14 -4 -23h-289v-297h349q4 -14 4 -22q0 -15 -4 -24h-401v720z" />
    <glyph glyph-name="F" unicode="F" horiz-adv-x="533" 
d="M154 333v-329q-8 -4 -26 -4l-26 4v716h389q4 -12 4 -23t-4 -23h-337v-296h293q4 -8 4 -22q0 -11 -4 -23h-293z" />
    <glyph glyph-name="G" unicode="G" horiz-adv-x="620" 
d="M69 360q0 182 72.5 276t209.5 94q51 0 97 -8t66 -16l20 -9q-3 -24 -17 -39q-71 26 -159 26q-109 0 -171.5 -74t-62.5 -251t62 -249.5t172 -72.5q59 0 136 16v282h-180q-4 9 -4 23l4 23h231v-358q-74 -33 -194 -33q-137 0 -209.5 93t-72.5 277z" />
    <glyph glyph-name="H" unicode="H" horiz-adv-x="676" 
d="M522 393v323q9 4 26 4l26 -4v-712q-8 -4 -26 -4l-26 4v341h-368v-341q-9 -4 -26 -4l-26 4v712q9 4 26 4l26 -4v-323h368z" />
    <glyph glyph-name="I" unicode="I" horiz-adv-x="256" 
d="M102 4v712q8 4 26 4l26 -4v-712q-8 -4 -26 -4z" />
    <glyph glyph-name="J" unicode="J" horiz-adv-x="425" 
d="M275 163v553q7 4 26 4l26 -4v-552q0 -174 -163 -174q-34 0 -68 7.5t-52 14.5l-17 8q-2 27 15 41q55 -24 116 -24q117 0 117 126z" />
    <glyph glyph-name="K" unicode="K" horiz-adv-x="610" 
d="M279 397l224 319q12 4 28 4q12 0 28 -4l-236 -337l265 -375q-10 -4 -30 -4l-32 4l-246 347h-126v-347q-8 -4 -26 -4l-26 4v712q9 4 27 4l25 -4v-319h125z" />
    <glyph glyph-name="L" unicode="L" horiz-adv-x="507" 
d="M102 0v716q9 4 26 4l26 -4v-669h323q4 -12 4 -23q0 -8 -4 -24h-375z" />
    <glyph glyph-name="M" unicode="M" horiz-adv-x="842" 
d="M671 716q20 4 34 4l35 -4v-712q-8 -4 -26 -4l-26 4v507q0 108 5 148h-3q-7 -27 -51 -105l-205 -356q-8 -4 -20 -4l-20 4q-38 70 -112 202.5t-85 152.5q-42 75 -50 106h-3q7 -33 7 -152v-503q-7 -4 -24 -4l-25 4v712q13 4 33 4l33 -4l206 -372q26 -47 40 -81h2q9 23 32 63
q41 70 115.5 201.5t107.5 188.5z" />
    <glyph glyph-name="N" unicode="N" horiz-adv-x="694" 
d="M531 4l-331 552q-16 25 -28.5 49t-17.5 35l-4 12h-2q4 -44 4 -140v-508q-8 -4 -26 -4l-24 4v712q11 4 31 4l30 -4l329 -545q14 -24 27.5 -49.5t19.5 -39.5l6 -13h2q-4 55 -4 133v514q7 4 25 4l24 -4v-712q-9 -4 -30 -4z" />
    <glyph glyph-name="O" unicode="O" horiz-adv-x="680" 
d="M70 360q0 188 70.5 279t199.5 91t199.5 -90.5t70.5 -279.5q0 -370 -270 -370t-270 370zM554 360q0 172 -55.5 248.5t-158.5 76.5t-158.5 -76.5t-55.5 -248.5q0 -325 214 -325t214 325z" />
    <glyph glyph-name="P" unicode="P" horiz-adv-x="599" 
d="M154 301v-297q-8 -4 -25 -4l-27 4v716h247q93 0 146.5 -57.5t53.5 -152.5q0 -94 -53.5 -151.5t-146.5 -57.5h-195zM154 348h193q70 0 108.5 43t38.5 118q0 78 -38.5 121.5t-108.5 43.5h-193v-326z" />
    <glyph glyph-name="Q" unicode="Q" horiz-adv-x="680" 
d="M70 360q0 188 70.5 279t199.5 91t199.5 -90.5t70.5 -279.5q0 -226 -103 -315q51 -51 128 -70q-3 -31 -30 -45q-36 10 -73 35t-62 56q-55 -31 -130 -31q-270 0 -270 370zM554 360q0 172 -55.5 248.5t-158.5 76.5t-158.5 -76.5t-55.5 -248.5q0 -325 214 -325t214 325z" />
    <glyph glyph-name="R" unicode="R" horiz-adv-x="618" 
d="M102 720h241q93 0 147 -55t54 -146q0 -76 -39 -127.5t-108 -66.5l173 -321q-10 -4 -30 -4l-31 4l-168 315h-187v-315q-8 -4 -25 -4l-27 4v716zM154 674v-309h188q68 0 107.5 41t39.5 113q0 73 -39.5 114t-107.5 41h-188z" />
    <glyph glyph-name="S" unicode="S" horiz-adv-x="561" 
d="M64 536q0 90 60 142t170 52q50 0 96 -6t67 -12l21 -7q0 -27 -14 -42q-75 21 -163 21q-92 0 -138 -38t-46 -107q0 -25 5.5 -44.5t21 -34.5t27 -24t40 -19.5t42.5 -15t51 -14.5t60.5 -18.5t53 -24.5t46.5 -35.5t29 -50.5t12 -71q0 -93 -62.5 -145t-175.5 -52
q-55 0 -105.5 9.5t-73.5 18.5l-24 10q0 26 14 43q89 -32 184 -32q91 0 140 37.5t49 109.5q0 36 -12.5 62t-39 43t-50.5 26t-64 20q-103 30 -139 51q-82 48 -82 148z" />
    <glyph glyph-name="T" unicode="T" horiz-adv-x="533" 
d="M35 720h463q4 -8 4 -23l-4 -23h-203v-670q-8 -4 -26 -4l-26 4v670h-208q-4 9 -4 23z" />
    <glyph glyph-name="U" unicode="U" horiz-adv-x="667" 
d="M570 716v-488q0 -113 -64.5 -175.5t-172.5 -62.5t-172 63t-64 175v488q9 4 26 4l27 -4v-495q0 -88 48.5 -137t136.5 -49q87 0 135.5 49t48.5 137v495q8 4 25 4z" />
    <glyph glyph-name="V" unicode="V" horiz-adv-x="616" 
d="M79 716l207 -575l21 -73h3q5 31 20 72l207 576q8 4 26 4l27 -4l-256 -712q-10 -4 -26 -4l-26 4l-256 711q8 5 28 5z" />
    <glyph glyph-name="W" unicode="W" horiz-adv-x="949" 
d="M659 4l-160 545q-8 30 -13 55.5t-6 35.5l-1 10h-3q-2 -33 -20 -101l-160 -545q-16 -4 -28 -4q-10 0 -26 4l-212 712q8 4 26 4l27 -4l163 -546q8 -25 14 -51t8 -39l2 -13h3q4 45 21 103l160 546q7 4 25 4l25 -4l160 -546q7 -26 12 -52t6 -38l2 -13h2q5 43 23 103l156 546
q8 4 25 4l25 -4l-204 -712q-9 -4 -26 -4z" />
    <glyph glyph-name="X" unicode="X" horiz-adv-x="599" 
d="M498 716q16 4 30 4t30 -4l-225 -344l236 -367q-11 -5 -32 -5l-31 4l-211 328l-205 -328q-16 -4 -30 -4t-30 4l230 366l-220 346q10 4 32 4l30 -4l196 -308z" />
    <glyph glyph-name="Y" unicode="Y" horiz-adv-x="620" 
d="M540 716q9 4 28 4l31 -4l-264 -412v-300q-9 -4 -26 -4l-26 4v299l-257 413q11 4 32 4l30 -4l223 -357z" />
    <glyph glyph-name="Z" unicode="Z" horiz-adv-x="580" 
d="M72 720h445q4 -12 4 -23q0 -9 -4 -25l-412 -624h425q4 -12 4 -24q0 -8 -4 -24h-485q-4 16 -4 24t4 24l412 624h-385q-4 16 -4 25q0 11 4 23z" />
    <glyph glyph-name="bracketleft" unicode="[" horiz-adv-x="316" 
d="M100 810h173q4 -7 4 -23l-4 -23h-123v-888h123q4 -8 4 -23l-4 -23h-173v980z" />
    <glyph glyph-name="backslash" unicode="\" horiz-adv-x="439" 
d="M79 745l336 -787q-9 -5 -27 -5l-28 5l-336 787q9 5 27 5q8 0 15 -1t10 -3z" />
    <glyph glyph-name="bracketright" unicode="]" horiz-adv-x="315" 
d="M215 -170h-173q-4 7 -4 23l4 23h123v888h-123q-4 7 -4 23l4 23h173v-980z" />
    <glyph glyph-name="asciicircum" unicode="^" horiz-adv-x="516" 
d="M283 716l175 -260q-6 -4 -24 -4l-26 4l-151 224l-150 -224q-7 -4 -25 -4l-24 4l175 260q7 4 25 4z" />
    <glyph glyph-name="underscore" unicode="_" horiz-adv-x="535" 
d="M472 -59h-408q-4 5 -4 20l4 19h408q4 -5 4 -19z" />
    <glyph glyph-name="grave" unicode="`" horiz-adv-x="238" 
d="M169 641l-125 144q6 10 19.5 17t27.5 6l111 -148q-10 -16 -33 -19z" />
    <glyph glyph-name="a" unicode="a" horiz-adv-x="512" 
d="M90 505q77 31 166 31q102 0 138 -49.5t36 -158.5v-324q-6 -4 -20 -4l-21 4l-8 84q-47 -98 -176 -98q-71 0 -113 40.5t-42 114.5q0 154 186 154q75 0 144 -9v68q0 72 -31.5 103t-98.5 31q-34 0 -70 -6.5t-55 -13.5l-19 -6q-8 6 -13 16q-5 13 -3 23zM380 251q-99 9 -136 9
q-73 0 -107 -27t-34 -88q0 -112 115 -112q72 0 117 48t45 126v44z" />
    <glyph glyph-name="b" unicode="b" horiz-adv-x="554" 
d="M136 746v-298q49 88 161 88q95 0 145 -63t50 -210t-50 -210t-145 -63q-112 0 -161 88v-74q-7 -4 -25 -4l-25 4v742q7 4 25 4zM439 263q0 123 -36.5 176t-120.5 53q-67 0 -105.5 -48.5t-40.5 -112.5v-131q0 -65 39 -115.5t107 -50.5q84 0 120.5 53t36.5 176z" />
    <glyph glyph-name="c" unicode="c" horiz-adv-x="444" 
d="M281 491q-168 0 -168 -228q0 -115 42 -170.5t130 -55.5q27 0 52 5.5t37 10.5l11 5q16 -10 18 -39q-47 -29 -132 -29q-102 0 -156 70t-54 203t54 203t156 70q36 0 66 -6t43 -12l12 -6q0 -26 -17 -39q-36 18 -94 18z" />
    <glyph glyph-name="d" unicode="d" horiz-adv-x="554" 
d="M418 746q7 4 25 4l25 -4v-742q-8 -4 -21 -4l-22 4l-5 77q-50 -91 -163 -91q-95 0 -145 63t-50 210t50 210t145 63q112 0 161 -88v298zM418 327q-1 65 -40 115t-106 50q-84 0 -120.5 -53t-36.5 -176t36.5 -176t120.5 -53q68 0 107 50.5t39 115.5v127z" />
    <glyph glyph-name="e" unicode="e" horiz-adv-x="509" 
d="M443 247h-330q5 -112 45.5 -161t122.5 -49q35 0 66.5 9.5t45.5 18.5l14 9q19 -14 21 -39q-6 -5 -18 -12.5t-53 -20t-88 -12.5q-102 0 -155 70t-53 206q0 137 56 203.5t153 66.5q88 0 136 -51t48 -137q0 -28 -3 -53t-5 -37zM402 354q0 61 -32.5 100t-99.5 39
q-71 0 -112 -50.5t-45 -154.5h284l1 4q0 3 1 8.5t1.5 13t1 18.5t0.5 22z" />
    <glyph glyph-name="f" unicode="f" horiz-adv-x="344" 
d="M109 586q0 80 33 122t118 42q24 0 48 -3.5t36 -6.5l11 -4q2 -24 -14 -40q-31 11 -75 11q-62 0 -84.5 -28t-22.5 -88v-65h154q4 -12 4 -21t-4 -21h-154v-480q-7 -4 -25 -4l-25 4v480h-70q-4 12 -4 21t4 21h70v60z" />
    <glyph glyph-name="g" unicode="g" horiz-adv-x="521" 
d="M354 512l132 23q10 -23 0 -48l-95 -6q40 -45 40 -118q0 -80 -47.5 -126t-135.5 -46q-30 0 -60 7q-33 -40 -33 -85q1 -22 19.5 -35t47.5 -18.5t64 -9t70 -10.5t64 -19.5t47 -40t18 -67.5q0 -70 -64 -116.5t-180 -46.5q-100 0 -149.5 40t-49.5 104q0 89 88 149
q-25 22 -25 58q0 50 47 109q-87 41 -87 153q0 81 48 127t135 46q61 0 106 -24zM380 364q0 64 -35.5 98t-96.5 34q-60 0 -96 -34t-36 -98q0 -65 36 -99t96 -34q61 0 96.5 34t35.5 99zM435 -92q0 41 -30.5 63t-68 26.5t-91 11t-80.5 16.5q-33 -22 -52 -55t-19 -67
q0 -52 38 -82t110 -30q88 0 140.5 32t52.5 85z" />
    <glyph glyph-name="h" unicode="h" horiz-adv-x="549" 
d="M466 387v-383q-8 -4 -25 -4l-25 4v372q0 117 -120 117q-48 0 -92 -30.5t-68 -82.5v-376q-8 -4 -25 -4l-25 4v742q8 4 25 4l25 -4v-301q64 91 178 91q71 0 111.5 -40.5t40.5 -108.5z" />
    <glyph glyph-name="i" unicode="i" horiz-adv-x="228" 
d="M146 706v-56q-11 -4 -32 -4l-32 4v56q11 4 32 4zM139 522v-518q-7 -4 -25 -4l-25 4v518q7 4 25 4z" />
    <glyph glyph-name="j" unicode="j" horiz-adv-x="228" 
d="M145 709v-56q-10 -4 -31 -4l-32 4v56q10 4 32 4zM89 -92v614q6 4 25 4l25 -4v-610q0 -81 -35 -121.5t-100 -40.5q-19 0 -33.5 2t-20.5 4l-5 3q-2 5 -2 12q0 8 1.5 14.5t3.5 8.5l1 3q16 -4 43 -4q50 0 73.5 27t23.5 88z" />
    <glyph glyph-name="k" unicode="k" horiz-adv-x="496" 
d="M242 296l156 226q10 4 29 4l25 -3l-168 -245l192 -273q-10 -5 -29 -5l-30 5l-176 249h-105v-250q-8 -4 -25 -4l-25 4v742q8 4 25 4l25 -4v-450h106z" />
    <glyph glyph-name="l" unicode="l" horiz-adv-x="232" 
d="M141 746v-742q-7 -4 -25 -4l-25 4v742q7 4 25 4z" />
    <glyph glyph-name="m" unicode="m" horiz-adv-x="840" 
d="M438 438q64 98 177 98q67 0 104.5 -40.5t37.5 -108.5v-383q-8 -4 -25 -4l-25 4v372q0 117 -110 117q-46 0 -87.5 -30t-63.5 -85v-374q-8 -4 -25 -4l-25 4v372q0 117 -110 117q-45 0 -86 -30.5t-63 -82.5v-376q-9 -4 -26 -4l-25 4v518q8 4 25 4l26 -4v-76q59 90 167 90
q107 0 134 -98z" />
    <glyph glyph-name="n" unicode="n" 
d="M466 387v-383q-8 -4 -25 -4l-25 4v372q0 117 -120 117q-48 0 -92 -30.5t-68 -82.5v-376q-8 -4 -25 -4l-25 4v518q8 4 25 4l25 -4v-77q64 91 178 91q71 0 111.5 -40.5t40.5 -108.5z" />
    <glyph glyph-name="o" unicode="o" horiz-adv-x="540" 
d="M62 263q0 144 53 208.5t155 64.5t155 -64.5t53 -208.5t-53 -208.5t-155 -64.5t-155 64.5t-53 208.5zM426 263q0 126 -39.5 178.5t-116.5 52.5t-116.5 -52.5t-39.5 -178.5t39.5 -178.5t116.5 -52.5t116.5 52.5t39.5 178.5z" />
    <glyph glyph-name="p" unicode="p" horiz-adv-x="554" 
d="M136 448q49 88 161 88q95 0 145 -63t50 -210t-50 -210t-145 -63q-112 0 -161 88v-319q-7 -4 -25 -4l-25 4v763q7 4 25 4l25 -4v-74zM439 263q0 123 -36.5 176t-120.5 53q-67 0 -105.5 -48.5t-40.5 -112.5v-131q0 -65 39 -115.5t107 -50.5q84 0 120.5 53t36.5 176z" />
    <glyph glyph-name="q" unicode="q" horiz-adv-x="554" 
d="M418 -241v319q-49 -88 -161 -88q-95 0 -145 63t-50 210t50 210t145 63q112 0 161 -88v74q6 4 24 4l26 -4v-763q-7 -4 -25 -4zM115 263q0 -123 36.5 -176t120.5 -53q66 0 105 48t41 112v137q-2 64 -41 112.5t-105 48.5q-84 0 -120.5 -53t-36.5 -176z" />
    <glyph glyph-name="r" unicode="r" horiz-adv-x="388" 
d="M136 430q53 105 145 105q49 0 84 -23q-2 -29 -24 -42q-35 18 -72 18q-38 0 -73 -32t-60 -87v-365q-7 -4 -25 -4l-25 4v518q7 4 25 4l25 -4v-92z" />
    <glyph glyph-name="s" unicode="s" horiz-adv-x="443" 
d="M59 388q0 68 45 108t132 40q36 0 68.5 -6t47.5 -12l14 -5q2 -26 -15 -39q-49 18 -110 18q-131 0 -131 -102q0 -22 9.5 -38.5t29.5 -28t38 -18.5t47 -15q32 -9 46 -14t40.5 -18t38.5 -26.5t22.5 -37.5t10.5 -55q0 -70 -45 -109.5t-133 -39.5q-43 0 -82 8t-56 16l-17 8
q-2 25 14 39q65 -26 137 -26q59 0 94.5 25t35.5 77q0 18 -4 32.5t-16.5 26t-20 17.5t-30 14t-29 10t-34.5 10q-32 9 -53.5 18t-45.5 25t-36 40.5t-12 57.5z" />
    <glyph glyph-name="t" unicode="t" horiz-adv-x="359" 
d="M165 484v-308q0 -76 24.5 -109t86.5 -33l54 5q5 -8 5 -22l-3 -19q-40 -8 -68 -8q-82 0 -115.5 46t-33.5 139v309h-80q-4 6 -4 21l4 21h80v99q22 15 50 12v-111h153q5 -7 5 -21l-5 -21h-153z" />
    <glyph glyph-name="u" unicode="u" 
d="M82 139v383q8 4 25 4l25 -4v-372q0 -117 120 -117q48 0 92 30t68 83v376q8 4 25 4l25 -4v-518q-8 -4 -25 -4l-25 4v77q-67 -91 -178 -91q-71 0 -111.5 40.5t-40.5 108.5z" />
    <glyph glyph-name="v" unicode="v" horiz-adv-x="502" 
d="M82 522l138 -362q9 -24 17 -49t11 -38l3 -13h3q11 42 32 98l137 364q7 4 24 4l25 -4l-194 -518q-10 -4 -26 -4l-26 4l-198 518q9 4 27 4z" />
    <glyph glyph-name="w" unicode="w" horiz-adv-x="794" 
d="M544 4l-111 334q-29 90 -33 125h-3q-4 -32 -36 -125l-111 -334q-16 -4 -24 -4q-6 0 -26 4l-167 518q9 4 26 4l24 -4l122 -374q13 -42 20 -85h3q6 38 22 85l124 374q9 4 25 4l25 -4l124 -372q11 -36 20 -87h3q6 34 22 86l121 373q8 4 23 4l24 -4l-167 -518q-20 -4 -25 -4
t-25 4z" />
    <glyph glyph-name="x" unicode="x" horiz-adv-x="489" 
d="M213 268l-178 254q9 4 28 4l30 -4l154 -218l152 218q7 4 27 4l28 -4l-179 -255l185 -263q-9 -4 -28 -4l-30 4l-161 226l-157 -226q-8 -4 -29 -4l-26 4z" />
    <glyph glyph-name="y" unicode="y" horiz-adv-x="522" 
d="M492 522l-226 -635q-25 -71 -54 -104t-82 -33q-13 0 -25 2t-18 4l-6 1q-4 12 -4 20q0 15 5 22q18 -5 43 -5q31 0 52 22.5t42 82.5l37 102q-12 2 -18 5l-209 516q10 4 28 4l27 -4l152 -373l35 -99h4q12 42 32 99l133 373q7 4 26 4z" />
    <glyph glyph-name="z" unicode="z" horiz-adv-x="454" 
d="M102 44h299q4 -6 4 -22l-4 -22h-355q-4 12 -4 23q0 9 4 21l297 438h-274q-4 7 -4 22l4 22h329q4 -12 4 -21q0 -11 -4 -23z" />
    <glyph glyph-name="braceleft" unicode="{" horiz-adv-x="338" 
d="M247 810h48q4 -12 4 -22t-4 -22h-39q-92 0 -92 -91v-250q0 -67 -33 -90q33 -23 33 -91v-250q0 -91 92 -91h39q4 -12 4 -22t-4 -22h-48q-65 0 -99 35.5t-34 97.5v270q0 50 -42 50h-33q-4 12 -4 22q0 11 4 23h33q42 0 42 50v270q0 62 34 97.5t99 35.5z" />
    <glyph glyph-name="bar" unicode="|" horiz-adv-x="250" 
d="M100 786q7 4 25 4l25 -4v-979q-7 -4 -25 -4l-25 4v979z" />
    <glyph glyph-name="braceright" unicode="}" horiz-adv-x="337" 
d="M42 810h48q65 0 99 -35.5t34 -97.5v-270q0 -50 42 -50h33q4 -12 4 -22q0 -11 -4 -23h-33q-42 0 -42 -50v-270q0 -62 -34 -97.5t-99 -35.5h-48q-3 9 -3 22t3 22h39q92 0 92 91v250q0 67 33 90q-33 23 -33 91v250q0 91 -92 91h-39l-2 7q-1 7 -1 14q0 14 3 23z" />
    <glyph glyph-name="asciitilde" unicode="~" horiz-adv-x="536" 
d="M187 303q-21 0 -40 -9t-27 -18l-9 -9q-23 5 -28 29q4 6 11 14.5t35 23t62 14.5q33 0 79.5 -25.5t77.5 -25.5q21 0 40 9t28 18l8 9q24 -4 30 -28q-1 -2 -3.5 -5.5t-12.5 -13t-21.5 -16.5t-31 -12.5t-41.5 -5.5q-33 0 -79.5 25.5t-77.5 25.5z" />
    <glyph glyph-name="exclamdown" unicode="&#xa1;" horiz-adv-x="235" 
d="M85 514q11 4 32 4l32 -4v-56q-11 -4 -32 -4l-32 4v56zM98 354q5 5 19 5q6 0 10.5 -1.5t6.5 -2.5l2 -1l8 -552q-1 -4 -27 -4l-27 4z" />
    <glyph glyph-name="cent" unicode="&#xa2;" horiz-adv-x="465" 
d="M248 627q10 4 25 4q16 0 24 -4l-5 -91q31 -1 57.5 -7t36.5 -11l11 -6q0 -25 -17 -38q-36 18 -94 18q-168 0 -168 -229q0 -115 42 -171t130 -56q27 0 52 5t36 11l12 5q16 -10 18 -38q-42 -26 -116 -29l5 -91q-13 -5 -25 -5q-14 0 -24 5l5 92q-91 8 -139 77t-48 195t48 195
t139 77z" />
    <glyph glyph-name="sterling" unicode="&#xa3;" horiz-adv-x="517" 
d="M386 316h-182q14 -49 16 -88t-16.5 -88t-63.5 -92h313q5 -5 5 -24t-5 -24h-379v48q39 35 61 69.5t26.5 69t0.5 63t-15 66.5h-83q-4 12 -4 21q0 15 4 21h70q-35 103 -35 155q0 90 54.5 134t148.5 44q86 0 153 -27q2 -28 -17 -40q-5 2 -21 7t-47.5 10t-62.5 5
q-153 0 -153 -136q0 -43 37 -152h195q5 -8 5 -20q0 -15 -5 -22z" />
    <glyph glyph-name="currency" unicode="&#xa4;" horiz-adv-x="587" 
d="M490 46l-75 74q-55 -43 -121 -43q-67 0 -122 43l-74 -74q-8 0 -19 11q-4 4 -6.5 8.5t-2.5 6.5l-1 3l74 74q-43 55 -43 122q0 68 44 122l-75 74q1 9 10 19q5 4 10 6.5l7 3.5h2l76 -74q55 43 120 43t120 -43l73 74q8 0 19 -10q4 -4 7 -9t3 -7l1 -3l-73 -74q44 -55 44 -122
q0 -68 -44 -122l75 -74q-1 -9 -10 -18q-5 -5 -9.5 -8t-7.5 -3h-2zM294 424q-64 0 -108.5 -44.5t-44.5 -108.5t44.5 -108.5t108.5 -44.5t108.5 44t44.5 109t-44.5 109t-108.5 44z" />
    <glyph glyph-name="yen" unicode="&#xa5;" horiz-adv-x="607" 
d="M518 680q9 4 27 4l27 -4l-232 -369h154q4 -12 4 -19q0 -11 -4 -19h-171v-79h171q4 -8 4 -19q0 -7 -4 -19h-171v-152q-6 -4 -24 -4l-24 4v152h-171q-4 12 -4 19t4 19h171v79h-171q-4 12 -4 19t4 19h154l-220 368q9 5 27 5l29 -4l206 -348z" />
    <glyph glyph-name="brokenbar" unicode="&#xa6;" horiz-adv-x="250" 
d="M99 689q8 4 26 4l26 -4v-775q-8 -4 -26 -4l-26 4v775z" />
    <glyph glyph-name="section" unicode="&#xa7;" horiz-adv-x="482" 
d="M365 121q0 31 -30.5 51.5t-73.5 32t-86.5 25t-74 42t-30.5 72.5q0 72 78 119q-68 36 -68 103q0 61 44 92.5t123 31.5t135 -21q6 -25 -12 -37q-68 17 -112 17q-129 0 -129 -82q0 -32 29 -53t70 -33t82.5 -26t70.5 -42t29 -71q0 -68 -71 -115q77 -38 77 -106
q0 -131 -189 -131q-40 0 -78.5 6t-56.5 12l-19 6q-4 26 12 39q76 -19 133 -19q75 0 111 20.5t36 66.5zM189 444q-70 -40 -70 -93q0 -18 8 -32t19 -22.5t31 -17t35.5 -13t41.5 -11.5t41 -12q66 40 66 93q0 20 -9.5 34.5t-29.5 25.5t-37.5 17.5t-48.5 15.5t-47 15z" />
    <glyph glyph-name="dieresis" unicode="&#xa8;" horiz-adv-x="455" 
d="M179 668v-53q-10 -4 -30 -4l-30 4v53q10 3 30 3zM328 668v-53q-10 -4 -30 -4l-30 4v53q10 3 30 3z" />
    <glyph glyph-name="copyright" unicode="&#xa9;" horiz-adv-x="807" 
d="M404 2q-140 0 -239 99t-99 239t99 238.5t239 98.5t238.5 -98.5t98.5 -238.5t-98.5 -239t-238.5 -99zM404 639q-124 0 -212 -87.5t-88 -211.5t88 -212t212 -88t211.5 88t87.5 212t-87.5 211.5t-211.5 87.5zM406 147q-84 0 -127 51.5t-43 148.5q0 199 170 199
q29 0 54.5 -5.5t35.5 -10.5l11 -6q0 -19 -15 -31q-38 18 -81 18q-68 0 -100 -38.5t-32 -125.5q0 -163 132 -163q21 0 42.5 4t32.5 8l11 4q13 -7 15 -30q-37 -23 -106 -23z" />
    <glyph glyph-name="ordfeminine" unicode="&#xaa;" horiz-adv-x="361" 
d="M85 610q47 20 102 20q106 0 106 -105v-219q-5 -4 -14 -4l-15 4l-5 42q-30 -52 -104 -52q-43 0 -69 25.5t-26 70.5q0 94 114 94q24 0 84 -5v39q0 41 -19 59.5t-57 18.5q-20 0 -42 -4t-34 -8l-11 -4q-12 14 -10 28zM258 453q-48 4 -79 4q-83 0 -83 -65t67 -65q41 0 67.5 26
t27.5 71v29zM64 244h226q5 -16 0 -31h-226q-5 16 0 31z" />
    <glyph glyph-name="guillemotleft" unicode="&#xab;" horiz-adv-x="493" 
d="M55 291l206 218q16 -10 18 -34l-183 -205l183 -206q-2 -24 -18 -34l-206 218q-4 8 -4 21zM224 290l188 199q15 -9 17 -33l-164 -186l164 -187q-2 -24 -17 -33l-188 199q-3 7 -3 20z" />
    <glyph glyph-name="logicalnot" unicode="&#xac;" horiz-adv-x="601" 
d="M515 439v-254q-8 -4 -23 -4l-22 4v209h-403q-4 8 -4 22l4 23h448z" />
    <glyph glyph-name="uni00AD" unicode="&#xad;" horiz-adv-x="270" 
 />
    <glyph glyph-name="registered" unicode="&#xae;" horiz-adv-x="554" 
d="M277 263q-86 0 -147 61t-61 147t61 147t147 61t147 -61t61 -147t-61 -147t-147 -61zM277 655q-76 0 -129.5 -54t-53.5 -130t53.5 -130t129.5 -54t129.5 53.5t53.5 130.5t-53.5 130.5t-129.5 53.5zM293 589q72 0 72 -66q0 -47 -44 -61l58 -97q-5 -4 -14 -4l-14 3l-57 95
h-63v-95q-5 -3 -12 -3l-13 3v225h87zM231 481h62q46 0 46 42q0 44 -46 44h-62v-86z" />
    <glyph glyph-name="macron" unicode="&#xaf;" horiz-adv-x="407" 
d="M341 630h-291q-10 20 0 40h291q9 -17 0 -40z" />
    <glyph glyph-name="degree" unicode="&#xb0;" horiz-adv-x="360" 
d="M59 617q0 48 33 84.5t90 36.5q56 0 87.5 -35t31.5 -83t-31 -83.5t-88 -35.5q-59 0 -91 34t-32 82zM270 619q0 38 -23 64.5t-66 26.5t-67 -27.5t-24 -64.5t23.5 -63t67.5 -26q43 0 66 26.5t23 63.5z" />
    <glyph glyph-name="plusminus" unicode="&#xb1;" horiz-adv-x="514" 
d="M236 381h-148q-4 7 -4 21l4 21h148v118q7 4 21 4l21 -4v-118h148q4 -7 4 -21l-4 -21h-148v-118q-7 -4 -21 -4l-21 4v118zM426 143h-338q-4 7 -4 21l4 21h338q4 -7 4 -21z" />
    <glyph glyph-name="twosuperior" unicode="&#xb2;" horiz-adv-x="300" 
d="M35 387q0 38 19.5 64.5t46.5 41t54.5 27.5t47 32.5t19.5 46.5q0 64 -84 64q-52 0 -72 -10q-11 13 -8 28q35 13 86 13q58 0 86 -24.5t28 -67.5q0 -35 -19.5 -59.5t-47.5 -39t-55.5 -28.5t-46.5 -38t-18 -58h182q4 -7 4 -17q0 -9 -4 -16h-214q-4 18 -4 41z" />
    <glyph glyph-name="threesuperior" unicode="&#xb3;" horiz-adv-x="299" 
d="M258 439q0 -98 -132 -98q-23 0 -45 3.5t-33 7.5l-10 4q-2 17 9 26q35 -10 77 -10q56 0 77 18.5t21 50.5q0 69 -81 69h-44q-7 16 0 31h44q34 0 51.5 16.5t17.5 44.5q0 61 -77 61q-20 0 -39.5 -2.5t-29.5 -4.5l-9 -2q-10 10 -8 27q35 13 88 13q55 0 83.5 -23t28.5 -66
q0 -55 -47 -78q58 -23 58 -88z" />
    <glyph glyph-name="acute" unicode="&#xb4;" horiz-adv-x="224" 
d="M188 785l-125 -144q-23 3 -33 19l111 148q31 2 47 -23z" />
    <glyph glyph-name="mu" unicode="&#xb5;" horiz-adv-x="576" 
d="M426 522q7 4 25 4l25 -4v-518q-7 -4 -25 -4l-25 4v75q-64 -89 -168 -89q-78 0 -117 47q2 -95 9.5 -163.5t13.5 -89.5l7 -21q-21 -20 -55 -11q-20 67 -20 234v536q8 4 25 4l25 -4v-374q0 -115 121 -115q52 0 95 33t64 79v377z" />
    <glyph glyph-name="paragraph" unicode="&#xb6;" horiz-adv-x="468" 
d="M148 -223v690q-54 1 -83 35.5t-29 80.5q1 47 31.5 81.5t84.5 34.5h39v-922q-7 -4 -22 -4zM362 695v-918q-6 -4 -21 -4l-22 4v918q6 4 22 4z" />
    <glyph glyph-name="periodcentered" unicode="&#xb7;" horiz-adv-x="220" 
d="M140 310v-52q-10 -4 -30 -4l-30 4v52q10 4 30 4z" />
    <glyph glyph-name="cedilla" unicode="&#xb8;" horiz-adv-x="296" 
d="M118 42l34 -5l-11 -63q111 0 111 -90q0 -98 -115 -98q-23 0 -45 6t-32 12l-11 5q1 19 14 28l3 -1q4 -2 8.5 -4t11.5 -4t14.5 -4t17.5 -3t19 -1q74 0 74 65q0 56 -69 56h-32l-8 10z" />
    <glyph glyph-name="onesuperior" unicode="&#xb9;" horiz-adv-x="240" 
d="M30 617q68 18 114 69q6 3 18 3t16 -3v-338q-8 -2 -16 -2q-13 0 -19 2v253q0 28 1 40q-46 -40 -106 -54q-11 11 -8 30z" />
    <glyph glyph-name="ordmasculine" unicode="&#xba;" horiz-adv-x="378" 
d="M61 463q0 87 31.5 127t96.5 40q66 0 97.5 -39.5t31.5 -127.5t-31.5 -128t-97.5 -40q-65 0 -96.5 40t-31.5 128zM281 463q0 72 -22 104t-70 32q-49 0 -70 -31.5t-21 -104.5q0 -74 21 -105t70 -31t70.5 31.5t21.5 104.5zM74 244h230q3 -6 3 -15q0 -10 -3 -16h-230
q-3 6 -3 16q0 9 3 15z" />
    <glyph glyph-name="guillemotright" unicode="&#xbb;" horiz-adv-x="494" 
d="M232 509l206 -218q4 -8 4 -22l-4 -21l-206 -218q-16 11 -18 34l183 206l-183 205q2 23 18 34zM81 489l188 -199q3 -7 3 -21l-3 -20l-188 -199q-15 9 -17 33l165 187l-165 186q2 24 17 33z" />
    <glyph glyph-name="onequarter" unicode="&#xbc;" horiz-adv-x="646" 
d="M110 -7l388 705q6 4 20 4l18 -4l-387 -705q-7 -3 -20 -3zM39 617q67 17 113 69q8 3 18 3q11 0 17 -3v-338q-8 -2 -17 -2q-12 0 -18 2v253q0 28 1 40q-46 -40 -106 -54q-11 11 -8 30zM555 124h42q3 -9 3 -15q0 -10 -3 -16h-42v-90q-6 -3 -15 -3q-11 0 -17 3v90h-180
q-3 6 -3 11q0 6 3 12l177 224q9 3 18 3q11 0 17 -3v-216zM523 295l-137 -171h137v171z" />
    <glyph glyph-name="onehalf" unicode="&#xbd;" horiz-adv-x="704" 
d="M498 698q6 4 20 4l18 -4l-387 -705q-7 -3 -20 -3l-19 3zM152 686q8 3 18 3q11 0 17 -3v-338q-8 -2 -17 -2q-12 0 -18 2v253q0 28 1 40q-46 -40 -106 -54q-11 11 -8 30q67 17 113 69zM451 335q35 13 86 13q58 0 86 -24.5t28 -67.5q0 -35 -19.5 -59.5t-47.5 -39
t-55.5 -28.5t-46.5 -38t-18 -58h182q4 -7 4 -17q0 -9 -4 -16h-214q-4 18 -4 41q0 38 19.5 64.5t47 41t54.5 27.5t46.5 32.5t19.5 46.5q0 64 -84 64q-52 0 -72 -10q-11 13 -8 28z" />
    <glyph glyph-name="threequarters" unicode="&#xbe;" horiz-adv-x="702" 
d="M554 698q6 4 20 4l18 -4l-387 -705q-7 -3 -20 -3l-19 3zM64 681q35 13 88 13q55 0 83.5 -23t28.5 -66q0 -55 -47 -78q58 -23 58 -88q0 -98 -132 -98q-23 0 -45 3.5t-32 7.5l-11 4q-2 17 9 26q35 -10 77 -10q56 0 77 18.5t21 50.5q0 69 -81 69h-44q-7 16 0 31h44
q34 0 51.5 16.5t17.5 44.5q0 61 -77 61q-20 0 -39.5 -2.5t-28.5 -4.5l-10 -2q-10 10 -8 27zM576 340q9 3 18 3q11 0 17 -3v-216h42q3 -9 3 -15q0 -10 -3 -16h-42v-90q-6 -3 -15 -3q-11 0 -17 3v90h-180q-3 6 -3 12q0 5 3 11zM442 124h137v171z" />
    <glyph glyph-name="questiondown" unicode="&#xbf;" horiz-adv-x="422" 
d="M225 460v56q11 4 32 4l31 -4v-56q-10 -4 -31 -4zM48 -10q0 55 19.5 94.5t47 64.5t55 49.5t47 64t19.5 93.5q7 4 21 4l21 -4q0 -63 -18 -107.5t-44 -70t-52 -48t-44 -56.5t-18 -81q0 -54 33.5 -86t103.5 -32q36 0 69 6.5t48 12.5l15 6q20 -13 16 -38q-60 -32 -154 -32
q-90 0 -137.5 44.5t-47.5 115.5z" />
    <glyph glyph-name="Agrave" unicode="&#xc0;" horiz-adv-x="642" 
d="M263 922l111 -148q-10 -16 -33 -19l-125 144q6 10 19.5 17t27.5 6zM295 716q9 4 26 4l26 -4l275 -712q-9 -4 -28 -4l-27 4l-79 204h-337l-80 -204q-8 -4 -27 -4l-24 4zM321 653h-2q-5 -21 -16 -52l-136 -347h304l-134 347z" />
    <glyph glyph-name="Aacute" unicode="&#xc1;" horiz-adv-x="642" 
d="M275 775l111 148q31 2 47 -23l-125 -144q-23 3 -33 19zM295 716q9 4 26 4l26 -4l275 -712q-9 -4 -28 -4l-27 4l-79 204h-337l-80 -204q-8 -4 -27 -4l-24 4zM321 653h-2q-5 -21 -16 -52l-136 -347h304l-134 347z" />
    <glyph glyph-name="Acircumflex" unicode="&#xc2;" horiz-adv-x="642" 
d="M333 899l127 -104q-7 -23 -24 -27l-117 85l-115 -86q-19 7 -25 28l128 104h26zM295 716q9 4 26 4l26 -4l275 -712q-9 -4 -28 -4l-27 4l-79 204h-337l-80 -204q-8 -4 -27 -4l-24 4zM321 653h-2q-5 -21 -16 -52l-136 -347h304l-134 347z" />
    <glyph glyph-name="Atilde" unicode="&#xc3;" horiz-adv-x="642" 
d="M194 800q2 6 7 14t23.5 22.5t42.5 14.5q27 0 59.5 -18t50.5 -18q12 0 22 7t13 14l4 7q22 0 32 -17q-2 -5 -7 -13t-24.5 -22t-43.5 -14q-26 -1 -58.5 17t-50.5 18q-12 0 -22 -7t-14 -15l-3 -7q-24 0 -31 17zM295 716q9 4 26 4l26 -4l275 -712q-9 -4 -28 -4l-27 4l-79 204
h-337l-80 -204q-8 -4 -27 -4l-24 4zM321 653h-2q-5 -21 -16 -52l-136 -347h304l-134 347z" />
    <glyph glyph-name="Adieresis" unicode="&#xc4;" horiz-adv-x="642" 
d="M216 831q9 3 30 3l29 -3v-53q-10 -4 -29 -4l-30 4v53zM364 831q10 3 30 3l30 -3v-53q-10 -4 -30 -4l-30 4v53zM295 716q9 4 26 4l26 -4l275 -712q-9 -4 -28 -4l-27 4l-79 204h-337l-80 -204q-8 -4 -27 -4l-24 4zM321 653h-2q-5 -21 -16 -52l-136 -347h304l-134 347z" />
    <glyph glyph-name="Aring" unicode="&#xc5;" horiz-adv-x="643" 
d="M355 696l267 -692q-9 -4 -28 -4l-27 4l-79 204h-337l-80 -204q-8 -4 -27 -4l-24 4l267 691q-37 8 -59 34t-22 67q0 49 33.5 77.5t80.5 28.5q46 0 81 -28t35 -78q0 -40 -22.5 -66t-58.5 -34zM397 796q0 30 -20.5 50.5t-57.5 20.5q-35 0 -54.5 -21t-19.5 -50t19.5 -50.5
t54.5 -21.5q37 0 57.5 21.5t20.5 50.5zM471 254l-134 347l-16 52h-2q-5 -21 -16 -52l-136 -347h304z" />
    <glyph glyph-name="AE" unicode="&#xc6;" horiz-adv-x="853" 
d="M445 720h344q11 -21 0 -46h-286v-286h236q10 -25 0 -46h-236v-296h296q10 -24 0 -46h-347v198h-267l-117 -194q-16 -4 -27 -4q-20 0 -29 4zM212 244h240v398z" />
    <glyph glyph-name="Ccedilla" unicode="&#xc7;" horiz-adv-x="556" 
d="M513 47q2 -6 3 -12t0 -9v-3q-60 -33 -176 -33l-15 -46q109 0 109 -88q0 -95 -115 -95q-23 0 -45 5.5t-32 11.5l-11 6q1 19 14 28l3 -2q4 -1 8.5 -3t11.5 -4t14.5 -4t17.5 -3t19 -1q74 0 74 60q0 56 -69 56h-32l-8 10l24 71q-240 21 -240 368q0 370 270 370q48 0 90 -8
t60 -16l17 -9q2 -9 -3 -21q-2 -6 -5.5 -11t-6.5 -7l-2 -1q-58 27 -143 27q-108 0 -165 -73.5t-57 -251.5q0 -92 15.5 -156t45.5 -99.5t69 -51t92 -15.5q41 0 79.5 6.5t56.5 13.5l18 7q8 -4 14 -17z" />
    <glyph glyph-name="Egrave" unicode="&#xc8;" horiz-adv-x="556" 
d="M308 755l-125 144q6 10 19.5 17t27.5 6l111 -148q-10 -16 -33 -19zM102 720h391q4 -12 4 -22q0 -15 -4 -24h-339v-286h289q4 -14 4 -22q0 -14 -4 -23h-289v-297h349q4 -14 4 -22q0 -15 -4 -24h-401v720z" />
    <glyph glyph-name="Eacute" unicode="&#xc9;" horiz-adv-x="556" 
d="M378 901l-125 -144q-23 3 -33 19l111 148q31 2 47 -23zM102 720h391q4 -12 4 -22q0 -15 -4 -24h-339v-286h289q4 -14 4 -22q0 -14 -4 -23h-289v-297h349q4 -14 4 -22q0 -15 -4 -24h-401v720z" />
    <glyph glyph-name="Ecircumflex" unicode="&#xca;" horiz-adv-x="556" 
d="M307 899l127 -104q-7 -23 -24 -27l-117 85l-115 -86q-19 7 -25 28l128 104h26zM102 720h391q4 -12 4 -22q0 -15 -4 -24h-339v-286h289q4 -14 4 -22q0 -14 -4 -23h-289v-297h349q4 -14 4 -22q0 -15 -4 -24h-401v720z" />
    <glyph glyph-name="Edieresis" unicode="&#xcb;" horiz-adv-x="556" 
d="M257 823v-53q-10 -4 -29 -4l-30 4v53q10 3 30 3zM406 823v-53q-10 -4 -30 -4l-29 4v53q9 3 29 3zM102 720h391q4 -12 4 -22q0 -15 -4 -24h-339v-286h289q4 -14 4 -22q0 -14 -4 -23h-289v-297h349q4 -14 4 -22q0 -15 -4 -24h-401v720z" />
    <glyph glyph-name="Igrave" unicode="&#xcc;" horiz-adv-x="256" 
d="M154 755l-125 144q6 10 19.5 17t27.5 6l111 -148q-10 -16 -33 -19zM102 4v712q8 4 26 4l26 -4v-712q-8 -4 -26 -4z" />
    <glyph glyph-name="Iacute" unicode="&#xcd;" horiz-adv-x="256" 
d="M214 901l-125 -144q-23 3 -33 19l111 148q31 2 47 -23zM102 4v712q8 4 26 4l26 -4v-712q-8 -4 -26 -4z" />
    <glyph glyph-name="Icircumflex" unicode="&#xce;" horiz-adv-x="256" 
d="M141 899l127 -104q-7 -23 -24 -27l-117 85l-115 -86q-19 7 -25 28l128 104h26zM102 4v712q8 4 26 4l26 -4v-712q-8 -4 -26 -4z" />
    <glyph glyph-name="Idieresis" unicode="&#xcf;" horiz-adv-x="256" 
d="M84 823v-53q-10 -4 -30 -4l-30 4v53q10 3 30 3zM233 823v-53q-10 -4 -30 -4l-30 4v53q10 3 30 3zM102 4v712q8 4 26 4l26 -4v-712q-8 -4 -26 -4z" />
    <glyph glyph-name="Eth" unicode="&#xd0;" horiz-adv-x="665" 
d="M108 720h198q149 0 219 -80.5t70 -279.5t-70 -279.5t-219 -80.5h-198v337h-85q-5 21 0 40h85v343zM160 674v-297h146q5 -20 0 -40h-146v-291h141q60 0 102 14t74 48.5t47 96.5t15 155t-15 155t-47 96.5t-73.5 48.5t-102.5 14h-141z" />
    <glyph glyph-name="Ntilde" unicode="&#xd1;" horiz-adv-x="694" 
d="M412 806q13 0 24 6.5t16 13.5l4 6q21 -6 24 -26q-5 -11 -25 -25.5t-48 -14.5q-27 0 -58 18t-49 18q-13 0 -24 -7t-16 -15l-4 -7q-19 8 -25 25q2 5 6.5 12t23.5 19t43 12q27 0 59 -17.5t49 -17.5zM531 4l-331 552q-16 25 -28.5 49t-17.5 35l-4 12h-2q4 -44 4 -140v-508
q-8 -4 -26 -4l-24 4v712q11 4 31 4l30 -4l329 -545q14 -24 27 -49.5t19 -39.5l7 -13h2q-5 55 -5 133v514q8 4 26 4l24 -4v-712q-9 -4 -30 -4z" />
    <glyph glyph-name="Ograve" unicode="&#xd2;" horiz-adv-x="680" 
d="M303 922l104 -141q-10 -17 -33 -18l-118 136q6 10 19.5 17t27.5 6zM70 360q0 188 70.5 279t199.5 91t199.5 -90.5t70.5 -279.5q0 -370 -270 -370t-270 370zM554 360q0 172 -55.5 248.5t-158.5 76.5t-158.5 -76.5t-55.5 -248.5q0 -325 214 -325t214 325z" />
    <glyph glyph-name="Oacute" unicode="&#xd3;" horiz-adv-x="680" 
d="M328 788l106 141q32 2 47 -23l-120 -136q-24 3 -33 18zM70 360q0 188 70.5 279t199.5 91t199.5 -90.5t70.5 -279.5q0 -370 -270 -370t-270 370zM554 360q0 172 -55.5 248.5t-158.5 76.5t-158.5 -76.5t-55.5 -248.5q0 -325 214 -325t214 325z" />
    <glyph glyph-name="Ocircumflex" unicode="&#xd4;" horiz-adv-x="680" 
d="M355 899l127 -104q-7 -23 -24 -27l-117 85l-115 -86q-19 7 -25 28l128 104h26zM70 360q0 188 70.5 279t199.5 91t199.5 -90.5t70.5 -279.5q0 -370 -270 -370t-270 370zM554 360q0 172 -55.5 248.5t-158.5 76.5t-158.5 -76.5t-55.5 -248.5q0 -325 214 -325t214 325z" />
    <glyph glyph-name="Otilde" unicode="&#xd5;" horiz-adv-x="680" 
d="M400 830q13 0 23.5 7.5t14.5 14.5l5 7q18 -5 23 -23q-2 -5 -6 -12.5t-22 -20t-42 -13.5q-25 -1 -58 15.5t-51 16.5q-13 0 -23.5 -7.5t-15.5 -14.5l-4 -7q-18 9 -23 23q2 5 6 12t22 19.5t42 13.5q27 1 59.5 -15t49.5 -16zM340 -10q-270 0 -270 370q0 188 70.5 279
t199.5 91t199.5 -90.5t70.5 -279.5q0 -370 -270 -370zM340 685q-103 0 -158.5 -76.5t-55.5 -248.5q0 -325 214 -325t214 325q0 172 -55.5 248.5t-158.5 76.5z" />
    <glyph glyph-name="Odieresis" unicode="&#xd6;" horiz-adv-x="680" 
d="M235 843q10 3 30 3l30 -3v-53q-10 -4 -30 -4l-30 4v53zM384 843q10 3 30 3l30 -3v-53q-11 -4 -30 -4l-30 4v53zM70 360q0 188 70.5 279t199.5 91t199.5 -90.5t70.5 -279.5q0 -370 -270 -370t-270 370zM554 360q0 172 -55.5 248.5t-158.5 76.5t-158.5 -76.5t-55.5 -248.5
q0 -325 214 -325t214 325z" />
    <glyph glyph-name="multiply" unicode="&#xd7;" horiz-adv-x="458" 
d="M229 256l-116 -115q-9 3 -18 14q-5 4 -8.5 8.5t-4.5 6.5l-1 3l115 116l-115 116q3 9 14 18q4 5 8.5 8.5t6.5 4.5l3 1l116 -115l116 115q9 -3 18 -14q5 -4 8.5 -8.5t4.5 -6.5l1 -3l-115 -116l115 -116q-3 -9 -14 -18q-4 -5 -8.5 -8.5t-6.5 -4.5l-3 -1z" />
    <glyph glyph-name="Oslash" unicode="&#xd8;" horiz-adv-x="679" 
d="M488 688l42 76q23 -5 41 -21l-49 -85q87 -90 87 -298q0 -370 -270 -370q-101 0 -164 54l-51 -89q-25 5 -40 20l58 102q-73 93 -73 283q0 188 70.5 279t199.5 91q90 0 149 -42zM463 646q-48 39 -124 39q-103 0 -158.5 -76.5t-55.5 -248.5q0 -151 47 -231zM493 608
l-293 -520q52 -53 139 -53q214 0 214 325q0 171 -60 248z" />
    <glyph glyph-name="Ugrave" unicode="&#xd9;" horiz-adv-x="667" 
d="M341 764l-117 135q6 10 19.5 17t27.5 6l103 -139q-9 -16 -33 -19zM570 716v-488q0 -113 -64.5 -175.5t-172.5 -62.5t-172 63t-64 175v488q9 4 26 4l27 -4v-495q0 -88 48.5 -137t136.5 -49q87 0 135.5 49t48.5 137v495q8 4 25 4z" />
    <glyph glyph-name="Uacute" unicode="&#xda;" horiz-adv-x="667" 
d="M429 901l-125 -144q-23 3 -33 19l111 148q31 2 47 -23zM570 716v-488q0 -113 -64.5 -175.5t-172.5 -62.5t-172 63t-64 175v488q9 4 26 4l27 -4v-495q0 -88 48.5 -137t136.5 -49q87 0 135.5 49t48.5 137v495q8 4 25 4z" />
    <glyph glyph-name="Ucircumflex" unicode="&#xdb;" horiz-adv-x="667" 
d="M350 899l127 -104q-7 -23 -24 -27l-117 85l-115 -86q-19 7 -25 28l128 104h26zM570 716v-488q0 -113 -64.5 -175.5t-172.5 -62.5t-172 63t-64 175v488q9 4 26 4l27 -4v-495q0 -88 48.5 -137t136.5 -49q87 0 135.5 49t48.5 137v495q8 4 25 4z" />
    <glyph glyph-name="Udieresis" unicode="&#xdc;" horiz-adv-x="667" 
d="M288 839v-53q-10 -4 -30 -4l-30 4v53q10 3 30 3zM437 839v-53q-10 -4 -30 -4l-30 4v53q10 3 30 3zM570 716v-488q0 -113 -64.5 -175.5t-172.5 -62.5t-172 63t-64 175v488q9 4 26 4l27 -4v-495q0 -88 48.5 -137t136.5 -49q87 0 135.5 49t48.5 137v495q8 4 25 4z" />
    <glyph glyph-name="Yacute" unicode="&#xdd;" horiz-adv-x="620" 
d="M257 776l111 148q31 2 47 -23l-125 -144q-23 3 -33 19zM540 716q9 4 28 4l31 -4l-264 -412v-300q-9 -4 -26 -4l-26 4v299l-257 413q11 4 32 4l30 -4l223 -357z" />
    <glyph glyph-name="Thorn" unicode="&#xde;" horiz-adv-x="602" 
d="M102 716q7 4 26 4l26 -4v-141h195q93 0 146.5 -55.5t53.5 -148.5q0 -92 -53.5 -147.5t-146.5 -55.5h-195v-164q-7 -4 -26 -4l-26 4v712zM154 528v-313h193q70 0 108.5 41t38.5 114q0 75 -38.5 116.5t-108.5 41.5h-193z" />
    <glyph glyph-name="germandbls" unicode="&#xdf;" horiz-adv-x="570" 
d="M86 4v552q0 194 200 194q91 0 137 -50t46 -121q0 -15 -2 -29t-5 -25.5t-5.5 -19.5t-5.5 -15l-3 -7q-2 0 -6.5 -0.5t-16.5 -2t-23.5 -5t-25 -10.5t-23.5 -17t-16.5 -25.5t-6.5 -34.5q0 -30 20 -52.5t48.5 -38.5t57 -35t48.5 -52t20 -79q0 -66 -41.5 -103.5t-118.5 -37.5
q-31 0 -56.5 4.5t-35.5 9.5l-10 4q-3 24 12 36q33 -11 82 -11q60 0 89 26.5t29 69.5q0 37 -20 64.5t-49 44.5t-57.5 34.5t-48.5 45.5t-20 67q0 32 13 57.5t31.5 38t37.5 20.5t32 10l13 2q10 30 10 65q0 56 -32.5 92.5t-98.5 36.5q-149 0 -149 -151v-552q-7 -4 -25 -4z" />
    <glyph glyph-name="agrave" unicode="&#xe0;" horiz-adv-x="512" 
d="M179 775l111 -148q-10 -16 -33 -19l-125 144q6 10 19.5 17t27.5 6zM90 505q77 31 166 31q102 0 138 -49.5t36 -158.5v-324q-6 -4 -20 -4l-21 4l-8 84q-47 -98 -176 -98q-70 0 -112.5 41t-42.5 114q0 154 186 154q75 0 144 -9v69q0 70 -32 101.5t-98 31.5q-34 0 -70 -6.5
t-55 -13.5l-19 -6q-8 6 -13 16q-3 8 -3 23zM380 251q-99 9 -136 9q-141 0 -141 -115q0 -56 30.5 -84t84.5 -28q72 0 117 48t45 126v44z" />
    <glyph glyph-name="aacute" unicode="&#xe1;" horiz-adv-x="512" 
d="M193 627l111 148q31 2 47 -23l-125 -144q-23 3 -33 19zM90 505q77 31 166 31q102 0 138 -49.5t36 -158.5v-324q-6 -4 -20 -4l-21 4l-8 84q-47 -98 -176 -98q-70 0 -112.5 41t-42.5 114q0 154 186 154q75 0 144 -9v68q0 71 -32 102.5t-98 31.5q-34 0 -70 -6.5t-55 -13.5
l-19 -6q-8 6 -13 16q-5 13 -3 23zM380 251q-99 9 -136 9q-141 0 -141 -115q0 -56 30.5 -84t84.5 -28q72 0 117 48t45 126v44z" />
    <glyph glyph-name="acircumflex" unicode="&#xe2;" horiz-adv-x="512" 
d="M267 731l125 -103q-8 -21 -24 -25l-114 83l-113 -84q-18 7 -24 26l125 103h25zM90 505q77 31 166 31q102 0 138 -49.5t36 -158.5v-324q-6 -4 -20 -4l-21 4l-8 84q-47 -98 -176 -98q-70 0 -112.5 41t-42.5 114q0 154 186 154q75 0 144 -9v69q0 70 -32 101.5t-98 31.5
q-34 0 -70 -6.5t-55 -13.5l-19 -6q-8 6 -13 16q-5 13 -3 23zM380 251q-99 9 -136 9q-141 0 -141 -115q0 -56 30.5 -84t84.5 -28q72 0 117 48t45 126v44z" />
    <glyph glyph-name="atilde" unicode="&#xe3;" horiz-adv-x="512" 
d="M134 665q29 43 73 43q27 0 58 -17.5t49 -17.5q30 0 44 26q18 -4 23 -24q-2 -5 -9.5 -13.5t-24.5 -18t-37 -9.5q-27 0 -59 17.5t-49 17.5q-13 0 -24 -7t-16 -14l-5 -7q-17 8 -23 24zM90 505q77 31 166 31q102 0 138 -49.5t36 -158.5v-324q-6 -4 -20 -4l-21 4l-8 84
q-47 -98 -176 -98q-70 0 -112.5 41t-42.5 114q0 154 186 154q75 0 144 -9v70q0 71 -31.5 101.5t-98.5 30.5q-34 0 -70 -6.5t-55 -13.5l-19 -6q-8 6 -13 16q-6 13 -3 23zM380 251q-99 9 -136 9q-141 0 -141 -115q0 -56 30.5 -84t84.5 -28q72 0 117 48t45 126v44z" />
    <glyph glyph-name="adieresis" unicode="&#xe4;" horiz-adv-x="512" 
d="M150 704q10 3 30 3l30 -3v-53q-10 -4 -30 -4l-30 4v53zM299 704q10 3 30 3l30 -3v-53q-10 -4 -30 -4l-30 4v53zM90 505q77 31 166 31q102 0 138 -49.5t36 -158.5v-324q-6 -4 -20 -4l-21 4l-8 84q-47 -98 -176 -98q-70 0 -112.5 41t-42.5 114q0 154 186 154q75 0 144 -9
v69q0 70 -32 101.5t-98 31.5q-34 0 -70 -6.5t-55 -13.5l-19 -6q-8 6 -13 16q-5 13 -3 23zM380 251q-99 9 -136 9q-141 0 -141 -115q0 -56 30.5 -84t84.5 -28q72 0 117 48t45 126v44z" />
    <glyph glyph-name="aring" unicode="&#xe5;" horiz-adv-x="512" 
d="M146 697q0 47 32.5 74t77.5 27t78 -27t33 -74q0 -48 -32 -75t-80 -27t-78.5 27t-30.5 75zM328 697q0 28 -19 47t-54 19q-33 0 -51.5 -19.5t-18.5 -46.5q0 -28 18.5 -47.5t51.5 -19.5q35 0 54 20t19 47zM90 505q77 31 166 31q102 0 138 -49.5t36 -158.5v-324q-6 -4 -20 -4
l-21 4l-8 84q-47 -98 -176 -98q-70 0 -112.5 41t-42.5 114q0 154 186 154q75 0 144 -9v68q0 71 -32 102.5t-98 31.5q-34 0 -70 -6.5t-55 -13.5l-19 -6q-8 6 -13 16q-3 8 -3 23zM380 251q-99 9 -136 9q-141 0 -141 -115q0 -56 30.5 -84t84.5 -28q72 0 117 48t45 126v44z" />
    <glyph glyph-name="ae" unicode="&#xe6;" horiz-adv-x="778" 
d="M397 433q43 103 156 103q83 0 126.5 -51t43.5 -137q0 -24 -2.5 -47t-5.5 -35l-3 -11h-300q10 -220 149 -220q33 0 62 9t41 18l13 9q18 -12 20 -36q-5 -5 -15.5 -12.5t-47.5 -20t-80 -12.5q-65 0 -108 34.5t-60 95.5q-16 -60 -64 -95t-122 -35q-70 0 -110 41t-40 114
q0 151 178 151h133v64q0 71 -28.5 101.5t-91.5 30.5q-32 0 -66 -6.5t-51 -13.5l-18 -6q-16 14 -16 39q72 31 157 31q123 0 150 -103zM672 354q0 61 -28.5 100t-90.5 39q-61 0 -99 -47.5t-42 -149.5h255q5 18 5 58zM361 255h-125q-70 0 -101.5 -26t-31.5 -84q0 -56 27.5 -84
t77.5 -28q69 0 111 45.5t42 127.5v49z" />
    <glyph glyph-name="ccedilla" unicode="&#xe7;" horiz-adv-x="444" 
d="M261 -10l-9 -51q112 0 112 -86q0 -92 -115 -92q-23 0 -45 5.5t-32 11.5l-11 6q1 19 14 28l3 -2q4 -1 8.5 -3t11.5 -4t14.5 -4t17.5 -3t19 -1q74 0 74 59q0 54 -69 54h-32l-8 10l12 76q-80 14 -122.5 83t-42.5 186q0 133 54 203t156 70q36 0 66 -6t43 -12l12 -6
q0 -25 -17 -38q-36 18 -94 18q-168 0 -168 -229q0 -115 42 -171t130 -56q27 0 52 5t37 11l11 5q16 -10 18 -38q-46 -29 -142 -29z" />
    <glyph glyph-name="egrave" unicode="&#xe8;" horiz-adv-x="509" 
d="M289 608l-125 144q6 10 19.5 17t27.5 6l111 -148q-10 -16 -33 -19zM443 247h-330q5 -112 45.5 -161t122.5 -49q35 0 66.5 9.5t45.5 18.5l14 9q19 -14 21 -39q-6 -5 -18 -12.5t-53 -20t-88 -12.5q-102 0 -155 70t-53 206q0 137 56 203.5t153 66.5q88 0 136 -51t48 -137
q0 -28 -3 -53t-5 -37zM402 354q0 61 -32.5 100t-99.5 39q-71 0 -112 -50.5t-45 -154.5h284l1 4q0 3 1 8.5t1.5 13t1 18.5t0.5 22z" />
    <glyph glyph-name="eacute" unicode="&#xe9;" horiz-adv-x="509" 
d="M350 752l-125 -144q-23 3 -33 19l111 148q31 2 47 -23zM443 247h-330q5 -112 45.5 -161t122.5 -49q35 0 66.5 9.5t45.5 18.5l14 9q19 -14 21 -39q-6 -5 -18 -12.5t-53 -20t-88 -12.5q-102 0 -155 70t-53 206q0 137 56 203.5t153 66.5q88 0 136 -51t48 -137q0 -28 -3 -53
t-5 -37zM402 354q0 61 -32.5 100t-99.5 39q-71 0 -112 -50.5t-45 -154.5h284l1 4q0 3 1 8.5t1.5 13t1 18.5t0.5 22z" />
    <glyph glyph-name="ecircumflex" unicode="&#xea;" horiz-adv-x="509" 
d="M281 731l125 -103q-8 -21 -24 -25l-114 83l-112 -84q-18 7 -24 26l124 103h25zM443 247h-330q5 -112 45.5 -161t122.5 -49q35 0 66.5 9.5t45.5 18.5l14 9q19 -14 21 -39q-6 -5 -18 -12.5t-53 -20t-88 -12.5q-102 0 -155 70t-53 206q0 137 56 203.5t153 66.5q88 0 136 -51
t48 -137q0 -28 -3 -53t-5 -37zM402 354q0 61 -32.5 100t-99.5 39q-71 0 -112 -50.5t-45 -154.5h284l1 4q0 3 1 8.5t1.5 13t1 18.5t0.5 22z" />
    <glyph glyph-name="edieresis" unicode="&#xeb;" horiz-adv-x="509" 
d="M225 691v-53q-10 -4 -30 -4l-30 4v53q10 3 30 3zM374 691v-53q-10 -4 -30 -4l-30 4v53q10 3 30 3zM443 247h-330q5 -112 45.5 -161t122.5 -49q35 0 66.5 9.5t45.5 18.5l14 9q19 -14 21 -39q-6 -5 -18 -12.5t-53 -20t-88 -12.5q-102 0 -155 70t-53 206q0 137 56 203.5
t153 66.5q88 0 136 -51t48 -137q0 -28 -3 -53t-5 -37zM402 354q0 61 -32.5 100t-99.5 39q-71 0 -112 -50.5t-45 -154.5h284l1 4q0 3 1 8.5t1.5 13t1 18.5t0.5 22z" />
    <glyph glyph-name="igrave" unicode="&#xec;" horiz-adv-x="228" 
d="M134 610l-125 144q6 10 19.5 17t27.5 6l111 -148q-10 -16 -33 -19zM139 522v-518q-7 -4 -25 -4l-25 4v518q7 4 25 4z" />
    <glyph glyph-name="iacute" unicode="&#xed;" horiz-adv-x="228" 
d="M210 752l-125 -144q-23 3 -33 19l111 148q31 2 47 -23zM139 522v-518q-7 -4 -25 -4l-25 4v518q7 4 25 4z" />
    <glyph glyph-name="icircumflex" unicode="&#xee;" horiz-adv-x="228" 
d="M128 731l125 -103q-8 -21 -24 -25l-114 83l-113 -84q-18 7 -24 26l125 103h25zM139 522v-518q-7 -4 -25 -4l-25 4v518q7 4 25 4z" />
    <glyph glyph-name="idieresis" unicode="&#xef;" horiz-adv-x="228" 
d="M67 697v-53q-10 -3 -30 -3l-30 3v53q10 4 30 4zM216 697v-53q-10 -3 -30 -3l-30 3v53q10 4 30 4zM139 522v-518q-7 -4 -25 -4l-25 4v518q7 4 25 4z" />
    <glyph glyph-name="eth" unicode="&#xf0;" horiz-adv-x="554" 
d="M410 699l-63 -39q142 -121 142 -353q0 -174 -54 -245.5t-163 -71.5q-210 0 -210 262t201 262q118 0 166 -88q-25 130 -119 209l-131 -82q-18 11 -22 33l117 74q-58 38 -133 53q-3 23 11 37q90 -16 161 -64l75 47q19 -11 22 -34zM272 32q75 0 117 50.5t42 169.5
q0 121 -43 170t-122 49q-75 0 -113 -49.5t-38 -169.5q0 -119 41 -169.5t116 -50.5z" />
    <glyph glyph-name="ntilde" unicode="&#xf1;" 
d="M151 671q2 5 7 12.5t23.5 20t42.5 12.5q27 0 59 -17.5t50 -17.5q13 0 23.5 7.5t15.5 15.5l4 8q23 -6 26 -26q-2 -5 -7 -12.5t-24.5 -20t-43.5 -12.5q-26 0 -58 18t-50 18q-13 0 -23.5 -8.5t-15.5 -16.5l-4 -8q-22 8 -25 27zM136 445q64 91 178 91q71 0 111.5 -40.5
t40.5 -108.5v-383q-8 -4 -25 -4l-25 4v372q0 117 -120 117q-48 0 -92 -30.5t-68 -82.5v-376q-8 -4 -25 -4l-25 4v518q8 4 25 4l25 -4v-77z" />
    <glyph glyph-name="ograve" unicode="&#xf2;" horiz-adv-x="540" 
d="M200 775l111 -148q-10 -16 -33 -19l-125 144q6 10 20 17t27 6zM62 263q0 144 53 208.5t155 64.5t155 -64.5t53 -208.5t-53 -208.5t-155 -64.5t-155 64.5t-53 208.5zM426 263q0 126 -39.5 178.5t-116.5 52.5t-116.5 -52.5t-39.5 -178.5t39.5 -178.5t116.5 -52.5
t116.5 52.5t39.5 178.5z" />
    <glyph glyph-name="oacute" unicode="&#xf3;" horiz-adv-x="540" 
d="M190 627l111 148q31 2 47 -23l-125 -144q-23 3 -33 19zM62 263q0 144 53 208.5t155 64.5t155 -64.5t53 -208.5t-53 -208.5t-155 -64.5t-155 64.5t-53 208.5zM426 263q0 126 -39.5 178.5t-116.5 52.5t-116.5 -52.5t-39.5 -178.5t39.5 -178.5t116.5 -52.5t116.5 52.5
t39.5 178.5z" />
    <glyph glyph-name="ocircumflex" unicode="&#xf4;" horiz-adv-x="540" 
d="M281 731l125 -103q-8 -21 -24 -25l-114 83l-113 -84q-18 7 -24 26l125 103h25zM62 263q0 144 53 208.5t155 64.5t155 -64.5t53 -208.5t-53 -208.5t-155 -64.5t-155 64.5t-53 208.5zM426 263q0 126 -39.5 178.5t-116.5 52.5t-116.5 -52.5t-39.5 -178.5t39.5 -178.5
t116.5 -52.5t116.5 52.5t39.5 178.5z" />
    <glyph glyph-name="otilde" unicode="&#xf5;" horiz-adv-x="540" 
d="M144 663q2 5 7 12.5t24 20t43 12.5q27 0 59 -17.5t50 -17.5q13 0 23.5 7.5t15.5 15.5l4 8q20 -6 26 -26q-2 -5 -7 -12.5t-24.5 -20t-43.5 -12.5q-26 0 -58 18t-50 18q-13 0 -24 -7.5t-16 -15.5l-5 -8q-19 7 -24 25zM62 263q0 144 53 208.5t155 64.5t155 -64.5t53 -208.5
t-53 -208.5t-155 -64.5t-155 64.5t-53 208.5zM426 263q0 126 -39.5 178.5t-116.5 52.5t-116.5 -52.5t-39.5 -178.5t39.5 -178.5t116.5 -52.5t116.5 52.5t39.5 178.5z" />
    <glyph glyph-name="odieresis" unicode="&#xf6;" horiz-adv-x="540" 
d="M165 703q10 4 30 4l30 -4v-53q-11 -4 -30 -4l-30 4v53zM314 703q9 4 30 4l29 -4v-53q-10 -4 -29 -4l-30 4v53zM62 263q0 144 53 208.5t155 64.5t155 -64.5t53 -208.5t-53 -208.5t-155 -64.5t-155 64.5t-53 208.5zM426 263q0 126 -39.5 178.5t-116.5 52.5t-116.5 -52.5
t-39.5 -178.5t39.5 -178.5t116.5 -52.5t116.5 52.5t39.5 178.5z" />
    <glyph glyph-name="divide" unicode="&#xf7;" horiz-adv-x="561" 
d="M313 479v-56q-11 -4 -32 -4l-32 4v56q11 4 32 4zM475 269h-389q-4 7 -4 21l4 21h389q4 -7 4 -21zM313 157v-56q-11 -4 -32 -4l-32 4v56q11 4 32 4z" />
    <glyph glyph-name="oslash" unicode="&#xf8;" horiz-adv-x="540" 
d="M388 504l38 66q22 -3 36 -19l-42 -74q58 -66 58 -214q0 -144 -53 -208.5t-155 -64.5q-66 0 -111 27l-34 -61q-23 5 -35 20l37 65q-65 65 -65 222q0 144 53 208.5t155 64.5q73 0 118 -32zM366 464q-37 30 -96 30q-77 0 -116.5 -52.5t-39.5 -178.5q0 -119 41 -173zM391 428
l-209 -372q34 -24 88 -24q77 0 116.5 52.5t39.5 178.5q0 109 -35 165z" />
    <glyph glyph-name="ugrave" unicode="&#xf9;" 
d="M213 775l111 -148q-10 -16 -33 -19l-125 144q6 10 19.5 17t27.5 6zM412 522q8 4 25 4l25 -4v-518q-8 -4 -25 -4l-25 4v77q-67 -91 -178 -91q-71 0 -111.5 40.5t-40.5 108.5v383q8 4 25 4l25 -4v-372q0 -117 120 -117q48 0 92 30t68 83v376z" />
    <glyph glyph-name="uacute" unicode="&#xfa;" 
d="M360 752l-125 -144q-23 3 -33 19l111 148q31 2 47 -23zM82 139v383q8 4 25 4l25 -4v-372q0 -117 120 -117q48 0 92 30t68 83v376q8 4 25 4l25 -4v-518q-8 -4 -25 -4l-25 4v77q-67 -91 -178 -91q-71 0 -111.5 40.5t-40.5 108.5z" />
    <glyph glyph-name="ucircumflex" unicode="&#xfb;" 
d="M285 731l125 -103q-8 -21 -24 -25l-114 83l-113 -84q-18 7 -24 26l125 103h25zM82 139v383q8 4 25 4l25 -4v-372q0 -117 120 -117q48 0 92 30t68 83v376q8 4 25 4l25 -4v-518q-8 -4 -25 -4l-25 4v77q-67 -91 -178 -91q-71 0 -111.5 40.5t-40.5 108.5z" />
    <glyph glyph-name="udieresis" unicode="&#xfc;" 
d="M165 705q10 4 30 4l30 -4v-53q-11 -3 -30 -3l-30 3v53zM314 705q9 4 29 4l30 -4v-53q-10 -3 -30 -3l-29 3v53zM412 522q8 4 25 4l25 -4v-518q-8 -4 -25 -4l-25 4v77q-67 -91 -178 -91q-71 0 -111.5 40.5t-40.5 108.5v383q8 4 25 4l25 -4v-372q0 -117 120 -117q48 0 92 30
t68 83v376z" />
    <glyph glyph-name="yacute" unicode="&#xfd;" horiz-adv-x="523" 
d="M352 752l-125 -144q-23 3 -33 19l111 148q31 2 47 -23zM492 522l-226 -635q-25 -71 -54 -104t-82 -33q-13 0 -25 2t-18 4l-6 1q-4 12 -4 20q0 15 5 22q18 -5 43 -5q31 0 52 22.5t42 82.5l37 102q-12 2 -18 5l-209 516q10 4 28 4l27 -4l152 -373l35 -99h4q12 42 32 99
l133 373q7 4 26 4z" />
    <glyph glyph-name="thorn" unicode="&#xfe;" horiz-adv-x="554" 
d="M86 746q7 4 25 4l25 -4v-298q49 88 161 88q95 0 145 -63t50 -210t-50 -210t-145 -63q-112 0 -161 88v-319q-7 -4 -25 -4l-25 4v987zM439 263q0 123 -36.5 176t-120.5 53q-67 0 -105.5 -48.5t-40.5 -112.5v-131q0 -65 39 -115.5t107 -50.5q84 0 120.5 53t36.5 176z" />
    <glyph glyph-name="ydieresis" unicode="&#xff;" horiz-adv-x="523" 
d="M214 706v-53q-10 -4 -30 -4l-30 4v53q10 4 30 4zM363 706v-53q-10 -4 -30 -4l-30 4v53q10 4 30 4zM492 522l-226 -635q-25 -71 -54 -104t-82 -33q-13 0 -25 2t-18 4l-6 1q-4 12 -4 20q0 15 5 22q18 -5 43 -5q31 0 52 22.5t42 82.5l37 102q-12 2 -18 5l-209 516q10 4 28 4
l27 -4l152 -373l35 -99h4q12 42 32 99l133 373q7 4 26 4z" />
    <glyph glyph-name="Amacron" unicode="&#x100;" horiz-adv-x="642" 
d="M179 832h275q9 -17 0 -40h-275q-10 20 0 40zM295 716q9 4 26 4l26 -4l275 -712q-9 -4 -28 -4l-27 4l-79 204h-337l-80 -204q-8 -4 -27 -4l-24 4zM321 653h-2q-5 -21 -16 -52l-136 -347h304l-134 347z" />
    <glyph glyph-name="amacron" unicode="&#x101;" horiz-adv-x="512" 
d="M128 693h259q6 -17 0 -37h-259q-8 20 0 37zM90 505q77 31 166 31q102 0 138 -49.5t36 -158.5v-324q-6 -4 -20 -4l-21 4l-8 84q-47 -98 -176 -98q-70 0 -112.5 41t-42.5 114q0 154 186 154q75 0 144 -9v68q0 71 -32 102.5t-98 31.5q-34 0 -70 -6.5t-55 -13.5l-19 -6
q-8 6 -13 16q-5 13 -3 23zM380 251q-99 9 -136 9q-141 0 -141 -115q0 -56 30.5 -84t84.5 -28q72 0 117 48t45 126v44z" />
    <glyph glyph-name="Abreve" unicode="&#x102;" horiz-adv-x="642" 
d="M317 826q31 0 59.5 10t41.5 20l13 9q20 -6 25 -26q-5 -6 -15.5 -15t-46.5 -24t-77 -15t-76 13.5t-49 27.5l-15 13q6 19 26 26q45 -39 114 -39zM295 716q9 4 26 4l26 -4l275 -712q-9 -4 -28 -4l-27 4l-79 204h-337l-80 -204q-8 -4 -27 -4l-24 4zM321 653h-2
q-5 -21 -16 -52l-136 -347h304l-134 347z" />
    <glyph glyph-name="abreve" unicode="&#x103;" horiz-adv-x="512" 
d="M254 671q30 0 57.5 10t40.5 20l13 10q19 -6 24 -27q-5 -6 -15 -15.5t-45 -25t-75 -15.5t-73.5 14t-47.5 28l-14 14q6 20 24 27q44 -40 111 -40zM90 505q77 31 166 31q102 0 138 -49.5t36 -158.5v-324q-6 -4 -20 -4l-21 4l-8 84q-47 -98 -176 -98q-70 0 -112.5 41
t-42.5 114q0 154 186 154q75 0 144 -9v70q0 69 -32 100.5t-98 31.5q-34 0 -70 -6.5t-55 -13.5l-19 -6q-8 6 -13 16q-3 8 -3 23zM380 251q-99 9 -136 9q-141 0 -141 -115q0 -56 30.5 -84t84.5 -28q72 0 117 48t45 126v44z" />
    <glyph glyph-name="Aogonek" unicode="&#x104;" horiz-adv-x="641" 
d="M564 -142q11 0 21 2t15 4l4 3q12 -10 10 -27q-23 -16 -59 -16q-40 0 -63 21t-23 57q0 81 94 110l-76 196h-337l-80 -204q-8 -4 -27 -4l-24 4l275 712q9 4 26 4l26 -4l275 -715q-5 -2 -14 -3q-41 -9 -68.5 -31t-27.5 -59q0 -50 53 -50zM470 254l-134 347l-16 52h-2
q-5 -21 -16 -52l-136 -347h304z" />
    <glyph glyph-name="aogonek" unicode="&#x105;" horiz-adv-x="512" 
d="M90 505q77 31 166 31q102 0 138 -49.5t36 -158.5v-326q-46 -10 -75 -36.5t-29 -63.5q0 -43 54 -43q10 0 20 2.5t15 4.5l5 2q11 -9 11 -29q-23 -16 -60 -16q-41 0 -64.5 19.5t-23.5 53.5q0 77 106 118l-8 74q-47 -98 -176 -98q-70 0 -112.5 41t-42.5 114q0 154 186 154
q75 0 144 -9v68q0 72 -31.5 103t-98.5 31q-34 0 -70 -6.5t-55 -13.5l-19 -6q-8 6 -13 16q-3 8 -3 23zM380 251q-99 9 -136 9q-141 0 -141 -115q0 -56 30.5 -84t84.5 -28q71 0 116.5 50t45.5 127v41z" />
    <glyph glyph-name="Cacute" unicode="&#x106;" horiz-adv-x="558" 
d="M433 895l-135 -135q-24 6 -31 22l121 140q31 -2 45 -27zM340 -10q-270 0 -270 370t270 370q48 0 90 -8t60 -16l17 -9q0 -21 -17 -40q-58 27 -143 27q-108 0 -165 -73.5t-57 -251.5q0 -92 15.5 -156t45.5 -99.5t69 -51t92 -15.5q41 0 79.5 6.5t56.5 13.5l18 7
q15 -15 17 -41q-60 -33 -178 -33z" />
    <glyph glyph-name="cacute" unicode="&#x107;" horiz-adv-x="445" 
d="M344 752l-125 -144q-23 3 -33 19l111 148q31 2 47 -23zM281 491q-168 0 -168 -228q0 -115 42 -170.5t130 -55.5q27 0 52 5.5t37 10.5l11 5q16 -10 18 -39q-47 -29 -132 -29q-102 0 -156 70t-54 203t54 203t156 70q36 0 66 -6t43 -12l12 -6q0 -26 -17 -39q-36 18 -94 18z
" />
    <glyph glyph-name="Ccircumflex" unicode="&#x108;" horiz-adv-x="558" 
d="M361 883l127 -105q-7 -22 -24 -26l-117 85l-115 -86q-19 7 -25 27l128 105h26zM340 -10q-270 0 -270 370t270 370q48 0 90 -8t60 -16l17 -9q0 -21 -17 -40q-58 27 -143 27q-108 0 -165 -73.5t-57 -251.5q0 -92 15.5 -156t45.5 -99.5t69 -51t92 -15.5q41 0 79.5 6.5
t56.5 13.5l18 7q15 -14 17 -41q-60 -33 -178 -33z" />
    <glyph glyph-name="ccircumflex" unicode="&#x109;" horiz-adv-x="445" 
d="M273 733l125 -102q-7 -22 -24 -26l-114 83l-112 -83q-18 5 -24 26l124 102h25zM281 491q-168 0 -168 -228q0 -115 42 -170.5t130 -55.5q27 0 52 5.5t37 10.5l11 5q16 -10 18 -39q-47 -29 -132 -29q-102 0 -156 70t-54 203t54 203t156 70q36 0 66 -6t43 -12l12 -6
q0 -26 -17 -39q-36 18 -94 18z" />
    <glyph glyph-name="Cdotaccent" unicode="&#x10a;" horiz-adv-x="557" 
d="M372 845v-54q-11 -4 -31 -4l-30 4v54q9 4 30 4zM340 -10q-270 0 -270 370t270 370q48 0 90 -8t60 -16l17 -9q0 -23 -17 -40q-58 27 -143 27q-108 0 -165 -73.5t-57 -251.5q0 -92 15.5 -156t45.5 -99.5t69 -51t92 -15.5q41 0 79.5 6.5t56.5 13.5l18 7q15 -15 17 -41
q-60 -33 -178 -33z" />
    <glyph glyph-name="cdotaccent" unicode="&#x10b;" horiz-adv-x="445" 
d="M291 707v-54q-11 -4 -31 -4l-30 4v54q10 4 30 4zM281 491q-168 0 -168 -228q0 -115 42 -170.5t130 -55.5q27 0 52 5.5t37 10.5l11 5q16 -10 18 -39q-47 -29 -132 -29q-102 0 -156 70t-54 203t54 203t156 70q36 0 66 -6t43 -12l12 -6q0 -26 -17 -39q-36 18 -94 18z" />
    <glyph glyph-name="Ccaron" unicode="&#x10c;" horiz-adv-x="557" 
d="M326 767l-128 104q6 21 25 28l117 -86l115 85q17 -4 24 -27l-127 -104h-26zM340 -10q-270 0 -270 370t270 370q48 0 90 -8t60 -16l17 -9q0 -21 -17 -40q-58 27 -143 27q-108 0 -165 -73.5t-57 -251.5q0 -92 15.5 -156t45.5 -99.5t69 -51t92 -15.5q41 0 79.5 6.5
t56.5 13.5l18 7q15 -15 17 -41q-60 -33 -178 -33z" />
    <glyph glyph-name="ccaron" unicode="&#x10d;" horiz-adv-x="445" 
d="M257 602l-118 96q6 19 23 26l107 -79l105 78q16 -4 23 -25l-117 -96h-23zM281 491q-168 0 -168 -228q0 -115 42 -170.5t130 -55.5q27 0 52 5.5t37 10.5l11 5q16 -10 18 -39q-47 -29 -132 -29q-102 0 -156 70t-54 203t54 203t156 70q36 0 66 -6t43 -12l12 -6
q0 -26 -17 -39q-36 18 -94 18z" />
    <glyph glyph-name="Dcaron" unicode="&#x10e;" horiz-adv-x="659" 
d="M276 767l-128 104q6 21 25 28l117 -86l115 85q17 -4 24 -27l-127 -104h-26zM102 720h198q149 0 219 -80.5t70 -279.5t-70 -279.5t-219 -80.5h-198v720zM154 46h141q60 0 102 14t74 48.5t47 96.5t15 155t-15 155t-47 96.5t-73.5 48.5t-102.5 14h-141v-628z" />
    <glyph glyph-name="dcaron" unicode="&#x10f;" horiz-adv-x="566" 
d="M521 599q57 56 51 150q29 8 47 -4q1 -46 -18 -91t-54 -69q-18 1 -26 14zM418 746q7 4 25 4l25 -4v-742q-8 -4 -21 -4l-22 4l-5 77q-50 -91 -163 -91q-95 0 -145 63t-50 210t50 210t145 63q112 0 161 -88v298zM418 327q-1 65 -40 115t-106 50q-84 0 -120.5 -53t-36.5 -176
t36.5 -176t120.5 -53q68 0 107 50.5t39 115.5v127z" />
    <glyph glyph-name="Dcroat" unicode="&#x110;" horiz-adv-x="665" 
d="M108 720h198q149 0 219 -80.5t70 -279.5t-70 -279.5t-219 -80.5h-198v337h-85q-5 19 0 40h85v343zM160 674v-297h146q5 -18 0 -40h-146v-291h141q60 0 102 14t74 48.5t47 96.5t15 155t-15 155t-47 96.5t-73.5 48.5t-102.5 14h-141z" />
    <glyph glyph-name="dcroat" unicode="&#x111;" horiz-adv-x="554" 
d="M539 662q3 -5 3 -18l-3 -18h-71v-622q-8 -4 -21 -4l-22 4l-5 77q-50 -91 -163 -91q-95 0 -145 63t-50 210t50 210t145 63q112 0 161 -88v178h-117q-3 5 -3 18l3 18h117v84q7 4 25 4l25 -4v-84h71zM418 200v127q-1 65 -40 115t-106 50q-84 0 -120.5 -53t-36.5 -176
t36.5 -176t120.5 -53q68 0 107 50.5t39 115.5z" />
    <glyph glyph-name="Emacron" unicode="&#x112;" horiz-adv-x="556" 
d="M434 792h-275q-7 20 0 40h275q8 -17 0 -40zM102 720h391q4 -12 4 -22q0 -15 -4 -24h-339v-286h289q4 -14 4 -22q0 -14 -4 -23h-289v-297h349q4 -14 4 -22q0 -15 -4 -24h-401v720z" />
    <glyph glyph-name="emacron" unicode="&#x113;" horiz-adv-x="509" 
d="M393 646h-241q-8 20 0 39h241q8 -23 0 -39zM443 247h-330q5 -112 45.5 -161t122.5 -49q35 0 66.5 9.5t45.5 18.5l14 9q19 -14 21 -39q-6 -5 -18 -12.5t-53 -20t-88 -12.5q-102 0 -155 70t-53 206q0 137 56 203.5t153 66.5q88 0 136 -51t48 -137q0 -28 -3 -53t-5 -37z
M402 354q0 61 -32.5 100t-99.5 39q-71 0 -112 -50.5t-45 -154.5h284l1 4q0 3 1 8.5t1.5 13t1 18.5t0.5 22z" />
    <glyph glyph-name="Ebreve" unicode="&#x114;" horiz-adv-x="556" 
d="M435 847q-2 -2 -6 -5.5t-17 -13t-28 -16.5t-39 -12.5t-50 -5.5q-41 0 -76 13t-49 27l-15 13q6 20 26 27q45 -39 114 -39q31 0 59.5 9.5t41.5 19.5l13 10q20 -6 26 -27zM102 720h391q4 -12 4 -22q0 -15 -4 -24h-339v-286h289q4 -14 4 -22q0 -14 -4 -23h-289v-297h349
q4 -14 4 -22q0 -15 -4 -24h-401v720z" />
    <glyph glyph-name="ebreve" unicode="&#x115;" horiz-adv-x="509" 
d="M403 684q-5 -6 -15 -15.5t-45 -25t-75 -15.5t-73.5 14t-47.5 28l-14 14q6 20 24 27q44 -40 111 -40q30 0 57.5 10t40.5 20l13 10q19 -6 24 -27zM443 247h-330q5 -112 45.5 -161t122.5 -49q35 0 66.5 9.5t45.5 18.5l14 9q19 -14 21 -39q-6 -5 -18 -12.5t-53 -20t-88 -12.5
q-102 0 -155 70t-53 206q0 137 56 203.5t153 66.5q88 0 136 -51t48 -137q0 -28 -3 -53t-5 -37zM402 354q0 61 -32.5 100t-99.5 39q-71 0 -112 -50.5t-45 -154.5h284l1 4q0 3 1 8.5t1.5 13t1 18.5t0.5 22z" />
    <glyph glyph-name="Edotaccent" unicode="&#x116;" horiz-adv-x="556" 
d="M331 842v-54q-11 -4 -31 -4l-30 4v54q9 4 30 4zM102 720h391q4 -12 4 -22q0 -15 -4 -24h-339v-286h289q4 -14 4 -22q0 -14 -4 -23h-289v-297h349q4 -14 4 -22q0 -15 -4 -24h-401v720z" />
    <glyph glyph-name="edotaccent" unicode="&#x117;" horiz-adv-x="509" 
d="M300 701v-54q-10 -4 -30 -4l-30 4v54q9 4 30 4zM443 247h-330q5 -112 45.5 -161t122.5 -49q35 0 66.5 9.5t45.5 18.5l14 9q19 -14 21 -39q-6 -5 -18 -12.5t-53 -20t-88 -12.5q-102 0 -155 70t-53 206q0 137 56 203.5t153 66.5q88 0 136 -51t48 -137q0 -28 -3 -53t-5 -37z
M402 354q0 61 -32.5 100t-99.5 39q-71 0 -112 -50.5t-45 -154.5h284l1 4q0 3 1 8.5t1.5 13t1 18.5t0.5 22z" />
    <glyph glyph-name="Eogonek" unicode="&#x118;" horiz-adv-x="556" 
d="M102 720h391q4 -12 4 -22q0 -15 -4 -24h-339v-286h289q4 -14 4 -22q0 -14 -4 -23h-289v-297h349q4 -14 4 -22q0 -15 -4 -24q-51 -3 -83 -32t-32 -65q0 -50 54 -50q10 0 20 2.5t14 4.5l5 2q11 -9 11 -26q-24 -17 -60 -17q-40 0 -63 21.5t-23 57.5q0 28 19 58t54 44h-317
v720z" />
    <glyph glyph-name="eogonek" unicode="&#x119;" horiz-adv-x="509" 
d="M61 266q0 137 56 203.5t153 66.5q88 0 136 -51t48 -137q0 -28 -3 -53t-5 -37l-3 -11h-330q5 -112 45.5 -161t122.5 -49q35 0 66.5 9.5t45.5 18.5l14 9q19 -14 21 -39q-30 -25 -89 -38q-38 -8 -62 -35t-24 -64q0 -40 54 -40q10 0 20 2t15 4l4 3q11 -9 11 -28
q-24 -16 -60 -16q-86 0 -86 70q0 63 50 97q-98 3 -149 73t-51 203zM402 354q0 61 -32.5 100t-99.5 39q-71 0 -112 -50.5t-45 -154.5h284l1 4q0 3 1 8.5t1.5 13t1 18.5t0.5 22z" />
    <glyph glyph-name="Ecaron" unicode="&#x11a;" horiz-adv-x="556" 
d="M272 767l-128 104q6 21 25 28l117 -86l115 85q17 -4 24 -27l-127 -104h-26zM102 720h391q4 -12 4 -22q0 -15 -4 -24h-339v-286h289q4 -14 4 -22q0 -14 -4 -23h-289v-297h349q4 -14 4 -22q0 -15 -4 -24h-401v720z" />
    <glyph glyph-name="ecaron" unicode="&#x11b;" horiz-adv-x="509" 
d="M255 602l-122 99q6 20 24 26l111 -82l110 81q16 -4 23 -25l-121 -99h-25zM443 247h-330q5 -112 45.5 -161t122.5 -49q35 0 66.5 9.5t45.5 18.5l14 9q19 -14 21 -39q-6 -5 -18 -12.5t-53 -20t-88 -12.5q-102 0 -155 70t-53 206q0 137 56 203.5t153 66.5q88 0 136 -51
t48 -137q0 -28 -3 -53t-5 -37zM402 354q0 61 -32.5 100t-99.5 39q-71 0 -112 -50.5t-45 -154.5h284l1 4q0 3 1 8.5t1.5 13t1 18.5t0.5 22z" />
    <glyph glyph-name="Gcircumflex" unicode="&#x11c;" horiz-adv-x="620" 
d="M384 899l127 -104q-7 -23 -24 -27l-117 85l-115 -86q-19 7 -25 28l128 104h26zM351 -10q-137 0 -209.5 93t-72.5 277q0 182 72.5 276t209.5 94q51 0 97 -8t66 -16l20 -9q-3 -25 -17 -39q-71 26 -159 26q-109 0 -171.5 -74t-62.5 -251t62 -249.5t172 -72.5q59 0 136 16
v282h-180q-4 9 -4 23l4 23h231v-358q-74 -33 -194 -33z" />
    <glyph glyph-name="gcircumflex" unicode="&#x11d;" horiz-adv-x="520" 
d="M259 731l125 -103q-8 -21 -24 -25l-114 83l-113 -84q-18 7 -24 26l125 103h25zM152 210q-87 41 -87 153q0 81 48 127t135 46q61 0 106 -24l132 23q10 -23 0 -48l-95 -6q40 -45 40 -118q0 -80 -47.5 -126t-135.5 -46q-30 0 -60 7q-33 -40 -33 -85q1 -22 19.5 -35
t47.5 -18.5t64 -9t70 -10.5t64 -19.5t47 -40t18 -67.5q0 -70 -64 -116.5t-180 -46.5q-100 0 -149.5 40t-49.5 104q0 89 88 149q-25 22 -25 58q0 50 47 109zM248 496q-60 0 -96 -34t-36 -98q0 -65 36 -99t96 -34q61 0 96.5 34t35.5 99q0 64 -35.5 98t-96.5 34zM242 -209
q88 0 140.5 32t52.5 85q0 41 -30.5 63t-68 26.5t-91 11t-80.5 16.5q-33 -22 -52 -55t-19 -67q0 -52 38 -82t110 -30z" />
    <glyph glyph-name="Gbreve" unicode="&#x11e;" horiz-adv-x="620" 
d="M494 839q-5 -6 -15.5 -15t-46.5 -24t-77 -15t-76 13.5t-49 27.5l-15 13q6 19 25 26q46 -39 115 -39q31 0 59.5 10t41.5 20l13 9q20 -6 25 -26zM351 -10q-137 0 -209.5 93t-72.5 277q0 182 72.5 276t209.5 94q51 0 97 -8t66 -16l20 -9q-2 -24 -17 -39q-71 26 -159 26
q-109 0 -171.5 -74t-62.5 -251t62 -249.5t172 -72.5q59 0 136 16v282h-180q-4 9 -4 23l4 23h231v-358q-74 -33 -194 -33z" />
    <glyph glyph-name="gbreve" unicode="&#x11f;" horiz-adv-x="521" 
d="M386 684q-5 -6 -15 -15.5t-45 -25t-75 -15.5t-73.5 14t-47.5 28l-14 14q6 20 24 27q44 -40 111 -40q30 0 57.5 10t40.5 20l13 10q19 -6 24 -27zM152 210q-87 41 -87 153q0 81 48 127t135 46q61 0 106 -24l132 23q10 -23 0 -47l-95 -7q40 -45 40 -118q0 -80 -47.5 -126
t-135.5 -46q-30 0 -60 7q-33 -40 -33 -85q1 -22 19.5 -35t47.5 -18.5t64 -9t70 -10.5t64 -19.5t47 -40t18 -67.5q0 -70 -64 -116.5t-180 -46.5q-100 0 -149.5 40t-49.5 104q0 89 88 149q-25 22 -25 58q0 50 47 109zM248 496q-60 0 -96 -34t-36 -98q0 -65 36 -99t96 -34
q61 0 96.5 34t35.5 99q0 64 -35.5 98t-96.5 34zM242 -209q88 0 140.5 32t52.5 85q0 41 -30.5 63t-68 26.5t-91 11t-80.5 16.5q-33 -22 -52 -55t-19 -67q0 -52 38 -82t110 -30z" />
    <glyph glyph-name="Gdotaccent" unicode="&#x120;" horiz-adv-x="620" 
d="M384 842v-54q-10 -4 -30 -4l-31 4v54q10 4 31 4zM351 -10q-137 0 -209.5 93t-72.5 277q0 182 72.5 276t209.5 94q51 0 97 -8t66 -16l20 -9q-2 -24 -17 -39q-71 26 -159 26q-109 0 -171.5 -74t-62.5 -251t62 -249.5t172 -72.5q59 0 136 16v282h-180q-4 9 -4 23l4 23h231
v-358q-74 -33 -194 -33z" />
    <glyph glyph-name="gdotaccent" unicode="&#x121;" horiz-adv-x="520" 
d="M282 699v-54q-10 -4 -30 -4l-30 4v54q9 4 30 4zM152 210q-87 41 -87 153q0 81 48 127t135 46q61 0 106 -24l132 23q10 -23 0 -48l-95 -6q40 -45 40 -118q0 -80 -47.5 -126t-135.5 -46q-30 0 -60 7q-33 -40 -33 -85q1 -22 19.5 -35t47.5 -18.5t64 -9t70 -10.5t64 -19.5
t47 -40t18 -67.5q0 -70 -64 -116.5t-180 -46.5q-100 0 -149.5 40t-49.5 104q0 89 88 149q-25 22 -25 58q0 50 47 109zM248 496q-60 0 -96 -34t-36 -98q0 -65 36 -99t96 -34q61 0 96.5 34t35.5 99q0 64 -35.5 98t-96.5 34zM242 -209q88 0 140.5 32t52.5 85q0 41 -30.5 63
t-68 26.5t-91 11t-80.5 16.5q-33 -22 -52 -55t-19 -67q0 -52 38 -82t110 -30z" />
    <glyph glyph-name="Gcommaaccent" unicode="&#x122;" horiz-adv-x="620" 
d="M351 -10q-137 0 -209.5 93t-72.5 277q0 182 72.5 276t209.5 94q51 0 97 -8t66 -16l20 -9q-2 -22 -17 -39q-71 26 -159 26q-109 0 -171.5 -74t-62.5 -251t62 -249.5t172 -72.5q59 0 136 16v282h-180q-4 9 -4 23l4 23h231v-358q-74 -33 -194 -33zM332 -217l-23 14
q32 28 36 82l-23 4v52q12 4 34 4l33 -4v-38q0 -33 -14.5 -61.5t-28.5 -40.5z" />
    <glyph glyph-name="gcommaaccent" unicode="&#x123;" horiz-adv-x="520" 
d="M272 750l22 -13q-30 -26 -35 -77l23 -4v-49q-11 -3 -32 -3l-33 3v36q0 31 14 58t27 38zM152 210q-87 41 -87 153q0 81 48 127t135 46q61 0 106 -24l132 23q10 -23 0 -48l-95 -6q40 -45 40 -118q0 -80 -47.5 -126t-135.5 -46q-30 0 -60 7q-33 -40 -33 -85q1 -22 19.5 -35
t47.5 -18.5t64 -9t70 -10.5t64 -19.5t47 -40t18 -67.5q0 -70 -64 -116.5t-180 -46.5q-100 0 -149.5 40t-49.5 104q0 89 88 149q-25 22 -25 58q0 50 47 109zM248 496q-60 0 -96 -34t-36 -98q0 -65 36 -99t96 -34q61 0 96.5 34t35.5 99q0 64 -35.5 98t-96.5 34zM242 -209
q88 0 140.5 32t52.5 85q0 41 -30.5 63t-68 26.5t-91 11t-80.5 16.5q-33 -22 -52 -55t-19 -67q0 -52 38 -82t110 -30z" />
    <glyph glyph-name="Hcircumflex" unicode="&#x124;" horiz-adv-x="676" 
d="M358 899l127 -104q-7 -23 -24 -27l-117 85l-115 -86q-19 7 -25 28l128 104h26zM522 393v323q9 4 26 4l26 -4v-712q-8 -4 -26 -4l-26 4v341h-368v-341q-9 -4 -26 -4l-26 4v712q9 4 26 4l26 -4v-323h368z" />
    <glyph glyph-name="hcircumflex" unicode="&#x125;" horiz-adv-x="549" 
d="M130 891l122 -100q-7 -22 -24 -26l-112 82l-110 -82q-18 6 -24 26l123 100h25zM466 387v-383q-8 -4 -25 -4l-25 4v372q0 117 -120 117q-48 0 -92 -30.5t-68 -82.5v-376q-8 -4 -25 -4l-25 4v742q8 4 25 4l25 -4v-301q64 91 178 91q71 0 111.5 -40.5t40.5 -108.5z" />
    <glyph glyph-name="Hbar" unicode="&#x126;" horiz-adv-x="686" 
d="M580 592h75q8 -19 0 -37h-75v-551q-8 -4 -26 -4l-26 4v341h-368v-341q-9 -4 -26 -4l-26 4v551h-65q-7 20 0 37h65v124q9 4 26 4l26 -4v-124h368v124q9 4 26 4l26 -4v-124zM160 555v-162h368v162h-368z" />
    <glyph glyph-name="hbar" unicode="&#x127;" horiz-adv-x="549" 
d="M136 445q64 91 178 91q71 0 111.5 -40.5t40.5 -108.5v-383q-8 -4 -25 -4l-25 4v372q0 117 -120 117q-48 0 -92 -30.5t-68 -82.5v-376q-8 -4 -25 -4l-25 4v621h-71q-7 19 0 37h71v84q8 4 25 4l25 -4v-84h153q7 -17 0 -37h-153v-180z" />
    <glyph glyph-name="Itilde" unicode="&#x128;" horiz-adv-x="256" 
d="M191 804q12 0 23 7t16 13l5 7q15 -5 20 -21q-3 -11 -22 -27.5t-47 -16.5q-26 0 -57 17.5t-48 17.5q-12 0 -22.5 -6.5t-14.5 -12.5l-5 -7q-18 8 -22 22q1 2 2.5 4.5t7 10t12.5 13t19.5 10t27.5 4.5q26 0 57 -17.5t48 -17.5zM102 4v712q8 4 26 4l26 -4v-712q-8 -4 -26 -4z
" />
    <glyph glyph-name="itilde" unicode="&#x129;" horiz-adv-x="228" 
d="M160 671q10 0 19 7.5t13 15.5l4 7q20 -9 21 -25q-21 -43 -62 -43q-21 0 -46.5 17t-40.5 17q-10 0 -19 -7t-13 -14l-4 -7q-19 10 -20 25q4 12 20 26.5t41 14.5q22 0 47.5 -17t39.5 -17zM139 522v-518q-7 -4 -25 -4l-25 4v518q7 4 25 4z" />
    <glyph glyph-name="Imacron" unicode="&#x12a;" horiz-adv-x="256" 
d="M256 777h-255q-10 20 0 40h255q9 -17 0 -40zM101 4v712q8 4 26 4l26 -4v-712q-8 -4 -26 -4z" />
    <glyph glyph-name="imacron" unicode="&#x12b;" horiz-adv-x="228" 
d="M205 656h-180q-7 18 0 37h180q8 -20 0 -37zM139 522v-518q-7 -4 -25 -4l-25 4v518q7 4 25 4z" />
    <glyph glyph-name="Ibreve" unicode="&#x12c;" horiz-adv-x="256" 
d="M265 839q-5 -6 -15.5 -15t-46.5 -24t-77 -15t-76 13.5t-50 27.5l-14 13q6 19 26 26q45 -39 114 -39q31 0 59.5 10t41.5 20l13 9q20 -6 25 -26zM102 4v712q8 4 26 4l26 -4v-712q-8 -4 -26 -4z" />
    <glyph glyph-name="ibreve" unicode="&#x12d;" horiz-adv-x="228" 
d="M248 687q-5 -6 -15 -15.5t-45 -25.5t-75 -16q-25 0 -48.5 6t-38.5 14t-26.5 16.5t-16.5 14.5l-5 6q6 21 24 26q44 -40 111 -40q30 0 57.5 10t40.5 20l13 10q19 -6 24 -26zM139 522v-518q-7 -4 -25 -4l-25 4v518q7 4 25 4z" />
    <glyph glyph-name="Iogonek" unicode="&#x12e;" horiz-adv-x="256" 
d="M154 4v-1q-38 -12 -61.5 -39t-23.5 -55q0 -24 14.5 -37t39.5 -13q10 0 20 2.5t15 4.5l4 2q11 -8 11 -27q-23 -17 -60 -17q-40 0 -63 21.5t-23 57.5q0 72 75 107v706q8 4 26 4l26 -4v-712z" />
    <glyph glyph-name="iogonek" unicode="&#x12f;" horiz-adv-x="229" 
d="M83 666q11 4 32 4l32 -4v-56q-11 -4 -32 -4l-32 4v56zM90 522q7 4 25 4l25 -4v-516q-32 -14 -54.5 -44.5t-22.5 -61.5q0 -44 54 -44q10 0 20 2t15 4l5 3q10 -9 10 -28q-23 -17 -60 -17q-41 0 -64.5 19.5t-23.5 54.5q0 32 20.5 64t50.5 51v513z" />
    <glyph glyph-name="Idotaccent" unicode="&#x130;" horiz-adv-x="256" 
d="M97 840q10 4 31 4l32 -4v-56q-11 -4 -32 -4l-31 4v56zM102 716q8 4 26 4l26 -4v-712q-8 -4 -26 -4l-26 4v712z" />
    <glyph glyph-name="dotlessi" unicode="&#x131;" horiz-adv-x="228" 
d="M139 522v-518q-7 -4 -25 -4l-25 4v518q7 4 25 4z" />
    <glyph glyph-name="IJ" unicode="&#x132;" horiz-adv-x="639" 
d="M102 4v712q8 4 26 4l26 -4v-712q-8 -4 -26 -4zM489 163v553q7 4 26 4l26 -4v-553q0 -89 -40.5 -131t-122.5 -42q-33 0 -67.5 7.5t-52.5 14.5l-17 8q-2 27 15 41q55 -24 116 -24q117 0 117 126z" />
    <glyph glyph-name="ij" unicode="&#x133;" horiz-adv-x="418" 
d="M146 706v-56q-11 -4 -32 -4l-32 4v56q11 4 32 4zM139 522v-518q-7 -4 -25 -4l-25 4v518q7 4 25 4zM335 709v-56q-10 -4 -31 -4l-32 4v56q10 4 32 4zM279 -92v614q6 4 25 4l25 -4v-610q0 -81 -35 -121.5t-100 -40.5q-19 0 -33.5 2t-20.5 4l-5 3q-2 5 -2 12q0 8 1.5 14.5
t3.5 8.5l1 3q16 -4 43 -4q50 0 73.5 27t23.5 88z" />
    <glyph glyph-name="Jcircumflex" unicode="&#x134;" horiz-adv-x="425" 
d="M314 899l127 -104q-7 -23 -24 -27l-117 85l-115 -86q-19 7 -25 28l128 104h26zM275 163v553q7 4 26 4l26 -4v-552q0 -174 -163 -174q-34 0 -68 7.5t-52 14.5l-17 8q-2 27 15 41q55 -24 116 -24q117 0 117 126z" />
    <glyph glyph-name="jcircumflex" unicode="&#x135;" horiz-adv-x="228" 
d="M127 712l124 -102q-7 -22 -24 -26l-114 83l-113 -84q-18 7 -24 27l125 102h26zM89 -92v614q6 4 25 4l25 -4v-610q0 -81 -35 -121.5t-100 -40.5q-19 0 -33.5 2t-20.5 4l-5 3q-2 5 -2 12q0 8 1.5 14.5t3.5 8.5l1 3q16 -4 43 -4q50 0 73.5 27t23.5 88z" />
    <glyph glyph-name="Kcommaaccent" unicode="&#x136;" horiz-adv-x="610" 
d="M279 397l224 319q12 4 28 4q12 0 28 -4l-236 -337l265 -375q-10 -4 -30 -4l-32 4l-246 347h-126v-347q-8 -4 -26 -4l-26 4v712q9 4 27 4l25 -4v-319h125zM296 -207l-22 16q30 30 34 87l-22 4v56q11 4 32 4l32 -4v-40q0 -36 -13.5 -67t-26.5 -43z" />
    <glyph glyph-name="kcommaaccent" unicode="&#x137;" horiz-adv-x="496" 
d="M242 296l156 226q10 4 29 4l25 -3l-168 -245l192 -273q-10 -5 -29 -5l-30 5l-176 249h-105v-250q-8 -4 -25 -4l-25 4v742q8 4 25 4l25 -4v-450h106zM246 -207l-22 15q30 30 34 87l-22 4v56q11 4 32 4l32 -4v-40q0 -36 -13.5 -66.5t-26.5 -42.5z" />
    <glyph glyph-name="kgreenlandic" unicode="&#x138;" horiz-adv-x="504" 
d="M267 302l216 -297q-10 -5 -30 -5l-31 4l-190 257l-96 -107v-150q-8 -4 -25 -4q-16 0 -25 4v519q9 3 26 3q18 0 24 -3v-304l267 303q11 4 29 4t30 -4z" />
    <glyph glyph-name="Lacute" unicode="&#x139;" horiz-adv-x="507" 
d="M238 901l-125 -144q-23 3 -33 19l111 148q31 2 47 -23zM102 0v716q9 4 26 4l26 -4v-669h323q4 -12 4 -23q0 -8 -4 -24h-375z" />
    <glyph glyph-name="lacute" unicode="&#x13a;" horiz-adv-x="232" 
d="M211 922l-125 -144q-23 3 -33 19l111 148q31 2 47 -23zM141 746v-742q-7 -4 -25 -4l-25 4v742q7 4 25 4z" />
    <glyph glyph-name="Lcommaaccent" unicode="&#x13b;" horiz-adv-x="507" 
d="M102 0v716q9 4 26 4l26 -4v-669h323q4 -12 4 -23q0 -8 -4 -24h-375zM274 -207l-21 16q29 30 34 87l-23 4v56q11 4 32 4l32 -4v-40q0 -36 -13.5 -67t-26.5 -43z" />
    <glyph glyph-name="lcommaaccent" unicode="&#x13c;" horiz-adv-x="232" 
d="M141 746v-742q-7 -4 -25 -4l-25 4v742q7 4 25 4zM94 -207l-21 16q29 30 34 87l-22 4v56q10 4 31 4l32 -4v-40q0 -36 -13.5 -67t-26.5 -43z" />
    <glyph glyph-name="Lcaron" unicode="&#x13d;" horiz-adv-x="507" 
d="M284 588q-18 3 -25 17q63 50 66 144q32 3 47 -10q-5 -46 -28.5 -89t-59.5 -62zM102 0v716q9 4 26 4l26 -4v-669h323q4 -12 4 -23q0 -8 -4 -24h-375z" />
    <glyph glyph-name="lcaron" unicode="&#x13e;" horiz-adv-x="239" 
d="M220 585q-18 1 -26 14q57 56 51 150q29 8 47 -4q1 -46 -18 -91t-54 -69zM141 746v-742q-7 -4 -25 -4l-25 4v742q7 4 25 4z" />
    <glyph glyph-name="Ldot" unicode="&#x13f;" horiz-adv-x="511" 
d="M102 0v716q9 4 26 4l26 -4v-669h323q4 -12 4 -23q0 -8 -4 -24h-375zM386 360v-52q-10 -4 -30 -4l-30 4v52q10 4 30 4z" />
    <glyph glyph-name="ldot" unicode="&#x140;" horiz-adv-x="286" 
d="M141 746v-742q-7 -4 -25 -4l-25 4v742q7 4 25 4zM287 360v-52q-10 -4 -30 -4l-30 4v52q10 4 30 4z" />
    <glyph glyph-name="Lslash" unicode="&#x141;" horiz-adv-x="522" 
d="M117 716q9 4 26 4l26 -4v-308l116 68q16 -11 19 -34l-135 -79v-316h323q4 -12 4 -23q0 -8 -4 -24h-375v333l-71 -40q-17 12 -19 33l90 52v338z" />
    <glyph glyph-name="lslash" unicode="&#x142;" horiz-adv-x="310" 
d="M123 746q7 4 25 4l25 -4v-306l83 47q8 -5 13 -14q7 -13 7 -20l-103 -59v-390q-7 -4 -25 -4l-25 4v361l-74 -43q-5 2 -13 14q-6 11 -6 20l93 54v336z" />
    <glyph glyph-name="Nacute" unicode="&#x143;" horiz-adv-x="694" 
d="M473 901l-125 -144q-23 3 -33 19l111 148q31 2 47 -23zM531 4l-331 552q-16 25 -28.5 49t-17.5 35l-4 12h-2q4 -44 4 -140v-508q-8 -4 -26 -4l-24 4v712q11 4 31 4l30 -4l329 -545q14 -24 27 -49.5t19 -39.5l7 -13h2q-5 55 -5 133v514q8 4 26 4l24 -4v-712q-9 -4 -30 -4z
" />
    <glyph glyph-name="nacute" unicode="&#x144;" 
d="M354 752l-125 -144q-23 3 -33 19l111 148q31 2 47 -23zM466 387v-383q-8 -4 -25 -4l-25 4v372q0 117 -120 117q-48 0 -92 -30.5t-68 -82.5v-376q-8 -4 -25 -4l-25 4v518q8 4 25 4l25 -4v-77q64 91 178 91q71 0 111.5 -40.5t40.5 -108.5z" />
    <glyph glyph-name="Ncommaaccent" unicode="&#x145;" horiz-adv-x="694" 
d="M531 4l-331 552q-16 25 -28.5 49t-17.5 35l-4 12h-2q4 -44 4 -140v-508q-8 -4 -26 -4l-24 4v712q11 4 31 4l30 -4l329 -545q14 -24 27 -49.5t19 -39.5l7 -13h2q-5 55 -5 133v514q8 4 26 4l24 -4v-712q-9 -4 -30 -4zM331 -207l-22 16q30 30 34 87l-22 4v56q11 4 32 4
l32 -4v-40q0 -36 -13.5 -67t-27.5 -43z" />
    <glyph glyph-name="ncommaaccent" unicode="&#x146;" 
d="M466 387v-383q-8 -4 -25 -4l-25 4v372q0 117 -120 117q-48 0 -92 -30.5t-68 -82.5v-376q-8 -4 -25 -4l-25 4v518q8 4 25 4l25 -4v-77q64 91 178 91q71 0 111.5 -40.5t40.5 -108.5zM259 -213l-22 15q29 30 34 87l-22 4v57q11 4 32 4l31 -4v-41q0 -22 -5.5 -43t-13 -34.5
t-15.5 -24t-14 -15.5z" />
    <glyph glyph-name="Ncaron" unicode="&#x147;" horiz-adv-x="694" 
d="M341 767l-128 104q6 21 25 28l117 -86l115 85q17 -4 24 -27l-127 -104h-26zM531 4l-331 552q-16 25 -28.5 49t-17.5 35l-4 12h-2q4 -44 4 -140v-508q-8 -4 -26 -4l-24 4v712q11 4 31 4l30 -4l329 -545q14 -24 27 -49.5t19 -39.5l7 -13h2q-5 55 -5 133v514q8 4 26 4l24 -4
v-712q-9 -4 -30 -4z" />
    <glyph glyph-name="ncaron" unicode="&#x148;" 
d="M281 651l105 78q16 -4 23 -24l-117 -97h-23l-117 97q6 19 22 25zM86 522q8 4 25 4l25 -4v-77q64 91 178 91q71 0 111.5 -40.5t40.5 -108.5v-383q-8 -4 -25 -4l-25 4v372q0 117 -120 117q-48 0 -92 -30.5t-68 -82.5v-376q-8 -4 -25 -4l-25 4v518z" />
    <glyph glyph-name="napostrophe" unicode="&#x149;" 
d="M102 588q-18 3 -25 17q63 50 66 144q32 3 47 -10q-5 -46 -28.5 -89t-59.5 -62zM466 387v-383q-8 -4 -25 -4l-25 4v372q0 117 -120 117q-48 0 -92 -30.5t-68 -82.5v-376q-8 -4 -25 -4l-25 4v518q8 4 25 4l25 -4v-77q64 91 178 91q71 0 111.5 -40.5t40.5 -108.5z" />
    <glyph glyph-name="Eng" unicode="&#x14a;" horiz-adv-x="694" 
d="M542 716q8 4 26 4l24 -4v-768q0 -73 -23.5 -114t-86.5 -62q-19 12 -16 39q41 14 58 44t17 91v56l-10 2l-331 552q-16 25 -28.5 49t-17.5 35l-4 12h-2q4 -44 4 -140v-508q-8 -4 -26 -4l-24 4v712q11 4 31 4l30 -4l329 -545q14 -24 27 -49.5t19 -39.5l7 -13h2q-5 55 -5 133
v514z" />
    <glyph glyph-name="eng" unicode="&#x14b;" horiz-adv-x="549" 
d="M136 445q64 91 178 91q71 0 111.5 -40.5t40.5 -108.5v-439q0 -73 -23.5 -114t-86.5 -62q-18 13 -16 38q42 15 59 45.5t17 90.5v430q0 117 -120 117q-48 0 -92 -30.5t-68 -82.5v-376q-8 -4 -25 -4l-25 4v518q8 4 25 4l25 -4v-77z" />
    <glyph glyph-name="Omacron" unicode="&#x14c;" horiz-adv-x="680" 
d="M208 845h270q8 -17 0 -40h-270q-7 19 0 40zM70 360q0 188 70.5 279t199.5 91t199.5 -90.5t70.5 -279.5q0 -370 -270 -370t-270 370zM554 360q0 172 -55.5 248.5t-158.5 76.5t-158.5 -76.5t-55.5 -248.5q0 -325 214 -325t214 325z" />
    <glyph glyph-name="omacron" unicode="&#x14d;" horiz-adv-x="540" 
d="M152 694h234q9 -19 0 -40h-234q-7 21 0 40zM62 263q0 144 53 208.5t155 64.5t155 -64.5t53 -208.5t-53 -208.5t-155 -64.5t-155 64.5t-53 208.5zM426 263q0 126 -39.5 178.5t-116.5 52.5t-116.5 -52.5t-39.5 -178.5t39.5 -178.5t116.5 -52.5t116.5 52.5t39.5 178.5z" />
    <glyph glyph-name="Obreve" unicode="&#x14e;" horiz-adv-x="680" 
d="M342 826q31 0 59.5 10t41.5 20l13 9q20 -6 25 -26q-5 -6 -15.5 -15t-46.5 -24t-77 -15t-76 13.5t-50 27.5l-14 13q6 19 26 26q45 -39 114 -39zM70 360q0 188 70.5 279t199.5 91t199.5 -90.5t70.5 -279.5q0 -370 -270 -370t-270 370zM554 360q0 172 -55.5 248.5
t-158.5 76.5t-158.5 -76.5t-55.5 -248.5q0 -325 214 -325t214 325z" />
    <glyph glyph-name="obreve" unicode="&#x14f;" horiz-adv-x="540" 
d="M269 678q30 0 57.5 10t40.5 20l13 10q19 -6 24 -26q-5 -6 -15 -15.5t-45 -25.5t-75 -16t-74 14.5t-47 28.5l-14 14q6 19 24 26q44 -40 111 -40zM62 263q0 144 53 208.5t155 64.5t155 -64.5t53 -208.5t-53 -208.5t-155 -64.5t-155 64.5t-53 208.5zM426 263
q0 126 -39.5 178.5t-116.5 52.5t-116.5 -52.5t-39.5 -178.5t39.5 -178.5t116.5 -52.5t116.5 52.5t39.5 178.5z" />
    <glyph glyph-name="Ohungarumlaut" unicode="&#x150;" horiz-adv-x="680" 
d="M239 792l84 124q33 2 50 -22l-103 -120q-24 3 -31 18zM385 792l86 124q31 2 49 -22l-103 -120q-23 3 -32 18zM70 360q0 188 70.5 279t199.5 91t199.5 -90.5t70.5 -279.5q0 -370 -270 -370t-270 370zM554 360q0 172 -55.5 248.5t-158.5 76.5t-158.5 -76.5t-55.5 -248.5
q0 -325 214 -325t214 325z" />
    <glyph glyph-name="ohungarumlaut" unicode="&#x151;" horiz-adv-x="540" 
d="M173 623l98 122q33 2 47 -19l-115 -119q-20 1 -30 16zM315 623l97 122q32 2 48 -19l-115 -119q-22 2 -30 16zM62 263q0 144 53 208.5t155 64.5t155 -64.5t53 -208.5t-53 -208.5t-155 -64.5t-155 64.5t-53 208.5zM426 263q0 126 -39.5 178.5t-116.5 52.5t-116.5 -52.5
t-39.5 -178.5t39.5 -178.5t116.5 -52.5t116.5 52.5t39.5 178.5z" />
    <glyph glyph-name="OE" unicode="&#x152;" horiz-adv-x="839" 
d="M69 360q0 189 73 279.5t206 90.5q44 0 86 -10h342q4 -8 4 -23t-4 -23h-292v-286h242q4 -9 4 -22q0 -14 -4 -23h-242v-297h302q4 -9 4 -22q0 -15 -4 -24h-353q-42 -10 -85 -10q-133 0 -206 91t-73 279zM431 672q-37 13 -83 13q-224 0 -224 -325t224 -325q50 0 83 14v623z
" />
    <glyph glyph-name="oe" unicode="&#x153;" horiz-adv-x="827" 
d="M761 247h-304q5 -114 40 -163t110 -49q32 0 61.5 9t43.5 18l13 9q18 -10 21 -36q-6 -5 -17 -12.5t-50 -20t-84 -12.5q-121 0 -163 125q-22 -66 -61.5 -95.5t-104.5 -29.5q-100 0 -152 64.5t-52 208.5t52 208.5t152 64.5q65 0 105.5 -30t61.5 -96q43 126 163 126
q85 0 130.5 -51t45.5 -137q0 -28 -3 -53t-5 -37zM266 494q-74 0 -112.5 -52.5t-38.5 -178.5t38.5 -178.5t112.5 -52.5q73 0 106.5 52t33.5 181q0 128 -33.5 178.5t-106.5 50.5zM720 354q0 61 -30 100t-94 39q-132 0 -139 -205h258l1 4q0 3 1 8.5t1.5 13t1 18.5t0.5 22z" />
    <glyph glyph-name="Racute" unicode="&#x154;" horiz-adv-x="618" 
d="M220 776l111 148q31 2 47 -23l-125 -144q-23 3 -33 19zM102 720h241q93 0 147 -55t54 -146q0 -76 -39 -127.5t-108 -66.5l173 -321q-10 -4 -30 -4l-31 4l-168 315h-187v-315q-8 -4 -25 -4l-27 4v716zM154 674v-309h188q68 0 107.5 41t39.5 113q0 73 -39.5 114t-107.5 41
h-188z" />
    <glyph glyph-name="racute" unicode="&#x155;" horiz-adv-x="388" 
d="M146 627l111 148q31 2 47 -23l-125 -144q-23 3 -33 19zM136 430q54 105 145 105q49 0 84 -23q-2 -29 -24 -42q-35 18 -72 18q-38 0 -73 -32t-60 -87v-365q-7 -4 -25 -4l-25 4v518q7 4 25 4l25 -4v-92z" />
    <glyph glyph-name="Rcommaaccent" unicode="&#x156;" horiz-adv-x="618" 
d="M102 720h241q93 0 147 -55t54 -146q0 -76 -39 -127.5t-108 -66.5l173 -321q-10 -4 -30 -4l-31 4l-168 315h-187v-315q-8 -4 -25 -4l-27 4v716zM154 674v-309h188q68 0 107.5 41t39.5 113q0 73 -39.5 114t-107.5 41h-188zM286 -44q11 4 32 4l32 -4v-40q0 -36 -13.5 -67
t-26.5 -43l-14 -13l-22 16q30 30 34 87l-22 4v56z" />
    <glyph glyph-name="rcommaaccent" unicode="&#x157;" horiz-adv-x="388" 
d="M136 430q62 105 145 105q49 0 84 -23q-2 -29 -24 -42q-35 18 -72 18q-67 0 -133 -119v-365q-7 -4 -25 -4l-25 4v518q7 4 25 4l25 -4v-92zM80 -44q11 4 31 4l32 -4v-40q0 -36 -13.5 -67t-27.5 -43l-13 -13l-21 16q29 30 34 87l-22 4v56z" />
    <glyph glyph-name="Rcaron" unicode="&#x158;" horiz-adv-x="618" 
d="M290 813l115 85q17 -4 24 -27l-127 -104h-26l-128 104q6 21 25 28zM102 720h241q93 0 147 -55t54 -146q0 -76 -39 -127.5t-108 -66.5l173 -321q-10 -4 -30 -4l-31 4l-168 315h-187v-315q-8 -4 -25 -4l-27 4v716zM154 674v-309h188q68 0 107.5 41t39.5 113q0 73 -39.5 114
t-107.5 41h-188z" />
    <glyph glyph-name="rcaron" unicode="&#x159;" horiz-adv-x="388" 
d="M203 645l105 78q16 -4 23 -25l-117 -96h-23l-118 96q6 19 23 26zM136 430q62 105 145 105q49 0 84 -23q-2 -29 -24 -42q-35 18 -72 18q-67 0 -133 -119v-365q-7 -4 -25 -4l-25 4v518q7 4 25 4l25 -4v-92z" />
    <glyph glyph-name="Sacute" unicode="&#x15a;" horiz-adv-x="561" 
d="M394 902l-120 -132q-24 3 -32 20l105 136q32 2 47 -24zM301 684q-92 0 -138 -38t-46 -107q0 -36 11.5 -60.5t42.5 -42t51 -24.5t71 -22q9 -3 13 -4q36 -10 59.5 -18.5t53 -24.5t46 -35.5t28.5 -50.5t12 -70q0 -93 -62.5 -145t-175.5 -52q-55 0 -105.5 9.5t-73.5 18.5
l-24 10q-2 27 14 43q89 -32 184 -32q91 0 140 37.5t49 109.5q0 37 -13 63t-40 43t-52 26.5t-66 20.5q-32 9 -46 13t-42.5 14.5t-42 19t-33 24t-29 32.5t-16.5 41t-7 53q0 90 60 142t170 52q50 0 96 -6t67 -12l21 -7q2 -28 -14 -42q-75 21 -163 21z" />
    <glyph glyph-name="sacute" unicode="&#x15b;" horiz-adv-x="443" 
d="M313 752l-125 -144q-23 3 -33 19l111 148q31 2 47 -23zM59 388q0 68 45 108t132 40q36 0 68.5 -6t47.5 -12l14 -5q2 -26 -15 -39q-49 18 -110 18q-131 0 -131 -102q0 -41 31.5 -62t89.5 -37q33 -10 47 -14.5t41 -17.5t39.5 -26.5t23 -38t10.5 -55.5q0 -70 -45 -109.5
t-133 -39.5q-43 0 -82 8t-56 16l-17 8q-2 25 14 39q65 -26 137 -26q59 0 94.5 25t35.5 77q0 18 -4 32.5t-16.5 26t-20 17.5t-30 14t-29 10t-34.5 10q-32 9 -54 18t-45.5 25t-35.5 40.5t-12 57.5z" />
    <glyph glyph-name="Scircumflex" unicode="&#x15c;" horiz-adv-x="561" 
d="M303 904l127 -104q-7 -23 -24 -27l-117 85l-115 -86q-18 7 -25 28l128 104h26zM301 684q-92 0 -138 -38t-46 -107q0 -77 72 -113q29 -14 118 -40q36 -10 59.5 -18.5t52.5 -24.5t46 -35.5t28.5 -50.5t11.5 -70q0 -93 -62.5 -145t-175.5 -52q-55 0 -105.5 9.5t-73.5 18.5
l-24 10q-2 27 14 43q89 -32 184 -32q91 0 140 37.5t49 109.5q0 37 -13 63.5t-42 44t-53.5 26.5t-67.5 21q-42 12 -63.5 19t-54.5 23t-50 34t-30 49t-13 70q0 90 60 142t170 52q50 0 96 -6t67 -12l21 -7q2 -28 -14 -42q-75 21 -163 21z" />
    <glyph glyph-name="scircumflex" unicode="&#x15d;" horiz-adv-x="443" 
d="M242 728l125 -102q-7 -22 -24 -26l-114 83l-113 -84q-18 7 -24 27l125 102h25zM59 388q0 68 45 108t132 40q36 0 68.5 -6t47.5 -12l14 -5q2 -26 -15 -39q-49 18 -110 18q-131 0 -131 -102q0 -22 9.5 -38.5t29.5 -28t38 -18.5t47 -15q31 -9 46 -14t41 -18t38 -27
t22.5 -37.5t10.5 -54.5q0 -70 -45 -109.5t-133 -39.5q-43 0 -82 8t-56 16l-17 8q-2 25 14 39q65 -26 137 -26q59 0 94.5 25t35.5 77q0 34 -21 57t-39.5 30t-63.5 20l-9 3q-32 9 -54 18t-46 25t-36 40.5t-12 57.5z" />
    <glyph glyph-name="Scedilla" unicode="&#x15e;" horiz-adv-x="561" 
d="M307 386q36 -10 59.5 -18.5t52.5 -24.5t45.5 -35.5t28.5 -50.5t12 -70q0 -89 -57 -140.5t-160 -56.5l-9 -48q111 0 111 -90q0 -98 -115 -98q-23 0 -45 6t-32 12l-11 5q1 19 14 28l3 -1q4 -2 8.5 -4t11.5 -4t14.5 -4t17.5 -3t19 -1q74 0 74 65q0 56 -69 56h-32l-8 10
l12 71q-51 1 -98 10.5t-68 18.5l-22 9q-2 27 14 43q89 -32 184 -32q91 0 140 37.5t49 109.5q0 37 -13 63.5t-41 43.5t-52 26t-67 21q-42 12 -63.5 19t-55.5 23t-51 34.5t-30.5 49t-13.5 70.5q0 90 60 142t170 52q50 0 96 -6t67 -12l21 -7q2 -28 -14 -42q-75 21 -163 21
q-92 0 -138 -38t-46 -107q0 -77 72 -113q29 -14 118 -40z" />
    <glyph glyph-name="scedilla" unicode="&#x15f;" horiz-adv-x="443" 
d="M59 388q0 68 45 108t132 40q36 0 68.5 -6t47.5 -12l14 -5q2 -26 -15 -39q-49 18 -110 18q-131 0 -131 -102q0 -41 31.5 -62t90.5 -37q32 -9 46.5 -14t41 -18t39 -27t23 -38t10.5 -55q0 -66 -40.5 -105.5t-118.5 -43.5l-9 -49q108 0 108 -86q0 -94 -112 -94
q-23 0 -44.5 5.5t-31.5 11.5l-10 5q0 16 13 27l5 -2q5 -2 11 -4.5t15 -5t19.5 -4t21.5 -1.5q73 0 73 63q0 54 -67 54h-32l-8 9l13 71q-39 2 -73.5 10t-50.5 15l-15 7q-2 25 14 39q65 -26 137 -26q59 0 94.5 25t35.5 77q0 18 -4 32.5t-16.5 26t-20 17.5t-30 14t-29 10
t-34.5 10q-32 9 -53.5 18t-45.5 25t-36 40.5t-12 57.5z" />
    <glyph glyph-name="Scaron" unicode="&#x160;" horiz-adv-x="561" 
d="M284 778l-128 103q6 21 25 28l117 -86l114 85q18 -4 25 -27l-127 -103h-26zM301 684q-92 0 -138 -38t-46 -107q0 -25 5.5 -44.5t21 -34.5t27 -24t40 -19.5t42.5 -15t51 -14.5t60.5 -18.5t53 -24.5t46.5 -35.5t29 -50.5t12 -71q0 -93 -62.5 -145t-175.5 -52
q-55 0 -105.5 9.5t-73.5 18.5l-24 10q-2 26 14 43q89 -32 184 -32q91 0 140 37.5t49 109.5q0 37 -13 63.5t-41 43.5t-52.5 26t-67.5 21q-44 13 -63.5 19t-54.5 23t-51.5 35t-30 48.5t-13.5 70.5q0 90 60 142t170 52q50 0 96 -6t67 -12l21 -7q2 -28 -14 -42q-75 21 -163 21z
" />
    <glyph glyph-name="scaron" unicode="&#x161;" horiz-adv-x="443" 
d="M222 608l-115 94q5 20 23 24l105 -77l104 77q15 -6 22 -24l-115 -94h-24zM59 388q0 68 45 108t132 40q36 0 68.5 -6t47.5 -12l14 -5q2 -26 -15 -39q-49 18 -110 18q-131 0 -131 -102q0 -41 31 -62t89 -37q25 -7 33.5 -9.5t31 -11t32 -15t25 -18.5t22.5 -25t12.5 -32
t5.5 -41q0 -70 -45 -109.5t-133 -39.5q-43 0 -82 8t-56 16l-17 8q-2 25 14 39q65 -26 137 -26q59 0 94.5 25t35.5 77q0 34 -21 57t-39.5 30t-63.5 20l-9 3q-32 9 -54 18t-46 25t-36 40.5t-12 57.5z" />
    <glyph glyph-name="Tcommaaccent" unicode="&#x162;" horiz-adv-x="533" 
d="M35 720h463q4 -8 4 -23l-4 -23h-203v-670q-8 -4 -26 -4l-26 4v670h-208q-4 9 -4 23zM250 -223l-22 16q29 30 34 87l-22 4v56q11 4 32 4l31 -4v-40q0 -36 -13.5 -67t-26.5 -43z" />
    <glyph glyph-name="Tcommaaccent" unicode="&#x21a;" horiz-adv-x="533" 
d="M35 720h463q4 -8 4 -23l-4 -23h-203v-670q-8 -4 -26 -4l-26 4v670h-208q-4 9 -4 23zM250 -223l-22 16q29 30 34 87l-22 4v56q11 4 32 4l31 -4v-40q0 -36 -13.5 -67t-26.5 -43z" />
    <glyph glyph-name="tcommaaccent" unicode="&#x163;" horiz-adv-x="359" 
d="M165 484v-308q0 -76 24.5 -109t86.5 -33l54 5q5 -8 5 -22l-3 -19q-40 -8 -68 -8q-82 0 -115.5 46t-33.5 139v309h-80q-4 6 -4 21l4 21h80v99q22 15 50 12v-111h153q5 -7 5 -21l-5 -21h-153zM198 -243l-21 16q29 30 34 87l-23 4v56q11 4 32 4l32 -4v-41q0 -36 -13.5 -66.5
t-26.5 -42.5z" />
    <glyph glyph-name="tcommaaccent" unicode="&#x21b;" horiz-adv-x="359" 
d="M165 484v-308q0 -76 24.5 -109t86.5 -33l54 5q5 -8 5 -22l-3 -19q-40 -8 -68 -8q-82 0 -115.5 46t-33.5 139v309h-80q-4 6 -4 21l4 21h80v99q22 15 50 12v-111h153q5 -7 5 -21l-5 -21h-153zM198 -243l-21 16q29 30 34 87l-23 4v56q11 4 32 4l32 -4v-41q0 -36 -13.5 -66.5
t-26.5 -42.5z" />
    <glyph glyph-name="Tcaron" unicode="&#x164;" horiz-adv-x="533" 
d="M257 767l-128 104q6 21 25 28l117 -86l115 85q17 -4 24 -27l-127 -104h-26zM35 720h463q4 -8 4 -23l-4 -23h-203v-670q-8 -4 -26 -4l-26 4v670h-208q-4 9 -4 23z" />
    <glyph glyph-name="tcaron" unicode="&#x165;" horiz-adv-x="359" 
d="M293 588q-18 3 -25 17q63 50 66 144q32 3 47 -10q-5 -46 -28.5 -89t-59.5 -62zM165 484v-308q0 -76 24.5 -109t86.5 -33l54 5q5 -8 5 -22l-3 -19q-40 -8 -68 -8q-82 0 -115.5 46t-33.5 139v309h-80q-4 6 -4 21l4 21h80v99q22 15 50 12v-111h153q5 -7 5 -21l-5 -21h-153z
" />
    <glyph glyph-name="Tbar" unicode="&#x166;" horiz-adv-x="547" 
d="M302 363h131q5 -19 0 -38h-131v-321q-8 -4 -26 -4l-26 4v321h-132q-5 20 0 38h132v311h-208q-4 9 -4 23l4 23h463q4 -8 4 -23l-4 -23h-203v-311z" />
    <glyph glyph-name="tbar" unicode="&#x167;" horiz-adv-x="361" 
d="M278 34l54 5q5 -8 5 -22l-3 -19q-40 -8 -68 -8q-82 0 -115.5 46t-33.5 139v90h-67q-5 20 0 37h67v182h-80q-4 6 -4 21l4 21h80v99q22 15 50 12v-111h153q5 -7 5 -21l-5 -21h-153v-182h126q5 -18 0 -37h-126v-89q0 -76 24.5 -109t86.5 -33z" />
    <glyph glyph-name="Utilde" unicode="&#x168;" horiz-adv-x="667" 
d="M393 821q13 0 23.5 6.5t14.5 13.5l4 7q19 -6 24 -24q-2 -5 -6.5 -11.5t-22.5 -18t-42 -11.5q-25 0 -57.5 17.5t-50.5 17.5q-13 0 -23.5 -7t-14.5 -15l-5 -7q-19 8 -24 24q2 5 6.5 12t23.5 19t43 12q26 0 57.5 -17.5t49.5 -17.5zM570 716v-488q0 -113 -64.5 -175.5
t-172.5 -62.5t-172 63t-64 175v488q9 4 26 4l27 -4v-495q0 -88 48.5 -137t136.5 -49q87 0 135.5 49t48.5 137v495q8 4 25 4z" />
    <glyph glyph-name="utilde" unicode="&#x169;" 
d="M150 670q2 5 7 12.5t24 20t43 12.5q27 0 59 -17.5t49 -17.5q13 0 24 7.5t16 14.5l5 8q20 -7 24 -25q-2 -5 -7 -12.5t-24 -19.5t-43 -12q-27 0 -59 17.5t-49 17.5q-13 0 -24 -8t-16 -16l-5 -7q-21 7 -24 25zM412 522q8 4 25 4l25 -4v-518q-8 -4 -25 -4l-25 4v77
q-67 -91 -178 -91q-71 0 -111.5 40.5t-40.5 108.5v383q8 4 25 4l25 -4v-372q0 -117 120 -117q48 0 92 30t68 83v376z" />
    <glyph glyph-name="Umacron" unicode="&#x16a;" horiz-adv-x="667" 
d="M473 790h-274q-8 21 0 40h274q9 -19 0 -40zM570 716v-488q0 -113 -64.5 -175.5t-172.5 -62.5t-172 63t-64 175v488q9 4 26 4l27 -4v-495q0 -88 48.5 -137t136.5 -49q87 0 135.5 49t48.5 137v495q8 4 25 4z" />
    <glyph glyph-name="umacron" unicode="&#x16b;" 
d="M162 699h225q8 -16 0 -37h-225q-6 19 0 37zM412 522q8 4 25 4l25 -4v-518q-8 -4 -25 -4l-25 4v77q-67 -91 -178 -91q-71 0 -111.5 40.5t-40.5 108.5v383q8 4 25 4l25 -4v-372q0 -117 120 -117q48 0 92 30t68 83v376z" />
    <glyph glyph-name="Ubreve" unicode="&#x16c;" horiz-adv-x="667" 
d="M471 839q-5 -6 -15.5 -15t-47 -24t-77.5 -15t-76 13.5t-49 27.5l-14 13q5 19 25 26q45 -39 114 -39q31 0 59.5 10t41.5 20l13 9q20 -6 26 -26zM570 716v-488q0 -113 -64.5 -175.5t-172.5 -62.5t-172 63t-64 175v488q9 4 26 4l27 -4v-495q0 -88 48.5 -137t136.5 -49
q87 0 135.5 49t48.5 137v495q8 4 25 4z" />
    <glyph glyph-name="ubreve" unicode="&#x16d;" 
d="M273 675q30 0 57.5 10t39.5 20l13 10q20 -5 25 -27q-5 -6 -15 -15.5t-45 -25t-75 -15.5t-74 14t-48 28l-14 14q6 20 25 27q44 -40 111 -40zM412 522q8 4 25 4l25 -4v-518q-8 -4 -25 -4l-25 4v77q-67 -91 -178 -91q-71 0 -111.5 40.5t-40.5 108.5v383q8 4 25 4l25 -4v-372
q0 -117 120 -117q48 0 92 30t68 83v376z" />
    <glyph glyph-name="Uring" unicode="&#x16e;" horiz-adv-x="667" 
d="M334 767q-50 0 -81.5 29t-31.5 79q0 49 33.5 77.5t80.5 28.5q46 0 80.5 -28t34.5 -78t-33.5 -79t-82.5 -29zM411 875q0 30 -20 50.5t-57 20.5q-36 0 -55 -21t-19 -50q0 -30 19 -51t55 -21q37 0 57 21.5t20 50.5zM570 716v-488q0 -113 -64.5 -175.5t-172.5 -62.5t-172 63
t-64 175v488q9 4 26 4l27 -4v-495q0 -88 48.5 -137t136.5 -49q87 0 135.5 49t48.5 137v495q8 4 25 4z" />
    <glyph glyph-name="uring" unicode="&#x16f;" 
d="M159 701q0 49 33.5 77.5t80.5 28.5q46 0 80.5 -28t34.5 -78t-33.5 -79t-82.5 -29q-50 0 -81.5 29t-31.5 79zM349 701q0 30 -20 50.5t-57 20.5q-36 0 -55 -21t-19 -50q0 -30 19 -51t55 -21q37 0 57 21.5t20 50.5zM412 522q8 4 25 4l25 -4v-518q-8 -4 -25 -4l-25 4v77
q-67 -91 -178 -91q-71 0 -111.5 40.5t-40.5 108.5v383q8 4 25 4l25 -4v-372q0 -117 120 -117q48 0 92 30t68 83v376z" />
    <glyph glyph-name="Uhungarumlaut" unicode="&#x170;" horiz-adv-x="667" 
d="M372 896l-116 -133q-22 3 -31 19l97 137q32 2 50 -23zM521 896l-116 -133q-23 3 -32 19l98 137q31 2 50 -23zM570 716v-488q0 -113 -64.5 -175.5t-172.5 -62.5t-172 63t-64 175v488q9 4 26 4l27 -4v-495q0 -88 48.5 -137t136.5 -49q87 0 135.5 49t48.5 137v495q8 4 25 4z
" />
    <glyph glyph-name="uhungarumlaut" unicode="&#x171;" 
d="M309 740l-116 -132q-21 1 -30 17l98 135q31 2 48 -20zM451 740l-115 -132q-22 2 -31 17l98 135q30 2 48 -20zM82 139v383q8 4 25 4l25 -4v-372q0 -117 120 -117q48 0 92 30t68 83v376q8 4 25 4l25 -4v-518q-8 -4 -25 -4l-25 4v77q-67 -91 -178 -91q-71 0 -111.5 40.5
t-40.5 108.5z" />
    <glyph glyph-name="Uogonek" unicode="&#x172;" horiz-adv-x="667" 
d="M519 716q8 4 25 4l26 -4v-488q0 -84 -36.5 -141t-102.5 -81q-67 -27 -67 -84q0 -24 14.5 -37t39.5 -13q10 0 20 2t14 4l5 3q11 -8 11 -28q-23 -17 -60 -17q-40 0 -63 22.5t-23 58.5q0 44 35 74l-24 -1q-108 0 -172 63t-64 175v488q9 4 26 4l27 -4v-495q0 -88 48.5 -137
t136.5 -49q87 0 135.5 49t48.5 137v495z" />
    <glyph glyph-name="uogonek" unicode="&#x173;" 
d="M412 522q8 4 25 4l25 -4v-519q-33 -12 -60.5 -41t-27.5 -64q0 -39 49 -39q10 0 20 2.5t15 4.5l4 2q11 -9 11 -28q-23 -17 -60 -17q-39 0 -60 19t-21 50q0 36 23 67t57 51v71q-67 -91 -178 -91q-71 0 -111.5 40.5t-40.5 108.5v383q8 4 25 4l25 -4v-372q0 -117 120 -117
q48 0 92 30t68 83v376z" />
    <glyph glyph-name="Wcircumflex" unicode="&#x174;" horiz-adv-x="949" 
d="M494 899l127 -104q-7 -23 -24 -27l-117 85l-115 -86q-19 7 -25 28l128 104h26zM659 4l-160 545q-8 30 -13 55.5t-6 35.5l-1 10h-3q-2 -33 -20 -101l-160 -545q-16 -4 -28 -4q-10 0 -26 4l-212 712q8 4 26 4l27 -4l163 -546q8 -25 14 -51t8 -39l2 -13h3q4 45 21 103
l160 546q7 4 25 4l25 -4l160 -546q7 -26 12 -52t6 -38l2 -13h2q5 43 23 103l156 546q8 4 25 4l25 -4l-204 -712q-9 -4 -26 -4z" />
    <glyph glyph-name="wcircumflex" unicode="&#x175;" horiz-adv-x="794" 
d="M412 731l125 -103q-8 -21 -24 -25l-113 83l-113 -84q-18 7 -24 26l124 103h25zM544 4l-111 334q-29 90 -33 125h-3q-4 -32 -36 -125l-111 -334q-16 -4 -24 -4q-6 0 -26 4l-167 518q9 4 26 4l24 -4l122 -374q13 -42 20 -85h3q6 38 22 85l124 374q9 4 25 4l25 -4l124 -372
q11 -36 20 -87h3q6 34 22 86l121 373q8 4 23 4l24 -4l-167 -518q-20 -4 -25 -4t-25 4z" />
    <glyph glyph-name="Ycircumflex" unicode="&#x176;" horiz-adv-x="620" 
d="M331 899l127 -104q-7 -23 -25 -27l-116 85l-115 -86q-19 7 -25 28l128 104h26zM540 716q9 4 28 4l31 -4l-264 -412v-300q-9 -4 -26 -4l-26 4v299l-257 413q11 4 32 4l30 -4l223 -357z" />
    <glyph glyph-name="ycircumflex" unicode="&#x177;" horiz-adv-x="523" 
d="M272 731l125 -103q-8 -21 -24 -25l-113 83l-113 -84q-18 7 -24 26l124 103h25zM492 522l-226 -635q-25 -71 -54 -104t-82 -33q-13 0 -25 2t-18 4l-6 1q-4 12 -4 20q0 15 5 22q18 -5 43 -5q31 0 52 22.5t42 82.5l37 102q-12 2 -18 5l-209 516q10 4 28 4l27 -4l152 -373
l35 -99h4q12 42 32 99l133 373q7 4 26 4z" />
    <glyph glyph-name="Ydieresis" unicode="&#x178;" horiz-adv-x="620" 
d="M206 840q10 3 30 3l30 -3v-53q-10 -4 -30 -4l-30 4v53zM355 840q10 3 30 3l30 -3v-53q-10 -4 -30 -4l-30 4v53zM540 716q9 4 28 4l31 -4l-264 -412v-300q-9 -4 -26 -4l-26 4v299l-257 413q11 4 32 4l30 -4l223 -357z" />
    <glyph glyph-name="Zacute" unicode="&#x179;" horiz-adv-x="580" 
d="M242 785l104 139q31 2 47 -23l-118 -135q-24 3 -33 19zM72 720h445q4 -12 4 -23q0 -9 -4 -25l-412 -624h425q4 -12 4 -24q0 -8 -4 -24h-485q-4 16 -4 24t4 24l412 624h-385q-4 16 -4 25q0 11 4 23z" />
    <glyph glyph-name="zacute" unicode="&#x17a;" horiz-adv-x="454" 
d="M342 752l-125 -144q-23 3 -33 19l111 148q31 2 47 -23zM102 44h299q4 -6 4 -22l-4 -22h-355q-4 12 -4 23q0 9 4 21l297 438h-274q-4 7 -4 22l4 22h329q4 -12 4 -21q0 -11 -4 -23z" />
    <glyph glyph-name="Zdotaccent" unicode="&#x17b;" horiz-adv-x="580" 
d="M261 842q9 4 30 4l30 -4v-54q-10 -4 -30 -4l-30 4v54zM72 720h445q4 -12 4 -23q0 -9 -4 -25l-412 -624h425q4 -12 4 -24q0 -8 -4 -24h-485q-4 16 -4 24t4 24l412 624h-385q-4 16 -4 25q0 11 4 23z" />
    <glyph glyph-name="zdotaccent" unicode="&#x17c;" horiz-adv-x="454" 
d="M268 709v-54q-10 -4 -30 -4l-30 4v54q9 4 30 4zM102 44h299q4 -6 4 -22l-4 -22h-355q-4 12 -4 23q0 9 4 21l297 438h-274q-4 7 -4 22l4 22h329q4 -12 4 -21q0 -11 -4 -23z" />
    <glyph glyph-name="Zcaron" unicode="&#x17d;" horiz-adv-x="580" 
d="M295 813l115 85q17 -4 24 -27l-127 -104h-26l-128 104q6 21 25 28zM72 720h445q4 -12 4 -23q0 -9 -4 -25l-412 -624h425q4 -12 4 -24q0 -8 -4 -24h-485q-4 16 -4 24t4 24l412 624h-385q-4 16 -4 25q0 11 4 23z" />
    <glyph glyph-name="zcaron" unicode="&#x17e;" horiz-adv-x="455" 
d="M225 602l-116 94q7 20 23 25l105 -77l104 76q15 -3 22 -24l-115 -94h-23zM102 44h299q4 -6 4 -22l-4 -22h-355q-4 12 -4 23q0 9 4 21l297 438h-274q-4 7 -4 22l4 22h329q4 -12 4 -21q0 -11 -4 -23z" />
    <glyph glyph-name="longs" unicode="&#x17f;" horiz-adv-x="267" 
d="M161 591v-587q-7 -4 -25 -4l-25 4v480h-74q-5 21 0 42h74v60q0 80 33 122t118 42q24 0 48 -3.5t36 -6.5l11 -4q2 -24 -14 -40q-31 11 -75 11q-62 0 -84.5 -28t-22.5 -88z" />
    <glyph glyph-name="florin" unicode="&#x192;" horiz-adv-x="434" 
d="M230 414l-40 -402q-8 -80 -42 -116.5t-100 -36.5q-21 0 -42.5 4.5t-32.5 9.5l-11 5q-2 23 13 35q34 -11 70 -11q42 0 66 24.5t30 83.5l40 404h-95q-4 7 -4 21l4 19h99l8 83q8 81 41 117.5t99 36.5q23 0 45 -4.5t32 -8.5l10 -4q0 -21 -13 -35q-34 11 -72 11q-43 0 -65 -25
t-28 -86l-8 -85h99q4 -7 4 -20l-4 -20h-103z" />
    <glyph glyph-name="Aringacute" unicode="&#x1fa;" horiz-adv-x="643" 
d="M437 1035l-117 -106q-20 1 -30 13l103 110q30 2 44 -17zM355 696l267 -692q-9 -4 -28 -4l-27 4l-79 204h-337l-80 -204q-8 -4 -27 -4l-24 4l266 691q-36 7 -58.5 33.5t-22.5 67.5q0 49 34 77.5t81 28.5q46 0 80.5 -28t34.5 -78q0 -39 -22.5 -65t-57.5 -35zM396 796
q0 30 -20.5 50.5t-56.5 20.5t-55.5 -21t-19.5 -50t19.5 -50.5t55.5 -21.5t56.5 21.5t20.5 50.5zM471 254l-134 347l-16 52h-2q-5 -21 -16 -52l-136 -347h304z" />
    <glyph glyph-name="aringacute" unicode="&#x1fb;" horiz-adv-x="512" 
d="M199 820l103 110q30 2 44 -17l-117 -106q-20 1 -30 13zM147 680q0 46 32.5 72t77.5 26t78 -26t33 -72t-32 -72.5t-80 -26.5t-78.5 26t-30.5 73zM329 680q0 27 -19 46t-54 19q-33 0 -51.5 -19.5t-18.5 -45.5t18.5 -45.5t51.5 -19.5q35 0 54 19.5t19 45.5zM90 505
q77 31 166 31q102 0 138 -49.5t36 -158.5v-324q-6 -4 -20 -4l-21 4l-8 84q-47 -98 -176 -98q-70 0 -112.5 41t-42.5 114q0 154 186 154q75 0 144 -9v68q0 71 -31.5 102.5t-98.5 31.5q-34 0 -70 -6.5t-55 -13.5l-19 -6q-8 6 -13 16q-6 13 -3 23zM380 251q-99 9 -136 9
q-141 0 -141 -115q0 -56 30.5 -84t84.5 -28q72 0 117 48t45 126v44z" />
    <glyph glyph-name="AEacute" unicode="&#x1fc;" horiz-adv-x="853" 
d="M707 901l-125 -144q-23 3 -33 19l111 148q31 2 47 -23zM68 4q-16 -4 -28 -4q-20 0 -28 4l433 716h344q11 -23 0 -46h-287v-286h237q10 -25 0 -46h-237v-296h297q10 -23 0 -46h-347v198h-268zM452 642l-240 -398h240v398z" />
    <glyph glyph-name="aeacute" unicode="&#x1fd;" horiz-adv-x="778" 
d="M480 752l-125 -144q-23 3 -33 19l111 148q31 2 47 -23zM397 433q43 103 156 103q83 0 126.5 -51t43.5 -137q0 -24 -2.5 -47t-5.5 -35l-3 -11h-300q10 -220 149 -220q33 0 62 9t41 18l13 9q18 -12 20 -36q-5 -5 -15.5 -12.5t-47.5 -20t-80 -12.5q-65 0 -108 34.5t-60 95.5
q-16 -60 -64 -95t-122 -35q-70 0 -110 41t-40 114q0 151 178 151h133v64q0 71 -28.5 101.5t-91.5 30.5q-32 0 -66 -6.5t-51 -13.5l-18 -6q-16 14 -16 39q72 31 157 31q123 0 150 -103zM672 354q0 61 -28.5 100t-90.5 39q-61 0 -99 -47.5t-42 -149.5h255q5 18 5 58zM361 255
h-125q-70 0 -101.5 -26t-31.5 -84q0 -56 27.5 -84t77.5 -28q69 0 111 45.5t42 127.5v49z" />
    <glyph glyph-name="Oslashacute" unicode="&#x1fe;" horiz-adv-x="680" 
d="M441 900l-135 -134q-23 4 -31 21l120 140q32 -2 46 -27zM575 762l-55 -100q90 -90 90 -302q0 -370 -270 -370q-101 0 -164 54l-49 -87q-8 -4 -25 -4l-24 4l66 119q-74 92 -74 284q0 188 70.5 279t199.5 91q86 0 145 -40l40 72q9 5 25 5q8 0 14.5 -1.5t8.5 -2.5zM340 685
q-103 0 -158.5 -76.5t-55.5 -248.5q0 -151 47 -231l288 519q-47 37 -121 37zM200 88q52 -53 140 -53q214 0 214 325q0 174 -61 254z" />
    <glyph glyph-name="oslashacute" unicode="&#x1ff;" horiz-adv-x="540" 
d="M352 752l-125 -144q-23 3 -33 19l111 148q31 2 47 -23zM388 504l38 66q22 -3 36 -19l-42 -74q58 -66 58 -214q0 -144 -53 -208.5t-155 -64.5q-66 0 -111 27l-34 -61q-23 5 -35 20l37 65q-65 65 -65 222q0 144 53 208.5t155 64.5q73 0 118 -32zM366 464q-37 30 -96 30
q-77 0 -116.5 -52.5t-39.5 -178.5q0 -119 41 -173zM391 428l-209 -372q34 -24 88 -24q77 0 116.5 52.5t39.5 178.5q0 109 -35 165z" />
    <glyph glyph-name="Scommaaccent" unicode="&#x218;" horiz-adv-x="561" 
d="M301 684q-92 0 -138 -38t-46 -107q0 -25 5.5 -44.5t21 -34.5t27 -24t40 -19.5t42.5 -15t51 -14.5t60.5 -18.5t53 -24.5t46.5 -35.5t29 -50.5t12 -71q0 -93 -62.5 -145t-175.5 -52q-55 0 -105.5 9.5t-73.5 18.5l-24 10q-2 27 14 43q89 -32 184 -32q91 0 140 37.5t49 109.5
q0 37 -13 63.5t-42 44t-52.5 26t-67.5 21.5q-42 12 -63.5 19t-55 23t-50.5 34t-30 49t-13 70q0 90 60 142t170 52q50 0 96 -6t67 -12l21 -7q2 -28 -14 -42q-75 21 -163 21zM263 -223l-22 16q29 30 34 87l-22 4v56q11 4 32 4l31 -4v-40q0 -23 -5.5 -44t-13 -34.5t-15.5 -24
t-14 -15.5z" />
    <glyph glyph-name="scommaaccent" unicode="&#x219;" horiz-adv-x="443" 
d="M59 388q0 68 45 108t132 40q36 0 68.5 -6t47.5 -12l14 -5q2 -26 -15 -39q-49 18 -110 18q-131 0 -131 -102q0 -41 31.5 -62t90.5 -37q32 -9 46.5 -14t41 -18t39 -27t23 -38t10.5 -55q0 -70 -45 -109.5t-133 -39.5q-43 0 -82 8t-56 16l-17 8q-2 25 14 39q65 -26 137 -26
q59 0 94.5 25t35.5 77q0 18 -4 32.5t-16.5 26t-20 17.5t-30 14t-29 10t-34.5 10q-32 9 -53.5 18t-45.5 25t-36 40.5t-12 57.5zM202 -243l-21 16q29 30 34 87l-23 4v56q11 4 32 4l32 -4v-41q0 -36 -13.5 -66.5t-26.5 -42.5z" />
    <glyph glyph-name="dotlessj" unicode="&#x237;" horiz-adv-x="228" 
d="M89 -92v614q6 4 25 4l25 -4v-610q0 -81 -35 -121.5t-100 -40.5q-19 0 -33.5 2t-20.5 4l-5 3q-2 5 -2 12q0 8 1.5 14.5t3.5 8.5l1 3q16 -4 43 -4q50 0 73.5 27t23.5 88z" />
    <glyph glyph-name="circumflex" unicode="&#x2c6;" horiz-adv-x="396" 
d="M211 693l127 -105q-7 -22 -24 -26l-117 85l-115 -86q-19 7 -25 27l128 105h26z" />
    <glyph glyph-name="caron" unicode="&#x2c7;" horiz-adv-x="404" 
d="M185 550l-128 104q6 21 25 28l117 -86l115 85q17 -4 24 -27l-127 -104h-26z" />
    <glyph glyph-name="breve" unicode="&#x2d8;" horiz-adv-x="324" 
d="M295 678q-5 -6 -15 -15.5t-45 -25t-75 -15.5t-73.5 14t-47.5 28l-14 14q6 20 24 27q44 -40 111 -40q30 0 57.5 10t40.5 20l13 10q19 -6 24 -27z" />
    <glyph glyph-name="dotaccent" unicode="&#x2d9;" horiz-adv-x="176" 
d="M117 661v-54q-10 -4 -30 -4l-30 4v54q9 4 30 4z" />
    <glyph glyph-name="ring" unicode="&#x2da;" horiz-adv-x="344" 
d="M170 507q-50 0 -81.5 29t-31.5 79q0 49 33.5 77.5t80.5 28.5q46 0 80.5 -28t34.5 -78t-33.5 -79t-82.5 -29zM247 615q0 30 -20 50.5t-57 20.5q-36 0 -55 -21t-19 -50q0 -30 19 -51t55 -21q37 0 57 21.5t20 50.5z" />
    <glyph glyph-name="ogonek" unicode="&#x2db;" horiz-adv-x="283" 
d="M163 -169q11 -8 11 -26q-23 -17 -60 -17q-40 0 -63 21.5t-23 57.5q0 51 40.5 83t104.5 37l2 -20q-45 -9 -75 -32.5t-30 -62.5q0 -24 14.5 -37t39.5 -13q10 0 20 2t14 4z" />
    <glyph glyph-name="tilde" unicode="&#x2dc;" horiz-adv-x="327" 
d="M230 657q13 0 24 7.5t16 15.5l5 7q20 -7 23 -25l-2.5 -5t-7.5 -10.5t-14 -13.5t-21 -11t-28 -5q-27 0 -59 17.5t-49 17.5q-13 0 -24 -7.5t-15 -14.5l-5 -8q-22 8 -25 24q2 5 7 12.5t24 20.5t43 13q27 0 59 -17.5t49 -17.5z" />
    <glyph glyph-name="hungarumlaut" unicode="&#x2dd;" horiz-adv-x="386" 
d="M186 785l-125 -144q-23 3 -33 19l106 148q33 2 52 -23zM339 785l-125 -144q-22 3 -33 19l107 148q33 2 51 -23z" />
    <glyph glyph-name="pi" unicode="&#x3c0;" horiz-adv-x="602" 
d="M185 526h376q4 -8 4 -22t-4 -22h-73v-246q0 -75 8.5 -131t17.5 -74l9 -18q-11 -13 -37 -13q-12 0 -16 2q-4 6 -9.5 20.5t-14.5 74.5t-9 139v246h-277v-478q-7 -4 -25 -4l-25 4v476l-70 -9q-4 8 -4 22t4 21q41 12 145 12z" />
    <glyph glyph-name="uni0401" unicode="&#x401;" horiz-adv-x="556" 
d="M201 857q10 4 30 4l30 -4v-53q-10 -4 -30 -4l-30 4v53zM350 857q10 4 30 4l30 -4v-53q-10 -4 -30 -4l-30 4v53zM102 720h391q4 -12 4 -22t-4 -24h-339v-286h289q4 -14 4 -22q0 -9 -4 -23h-289v-297h349q4 -14 4 -22q0 -10 -4 -24h-401v720z" />
    <glyph glyph-name="uni0410" unicode="&#x410;" horiz-adv-x="642" 
d="M295 716q9 4 26 4l26 -4l275 -712q-9 -4 -28 -4l-27 4l-79 204h-337l-80 -204q-8 -4 -27 -4l-24 4zM321 653h-2q-5 -21 -16 -52l-136 -347h304l-134 347z" />
    <glyph glyph-name="uni0411" unicode="&#x411;" horiz-adv-x="611" 
d="M102 720h383q5 -9 5 -24l-5 -23h-331v-268h203q93 0 147.5 -54.5t54.5 -146.5q0 -93 -54.5 -148.5t-147.5 -55.5h-255v720zM154 361v-317h195q74 0 115 43t41 116q0 74 -40.5 116t-115.5 42h-195z" />
    <glyph glyph-name="uni0412" unicode="&#x412;" horiz-adv-x="626" 
d="M102 720h242q101 0 147.5 -52.5t46.5 -136.5q0 -114 -91 -165l7 -2q7 -3 12.5 -6t15.5 -8.5t18 -12.5t17.5 -16.5t17 -22.5t13.5 -28t9.5 -35t3.5 -42q0 -90 -52.5 -141.5t-160.5 -51.5h-246v720zM154 386h180q150 0 150 145q0 70 -35 107t-117 37h-178v-289zM154 45h188
q88 0 126 37.5t38 110.5q0 77 -40 113t-125 36h-187v-297z" />
    <glyph glyph-name="uni0413" unicode="&#x413;" horiz-adv-x="496" 
d="M102 720h364q4 -9 4 -23l-4 -24h-312v-669q-9 -4 -26 -4l-26 4v716z" />
    <glyph glyph-name="uni0414" unicode="&#x414;" horiz-adv-x="676" 
d="M551 46h78v-184q-12 -4 -24 -4q-9 0 -25 4v138h-511v-138q-16 -4 -25 -4q-12 0 -24 4v184h61q62 78 81 321l27 353h362v-674zM235 677l-23 -316q-16 -229 -72 -315h359v631h-264z" />
    <glyph glyph-name="uni0415" unicode="&#x415;" horiz-adv-x="556" 
d="M102 720h391q4 -12 4 -22q0 -15 -4 -24h-339v-286h289q4 -12 4 -22q0 -14 -4 -23h-289v-297h349q4 -14 4 -22q0 -15 -4 -24h-401v720z" />
    <glyph glyph-name="uni0416" unicode="&#x416;" horiz-adv-x="943" 
d="M835 716q12 4 28 4q15 0 27 -4l-213 -334l244 -378q-11 -4 -31 -4l-33 4l-224 347h-135v-347q-8 -4 -26 -4l-26 4v347h-140l-223 -347q-11 -4 -31 -4l-29 4l242 376l-213 336q16 4 28 4q16 0 28 -4l203 -320h135v320q9 4 26 4l26 -4v-320h133z" />
    <glyph glyph-name="uni0417" unicode="&#x417;" horiz-adv-x="546" 
d="M55 697q74 33 180 33q110 0 166.5 -50t56.5 -136q0 -44 -13 -78.5t-33.5 -53t-36.5 -28t-30 -13.5v-2q17 -4 35.5 -13.5t43 -29.5t40 -57t15.5 -85q0 -88 -60.5 -141t-193.5 -53q-50 0 -95 7.5t-66 14.5l-20 8q-2 28 16 41q77 -24 159 -24q107 0 156.5 40t49.5 109
q0 159 -203 159h-54q-12 24 0 46h54q182 0 182 150q0 67 -44.5 104.5t-129.5 37.5q-40 0 -79.5 -6.5t-58.5 -12.5l-19 -7q-21 13 -18 40z" />
    <glyph glyph-name="uni0418" unicode="&#x418;" horiz-adv-x="686" 
d="M524 716q9 4 30 4l30 -4v-712q-8 -4 -26 -4l-26 4v484q0 54 1 94.5t3 53.5l1 13h-3q-13 -37 -58 -116l-312 -529h-2q-1 -1 -4 -1.5t-6.5 -1t-8.5 -1t-11 -0.5l-30 4v712q9 4 26 4l27 -4v-490l-5 -157h2q11 36 62 124z" />
    <glyph glyph-name="uni0419" unicode="&#x419;" horiz-adv-x="686" 
d="M355 868q30 0 60.5 10t46.5 20l15 9q19 -7 25 -29q-6 -6 -18 -15t-50 -24.5t-79 -15.5t-78 13.5t-54 27.5l-17 14q8 21 26 29q54 -39 123 -39zM524 716q9 4 30 4l30 -4v-712q-8 -4 -26 -4l-26 4v484q0 54 1 94.5t3 53.5l1 13h-3q-13 -37 -58 -116l-312 -529h-2
q-1 -1 -4 -1.5t-6.5 -1t-8.5 -1t-11 -0.5l-30 4v712q9 4 26 4l27 -4v-490l-5 -157h2q11 36 62 124z" />
    <glyph glyph-name="uni041A" unicode="&#x41a;" horiz-adv-x="610" 
d="M279 397l224 319q12 4 28 4q12 0 28 -4l-236 -337l265 -375q-10 -4 -30 -4l-32 4l-246 347h-126v-347q-8 -4 -26 -4l-26 4v712q9 4 27 4l25 -4v-319h125z" />
    <glyph glyph-name="uni041B" unicode="&#x41b;" horiz-adv-x="657" 
d="M56 -6q-15 0 -33 6q-4 12 -4 20q0 9 4 21q3 0 11 -0.5t13 -0.5q15 0 26 4t28 24t29 55.5t24.5 105t19.5 166.5l25 325h356v-716q-9 -4 -26 -4q-5 0 -9.5 0.5t-7.5 1t-5.5 1t-2.5 1.5h-1v671h-258l-21 -282q-8 -106 -22.5 -182.5t-30.5 -117.5t-37.5 -64.5t-38.5 -29
t-39 -5.5z" />
    <glyph glyph-name="uni041C" unicode="&#x41c;" horiz-adv-x="842" 
d="M671 716q20 4 34 4l35 -4v-712q-8 -4 -26 -4l-26 4v507q0 108 5 148h-3q-7 -27 -51 -105l-205 -356q-8 -4 -20 -4l-20 4q-38 70 -112 202.5t-85 152.5q-42 75 -50 106h-3q7 -33 7 -152v-503q-7 -4 -24 -4l-25 4v712q13 4 33 4l33 -4l206 -372q26 -47 40 -81h2q9 23 32 63
q41 70 115.5 201.5t107.5 188.5z" />
    <glyph glyph-name="uni041D" unicode="&#x41d;" horiz-adv-x="676" 
d="M522 393v323q9 4 26 4l26 -4v-712q-8 -4 -26 -4l-26 4v341h-368v-341q-9 -4 -26 -4l-26 4v712q9 4 26 4l26 -4v-323h368z" />
    <glyph glyph-name="uni041E" unicode="&#x41e;" horiz-adv-x="680" 
d="M70 360q0 188 70.5 279t199.5 91t199.5 -90.5t70.5 -279.5q0 -370 -270 -370t-270 370zM554 360q0 172 -55.5 248.5t-158.5 76.5t-158.5 -76.5t-55.5 -248.5q0 -325 214 -325t214 325z" />
    <glyph glyph-name="uni041F" unicode="&#x41f;" horiz-adv-x="664" 
d="M562 720v-716q-9 -4 -25 -4l-27 4v669h-355v-669q-10 -4 -27 -4l-26 4v716h460z" />
    <glyph glyph-name="uni0420" unicode="&#x420;" horiz-adv-x="599" 
d="M154 301v-297q-8 -4 -25 -4l-27 4v716h247q93 0 146.5 -57.5t53.5 -152.5q0 -94 -53.5 -151.5t-146.5 -57.5h-195zM154 348h193q70 0 108.5 43t38.5 118q0 78 -38.5 121.5t-108.5 43.5h-193v-326z" />
    <glyph glyph-name="uni0421" unicode="&#x421;" horiz-adv-x="558" 
d="M70 360q0 370 270 370q48 0 90 -8t60 -16l17 -9q0 -23 -17 -40q-58 27 -143 27q-108 0 -165 -73.5t-57 -251.5q0 -92 15.5 -156t45.5 -99.5t69 -51t92 -15.5q41 0 79.5 6.5t56.5 13.5l18 7q15 -14 17 -41q-60 -33 -178 -33q-270 0 -270 370z" />
    <glyph glyph-name="uni0422" unicode="&#x422;" horiz-adv-x="533" 
d="M35 720h463q4 -8 4 -23l-4 -23h-203v-670q-8 -4 -26 -4l-26 4v670h-208q-4 9 -4 23z" />
    <glyph glyph-name="uni0423" unicode="&#x423;" horiz-adv-x="607" 
d="M529 716q8 4 26 4l27 -4l-204 -523q-46 -118 -89.5 -155.5t-106.5 -37.5q-15 0 -28.5 2t-19.5 4l-6 1q-4 8 -4 23t4 21q23 -4 41 -4q47 0 77.5 19t60.5 87h-13l-270 563q9 4 29 4l29 -4l221 -460q6 -14 14 -33.5t9 -22.5h2q2 4 9 24t13 35z" />
    <glyph glyph-name="uni0424" unicode="&#x424;" horiz-adv-x="792" 
d="M369 649v77q9 4 26 4l26 -4v-77q70 0 125 -13t100 -43t69 -84.5t24 -132.5q0 -63 -16.5 -110.5t-44.5 -78.5t-69 -50t-86.5 -27t-101.5 -8v-98q-10 -4 -26 -4l-26 4v98q-70 0 -124.5 13t-99 43t-68.5 85t-24 133t24 132.5t68.5 84.5t99 43t124.5 13zM369 146v460
q-61 0 -106 -10.5t-81.5 -35.5t-55.5 -71t-19 -113q0 -129 68 -179.5t194 -50.5zM421 606v-460q126 0 194.5 50.5t68.5 179.5t-68 179.5t-195 50.5z" />
    <glyph glyph-name="uni0425" unicode="&#x425;" horiz-adv-x="599" 
d="M498 716q16 4 30 4t30 -4l-225 -344l236 -367q-11 -5 -32 -5l-31 4l-211 328l-205 -328q-16 -4 -30 -4t-30 4l230 366l-220 346q10 4 32 4l30 -4l196 -308z" />
    <glyph glyph-name="uni0426" unicode="&#x426;" horiz-adv-x="695" 
d="M102 0v716q8 4 26 4l26 -4v-669h364v669q8 4 26 4l26 -4v-669h77v-185q-9 -4 -25 -4q-15 0 -24 4v138h-496z" />
    <glyph glyph-name="uni0427" unicode="&#x427;" horiz-adv-x="631" 
d="M477 385v331q9 4 26 4l26 -4v-712q-9 -4 -26 -4l-26 4v332q-108 -36 -196 -36q-107 0 -163 51.5t-56 177.5v187q8 4 25 4l27 -4v-187q0 -102 41.5 -142t136.5 -40q21 0 42.5 2t39 5.5t33 7t28 7.5t21 7.5t14.5 5.5z" />
    <glyph glyph-name="uni0428" unicode="&#x428;" horiz-adv-x="955" 
d="M102 0v716q8 4 26 4l26 -4v-669h297v669q6 4 27 4l26 -4v-669h297v669q7 4 26 4l26 -4v-716h-751z" />
    <glyph glyph-name="uni0429" unicode="&#x429;" horiz-adv-x="978" 
d="M102 0v716q8 4 26 4l26 -4v-669h297v669q9 4 27 4l26 -4v-669h297v669q8 4 26 4l26 -4v-669h77v-185q-9 -4 -24 -4q-14 0 -25 4v138h-779z" />
    <glyph glyph-name="uni042A" unicode="&#x42a;" horiz-adv-x="693" 
d="M237 406h202q94 0 149 -54.5t55 -146.5q0 -93 -55.5 -149t-148.5 -56h-254v673h-154q-4 9 -4 23l4 24h206v-314zM237 360v-314h196q74 0 114.5 42.5t40.5 115.5t-40.5 114.5t-114.5 41.5h-196z" />
    <glyph glyph-name="uni042B" unicode="&#x42b;" horiz-adv-x="859" 
d="M102 716q8 4 27 4l25 -4v-310h202q94 0 149 -54.5t55 -146.5q0 -93 -55.5 -149t-148.5 -56h-254v716zM705 716q8 4 26 4l26 -4v-712q-8 -4 -26 -4l-26 4v712zM154 360v-314h196q74 0 114.5 42.5t40.5 115.5t-40.5 114.5t-114.5 41.5h-196z" />
    <glyph glyph-name="uni042C" unicode="&#x42c;" horiz-adv-x="610" 
d="M154 406h202q94 0 149 -54.5t55 -146.5q0 -93 -55.5 -149t-148.5 -56h-254v716q8 4 27 4l25 -4v-310zM154 46h196q74 0 114.5 42.5t40.5 115.5t-40.5 114.5t-114.5 41.5h-196v-314z" />
    <glyph glyph-name="uni042D" unicode="&#x42d;" horiz-adv-x="581" 
d="M54 697q63 33 177 33q280 0 280 -370t-280 -370q-55 0 -102 8t-67 16l-19 9q2 26 17 40q66 -26 164 -26q110 0 169.5 68.5t62.5 237.5h-285q-4 9 -4 23l4 23h284q-5 161 -64.5 228t-166.5 67q-40 0 -78.5 -6.5t-56.5 -13.5l-18 -6q-17 15 -17 39z" />
    <glyph glyph-name="uni042E" unicode="&#x42e;" horiz-adv-x="948" 
d="M102 4v712q9 4 26 4l27 -4v-333h184q9 347 269 347q270 0 270 -370t-270 -370q-260 0 -269 347h-184v-333q-10 -4 -26 -4zM608 685q-104 0 -159 -76.5t-55 -248.5t55 -248.5t159 -76.5t159 76.5t55 248.5q0 173 -54.5 249t-159.5 76z" />
    <glyph glyph-name="uni042F" unicode="&#x42f;" horiz-adv-x="621" 
d="M519 720v-716q-8 -4 -27 -4l-26 4v307h-189l-165 -307q-12 -4 -31 -4l-29 4l168 313q-70 15 -109 67.5t-39 131.5q0 92 53.5 148t146.5 56h247zM466 674h-192q-68 0 -107.5 -42t-39.5 -116q0 -75 39 -116.5t108 -41.5h192v316z" />
    <glyph glyph-name="uni0430" unicode="&#x430;" horiz-adv-x="512" 
d="M90 505q77 31 166 31q102 0 138 -49.5t36 -158.5v-324q-6 -4 -20 -4l-21 4l-8 84q-47 -98 -176 -98q-70 0 -112.5 41t-42.5 114q0 154 186 154q75 0 144 -9v68q0 71 -31.5 102.5t-98.5 31.5q-34 0 -70 -6.5t-55 -13.5l-19 -6q-8 6 -13 16q-5 13 -3 23zM380 251
q-99 9 -136 9q-141 0 -141 -115q0 -56 30.5 -84t84.5 -28q72 0 117 48t45 126v44z" />
    <glyph glyph-name="uni0431" unicode="&#x431;" horiz-adv-x="569" 
d="M76 351q0 74 7 128t26 92t40 62t61.5 41.5t76.5 26.5t99 21q28 5 39 11t22 24q27 -2 37 -18q-8 -29 -26 -42t-61 -21t-66.5 -13.5t-55 -14.5t-47.5 -17.5t-36.5 -23t-30.5 -32t-20.5 -42t-15.5 -55.5t-7 -71h4q43 107 182 107q97 0 150 -64t53 -198q0 -262 -211 -262
q-41 0 -72 8t-60 31.5t-47.5 62.5t-29.5 104.5t-11 154.5zM296 472q-74 0 -116.5 -48.5t-42.5 -171.5q0 -121 42 -170.5t117 -49.5t117 49.5t42 170.5t-42 170.5t-117 49.5z" />
    <glyph glyph-name="uni0432" unicode="&#x432;" horiz-adv-x="514" 
d="M290 526q68 0 106.5 -35t38.5 -101q0 -87 -69 -119q89 -29 89 -130q0 -69 -41 -105t-116 -36h-212v526h204zM136 287h144q50 0 77.5 26.5t27.5 73.5q0 97 -105 97h-144v-197zM136 42h155q111 0 111 100q0 49 -27.5 76.5t-83.5 27.5h-155v-204z" />
    <glyph glyph-name="uni0433" unicode="&#x433;" horiz-adv-x="399" 
d="M86 526h282q4 -8 4 -22l-4 -22h-232v-478q-6 -4 -25 -4l-25 4v522z" />
    <glyph glyph-name="uni0434" unicode="&#x434;" horiz-adv-x="566" 
d="M26 42h44q44 55 59 246l19 238h312v-484h63v-166q-12 -4 -22 -4q-9 0 -25 4v124h-403v-124q-12 -4 -24 -4q-11 0 -23 4v166zM191 483l-15 -199q-13 -169 -49 -242h283v441h-219z" />
    <glyph glyph-name="uni0435" unicode="&#x435;" horiz-adv-x="509" 
d="M443 247h-330q5 -112 45.5 -161t122.5 -49q35 0 66.5 9.5t45.5 18.5l14 9q18 -12 21 -39q-6 -5 -18 -12.5t-53 -20t-88 -12.5q-102 0 -155 70t-53 206q0 137 56 203.5t153 66.5q88 0 136 -51t48 -137q0 -28 -3 -53t-5 -37zM402 354q0 61 -32.5 100t-99.5 39
q-71 0 -112 -50.5t-45 -154.5h284l1 4q0 3 1 8.5t1.5 13t1 18.5t0.5 22z" />
    <glyph glyph-name="uni0436" unicode="&#x436;" horiz-adv-x="771" 
d="M668 522q10 4 30 4l25 -4l-155 -244l180 -273q-9 -5 -30 -5l-29 5l-165 249h-113v-250q-8 -4 -25 -4l-25 4v250h-113l-165 -249q-11 -5 -30 -5q-9 0 -16.5 1t-10.5 3l-2 1l180 273l-156 244q8 4 27 4l29 -4l144 -226h113v226q8 4 25 4l25 -4v-226h113z" />
    <glyph glyph-name="uni0437" unicode="&#x437;" horiz-adv-x="453" 
d="M56 512q50 24 147 24q176 0 176 -142q0 -97 -78 -125v-1q45 -15 68.5 -48.5t23.5 -78.5q0 -71 -46 -111t-159 -40q-42 0 -79 7t-53 13l-15 7q0 25 15 38q50 -21 130 -21q82 0 118.5 27.5t36.5 82.5q0 102 -146 102h-57q-5 9 -5 22l5 21h57q132 0 132 100q0 53 -32 78.5
t-104 25.5q-32 0 -62.5 -4.5t-44.5 -9.5l-14 -5q-16 12 -14 38z" />
    <glyph glyph-name="uni0438" unicode="&#x438;" horiz-adv-x="577" 
d="M178 140l258 382q8 4 27 4l28 -4v-518q-9 -4 -25 -4l-26 4v348q0 107 3 107h-3q1 0 -6.5 -14t-21.5 -36.5t-28 -43.5l-243 -361q-9 -4 -28 -4l-27 4v518q8 4 25 4l25 -4v-353l-3 -102h2q15 31 43 73z" />
    <glyph glyph-name="uni0439" unicode="&#x439;" horiz-adv-x="577" 
d="M289 671q30 0 57.5 10t40.5 20l13 10q19 -6 24 -27q-5 -6 -15 -15.5t-45 -25t-75 -15.5t-73.5 14t-47.5 28l-14 14q6 20 24 27q44 -40 111 -40zM436 522q8 4 27 4l28 -4v-518q-9 -4 -25 -4l-26 4v348q0 104 3 107h-3q-19 -37 -46 -78l-253 -377q-9 -4 -28 -4l-27 4v518
q8 4 25 4l25 -4v-353l-3 -102h2q15 31 43 73z" />
    <glyph glyph-name="uni043A" unicode="&#x43a;" horiz-adv-x="498" 
d="M240 296l156 226q11 4 30 4l26 -3l-168 -245l192 -273q-10 -5 -31 -5l-30 5l-175 249h-104v-250q-8 -4 -25 -4l-25 4v518q8 4 25 4l25 -4v-226h104z" />
    <glyph glyph-name="uni043B" unicode="&#x43b;" horiz-adv-x="551" 
d="M188 290q-9 -96 -21.5 -157.5t-30.5 -90.5t-35 -38.5t-43 -9.5l-32 5q-4 6 -4 18l4 20l27 -1q69 2 88 258l18 232h306v-522q-9 -4 -25 -4l-25 4v479h-212z" />
    <glyph glyph-name="uni043C" unicode="&#x43c;" horiz-adv-x="671" 
d="M529 522q11 4 28 4l28 -4v-518q-7 -4 -24 -4l-25 4v357q0 39 4 95h-2q-20 -42 -38 -74l-155 -255q-6 -3 -15 -3l-15 3l-146 250q-25 44 -38 78h-3q6 -39 6 -94v-357q-8 -4 -24 -4l-24 4v518q10 4 27 4l28 -4l158 -274q8 -14 31 -60h2q19 38 31 60z" />
    <glyph glyph-name="uni043D" unicode="&#x43d;" horiz-adv-x="560" 
d="M136 249v-245q-7 -4 -25 -4l-25 4v518q7 4 25 4l25 -4v-229h288v229q8 4 25 4l25 -4v-518q-8 -4 -25 -4l-25 4v245h-288z" />
    <glyph glyph-name="uni043E" unicode="&#x43e;" horiz-adv-x="540" 
d="M62 263q0 144 53 208.5t155 64.5t155 -64.5t53 -208.5t-53 -208.5t-155 -64.5t-155 64.5t-53 208.5zM426 263q0 126 -39.5 178.5t-116.5 52.5t-116.5 -52.5t-39.5 -178.5t39.5 -178.5t116.5 -52.5t116.5 52.5t39.5 178.5z" />
    <glyph glyph-name="uni043F" unicode="&#x43f;" horiz-adv-x="549" 
d="M136 482v-478q-8 -4 -25 -4l-25 4v522h377v-522q-7 -4 -24 -4l-26 4v478h-277z" />
    <glyph glyph-name="uni0440" unicode="&#x440;" horiz-adv-x="554" 
d="M136 448q49 88 161 88q95 0 145 -63t50 -210t-50 -210t-145 -63q-112 0 -161 88v-319q-7 -4 -25 -4l-25 4v763q7 4 25 4l25 -4v-74zM439 263q0 123 -36.5 176t-120.5 53q-67 0 -105.5 -48.5t-40.5 -112.5v-131q0 -65 39 -115.5t107 -50.5q84 0 120.5 53t36.5 176z" />
    <glyph glyph-name="uni0441" unicode="&#x441;" horiz-adv-x="444" 
d="M281 491q-168 0 -168 -228q0 -115 42 -170.5t130 -55.5q27 0 52 5.5t37 10.5l11 5q16 -10 18 -39q-47 -29 -132 -29q-102 0 -156 70t-54 203t54 203t156 70q36 0 66 -6t43 -12l12 -6q0 -26 -17 -39q-36 18 -94 18z" />
    <glyph glyph-name="uni0442" unicode="&#x442;" horiz-adv-x="435" 
d="M32 526h372q5 -7 5 -22l-5 -23h-161v-477q-7 -4 -25 -4l-25 4v477h-161q-5 8 -5 23q0 7 1.5 12.5t2.5 7.5z" />
    <glyph glyph-name="uni0443" unicode="&#x443;" horiz-adv-x="522" 
d="M492 522l-226 -635q-25 -71 -54 -104t-82 -33q-13 0 -25 2t-18 4l-6 1q-4 12 -4 20q0 15 5 22q18 -5 43 -5q31 0 52 22.5t42 82.5l37 102q-12 2 -18 5l-209 516q10 4 28 4l27 -4l152 -373l35 -99h4q12 42 32 99l133 373q7 4 26 4z" />
    <glyph glyph-name="uni0444" unicode="&#x444;" horiz-adv-x="776" 
d="M363 746q7 4 25 4l25 -4v-232q6 3 16 6.5t41.5 9.5t62.5 6q97 -1 138.5 -68t41.5 -205t-41.5 -205.5t-138.5 -67.5q-33 0 -63 6t-44 12l-13 7v-261q-7 -4 -25 -4l-25 4v261q-45 -25 -120 -25q-97 0 -138.5 67.5t-41.5 205.5t41.5 205.5t138.5 67.5q31 0 61 -5.5t44 -10.5
l15 -6v232zM364 470l-5 2q-5 2 -15 5.5t-22.5 7t-31.5 6t-39 2.5q-74 0 -105 -55t-31 -175q0 -119 31 -174t105 -55q29 0 57.5 7t41.5 13l14 7v409zM661 263q0 120 -31 175t-105 55q-20 0 -39 -2.5t-31.5 -6t-22.5 -7t-15 -5.5l-5 -2v-409q47 -27 113 -27q74 0 105 55
t31 174z" />
    <glyph glyph-name="uni0445" unicode="&#x445;" horiz-adv-x="489" 
d="M213 268l-178 254q9 4 28 4l30 -4l154 -218l152 218q7 4 27 4l28 -4l-179 -255l185 -263q-9 -4 -28 -4l-30 4l-161 226l-157 -226q-8 -4 -29 -4l-26 4z" />
    <glyph glyph-name="uni0446" unicode="&#x446;" horiz-adv-x="572" 
d="M415 522q8 4 25 4l26 -4v-478h63v-168q-12 -4 -23 -4q-12 0 -24 4v124h-396v522q8 4 25 4l26 -4v-478h278v478z" />
    <glyph glyph-name="uni0447" unicode="&#x447;" horiz-adv-x="520" 
d="M434 522v-518q-7 -4 -25 -4l-25 4v234q-61 -35 -150 -35q-178 0 -178 160v159q8 4 25 4l25 -4v-160q0 -60 31.5 -88t102.5 -28q83 0 144 38v238q7 4 25 4z" />
    <glyph glyph-name="uni0448" unicode="&#x448;" horiz-adv-x="790" 
d="M86 0v522q7 4 25 4l25 -4v-478h233v478q7 4 25 4l26 -4v-478h234v478q7 4 25 4l25 -4v-522h-618z" />
    <glyph glyph-name="uni0449" unicode="&#x449;" horiz-adv-x="810" 
d="M767 44v-168q-12 -4 -23 -4q-12 0 -24 4v124h-634v522q7 4 25 4l25 -4v-478h233v478q7 4 25 4l26 -4v-478h234v478q7 4 25 4l25 -4v-478h63z" />
    <glyph glyph-name="uni044A" unicode="&#x44a;" horiz-adv-x="569" 
d="M202 300h169q71 0 110.5 -40.5t39.5 -109.5t-39.5 -109.5t-110.5 -40.5h-219v481h-119q-5 15 -5 23q0 7 5 22h169v-226zM202 42h161q106 0 106 107q0 109 -106 109h-161v-216z" />
    <glyph glyph-name="uni044B" unicode="&#x44b;" horiz-adv-x="712" 
d="M86 522q16 4 25 4q13 0 25 -4v-222h169q71 0 110.5 -40.5t39.5 -109.5t-39.5 -109.5t-110.5 -40.5h-219v522zM575 522q16 4 26 4q9 0 25 -4v-518q-16 -4 -26 -4q-9 0 -25 4v518zM136 258v-216h161q106 0 106 107q0 109 -106 109h-161z" />
    <glyph glyph-name="uni044C" unicode="&#x44c;" horiz-adv-x="503" 
d="M136 300h169q71 0 110.5 -40.5t39.5 -109.5t-39.5 -109.5t-110.5 -40.5h-219v522q16 4 25 4q13 0 25 -4v-222zM136 42h161q106 0 106 107q0 109 -106 109h-161v-216z" />
    <glyph glyph-name="uni044D" unicode="&#x44d;" horiz-adv-x="453" 
d="M339 245h-213q-4 12 -4 21t4 21h212q-8 206 -169 206q-26 0 -51 -4.5t-37 -8.5l-12 -4q-15 14 -15 36q44 24 125 24q103 0 158 -70t55 -203t-55.5 -203t-157.5 -70q-38 0 -72.5 7t-49.5 15l-15 7q2 25 17 37q46 -21 106 -21q168 0 174 210z" />
    <glyph glyph-name="uni044E" unicode="&#x44e;" horiz-adv-x="779" 
d="M294 281q4 134 57.5 194.5t153.5 60.5q104 0 158 -64.5t54 -208.5q0 -143 -54.5 -208t-157.5 -65q-98 0 -152 58.5t-59 188.5h-158v-233q-12 -4 -25 -4q-9 0 -25 4v518q16 4 25 4q13 0 25 -4v-241h158zM664 263q0 126 -40.5 178.5t-118.5 52.5t-118.5 -52.5t-40.5 -178.5
t40.5 -178.5t118.5 -52.5t118.5 52.5t40.5 178.5z" />
    <glyph glyph-name="uni044F" unicode="&#x44f;" horiz-adv-x="519" 
d="M221 218l-116 -214q-16 -4 -32 -4q-11 0 -27 4l124 222q-50 15 -76 52.5t-26 92.5q0 71 42.5 113t120.5 42h202v-522q-16 -4 -25 -4q-13 0 -25 4v214h-162zM239 484q-119 0 -119 -113q0 -51 30 -81t89 -30h144v224h-144z" />
    <glyph glyph-name="uni0451" unicode="&#x451;" horiz-adv-x="509" 
d="M164 699q10 4 30 4l30 -4v-53q-10 -4 -30 -4l-30 4v53zM313 699q10 4 30 4l30 -4v-53q-10 -4 -30 -4l-30 4v53zM61 266q0 137 56 203.5t153 66.5q88 0 136 -51t48 -137q0 -28 -3 -53t-5 -37l-3 -11h-330q5 -112 45.5 -161.5t122.5 -49.5q35 0 66.5 9t45.5 19l14 9
q18 -13 21 -38q-6 -5 -18 -12.5t-53 -20t-88 -12.5q-102 0 -155 70t-53 206zM402 354q0 61 -32.5 100t-99.5 39q-71 0 -112 -50.5t-45 -154.5h284l1 4q0 3 1 8.5t1.5 13t1 18.5t0.5 22z" />
    <glyph glyph-name="Wgrave" unicode="&#x1e80;" horiz-adv-x="949" 
d="M484 763l-118 136q6 10 19.5 17t27.5 6l104 -141q-10 -17 -33 -18zM659 4l-160 545q-8 30 -13 55.5t-6 35.5l-1 10h-3q-2 -33 -20 -101l-160 -545q-16 -4 -28 -4q-10 0 -26 4l-212 712q8 4 26 4l27 -4l163 -546q8 -25 14 -51t8 -39l2 -13h3q4 45 21 103l160 546q7 4 25 4
l25 -4l160 -546q7 -26 12 -52t6 -38l2 -13h2q5 43 23 103l156 546q8 4 25 4l25 -4l-204 -712q-9 -4 -26 -4z" />
    <glyph glyph-name="wgrave" unicode="&#x1e81;" horiz-adv-x="794" 
d="M400 608l-125 144q6 10 19.5 17t27.5 6l111 -148q-10 -16 -33 -19zM544 4l-111 334q-29 90 -33 125h-3q-4 -32 -36 -125l-111 -334q-16 -4 -24 -4q-6 0 -26 4l-167 518q9 4 26 4l24 -4l122 -374q13 -42 20 -85h3q6 38 22 85l124 374q9 4 25 4l25 -4l124 -372
q11 -36 20 -87h3q6 34 22 86l121 373q8 4 23 4l24 -4l-167 -518q-20 -4 -25 -4t-25 4z" />
    <glyph glyph-name="Wacute" unicode="&#x1e82;" horiz-adv-x="949" 
d="M561 901l-120 -137q-24 3 -33 19l106 141q31 2 47 -23zM659 4l-160 545q-8 30 -13 55.5t-6 35.5l-1 10h-3q-2 -33 -20 -101l-160 -545q-16 -4 -28 -4q-10 0 -26 4l-212 712q8 4 26 4l27 -4l163 -546q8 -25 14 -51t8 -39l2 -13h3q4 45 21 103l160 546q7 4 25 4l25 -4
l160 -546q7 -26 12 -52t6 -38l2 -13h2q5 43 23 103l156 546q8 4 25 4l25 -4l-204 -712q-9 -4 -26 -4z" />
    <glyph glyph-name="wacute" unicode="&#x1e83;" horiz-adv-x="794" 
d="M476 752l-125 -144q-23 3 -33 19l111 148q31 2 47 -23zM544 4l-111 334q-29 90 -33 125h-3q-4 -32 -36 -125l-111 -334q-16 -4 -24 -4q-6 0 -26 4l-167 518q9 4 26 4l24 -4l122 -374q13 -42 20 -85h3q6 38 22 85l124 374q9 4 25 4l25 -4l124 -372q11 -36 20 -87h3
q6 34 22 86l121 373q8 4 23 4l24 -4l-167 -518q-20 -4 -25 -4t-25 4z" />
    <glyph glyph-name="Wdieresis" unicode="&#x1e84;" horiz-adv-x="949" 
d="M434 843v-53q-10 -4 -30 -4l-30 4v53q10 3 30 3zM583 843v-53q-10 -4 -30 -4l-30 4v53q10 3 30 3zM659 4l-160 545q-8 30 -13 55.5t-6 35.5l-1 10h-3q-2 -33 -20 -101l-160 -545q-16 -4 -28 -4q-10 0 -26 4l-212 712q8 4 26 4l27 -4l163 -546q8 -25 14 -51t8 -39l2 -13h3
q4 45 21 103l160 546q7 4 25 4l25 -4l160 -546q7 -26 12 -52t6 -38l2 -13h2q5 43 23 103l156 546q8 4 25 4l25 -4l-204 -712q-9 -4 -26 -4z" />
    <glyph glyph-name="wdieresis" unicode="&#x1e85;" horiz-adv-x="794" 
d="M355 699v-53q-10 -4 -30 -4l-30 4v53q10 4 30 4zM504 699v-53q-10 -4 -30 -4l-30 4v53q10 4 30 4zM544 4l-111 334q-29 90 -33 125h-3q-4 -32 -36 -125l-111 -334q-16 -4 -24 -4q-6 0 -26 4l-167 518q9 4 26 4l24 -4l122 -374q13 -42 20 -85h3q6 38 22 85l124 374
q9 4 25 4l25 -4l124 -372q11 -36 20 -87h3q6 34 22 86l121 373q8 4 23 4l24 -4l-167 -518q-20 -4 -25 -4t-25 4z" />
    <glyph glyph-name="Ygrave" unicode="&#x1ef2;" horiz-adv-x="620" 
d="M247 922l111 -148q-10 -16 -33 -19l-125 144q6 10 19.5 17t27.5 6zM540 716q9 4 28 4l31 -4l-264 -412v-300q-9 -4 -26 -4l-26 4v299l-257 413q11 4 32 4l30 -4l223 -357z" />
    <glyph glyph-name="ygrave" unicode="&#x1ef3;" horiz-adv-x="522" 
d="M256 608l-125 144q6 10 19.5 17t27.5 6l111 -148q-10 -16 -33 -19zM492 522l-226 -635q-25 -71 -54 -104t-82 -33q-13 0 -25 2t-18 4l-6 1q-4 12 -4 20q0 15 5 22q18 -5 43 -5q31 0 52 22.5t42 82.5l37 102q-12 2 -18 5l-209 516q10 4 28 4l27 -4l152 -373l35 -99h4
q12 42 32 99l133 373q7 4 26 4z" />
    <glyph glyph-name="endash" unicode="&#x2013;" horiz-adv-x="556" 
d="M472 269h-388q-4 7 -4 21l4 21h388q4 -7 4 -21z" />
    <glyph glyph-name="emdash" unicode="&#x2014;" horiz-adv-x="806" 
d="M722 269h-638q-4 7 -4 21l4 21h638q4 -7 4 -21z" />
    <glyph glyph-name="quoteleft" unicode="&#x2018;" horiz-adv-x="208" 
d="M123 720l21 -16q-30 -29 -35 -87l24 -3v-57q-11 -4 -32 -4l-32 4v41q0 36 13.5 66.5t27.5 43.5z" />
    <glyph glyph-name="quoteright" unicode="&#x2019;" horiz-adv-x="201" 
d="M86 553l-21 16q29 30 34 87l-22 4v56q10 4 31 4l32 -4v-40q0 -36 -13.5 -67t-26.5 -43z" />
    <glyph glyph-name="quotesinglbase" unicode="&#x201a;" horiz-adv-x="218" 
d="M87 -102l-22 15q30 30 34 87l-22 4v56q11 4 32 4l32 -4v-40q0 -36 -13.5 -66.5t-27.5 -43.5z" />
    <glyph glyph-name="quotedblleft" unicode="&#x201c;" horiz-adv-x="286" 
d="M224 719l22 -16q-30 -30 -34 -87l22 -4v-56q-10 -4 -32 -4l-31 4v40q0 36 13.5 67t26.5 43zM112 719l22 -16q-29 -30 -34 -87l22 -4v-56q-10 -4 -32 -4l-31 4v40q0 36 13.5 67t26.5 43z" />
    <glyph glyph-name="quotedblright" unicode="&#x201d;" horiz-adv-x="313" 
d="M87 553l-22 16q30 30 34 87l-22 4v56q10 4 32 4l31 -4v-40q0 -23 -5.5 -44t-13 -34.5t-15.5 -24t-14 -15.5zM199 553l-22 16q29 30 34 87l-22 4v56q10 4 32 4l31 -4v-40q0 -23 -5.5 -44t-13 -34.5t-15.5 -24t-14 -15.5z" />
    <glyph glyph-name="quotedblbase" unicode="&#x201e;" horiz-adv-x="331" 
d="M87 -102l-22 15q29 30 34 87l-22 4v56q10 4 32 4l31 -4v-40q0 -36 -13 -66.5t-27 -43.5zM201 -102l-22 15q30 30 34 87l-22 4v56q10 4 32 4l31 -4v-40q0 -36 -13 -66.5t-27 -43.5z" />
    <glyph glyph-name="dagger" unicode="&#x2020;" horiz-adv-x="580" 
d="M291 -127l-25 18l7 545l-236 -6q-4 9 -4 23l4 22l236 -6l-7 229q9 3 25 3l24 -3l-7 -229l235 6q4 -8 4 -22l-4 -23l-235 6l7 -545z" />
    <glyph glyph-name="daggerdbl" unicode="&#x2021;" horiz-adv-x="633" 
d="M334 142l236 7q3 -7 3 -23l-3 -22l-236 7l7 -230q-8 -3 -25 -3l-24 3l7 230l-235 -7q-4 7 -4 22l4 23l235 -7l-7 147l7 147l-236 -6q-3 7 -3 23l3 22l236 -6l-7 229q8 3 25 3l24 -3l-7 -229l235 6q4 -7 4 -22l-4 -23l-235 6l7 -147z" />
    <glyph glyph-name="bullet" unicode="&#x2022;" horiz-adv-x="298" 
d="M194 282q0 -20 -12.5 -32t-32.5 -12q-19 0 -32 12t-13 32t13 32.5t32 12.5q20 0 32.5 -12t12.5 -33z" />
    <glyph glyph-name="ellipsis" unicode="&#x2026;" horiz-adv-x="544" 
d="M141 60v-56q-11 -4 -32 -4l-32 4v56q11 4 32 4zM304 60v-56q-11 -4 -32 -4l-31 4v56q10 4 31 4zM467 60v-56q-11 -4 -32 -4l-31 4v56q10 4 31 4z" />
    <glyph glyph-name="perthousand" unicode="&#x2030;" horiz-adv-x="1068" 
d="M594 698l-388 -704q-8 -4 -26 -4l-23 4l388 704q7 4 25 4zM181 345q-129 0 -129 173t129 173q131 0 131 -173t-131 -173zM181 653q-41 0 -62.5 -31t-21.5 -104q0 -74 21.5 -104t62.5 -30t62.5 30t21.5 104q0 135 -84 135zM566 -10q-129 0 -129 173t129 173
q131 0 131 -173t-131 -173zM888 -10q-129 0 -129 173t129 173q131 0 131 -173t-131 -173zM566 298q-41 0 -62.5 -31t-21.5 -104q0 -74 21.5 -104t62.5 -30t62.5 30t21.5 104q0 135 -84 135zM888 298q-41 0 -62.5 -31t-21.5 -104q0 -74 21.5 -104t62.5 -30t62.5 30t21.5 104
q0 135 -84 135z" />
    <glyph glyph-name="guilsinglleft" unicode="&#x2039;" horiz-adv-x="338" 
d="M55 291l206 218q16 -10 18 -34l-183 -205l183 -206q-2 -24 -18 -34l-206 218q-4 8 -4 21z" />
    <glyph glyph-name="guilsinglright" unicode="&#x203a;" horiz-adv-x="338" 
d="M77 509l206 -218q4 -8 4 -22l-4 -21l-206 -218q-16 10 -18 34l183 206l-183 205q2 24 18 34z" />
    <glyph glyph-name="fraction" unicode="&#x2044;" horiz-adv-x="127" 
d="M-154 -5l387 703q8 4 24 4l22 -4l-388 -703q-8 -5 -24 -5z" />
    <glyph glyph-name="zeroinferior" unicode="&#x2080;" horiz-adv-x="343" 
d="M171 -101q-66 0 -97 42.5t-31 134.5q0 90 31.5 133t96.5 43t97 -42.5t32 -133.5t-32 -134t-97 -43zM171 221q-49 0 -70 -34t-21 -111q0 -78 21 -111.5t70 -33.5q48 0 70 34t22 111q0 76 -22 110.5t-70 34.5z" />
    <glyph glyph-name="oneinferior" unicode="&#x2081;" horiz-adv-x="240" 
d="M30 175q68 18 114 69q6 3 18 3t16 -3v-337q-6 -3 -16 -3q-13 0 -19 3v252q0 29 1 41q-43 -39 -106 -55q-11 11 -8 30z" />
    <glyph glyph-name="twoinferior" unicode="&#x2082;" horiz-adv-x="300" 
d="M35 -55q0 38 19.5 64.5t46.5 41t54.5 27.5t47 32.5t19.5 46.5q0 64 -84 64q-52 0 -72 -10q-11 13 -8 28q35 13 86 13q58 0 86 -24.5t28 -67.5q0 -35 -19.5 -59.5t-47.5 -39t-55.5 -28.5t-46.5 -38t-18 -58h182q4 -7 4 -17q0 -9 -4 -16h-214q-4 18 -4 41z" />
    <glyph glyph-name="threeinferior" unicode="&#x2083;" horiz-adv-x="300" 
d="M258 -3q0 -98 -132 -98q-23 0 -45 3.5t-33 7.5l-10 4q-2 17 9 26q35 -10 77 -10q56 0 77 18.5t21 50.5q0 69 -81 69h-44q-7 16 0 31h44q34 0 51.5 16.5t17.5 44.5q0 61 -77 61q-20 0 -39.5 -2.5t-29.5 -4.5l-9 -2q-10 10 -8 27q35 13 88 13q55 0 83.5 -23t28.5 -66
q0 -55 -47 -78q58 -23 58 -88z" />
    <glyph glyph-name="fourinferior" unicode="&#x2084;" horiz-adv-x="320" 
d="M244 28h42q3 -9 3 -15q0 -10 -3 -16h-42v-90q-6 -3 -15 -3q-11 0 -17 3v90h-180q-3 6 -3 12q0 5 3 11l177 224q9 3 18 3q11 0 17 -3v-216zM212 199l-136 -171h136v171z" />
    <glyph glyph-name="fiveinferior" unicode="&#x2085;" horiz-adv-x="295" 
d="M95 214v-104q81 0 121.5 -24t40.5 -83q0 -104 -133 -104q-23 0 -45 3.5t-33 7.5l-10 4q-2 16 9 27q35 -11 76 -11q99 0 99 72q0 43 -29.5 59.5t-96.5 16.5h-34v169h178q7 -17 0 -33h-143z" />
    <glyph glyph-name="sixinferior" unicode="&#x2086;" horiz-adv-x="307" 
d="M41 47q0 85 49 139.5t144 63.5q5 -15 0 -29q-66 -9 -106 -44t-47 -92q38 22 84 22q50 0 78.5 -27.5t28.5 -74.5q0 -51 -32.5 -78.5t-79.5 -27.5q-58 0 -88.5 37.5t-30.5 110.5zM235 5q0 32 -19.5 51.5t-54.5 19.5q-50 0 -83 -26q0 -121 82 -121q34 0 54.5 20t20.5 56z
" />
    <glyph glyph-name="seveninferior" unicode="&#x2087;" horiz-adv-x="274" 
d="M207 214h-174q-8 16 0 33h209q3 -10 3 -24q0 -38 -13.5 -69t-33 -54t-39 -47.5t-32.5 -62t-13 -84.5q-19 -5 -36 0q0 50 12.5 89t30.5 63.5t36 46.5t32.5 49.5t17.5 59.5z" />
    <glyph glyph-name="eightinferior" unicode="&#x2088;" horiz-adv-x="320" 
d="M52 169q0 38 28 60.5t80 22.5q50 0 78.5 -22t28.5 -61q0 -56 -56 -90q68 -33 68 -88q0 -43 -31 -67.5t-87 -24.5q-55 0 -87.5 23.5t-32.5 67.5q0 62 66 100q-55 30 -55 79zM232 167q0 56 -73 56q-34 0 -52.5 -14t-18.5 -38q0 -7 1.5 -13.5t5.5 -12.5t6.5 -10t10.5 -9
t11.5 -8t14 -7.5l14 -6t16 -7t15.5 -6.5q49 32 49 76zM243 -11q0 15 -5.5 26.5t-19.5 21t-22.5 14.5t-31 14t-28.5 12q-60 -33 -60 -85q0 -63 86 -63q36 0 58.5 15.5t22.5 44.5z" />
    <glyph glyph-name="nineinferior" unicode="&#x2089;" horiz-adv-x="307" 
d="M35 146q0 51 32.5 78.5t80.5 27.5q57 0 87.5 -37.5t30.5 -110.5q0 -85 -48 -139.5t-143 -63.5q-9 13 -2 29q66 9 106 44t47 92q-37 -22 -84 -22q-50 0 -78.5 27.5t-28.5 74.5zM230 101q-2 121 -82 121q-35 0 -55.5 -20t-20.5 -56q0 -32 20 -51.5t54 -19.5q52 0 84 26z
" />
    <glyph glyph-name="Euro" unicode="&#x20ac;" horiz-adv-x="585" 
d="M138 435q32 245 235 245q45 0 81.5 -8t51.5 -16l14 -7q-2 -23 -16 -36q-49 24 -124 24q-80 0 -128 -46.5t-62 -155.5h270q4 -21 -7 -38h-268q-1 -20 -1 -63q0 -41 1 -59h234q4 -20 -7 -37h-223q14 -112 62 -158t129 -46q36 0 69.5 6t48.5 12l16 6q14 -13 16 -37
q-52 -31 -157 -31q-205 0 -236 248h-82q-3 17 6 37h73q-2 38 -2 60q0 40 2 62h-79q-3 18 6 38h77z" />
    <glyph glyph-name="uni2113" unicode="&#x2113;" horiz-adv-x="456" 
d="M125 526q0 119 33 171.5t117 52.5q67 0 101 -40t34 -109q0 -91 -64 -182.5t-171 -164.5v-114q0 -58 20.5 -81.5t64.5 -23.5q30 0 61 14t47 28l17 14q22 -3 27 -26q-2 -3 -7 -8t-21 -18t-34 -23t-46 -18t-57 -8q-68 0 -95 43.5t-27 145.5v46q-34 -20 -74 -40
q-16 13 -16 36q40 19 90 52v253zM360 600q0 110 -83 110q-51 0 -76.5 -32t-25.5 -111v-260q185 149 185 293z" />
    <glyph glyph-name="uni2117" unicode="&#x2117;" horiz-adv-x="807" 
d="M66 340q0 140 99 238.5t239 98.5t238.5 -98.5t98.5 -238.5t-98.5 -239t-238.5 -99t-239 99t-99 239zM703 340q0 124 -87.5 211.5t-211.5 87.5t-212 -87.5t-88 -211.5t88 -212t212 -88t211.5 88t87.5 212zM300 523h139q59 0 94.5 -35.5t35.5 -92.5q0 -59 -35.5 -94
t-94.5 -35h-99v-124q-19 -9 -40 0v381zM340 487v-185h95q42 0 67 24t25 69q0 44 -25 68t-67 24h-95z" />
    <glyph glyph-name="trademark" unicode="&#x2122;" horiz-adv-x="629" 
d="M45 720h203q3 -6 3 -12t-3 -13h-87v-260q-4 -3 -14 -3l-13 3v260h-89q-2 8 -2 13q0 8 2 12zM301 717q5 3 16 3q6 0 15 -3l55 -108q19 -37 34 -73q18 41 35 70l56 111q6 3 16 3l16 -3v-282q-4 -3 -12 -3l-13 3v128v117q-20 -42 -31 -62l-55 -106q-4 -3 -13 -3l-13 3
l-52 106q-5 9 -15.5 29.5t-16.5 32.5q2 -35 2 -116v-129q-4 -3 -12 -3l-12 3v282z" />
    <glyph glyph-name="Omega" unicode="&#x2126;" horiz-adv-x="716" 
d="M79 380q0 178 74.5 264t204.5 86t204.5 -86t74.5 -264q0 -35 -6 -70t-15.5 -62.5t-22.5 -54.5t-25.5 -46.5t-27.5 -38.5t-24.5 -29t-19.5 -20.5t-11 -11.5h165q5 -13 5 -23q0 -6 -5 -24h-231q-14 24 0 50q25 21 47.5 46t51.5 67t46.5 98.5t17.5 118.5q0 153 -59.5 229
t-164.5 76t-164.5 -76t-59.5 -229q0 -62 17.5 -118.5t46.5 -98.5t51.5 -67t47.5 -46q11 -24 0 -50h-231q-5 12 -5 23q0 15 5 24h165l-9 9q-10 10 -17.5 18t-20.5 23.5t-23.5 31.5t-23.5 37t-22.5 44.5t-18 50t-13 57t-4.5 62.5z" />
    <glyph glyph-name="estimated" unicode="&#x212e;" horiz-adv-x="817" 
d="M604 95h67q-99 -105 -254 -105q-145 0 -248.5 103t-103.5 249t103.5 249t248.5 103t248.5 -103t103.5 -249v-24h-544v-218q90 -67 192 -67q99 0 187 62zM609 583q-85 68 -192 68q-104 0 -192 -67v-222h384v221z" />
    <glyph glyph-name="uni2153" unicode="&#x2153;" horiz-adv-x="708" 
d="M504 698q6 4 20 4l18 -4l-387 -705q-7 -3 -20 -3l-19 3zM153 686q6 3 18 3q11 0 16 -3v-338q-8 -2 -16 -2q-13 0 -19 2v253q0 28 1 40q-46 -40 -106 -54q-11 11 -8 30q68 18 114 69zM446 335q35 13 88 13q111 0 111 -89q0 -56 -46 -78q58 -23 58 -88q0 -98 -133 -98
q-23 0 -44.5 3.5t-31.5 7.5l-11 4q-2 17 9 26q34 -10 77 -10q56 0 77 18.5t21 50.5q0 69 -81 69h-44q-7 16 0 31h44q34 0 51.5 16.5t17.5 44.5q0 61 -77 61q-20 0 -39.5 -2.5t-28.5 -4.5l-10 -2q-10 10 -8 27z" />
    <glyph glyph-name="uni2154" unicode="&#x2154;" horiz-adv-x="771" 
d="M179 -7l388 705q6 4 20 4l18 -4l-387 -705q-7 -3 -20 -3zM51 387q0 38 19.5 64.5t46.5 41t54.5 27.5t47 32.5t19.5 46.5q0 63 -83 64q-53 0 -73 -10q-10 13 -8 28q35 13 86 13q58 0 86 -24.5t28 -67.5q0 -35 -19.5 -59.5t-47.5 -39t-55.5 -28.5t-46.5 -38t-18 -58h182
q4 -7 4 -17q0 -9 -4 -16h-214q-4 18 -4 41zM720 93q0 -98 -133 -98q-23 0 -44.5 3.5t-32.5 7.5l-10 4q-2 17 9 26q34 -10 77 -10q56 0 77 18.5t21 50.5q0 69 -81 69h-44q-7 16 0 31h44q34 0 51.5 16.5t17.5 44.5q0 61 -77 61q-20 0 -39.5 -2.5t-29.5 -4.5l-9 -2
q-10 10 -8 27q35 13 88 13q111 0 111 -89q0 -56 -46 -78q58 -23 58 -88z" />
    <glyph glyph-name="oneeighth" unicode="&#x215b;" horiz-adv-x="708" 
d="M504 698q6 4 20 4l18 -4l-387 -705q-7 -3 -20 -3l-19 3zM153 686q6 3 18 3q11 0 16 -3v-338q-8 -2 -16 -2q-13 0 -19 2v253q0 28 1 40q-46 -40 -106 -54q-11 11 -8 30q68 18 114 69zM431 265q0 38 27.5 60.5t79.5 22.5q50 0 78.5 -22t28.5 -61q0 -56 -56 -90
q68 -33 68 -88q0 -43 -31 -67.5t-87 -24.5q-54 0 -87 23.5t-33 67.5q0 62 66 100q-54 30 -54 79zM610 263q0 56 -73 56q-34 0 -52.5 -14t-18.5 -38q0 -7 1.5 -13.5t5.5 -12.5t6.5 -10t10.5 -9t11.5 -8t14 -7.5l14 -6t16 -7t15.5 -6.5q49 32 49 76zM622 85q0 15 -5.5 26.5
t-19.5 21t-23.5 14.5t-31 14t-28.5 12q-60 -33 -60 -85q0 -63 86 -63q36 0 59 15.5t23 44.5z" />
    <glyph glyph-name="threeeighths" unicode="&#x215c;" horiz-adv-x="754" 
d="M550 698q6 4 20 4l18 -4l-387 -705q-7 -3 -20 -3l-19 3zM64 681q35 13 88 13q55 0 83.5 -23t28.5 -66q0 -55 -47 -78q58 -23 58 -88q0 -98 -132 -98q-23 0 -45 3.5t-32 7.5l-11 4q-2 17 9 26q35 -10 77 -10q56 0 77 18.5t21 50.5q0 69 -81 69h-44q-7 16 0 31h44
q34 0 52 16.5t18 44.5q0 61 -78 61q-20 0 -39.5 -2.5t-28.5 -4.5l-10 -2q-10 10 -8 27zM477 265q0 38 27.5 60.5t79.5 22.5q50 0 78.5 -22t28.5 -61q0 -56 -56 -90q68 -33 68 -88q0 -43 -31 -67.5t-87 -24.5q-54 0 -87 23.5t-33 67.5q0 62 66 100q-54 30 -54 79zM656 263
q0 56 -73 56q-34 0 -52.5 -14t-18.5 -38q0 -7 1.5 -13.5t5.5 -12.5t6.5 -10t10.5 -9t11.5 -8t14 -7.5l14 -6t16 -7t15.5 -6.5q49 32 49 76zM668 85q0 15 -5.5 26.5t-19.5 21t-23.5 14.5t-31 14t-28.5 12q-60 -33 -60 -85q0 -63 86 -63q36 0 59 15.5t23 44.5z" />
    <glyph glyph-name="fiveeighths" unicode="&#x215d;" horiz-adv-x="750" 
d="M546 698q6 4 20 4l18 -4l-387 -705q-7 -3 -20 -3l-19 3zM77 689h178q7 -17 0 -33h-143v-104q81 0 121.5 -24t40.5 -83q0 -104 -133 -104q-23 0 -45 3.5t-32 7.5l-11 4q0 18 9 27q35 -11 76 -11q99 0 99 72q0 43 -29.5 59.5t-96.5 16.5h-34v169zM473 265q0 38 27.5 60.5
t79.5 22.5q50 0 78.5 -22t28.5 -61q0 -56 -56 -90q68 -33 68 -88q0 -43 -31 -67.5t-87 -24.5q-54 0 -87 23.5t-33 67.5q0 62 66 100q-54 30 -54 79zM652 263q0 56 -73 56q-34 0 -52.5 -14t-18.5 -38q0 -7 1.5 -13.5t5.5 -12.5t6.5 -10t10.5 -9t11.5 -8t14 -7.5l14 -6t16 -7
t15.5 -6.5q49 32 49 76zM664 85q0 15 -5.5 26.5t-19.5 21t-23.5 14.5t-31 14t-28.5 12q-60 -33 -60 -85q0 -63 86 -63q36 0 59 15.5t23 44.5z" />
    <glyph glyph-name="seveneighths" unicode="&#x215e;" horiz-adv-x="664" 
d="M459 698q6 4 20 4l18 -4l-387 -705q-7 -3 -20 -3l-19 3zM53 689h209q3 -10 3 -24q0 -38 -13.5 -69t-32.5 -54t-37.5 -47.5t-32 -62t-13.5 -84.5q-19 -5 -36 0q0 49 12 88t30 64t36 47t32 49.5t17 59.5h-174q-7 16 0 33zM386 265q0 38 27.5 60.5t79.5 22.5q50 0 78.5 -22
t28.5 -61q0 -56 -56 -90q68 -33 68 -88q0 -43 -31 -67.5t-87 -24.5q-54 0 -87 23.5t-33 67.5q0 62 66 100q-54 30 -54 79zM565 263q0 56 -73 56q-34 0 -52.5 -14t-18.5 -38q0 -7 1.5 -13.5t5.5 -12.5t6.5 -10t10.5 -9t11.5 -8t14 -7.5l14 -6t16 -7t15.5 -6.5q49 32 49 76z
M577 85q0 15 -5.5 26.5t-19.5 21t-23.5 14.5t-31 14t-28.5 12q-60 -33 -60 -85q0 -63 86 -63q36 0 59 15.5t23 44.5z" />
    <glyph glyph-name="arrowleft" unicode="&#x2190;" horiz-adv-x="621" 
d="M46 350l208 208q20 -7 26 -26l-163 -162h447q3 -6 3 -20t-3 -20h-447l163 -163q-7 -20 -26 -25z" />
    <glyph glyph-name="arrowup" unicode="&#x2191;" horiz-adv-x="494" 
d="M247 610l208 -208q-5 -18 -25 -26l-163 163v-447q-6 -3 -20 -3q-11 0 -20 3v447l-162 -163q-19 7 -26 26z" />
    <glyph glyph-name="arrowright" unicode="&#x2192;" horiz-adv-x="620" 
d="M574 350l-208 -208q-18 5 -26 25l163 163h-447q-3 6 -3 20t3 20h447l-163 162q7 19 26 26z" />
    <glyph glyph-name="arrowdown" unicode="&#x2193;" horiz-adv-x="494" 
d="M227 607q9 3 20 3q14 0 20 -3v-447l163 163q20 -7 25 -26l-208 -208l-208 208q7 20 26 26l162 -163v447z" />
    <glyph glyph-name="uni2196" unicode="&#x2196;" horiz-adv-x="513" 
d="M79 534h295q3 -9 3 -19q0 -9 -3 -18h-230l316 -315q-7 -18 -29 -29l-316 317l1 -230q-7 -4 -18 -4t-19 4v294z" />
    <glyph glyph-name="uni2197" unicode="&#x2197;" horiz-adv-x="513" 
d="M434 534v-294q-8 -4 -19 -4t-18 4v229l-315 -316q-21 8 -29 29l316 315h-230q-3 9 -3 18q0 10 3 19h295z" />
    <glyph glyph-name="uni2198" unicode="&#x2198;" horiz-adv-x="507" 
d="M388 207v229q7 4 18 4t19 -4v-294h-295q-3 9 -3 19q0 9 3 18h230l-316 315q6 18 29 29z" />
    <glyph glyph-name="uni2199" unicode="&#x2199;" horiz-adv-x="509" 
d="M120 208l315 316q23 -11 29 -29l-316 -315h230q3 -9 3 -19q0 -11 -3 -18h-295v294q8 4 19 4t18 -4v-229z" />
    <glyph glyph-name="partialdiff" unicode="&#x2202;" horiz-adv-x="555" 
d="M142 707q-5 27 8 43q163 -27 250.5 -138t87.5 -302q0 -173 -54.5 -246.5t-161.5 -73.5q-210 0 -210 262t201 262q104 0 162 -76q-23 105 -95 176.5t-188 92.5zM432 372q-24 48 -68.5 73.5t-97.5 25.5q-75 0 -113 -49t-38 -170q0 -119 41 -169.5t116 -50.5q162 0 162 220
q0 93 -2 120z" />
    <glyph glyph-name="Delta" unicode="&#x2206;" horiz-adv-x="641" 
d="M296 716q16 4 27 4t27 -4l262 -685q-6 -20 -20 -31h-544q-16 13 -19 31zM322 657h-2q-18 -61 -29 -90l-205 -521h467l-202 522q-12 28 -29 89z" />
    <glyph glyph-name="product" unicode="&#x220f;" horiz-adv-x="709" 
d="M603 693v-896q-7 -4 -26 -4l-24 4v849h-397v-849q-7 -4 -26 -4l-24 4v896h497z" />
    <glyph glyph-name="summation" unicode="&#x2211;" horiz-adv-x="575" 
d="M38 -178l227 439l-210 409v24h467q4 -8 4 -23l-4 -23h-400l199 -387l-216 -422h423q4 -8 4 -23l-4 -23h-490v29z" />
    <glyph glyph-name="minus" unicode="&#x2212;" horiz-adv-x="464" 
d="M376 307h-288q-4 7 -4 23l4 23h288q4 -7 4 -23z" />
    <glyph glyph-name="uni2215" unicode="&#x2215;" horiz-adv-x="469" 
d="M17 -5l387 703q8 4 24 4l22 -4l-388 -703q-8 -5 -24 -5z" />
    <glyph glyph-name="uni2219" unicode="&#x2219;" horiz-adv-x="226" 
d="M113 303q-14 0 -23.5 8.5t-9.5 24.5t9.5 24.5t23.5 8.5q13 0 23 -8.5t10 -24.5t-10 -24.5t-23 -8.5z" />
    <glyph glyph-name="radical" unicode="&#x221a;" horiz-adv-x="629" 
d="M313 -15l-156 380l-108 -46q-19 12 -16 38l149 65l152 -371l228 679q26 5 40 -11l-245 -734h-44z" />
    <glyph glyph-name="infinity" unicode="&#x221e;" horiz-adv-x="824" 
d="M588 160q-36 0 -67.5 13t-50.5 31.5t-33 37t-19 31.5l-6 13q-2 -5 -6 -13.5t-19 -30.5t-33.5 -38.5t-50 -30t-67.5 -13.5q-82 0 -126 48.5t-44 116.5t44 116.5t126 48.5q36 0 67.5 -13t50.5 -32t33 -37.5t19 -31.5l6 -13q2 5 6.5 13.5t20.5 30.5t34.5 39t49.5 30.5
t65 13.5q82 0 126 -48.5t44 -116.5t-44 -116.5t-126 -48.5zM235 202q31 0 57.5 12.5t42.5 31t27.5 36.5t16.5 30l5 13q-2 5 -5 13.5t-16 29.5t-28.5 37t-42 29.5t-57.5 13.5q-64 0 -94.5 -36.5t-30.5 -86.5t30.5 -86.5t94.5 -36.5zM589 448q-31 0 -57.5 -12.5t-42.5 -31
t-27.5 -36.5t-16.5 -30l-5 -13q2 -5 5 -13.5t16 -29.5t28.5 -37t42 -29.5t57.5 -13.5q64 0 94.5 36.5t30.5 86.5t-30.5 86.5t-94.5 36.5z" />
    <glyph glyph-name="integral" unicode="&#x222b;" horiz-adv-x="502" 
d="M228 -41v611q0 72 33.5 111.5t98.5 39.5q62 0 123 -36q-3 -22 -20 -32q-49 28 -102 28q-90 -2 -90 -109v-613q0 -150 -135 -150q-57 0 -117 37q3 21 20 32q48 -30 102 -29q87 2 87 110z" />
    <glyph glyph-name="approxequal" unicode="&#x2248;" horiz-adv-x="539" 
d="M188 370q-21 0 -40 -9t-28 -18l-8 -9q-23 5 -28 29q4 6 11 14.5t35 23t62 14.5q33 0 79.5 -25.5t77.5 -25.5q21 0 40 9t27 18l9 9q24 -4 30 -28q-1 -2 -3.5 -5.5t-12.5 -13t-21.5 -16.5t-31 -12.5t-41.5 -5.5q-33 0 -79.5 25.5t-77.5 25.5zM188 207q-21 0 -40 -9t-28 -18
l-8 -9q-23 5 -28 29q4 6 11 14.5t35 23t62 14.5q33 0 79.5 -25.5t77.5 -25.5q21 0 40 9t27 18l9 9q23 -4 30 -28q-1 -2 -3.5 -5.5t-12.5 -13t-21.5 -16.5t-31 -12.5t-41.5 -5.5q-33 0 -79.5 25.5t-77.5 25.5z" />
    <glyph glyph-name="notequal" unicode="&#x2260;" horiz-adv-x="473" 
d="M194 184l-52 -95q-12 -4 -23 -4q-8 0 -20 4l53 95h-84q-4 12 -4 21t4 21h107l70 128h-177q-4 12 -4 21t4 21h201l48 87q12 4 22 4q9 0 21 -4l-49 -87h93q4 -12 4 -21t-4 -21h-116l-71 -128h187q4 -12 4 -21t-4 -21h-210z" />
    <glyph glyph-name="lessequal" unicode="&#x2264;" horiz-adv-x="470" 
d="M381 226l-294 117q-4 11 -4 27l4 26l294 117q4 -6 4 -22l-4 -23l-249 -99l249 -97q4 -7 4 -23zM381 119h-294q-4 6 -4 21l4 21h294q4 -7 4 -21z" />
    <glyph glyph-name="greaterequal" unicode="&#x2265;" horiz-adv-x="471" 
d="M383 343l-294 -117q-4 8 -4 23l4 23l249 97l-249 99q-4 8 -4 23l4 22l294 -117q4 -10 4 -26zM383 119h-294q-4 7 -4 21l4 21h294q4 -7 4 -21z" />
    <glyph glyph-name="lozenge" unicode="&#x25ca;" horiz-adv-x="547" 
d="M262 7l-210 345l210 344h23l213 -344l-213 -345h-23zM446 351l-172 282l-169 -282l169 -282z" />
    <glyph glyph-name="commaaccentcomb" unicode="&#xf6c3;" horiz-adv-x="0" 
d="M67 -102l-22 15q30 30 34 87l-22 4v56q11 4 32 4l32 -4v-40q0 -36 -13.5 -66.5t-27.5 -43.5z" />
    <glyph glyph-name="CR" horiz-adv-x="322" 
 />
    <glyph glyph-name="_0020" horiz-adv-x="0" 
 />
    <glyph glyph-name="_375" horiz-adv-x="646" 
d="M299 716q16 4 27 4t27 -4l262 -685q-6 -20 -20 -31h-544q-16 13 -19 31zM325 657h-2q-17 -61 -29 -90l-205 -521h467l-202 522q-12 28 -29 89z" />
    <glyph glyph-name="_376" horiz-adv-x="700" 
d="M641 0h-231q-14 24 0 50q25 21 47.5 46t51.5 67t46.5 98.5t17.5 118.5q0 153 -59.5 229t-164.5 76t-164.5 -76t-59.5 -229q0 -62 17.5 -118.5t46.5 -98.5t51.5 -67t47.5 -46q11 -24 0 -50h-231q-5 12 -5 23q0 15 5 24h165l-10 9q-9 10 -16.5 18t-20.5 23.5t-23.5 31.5
t-23.5 37t-22.5 44.5t-18 50t-13 57t-4.5 62.5q0 178 74.5 264t204.5 86t204.5 -86t74.5 -264q0 -35 -6 -70t-15.5 -62.5t-22.5 -54.5t-25.5 -46.5t-27.5 -38.5t-24.5 -29t-19.5 -20.5t-11 -11.5h165q5 -13 5 -23q0 -6 -5 -24z" />
    <glyph glyph-name="commaaccentcomb.alt" horiz-adv-x="0" 
d="M101 720l21 -16q-30 -29 -35 -87l24 -3v-57q-11 -4 -32 -4l-32 4v41q0 36 13.5 66.5t27.5 43.5z" />
    <glyph glyph-name="eight.denom" horiz-adv-x="320" 
d="M52 265q0 38 28 60.5t80 22.5q50 0 78.5 -22t28.5 -61q0 -56 -56 -90q68 -33 68 -88q0 -43 -31 -67.5t-87 -24.5q-55 0 -87.5 23.5t-32.5 67.5q0 62 66 100q-55 30 -55 79zM232 263q0 56 -73 56q-34 0 -52.5 -14t-18.5 -38q0 -7 1.5 -13.5t5.5 -12.5t6.5 -10t10.5 -9
t11.5 -8t14 -7.5l14 -6t16 -7t15.5 -6.5q49 32 49 76zM243 85q0 15 -5.5 26.5t-19.5 21t-22.5 14.5t-31 14t-28.5 12q-60 -33 -60 -85q0 -63 86 -63q36 0 58.5 15.5t22.5 44.5z" />
    <glyph glyph-name="eight.num" horiz-adv-x="320" 
d="M52 611q0 38 28 60.5t80 22.5q50 0 78.5 -22t28.5 -61q0 -56 -56 -90q68 -33 68 -88q0 -43 -31 -67.5t-87 -24.5q-55 0 -87.5 23.5t-32.5 67.5q0 62 66 100q-55 30 -55 79zM232 609q0 56 -73 56q-34 0 -52.5 -14t-18.5 -38q0 -7 1.5 -13.5t5.5 -12.5t6.5 -10t10.5 -9
t11.5 -8t14 -7.5l14 -6t16 -7t15.5 -6.5q49 32 49 76zM243 431q0 15 -5.5 26.5t-19.5 21t-22.5 14.5t-31 14t-28.5 12q-60 -33 -60 -85q0 -63 86 -63q36 0 58.5 15.5t22.5 44.5z" />
    <glyph glyph-name="five.denom" horiz-adv-x="295" 
d="M95 310v-104q81 0 121.5 -24t40.5 -83q0 -104 -133 -104q-23 0 -45 3.5t-33 7.5l-10 4q-2 16 9 27q35 -11 76 -11q99 0 99 72q0 43 -29.5 59.5t-96.5 16.5h-34v169h178q7 -17 0 -33h-143z" />
    <glyph glyph-name="five.num" horiz-adv-x="295" 
d="M95 656v-104q81 0 121.5 -24t40.5 -83q0 -104 -133 -104q-23 0 -45 3.5t-33 7.5l-10 4q-2 16 9 27q35 -11 76 -11q99 0 99 72q0 43 -29.5 59.5t-96.5 16.5h-34v169h178q7 -17 0 -33h-143z" />
    <glyph glyph-name="four.denom" horiz-adv-x="320" 
d="M244 124h42q3 -9 3 -15q0 -10 -3 -16h-42v-90q-6 -3 -15 -3q-11 0 -17 3v90h-180q-3 6 -3 12q0 5 3 11l177 224q9 3 18 3q11 0 17 -3v-216zM212 295l-136 -171h136v171z" />
    <glyph glyph-name="four.num" horiz-adv-x="321" 
d="M244 470h42q3 -9 3 -15q0 -10 -3 -16h-42v-90q-6 -3 -15 -3q-11 0 -17 3v90h-180q-3 6 -3 12q0 5 3 11l177 224q9 3 18 3q11 0 17 -3v-216zM212 641l-136 -171h136v171z" />
    <glyph glyph-name="g.alt" horiz-adv-x="554" 
d="M418 26v53q-50 -89 -161 -89q-95 0 -145 63t-50 210t50 210t145 63q111 0 161 -90v76q7 4 25 4l25 -4v-496q0 -146 -46.5 -211t-173.5 -65q-38 0 -73.5 7t-51.5 13l-16 7q0 27 15 38q58 -20 122 -20q97 0 135.5 48t38.5 183zM115 263q0 -123 36.5 -176t120.5 -53
q49 0 83.5 28t48 62.5t14.5 70.5v135q-1 36 -14.5 71t-48 63t-83.5 28q-84 0 -120.5 -53t-36.5 -176z" />
    <glyph glyph-name="gbreve.alt" horiz-adv-x="554" 
d="M420 684q-5 -6 -15 -15.5t-45 -25t-75 -15.5t-73.5 14t-47.5 28l-14 14q6 20 24 27q44 -40 111 -40q30 0 57.5 10t40.5 20l13 10q19 -6 24 -27zM418 26v53q-50 -89 -161 -89q-95 0 -145 63t-50 210t50 210t145 63q111 0 161 -90v76q7 4 25 4l25 -4v-496
q0 -146 -46.5 -211t-173.5 -65q-38 0 -73.5 7t-51.5 13l-16 7q0 27 15 38q58 -20 122 -20q97 0 135.5 48t38.5 183zM115 263q0 -123 36.5 -176t120.5 -53q49 0 83.5 28t48 62.5t14.5 70.5v135q-1 36 -14.5 71t-48 63t-83.5 28q-84 0 -120.5 -53t-36.5 -176z" />
    <glyph glyph-name="gcircumflex.alt" horiz-adv-x="554" 
d="M287 739l125 -103q-8 -21 -24 -25l-114 83l-113 -84q-18 7 -24 26l125 103h25zM418 26v53q-50 -89 -161 -89q-95 0 -145 63t-50 210t50 210t145 63q111 0 161 -90v76q7 4 25 4l25 -4v-496q0 -146 -46.5 -211t-173.5 -65q-38 0 -73.5 7t-51.5 13l-16 7q0 27 15 38
q58 -20 122 -20q97 0 135.5 48t38.5 183zM115 263q0 -123 36.5 -176t120.5 -53q49 0 83.5 28t48 62.5t14.5 70.5v135q-1 36 -14.5 71t-48 63t-83.5 28q-84 0 -120.5 -53t-36.5 -176z" />
    <glyph glyph-name="gcommaaccent.alt" horiz-adv-x="554" 
d="M287 761l21 -15q-29 -29 -34 -84l22 -3v-54q-10 -4 -31 -4l-32 4v39q0 34 13.5 63.5t27.5 41.5zM418 26v53q-50 -89 -161 -89q-95 0 -145 63t-50 210t50 210t145 63q111 0 161 -90v76q7 4 25 4l25 -4v-496q0 -146 -46.5 -211t-173.5 -65q-38 0 -73.5 7t-51.5 13l-16 7
q0 27 15 38q58 -20 122 -20q97 0 135.5 48t38.5 183zM115 263q0 -123 36.5 -176t120.5 -53q49 0 83.5 28t48 62.5t14.5 70.5v135q-1 36 -14.5 71t-48 63t-83.5 28q-84 0 -120.5 -53t-36.5 -176z" />
    <glyph glyph-name="gdotaccent.alt" horiz-adv-x="554" 
d="M304 707v-54q-10 -4 -30 -4l-30 4v54q9 4 30 4zM418 26v53q-50 -89 -161 -89q-95 0 -145 63t-50 210t50 210t145 63q111 0 161 -90v76q7 4 25 4l25 -4v-496q0 -146 -46.5 -211t-173.5 -65q-38 0 -73.5 7t-51.5 13l-16 7q0 27 15 38q58 -20 122 -20q97 0 135.5 48
t38.5 183zM115 263q0 -123 36.5 -176t120.5 -53q49 0 83.5 28t48 62.5t14.5 70.5v135q-1 36 -14.5 71t-48 63t-83.5 28q-84 0 -120.5 -53t-36.5 -176z" />
    <glyph glyph-name="nine.denom" horiz-adv-x="307" 
d="M35 242q0 51 32.5 78.5t80.5 27.5q57 0 87.5 -37.5t30.5 -110.5q0 -85 -48 -139.5t-143 -63.5q-9 13 -2 29q138 19 153 136q-37 -22 -84 -22q-50 0 -78.5 27.5t-28.5 74.5zM230 197q-2 121 -82 121q-35 0 -55.5 -20t-20.5 -56q0 -32 20 -51.5t54 -19.5q52 0 84 26z" />
    <glyph glyph-name="nine.num" horiz-adv-x="307" 
d="M35 588q0 51 32.5 78.5t80.5 27.5q57 0 87.5 -37.5t30.5 -110.5q0 -85 -48 -139.5t-143 -63.5q-9 13 -2 29q138 19 153 136q-37 -22 -84 -22q-50 0 -78.5 27.5t-28.5 74.5zM230 543q-2 121 -82 121q-35 0 -55.5 -20t-20.5 -56q0 -32 20 -51.5t54 -19.5q52 0 84 26z" />
    <glyph glyph-name="_300" horiz-adv-x="0" 
 />
    <glyph glyph-name="one.denom" horiz-adv-x="240" 
d="M30 271q68 18 114 69q6 3 18 3t16 -3v-337q-6 -3 -17 -3t-18 3v252q0 29 1 41q-43 -39 -106 -55q-11 11 -8 30z" />
    <glyph glyph-name="one.num" horiz-adv-x="256" 
d="M30 617q68 18 114 69q6 3 18 3t16 -3v-337q-6 -3 -16 -3q-13 0 -19 3v252q0 29 1 41q-43 -39 -106 -55q-11 11 -8 30z" />
    <glyph glyph-name="seven.denom" horiz-adv-x="273" 
d="M206 310h-174q-3 6 -3 16q0 8 3 17h209q3 -10 3 -24q0 -38 -13.5 -69t-32 -54t-37.5 -47.5t-32.5 -62t-13.5 -84.5q-10 -2 -19 -2t-17 2q0 50 12 88.5t30 63.5t36 47t32 49.5t17 59.5z" />
    <glyph glyph-name="seven.num" horiz-adv-x="274" 
d="M33 689h209q3 -11 3 -24q0 -38 -13.5 -69t-32.5 -54t-37.5 -47.5t-32 -62t-13.5 -84.5q-19 -5 -36 0q0 50 12 88.5t30 63.5t36 47t32 49.5t17 59.5h-174q-8 16 0 33z" />
    <glyph glyph-name="six.denom" horiz-adv-x="307" 
d="M41 143q0 85 49 139.5t144 63.5q7 -14 0 -29q-66 -9 -106 -44t-47 -92q38 22 84 22q50 0 78.5 -27.5t28.5 -74.5q0 -51 -32.5 -78.5t-79.5 -27.5q-58 0 -88.5 37.5t-30.5 110.5zM235 101q0 32 -19.5 51.5t-54.5 19.5q-50 0 -83 -26q0 -121 82 -121q34 0 54.5 20t20.5 56z
" />
    <glyph glyph-name="six.num" horiz-adv-x="307" 
d="M41 491q0 84 49 139t144 64q7 -15 0 -30q-66 -8 -106 -43t-47 -93q36 23 84 23q50 0 78.5 -27.5t28.5 -74.5q0 -52 -32 -79t-80 -27q-58 0 -88.5 37.5t-30.5 110.5zM235 449q0 32 -19.5 51.5t-54.5 19.5q-53 0 -83 -27q0 -121 82 -121q34 0 54.5 20.5t20.5 56.5z" />
    <glyph glyph-name="three.denom" horiz-adv-x="300" 
d="M258 93q0 -98 -132 -98q-23 0 -45 3.5t-33 7.5l-10 4q-2 17 9 26q35 -10 77 -10q56 0 77 18.5t21 50.5q0 69 -81 69h-44q-7 16 0 31h44q34 0 51.5 16.5t17.5 44.5q0 61 -77 61q-20 0 -39.5 -2.5t-29.5 -4.5l-9 -2q-10 10 -8 27q35 13 88 13q55 0 83.5 -23t28.5 -66
q0 -55 -47 -78q58 -23 58 -88z" />
    <glyph glyph-name="three.num" horiz-adv-x="300" 
d="M258 439q0 -98 -132 -98q-23 0 -45 3.5t-33 7.5l-10 4q-2 17 9 26q35 -10 77 -10q56 0 77 18.5t21 50.5q0 69 -81 69h-44q-7 16 0 31h44q34 0 51.5 16.5t17.5 44.5q0 61 -77 61q-20 0 -39.5 -2.5t-29.5 -4.5l-9 -2q-10 10 -8 27q35 13 88 13q55 0 83.5 -23t28.5 -66
q0 -55 -47 -78q58 -23 58 -88z" />
    <glyph glyph-name="two.denom" horiz-adv-x="300" 
d="M35 41q0 38 19.5 64.5t46.5 41t54.5 27.5t47 32.5t19.5 46.5q0 63 -83 64q-53 0 -73 -10q-11 13 -8 28q35 13 86 13q58 0 86 -24.5t28 -67.5q0 -35 -19.5 -59.5t-47.5 -39t-55.5 -28.5t-46.5 -38t-18 -58h182q4 -7 4 -17q0 -9 -4 -16h-214q-4 18 -4 41z" />
    <glyph glyph-name="two.num" horiz-adv-x="300" 
d="M35 387q0 38 19.5 64.5t46.5 41t54.5 27.5t47 32.5t19.5 46.5q0 64 -83 64q-43 0 -73 -10q-11 13 -8 28q35 13 86 13q58 0 86 -24.5t28 -67.5q0 -35 -19.5 -59.5t-47.5 -39t-55.5 -28.5t-46.5 -38t-18 -58h182q4 -7 4 -17q0 -9 -4 -16h-214q-4 18 -4 41z" />
    <glyph glyph-name="zero.denom" horiz-adv-x="343" 
d="M171 -5q-66 0 -97 42.5t-31 134.5q0 90 31.5 133t96.5 43q129 0 129 -176q0 -177 -129 -177zM171 317q-49 0 -70.5 -34t-21.5 -111q0 -78 21.5 -111.5t70.5 -33.5q48 0 69.5 33.5t21.5 111.5q0 76 -21.5 110.5t-69.5 34.5z" />
    <glyph glyph-name="zero.num" horiz-adv-x="343" 
d="M171 341q-66 0 -97 42.5t-31 134.5q0 90 31.5 133t96.5 43t97 -42.5t32 -133.5t-32 -134t-97 -43zM171 663q-49 0 -70 -34t-21 -111q0 -78 21 -111.5t70 -33.5q48 0 70 34t22 111q0 76 -22 110.5t-70 34.5z" />
    </font>
</defs>
</svg>
