<?xml version="1.0" standalone="no"?>
<!DOCTYPE svg PUBLIC "-//W3C//DTD SVG 1.1//EN" "http://www.w3.org/Graphics/SVG/1.1/DTD/svg11.dtd" >
<svg xmlns="http://www.w3.org/2000/svg" xmlns:xlink="http://www.w3.org/1999/xlink" version="1.1">
<metadata>
Created by FontForge 20170731 at Fri Feb  7 20:02:08 2014
 By Aleksey,,,
Copyright (c) 2014 by Fontfabric LLC. All rights reserved.
</metadata>
<defs>
<font id="GloberxBoldItalic" horiz-adv-x="558" >
  <font-face 
    font-family="Glober xBold Italic"
    font-weight="800"
    font-style="italic"
    font-stretch="normal"
    units-per-em="1000"
    panose-1="0 0 0 0 0 0 0 0 0 0"
    ascent="750"
    descent="-250"
    x-height="530"
    cap-height="720"
    bbox="-245 -349 1055 1080"
    underline-thickness="50"
    underline-position="-200"
    unicode-range="U+0020-FB02"
  />
<missing-glyph horiz-adv-x="618" 
d="M422 0h-538l153 720h538zM416 487q16 76 -23.5 111t-114.5 35q-37 0 -71 -7.5t-50 -14.5l-16 -7q-14 -45 16 -72q35 19 88 19q38 0 56.5 -14.5t10.5 -53.5q-6 -29 -22 -49t-35.5 -32.5t-39.5 -28t-38 -46.5t-28 -77q13 -10 38 -10q12 0 22 2.5t14 5.5l4 2q7 31 25.5 52.5
t42 35.5t47.5 30.5t44.5 46t29.5 72.5zM224 179q-17 7 -50 7q-16 0 -28.5 -2t-17.5 -4l-5 -1l-20 -92q14 -6 49 -6q15 0 28 1.5t18 3.5l6 1z" />
    <glyph glyph-name="fi" unicode="fi" horiz-adv-x="600" 
d="M152 586q35 164 243 164q65 0 122.5 -9t82.5 -19l26 -9q-15 -57 -63 -103q-72 22 -175 22q-73 0 -84 -52l-10 -50h221q22 0 41 -2t26 -4l8 -2l-109 -514q-29 -8 -79 -8q-23 0 -42 2t-26 4l-7 2l86 408h-144l-86 -408q-29 -8 -79 -8q-23 0 -41.5 2t-26.5 4l-7 2l86 408
h-64q-1 23 7 58q3 15 7.5 29t7.5 21l3 6h64z" />
    <glyph glyph-name="fl" unicode="fl" horiz-adv-x="601" 
d="M152 586q35 164 243 164q56 0 115 -9t90 -19l31 -9l-150 -705q-29 -8 -79 -8q-23 0 -42 2t-26 4l-7 2l132 621q-63 3 -71 3q-73 0 -84 -52l-10 -50h73q0 -29 -7 -57q-7 -33 -18 -57h-73l-86 -408q-29 -8 -79 -8q-23 0 -41.5 2t-26.5 4l-7 2l86 408h-64q2 32 7 56
q10 40 18 58h64z" />
    <glyph glyph-name=".notdef" horiz-adv-x="618" 
d="M422 0h-538l153 720h538zM416 487q16 76 -23.5 111t-114.5 35q-37 0 -71 -7.5t-50 -14.5l-16 -7q-14 -45 16 -72q35 19 88 19q38 0 56.5 -14.5t10.5 -53.5q-6 -29 -22 -49t-35.5 -32.5t-39.5 -28t-38 -46.5t-28 -77q13 -10 38 -10q12 0 22 2.5t14 5.5l4 2q7 31 25.5 52.5
t42 35.5t47.5 30.5t44.5 46t29.5 72.5zM224 179q-17 7 -50 7q-16 0 -28.5 -2t-17.5 -4l-5 -1l-20 -92q14 -6 49 -6q15 0 28 1.5t18 3.5l6 1z" />
    <glyph glyph-name=".null" horiz-adv-x="0" 
 />
    <glyph glyph-name="nonmarkingreturn" horiz-adv-x="333" 
 />
    <glyph glyph-name="space" unicode=" " horiz-adv-x="201" 
 />
    <glyph glyph-name="exclam" unicode="!" horiz-adv-x="297" 
d="M67 218l84 494q31 8 85 8q23 0 43.5 -2t29.5 -4l9 -2l-126 -494q-25 -9 -64 -9q-17 0 -32.5 2.5t-21.5 4.5zM193 151l-30 -143q-30 -8 -79 -8q-23 0 -42 2t-26 4l-7 2l30 143q26 8 79 8q22 0 40.5 -2t26.5 -4z" />
    <glyph glyph-name="quotedbl" unicode="&#x22;" horiz-adv-x="395" 
d="M100 493l23 219q25 8 74 8q20 0 38 -2t25 -4l8 -2l-69 -219q-19 -7 -52 -7q-14 0 -26 2t-17 4zM273 493l23 219q26 8 75 8q20 0 37.5 -2t25.5 -4l7 -2l-69 -219q-19 -7 -51 -7q-15 0 -27 2t-16 4z" />
    <glyph glyph-name="numbersign" unicode="#" horiz-adv-x="675" 
d="M542 614q30 9 66 9q35 0 59 -9l-52 -106h69q2 -31 -4 -54q-5 -29 -21 -63h-102l-83 -168h66q4 -22 -4 -59q-4 -16 -9 -30.5t-9 -21.5l-3 -7h-99l-47 -96q-29 -9 -63 -9q-36 0 -62 9l46 96h-101l-46 -96q-30 -9 -67 -9q-34 0 -59 9l47 96h-73q-3 21 5 58q4 18 9 33t8 21
l3 6h106l83 168h-70q-3 25 5 59q6 33 20 58h103l52 106q30 9 63 9q38 0 63 -9l-52 -106h101zM330 391l-83 -168h101l83 168h-101z" />
    <glyph glyph-name="dollar" unicode="$" horiz-adv-x="566" 
d="M326 781q25 8 63 8q18 0 33.5 -2t21.5 -4l6 -2l-33 -113q40 -3 78.5 -10t56.5 -12l19 -6q-4 -26 -22 -59q-7 -14 -17 -26.5t-16 -18.5l-6 -6q-65 19 -138 19q-126 0 -139 -63q-5 -24 17 -41t58.5 -25.5t78 -24t76 -35.5t51.5 -60.5t5 -97.5q-38 -176 -244 -198l-17 -125
q-22 -8 -63 -8q-17 0 -32 2t-22 4l-7 2l35 123q-50 3 -96 14t-67 20l-20 9q2 24 19 58q8 15 17.5 28.5t15.5 19.5l5 6q88 -28 185 -28q119 0 132 63q5 24 -10.5 40.5t-43.5 26.5t-62.5 19t-68 23t-59.5 33.5t-37.5 54.5t-1.5 83q17 81 77 130.5t156 62.5z" />
    <glyph glyph-name="percent" unicode="%" horiz-adv-x="765" 
d="M719 695l-534 -698q-20 -7 -59 -7q-17 0 -31 2t-19 4l-6 1l534 698q19 7 58 7q17 0 31 -2t20 -4zM181 344q-147 0 -110 174q36 174 184 174t111 -174t-185 -174zM238 612q-22 0 -35 -18.5t-25 -75.5q-11 -61 -6 -76.5t27 -15.5q21 0 34 17.5t25 74.5q11 60 6 77t-26 17z
M524 -10q-147 0 -110 174q36 174 184 174t111 -174t-185 -174zM581 258q-22 0 -35 -18.5t-25 -75.5q-11 -61 -6.5 -76.5t26.5 -15.5t35 17.5t25 74.5q11 60 6 77t-26 17z" />
    <glyph glyph-name="ampersand" unicode="&#x26;" horiz-adv-x="647" 
d="M399 690q78 0 116 -34.5t25 -96.5q-14 -66 -64.5 -113t-132.5 -93q29 -62 87 -125q25 29 56 81q33 1 59.5 -13t37.5 -37q-31 -47 -77 -94q44 -31 97 -55q-10 -36 -39 -67.5t-60 -43.5q-64 27 -115 65q-105 -74 -221 -74q-89 0 -138.5 43.5t-31.5 129.5q26 125 187 211
q-16 79 -2 150q16 77 71 121.5t145 44.5zM373 599q-46 0 -59 -63q-9 -46 1 -95q78 50 91 113q4 20 -4.5 32.5t-28.5 12.5zM213 103q50 0 102 28q-63 67 -99 152q-62 -47 -73 -100q-7 -36 12 -58t58 -22z" />
    <glyph glyph-name="quotesingle" unicode="'" horiz-adv-x="222" 
d="M99 493l24 219q25 8 74 8q20 0 38 -2t25 -4l8 -2l-69 -219q-20 -7 -52 -7q-14 0 -26 2t-17 4z" />
    <glyph glyph-name="parenleft" unicode="(" horiz-adv-x="302" 
d="M332 795q13 -8 22.5 -18.5t11.5 -16.5l3 -6q-5 -7 -14.5 -19.5t-35 -56t-48 -90.5t-48.5 -120t-42 -148q-25 -135 -24 -231.5t15 -149.5l13 -53q-16 -25 -55 -42q-17 -7 -33 -11t-24 -4h-8l-8.5 25.5t-16.5 69t-16.5 107t-2.5 134t19 155.5t46 154.5t61.5 136t60 104.5
t46.5 71l19 25q29 2 59 -16z" />
    <glyph glyph-name="parenright" unicode=")" horiz-adv-x="302" 
d="M127 320q25 135 24 231.5t-15 149.5l-14 53q17 23 55 41q17 8 33 12t24 4h8l8.5 -25.5t16.5 -69t16.5 -107t2.5 -134t-19 -155.5t-46 -154.5t-61.5 -136t-60 -104.5t-47.5 -71l-18 -25q-29 -1 -59 15q-15 8 -24 18.5t-11 17.5l-2 6q5 7 14.5 19.5t35.5 56t48.5 90.5
t48.5 120t42 148z" />
    <glyph glyph-name="asterisk" unicode="*" horiz-adv-x="327" 
d="M196 642l16 73q39 12 75 -1l-16 -72l76 22q16 -25 6 -70l-74 -23l32 -61q-34 -32 -72 -42l-29 59l-55 -59q-33 10 -54 42l56 60l-63 24q10 46 38 70z" />
    <glyph glyph-name="plus" unicode="+" horiz-adv-x="454" 
d="M157 235h-133q-3 21 5 55q3 15 7.5 29t7.5 20l3 6h133l29 134q22 7 56 7q15 0 28.5 -2t19.5 -4l6 -1l-29 -134h134q3 -21 -4 -55q-4 -15 -8.5 -29t-7.5 -20l-3 -6h-134l-28 -133q-23 -8 -57 -8q-15 0 -28.5 2t-19.5 4l-5 2z" />
    <glyph glyph-name="comma" unicode="," horiz-adv-x="254" 
d="M21 -148l-47 38q43 41 62 110l-48 8l30 143q30 8 79 8q21 0 40 -2t27 -4l8 -2l-22 -103q-8 -36 -24 -69t-33.5 -55t-34 -39t-26.5 -25z" />
    <glyph glyph-name="hyphen" unicode="-" horiz-adv-x="350" 
d="M273 235h-227q-3 21 5 55q3 15 7.5 29t7.5 20l3 6h227q3 -21 -4 -55q-4 -15 -8.5 -29t-7.5 -20z" />
    <glyph glyph-name="period" unicode="." horiz-adv-x="254" 
d="M172 151l-30 -143q-29 -8 -79 -8q-23 0 -42 2t-26 4l-7 2l30 143q27 8 79 8q22 0 41 -2t26 -4z" />
    <glyph glyph-name="slash" unicode="/" horiz-adv-x="527" 
d="M-53 -38l498 779q33 9 79 9q21 0 40.5 -2t27.5 -4l9 -3l-498 -779q-33 -9 -79 -9q-21 0 -40.5 2.5t-27.5 4.5z" />
    <glyph glyph-name="zero" unicode="0" horiz-adv-x="624" 
d="M244 -14q-133 0 -182 85t-10 269q39 183 124.5 268.5t217.5 85.5q133 0 183 -85t10 -269q-39 -184 -124.5 -269t-218.5 -85zM368 568q-53 0 -87 -46.5t-63 -181.5q-22 -92 -18.5 -143t20 -68t51.5 -17q53 0 85.5 46.5t61.5 181.5q22 93 19.5 143.5t-18.5 67.5t-51 17z
" />
    <glyph glyph-name="one" unicode="1" horiz-adv-x="428" 
d="M67 549q122 34 204 126q30 9 80 9q22 0 41 -2t28 -4l8 -3l-141 -666q-30 -9 -80 -9q-21 0 -40.5 2t-28.5 4l-9 3l82 387q11 49 23 94q-67 -45 -152 -64q-19 20 -23.5 53t8.5 70z" />
    <glyph glyph-name="two" unicode="2" horiz-adv-x="538" 
d="M150 543q-41 38 -20 109q93 42 214 42q110 0 163.5 -49.5t33.5 -146.5q-18 -84 -70 -133.5t-163 -108.5q-11 -6 -43.5 -22t-47.5 -25t-32.5 -25.5t-23.5 -35.5q-1 -5 -1 -16h283q7 -27 -1 -66t-27 -66h-436q-1 34 8 74q8 37 21.5 68.5t35.5 58t40.5 45.5t50.5 41t49.5 33
t53.5 32q75 45 104 73.5t38 68.5q8 37 -15.5 56t-72.5 19q-31 0 -66.5 -6.5t-55.5 -12.5z" />
    <glyph glyph-name="three" unicode="3" horiz-adv-x="532" 
d="M466 188q-42 -198 -311 -198q-53 0 -98.5 9t-64.5 19l-18 9q5 29 22.5 60t38.5 49q65 -20 138 -20q64 0 96.5 20.5t42.5 70.5q10 47 -9.5 68.5t-76.5 21.5h-91q-8 61 25 118h91q86 0 101 76q9 42 -12 61t-72 19q-33 0 -65 -5t-47 -10l-16 -5q-20 17 -26.5 45.5t1.5 59.5
q83 38 194 38q114 0 168 -47t35 -138q-23 -109 -118 -149q100 -43 72 -172z" />
    <glyph glyph-name="four" unicode="4" horiz-adv-x="589" 
d="M23 276l376 399q31 9 81 9q22 0 40.5 -2t25.5 -4l8 -3l-84 -399h78q4 -22 -4 -61q-4 -17 -9.5 -32t-8.5 -21l-4 -7h-78l-31 -146q-29 -9 -74 -9q-21 0 -39 2t-26 4l-8 3l31 146h-300q-6 21 3 60q4 17 9.5 32.5t9.5 22.5zM367 483l-196 -207h152z" />
    <glyph glyph-name="five" unicode="5" horiz-adv-x="528" 
d="M279 556l-29 -135q26 0 55 -3q207 -14 165 -211q-23 -106 -104 -161.5t-215 -55.5q-55 0 -99.5 9t-61.5 18l-18 9q13 67 59 109q59 -19 136 -19q126 0 145 91q11 53 -14 73.5t-96 20.5t-128 -4l82 387h382q8 -66 -27 -128h-232z" />
    <glyph glyph-name="six" unicode="6" horiz-adv-x="552" 
d="M525 684q10 -59 -25 -121q-94 -10 -155 -44.5t-99 -102.5q50 11 89 11q95 0 143 -55t24 -167q-23 -109 -97.5 -162t-189.5 -53t-163.5 66.5t-19.5 202.5q43 201 169.5 307.5t323.5 117.5zM344 205q23 106 -64 106q-38 0 -82 -14q-3 -11 -10 -42q-32 -151 51 -151
q82 0 105 101z" />
    <glyph glyph-name="seven" unicode="7" horiz-adv-x="501" 
d="M112 684h440q1 -34 -9 -79q-15 -63 -52.5 -120t-82.5 -104t-90.5 -97.5t-84.5 -122t-57 -155.5q-28 -6 -75 -6q-49 0 -74 6q19 89 54 162.5t76.5 124t81.5 91.5t79 85t59 85h-292q-4 26 5 66q4 18 9.5 34t8.5 23z" />
    <glyph glyph-name="eight" unicode="8" horiz-adv-x="582" 
d="M219 -14q-114 0 -169 48t-37 137q24 108 153 173q-84 62 -61 169q17 83 88.5 132t178.5 49q104 0 154 -45t33 -125q-20 -96 -119 -158q101 -69 76 -185q-20 -92 -98 -143.5t-199 -51.5zM350 584q-78 0 -93 -65q-7 -34 16.5 -55.5t75.5 -47.5q56 40 68 96q15 72 -67 72z
M248 102q44 0 74.5 20.5t37.5 55.5q4 19 -0.5 34t-25 30.5t-29 20.5t-43.5 23q-6 3 -9 5q-76 -47 -90 -112q-8 -36 14 -56.5t71 -20.5z" />
    <glyph glyph-name="nine" unicode="9" horiz-adv-x="552" 
d="M43 0q-8 63 26 121q92 8 152 43t99 103q-43 -10 -87 -10q-95 0 -142.5 54.5t-24.5 165.5q47 217 286 217q115 0 164 -66.5t20 -202.5q-43 -201 -169.5 -307.5t-323.5 -117.5zM224 477q-22 -105 63 -105q37 0 82 13q7 26 11 44q33 151 -52 151q-81 0 -104 -103z" />
    <glyph glyph-name="colon" unicode=":" horiz-adv-x="263" 
d="M253 518l-30 -143q-29 -8 -79 -8q-23 0 -42 2t-26 4l-7 2l30 143q27 8 79 8q22 0 41 -2t27 -4zM175 151l-30 -143q-29 -8 -79 -8q-23 0 -42 2t-26 4l-7 2l30 143q27 8 79 8q22 0 41 -2t27 -4z" />
    <glyph glyph-name="semicolon" unicode=";" horiz-adv-x="263" 
d="M253 518l-30 -143q-29 -8 -79 -8q-23 0 -42 2t-26 4l-7 2l30 143q27 8 79 8q22 0 41 -2t27 -4zM24 -148l-47 38q43 41 62 110l-48 8l30 143q28 8 79 8q21 0 40 -2t27 -4l8 -2l-22 -103q-8 -36 -24 -69t-33.5 -55t-34 -39t-27.5 -25z" />
    <glyph glyph-name="less" unicode="&#x3c;" horiz-adv-x="425" 
d="M320 90l-297 143q-1 24 6 58q3 16 8 30t8 20l3 6l357 143q3 -18 -5 -55q-3 -16 -7.5 -30t-7.5 -20l-3 -6l-225 -91l186 -88q4 -18 -4 -55q-4 -16 -8.5 -29.5t-7.5 -19.5z" />
    <glyph glyph-name="equal" unicode="=" horiz-adv-x="515" 
d="M454 331h-384q-2 62 24 110h384q5 -52 -24 -110zM413 138h-384q-2 62 24 110h384q5 -52 -24 -110z" />
    <glyph glyph-name="greater" unicode="&#x3e;" horiz-adv-x="425" 
d="M371 233l-357 -143q-3 19 5 55q4 16 8.5 30t6.5 19l3 6l223 88l-184 91q-3 20 4 56q4 16 8.5 30t7.5 19l3 6l297 -143q2 -21 -5 -56q-3 -15 -8 -29.5t-9 -21.5z" />
    <glyph glyph-name="question" unicode="?" horiz-adv-x="449" 
d="M465 512q-9 -44 -29 -77t-43.5 -51t-49.5 -35.5t-48 -31t-40 -36t-24 -52.5q-23 -12 -65 -12q-18 0 -33 3t-21 6l-6 3q12 56 34.5 94.5t47.5 57.5t49 34t42.5 35.5t25.5 51.5q8 38 -11.5 53t-62.5 15q-28 0 -55 -6t-40 -12l-14 -5q-44 36 -23 107q74 36 181 36
q100 0 152.5 -41.5t32.5 -136.5zM229 151l-30 -143q-30 -8 -79 -8q-23 0 -42 2t-26 4l-7 2l30 143q26 8 79 8q22 0 40.5 -2t26.5 -4z" />
    <glyph glyph-name="at" unicode="@" horiz-adv-x="911" 
d="M868 303q-22 -105 -87 -161.5t-152 -56.5q-105 0 -129 55q-49 -55 -140 -55q-156 0 -114 193q41 194 196 194q74 0 103 -32l6 27q20 10 64 10q20 0 34.5 -2.5t19.5 -4.5l5 -3l-50 -236q-11 -52 31 -52q69 0 95 124q28 132 -28.5 208.5t-189.5 76.5q-143 0 -240 -81
t-128 -228q-15 -83 -4.5 -140t47.5 -92t85.5 -51t109.5 -16q135 0 264 66q33 -18 28 -73q-157 -92 -318 -92q-81 0 -150.5 27.5t-119 81t-68 131.5t1.5 180q39 185 178.5 283.5t333.5 98.5q185 0 269 -102.5t47 -277.5zM379 278q-12 -62 -1.5 -83.5t47.5 -21.5q61 0 78 66
l17 82q4 31 -9 47.5t-41 16.5q-37 0 -57 -22t-34 -85z" />
    <glyph glyph-name="A" unicode="A" horiz-adv-x="672" 
d="M321 711q40 9 103 9q29 0 54 -2t35 -4l10 -3l79 -702q-30 -9 -86 -9q-23 0 -40.5 2t-23.5 4l-6 3l-16 146h-251l-78 -146q-36 -9 -85 -9q-21 0 -39 2t-25 4l-8 3zM394 570h-4q-18 -54 -52 -117l-97 -181h177l-20 181q-3 28 -4 57.5t0 44.5v15z" />
    <glyph glyph-name="B" unicode="B" horiz-adv-x="632" 
d="M159 720h294q96 0 140 -58.5t23 -153.5q-19 -92 -112 -140q42 -20 61 -66.5t6 -104.5q-21 -98 -90.5 -147.5t-176.5 -49.5h-298zM255 423h103q40 0 66 24.5t34 66.5q19 91 -61 91h-103zM190 116h108q93 0 114 96q20 96 -74 96h-108z" />
    <glyph glyph-name="C" unicode="C" horiz-adv-x="566" 
d="M58 378q76 354 389 354q53 0 97 -10t61 -20l17 -9q-10 -63 -69 -110q-50 20 -113 20q-82 0 -136 -54t-83 -190q-28 -135 2.5 -188t113.5 -53q30 0 63 5.5t50 10.5l18 6q38 -42 23 -113q-8 -4 -24 -10.5t-69 -17.5t-110 -11q-151 0 -210 103t-20 287z" />
    <glyph glyph-name="D" unicode="D" horiz-adv-x="666" 
d="M159 720h247q307 0 225 -378q-40 -187 -132 -264.5t-246 -77.5h-247zM193 125h81q74 0 120 49.5t75 185.5q15 71 15.5 118.5t-14.5 72.5t-38 34.5t-59 9.5h-81z" />
    <glyph glyph-name="E" unicode="E" horiz-adv-x="559" 
d="M159 720h438q4 -27 -2 -58q-7 -36 -24 -64h-278l-37 -174h228q2 -39 -2 -59q-8 -33 -24 -62h-228l-38 -181h288q4 -30 -3 -60q-9 -39 -23 -62h-448z" />
    <glyph glyph-name="F" unicode="F" horiz-adv-x="539" 
d="M227 289l-59 -280q-33 -9 -83 -9q-22 0 -41 2t-28 4l-8 3l151 711h428q4 -29 -3 -60q-7 -35 -23 -62h-268l-40 -187h238q5 -25 -2 -59q-10 -40 -24 -63h-238z" />
    <glyph glyph-name="G" unicode="G" horiz-adv-x="635" 
d="M56 378q76 352 405 352q59 0 107.5 -10t67.5 -20l20 -10q-18 -69 -69 -111q-61 24 -135 24q-89 0 -148 -54.5t-88 -189.5q-13 -71 -13.5 -117.5t18 -73.5t48 -38t76.5 -11l56 3l37 176h-115q-5 21 3 60q4 18 10 33.5t10 22.5l3 6h259l-83 -390q-9 -4 -27 -11t-75.5 -18
t-118.5 -11q-159 0 -223 102.5t-25 285.5z" />
    <glyph glyph-name="H" unicode="H" horiz-adv-x="685" 
d="M482 434l59 277q33 9 82 9q22 0 41.5 -2t27.5 -4l9 -3l-149 -702q-32 -9 -81 -9q-24 0 -43.5 2t-27.5 4l-8 3l63 295h-225l-63 -295q-34 -9 -82 -9q-24 0 -43.5 2t-27.5 4l-7 3l149 702q32 9 81 9q22 0 42 -2t29 -4l8 -3l-59 -277h225z" />
    <glyph glyph-name="I" unicode="I" horiz-adv-x="300" 
d="M7 9l149 702q32 9 81 9q22 0 42 -2t29 -4l8 -3l-149 -702q-34 -9 -82 -9q-24 0 -43.5 2t-27.5 4z" />
    <glyph glyph-name="J" unicode="J" horiz-adv-x="467" 
d="M223 219l104 492q29 9 82 9q22 0 41.5 -2t27.5 -4l9 -3l-108 -507q-22 -104 -93.5 -159t-173.5 -55q-44 0 -84 8.5t-58 17.5l-17 8q14 72 66 115q38 -16 84 -16q99 0 120 96z" />
    <glyph glyph-name="K" unicode="K" horiz-adv-x="630" 
d="M296 434l227 277q41 9 85 9q42 0 83 -9l-276 -339l158 -363q-39 -9 -96 -9q-25 0 -44 2t-25 4l-7 3l-121 305h-48l-65 -305q-27 -9 -82 -9q-23 0 -42.5 2t-27.5 4l-8 3l149 702q31 9 83 9q23 0 42 -2t27 -4l8 -3l-59 -277h39z" />
    <glyph glyph-name="L" unicode="L" horiz-adv-x="530" 
d="M6 0l151 711q32 9 81 9q22 0 42 -2t28 -4l9 -3l-123 -581h280q3 -28 -4 -65q-6 -28 -24 -65h-440z" />
    <glyph glyph-name="M" unicode="M" horiz-adv-x="833" 
d="M647 711q41 9 99 9q54 0 103 -9l-149 -702q-29 -9 -78 -9q-22 0 -41 2t-27 4l-8 3l45 210q44 215 80 317h-6q-38 -78 -137 -234l-97 -153q-22 -7 -59 -7q-16 0 -29 2t-17 4l-5 1q-27 123 -32 147q-35 151 -39 240h-6q0 -83 -47 -301l-48 -226q-28 -9 -73 -9q-20 0 -37 2
t-25 4l-7 3l149 702q54 9 100 9q24 0 47.5 -2t34.5 -4l11 -3l40 -184q27 -126 28 -193h5q21 51 58 114q31 50 92 145.5t75 117.5z" />
    <glyph glyph-name="N" unicode="N" horiz-adv-x="705" 
d="M371 9l-83 365l-33 168h-5q-7 -83 -30 -191l-73 -342q-25 -9 -73 -9q-21 0 -37.5 2t-22.5 4l-7 3l149 702q36 9 104 9q30 0 54.5 -2t33.5 -4l9 -3l79 -362l34 -179h4q11 96 34 203l72 338q28 9 74 9q21 0 37.5 -2t22.5 -4l7 -3l-149 -702q-33 -9 -102 -9q-28 0 -53 2
t-35 4z" />
    <glyph glyph-name="O" unicode="O" horiz-adv-x="687" 
d="M57 377q40 186 132.5 269.5t237.5 83.5q143 0 205 -98t21 -288q-40 -188 -132 -271t-237 -83q-144 0 -205.5 98.5t-21.5 288.5zM488 360q24 98 16.5 152t-30 73.5t-67.5 19.5q-67 0 -111 -52t-74 -193q-15 -73 -16.5 -121.5t11 -75t33 -37t53.5 -10.5q68 0 111.5 52
t73.5 192z" />
    <glyph glyph-name="P" unicode="P" horiz-adv-x="605" 
d="M221 261l-53 -252q-31 -9 -82 -9q-24 0 -43.5 2t-26.5 4l-8 3l151 711h277q107 0 155 -67t24 -176q-22 -105 -94.5 -160.5t-182.5 -55.5h-117zM248 385h94q45 0 75 27t40 78q11 51 -7.5 78t-63.5 27h-94z" />
    <glyph glyph-name="Q" unicode="Q" horiz-adv-x="687" 
d="M428 732q142 0 204 -99t21 -289q-42 -200 -149 -287q45 -35 117 -49q-12 -42 -42 -76.5t-62 -48.5q-87 32 -131 116q-50 -11 -102 -11q-144 0 -205.5 99t-21.5 290q40 186 133.5 270.5t237.5 84.5zM303 114q67 0 111 53t74 193q16 73 17.5 122.5t-10.5 76t-33 37.5
t-54 11q-67 0 -111.5 -53t-74.5 -194q-23 -97 -16 -151.5t30 -74.5t67 -20z" />
    <glyph glyph-name="R" unicode="R" horiz-adv-x="637" 
d="M159 720h275q111 0 159 -67t26 -170q-29 -134 -163 -184l101 -290q-35 -9 -93 -9q-25 0 -44.5 2t-27.5 4l-7 3l-88 270h-72l-57 -270q-32 -9 -81 -9q-24 0 -43.5 2t-27.5 4l-8 3zM293 596l-41 -193h92q92 0 112 96q20 97 -71 97h-92z" />
    <glyph glyph-name="S" unicode="S" horiz-adv-x="573" 
d="M94 537q20 98 94 146.5t208 48.5q58 0 108.5 -8.5t71.5 -17.5l22 -8q-16 -75 -65 -118q-62 20 -141 20q-126 0 -143 -77q-3 -11 -0.5 -21t11 -18t17.5 -14t24.5 -13t28 -11.5t32.5 -11.5t33 -12q69 -27 105.5 -86t16.5 -150q-23 -101 -98 -149.5t-211 -48.5
q-65 0 -122 12t-82 24l-24 13q15 70 64 122q83 -31 183 -31q115 0 132 77q6 32 -15.5 52t-67.5 37q-18 7 -32 12t-32.5 13.5t-31.5 17t-28.5 20.5t-26 24.5t-19.5 29.5t-13 35.5t-4 41.5t5 49z" />
    <glyph glyph-name="T" unicode="T" horiz-adv-x="564" 
d="M114 720h512q4 -28 -4 -66q-4 -17 -10 -34t-10 -26l-4 -8h-174l-123 -577q-34 -9 -82 -9q-24 0 -43 2t-26 4l-8 3l123 577h-179q-5 26 4 66q4 18 10 35t10 25z" />
    <glyph glyph-name="U" unicode="U" horiz-adv-x="675" 
d="M697 711l-98 -460q-26 -125 -110.5 -194t-209.5 -69q-126 0 -189 70.5t-37 192.5l98 460q30 9 81 9q23 0 42.5 -2t27.5 -4l8 -3l-100 -472q-12 -56 11 -86t79 -30q114 0 139 116l100 472q29 9 80 9q23 0 42.5 -2t27.5 -4z" />
    <glyph glyph-name="V" unicode="V" horiz-adv-x="665" 
d="M252 710l40 -398q4 -41 5 -81t0 -59l-1 -20h4q23 67 73 161l209 397q31 10 83 10q22 0 41.5 -2.5t27.5 -5.5l9 -2l-371 -702q-43 -8 -104 -8q-28 0 -53 2t-37 4l-11 2l-73 700q36 12 90 12q22 0 39 -2.5t23 -5.5z" />
    <glyph glyph-name="W" unicode="W" horiz-adv-x="984" 
d="M532 9l4 383q1 48 5 93t8 66l4 21h-5q-17 -73 -62 -180l-158 -383q-45 -9 -108 -9q-60 0 -98 9l-22 702q31 9 83 9q22 0 40.5 -2t26.5 -4l7 -3l11 -400l-6 -160h4q24 80 57 159l168 401q31 9 94 9q28 0 50.5 -2t31.5 -4l9 -3l-3 -400q-1 -37 -4 -77t-6 -62l-3 -21h4
q23 72 62 159l183 401q29 9 74 9q20 0 38 -2t26 -4l8 -3l-322 -702q-38 -9 -100 -9q-28 0 -53.5 2t-36.5 4z" />
    <glyph glyph-name="X" unicode="X" horiz-adv-x="642" 
d="M534 711q40 9 93 9q45 0 82 -9l-273 -339l144 -361q-33 -11 -91 -11q-25 0 -44.5 2.5t-26.5 5.5l-6 2l-103 241l-188 -243q-37 -8 -96 -8q-57 0 -89 8l300 374l-125 329q33 9 95 9q24 0 43.5 -2t26.5 -4l7 -3l84 -207z" />
    <glyph glyph-name="Y" unicode="Y" horiz-adv-x="647" 
d="M553 711q43 9 94 9q23 0 44 -2t31 -4l9 -3l-333 -426l-59 -276q-29 -9 -80 -9q-25 0 -45 2t-27 4l-7 3l58 275l-145 427q35 9 96 9q24 0 43 -2t26 -4l6 -3l88 -261z" />
    <glyph glyph-name="Z" unicode="Z" horiz-adv-x="609" 
d="M152 720h493q5 -27 -3 -62q-7 -37 -25 -69l-436 -457h352q2 -31 -6 -64q-8 -39 -22 -68h-534q-4 25 4 68q8 38 24 64l430 457h-305q-2 33 6 69q6 31 22 62z" />
    <glyph glyph-name="bracketleft" unicode="[" horiz-adv-x="343" 
d="M184 810h234q3 -19 -5 -56q-3 -16 -7.5 -29.5t-7.5 -18.5l-3 -6h-90l-162 -760h90q3 -19 -4 -55q-4 -16 -8.5 -30t-7.5 -19l-3 -6h-234z" />
    <glyph glyph-name="backslash" unicode="\" horiz-adv-x="525" 
d="M267 741l168 -779q-33 -9 -82 -9q-20 0 -39 2.5t-28 4.5l-9 2l-168 779q34 9 82 9q21 0 40 -2t27 -4z" />
    <glyph glyph-name="bracketright" unicode="]" horiz-adv-x="344" 
d="M166 -170h-234q-3 18 5 55q3 16 7.5 29.5t7.5 19.5l3 6h90l162 760h-90q-3 18 4 54q4 16 8.5 30t7.5 20l3 6h234z" />
    <glyph glyph-name="asciicircum" unicode="^" horiz-adv-x="533" 
d="M416 713l123 -264q-26 -7 -63 -7q-16 0 -32 2t-24 4l-8 1l-78 165l-147 -165q-30 -7 -67 -7q-16 0 -31.5 2t-22.5 4l-7 1l238 264q24 7 60 7q16 0 30.5 -2t21.5 -4z" />
    <glyph glyph-name="underscore" unicode="_" horiz-adv-x="543" 
d="M406 -116h-447q-4 14 4 48q3 15 7.5 27t7.5 17l2 4h447q4 -14 -3 -48q-4 -15 -8.5 -27t-7.5 -17z" />
    <glyph glyph-name="grave" unicode="`" horiz-adv-x="238" 
d="M125 628l-107 139q21 25 63.5 41t78.5 11l60 -147q-33 -34 -95 -44z" />
    <glyph glyph-name="a" unicode="a" 
d="M407 523q19 6 68 6q22 0 40.5 -1.5t26.5 -3.5l7 -1l-109 -515q-30 -8 -71 -8q-19 0 -36 2t-25 4l-7 2l1 41q-56 -59 -144 -59t-124 70.5t-4 217.5q31 145 90.5 203t153.5 58q45 0 72.5 -11.5t45.5 -39.5zM355 336q7 37 -7.5 60t-46.5 23q-43 0 -69 -33t-45 -124
q-17 -92 -6 -122t54 -30q33 0 57.5 23.5t32.5 60.5z" />
    <glyph glyph-name="b" unicode="b" horiz-adv-x="562" 
d="M302 742l-54 -254q55 52 139 52q88 0 123.5 -70t3.5 -218q-30 -145 -91.5 -203.5t-152.5 -58.5q-84 0 -118 50l-6 -32q-31 -8 -80 -8q-22 0 -40.5 2t-25.5 4l-8 2l156 734q28 8 77 8q22 0 41 -2t28 -4zM353 264q18 94 6.5 124.5t-53.5 30.5q-33 0 -58 -25t-34 -66
l-28 -128q-8 -41 6.5 -65.5t47.5 -24.5q42 0 68 32.5t45 121.5z" />
    <glyph glyph-name="c" unicode="c" horiz-adv-x="446" 
d="M322 418q-57 0 -88.5 -36t-48.5 -118q-17 -80 1 -114t76 -34q21 0 42.5 4t31.5 8l11 3q31 -37 21 -106q-57 -35 -167 -35q-233 0 -175 273q59 277 292 277q46 0 82 -8t48 -16l13 -7q-15 -64 -66 -105q-28 14 -73 14z" />
    <glyph glyph-name="d" unicode="d" horiz-adv-x="559" 
d="M442 742q30 8 79 8q22 0 40.5 -2t26.5 -4l8 -2l-156 -734q-30 -8 -71 -8q-19 0 -36 2t-25 4l-7 2l1 41q-56 -59 -147 -59q-185 0 -125 287q31 146 90 204.5t152 58.5q83 0 116 -52zM355 336q7 37 -7.5 60t-46.5 23q-43 0 -69 -32.5t-45 -123.5q-17 -92 -6 -122.5
t54 -30.5q33 0 57.5 23.5t32.5 60.5z" />
    <glyph glyph-name="e" unicode="e" horiz-adv-x="509" 
d="M452 219h-278q-9 -58 14 -80.5t72 -22.5q28 0 55.5 6t41.5 12l14 6q15 -17 22.5 -46.5t1.5 -58.5q-7 -5 -20 -12.5t-59 -20t-98 -12.5q-123 0 -171 74t-19 214q30 138 102.5 200t185.5 62q91 0 140.5 -56.5t27.5 -159.5q-6 -29 -14 -55.5t-13 -38.5zM344 346
q16 82 -47 82q-69 0 -104 -113h142q6 20 9 31z" />
    <glyph glyph-name="f" unicode="f" horiz-adv-x="365" 
d="M152 586q34 164 220 164q36 0 68 -7t46 -13l13 -7q-16 -57 -64 -103q-24 12 -70 12q-50 0 -61 -52l-11 -54h100q1 -25 -5 -55q-7 -34 -19 -55h-100l-86 -408q-29 -8 -79 -8q-23 0 -41.5 2t-26.5 4l-7 2l86 408h-64q2 38 6 57q9 36 18 53h64z" />
    <glyph glyph-name="g" unicode="g" horiz-adv-x="559" 
d="M290 26l4 15q-56 -51 -138 -51q-186 0 -126 286q31 145 90.5 204.5t149.5 59.5q87 0 119 -51l7 33q31 8 80 8q22 0 40.5 -2t25.5 -4l8 -2l-106 -496q-58 -276 -307 -276q-50 0 -92 10t-59 20l-18 11q16 62 60 99q45 -23 106 -23q59 0 97.5 32t58.5 127zM187 263
q-17 -95 -5.5 -124t53.5 -29q32 0 57 24.5t35 62.5l28 132q8 41 -6 65.5t-48 24.5q-42 0 -68 -31.5t-46 -124.5z" />
    <glyph glyph-name="h" unicode="h" horiz-adv-x="548" 
d="M511 375l-78 -367q-28 -8 -79 -8q-23 0 -42 2t-26 4l-7 2l74 351q13 60 -51 60q-38 0 -75 -28l-81 -383q-29 -8 -79 -8q-23 0 -42 2t-26 4l-7 2l156 734q26 8 78 8q22 0 41 -2t27 -4l8 -2l-53 -250q61 48 144 48q74 0 104 -45t14 -120z" />
    <glyph glyph-name="i" unicode="i" horiz-adv-x="265" 
d="M302 742l-29 -135q-30 -8 -79 -8q-23 0 -42 2t-26 4l-7 2l29 135q25 8 78 8q22 0 41 -2t27 -4zM255 522l-109 -514q-30 -8 -79 -8q-23 0 -42 2t-26 4l-7 2l109 514q26 8 79 8q22 0 40.5 -2t26.5 -4z" />
    <glyph glyph-name="j" unicode="j" horiz-adv-x="266" 
d="M302 741l-28 -136q-29 -8 -79 -8q-23 0 -42 2t-26 4l-7 2l28 136q27 8 79 8q22 0 41 -2t26 -4zM-23 -66l125 588q28 8 79 8q21 0 40 -2t27 -4l8 -2l-130 -610q-35 -162 -197 -162q-25 0 -47.5 4t-31.5 8l-10 4q0 16 3 34q5 23 13.5 42t14.5 27l6 8q16 -4 33 -4
q55 0 67 61z" />
    <glyph glyph-name="k" unicode="k" horiz-adv-x="519" 
d="M249 332l131 190q35 8 84 8q20 0 39.5 -2t28.5 -4l9 -2l-179 -250l93 -264q-36 -9 -88 -9q-22 0 -40 2t-25 5l-7 2l-69 213h-35l-45 -213q-29 -8 -78 -8q-22 0 -41 2t-27 4l-8 2l156 736q31 6 79 6q20 0 38.5 -1.5t27.5 -2.5l9 -2l-87 -412h34z" />
    <glyph glyph-name="l" unicode="l" horiz-adv-x="268" 
d="M304 742l-156 -734q-29 -8 -79 -8q-23 0 -42 2t-26 4l-7 2l156 734q26 8 78 8q22 0 41 -2t27 -4z" />
    <glyph glyph-name="m" unicode="m" horiz-adv-x="821" 
d="M502 479q73 61 167 61q72 0 100.5 -47t12.5 -124l-76 -361q-31 -8 -79 -8q-23 0 -41.5 2t-25.5 4l-8 2l74 351q13 60 -48 60q-37 0 -71 -28l-81 -383q-31 -8 -79 -8q-23 0 -41.5 2t-25.5 4l-8 2l74 351q13 60 -47 60q-37 0 -72 -27l-81 -384q-31 -8 -79 -8q-23 0 -41.5 2
t-25.5 4l-8 2l109 514q27 8 79 8q22 0 38.5 -2t21.5 -4l6 -2v-39q66 57 143 57q85 0 113 -61z" />
    <glyph glyph-name="n" unicode="n" horiz-adv-x="548" 
d="M509 366l-76 -358q-28 -8 -79 -8q-23 0 -42 2t-26 4l-7 2l74 351q13 60 -51 60q-38 0 -75 -28l-81 -383q-29 -8 -79 -8q-23 0 -42 2t-26 4l-7 2l109 514q27 8 79 8q22 0 39 -2t23 -4l5 -2v-42q68 59 146 59q76 0 104.5 -44.5t11.5 -128.5z" />
    <glyph glyph-name="o" unicode="o" horiz-adv-x="550" 
d="M29 279q31 143 103 202t189 59q115 0 164.5 -70.5t18.5 -215.5q-30 -143 -102.5 -203.5t-188.5 -60.5q-114 0 -164.5 72t-19.5 217zM348 265q17 95 5.5 126.5t-52.5 31.5q-42 0 -69.5 -34t-46.5 -124q-17 -95 -5 -127t53 -32t69 34.5t46 124.5z" />
    <glyph glyph-name="p" unicode="p" horiz-adv-x="561" 
d="M248 489q54 51 141 51q185 0 125 -284q-30 -145 -91.5 -205.5t-151.5 -60.5q-86 0 -118 51l-55 -257q-31 -8 -80 -8q-22 0 -40.5 2t-25.5 4l-8 2l157 738q29 8 78 8q22 0 41 -2t27 -4l8 -2zM353 265q17 95 6 124.5t-53 29.5q-33 0 -57.5 -24t-34.5 -64l-27 -127
q-9 -40 4.5 -67t48.5 -27q41 0 67 31.5t46 123.5z" />
    <glyph glyph-name="q" unicode="q" horiz-adv-x="559" 
d="M239 -216l55 257q-54 -51 -139 -51q-88 0 -121.5 71t-2.5 219q31 145 90 202.5t151 57.5q85 0 117 -51l7 33q29 8 78 8q22 0 41 -2t27 -4l8 -2l-157 -738q-29 -8 -78 -8q-22 0 -41 2t-27 4zM187 265q-17 -95 -5.5 -125t53.5 -30q33 0 58 25.5t34 64.5l28 130
q9 41 -5.5 65t-48.5 24q-42 0 -68.5 -32t-45.5 -122z" />
    <glyph glyph-name="r" unicode="r" horiz-adv-x="412" 
d="M235 467q56 72 134 72q48 0 86 -28q-25 -75 -83 -122q-17 18 -61 18q-46 0 -90 -46l-75 -353q-31 -8 -79 -8q-23 0 -41.5 2t-25.5 4l-8 2l109 514q28 8 79 8q22 0 36.5 -2t17.5 -4l4 -2z" />
    <glyph glyph-name="s" unicode="s" horiz-adv-x="450" 
d="M55 385q36 155 233 155q49 0 87.5 -8t52.5 -16l15 -7q-13 -69 -57 -103q-48 16 -107 16q-76 0 -85 -44q-2 -10 3 -17.5t17.5 -13.5t24.5 -10.5t32 -10.5t33 -11q55 -21 77 -60.5t7 -107.5q-17 -81 -75 -119t-164 -38q-52 0 -96 10t-62 20l-18 10q14 66 60 105
q59 -23 128 -23q73 0 82 44q-1 8 0 13.5t-6 11t-11 9t-15.5 8t-18.5 6.5t-20.5 6.5t-21.5 7.5q-123 42 -95 167z" />
    <glyph glyph-name="t" unicode="t" horiz-adv-x="389" 
d="M267 416l-47 -223q-11 -49 4.5 -67t58.5 -18l41 4q7 -23 -1 -61q-3 -14 -7.5 -26.5t-7.5 -18.5l-3 -5q-43 -11 -92 -11q-101 0 -135.5 47t-12.5 152l48 227h-72q-2 21 5 54q4 16 8.5 30t7.5 20l3 6h72l19 89q69 34 159 25l-24 -114h108q3 -20 -5 -55q-3 -14 -8 -28
t-8 -21l-3 -6h-108z" />
    <glyph glyph-name="u" unicode="u" horiz-adv-x="547" 
d="M21 164l76 358q28 8 79 8q23 0 42 -2t26 -4l7 -2l-75 -352q-13 -60 50 -60q42 0 78 37l80 375q29 8 79 8q23 0 41.5 -2t25.5 -4l8 -2l-109 -514q-27 -8 -79 -8q-20 0 -35 2t-21 4l-5 2v40q-66 -58 -148 -58q-76 0 -106.5 46t-13.5 128z" />
    <glyph glyph-name="v" unicode="v" horiz-adv-x="530" 
d="M206 522l22 -234q3 -41 2.5 -74t-2.5 -54l-2 -22h4q24 71 65 151l123 233q35 8 78 8q20 0 37.5 -2t24.5 -4l8 -2l-268 -514q-39 -8 -97 -8q-27 0 -50.5 2t-33.5 4l-10 2l-54 514q34 8 82 8q23 0 40.5 -2t24.5 -4z" />
    <glyph glyph-name="w" unicode="w" horiz-adv-x="796" 
d="M407 8l-5 197q-3 85 16 184h-4q-27 -104 -62 -184l-89 -197q-41 -8 -92 -8q-56 0 -92 8l-24 514q31 8 78 8q22 0 38 -2t21 -4l5 -2l13 -234q3 -67 -7 -145h3q30 89 56 146l107 233q39 8 84 8q21 0 39.5 -2t26.5 -4l8 -2l6 -233q1 -68 -8 -146h3q22 68 57 146l112 233
q26 8 69 8q20 0 36 -2t22 -4l6 -2l-240 -514q-40 -8 -94 -8t-89 8z" />
    <glyph glyph-name="x" unicode="x" horiz-adv-x="525" 
d="M163 275l-100 247q36 8 86 8q24 0 42 -2t25 -4l6 -2l59 -137l114 137q37 8 83 8q21 0 41 -2t29 -4l9 -2l-212 -252l117 -262q-37 -8 -87 -8q-24 0 -42 2t-25 4l-6 2l-72 156l-129 -156q-43 -8 -87 -8q-21 0 -40.5 2t-27.5 4l-9 2z" />
    <glyph glyph-name="y" unicode="y" horiz-adv-x="548" 
d="M385 522q29 8 79 8q23 0 41.5 -2t26.5 -4l7 -2l-106 -496q-30 -144 -108.5 -210t-208.5 -66q-50 0 -92 10t-60 20l-17 11q16 62 60 99q45 -23 106 -23q47 0 74 8.5t51.5 42.5t40.5 101l3 12q-59 -41 -134 -41q-81 0 -111.5 47.5t-14.5 127.5l76 357q28 8 79 8q23 0 42 -2
t26 -4l7 -2l-75 -352q-13 -60 50 -60q39 0 76 28z" />
    <glyph glyph-name="z" unicode="z" horiz-adv-x="480" 
d="M165 121h231q4 -22 -4 -61q-4 -16 -9.5 -31t-8.5 -22l-4 -7h-397q-2 24 5 63q7 29 21 58l293 288h-221q-3 25 5 61q4 16 9 31t9 22l3 7h387q2 -26 -6 -57q-6 -33 -20 -64z" />
    <glyph glyph-name="braceleft" unicode="{" horiz-adv-x="375" 
d="M344 810h105q2 -19 -5 -56q-6 -30 -19 -56h-48q-49 0 -59 -49l-43 -201q-16 -77 -74 -113q43 -36 26 -114l-43 -201q-10 -49 39 -49h48q2 -26 -6 -58q-6 -32 -18 -54h-105q-68 0 -96 38t-14 102l49 231q10 49 -39 49h-26q-4 18 4 56q6 28 20 55h26q49 0 59 49l49 231
q14 64 58 102t112 38z" />
    <glyph glyph-name="bar" unicode="|" horiz-adv-x="308" 
d="M176 782q30 8 81 8q21 0 40.5 -2t28.5 -4l8 -2l-206 -971q-33 -8 -81 -8q-23 0 -42 2t-27 4l-8 2z" />
    <glyph glyph-name="braceright" unicode="}" horiz-adv-x="375" 
d="M140 810h105q68 0 96 -38t14 -102l-49 -231q-10 -49 39 -49h26q3 -21 -4 -55t-20 -56h-26q-49 0 -59 -49l-49 -231q-14 -64 -58 -102t-112 -38h-105q-3 20 4 54q9 37 20 58h48q49 0 59 49l43 201q18 80 74 114q-42 34 -26 113l43 201q10 49 -39 49h-48q0 31 5 56
q6 30 19 56z" />
    <glyph glyph-name="asciitilde" unicode="~" horiz-adv-x="510" 
d="M162 245q-21 0 -39.5 -8.5t-26.5 -17.5l-8 -9q-51 19 -51 74q2 3 6 8t17.5 17.5t29 22t40 17.5t50.5 8q40 0 83 -25.5t73 -25.5q20 0 38.5 9t26.5 17l8 9q25 -9 39 -29t13 -45q-2 -3 -6 -8t-17.5 -17.5t-29 -22t-40 -17.5t-50.5 -8q-40 0 -83.5 25.5t-72.5 25.5z" />
    <glyph glyph-name="exclamdown" unicode="&#xa1;" horiz-adv-x="282" 
d="M107 510q29 8 79 8q23 0 41.5 -2t26.5 -4l7 -2l-30 -143q-27 -8 -79 -8q-22 0 -41 2t-27 4l-7 2zM78 300q23 7 62 7q17 0 32.5 -1.5t22.5 -3.5l7 -2l-84 -494q-30 -8 -85 -8q-23 0 -43 2t-29 4l-9 2z" />
    <glyph glyph-name="cent" unicode="&#xa2;" horiz-adv-x="462" 
d="M279 627q31 10 67 10q18 0 34 -2.5t23 -4.5l7 -3l-29 -93q28 -3 49 -9.5t28 -10.5l8 -5q-15 -57 -65 -99q-28 13 -74 13q-55 0 -87 -38t-50 -121q-18 -80 -0.5 -117t74.5 -37q21 0 43 4t33 8l11 3q30 -36 22 -100q-36 -21 -106 -30l-12 -96q-28 -10 -68 -10
q-16 0 -31.5 2.5t-23.5 4.5l-8 3l29 95q-175 27 -123 269q51 244 238 272z" />
    <glyph glyph-name="sterling" unicode="&#xa3;" horiz-adv-x="540" 
d="M424 284h-153q-12 -90 -93 -153h279q3 -25 -5 -65q-4 -17 -9.5 -33.5t-9.5 -24.5l-4 -8h-436l28 131q95 78 102 153h-80q-3 22 4 54q3 14 8 27t8 19l3 6h53q-6 59 5 111q21 97 94 143.5t175 46.5q98 0 177 -37q-11 -65 -66 -106q-51 20 -107 22q-100 0 -118 -87
q-9 -39 -5 -93h173q3 -19 -4 -51q-3 -14 -8 -28t-8 -21z" />
    <glyph glyph-name="currency" unicode="&#xa4;" horiz-adv-x="600" 
d="M420 12l-57 71q-57 -30 -117 -30t-104 30l-86 -71q-24 1 -46 28q-8 12 -12 24t-4 18l1 7l87 72q-20 51 -7 110q12 58 54 110l-57 72q7 24 38 50q15 12 29 18.5t21 7.5l6 1l55 -72q57 31 118 31q57 0 103 -31l88 72q23 0 44 -27q8 -12 12 -24.5t4 -18.5v-7l-87 -72
q20 -52 8 -110q-13 -59 -55 -111l57 -71q-6 -25 -37 -51q-15 -12 -29 -18.5t-21 -7.5h-6zM316 381q-46 0 -84.5 -32t-48.5 -78t15 -78t71 -32t84.5 31.5t49.5 78.5q10 46 -15 78t-72 32z" />
    <glyph glyph-name="yen" unicode="&#xa5;" horiz-adv-x="633" 
d="M535 676q32 8 80 8q19 0 37.5 -2t27.5 -4l9 -2l-249 -307h99q2 -22 -3 -45q-7 -28 -16 -46h-146l-13 -61h146q2 -21 -3 -43q-7 -28 -16 -48h-146l-25 -117q-34 -9 -72 -9q-16 0 -32.5 2t-24.5 4l-9 3l25 117h-150q-1 20 4 48q4 22 15 43h150l13 61h-150q-2 24 4 45
q4 23 15 46h102l-107 304q33 11 86 11q22 0 42 -2.5t28 -5.5l9 -2l80 -235z" />
    <glyph glyph-name="brokenbar" unicode="&#xa6;" horiz-adv-x="302" 
d="M83 358l91 428q30 8 81 8q21 0 40.5 -2t28.5 -4l8 -2l-91 -428q-33 -8 -81 -8q-23 0 -42 2t-27 4zM-34 -193l93 439q30 8 81 8q21 0 40.5 -2t27.5 -4l9 -2l-93 -439q-33 -8 -81 -8q-23 0 -42 2t-27 4z" />
    <glyph glyph-name="section" unicode="&#xa7;" horiz-adv-x="489" 
d="M267 141q3 17 -13.5 27.5t-43.5 15.5t-58.5 14t-57 21.5t-38.5 39.5t-5 66q12 61 77 110q-35 37 -21 107q15 73 76.5 110.5t152.5 37.5q82 0 150 -26q-11 -61 -52 -94q-46 12 -89 14q-92 4 -102 -45q-4 -20 19 -30.5t58 -17.5t68.5 -18t52.5 -40.5t9 -77.5
q-13 -60 -73 -103q48 -40 33 -117q-16 -74 -84.5 -109.5t-163.5 -35.5q-43 0 -86 7.5t-64 14.5l-21 8q6 65 54 97q53 -18 119 -19q93 -2 103 43zM212 395q-21 -21 -27 -46q-3 -12 1.5 -21t17.5 -15t23 -9.5t32.5 -8.5t31.5 -8q18 18 25 45q2 12 -2.5 21t-16.5 15t-23 9.5
t-31 8.5t-31 9z" />
    <glyph glyph-name="dieresis" unicode="&#xa8;" horiz-adv-x="455" 
d="M193 728l-25 -115q-24 -7 -67 -7q-19 0 -35.5 2t-23.5 4l-6 1l25 115q23 7 67 7q19 0 35.5 -1.5t22.5 -3.5zM390 728l-25 -115q-25 -7 -67 -7q-20 0 -36 2t-22 4l-7 1l25 115q23 7 67 7q19 0 35 -1.5t23 -3.5z" />
    <glyph glyph-name="copyright" unicode="&#xa9;" horiz-adv-x="791" 
d="M327 -17q-148 0 -230.5 104t-50.5 253q31 148 157.5 252.5t275.5 104.5q148 0 230.5 -104t50.5 -253q-31 -148 -157.5 -252.5t-275.5 -104.5zM458 599q-108 0 -199 -75.5t-114 -183.5t36 -183.5t167 -75.5t199.5 75.5t113.5 183.5q23 108 -36 183.5t-167 75.5zM366 146
q-87 0 -122 52t-14 148q20 98 76.5 148.5t144.5 50.5q31 0 58 -7t39 -14l11 -7q-12 -47 -54 -74q-26 14 -59 14q-81 0 -105 -112q-13 -60 3.5 -83.5t55.5 -23.5q16 0 33 3t26 5l9 3q32 -21 23 -75q-52 -28 -125 -28z" />
    <glyph glyph-name="ordfeminine" unicode="&#xaa;" horiz-adv-x="359" 
d="M125 603q60 27 129 27q68 0 92 -28.5t11 -86.5l-44 -207q-17 -8 -45 -8q-11 0 -21.5 2t-15.5 4l-5 2l-3 22q-35 -35 -90 -35q-45 0 -65.5 27.5t-9.5 79.5q22 101 144 101l49 -2l3 12q7 35 -34 35q-18 0 -38 -4t-32 -8l-11 -3q-20 30 -14 70zM238 436q-14 1 -34 1
q-34 0 -42 -35q-7 -35 23 -35q37 0 49 54zM33 244h264q5 -37 -18 -82h-264q-2 44 18 82z" />
    <glyph glyph-name="guillemotleft" unicode="&#xab;" horiz-adv-x="545" 
d="M49 329l247 185q28 -33 25 -92l-167 -153l102 -152q-21 -57 -64 -92l-169 182q-6 21 2 59q4 17 10 33t10 23zM271 326l236 176q26 -31 23 -86l-158 -147l96 -146q-21 -56 -60 -86l-161 174q-6 21 1 55q4 16 9.5 31t9.5 22z" />
    <glyph glyph-name="logicalnot" unicode="&#xac;" horiz-adv-x="601" 
d="M571 446l-61 -284q-24 -11 -64 -11q-18 0 -33 2.5t-21 5.5l-6 3l35 161h-370q-6 25 2 61q4 17 10 32.5t10 22.5l4 7h494z" />
    <glyph glyph-name="uni00AD" unicode="&#xad;" horiz-adv-x="287" 
 />
    <glyph glyph-name="registered" unicode="&#xae;" horiz-adv-x="533" 
d="M255 248q-92 0 -143.5 65.5t-32.5 157.5q20 92 99 157.5t171 65.5t143.5 -65.5t32.5 -157.5q-20 -92 -99 -157.5t-171 -65.5zM337 634q-68 0 -126.5 -47.5t-72.5 -115.5t23.5 -116t105.5 -48t126 48t72 116t-23 115.5t-105 47.5zM345 589q36 0 54 -19.5t11 -51.5
q-10 -49 -58 -65l36 -84q-15 -8 -36 -8l-28 5l-37 81h-12l-17 -81q-14 -5 -31 -5l-29 5l47 223h100zM285 495h31q28 0 32 23q4 24 -22 24h-31z" />
    <glyph glyph-name="macron" unicode="&#xaf;" horiz-adv-x="407" 
d="M342 625h-330q-3 48 19 89h330q3 -41 -19 -89z" />
    <glyph glyph-name="degree" unicode="&#xb0;" horiz-adv-x="353" 
d="M95 604q12 57 60.5 100t116.5 43q67 0 96 -41.5t17 -98.5t-59 -98.5t-114 -41.5q-70 0 -99 40.5t-18 96.5zM291 606q4 21 -6 36.5t-33 15.5q-25 0 -42 -15.5t-21 -37.5q-5 -20 5.5 -35t35.5 -15q23 0 39.5 15t21.5 36z" />
    <glyph glyph-name="plusminus" unicode="&#xb1;" horiz-adv-x="492" 
d="M201 347h-133q-3 21 4 55q4 15 8.5 29t7.5 20l3 6h133l21 100q23 7 57 7q15 0 28.5 -2t19.5 -4l5 -1l-21 -100h134q3 -21 -5 -55q-3 -15 -7.5 -29t-7.5 -20l-3 -6h-134l-22 -100q-22 -7 -56 -7q-15 0 -28.5 2t-19.5 4l-6 1zM393 102h-377q-3 21 4 55q4 15 8.5 29t7.5 20
l3 6h377q3 -21 -5 -55q-3 -15 -7.5 -29t-7.5 -20z" />
    <glyph glyph-name="twosuperior" unicode="&#xb2;" horiz-adv-x="303" 
d="M40 394q9 45 40.5 77t63.5 45t60 30t32 37q3 17 -9.5 24t-35.5 7q-30 0 -64 -9q-21 29 -6 72q49 17 110 17q59 0 89 -25.5t19 -76.5q-10 -48 -43.5 -74.5t-80 -47t-67.5 -40.5h139q3 -19 -2 -43q-5 -22 -15 -41h-235q-1 20 5 48z" />
    <glyph glyph-name="threesuperior" unicode="&#xb3;" horiz-adv-x="304" 
d="M307 443q-21 -102 -168 -102q-32 0 -58.5 5.5t-36.5 11.5l-11 5q10 43 39 66q31 -11 69 -11q58 0 65 36q5 18 -4 26t-35 8h-48q-6 35 15 74h48q37 0 43 26q3 16 -6.5 23t-33.5 7q-16 0 -33 -2t-26 -4l-9 -3q-19 21 -11 66q48 19 109 19q66 0 95.5 -24t20.5 -69
q-12 -54 -60 -74q50 -22 36 -84z" />
    <glyph glyph-name="acute" unicode="&#xb4;" horiz-adv-x="224" 
d="M236 767l-166 -139q-60 11 -76 44l122 147q38 5 74 -11t46 -41z" />
    <glyph glyph-name="mu" unicode="&#xb5;" horiz-adv-x="589" 
d="M407 522q31 8 79 8q23 0 41.5 -2t26.5 -4l7 -2l-109 -514q-28 -8 -79 -8q-21 0 -40 2t-27 4l-8 2l5 23q-46 -41 -108 -41q-36 0 -60 20q-5 -71 -3.5 -121.5t6.5 -77.5l4 -27q-34 -25 -85 -31.5t-87 4.5q0 62 36 229l114 536q31 8 79 8q23 0 41.5 -2t25.5 -4l8 -2
l-75 -351q-13 -61 50 -61q37 0 77 29z" />
    <glyph glyph-name="paragraph" unicode="&#xb6;" horiz-adv-x="692" 
d="M140 -221l95 445q-74 1 -120 37t-59.5 88t0.5 112q23 97 100 167.5t188 70.5h118l-196 -920q-25 -6 -64 -6q-18 0 -33.5 1.5t-22.5 3.5zM689 693l-194 -914q-25 -6 -64 -6q-18 0 -33.5 1.5t-21.5 3.5l-7 1l194 914q24 6 65 6q17 0 32.5 -1.5t21.5 -3.5z" />
    <glyph glyph-name="periodcentered" unicode="&#xb7;" horiz-adv-x="244" 
d="M198 347l-27 -124q-25 -8 -68 -8q-20 0 -37 2t-24 4l-6 2l27 124q23 8 69 8q19 0 35.5 -2t23.5 -4z" />
    <glyph glyph-name="cedilla" unicode="&#xb8;" horiz-adv-x="296" 
d="M-45 53l76 -18l-23 -58q105 0 84 -99q-11 -51 -51.5 -77t-101.5 -26q-30 0 -55 6t-35 12l-10 6q8 40 38 58q24 -13 62 -13q60 -2 68 38q3 16 -5.5 25.5t-30.5 9.5h-53l-10 16z" />
    <glyph glyph-name="onesuperior" unicode="&#xb9;" horiz-adv-x="258" 
d="M80 626q67 16 112 57q18 5 53 5q24 0 46 -5l-71 -333q-23 -5 -49 -5q-31 0 -54 5l39 181q5 28 11 44q-36 -21 -78 -26q-23 28 -9 77z" />
    <glyph glyph-name="ordmasculine" unicode="&#xba;" horiz-adv-x="370" 
d="M71 463q19 88 64 127.5t119 39.5t102.5 -39t9.5 -128q-18 -88 -63.5 -128t-119.5 -40t-102 39.5t-10 128.5zM258 463q10 56 5 72t-26 16q-22 0 -35 -17.5t-24 -70.5q-10 -56 -5 -71t27 -15q21 0 34 16.5t24 69.5zM39 244h264q2 -19 -3 -40q-5 -23 -15 -42h-264
q-1 16 4 42q5 25 14 40z" />
    <glyph glyph-name="guillemotright" unicode="&#xbb;" horiz-adv-x="545" 
d="M338 514l169 -185q5 -24 -4 -63q-4 -17 -9.5 -31.5t-9.5 -20.5l-3 -7l-247 -182q-27 34 -24 92l166 152l-101 153q20 57 63 92zM123 502l160 -176q5 -23 -3 -60q-3 -15 -8.5 -29t-9.5 -20l-3 -6l-235 -174q-26 31 -24 86l158 146l-96 147q21 57 61 86z" />
    <glyph glyph-name="onequarter" unicode="&#xbc;" horiz-adv-x="693" 
d="M35 -3l534 698q19 7 58 7q17 0 31.5 -2t19.5 -4l6 -1l-535 -698q-24 -7 -59 -7q-15 0 -28.5 2t-19.5 4zM91 626q67 16 112 57q17 5 53 5q24 0 46 -5l-71 -333q-23 -5 -49 -5q-32 0 -54 5l39 181q5 28 11 44q-36 -21 -78 -26q-23 28 -9 77zM589 142h37q1 -18 -3 -36
q-3 -15 -12 -34h-37l-14 -67q-22 -5 -46 -5t-43 5l14 67h-161q0 22 2 33q5 20 11 31l199 201q22 6 49 6q25 0 46 -6zM519 230l-86 -88h67z" />
    <glyph glyph-name="onehalf" unicode="&#xbd;" horiz-adv-x="736" 
d="M569 695q19 7 58 7q17 0 31.5 -2t19.5 -4l6 -1l-535 -698q-24 -7 -59 -7q-15 0 -28.5 2t-19.5 4l-7 1zM203 683q17 5 53 5q24 0 46 -5l-71 -333q-23 -5 -49 -5q-32 0 -54 5l39 181q5 28 11 44q-36 -21 -78 -26q-23 28 -9 77q67 16 112 57zM474 331q51 17 111 17
q59 0 89 -25.5t19 -76.5q-10 -48 -43.5 -74.5t-80 -47t-67.5 -40.5h140q3 -19 -2 -43q-5 -23 -16 -41h-236q-1 20 5 48q10 45 41 77t63.5 45t60.5 30t32 37q4 16 -8 23.5t-34 7.5q-29 1 -68 -9q-19 29 -6 72z" />
    <glyph glyph-name="threequarters" unicode="&#xbe;" horiz-adv-x="722" 
d="M600 695q19 7 58 7q17 0 31.5 -2t20.5 -4l5 -1l-535 -698q-24 -7 -59 -7q-15 0 -28.5 2t-20.5 4l-6 1zM113 675q48 19 109 19q66 0 95.5 -24t20.5 -69q-12 -54 -60 -74q50 -22 36 -84q-21 -102 -168 -102q-32 0 -58.5 5.5t-37.5 11.5l-10 5q10 43 39 66q31 -11 69 -11
q58 0 65 36q5 18 -4 26t-35 8h-48q-6 35 15 74h48q37 0 43 26q3 16 -6.5 23t-33.5 7q-16 0 -33 -2t-26 -4l-9 -3q-19 21 -11 66zM567 337q23 6 49 6q25 0 46 -6l-42 -195h37q1 -18 -3 -36q-2 -15 -12 -34h-37l-14 -67q-23 -5 -46 -5q-24 0 -43 5l14 67h-161q0 23 2 34
q5 18 11 30zM464 142h67l19 88z" />
    <glyph glyph-name="questiondown" unicode="&#xbf;" horiz-adv-x="445" 
d="M199 369l31 143q28 8 78 8q23 0 42 -2t26 -4l8 -2l-31 -143q-26 -8 -78 -8q-22 0 -41 2t-27 4zM-36 9q9 44 29 77t43.5 51t49.5 35.5t48 31t40 36t24 52.5q22 8 63 8q18 0 33.5 -2t21.5 -4l7 -2q-12 -57 -34.5 -95.5t-47.5 -57.5t-49 -34t-42.5 -35.5t-25.5 -51.5
q-8 -38 11 -53t61 -15q28 0 55.5 6t40.5 12l14 5q44 -37 23 -107q-73 -36 -181 -36q-100 0 -152 41.5t-32 137.5z" />
    <glyph glyph-name="Agrave" unicode="&#xc0;" horiz-adv-x="672" 
d="M461 940l60 -147q-32 -34 -95 -44l-107 139q21 25 63.5 41t78.5 11zM321 711q41 9 103 9q30 0 54.5 -2t34.5 -4l10 -3l79 -702q-30 -9 -86 -9q-23 0 -40.5 2t-23.5 4l-6 3l-16 146h-251l-78 -146q-36 -9 -84 -9q-21 0 -39.5 2t-25.5 4l-8 3zM394 570h-4q-18 -54 -51 -117
l-98 -181h177l-20 181q-3 28 -4 57.5t0 44.5v15z" />
    <glyph glyph-name="Aacute" unicode="&#xc1;" horiz-adv-x="672" 
d="M372 794l122 147q38 5 74 -11t46 -41l-167 -139q-58 9 -75 44zM322 711q40 9 102 9q30 0 54.5 -2t34.5 -4l10 -3l79 -702q-30 -9 -86 -9q-23 0 -40.5 2t-23.5 4l-6 3l-16 146h-251l-78 -146q-35 -9 -84 -9q-21 0 -39.5 2t-25.5 4l-8 3zM395 570h-4q-19 -54 -52 -117
l-98 -181h177l-20 181q-3 28 -3.5 57.5t-0.5 44.5z" />
    <glyph glyph-name="Acircumflex" unicode="&#xc2;" horiz-adv-x="673" 
d="M478 944l137 -126q-38 -52 -83 -68l-92 67l-119 -66q-42 18 -55 67l176 126h36zM322 711q40 9 103 9q29 0 53.5 -2t34.5 -4l10 -3l80 -702q-31 -9 -86 -9q-23 0 -41 2t-24 4l-6 3l-16 146h-251l-78 -146q-35 -9 -84 -9q-21 0 -39 2t-26 4l-8 3zM395 570h-4
q-18 -54 -52 -117l-98 -181h177l-20 181q-3 28 -3.5 57.5t-0.5 44.5z" />
    <glyph glyph-name="Atilde" unicode="&#xc3;" horiz-adv-x="672" 
d="M269 808q7 13 18 27.5t36 30.5t55 17q34 2 72.5 -18t61.5 -19q13 1 26 7.5t19 12.5l6 6q43 -15 54 -52q-44 -64 -110 -67q-35 -2 -72.5 16t-59.5 17q-15 0 -28.5 -6.5t-19.5 -13.5l-6 -6q-46 12 -52 48zM321 711q40 9 103 9q29 0 54 -2t35 -4l10 -3l79 -702
q-30 -9 -86 -9q-23 0 -40.5 2t-23.5 4l-6 3l-16 146h-252l-78 -146q-35 -9 -84 -9q-21 0 -39 2t-25 4l-8 3zM394 570h-4q-18 -54 -52 -117l-97 -181h177l-21 181q-3 28 -3.5 57.5t0.5 44.5v15z" />
    <glyph glyph-name="Adieresis" unicode="&#xc4;" horiz-adv-x="672" 
d="M287 882q24 7 68 7q19 0 35 -1.5t22 -3.5l7 -2l-24 -115q-25 -7 -68 -7q-19 0 -35 2t-22 4l-7 1zM484 882q24 7 68 7q19 0 35 -1.5t23 -3.5l6 -2l-24 -115q-26 -7 -68 -7q-20 0 -36 2t-22 4l-6 1zM321 711q41 9 103 9q30 0 54.5 -2t34.5 -4l10 -3l79 -702q-30 -9 -86 -9
q-23 0 -40.5 2t-23.5 4l-6 3l-16 146h-251l-78 -146q-36 -9 -84 -9q-21 0 -39.5 2t-25.5 4l-8 3zM394 570h-4q-18 -54 -51 -117l-98 -181h177l-20 181q-3 28 -4 57.5t0 44.5v15z" />
    <glyph glyph-name="Aring" unicode="&#xc5;" horiz-adv-x="674" 
d="M523 690l81 -681q-31 -9 -87 -9q-23 0 -40.5 2t-23.5 4l-6 3l-16 146h-251l-78 -146q-36 -9 -84 -9q-21 0 -39.5 2t-26.5 4l-8 3l370 679q-32 33 -20 89q13 60 62 94.5t107 34.5t93 -34t22 -95q-12 -55 -55 -87zM487 777q4 20 -6.5 34.5t-35.5 14.5q-24 0 -40.5 -14.5
t-20.5 -34.5t6 -34.5t34 -14.5q25 0 42 14.5t21 34.5zM419 272l-21 177q-3 28 -4 57.5t0 44.5v15h-4q-17 -54 -52 -117l-96 -177h177z" />
    <glyph glyph-name="AE" unicode="&#xc6;" horiz-adv-x="891" 
d="M517 720h413q11 -59 -26 -120h-247l-37 -176h197q9 -63 -26 -121h-197l-38 -182h257q9 -66 -26 -121h-400l34 159h-200l-120 -149q-35 -10 -88 -10q-57 0 -80 10zM317 279h129l46 217z" />
    <glyph glyph-name="Ccedilla" unicode="&#xc7;" horiz-adv-x="563" 
d="M487 90q4 -15 4 -30t-2 -23l-2 -8q-67 -34 -181 -38l-13 -34q105 0 84 -99q-11 -51 -51.5 -77t-101.5 -26q-30 0 -55 6t-35 12l-10 6q6 39 37 58q26 -13 63 -13q59 -2 68 38q3 16 -5.5 25.5t-30.5 9.5h-53l-11 16l33 82q-118 17 -159.5 119.5t-7.5 267.5
q39 179 134 263.5t250 84.5q53 0 97 -9.5t61 -18.5l18 -10q-3 -26 -24 -60q-10 -16 -21.5 -28.5t-18.5 -17.5l-6 -4q-50 20 -112 20q-82 0 -136 -53.5t-83 -189.5q-28 -135 2.5 -187.5t113.5 -52.5q30 0 62.5 5.5t50.5 11.5l17 5q17 -15 24 -51z" />
    <glyph glyph-name="Egrave" unicode="&#xc8;" 
d="M374 749l-107 139q21 25 63.5 41t78.5 11l60 -147q-32 -34 -95 -44zM159 720h437q4 -22 -2 -58q-8 -40 -24 -64h-278l-37 -174h228q4 -32 -2 -59q-9 -37 -24 -62h-228l-38 -181h288q4 -30 -3 -60q-9 -39 -23 -62h-447z" />
    <glyph glyph-name="Eacute" unicode="&#xc9;" 
d="M543 890l-166 -140q-58 11 -76 44l122 148q38 4 74 -11.5t46 -40.5zM159 720h437q4 -22 -2 -58q-8 -40 -24 -64h-278l-37 -174h228q4 -32 -2 -59q-9 -37 -24 -62h-228l-38 -181h288q4 -30 -3 -60q-9 -39 -23 -62h-447z" />
    <glyph glyph-name="Ecircumflex" unicode="&#xca;" horiz-adv-x="559" 
d="M446 950l129 -132q-37 -51 -83 -68l-92 67l-120 -66q-41 17 -54 67l184 132h36zM159 720h438q4 -27 -2 -58q-7 -36 -24 -64h-278l-37 -174h228q2 -39 -2 -59q-8 -33 -24 -62h-228l-38 -181h288q4 -30 -3 -60q-9 -39 -23 -62h-448z" />
    <glyph glyph-name="Edieresis" unicode="&#xcb;" horiz-adv-x="559" 
d="M373 872l-24 -115q-26 -7 -68 -7q-20 0 -36 2t-22 4l-6 1l24 115q24 7 68 7q19 0 35 -1.5t22 -3.5zM569 872l-24 -115q-25 -7 -68 -7q-19 0 -35 2t-22 4l-7 1l24 115q24 7 68 7q19 0 35 -1.5t22 -3.5zM159 720h438q4 -27 -2 -58q-7 -36 -24 -64h-278l-37 -174h228
q2 -39 -2 -59q-8 -33 -24 -62h-228l-38 -181h288q4 -30 -3 -60q-9 -39 -23 -62h-448z" />
    <glyph glyph-name="Igrave" unicode="&#xcc;" horiz-adv-x="300" 
d="M246 749l-107 139q21 25 63.5 41t78.5 11l60 -147q-32 -34 -95 -44zM7 9l149 702q32 9 81 9q22 0 42 -2t29 -4l8 -3l-149 -702q-34 -9 -82 -9q-24 0 -43.5 2t-27.5 4z" />
    <glyph glyph-name="Iacute" unicode="&#xcd;" horiz-adv-x="300" 
d="M402 890l-167 -140q-57 10 -75 44l122 148q38 4 74 -11.5t46 -40.5zM7 9l149 702q32 9 81 9q22 0 42 -2t29 -4l8 -3l-149 -702q-34 -9 -82 -9q-24 0 -43.5 2t-27.5 4z" />
    <glyph glyph-name="Icircumflex" unicode="&#xce;" horiz-adv-x="299" 
d="M305 950l129 -132q-36 -51 -83 -68l-91 67l-120 -66q-43 18 -54 67l183 132h36zM7 9l149 702q31 9 80 9q22 0 42 -2t28 -4l9 -3l-149 -702q-34 -9 -82 -9q-24 0 -43 2t-27 4z" />
    <glyph glyph-name="Idieresis" unicode="&#xcf;" horiz-adv-x="299" 
d="M235 878l-24 -115q-25 -7 -68 -7q-19 0 -35 2t-22 4l-7 1l24 115q24 7 68 7q19 0 35 -1.5t22 -3.5zM432 878l-24 -115q-26 -7 -68 -7q-20 0 -36 2t-22 4l-6 1l24 115q24 7 68 7q19 0 35 -1.5t23 -3.5zM7 9l149 702q32 9 81 9q22 0 41.5 -2t27.5 -4l9 -3l-149 -702
q-33 -9 -81 -9q-24 0 -43.5 2t-27.5 4z" />
    <glyph glyph-name="Eth" unicode="&#xd0;" horiz-adv-x="687" 
d="M180 720h247q307 0 226 -375q-40 -187 -132.5 -266t-246.5 -79h-247l65 305h-74q-2 22 5 53t17 50h74zM312 595l-39 -187h109q2 -20 -5 -51.5t-17 -51.5h-109l-38 -180h82q74 0 120 49.5t75 185.5q15 71 15.5 118.5t-14.5 72.5t-38 34.5t-59 9.5h-82z" />
    <glyph glyph-name="Ntilde" unicode="&#xd1;" horiz-adv-x="704" 
d="M536 869q16 0 31 6.5t21 12.5l7 7q39 -24 34 -77q-4 -6 -12.5 -14.5t-35.5 -22.5t-57 -14q-34 0 -71 16t-60 16q-15 0 -29 -6.5t-21 -12.5l-7 -7q-41 25 -35 77q2 2 5 5.5t13 12.5t21.5 15.5t29 12t35.5 5.5q35 0 72 -16t59 -16zM370 9l-82 365l-34 168h-5
q-6 -83 -29 -191l-73 -342q-26 -9 -74 -9q-21 0 -37.5 2t-22.5 4l-6 3l149 702q36 9 103 9q30 0 54.5 -2t33.5 -4l9 -3l82 -362q8 -38 16 -82.5t12 -70.5l3 -26h5q11 96 34 203l72 338q28 9 73 9q21 0 37.5 -2t23.5 -4l6 -3l-149 -702q-33 -9 -101 -9q-29 0 -54 2t-36 4z
" />
    <glyph glyph-name="Ograve" unicode="&#xd2;" horiz-adv-x="687" 
d="M467 948l59 -148q-33 -35 -94 -43l-107 139q21 25 63.5 41t78.5 11zM57 377q40 186 133.5 270.5t237.5 84.5q142 0 204 -99t21 -289q-40 -189 -132 -272.5t-237 -83.5q-144 0 -205.5 99t-21.5 290zM488 360q16 73 17.5 122.5t-10.5 76t-33 37.5t-54 11q-67 0 -111.5 -53
t-74.5 -194q-23 -97 -16 -151.5t30 -74.5t67 -20q67 0 111 53t74 193z" />
    <glyph glyph-name="Oacute" unicode="&#xd3;" horiz-adv-x="687" 
d="M366 814l122 147q38 4 73.5 -11t46.5 -41l-165 -139q-60 11 -77 44zM57 377q40 186 133.5 270.5t237.5 84.5q142 0 204 -99t21 -289q-40 -189 -132 -272.5t-237 -83.5q-144 0 -205.5 99t-21.5 290zM488 360q16 73 17.5 122.5t-10.5 76t-33 37.5t-54 11q-67 0 -111.5 -53
t-74.5 -194q-23 -97 -16 -151.5t30 -74.5t67 -20q67 0 111 53t74 193z" />
    <glyph glyph-name="Ocircumflex" unicode="&#xd4;" horiz-adv-x="687" 
d="M478 948l139 -128q-36 -51 -83 -68l-92 67l-119 -66q-43 18 -54 67l173 128h36zM57 377q40 186 133.5 270.5t237.5 84.5q142 0 204 -99t21 -289q-40 -189 -132 -272.5t-237 -83.5q-144 0 -205.5 99t-21.5 290zM488 360q16 73 17.5 122.5t-10.5 76t-33 37.5t-54 11
q-67 0 -111.5 -53t-74.5 -194q-23 -97 -16 -151.5t30 -74.5t67 -20q67 0 111 53t74 193z" />
    <glyph glyph-name="Otilde" unicode="&#xd5;" horiz-adv-x="687" 
d="M522 880q16 1 30 8t20 14l7 6q19 -9 29 -30t9 -44q-4 -6 -12 -15t-35 -24t-57 -16t-69.5 13.5t-63.5 14.5q-15 0 -29 -7t-21 -14l-7 -7q-43 23 -38 75q4 6 12.5 14.5t35.5 23.5t56 16q34 1 72.5 -13.5t60.5 -14.5zM57 377q40 186 133.5 270.5t237.5 84.5q142 0 204 -99
t21 -289q-40 -189 -132 -272.5t-237 -83.5q-144 0 -205.5 99t-21.5 290zM488 360q16 73 17.5 122.5t-10.5 76t-33 37.5t-54 11q-67 0 -111.5 -53t-74.5 -194q-23 -97 -16 -151.5t30 -74.5t67 -20q67 0 111 53t74 193z" />
    <glyph glyph-name="Odieresis" unicode="&#xd6;" horiz-adv-x="687" 
d="M300 893q23 7 67 7q19 0 35 -2t23 -4l7 -1l-25 -115q-25 -7 -67 -7q-20 0 -36 1.5t-22 3.5l-7 2zM496 893q23 7 67 7q19 0 35.5 -2t23.5 -4l6 -1l-25 -115q-24 -7 -67 -7q-19 0 -35.5 1.5t-22.5 3.5l-7 2zM57 377q40 186 133.5 270.5t237.5 84.5q142 0 204 -99t21 -289
q-40 -189 -132 -272.5t-237 -83.5q-144 0 -205.5 99t-21.5 290zM488 360q16 73 17.5 122.5t-10.5 76t-33 37.5t-54 11q-67 0 -111.5 -53t-74.5 -194q-23 -97 -16 -151.5t30 -74.5t67 -20q67 0 111 53t74 193z" />
    <glyph glyph-name="multiply" unicode="&#xd7;" horiz-adv-x="469" 
d="M215 211l-138 -114q-20 9 -38 34q-8 11 -14 22t-8 17l-2 5l138 114l-89 114q13 20 42 44q13 11 26 19.5t20 11.5l6 3l90 -115l138 115q18 -9 37 -34q9 -11 15 -22t8 -17l1 -5l-139 -114l90 -114q-12 -21 -42 -45q-13 -11 -26 -19t-19 -11l-6 -3z" />
    <glyph glyph-name="Oslash" unicode="&#xd8;" horiz-adv-x="687" 
d="M713 724l-78 -95q57 -103 18 -285q-40 -189 -132 -272.5t-237 -83.5q-88 0 -146 38l-64 -79q-66 2 -93 50l89 106q-50 101 -13 274q40 186 133.5 270.5t237.5 84.5q79 0 134 -31l59 72q61 -2 92 -49zM477 586q-24 21 -69 21q-67 0 -111.5 -53t-74.5 -194
q-13 -57 -16 -103zM229 141q23 -27 74 -27q67 0 111 53t74 193q16 75 17 119z" />
    <glyph glyph-name="Ugrave" unicode="&#xd9;" horiz-adv-x="675" 
d="M417 749l-107 139q21 25 63.5 41t78.5 11l60 -147q-32 -34 -95 -44zM697 711l-98 -460q-26 -125 -110.5 -194t-209.5 -69q-126 0 -189 70.5t-37 192.5l98 460q30 9 81 9q23 0 42.5 -2t27.5 -4l8 -3l-100 -472q-12 -56 11 -86t79 -30q114 0 139 116l100 472q29 9 80 9
q23 0 42.5 -2t27.5 -4z" />
    <glyph glyph-name="Uacute" unicode="&#xda;" horiz-adv-x="675" 
d="M593 890l-167 -140q-57 10 -75 44l122 148q38 4 74 -11.5t46 -40.5zM697 711l-98 -460q-26 -125 -110.5 -194t-209.5 -69q-126 0 -189 70.5t-37 192.5l98 460q30 9 81 9q23 0 42.5 -2t27.5 -4l8 -3l-100 -472q-12 -56 11 -86t79 -30q114 0 139 116l100 472q29 9 80 9
q23 0 42.5 -2t27.5 -4z" />
    <glyph glyph-name="Ucircumflex" unicode="&#xdb;" horiz-adv-x="675" 
d="M492 944l139 -126q-37 -51 -83 -68l-92 67l-119 -66q-42 18 -55 67l174 126h36zM697 711l-98 -460q-26 -125 -110.5 -194t-208.5 -69q-126 0 -189.5 70.5t-37.5 192.5l98 460q30 9 81 9q23 0 43 -2t28 -4l8 -3l-100 -472q-12 -56 11 -86t79 -30q114 0 139 116l100 472
q28 9 79 9q23 0 42.5 -2t27.5 -4z" />
    <glyph glyph-name="Udieresis" unicode="&#xdc;" horiz-adv-x="675" 
d="M428 892l-24 -115q-26 -7 -68 -7q-20 0 -36 2t-22 4l-6 1l24 115q24 7 68 7q19 0 35 -1.5t23 -3.5zM624 892l-24 -115q-26 -7 -68 -7q-20 0 -36 2t-22 4l-6 1l24 115q24 7 68 7q19 0 35 -1.5t23 -3.5zM697 711l-98 -460q-26 -125 -110.5 -194t-209.5 -69
q-126 0 -189 70.5t-37 192.5l98 460q30 9 81 9q23 0 42.5 -2t27.5 -4l8 -3l-100 -472q-12 -56 11 -86t79 -30q114 0 139 116l100 472q29 9 80 9q23 0 42.5 -2t27.5 -4z" />
    <glyph glyph-name="Yacute" unicode="&#xdd;" horiz-adv-x="648" 
d="M338 794l122 148q38 4 74 -11.5t46 -40.5l-167 -140q-57 10 -75 44zM555 711q42 9 93 9q23 0 44 -2t30 -4l10 -3l-333 -426l-59 -276q-29 -9 -80 -9q-25 0 -45 2t-27 4l-7 3l58 275l-146 427q35 9 97 9q24 0 43.5 -2t26.5 -4l7 -3l88 -261z" />
    <glyph glyph-name="Thorn" unicode="&#xde;" horiz-adv-x="607" 
d="M156 711q30 9 79 9q22 0 41.5 -2t27.5 -4l8 -3l-24 -112h126q104 0 151 -69.5t25 -175.5q-22 -102 -93.5 -156.5t-179.5 -54.5h-126l-28 -134q-32 -9 -80 -9q-24 0 -43 2t-26 4l-7 3zM262 475l-44 -208h94q100 0 122 104t-78 104h-94z" />
    <glyph glyph-name="germandbls" unicode="&#xdf;" horiz-adv-x="584" 
d="M-8 8l116 545q21 98 91.5 147.5t183.5 49.5q103 0 147.5 -51.5t28.5 -133.5q-9 -44 -35 -91q-15 -1 -33.5 -7t-40.5 -24t-27 -43q-5 -24 7 -46t31.5 -41.5t39 -41.5t28.5 -56.5t0 -76.5q-31 -148 -217 -148q-34 0 -64.5 5t-43.5 10l-14 5q7 61 52 104q35 -11 66 -11
q63 0 74 47q5 23 -13.5 48.5t-42.5 47.5t-39.5 61.5t-5.5 87.5q10 44 37.5 75.5t49.5 41.5l23 9q13 26 17 45q6 30 -7.5 49t-44.5 19q-81 0 -99 -88l-114 -538q-31 -8 -79 -8q-23 0 -41 2t-25 4z" />
    <glyph glyph-name="agrave" unicode="&#xe0;" 
d="M360 776l60 -147q-33 -34 -95 -44l-107 139q21 25 63.5 41t78.5 11zM407 530q20 6 69 6q22 0 40.5 -2t25.5 -4l8 -2l-110 -520q-30 -8 -71 -8q-19 0 -36 2t-25 4l-7 2l1 41q-56 -59 -144 -59t-124 70.5t-4 217.5q31 145 91 203.5t153 58.5q85 0 118 -52zM355 336
q7 37 -7.5 60t-46.5 23q-43 0 -69 -33t-45 -124q-17 -92 -6 -122t54 -30q33 0 57.5 23.5t32.5 60.5z" />
    <glyph glyph-name="aacute" unicode="&#xe1;" 
d="M251 629l122 147q38 5 74 -11t46 -41l-166 -139q-60 11 -76 44zM407 530q20 6 69 6q22 0 40.5 -2t25.5 -4l8 -2l-110 -520q-30 -8 -71 -8q-19 0 -36 2t-25 4l-7 2l1 41q-56 -59 -144 -59t-124 70.5t-4 217.5q31 145 91 203.5t153 58.5q85 0 118 -52zM355 336
q7 37 -7.5 60t-46.5 23q-43 0 -69 -33t-45 -124q-17 -92 -6 -122t54 -30q33 0 57.5 23.5t32.5 60.5z" />
    <glyph glyph-name="acircumflex" unicode="&#xe2;" 
d="M398 777l130 -119q-36 -50 -81 -66l-90 65l-117 -64q-39 15 -53 65l176 119h35zM407 530q20 6 69 6q22 0 40.5 -2t25.5 -4l8 -2l-110 -520q-30 -8 -71 -8q-19 0 -36 2t-25 4l-7 2l1 41q-56 -59 -144 -59t-124 70.5t-4 217.5q31 145 91 203.5t153 58.5q85 0 118 -52z
M355 336q7 37 -7.5 60t-46.5 23q-43 0 -69 -33t-45 -124q-17 -92 -6 -122t54 -30q33 0 57.5 23.5t32.5 60.5z" />
    <glyph glyph-name="atilde" unicode="&#xe3;" 
d="M197 681q5 6 13.5 14.5t36 22.5t55.5 14q34 0 71 -16t60 -16q16 0 30.5 6.5t20.5 13.5l7 6q18 -11 27.5 -32.5t6.5 -44.5q-4 -6 -12.5 -14.5t-35.5 -22.5t-56 -14q-35 0 -72 16t-59 16q-15 0 -29.5 -6.5t-21.5 -13.5l-7 -6q-41 26 -35 77zM407 530q20 6 69 6
q22 0 40.5 -2t25.5 -4l8 -2l-110 -520q-30 -8 -71 -8q-19 0 -36 2t-25 4l-7 2l1 41q-56 -59 -144 -59t-124 70.5t-4 217.5q31 145 91 203.5t153 58.5q85 0 118 -52zM355 336q7 37 -7.5 60t-46.5 23q-43 0 -69 -33t-45 -124q-17 -92 -6 -122t54 -30q33 0 57.5 23.5t32.5 60.5
z" />
    <glyph glyph-name="adieresis" unicode="&#xe4;" 
d="M222 717q24 7 68 7q19 0 35 -2t23 -4l6 -1l-24 -115q-25 -7 -68 -7q-19 0 -35 1.5t-23 3.5l-6 2zM419 717q24 7 68 7q19 0 35 -2t22 -4l7 -1l-24 -115q-26 -7 -68 -7q-20 0 -36 1.5t-22 3.5l-6 2zM407 530q20 6 69 6q22 0 40.5 -2t25.5 -4l8 -2l-110 -520q-30 -8 -71 -8
q-19 0 -36 2t-25 4l-7 2l1 41q-56 -59 -144 -59t-124 70.5t-4 217.5q31 145 91 203.5t153 58.5q85 0 118 -52zM355 336q7 37 -7.5 60t-46.5 23q-43 0 -69 -33t-45 -124q-17 -92 -6 -122t54 -30q33 0 57.5 23.5t32.5 60.5z" />
    <glyph glyph-name="aring" unicode="&#xe5;" 
d="M238 699q9 56 55 87t103 31q56 0 92 -31t27 -87q-10 -56 -55.5 -88.5t-105.5 -32.5t-93 32.5t-23 88.5zM424 699q3 18 -7.5 30t-33.5 12q-22 0 -37 -12.5t-18 -29.5q-4 -17 6 -29.5t32 -12.5q23 0 38.5 12.5t19.5 29.5zM407 530q20 6 69 6q22 0 40.5 -2t25.5 -4l8 -2
l-110 -520q-30 -8 -71 -8q-19 0 -36 2t-25 4l-7 2l1 41q-56 -59 -144 -59t-124 70.5t-4 217.5q31 145 91 203.5t153 58.5q85 0 118 -52zM355 336q7 37 -7.5 60t-46.5 23q-43 0 -69 -33t-45 -124q-17 -92 -6 -122t54 -30q33 0 57.5 23.5t32.5 60.5z" />
    <glyph glyph-name="ae" unicode="&#xe6;" horiz-adv-x="786" 
d="M630 540q84 0 119 -52t12 -157q-6 -28 -14.5 -55t-14.5 -40l-5 -13h-270q-11 -112 84 -112q26 0 53 5.5t40 11.5l14 6q34 -34 24 -99q-5 -5 -15.5 -12.5t-49.5 -20t-86 -12.5q-74 0 -107 53l-11 -36q-20 -7 -61 -7q-19 0 -34.5 2t-21.5 4l-7 2l3 41q-56 -59 -137 -59
t-113.5 70t-0.5 216q31 145 89 204.5t144 59.5q43 0 66 -11t42 -41l15 42q18 6 67 6q22 0 37 -2t19 -4l4 -1l-4 -33q57 44 120 44zM477 318h135q5 14 8 28q16 82 -42 82q-67 0 -101 -110zM305 194l30 142q16 83 -44 83q-36 0 -60.5 -33.5t-43.5 -123.5q-17 -92 -7.5 -122
t45.5 -30q61 0 80 84z" />
    <glyph glyph-name="ccedilla" unicode="&#xe7;" horiz-adv-x="446" 
d="M216 -10l-15 -38q104 0 83 -99q-11 -50 -51.5 -76.5t-100.5 -26.5q-30 0 -55 6t-35 12l-10 6q6 39 37 58q26 -13 62 -13q60 -2 69 38q3 16 -6 25.5t-31 9.5h-52l-11 16l35 88q-158 36 -109 267q59 277 293 277q46 0 81.5 -8t48.5 -16l13 -7q-15 -57 -65 -99
q-28 13 -74 13q-55 0 -87 -38t-50 -121q-18 -80 -0.5 -117t74.5 -37q21 0 43 4t33 8l11 3q30 -36 22 -100q-53 -32 -153 -35z" />
    <glyph glyph-name="egrave" unicode="&#xe8;" horiz-adv-x="509" 
d="M312 585l-107 139q21 25 63.5 41t78.5 11l60 -147q-33 -34 -95 -44zM452 219h-278q-9 -58 14 -80.5t72 -22.5q28 0 55.5 6t41.5 12l14 6q15 -17 22.5 -46.5t1.5 -58.5q-7 -5 -20 -12.5t-59 -20t-98 -12.5q-123 0 -171 74t-19 214q30 138 102.5 200t185.5 62
q91 0 140.5 -56.5t27.5 -159.5q-6 -29 -14 -55.5t-13 -38.5zM344 346q16 82 -47 82q-69 0 -104 -113h142q6 20 9 31z" />
    <glyph glyph-name="eacute" unicode="&#xe9;" horiz-adv-x="509" 
d="M471 724l-166 -139q-60 11 -76 44l122 147q38 5 74 -11t46 -41zM452 219h-278q-9 -58 14 -80.5t72 -22.5q28 0 55.5 6t41.5 12l14 6q15 -17 22.5 -46.5t1.5 -58.5q-7 -5 -20 -12.5t-59 -20t-98 -12.5q-123 0 -171 74t-19 214q30 138 102.5 200t185.5 62q91 0 140.5 -56.5
t27.5 -159.5q-6 -29 -14 -55.5t-13 -38.5zM344 346q16 82 -47 82q-69 0 -104 -113h142q6 20 9 31z" />
    <glyph glyph-name="ecircumflex" unicode="&#xea;" horiz-adv-x="509" 
d="M371 770l126 -129q-37 -51 -81 -66l-90 65l-116 -64q-40 16 -54 65l180 129h35zM452 219h-278q-9 -58 14 -80.5t72 -22.5q28 0 55.5 6t41.5 12l14 6q15 -17 22.5 -46.5t1.5 -58.5q-7 -5 -20 -12.5t-59 -20t-98 -12.5q-123 0 -171 74t-19 214q30 138 102.5 200t185.5 62
q91 0 140.5 -56.5t27.5 -159.5q-6 -29 -14 -55.5t-13 -38.5zM344 346q16 82 -47 82q-69 0 -104 -113h142q6 20 9 31z" />
    <glyph glyph-name="edieresis" unicode="&#xeb;" horiz-adv-x="509" 
d="M315 717l-24 -115q-25 -7 -68 -7q-19 0 -35 1.5t-22 3.5l-7 2l24 115q24 7 68 7q19 0 35 -2t22 -4zM512 717l-24 -115q-26 -7 -68 -7q-20 0 -36 1.5t-22 3.5l-6 2l24 115q24 7 68 7q19 0 35 -2t23 -4zM452 219h-278q-9 -58 14 -80.5t72 -22.5q28 0 55.5 6t41.5 12l14 6
q15 -17 22.5 -46.5t1.5 -58.5q-7 -5 -20 -12.5t-59 -20t-98 -12.5q-123 0 -171 74t-19 214q30 138 102.5 200t185.5 62q91 0 140.5 -56.5t27.5 -159.5q-6 -29 -14 -55.5t-13 -38.5zM344 346q16 82 -47 82q-69 0 -104 -113h142q6 20 9 31z" />
    <glyph glyph-name="igrave" unicode="&#xec;" horiz-adv-x="265" 
d="M190 597l-108 139q22 25 64.5 41t77.5 11l60 -147q-32 -35 -94 -44zM255 522l-109 -514q-29 -8 -79 -8q-23 0 -42 2t-26 4l-7 2l109 514q27 8 79 8q22 0 41 -2t27 -4z" />
    <glyph glyph-name="iacute" unicode="&#xed;" horiz-adv-x="265" 
d="M354 734l-167 -139q-59 11 -75 44l122 147q38 5 74 -11t46 -41zM255 522l-109 -514q-29 -8 -79 -8q-23 0 -41.5 2t-25.5 4l-8 2l109 514q27 8 79 8q22 0 41 -2t27 -4z" />
    <glyph glyph-name="icircumflex" unicode="&#xee;" horiz-adv-x="265" 
d="M253 790l126 -129q-37 -51 -81 -66l-90 65l-117 -64q-39 16 -54 65l181 129h35zM255 522l-109 -514q-29 -8 -79 -8q-23 0 -41.5 2t-25.5 4l-8 2l109 514q27 8 79 8q22 0 41 -2t27 -4z" />
    <glyph glyph-name="idieresis" unicode="&#xef;" horiz-adv-x="265" 
d="M186 717l-24 -115q-25 -7 -68 -7q-19 0 -35 1.5t-23 3.5l-6 2l24 115q24 7 68 7q19 0 35 -2t23 -4zM383 717l-24 -115q-26 -7 -68 -7q-20 0 -36 1.5t-22 3.5l-6 2l24 115q24 7 68 7q19 0 35 -2t22 -4zM255 522l-109 -514q-29 -8 -79 -8q-23 0 -42 2t-26 4l-7 2l109 514
q27 8 79 8q22 0 41 -2t27 -4z" />
    <glyph glyph-name="eth" unicode="&#xf0;" horiz-adv-x="557" 
d="M522 676l-64 -33q107 -123 62 -336q-37 -175 -114 -246t-197 -71q-112 0 -162.5 67t-21.5 205q28 135 99.5 190t180.5 55q53 0 87 -23q-9 58 -49 99l-109 -58q-30 29 -32 77l65 34q-35 15 -76 24q7 59 45 90q89 -12 153 -51l103 54q30 -28 30 -77zM229 104q43 0 70 30.5
t46 117.5q15 62 9.5 95t-20 43.5t-42.5 10.5q-42 0 -68.5 -31t-44.5 -118q-17 -92 -5 -120t55 -28z" />
    <glyph glyph-name="ntilde" unicode="&#xf1;" horiz-adv-x="548" 
d="M178 676q2 2 5 5.5t13 12.5t21.5 15.5t29 12t35.5 5.5q34 0 71.5 -16t60.5 -16q16 0 30 6.5t20 12.5l7 7q19 -10 28 -31.5t7 -44.5q-4 -6 -12.5 -14.5t-35.5 -22.5t-56 -14q-34 0 -71 16t-60 16q-15 0 -30 -6.5t-22 -13.5l-7 -6q-40 25 -34 76zM509 366l-76 -358
q-28 -8 -79 -8q-23 0 -42 2t-26 4l-7 2l74 351q13 60 -51 60q-38 0 -75 -28l-81 -383q-29 -8 -79 -8q-23 0 -42 2t-26 4l-7 2l109 514q27 8 79 8q22 0 39 -2t23 -4l5 -2v-42q69 60 146 60q75 0 104.5 -45t11.5 -129z" />
    <glyph glyph-name="ograve" unicode="&#xf2;" horiz-adv-x="550" 
d="M340 786l61 -147q-34 -34 -96 -44l-107 139q21 25 63.5 41t78.5 11zM29 279q31 143 103 202t189 59q115 0 164.5 -70.5t18.5 -215.5q-30 -143 -102.5 -203.5t-188.5 -60.5q-114 0 -164.5 72t-19.5 217zM348 265q17 95 5.5 126.5t-52.5 31.5q-42 0 -69.5 -34t-46.5 -124
q-17 -95 -5 -127t53 -32t69 34.5t46 124.5z" />
    <glyph glyph-name="oacute" unicode="&#xf3;" horiz-adv-x="550" 
d="M242 639l122 147q38 5 74 -11t46 -41l-168 -142q-56 10 -74 47zM29 279q31 143 103 202t189 59q115 0 164.5 -70.5t18.5 -215.5q-30 -143 -102.5 -203.5t-188.5 -60.5q-114 0 -164.5 72t-19.5 217zM348 265q17 95 5.5 126.5t-52.5 31.5q-42 0 -69.5 -34t-46.5 -124
q-17 -95 -5 -127t53 -32t69 34.5t46 124.5z" />
    <glyph glyph-name="ocircumflex" unicode="&#xf4;" horiz-adv-x="550" 
d="M387 772l129 -119q-35 -49 -81 -65l-90 65l-117 -64q-40 16 -53 64l177 119h35zM29 279q31 143 103 202t189 59q115 0 164.5 -70.5t18.5 -215.5q-30 -143 -102.5 -203.5t-188.5 -60.5q-114 0 -164.5 72t-19.5 217zM348 265q17 95 5.5 126.5t-52.5 31.5q-42 0 -69.5 -34
t-46.5 -124q-17 -95 -5 -127t53 -32t69 34.5t46 124.5z" />
    <glyph glyph-name="otilde" unicode="&#xf5;" horiz-adv-x="550" 
d="M171 677q5 6 13.5 14.5t36 22.5t55.5 14q34 0 71 -16t60 -16q16 0 30 6.5t21 13.5l6 6q19 -10 28.5 -31.5t6.5 -44.5q-4 -6 -12.5 -14.5t-35.5 -22.5t-56 -14q-35 0 -72 16t-59 16q-15 0 -29.5 -6.5t-21.5 -12.5l-7 -7q-41 25 -35 76zM29 279q31 143 103 202t189 59
q115 0 164.5 -70.5t18.5 -215.5q-30 -143 -102.5 -203.5t-188.5 -60.5q-114 0 -164.5 72t-19.5 217zM348 265q17 95 5.5 126.5t-52.5 31.5q-42 0 -69.5 -34t-46.5 -124q-17 -95 -5 -127t53 -32t69 34.5t46 124.5z" />
    <glyph glyph-name="odieresis" unicode="&#xf6;" horiz-adv-x="550" 
d="M191 717q24 7 68 7q19 0 35 -2t22 -4l7 -1l-24 -115q-25 -7 -68 -7q-19 0 -35 1.5t-22 3.5l-7 2zM388 717q24 7 68 7q19 0 35 -2t23 -4l6 -1l-24 -115q-26 -7 -68 -7q-20 0 -36 1.5t-22 3.5l-6 2zM29 279q31 143 103 202t189 59q115 0 164.5 -70.5t18.5 -215.5
q-30 -143 -102.5 -203.5t-188.5 -60.5q-114 0 -164.5 72t-19.5 217zM348 265q17 95 5.5 126.5t-52.5 31.5q-42 0 -69.5 -34t-46.5 -124q-17 -95 -5 -127t53 -32t69 34.5t46 124.5z" />
    <glyph glyph-name="divide" unicode="&#xf7;" horiz-adv-x="505" 
d="M375 532l-29 -136q-29 -8 -76 -8q-22 0 -39.5 2t-24.5 4l-7 2l29 136q25 8 75 8q21 0 39 -2t26 -4zM451 235h-427q-3 21 5 55q3 15 7.5 29t7.5 20l3 6h427q4 -21 -3 -55q-4 -15 -9 -29t-8 -20zM301 184l-29 -136q-29 -8 -76 -8q-22 0 -39.5 2t-24.5 4l-7 2l29 136
q25 8 75 8q21 0 39 -2t26 -4z" />
    <glyph glyph-name="oslash" unicode="&#xf8;" horiz-adv-x="550" 
d="M544 541l-59 -71q50 -71 19 -216q-30 -143 -102.5 -203.5t-188.5 -60.5q-61 0 -105 21l-57 -67q-49 2 -70 38l67 80q-49 76 -19 217q31 143 103 202t189 59q60 0 105 -20l49 59q46 -1 69 -38zM341 410q-12 13 -40 13q-42 0 -69.5 -34t-46.5 -124q-6 -32 -9 -55zM190 121
q14 -15 43 -15q41 0 69 34.5t46 124.5q6 28 10 57z" />
    <glyph glyph-name="ugrave" unicode="&#xf9;" horiz-adv-x="547" 
d="M352 766l60 -147q-33 -34 -95 -44l-107 139q21 25 63.5 41t78.5 11zM21 164l76 358q28 8 79 8q23 0 42 -2t26 -4l7 -2l-75 -352q-13 -60 50 -60q42 0 78 37l80 375q29 8 79 8q23 0 41.5 -2t25.5 -4l8 -2l-109 -514q-27 -8 -79 -8q-20 0 -35 2t-21 4l-5 2v40
q-66 -58 -148 -58q-76 0 -106.5 46t-13.5 128z" />
    <glyph glyph-name="uacute" unicode="&#xfa;" horiz-adv-x="547" 
d="M488 724l-166 -139q-60 11 -76 44l122 147q38 5 74 -11t46 -41zM21 164l76 358q28 8 79 8q23 0 42 -2t26 -4l7 -2l-75 -352q-13 -60 50 -60q42 0 78 37l80 375q29 8 79 8q23 0 41.5 -2t25.5 -4l8 -2l-109 -514q-27 -8 -79 -8q-20 0 -35 2t-21 4l-5 2v40q-66 -58 -148 -58
q-76 0 -106.5 46t-13.5 128z" />
    <glyph glyph-name="ucircumflex" unicode="&#xfb;" horiz-adv-x="547" 
d="M376 760l135 -119q-37 -51 -81 -66l-90 65l-116 -64q-40 16 -54 65l171 119h35zM21 164l76 358q28 8 79 8q23 0 42 -2t26 -4l7 -2l-75 -352q-13 -60 50 -60q42 0 78 37l80 375q29 8 79 8q23 0 41.5 -2t25.5 -4l8 -2l-109 -514q-27 -8 -79 -8q-20 0 -35 2t-21 4l-5 2v40
q-66 -58 -148 -58q-76 0 -106.5 46t-13.5 128z" />
    <glyph glyph-name="udieresis" unicode="&#xfc;" horiz-adv-x="547" 
d="M197 717q24 7 68 7q19 0 35 -2t22 -4l7 -1l-24 -115q-25 -7 -68 -7q-19 0 -35 1.5t-22 3.5l-7 2zM394 717q24 7 68 7q19 0 35 -2t23 -4l6 -1l-24 -115q-26 -7 -68 -7q-20 0 -36 1.5t-22 3.5l-6 2zM21 164l76 358q28 8 79 8q23 0 42 -2t26 -4l7 -2l-75 -352
q-13 -60 50 -60q42 0 78 37l80 375q29 8 79 8q23 0 41.5 -2t25.5 -4l8 -2l-109 -514q-27 -8 -79 -8q-20 0 -35 2t-21 4l-5 2v40q-66 -58 -148 -58q-76 0 -106.5 46t-13.5 128z" />
    <glyph glyph-name="yacute" unicode="&#xfd;" horiz-adv-x="548" 
d="M491 724l-166 -139q-60 11 -76 44l122 147q38 5 74 -11t46 -41zM385 522q29 8 79 8q23 0 41.5 -2t26.5 -4l7 -2l-106 -496q-30 -144 -108.5 -210t-208.5 -66q-50 0 -92 10t-60 20l-17 11q16 62 60 99q45 -23 106 -23q47 0 74 8.5t51.5 42.5t40.5 101l3 12
q-59 -41 -134 -41q-81 0 -111.5 47.5t-14.5 127.5l76 357q28 8 79 8q23 0 42 -2t26 -4l7 -2l-75 -352q-13 -60 50 -60q39 0 76 28z" />
    <glyph glyph-name="thorn" unicode="&#xfe;" horiz-adv-x="562" 
d="M149 746q29 8 78 8q22 0 41 -2t27 -4l8 -2l-55 -257q54 51 141 51q86 0 121 -69t4 -218q-30 -145 -91 -204t-152 -59q-86 0 -118 51l-55 -257q-30 -8 -79 -8q-22 0 -40.5 2t-26.5 4l-8 2zM353 265q18 95 6.5 124.5t-53.5 29.5q-33 0 -57.5 -24t-34.5 -64l-27 -127
q-9 -40 4.5 -67t48.5 -27q41 0 67 31.5t46 123.5z" />
    <glyph glyph-name="ydieresis" unicode="&#xff;" horiz-adv-x="548" 
d="M326 717l-24 -115q-25 -7 -68 -7q-19 0 -35 1.5t-22 3.5l-6 2l24 115q23 7 67 7q19 0 35 -2t23 -4zM523 717l-24 -115q-26 -7 -68 -7q-20 0 -36 1.5t-22 3.5l-6 2l24 115q24 7 68 7q19 0 35 -2t22 -4zM385 522q29 8 79 8q23 0 41.5 -2t26.5 -4l7 -2l-106 -496
q-30 -144 -108.5 -210t-208.5 -66q-50 0 -92 10t-60 20l-17 11q16 62 60 99q45 -23 106 -23q47 0 74 8.5t51.5 42.5t40.5 101l3 12q-59 -41 -134 -41q-81 0 -111.5 47.5t-14.5 127.5l76 357q28 8 79 8q23 0 42 -2t26 -4l7 -2l-75 -352q-13 -60 50 -60q39 0 76 28z" />
    <glyph glyph-name="Amacron" unicode="&#x100;" horiz-adv-x="672" 
d="M292 867h312q2 -41 -19 -90h-312q-2 47 19 90zM322 711q40 9 102 9q30 0 54.5 -2t34.5 -4l10 -3l79 -702q-30 -9 -86 -9q-23 0 -40.5 2t-23.5 4l-6 3l-16 146h-251l-78 -146q-35 -9 -84 -9q-21 0 -39.5 2t-25.5 4l-8 3zM395 570h-4q-18 -54 -52 -117l-98 -181h177
l-20 181q-3 28 -3.5 57.5t-0.5 44.5z" />
    <glyph glyph-name="amacron" unicode="&#x101;" 
d="M223 701h303q5 -37 -18 -86h-303q0 48 18 86zM407 530q20 6 69 6q22 0 40.5 -2t25.5 -4l8 -2l-110 -520q-30 -8 -71 -8q-19 0 -36 2t-25 4l-7 2l1 41q-56 -59 -144 -59t-124 70.5t-4 217.5q31 145 91 203.5t153 58.5q85 0 118 -52zM355 336q7 37 -7.5 60t-46.5 23
q-43 0 -69 -33t-45 -124q-17 -92 -6 -122t54 -30q33 0 57.5 23.5t32.5 60.5z" />
    <glyph glyph-name="Abreve" unicode="&#x102;" horiz-adv-x="672" 
d="M444 879q31 0 59 6.5t41 12.5l13 7q43 -17 52 -65q-2 -3 -7 -7.5t-21.5 -16.5t-35.5 -21t-50 -16.5t-65 -7.5q-53 0 -95 17.5t-57 34.5l-16 17q29 48 79 65q34 -26 103 -26zM321 711q41 9 103 9q30 0 54.5 -2t34.5 -4l10 -3l79 -702q-30 -9 -86 -9q-23 0 -40.5 2t-23.5 4
l-6 3l-16 146h-251l-78 -146q-36 -9 -84 -9q-21 0 -39.5 2t-25.5 4l-8 3zM394 570h-4q-18 -54 -51 -117l-98 -181h177l-20 181q-3 28 -4 57.5t0 44.5v15z" />
    <glyph glyph-name="abreve" unicode="&#x103;" 
d="M363 710q30 0 57.5 7t40.5 14l13 7q19 -9 32.5 -28t16.5 -41q-7 -8 -19.5 -20t-58 -32t-97.5 -20q-32 0 -61 7.5t-46.5 18t-30.5 21t-18 18.5l-6 7q28 50 78 69q32 -28 99 -28zM407 530q20 6 69 6q22 0 40.5 -2t25.5 -4l8 -2l-110 -520q-30 -8 -71 -8q-19 0 -36 2t-25 4
l-7 2l1 41q-56 -59 -144 -59t-124 70.5t-4 217.5q31 145 91 203.5t153 58.5q85 0 118 -52zM355 336q7 37 -7.5 60t-46.5 23q-43 0 -69 -33t-45 -124q-17 -92 -6 -122t54 -30q33 0 57.5 23.5t32.5 60.5z" />
    <glyph glyph-name="Aogonek" unicode="&#x104;" horiz-adv-x="672" 
d="M558 -128l31 6q22 -20 12 -56q-43 -25 -96 -25q-51 0 -79 29t-17 81q13 58 66 95l-29 7l-16 146h-251l-78 -146q-36 -9 -85 -9q-21 0 -39 2t-25 4l-8 3l377 702q40 9 103 9q29 0 54 -2t35 -4l10 -3l79 -702l-10 -2q-63 -31 -74 -83q-6 -25 6.5 -38.5t33.5 -13.5zM241 272
h177l-20 181q-3 28 -4 57.5t0 44.5v15h-4q-18 -54 -52 -117z" />
    <glyph glyph-name="aogonek" unicode="&#x105;" horiz-adv-x="559" 
d="M383 -123q8 0 15.5 1.5t11.5 3.5l3 1q21 -18 12 -54q-41 -24 -93 -24q-50 0 -77 28t-16 78q12 57 67 90l-1 50q-59 -61 -150 -61q-88 0 -122 70t-2 217q31 146 90.5 204.5t152.5 58.5q85 0 118 -52l15 42q20 6 69 6q22 0 40.5 -2t25.5 -4l8 -2l-110 -520l-3 -1
q-83 -31 -94 -80q-5 -24 7 -37t33 -13zM325 194l30 142q7 37 -7.5 60t-46.5 23q-43 0 -69 -33t-45 -124q-17 -92 -6 -122t54 -30q33 0 57.5 23.5t32.5 60.5z" />
    <glyph glyph-name="Cacute" unicode="&#x106;" horiz-adv-x="566" 
d="M597 890l-166 -140q-58 11 -76 44l122 148q38 4 74 -11.5t46 -40.5zM58 378q76 354 389 354q53 0 97 -10t61 -20l17 -9q-10 -63 -69 -110q-50 20 -113 20q-82 0 -136 -54t-83 -190q-28 -135 2.5 -188t113.5 -53q30 0 63 5.5t50 10.5l18 6q38 -42 23 -113q-8 -4 -24 -10.5
t-69 -17.5t-110 -11q-151 0 -210 103t-20 287z" />
    <glyph glyph-name="cacute" unicode="&#x107;" horiz-adv-x="446" 
d="M476 734l-167 -139q-59 11 -75 44l122 147q38 5 74 -11t46 -41zM321 418q-56 0 -87.5 -36t-48.5 -118q-17 -80 1 -114t75 -34q21 0 42.5 4t32.5 8l11 3q31 -37 21 -106q-58 -35 -167 -35q-234 0 -176 273q59 277 293 277q46 0 81.5 -8t48.5 -16l13 -7q-17 -65 -66 -105
q-28 14 -74 14z" />
    <glyph glyph-name="Ccircumflex" unicode="&#x108;" horiz-adv-x="566" 
d="M494 950l139 -129q-37 -51 -83 -68l-92 67l-120 -66q-41 18 -54 67l174 129h36zM58 378q76 354 389 354q53 0 97 -10t61 -20l17 -9q-10 -63 -69 -110q-50 20 -113 20q-82 0 -136 -54t-83 -190q-28 -135 2.5 -188t113.5 -53q30 0 63 5.5t50 10.5l18 6q38 -42 23 -113
q-8 -4 -24 -10.5t-69 -17.5t-110 -11q-151 0 -210 103t-20 287z" />
    <glyph glyph-name="ccircumflex" unicode="&#x109;" horiz-adv-x="446" 
d="M376 788l123 -127q-32 -48 -78 -64l-89 64l-114 -63q-38 15 -53 63l176 127h35zM321 418q-56 0 -87.5 -36t-48.5 -118q-17 -80 1 -114t75 -34q21 0 42.5 4t32.5 8l11 3q31 -37 21 -106q-58 -35 -167 -35q-234 0 -176 273q59 277 293 277q46 0 81.5 -8t48.5 -16l13 -7
q-17 -65 -66 -105q-28 14 -74 14z" />
    <glyph glyph-name="Cdotaccent" unicode="&#x10a;" horiz-adv-x="566" 
d="M551 908l-27 -128q-27 -7 -72 -7q-21 0 -38 1.5t-24 3.5l-6 2l27 128q25 7 72 7q20 0 37 -1.5t24 -3.5zM58 378q76 354 389 354q53 0 97 -10t61 -20l17 -9q-10 -63 -69 -110q-50 20 -113 20q-82 0 -136 -54t-83 -190q-28 -135 2.5 -188t113.5 -53q30 0 63 5.5t50 10.5
l18 6q38 -42 23 -113q-8 -4 -24 -10.5t-69 -17.5t-110 -11q-151 0 -210 103t-20 287z" />
    <glyph glyph-name="cdotaccent" unicode="&#x10b;" horiz-adv-x="446" 
d="M420 731l-26 -125q-26 -8 -71 -8q-21 0 -38 2t-23 4l-7 2l26 125q25 7 72 7q20 0 36.5 -2t23.5 -4zM321 418q-56 0 -87.5 -36t-48.5 -118q-17 -80 1 -114t75 -34q21 0 42.5 4t32.5 8l11 3q31 -37 21 -106q-58 -35 -167 -35q-234 0 -176 273q59 277 293 277q46 0 81.5 -8
t48.5 -16l13 -7q-17 -65 -66 -105q-28 14 -74 14z" />
    <glyph glyph-name="Ccaron" unicode="&#x10c;" horiz-adv-x="566" 
d="M432 760l-139 122q36 51 83 68l93 -67l119 66q42 -19 53 -67l-173 -122h-36zM58 378q76 354 389 354q53 0 97 -10t61 -20l17 -9q-10 -63 -69 -110q-50 20 -113 20q-82 0 -136 -54t-83 -190q-28 -135 2.5 -188t113.5 -53q30 0 63 5.5t50 10.5l18 6q38 -42 23 -113
q-8 -4 -24 -10.5t-69 -17.5t-110 -11q-151 0 -210 103t-20 287z" />
    <glyph glyph-name="ccaron" unicode="&#x10d;" horiz-adv-x="446" 
d="M314 595l-118 122q33 47 76 63l84 -62l110 61q37 -16 49 -62l-169 -122h-32zM321 418q-56 0 -87.5 -36t-48.5 -118q-17 -80 1 -114t75 -34q21 0 42.5 4t32.5 8l10 3q32 -37 22 -106q-58 -35 -167 -35q-234 0 -176 273q59 277 292 277q46 0 82 -8t49 -16l13 -7
q-17 -66 -67 -105q-27 14 -73 14z" />
    <glyph glyph-name="Dcaron" unicode="&#x10e;" horiz-adv-x="666" 
d="M375 750l-129 132q37 51 84 68l92 -67l120 66q42 -19 53 -67l-183 -132h-37zM159 720h247q307 0 225 -378q-40 -187 -132 -264.5t-246 -77.5h-247zM193 125h81q74 0 120 49.5t75 185.5q15 71 15.5 118.5t-14.5 72.5t-38 34.5t-59 9.5h-81z" />
    <glyph glyph-name="dcaron" unicode="&#x10f;" horiz-adv-x="576" 
d="M600 599q37 37 54 68t23 78q79 15 117 -14q-16 -54 -52 -98.5t-80 -63.5q-46 2 -62 30zM442 742q30 8 79 8q22 0 40.5 -2t26.5 -4l8 -2l-156 -734q-30 -8 -71 -8q-19 0 -36 2t-25 4l-7 2l1 41q-56 -59 -147 -59q-185 0 -125 287q31 146 90 204.5t152 58.5q83 0 116 -52z
M355 336q7 37 -7.5 60t-46.5 23q-43 0 -69 -32.5t-45 -123.5q-17 -92 -6 -122.5t54 -30.5q33 0 57.5 23.5t32.5 60.5z" />
    <glyph glyph-name="Dcroat" unicode="&#x110;" horiz-adv-x="687" 
d="M180 720h247q307 0 226 -375q-40 -187 -132.5 -266t-246.5 -79h-247l65 305h-74q-2 22 5 53t17 50h74zM312 595l-39 -187h109q2 -20 -5 -51.5t-17 -51.5h-109l-38 -180h82q74 0 120 49.5t75 185.5q15 71 15.5 118.5t-14.5 72.5t-38 34.5t-59 9.5h-82z" />
    <glyph glyph-name="dcroat" unicode="&#x111;" horiz-adv-x="560" 
d="M644 687q2 -17 -3 -44q-3 -12 -7 -23t-6 -16l-3 -6h-59l-125 -590q-30 -8 -71 -8q-19 0 -36 2t-24 4l-8 2v41q-54 -59 -147 -59q-184 0 -124 287q31 146 90 204.5t151 58.5q82 0 117 -52l23 110h-103q-2 18 4 45q2 12 6 23t7 16l2 5h103l12 55q30 8 79 8q22 0 40.5 -2
t26.5 -4l8 -2l-12 -55h59zM326 194l30 142q6 37 -8 60t-46 23q-43 0 -69 -32.5t-45 -123.5q-17 -92 -6 -122.5t54 -30.5q33 0 57.5 23.5t32.5 60.5z" />
    <glyph glyph-name="Emacron" unicode="&#x112;" 
d="M539 771h-311q-3 47 19 90h311q3 -42 -19 -90zM159 720h438q4 -27 -2 -58q-7 -36 -24 -64h-278l-37 -174h228q2 -39 -2 -59q-8 -33 -24 -62h-228l-38 -181h288q4 -30 -3 -60q-9 -39 -23 -62h-448z" />
    <glyph glyph-name="emacron" unicode="&#x113;" horiz-adv-x="509" 
d="M458 615h-278q-2 48 19 88h278q6 -44 -19 -88zM452 219h-278q-9 -58 14 -80.5t72 -22.5q28 0 55.5 6t41.5 12l14 6q15 -17 22.5 -46.5t1.5 -58.5q-7 -5 -20 -12.5t-59 -20t-98 -12.5q-123 0 -171 74t-19 214q30 138 102.5 200t185.5 62q91 0 140.5 -56.5t27.5 -159.5
q-6 -29 -14 -55.5t-13 -38.5zM344 346q16 82 -47 82q-69 0 -104 -113h142q6 20 9 31z" />
    <glyph glyph-name="Ebreve" unicode="&#x114;" horiz-adv-x="559" 
d="M571 840q-3 -3 -8.5 -7.5t-23.5 -17t-38.5 -22t-52.5 -17t-65 -7.5q-34 0 -62.5 7.5t-45.5 17.5t-29 20.5t-16 17.5l-5 8q26 47 79 65q34 -26 103 -26q31 0 59 6.5t41 12.5l13 7q20 -8 34 -26t17 -39zM159 720h438q4 -27 -2 -58q-7 -36 -24 -64h-278l-37 -174h228
q2 -39 -2 -59q-8 -33 -24 -62h-228l-38 -181h288q4 -30 -3 -60q-9 -39 -23 -62h-448z" />
    <glyph glyph-name="ebreve" unicode="&#x115;" horiz-adv-x="509" 
d="M501 667q-2 -3 -7 -7.5t-21 -17t-34.5 -22t-49 -17t-63.5 -7.5q-52 0 -92.5 18t-55.5 36l-14 17q28 50 78 69q32 -28 99 -28q30 0 57.5 7t40.5 14l13 7q42 -19 49 -69zM452 219h-278q-9 -58 14 -80.5t72 -22.5q28 0 55.5 6t41.5 12l14 6q15 -17 22.5 -46.5t1.5 -58.5
q-7 -5 -20 -12.5t-59 -20t-98 -12.5q-123 0 -171 74t-19 214q30 138 102.5 200t185.5 62q91 0 140.5 -56.5t27.5 -159.5q-6 -29 -14 -55.5t-13 -38.5zM344 346q16 82 -47 82q-69 0 -104 -113h142q6 20 9 31z" />
    <glyph glyph-name="Edotaccent" unicode="&#x116;" horiz-adv-x="559" 
d="M483 904l-27 -128q-27 -7 -72 -7q-21 0 -37.5 1.5t-22.5 3.5l-7 2l27 128q24 7 71 7q20 0 37 -1.5t24 -3.5zM159 720h438q4 -27 -2 -58q-7 -36 -24 -64h-278l-37 -174h228q2 -39 -2 -59q-8 -33 -24 -62h-228l-38 -181h288q4 -30 -3 -60q-9 -39 -23 -62h-448z" />
    <glyph glyph-name="edotaccent" unicode="&#x117;" horiz-adv-x="509" 
d="M422 731l-27 -128q-27 -8 -71 -8q-21 0 -38 2t-24 4l-6 2l27 128q25 7 72 7q20 0 36.5 -2t23.5 -4zM452 219h-278q-9 -58 14 -80.5t72 -22.5q28 0 55.5 6t41.5 12l14 6q15 -17 22.5 -46.5t1.5 -58.5q-7 -5 -20 -12.5t-59 -20t-98 -12.5q-123 0 -171 74t-19 214
q30 138 102.5 200t185.5 62q91 0 140.5 -56.5t27.5 -159.5q-6 -29 -14 -55.5t-13 -38.5zM344 346q16 82 -47 82q-69 0 -104 -113h142q6 20 9 31z" />
    <glyph glyph-name="Eogonek" unicode="&#x118;" 
d="M159 720h437q4 -22 -2 -58q-8 -40 -24 -64h-278l-37 -174h228q4 -32 -2 -59q-9 -37 -24 -62h-228l-38 -181h288q4 -30 -3 -60q-9 -39 -23 -62q-107 -33 -119 -87q-5 -23 6 -35t31 -12l31 5q19 -18 9 -52q-39 -23 -89 -23q-47 0 -73 27t-16 75q16 71 97 102h-324z" />
    <glyph glyph-name="eogonek" unicode="&#x119;" horiz-adv-x="509" 
d="M27 278q30 138 102.5 200t185.5 62q91 0 140.5 -56.5t27.5 -159.5q-6 -29 -14 -55.5t-13 -38.5l-5 -11h-278q-9 -58 14 -80.5t72 -22.5q28 0 55.5 6t41.5 12l14 6q15 -17 22.5 -46.5t1.5 -58.5q-20 -15 -60 -28q-68 -27 -77 -72q-5 -24 6.5 -36.5t32.5 -12.5l29 5
q19 -18 11 -52q-40 -23 -91 -23q-48 0 -74 27t-16 76q9 43 49 71q-115 4 -160.5 78t-16.5 210zM334 315l9 31q16 82 -47 82q-69 0 -104 -113h142z" />
    <glyph glyph-name="Ecaron" unicode="&#x11a;" horiz-adv-x="559" 
d="M356 750l-129 132q36 51 83 68l93 -67l119 66q42 -19 53 -67l-183 -132h-36zM159 720h438q4 -27 -2 -58q-7 -36 -24 -64h-278l-37 -174h228q2 -39 -2 -59q-8 -33 -24 -62h-228l-38 -181h288q4 -30 -3 -60q-9 -39 -23 -62h-448z" />
    <glyph glyph-name="ecaron" unicode="&#x11b;" horiz-adv-x="509" 
d="M299 575l-122 126q35 49 78 64l89 -64l114 63q38 -16 51 -63l-175 -126h-35zM452 219h-278q-9 -58 14 -80.5t72 -22.5q28 0 55.5 6t41.5 12l14 6q15 -17 22.5 -46.5t1.5 -58.5q-7 -5 -20 -12.5t-59 -20t-98 -12.5q-123 0 -171 74t-19 214q30 138 102.5 200t185.5 62
q91 0 140.5 -56.5t27.5 -159.5q-6 -29 -14 -55.5t-13 -38.5zM344 346q16 82 -47 82q-69 0 -104 -113h142q6 20 9 31z" />
    <glyph glyph-name="Gcircumflex" unicode="&#x11c;" horiz-adv-x="635" 
d="M521 944l132 -121q-37 -51 -83 -68l-92 67l-120 -66q-41 17 -54 67l181 121h36zM56 378q76 352 405 352q59 0 107.5 -10t67.5 -20l20 -10q-18 -69 -69 -111q-61 24 -135 24q-89 0 -148 -54.5t-88 -189.5q-13 -71 -13.5 -117.5t18 -73.5t48 -38t76.5 -11l56 3l37 176h-115
q-5 21 3 60q4 18 10 33.5t10 22.5l3 6h259l-83 -390q-9 -4 -27 -11t-75.5 -18t-118.5 -11q-159 0 -223 102.5t-25 285.5z" />
    <glyph glyph-name="gcircumflex" unicode="&#x11d;" horiz-adv-x="557" 
d="M386 774l136 -127q-37 -51 -81 -66l-90 65l-116 -64q-40 16 -54 65l170 127h35zM288 26l4 15q-56 -51 -138 -51q-184 0 -124 285q31 146 89.5 205.5t148.5 59.5q87 0 119 -51l7 33q31 8 80 8q22 0 40.5 -2t25.5 -4l8 -2l-106 -496q-58 -276 -307 -276q-50 0 -92 10
t-59 20l-18 11q16 62 60 99q45 -23 106 -23q59 0 97.5 32t58.5 127zM185 263q-17 -95 -5.5 -124t53.5 -29q32 0 57 24.5t35 62.5l28 132q8 41 -6 65.5t-48 24.5q-42 0 -68 -31.5t-46 -124.5z" />
    <glyph glyph-name="Gbreve" unicode="&#x11e;" horiz-adv-x="635" 
d="M654 843q-2 -3 -7 -7.5t-21.5 -17t-35.5 -22t-50 -17t-65 -7.5q-53 0 -95 18t-58 36l-15 17q29 48 79 65q34 -26 103 -26q31 0 59 6.5t41 13.5l13 6q43 -17 52 -65zM56 378q76 352 405 352q59 0 107.5 -10t67.5 -20l20 -10q-18 -69 -69 -111q-61 24 -135 24
q-89 0 -148 -54.5t-88 -189.5q-13 -71 -13.5 -117.5t18 -73.5t48 -38t76.5 -11l56 3l37 176h-115q-5 21 3 60q4 18 10 33.5t10 22.5l3 6h259l-83 -390q-9 -4 -27 -11t-75.5 -18t-118.5 -11q-159 0 -223 102.5t-25 285.5z" />
    <glyph glyph-name="gbreve" unicode="&#x11f;" horiz-adv-x="561" 
d="M531 668q-8 -8 -22.5 -20.5t-62.5 -33t-100 -20.5q-32 0 -60 7.5t-44 18.5t-27.5 22t-16.5 18l-4 8q28 50 78 69q32 -28 99 -28q30 0 57.5 7t40.5 14l13 7q42 -19 49 -69zM292 26l4 15q-56 -51 -138 -51q-188 0 -129 282q31 145 92 206.5t151 61.5q87 0 119 -51l7 33
q31 8 80 8q22 0 40.5 -2t25.5 -4l8 -2l-106 -496q-58 -276 -307 -276q-50 0 -92 10t-59 20l-18 11q16 62 60 99q45 -23 106 -23q59 0 97.5 32t58.5 127zM189 263q-17 -95 -5.5 -124t53.5 -29q32 0 57 24.5t35 62.5l28 132q8 41 -6 65.5t-48 24.5q-42 0 -68 -31.5t-46 -124.5
z" />
    <glyph glyph-name="Gdotaccent" unicode="&#x120;" horiz-adv-x="635" 
d="M567 904l-27 -128q-27 -7 -71 -7q-21 0 -38 1.5t-23 3.5l-7 2l27 128q25 7 72 7q20 0 36.5 -1.5t23.5 -3.5zM56 378q76 352 405 352q59 0 107.5 -10t67.5 -20l20 -10q-18 -69 -69 -111q-61 24 -135 24q-89 0 -148 -54.5t-88 -189.5q-13 -71 -13.5 -117.5t18 -73.5t48 -38
t76.5 -11l56 3l37 176h-115q-5 21 3 60q4 18 10 33.5t10 22.5l3 6h259l-83 -390q-9 -4 -27 -11t-75.5 -18t-118.5 -11q-159 0 -223 102.5t-25 285.5z" />
    <glyph glyph-name="gdotaccent" unicode="&#x121;" horiz-adv-x="561" 
d="M437 731l-27 -128q-27 -8 -72 -8q-20 0 -37 2t-23 4l-7 2l27 128q24 7 71 7q20 0 37 -2t24 -4zM292 26l4 15q-56 -51 -138 -51q-88 0 -123.5 69t-4.5 216q31 145 91.5 205t150.5 60q87 0 119 -51l7 33q31 8 80 8q22 0 40.5 -2t25.5 -4l8 -2l-106 -496q-58 -276 -307 -276
q-50 0 -92 10t-59 20l-18 11q16 62 60 99q45 -23 106 -23q59 0 97.5 32t58.5 127zM189 263q-17 -95 -5.5 -124t53.5 -29q32 0 57 24.5t35 62.5l28 132q8 41 -6 65.5t-48 24.5q-42 0 -68 -31.5t-46 -124.5z" />
    <glyph glyph-name="Gcommaaccent" unicode="&#x122;" horiz-adv-x="635" 
d="M226 -328l-50 35q44 37 62 103l-51 7l29 134q30 8 82 8q23 0 43.5 -2t28.5 -4l9 -2l-21 -96q-7 -33 -23 -64.5t-34.5 -52t-35.5 -36t-28 -22.5zM56 378q76 352 405 352q59 0 107.5 -10t67.5 -20l20 -10q-18 -69 -69 -111q-61 24 -135 24q-89 0 -148 -54.5t-88 -189.5
q-13 -71 -13.5 -117.5t18 -73.5t48 -38t76.5 -11l56 3l37 176h-115q-5 21 3 60q4 18 10 33.5t10 22.5l3 6h259l-83 -390q-9 -4 -27 -11t-75.5 -18t-118.5 -11q-159 0 -223 102.5t-25 285.5z" />
    <glyph glyph-name="gcommaaccent" unicode="&#x123;" horiz-adv-x="557" 
d="M400 853l50 -31q-44 -36 -61 -96l49 -7l-27 -124q-29 -7 -78 -7q-21 0 -40 2t-27 4l-9 1l20 90q10 48 41 90t56 60zM288 26l4 15q-56 -51 -138 -51q-184 0 -124 286q31 145 89.5 204.5t148.5 59.5q87 0 119 -51l7 33q31 8 80 8q22 0 40.5 -2t25.5 -4l8 -2l-106 -496
q-58 -276 -307 -276q-50 0 -92 10t-59 20l-18 11q16 62 60 99q45 -23 106 -23q59 0 97.5 32t58.5 127zM185 263q-17 -95 -5.5 -124t53.5 -29q32 0 57 24.5t35 62.5l28 132q8 41 -6 65.5t-48 24.5q-42 0 -68 -31.5t-46 -124.5z" />
    <glyph glyph-name="Hcircumflex" unicode="&#x124;" horiz-adv-x="684" 
d="M503 950l129 -132q-37 -51 -84 -68l-91 67l-120 -66q-43 18 -54 67l184 132h36zM482 434l59 277q32 9 81 9q22 0 41.5 -2t28.5 -4l8 -3l-149 -702q-32 -9 -81 -9q-24 0 -43.5 2t-26.5 4l-8 3l63 295h-226l-63 -295q-34 -9 -82 -9q-24 0 -43 2t-27 4l-7 3l149 702
q31 9 80 9q22 0 42 -2t28 -4l9 -3l-59 -277h226z" />
    <glyph glyph-name="hcircumflex" unicode="&#x125;" horiz-adv-x="548" 
d="M278 949l134 -118q-35 -47 -80 -65l-89 65l-115 -64q-36 15 -52 64l167 118h35zM510 370l-77 -362q-29 -8 -79 -8q-24 0 -42.5 2t-25.5 4l-7 2l74 351q13 61 -51 61q-37 0 -75 -28l-81 -384q-30 -8 -79 -8q-23 0 -42 2t-26 4l-7 2l156 734q25 8 78 8q22 0 41 -2t27 -4
l8 -2l-53 -250q61 48 143 48q75 0 104.5 -45.5t13.5 -124.5z" />
    <glyph glyph-name="Hbar" unicode="&#x126;" horiz-adv-x="714" 
d="M697 622h64q5 -45 -20 -93h-64l-110 -520q-32 -9 -81 -9q-24 0 -44 2t-28 4l-7 3l63 295h-225l-63 -295q-34 -9 -82 -9q-24 0 -43.5 2t-26.5 4l-8 3l110 520h-65q-2 50 20 93h65l19 89q32 9 81 9q22 0 42 -2t28 -4l9 -3l-19 -89h225l19 89q33 9 82 9q22 0 41.5 -2
t28.5 -4l8 -3zM292 529l-20 -95h225l20 95h-225z" />
    <glyph glyph-name="hbar" unicode="&#x127;" horiz-adv-x="548" 
d="M249 492q61 48 143 48q75 0 104.5 -45.5t13.5 -122.5l-77 -364q-29 -8 -79 -8q-24 0 -42.5 2t-25.5 4l-7 2l74 351q13 60 -51 60q-39 0 -75 -28l-81 -383q-30 -8 -79 -8q-23 0 -42 2t-26 4l-7 2l125 591h-64q-3 45 19 88h64l12 55q25 8 78 8q22 0 41 -2t27 -4l8 -2
l-12 -55h126q3 -44 -19 -88h-126z" />
    <glyph glyph-name="Itilde" unicode="&#x128;" horiz-adv-x="300" 
d="M324 854q15 0 29.5 6t20.5 12l7 7q38 -21 34 -74q-4 -6 -12 -14t-34.5 -22t-55.5 -14q-33 0 -69.5 15.5t-58.5 15.5q-15 0 -29 -6t-20 -12l-7 -7q-40 24 -35 74q4 6 12.5 14t35 22t54.5 14q33 0 69.5 -15.5t58.5 -15.5zM7 9l149 702q32 9 81 9q22 0 42 -2t29 -4l8 -3
l-149 -702q-34 -9 -82 -9q-24 0 -43.5 2t-27.5 4z" />
    <glyph glyph-name="itilde" unicode="&#x129;" horiz-adv-x="265" 
d="M261 690q13 0 25 6t18 12l5 7q15 -11 23.5 -31.5t4.5 -41.5q-4 -5 -11 -13t-29.5 -21.5t-46.5 -13.5q-28 0 -58.5 15t-48.5 15q-12 0 -24 -6t-18 -12l-6 -7q-35 28 -28 73q4 5 11 13.5t30 22t46 13.5q27 0 57.5 -15.5t49.5 -15.5zM255 522l-109 -514q-29 -8 -79 -8
q-23 0 -41.5 2t-25.5 4l-8 2l109 514q27 8 79 8q22 0 41 -2t27 -4z" />
    <glyph glyph-name="Imacron" unicode="&#x12a;" horiz-adv-x="300" 
d="M394 760h-311q-2 52 20 91h311q3 -43 -20 -91zM7 9l149 702q32 9 81 9q22 0 42 -2t29 -4l8 -3l-149 -702q-34 -9 -82 -9q-24 0 -43.5 2t-27.5 4z" />
    <glyph glyph-name="imacron" unicode="&#x12b;" horiz-adv-x="265" 
d="M300 613h-204q2 48 18 85h204q0 -44 -18 -85zM255 522l-109 -514q-29 -8 -79 -8q-23 0 -42 2t-26 4l-7 2l109 514q27 8 79 8q22 0 41 -2t27 -4z" />
    <glyph glyph-name="Ibreve" unicode="&#x12c;" horiz-adv-x="300" 
d="M435 840q-3 -3 -8.5 -7.5t-23.5 -17t-38.5 -22t-52.5 -17t-66 -7.5t-62.5 7.5t-45.5 17.5t-29 20.5t-17 17.5l-4 8q26 47 79 65q34 -26 103 -26q31 0 59 6.5t41 12.5l13 7q43 -17 52 -65zM7 9l149 702q32 9 81 9q22 0 42 -2t29 -4l8 -3l-149 -702q-34 -9 -82 -9
q-24 0 -43.5 2t-27.5 4z" />
    <glyph glyph-name="ibreve" unicode="&#x12d;" horiz-adv-x="265" 
d="M377 669q-8 -8 -22.5 -20.5t-62.5 -33t-100 -20.5q-33 0 -60.5 7.5t-44 18.5t-28 22t-15.5 19l-5 7q30 50 79 69q32 -28 99 -28q30 0 57.5 7t40.5 14l13 7q19 -9 32.5 -28t16.5 -41zM255 522l-109 -514q-29 -8 -79 -8q-23 0 -42 2t-26 4l-7 2l109 514q27 8 79 8
q22 0 41 -2t27 -4z" />
    <glyph glyph-name="Iogonek" unicode="&#x12e;" horiz-adv-x="301" 
d="M317 711l-149 -702q-52 -16 -82.5 -36t-37.5 -51q-5 -23 6.5 -35t31.5 -12l29 5q21 -18 11 -52q-39 -23 -90 -23q-47 0 -72.5 27t-15.5 75q14 64 84 97l-24 5l149 702q32 9 81 9q22 0 42 -2t28 -4z" />
    <glyph glyph-name="iogonek" unicode="&#x12f;" horiz-adv-x="266" 
d="M149 744q27 8 79 8q22 0 41 -2t27 -4l7 -2l-29 -136q-29 -8 -79 -8q-23 0 -42 2t-26 4l-7 2zM102 522q27 8 79 8q22 0 41 -2t26 -4l8 -2l-109 -514q-49 -12 -80 -37t-38 -57q-5 -22 7.5 -31.5t34.5 -9.5l33 6q21 -18 9 -61q-43 -25 -96 -25t-84.5 26t-20.5 77
q14 66 79 104z" />
    <glyph glyph-name="Idotaccent" unicode="&#x130;" horiz-adv-x="300" 
d="M197 886q27 8 79 8q22 0 40.5 -2t26.5 -4l8 -2l-28 -123q-30 -8 -79 -8q-23 0 -42 2t-26 4l-7 2zM156 711q32 9 81 9q22 0 42 -2t29 -4l8 -3l-149 -702q-34 -9 -82 -9q-24 0 -43.5 2t-27.5 4l-7 3z" />
    <glyph glyph-name="dotlessi" unicode="&#x131;" horiz-adv-x="265" 
d="M255 522l-109 -514q-29 -8 -79 -8q-23 0 -42 2t-26 4l-7 2l109 514q27 8 79 8q22 0 41 -2t27 -4z" />
    <glyph glyph-name="IJ" unicode="&#x132;" horiz-adv-x="753" 
d="M8 9l149 702q32 9 81 9q22 0 42 -2t28 -4l9 -3l-149 -702q-34 -9 -82 -9q-24 0 -43.5 2t-26.5 4zM509 219l104 492q29 9 82 9q22 0 41.5 -2t27.5 -4l9 -3l-108 -510q-22 -103 -92.5 -157t-173.5 -54q-44 0 -84 8.5t-58 17.5l-18 8q14 72 66 115q39 -16 85 -16
q98 0 119 96z" />
    <glyph glyph-name="ij" unicode="&#x133;" horiz-adv-x="524" 
d="M303 742l-29 -135q-30 -8 -79 -8q-23 0 -42 2t-26 4l-7 2l29 135q25 8 78 8q22 0 41 -2t27 -4zM256 522l-109 -514q-30 -8 -79 -8q-23 0 -42 2t-26 4l-7 2l109 514q26 8 79 8q22 0 40.5 -2t26.5 -4zM560 741l-28 -136q-29 -8 -79 -8q-23 0 -42 2t-26 4l-7 2l28 136
q27 8 79 8q22 0 41 -2t26 -4zM235 -66l125 588q28 8 79 8q21 0 40 -2t27 -4l8 -2l-130 -610q-35 -162 -197 -162q-25 0 -47.5 4t-31.5 8l-10 4q0 16 3 34q5 23 13.5 42t14.5 27l6 8q16 -4 33 -4q55 0 67 61z" />
    <glyph glyph-name="Jcircumflex" unicode="&#x134;" horiz-adv-x="467" 
d="M476 950l129 -132q-37 -51 -83 -68l-92 67l-120 -66q-41 18 -54 67l184 132h36zM223 219l104 492q29 9 82 9q22 0 41.5 -2t27.5 -4l9 -3l-108 -507q-22 -104 -93.5 -159t-173.5 -55q-44 0 -84 8.5t-58 17.5l-17 8q14 72 66 115q38 -16 84 -16q99 0 120 96z" />
    <glyph glyph-name="jcircumflex" unicode="&#x135;" horiz-adv-x="266" 
d="M248 769l127 -128q-35 -50 -81 -66l-90 65l-118 -65q-38 17 -53 66l179 128h36zM-23 -66l125 588q28 8 79 8q21 0 40 -2t27 -4l8 -2l-130 -610q-35 -162 -197 -162q-25 0 -47.5 4t-31.5 8l-10 4q0 16 3 34q5 23 13.5 42t14.5 27l6 8q16 -4 33 -4q55 0 67 61z" />
    <glyph glyph-name="Kcommaaccent" unicode="&#x136;" horiz-adv-x="630" 
d="M200 -346l-47 38q44 41 63 110l-49 8l31 143q29 8 78 8q21 0 40 -2t28 -4l8 -2l-22 -103q-12 -56 -44.5 -105t-59.5 -70zM296 434l227 277q41 9 85 9q42 0 83 -9l-276 -339l158 -363q-39 -9 -96 -9q-25 0 -44 2t-25 4l-7 3l-121 305h-48l-65 -305q-27 -9 -82 -9
q-23 0 -42.5 2t-27.5 4l-8 3l149 702q31 9 83 9q23 0 42 -2t27 -4l8 -3l-59 -277h39z" />
    <glyph glyph-name="kcommaaccent" unicode="&#x137;" horiz-adv-x="519" 
d="M147 -331l-46 36q41 39 59 107l-46 8l30 139q29 7 76 7q21 0 39 -2t26 -4l8 -1l-20 -100q-12 -55 -43.5 -102.5t-57.5 -67.5zM249 332l131 190q35 8 84 8q20 0 39.5 -2t28.5 -4l9 -2l-179 -250l93 -264q-36 -9 -88 -9q-22 0 -40 2t-25 5l-7 2l-69 213h-35l-45 -213
q-29 -8 -78 -8q-22 0 -41 2t-27 4l-8 2l156 736q31 6 79 6q20 0 38.5 -1.5t27.5 -2.5l9 -2l-87 -412h34z" />
    <glyph glyph-name="kgreenlandic" unicode="&#x138;" horiz-adv-x="527" 
d="M551 518l-206 -202l125 -302q-31 -14 -92 -14q-24 0 -41.5 2.5t-22.5 5.5l-6 2l-79 191l-54 -53l-29 -139q-33 -9 -78 -9q-49 0 -76 9l108 511q31 6 81 6q46 0 73 -6l-33 -163l160 163q34 6 89 6q49 0 81 -8z" />
    <glyph glyph-name="Lacute" unicode="&#x139;" horiz-adv-x="529" 
d="M402 890l-167 -140q-57 10 -75 44l122 148q38 4 74 -11.5t46 -40.5zM6 0l151 711q32 9 81 9q22 0 41.5 -2t28.5 -4l8 -3l-123 -581h280q3 -28 -4 -65q-6 -28 -24 -65h-439z" />
    <glyph glyph-name="lacute" unicode="&#x13a;" horiz-adv-x="268" 
d="M393 911l-167 -139q-58 10 -76 44l123 147q38 5 74 -11t46 -41zM304 742l-156 -734q-29 -8 -79 -8q-23 0 -42 2t-26 4l-7 2l156 734q26 8 78 8q22 0 41 -2t27 -4z" />
    <glyph glyph-name="Lcommaaccent" unicode="&#x13b;" horiz-adv-x="529" 
d="M6 0l151 711q32 9 81 9q22 0 41.5 -2t28.5 -4l8 -3l-123 -581h280q3 -28 -4 -65q-6 -28 -24 -65h-439zM143 -347l-47 38q44 41 63 110l-49 8l31 143q29 8 78 8q21 0 40 -2t27 -4l9 -2l-22 -103q-12 -56 -44.5 -105t-58.5 -70z" />
    <glyph glyph-name="lcommaaccent" unicode="&#x13c;" horiz-adv-x="268" 
d="M304 742l-156 -734q-29 -8 -79 -8q-23 0 -42 2t-26 4l-7 2l156 734q26 8 78 8q22 0 41 -2t27 -4zM-15 -347l-47 38q43 41 62 110l-48 8l31 143q29 8 78 8q21 0 40 -2t27 -4l9 -2l-22 -103q-12 -56 -44.5 -105t-58.5 -70z" />
    <glyph glyph-name="Lcaron" unicode="&#x13d;" horiz-adv-x="529" 
d="M389 571q-44 5 -57 37q41 34 60.5 64t30.5 77q81 5 113 -27q-23 -54 -63 -95.5t-84 -55.5zM6 0l151 711q32 9 81 9q22 0 41.5 -2t28.5 -4l8 -3l-123 -581h280q3 -28 -4 -65q-6 -28 -24 -65h-439z" />
    <glyph glyph-name="lcaron" unicode="&#x13e;" horiz-adv-x="283" 
d="M369 569q-46 2 -62 30q37 37 54 68t23 78q79 15 117 -14q-16 -54 -52 -98.5t-80 -63.5zM304 742l-156 -734q-29 -8 -79 -8q-23 0 -42 2t-26 4l-7 2l156 734q26 8 78 8q22 0 41 -2t27 -4z" />
    <glyph glyph-name="Ldot" unicode="&#x13f;" horiz-adv-x="540" 
d="M6 0l151 711q32 9 81 9q22 0 41.5 -2t28.5 -4l8 -3l-123 -581h280q3 -28 -4 -65q-6 -28 -24 -65h-439zM488 397l-26 -124q-26 -8 -70 -8q-20 0 -36.5 2t-22.5 4l-6 2l26 124q23 8 69 8q20 0 36.5 -2t23.5 -4z" />
    <glyph glyph-name="ldot" unicode="&#x140;" horiz-adv-x="427" 
d="M304 742l-156 -734q-29 -8 -79 -8q-23 0 -42 2t-26 4l-7 2l156 734q26 8 78 8q22 0 41 -2t27 -4zM435 397l-26 -124q-26 -8 -70 -8q-20 0 -36.5 2t-22.5 4l-7 2l26 124q24 8 70 8q20 0 36.5 -2t22.5 -4z" />
    <glyph glyph-name="Lslash" unicode="&#x141;" horiz-adv-x="555" 
d="M183 711q32 9 81 9q22 0 41.5 -2t28.5 -4l8 -3l-49 -232l104 54q26 -38 29 -78l-155 -80l-52 -245h280q3 -28 -4 -65q-6 -28 -24 -65h-439l60 283l-68 -35q-24 33 -29 78l119 61z" />
    <glyph glyph-name="lslash" unicode="&#x142;" horiz-adv-x="365" 
d="M198 742q26 8 78 8q22 0 41 -2t27 -4l8 -2l-52 -243l65 34q9 -9 20 -36q5 -12 7 -23t2 -16v-4l-116 -60l-82 -386q-29 -8 -79 -8q-23 0 -42 2t-26 4l-7 2l63 298l-62 -32q-9 9 -19 36q-5 12 -7.5 22.5t-2.5 15.5v4l113 57z" />
    <glyph glyph-name="Nacute" unicode="&#x143;" horiz-adv-x="704" 
d="M626 890l-166 -140q-58 11 -76 44l122 148q38 4 74 -11.5t46 -40.5zM371 9l-83 365l-34 168h-4q-7 -83 -30 -191l-73 -342q-26 -9 -74 -9q-21 0 -37.5 2t-22.5 4l-6 3l149 702q36 9 103 9q30 0 54.5 -2t33.5 -4l9 -3l79 -362l35 -179h4q11 96 34 203l72 338q28 9 73 9
q21 0 38 -2t23 -4l6 -3l-149 -702q-33 -9 -101 -9q-29 0 -53.5 2t-34.5 4z" />
    <glyph glyph-name="nacute" unicode="&#x144;" horiz-adv-x="548" 
d="M479 734l-166 -139q-60 11 -76 44l122 147q38 5 74 -11t46 -41zM509 366l-76 -358q-28 -8 -79 -8q-23 0 -42 2t-26 4l-7 2l74 351q13 60 -51 60q-38 0 -75 -28l-81 -383q-29 -8 -79 -8q-23 0 -42 2t-26 4l-7 2l109 514q27 8 79 8q22 0 39 -2t23 -4l5 -2v-42q69 60 146 60
q75 0 104.5 -45t11.5 -129z" />
    <glyph glyph-name="Ncommaaccent" unicode="&#x145;" horiz-adv-x="704" 
d="M371 9l-83 365l-34 168h-4q-7 -83 -30 -191l-73 -342q-26 -9 -74 -9q-21 0 -37.5 2t-22.5 4l-6 3l149 702q36 9 103 9q30 0 54.5 -2t33.5 -4l9 -3l82 -362q8 -38 16 -82.5t12 -70.5l4 -26h4q11 96 34 203l72 338q28 9 73 9q21 0 38 -2t23 -4l6 -3l-149 -702
q-33 -9 -101 -9q-29 0 -53.5 2t-34.5 4zM208 -347l-47 38q44 41 63 110l-49 8l31 143q29 8 78 8q21 0 40 -2t28 -4l8 -2l-22 -103q-12 -56 -44.5 -105t-59.5 -70z" />
    <glyph glyph-name="ncommaaccent" unicode="&#x146;" horiz-adv-x="548" 
d="M142 -334l-46 37q43 39 62 108l-48 8l30 140q29 8 77 8q21 0 39.5 -2t26.5 -4l8 -2l-22 -101q-7 -35 -23 -67.5t-33 -54t-33.5 -38.5t-27.5 -24zM509 366l-76 -358q-28 -8 -79 -8q-23 0 -42 2t-26 4l-7 2l74 351q13 60 -51 60q-38 0 -75 -28l-81 -383q-29 -8 -79 -8
q-23 0 -42 2t-26 4l-7 2l109 514q27 8 79 8q22 0 39 -2t23 -4l5 -2v-42q69 60 146 60q75 0 104.5 -45t11.5 -129z" />
    <glyph glyph-name="Ncaron" unicode="&#x147;" horiz-adv-x="704" 
d="M435 749l-135 126q36 51 83 68l93 -67l119 66q42 -19 53 -67l-177 -126h-36zM371 9l-83 365l-34 168h-4q-7 -83 -30 -191l-73 -342q-26 -9 -74 -9q-21 0 -37.5 2t-22.5 4l-6 3l149 702q36 9 103 9q30 0 54.5 -2t33.5 -4l9 -3l79 -362l35 -179h4q11 96 34 203l72 338
q28 9 73 9q21 0 38 -2t23 -4l6 -3l-149 -702q-33 -9 -101 -9q-29 0 -53.5 2t-34.5 4z" />
    <glyph glyph-name="ncaron" unicode="&#x148;" horiz-adv-x="548" 
d="M346 701l110 61q37 -14 49 -61l-158 -111h-33l-127 111q31 47 75 62zM509 366l-76 -358q-28 -8 -79 -8q-23 0 -42 2t-26 4l-7 2l74 351q13 60 -51 60q-38 0 -75 -28l-81 -383q-29 -8 -79 -8q-23 0 -42 2t-26 4l-7 2l109 514q27 8 79 8q22 0 39 -2t23 -4l5 -2v-42
q69 60 146 60q75 0 104.5 -45t11.5 -129z" />
    <glyph glyph-name="napostrophe" unicode="&#x149;" horiz-adv-x="548" 
d="M173 571q-43 5 -57 37q41 33 60.5 63t30.5 78q81 5 113 -27q-22 -53 -62.5 -95t-84.5 -56zM509 366l-76 -358q-28 -8 -79 -8q-23 0 -42 2t-26 4l-7 2l74 351q13 60 -51 60q-38 0 -75 -28l-81 -383q-29 -8 -79 -8q-23 0 -42 2t-26 4l-7 2l109 514q27 8 79 8q22 0 39 -2
t23 -4l5 -2v-42q69 60 146 60q75 0 104.5 -45t11.5 -129z" />
    <glyph glyph-name="Eng" unicode="&#x14a;" horiz-adv-x="706" 
d="M581 711q28 9 74 9q21 0 37.5 -2t23.5 -4l6 -3l-159 -749q-18 -83 -61 -129.5t-121 -69.5q-45 31 -30 99q27 11 41.5 32.5t24.5 67.5l8 40l-53 7l-83 365l-33 168h-5q-7 -83 -30 -191l-73 -342q-25 -9 -73 -9q-21 0 -37.5 2t-23.5 4l-6 3l149 702q36 9 104 9
q30 0 54.5 -2t33.5 -4l9 -3l83 -362q8 -38 15.5 -82.5t11.5 -70.5l3 -26h4q11 96 34 203z" />
    <glyph glyph-name="eng" unicode="&#x14b;" horiz-adv-x="548" 
d="M247 480q69 60 146 60q75 0 104.5 -45t11.5 -129l-86 -404q-18 -82 -64.5 -129t-126.5 -70q-42 31 -27 100q26 11 40 32t24 67l84 397q13 60 -51 60q-38 0 -75 -28l-81 -383q-29 -8 -79 -8q-23 0 -42 2t-26 4l-7 2l109 514q27 8 79 8q22 0 39 -2t23 -4l5 -2v-42z" />
    <glyph glyph-name="Omacron" unicode="&#x14c;" horiz-adv-x="687" 
d="M304 875h299q2 -41 -19 -91h-299q-2 50 19 91zM57 377q40 186 133.5 270.5t237.5 84.5q142 0 204 -99t21 -289q-40 -189 -132 -272.5t-237 -83.5q-144 0 -205.5 99t-21.5 290zM488 360q16 73 17.5 122.5t-10.5 76t-33 37.5t-54 11q-67 0 -111.5 -53t-74.5 -194
q-23 -97 -16 -151.5t30 -74.5t67 -20q67 0 111 53t74 193z" />
    <glyph glyph-name="omacron" unicode="&#x14d;" horiz-adv-x="550" 
d="M225 700h266q2 -43 -19 -88h-266q2 46 19 88zM29 280q31 143 103 202t189 59q115 0 164.5 -70.5t18.5 -215.5q-30 -143 -102.5 -203.5t-188.5 -60.5q-114 0 -164.5 72t-19.5 217zM348 266q17 94 5.5 126t-52.5 32q-42 0 -69.5 -34t-46.5 -124q-17 -94 -5 -126.5t53 -32.5
t69 34.5t46 124.5z" />
    <glyph glyph-name="Obreve" unicode="&#x14e;" horiz-adv-x="686" 
d="M455 884q31 0 59 6.5t41 13.5l13 6q43 -17 52 -65q-2 -3 -7 -7.5t-21.5 -17t-35.5 -22t-50 -17t-65 -7.5q-53 0 -95 18t-58 36l-15 17q26 47 79 65q34 -26 103 -26zM57 377q40 186 133.5 270.5t237.5 84.5q142 0 204 -99t21 -289q-40 -189 -132 -272.5t-237 -83.5
q-144 0 -205.5 99t-21.5 290zM488 360q16 73 17.5 122.5t-10.5 76t-33 37.5t-54 11q-67 0 -111.5 -53t-74.5 -194q-23 -97 -16 -151.5t30 -74.5t67 -20q67 0 111 53t74 193z" />
    <glyph glyph-name="obreve" unicode="&#x14f;" horiz-adv-x="550" 
d="M351 708q30 0 57.5 7t40.5 14l13 7q19 -9 32.5 -28t15.5 -41q-2 -3 -7 -7.5t-21 -17t-34.5 -22t-49 -17t-62.5 -7.5q-52 0 -92.5 18t-55.5 36l-15 17q28 50 79 69q32 -28 99 -28zM29 279q31 143 103 202t189 59q115 0 164.5 -70.5t18.5 -215.5q-30 -143 -102.5 -203.5
t-188.5 -60.5q-114 0 -164.5 72t-19.5 217zM348 265q17 95 5.5 126.5t-52.5 31.5q-42 0 -69.5 -34t-46.5 -124q-17 -95 -5 -127t53 -32t69 34.5t46 124.5z" />
    <glyph glyph-name="Ohungarumlaut" unicode="&#x150;" horiz-adv-x="687" 
d="M280 795l117 142q36 4 70.5 -11t44.5 -39l-160 -133q-55 9 -72 41zM465 795l117 142q36 4 70 -11t44 -39l-158 -133q-56 9 -73 41zM57 377q40 186 133.5 270.5t237.5 84.5q142 0 204 -99t21 -289q-40 -189 -132 -272.5t-237 -83.5q-144 0 -205.5 99t-21.5 290zM488 360
q16 73 17.5 122.5t-10.5 76t-33 37.5t-54 11q-67 0 -111.5 -53t-74.5 -194q-23 -97 -16 -151.5t30 -74.5t67 -20q67 0 111 53t74 193z" />
    <glyph glyph-name="ohungarumlaut" unicode="&#x151;" horiz-adv-x="550" 
d="M195 612l98 131q34 6 68 -5t46 -31l-138 -125q-53 3 -74 30zM366 620l110 123q35 4 68 -9t43 -34l-150 -116q-55 9 -71 36zM29 279q31 143 103 202t189 59q115 0 164.5 -70.5t18.5 -215.5q-30 -143 -102.5 -203.5t-188.5 -60.5q-114 0 -164.5 72t-19.5 217zM348 265
q17 95 5.5 126.5t-52.5 31.5q-42 0 -69.5 -34t-46.5 -124q-17 -95 -5 -127t53 -32t69 34.5t46 124.5z" />
    <glyph glyph-name="OE" unicode="&#x152;" horiz-adv-x="880" 
d="M59 381q40 187 134 268t243 81q49 0 89 -10h395q5 -26 -3 -60q-6 -33 -23 -60h-248l-37 -176h198q5 -26 -3 -60q-6 -34 -23 -61h-198l-38 -182h258q3 -27 -3 -61q-7 -32 -23 -60h-406q-50 -10 -92 -10q-143 0 -201.5 100.5t-18.5 290.5zM497 585q-41 22 -87 22
q-72 0 -118.5 -52.5t-76.5 -194.5q-15 -74 -16 -123t12.5 -75.5t36 -37t57.5 -10.5q51 0 97 21z" />
    <glyph glyph-name="oe" unicode="&#x153;" horiz-adv-x="805" 
d="M747 219h-272q-7 -59 12 -83.5t66 -24.5q28 0 56 5.5t42 11.5l14 6q15 -14 21.5 -42t2.5 -57q-7 -5 -21.5 -12.5t-63 -20t-102.5 -12.5q-95 0 -137 61q-76 -61 -158 -61q-113 0 -160.5 72.5t-16.5 218.5q31 142 103.5 200.5t190.5 58.5q92 0 132 -63q66 63 156 63
q101 0 146 -53t23 -158q-6 -29 -14.5 -56.5t-14.5 -40.5zM637 346q16 82 -46 82q-32 0 -55.5 -26t-41.5 -87h134q6 20 9 31zM299 423q-42 0 -69.5 -34t-46.5 -124q-17 -95 -5 -127t53 -32q40 0 64.5 34t43.5 125q19 95 9.5 126.5t-49.5 31.5z" />
    <glyph glyph-name="Racute" unicode="&#x154;" horiz-adv-x="636" 
d="M303 794l122 148q38 4 74 -11.5t46 -40.5l-167 -140q-57 10 -75 44zM158 720h275q111 0 159 -67t26 -170q-29 -134 -163 -184l101 -290q-35 -9 -93 -9q-25 0 -44.5 2t-26.5 4l-8 3l-88 270h-72l-57 -270q-32 -9 -81 -9q-24 0 -44 2t-28 4l-7 3zM292 596l-41 -193h92
q92 0 112 96q20 97 -71 97h-92z" />
    <glyph glyph-name="racute" unicode="&#x155;" horiz-adv-x="412" 
d="M191 629l122 147q38 5 74 -11t46 -41l-166 -139q-60 11 -76 44zM235 467q56 72 134 72q48 0 86 -28q-25 -75 -83 -122q-17 18 -61 18q-46 0 -90 -46l-75 -353q-31 -8 -79 -8q-23 0 -41.5 2t-25.5 4l-8 2l109 514q28 8 79 8q22 0 36.5 -2t17.5 -4l4 -2z" />
    <glyph glyph-name="Rcommaaccent" unicode="&#x156;" horiz-adv-x="637" 
d="M195 -42q29 8 78 8q21 0 40 -2t27 -4l9 -2l-22 -103q-12 -56 -44.5 -105t-58.5 -70l-27 -21l-47 38q43 41 62 110l-48 8zM159 720h275q111 0 159 -67t26 -170q-29 -134 -163 -184l101 -290q-35 -9 -93 -9q-25 0 -44.5 2t-27.5 4l-7 3l-88 270h-72l-57 -270q-32 -9 -81 -9
q-24 0 -43.5 2t-27.5 4l-8 3zM293 596l-41 -193h92q92 0 112 96q20 97 -71 97h-92z" />
    <glyph glyph-name="rcommaaccent" unicode="&#x157;" horiz-adv-x="412" 
d="M-16 -48q29 8 78 8q21 0 40 -2t28 -4l8 -2l-22 -103q-12 -56 -44.5 -105t-59.5 -70l-26 -21l-47 38q43 41 62 110l-48 8zM235 467q56 72 134 72q48 0 86 -28q-25 -75 -83 -122q-17 18 -61 18q-46 0 -90 -46l-75 -353q-31 -8 -79 -8q-23 0 -41.5 2t-25.5 4l-8 2l109 514
q28 8 79 8q22 0 36.5 -2t17.5 -4l4 -2z" />
    <glyph glyph-name="Rcaron" unicode="&#x158;" horiz-adv-x="636" 
d="M411 883l120 66q40 -18 53 -67l-184 -132h-36l-129 132q37 51 83 68zM158 720h275q111 0 159 -67t26 -170q-29 -134 -163 -184l101 -290q-35 -9 -93 -9q-25 0 -44.5 2t-26.5 4l-8 3l-88 270h-72l-57 -270q-32 -9 -81 -9q-24 0 -44 2t-28 4l-7 3zM292 596l-41 -193h92
q92 0 112 96q20 97 -71 97h-92z" />
    <glyph glyph-name="rcaron" unicode="&#x159;" horiz-adv-x="412" 
d="M298 714l110 61q35 -14 49 -61l-168 -122h-33l-118 122q31 47 76 62zM235 467q56 72 134 72q48 0 86 -28q-25 -75 -83 -122q-17 18 -61 18q-46 0 -90 -46l-75 -353q-31 -8 -79 -8q-23 0 -41.5 2t-25.5 4l-8 2l109 514q28 8 79 8q22 0 36.5 -2t17.5 -4l4 -2z" />
    <glyph glyph-name="Sacute" unicode="&#x15a;" horiz-adv-x="573" 
d="M561 895l-170 -132q-56 12 -73 47l126 142q37 3 72 -14t45 -43zM94 537q20 98 94 146.5t208 48.5q58 0 108.5 -8.5t71.5 -17.5l22 -8q-16 -75 -65 -118q-62 20 -141 20q-126 0 -143 -77q-3 -11 -0.5 -21t11 -18t17.5 -14t24.5 -13t28 -11.5t32.5 -11.5t33 -12
q69 -27 105.5 -86t16.5 -150q-23 -101 -98 -149.5t-211 -48.5q-65 0 -122 12t-82 24l-24 13q15 70 64 122q83 -31 183 -31q115 0 132 77q6 32 -15.5 52t-67.5 37q-18 7 -32 12t-32.5 13.5t-31.5 17t-28.5 20.5t-26 24.5t-19.5 29.5t-13 35.5t-4 41.5t5 49z" />
    <glyph glyph-name="sacute" unicode="&#x15b;" horiz-adv-x="450" 
d="M435 718l-160 -132q-61 15 -75 47l127 143q37 3 68 -14.5t40 -43.5zM55 385q36 155 233 155q49 0 87.5 -8t52.5 -16l15 -7q-13 -69 -57 -103q-48 16 -107 16q-76 0 -85 -44q-2 -10 3 -17.5t17.5 -13.5t24.5 -10.5t32 -10.5t33 -11q55 -21 77 -60.5t7 -107.5
q-17 -81 -75 -119t-164 -38q-52 0 -96 10t-62 20l-18 10q14 66 60 105q59 -23 128 -23q73 0 82 44q-1 8 0 13.5t-6 11t-11 9t-15.5 8t-18.5 6.5t-20.5 6.5t-21.5 7.5q-123 42 -95 167z" />
    <glyph glyph-name="Scircumflex" unicode="&#x15c;" horiz-adv-x="573" 
d="M447 955l139 -129q-38 -50 -82 -66l-93 69l-120 -68q-41 17 -54 65l174 129h36zM94 537q20 98 94 146.5t208 48.5q58 0 108.5 -8.5t71.5 -17.5l22 -8q-16 -75 -65 -118q-62 20 -141 20q-126 0 -143 -77q-3 -11 -0.5 -21t11 -18t17.5 -14t24.5 -13t28 -11.5t32.5 -11.5
t33 -12q69 -27 105.5 -86t16.5 -150q-23 -101 -98 -149.5t-211 -48.5q-65 0 -122 12t-82 24l-24 13q15 70 64 122q83 -31 183 -31q115 0 132 77q6 32 -15.5 52t-67.5 37q-18 7 -32 12t-32.5 13.5t-31.5 17t-28.5 20.5t-26 24.5t-19.5 29.5t-13 35.5t-4 41.5t5 49z" />
    <glyph glyph-name="scircumflex" unicode="&#x15d;" horiz-adv-x="450" 
d="M338 756l136 -119q-36 -49 -80 -65l-91 65l-117 -64q-40 16 -53 64l170 119h35zM55 385q36 155 233 155q49 0 87.5 -8t52.5 -16l15 -7q-13 -69 -57 -103q-48 16 -107 16q-76 0 -85 -44q-2 -10 3 -17.5t17.5 -13.5t24.5 -10.5t32 -10.5t33 -11q55 -21 77 -60.5t7 -107.5
q-17 -81 -75 -119t-164 -38q-52 0 -96 10t-62 20l-18 10q14 66 60 105q59 -23 128 -23q73 0 82 44q-1 8 0 13.5t-6 11t-11 9t-15.5 8t-18.5 6.5t-20.5 6.5t-21.5 7.5q-123 42 -95 167z" />
    <glyph glyph-name="Scedilla" unicode="&#x15e;" horiz-adv-x="573" 
d="M93 537q20 98 94 146.5t208 48.5q58 0 108.5 -8.5t72.5 -17.5l21 -8q-16 -75 -65 -118q-62 20 -141 20q-126 0 -143 -77q-3 -11 -0.5 -21t11 -18t17.5 -14t24.5 -13t28 -11.5t32.5 -11.5t33 -12q69 -27 105.5 -86t16.5 -150q-20 -92 -84.5 -140.5t-178.5 -56.5l-18 -44
q105 0 84 -99q-10 -50 -51 -76.5t-102 -26.5q-30 0 -55 6t-35 12l-10 6q8 40 38 58q24 -13 62 -13q60 -2 68 38q8 35 -35 35h-53l-11 16l38 88q-56 3 -104.5 15t-68.5 22l-21 11q15 70 64 122q83 -31 183 -31q115 0 132 77q6 32 -15.5 52t-67.5 37q-18 7 -32 12t-32.5 13.5
t-31.5 17t-28.5 20.5t-26 24.5t-19.5 29.5t-13 35.5t-4 41.5t5 49z" />
    <glyph glyph-name="scedilla" unicode="&#x15f;" horiz-adv-x="450" 
d="M386 406q-48 16 -107 16q-76 0 -85 -44q-2 -10 3 -17.5t17.5 -13.5t24.5 -10.5t32 -10.5t33 -11q55 -21 77 -60.5t7 -107.5q-15 -71 -61.5 -109t-128.5 -46l-17 -42q103 0 82 -95q-10 -48 -49.5 -73.5t-98.5 -25.5q-30 0 -54.5 6t-34.5 12l-9 5q2 15 12.5 31.5t23.5 24.5
q24 -13 61 -13q59 -2 67 37q3 16 -5.5 25t-29.5 9h-52l-10 15l33 83q-42 3 -78 12.5t-51 18.5l-15 8q14 66 60 105q59 -23 128 -23q73 0 82 44q-1 8 0 13.5t-6 11t-11 9t-15.5 8t-18.5 6.5t-20.5 6.5t-21.5 7.5q-123 42 -95 167q36 155 233 155q49 0 87.5 -8t52.5 -16l15 -7
q-13 -69 -57 -103z" />
    <glyph glyph-name="Scaron" unicode="&#x160;" horiz-adv-x="573" 
d="M386 767l-142 119q36 49 83 67l93 -65l119 64q39 -17 54 -66l-171 -119h-36zM94 537q20 98 94 146.5t208 48.5q58 0 108.5 -8.5t71.5 -17.5l22 -8q-16 -75 -65 -118q-62 20 -141 20q-126 0 -143 -77q-3 -11 -0.5 -21t11 -18t17.5 -14t24.5 -13t28 -11.5t32.5 -11.5
t33 -12q69 -27 105.5 -86t16.5 -150q-23 -101 -98 -149.5t-211 -48.5q-65 0 -122 12t-82 24l-24 13q15 70 64 122q83 -31 183 -31q115 0 132 77q6 32 -15.5 52t-67.5 37q-18 7 -32 12t-32.5 13.5t-31.5 17t-28.5 20.5t-26 24.5t-19.5 29.5t-13 35.5t-4 41.5t5 49z" />
    <glyph glyph-name="scaron" unicode="&#x161;" horiz-adv-x="450" 
d="M273 573l-116 120q31 45 74 60l84 -60l108 60q35 -16 49 -60l-166 -120h-33zM55 385q36 155 233 155q49 0 87.5 -8t52.5 -16l15 -7q-13 -69 -57 -103q-48 16 -107 16q-76 0 -85 -44q-2 -10 3 -17.5t17.5 -13.5t24.5 -10.5t32 -10.5t33 -11q55 -21 77 -60.5t7 -107.5
q-17 -81 -75 -119t-164 -38q-52 0 -96 10t-62 20l-18 10q14 66 60 105q59 -23 128 -23q73 0 82 44q-1 8 0 13.5t-6 11t-11 9t-15.5 8t-18.5 6.5t-20.5 6.5t-21.5 7.5q-123 42 -95 167z" />
    <glyph glyph-name="Tcommaaccent" unicode="&#x162;" horiz-adv-x="564" 
d="M114 720h512q4 -28 -4 -66q-4 -17 -10 -34t-10 -26l-4 -8h-174l-123 -577q-34 -9 -82 -9q-24 0 -43 2t-26 4l-8 3l123 577h-179q-5 26 4 66q4 18 10 35t10 25zM133 -349l-47 38q43 41 62 110l-48 8l31 143q29 8 78 8q21 0 40 -2t27 -4l9 -2l-22 -103q-12 -56 -44.5 -105
t-58.5 -70z" />
    <glyph glyph-name="Tcommaaccent" unicode="&#x21a;" horiz-adv-x="564" 
d="M114 720h512q4 -28 -4 -66q-4 -17 -10 -34t-10 -26l-4 -8h-174l-123 -577q-34 -9 -82 -9q-24 0 -43 2t-26 4l-8 3l123 577h-179q-5 26 4 66q4 18 10 35t10 25zM133 -349l-47 38q43 41 62 110l-48 8l31 143q29 8 78 8q21 0 40 -2t27 -4l9 -2l-22 -103q-12 -56 -44.5 -105
t-58.5 -70z" />
    <glyph glyph-name="tcommaaccent" unicode="&#x163;" horiz-adv-x="389" 
d="M267 416l-47 -223q-11 -49 4.5 -67t58.5 -18l41 4q7 -23 -1 -61q-3 -14 -7.5 -26.5t-7.5 -18.5l-3 -5q-43 -11 -92 -11q-101 0 -135.5 47t-12.5 152l48 227h-72q-2 21 5 54q4 16 8.5 30t7.5 20l3 6h72l19 89q69 34 159 25l-24 -114h108q3 -20 -5 -55q-3 -14 -8 -28
t-8 -21l-3 -6h-108zM92 -347l-46 37q43 40 62 108l-48 8l30 140q29 8 77 8q21 0 39.5 -2t26.5 -4l8 -2l-22 -101q-7 -35 -23 -67.5t-33 -54t-33.5 -38.5t-27.5 -25z" />
    <glyph glyph-name="tcommaaccent" unicode="&#x21b;" horiz-adv-x="389" 
d="M267 416l-47 -223q-11 -49 4.5 -67t58.5 -18l41 4q7 -23 -1 -61q-3 -14 -7.5 -26.5t-7.5 -18.5l-3 -5q-43 -11 -92 -11q-101 0 -135.5 47t-12.5 152l48 227h-72q-2 21 5 54q4 16 8.5 30t7.5 20l3 6h72l19 89q69 34 159 25l-24 -114h108q3 -20 -5 -55q-3 -14 -8 -28
t-8 -21l-3 -6h-108zM92 -347l-46 37q43 40 62 108l-48 8l30 140q29 8 77 8q21 0 39.5 -2t26.5 -4l8 -2l-22 -101q-7 -35 -23 -67.5t-33 -54t-33.5 -38.5t-27.5 -25z" />
    <glyph glyph-name="Tcaron" unicode="&#x164;" horiz-adv-x="564" 
d="M362 754l-130 128q38 52 83 68l93 -67l119 66q41 -18 54 -67l-183 -128h-36zM114 720h511q4 -28 -4 -66q-4 -17 -10 -34t-10 -26l-4 -8h-173l-123 -577q-34 -9 -82 -9q-24 0 -43.5 2t-27.5 4l-7 3l123 577h-178q-5 26 4 66q4 18 10 35t10 25z" />
    <glyph glyph-name="tcaron" unicode="&#x165;" horiz-adv-x="389" 
d="M400 571q-44 5 -57 37q41 34 60.5 64t30.5 77q81 5 113 -27q-23 -54 -63 -95.5t-84 -55.5zM269 416l-47 -223q-11 -49 4.5 -67t58.5 -18l41 4q6 -23 -2 -61q-3 -14 -7.5 -26.5t-7.5 -18.5l-3 -5q-41 -11 -92 -11q-101 0 -135 47t-12 152l48 227h-73q-2 21 5 54
q4 16 8.5 30t7.5 20l3 6h73l19 89q69 34 159 25l-24 -114h107q3 -20 -5 -55q-3 -14 -8 -28t-8 -21l-3 -6h-107z" />
    <glyph glyph-name="Tbar" unicode="&#x166;" horiz-adv-x="581" 
d="M390 390h124q5 -45 -20 -93h-124l-61 -288q-34 -9 -82 -9q-24 0 -43.5 2t-27.5 4l-7 3l61 288h-130q-3 50 20 93h130l42 196h-178q-5 26 4 66q4 18 10 35t10 25l4 8h511q4 -28 -4 -66q-4 -17 -10 -34t-10 -26l-4 -8h-173z" />
    <glyph glyph-name="tbar" unicode="&#x167;" horiz-adv-x="390" 
d="M285 108l41 4q6 -23 -2 -61q-3 -14 -7.5 -26.5t-7.5 -18.5l-3 -5q-41 -11 -92 -11q-101 0 -135 47t-12 152l10 48h-63q-2 48 19 88h63l19 91h-73q-2 21 5 54q4 16 8.5 30t7.5 20l3 6h73l19 89q69 34 159 25l-24 -114h107q3 -20 -5 -55q-3 -14 -8 -28t-8 -21l-3 -6h-107
l-19 -91h97q6 -40 -19 -88h-97l-9 -44q-11 -49 4.5 -67t58.5 -18z" />
    <glyph glyph-name="Utilde" unicode="&#x168;" horiz-adv-x="674" 
d="M513 879q16 0 30.5 6.5t21.5 12.5l7 6q39 -21 35 -74q-4 -5 -12.5 -13.5t-35.5 -22t-57 -13.5q-34 0 -71 15.5t-60 15.5q-15 0 -29 -6t-21 -12l-7 -7q-41 23 -36 73q4 5 12.5 13.5t36 22t55.5 13.5q34 0 71 -15t60 -15zM696 711l-98 -460q-26 -125 -110.5 -194
t-208.5 -69q-126 0 -189 70.5t-37 192.5l98 460q30 9 80 9q23 0 43 -2t28 -4l8 -3l-100 -472q-12 -56 11 -86t79 -30q114 0 139 116l100 472q29 9 80 9q22 0 41.5 -2t27.5 -4z" />
    <glyph glyph-name="utilde" unicode="&#x169;" horiz-adv-x="547" 
d="M184 677q2 2 5 5.5t13 12.5t21.5 15.5t29 12t35.5 5.5q35 0 71.5 -16t59.5 -16q16 0 30.5 6.5t20.5 13.5l7 6q40 -22 35 -76q-4 -6 -12.5 -14.5t-35.5 -22.5t-57 -14q-34 0 -71 16t-60 16q-15 0 -29.5 -6.5t-20.5 -12.5l-7 -7q-42 24 -35 76zM21 164l76 358q28 8 79 8
q23 0 42 -2t26 -4l7 -2l-75 -352q-13 -60 50 -60q42 0 78 37l80 375q29 8 79 8q23 0 41.5 -2t25.5 -4l8 -2l-109 -514q-27 -8 -79 -8q-20 0 -35 2t-21 4l-5 2v40q-66 -58 -148 -58q-76 0 -106.5 46t-13.5 128z" />
    <glyph glyph-name="Umacron" unicode="&#x16a;" horiz-adv-x="674" 
d="M597 781h-312q-2 46 19 91h312q3 -41 -19 -91zM696 711l-98 -460q-26 -125 -110.5 -194t-208.5 -69q-126 0 -189 70.5t-37 192.5l98 460q30 9 80 9q23 0 43 -2t28 -4l8 -3l-100 -472q-12 -56 11 -86t79 -30q114 0 139 116l100 472q29 9 80 9q22 0 41.5 -2t27.5 -4z" />
    <glyph glyph-name="umacron" unicode="&#x16b;" horiz-adv-x="547" 
d="M233 701h255q3 -39 -18 -83h-255q2 47 18 83zM21 164l76 358q28 8 79 8q23 0 42 -2t26 -4l7 -2l-75 -352q-13 -60 50 -60q42 0 78 37l80 375q29 8 79 8q23 0 41.5 -2t25.5 -4l8 -2l-109 -514q-27 -8 -79 -8q-20 0 -35 2t-21 4l-5 2v40q-66 -58 -148 -58q-76 0 -106.5 46
t-13.5 128z" />
    <glyph glyph-name="Ubreve" unicode="&#x16c;" horiz-adv-x="675" 
d="M615 842q-2 -3 -7 -8t-22 -17t-36 -21.5t-50 -17.5t-65 -8t-63.5 7.5t-47.5 18t-31.5 21t-18.5 17.5l-6 8q29 48 79 65q34 -26 103 -26q31 0 59 6.5t41 12.5l13 7q43 -17 52 -65zM697 711l-98 -460q-26 -125 -110.5 -194t-209.5 -69q-126 0 -189 70.5t-37 192.5l98 460
q30 9 81 9q23 0 42.5 -2t27.5 -4l8 -3l-100 -472q-12 -56 11 -86t79 -30q114 0 139 116l100 472q29 9 80 9q23 0 42.5 -2t27.5 -4z" />
    <glyph glyph-name="ubreve" unicode="&#x16d;" horiz-adv-x="547" 
d="M346 708q30 0 57.5 7t40.5 14l13 7q19 -9 32.5 -28t16.5 -41q-2 -3 -7 -7.5t-21 -17t-34.5 -22t-49 -17t-63.5 -7.5q-52 0 -92.5 18t-54.5 36l-15 17q28 50 78 69q32 -28 99 -28zM21 164l76 358q28 8 79 8q23 0 42 -2t26 -4l7 -2l-75 -352q-13 -60 50 -60q42 0 78 37
l80 375q29 8 79 8q23 0 41.5 -2t25.5 -4l8 -2l-109 -514q-27 -8 -79 -8q-20 0 -35 2t-21 4l-5 2v40q-66 -58 -148 -58q-76 0 -106.5 46t-13.5 128z" />
    <glyph glyph-name="Uring" unicode="&#x16e;" horiz-adv-x="675" 
d="M444 750q-62 0 -95.5 35t-24.5 97q10 61 56.5 95t104.5 34q57 0 94.5 -34t27.5 -95q-9 -62 -55.5 -97t-107.5 -35zM516 882q5 20 -5.5 34.5t-35.5 14.5q-24 0 -40.5 -14.5t-21.5 -34.5q-4 -20 6.5 -34.5t34.5 -14.5q25 0 41.5 14.5t20.5 34.5zM697 711l-98 -460
q-26 -125 -110.5 -194t-209.5 -69q-126 0 -189 70.5t-37 192.5l98 460q30 9 81 9q23 0 42.5 -2t27.5 -4l8 -3l-100 -472q-12 -56 11 -86t79 -30q114 0 139 116l100 472q29 9 80 9q23 0 42.5 -2t27.5 -4z" />
    <glyph glyph-name="uring" unicode="&#x16f;" horiz-adv-x="547" 
d="M217 712q10 60 57.5 94.5t105.5 34.5q57 0 94 -34t26 -95q-10 -61 -57 -96.5t-108 -35.5q-62 0 -95 35t-23 97zM409 712q4 20 -6 34t-35 14q-24 0 -41 -14.5t-21 -33.5q-4 -20 6.5 -35t34.5 -15q25 0 41.5 15t20.5 35zM21 164l76 358q28 8 79 8q23 0 42 -2t26 -4l7 -2
l-75 -352q-13 -60 50 -60q42 0 78 37l80 375q29 8 79 8q23 0 41.5 -2t25.5 -4l8 -2l-109 -514q-27 -8 -79 -8q-20 0 -35 2t-21 4l-5 2v40q-66 -58 -148 -58q-76 0 -106.5 46t-13.5 128z" />
    <glyph glyph-name="Uhungarumlaut" unicode="&#x170;" horiz-adv-x="675" 
d="M507 899l-156 -140q-56 5 -73 40l113 147q36 6 70.5 -8t45.5 -39zM694 895l-161 -135q-56 9 -72 43l117 143q37 4 71.5 -11t44.5 -40zM697 711l-98 -460q-26 -125 -110.5 -194t-209.5 -69q-126 0 -189 70.5t-37 192.5l98 460q30 9 81 9q23 0 42.5 -2t27.5 -4l8 -3
l-100 -472q-12 -56 11 -86t79 -30q114 0 139 116l100 472q29 9 80 9q23 0 42.5 -2t27.5 -4z" />
    <glyph glyph-name="uhungarumlaut" unicode="&#x171;" horiz-adv-x="547" 
d="M400 717l-150 -133q-53 5 -70 37l108 139q34 6 67.5 -7t44.5 -36zM576 713l-154 -128q-54 9 -70 40l113 135q34 4 67 -10t44 -37zM21 164l76 358q28 8 79 8q23 0 42 -2t26 -4l7 -2l-75 -352q-13 -60 50 -60q42 0 78 37l80 375q29 8 79 8q23 0 41.5 -2t25.5 -4l8 -2
l-109 -514q-27 -8 -79 -8q-20 0 -35 2t-21 4l-5 2v40q-66 -58 -148 -58q-76 0 -106.5 46t-13.5 128z" />
    <glyph glyph-name="Uogonek" unicode="&#x172;" horiz-adv-x="675" 
d="M539 711q29 9 80 9q23 0 42.5 -2t27.5 -4l8 -3l-98 -460q-43 -200 -219 -250q-52 -15 -82 -35t-36 -51q-5 -24 6 -36t32 -12l29 5q18 -17 10 -52q-40 -23 -90 -23q-47 0 -72.5 27t-15.5 75q14 61 73 92q-105 12 -155 80.5t-26 179.5l98 460q30 9 81 9q23 0 42.5 -2
t27.5 -4l8 -3l-100 -472q-12 -56 11 -86t79 -30q114 0 139 116z" />
    <glyph glyph-name="uogonek" unicode="&#x173;" horiz-adv-x="548" 
d="M385 522q29 8 79 8q23 0 41.5 -2t26.5 -4l7 -2l-109 -514q-93 -30 -108 -96q-5 -22 8.5 -30t37.5 -8l29 5q21 -18 10 -57q-40 -22 -91 -22q-48 0 -77 25t-19 72q13 63 68 98l1 43q-64 -48 -139 -48q-77 0 -111 48.5t-17 129.5l76 354q28 8 79 8q23 0 42 -2t26 -4l7 -2
l-75 -352q-13 -60 50 -60q39 0 76 28z" />
    <glyph glyph-name="Wcircumflex" unicode="&#x174;" horiz-adv-x="984" 
d="M653 950l129 -132q-37 -51 -83 -68l-92 67l-120 -66q-41 17 -54 67l184 132h36zM532 9l4 383q1 48 5 93t8 66l4 21h-5q-18 -73 -62 -180l-159 -383q-43 -9 -107 -9q-60 0 -98 9l-22 702q31 9 82 9q23 0 41.5 -2t25.5 -4l7 -3l12 -400q0 -35 -2 -75t-4 -62l-1 -23h4
q25 80 58 159l168 401q31 9 93 9q28 0 51 -2t31 -4l9 -3l-3 -400q0 -37 -3 -77t-6 -62l-3 -21h4q23 72 62 159l183 401q29 9 74 9q20 0 38 -2t26 -4l8 -3l-322 -702q-38 -9 -100 -9q-28 0 -53.5 2t-36.5 4z" />
    <glyph glyph-name="wcircumflex" unicode="&#x175;" horiz-adv-x="796" 
d="M526 790l126 -129q-37 -51 -81 -66l-89 65l-117 -64q-40 16 -54 65l180 129h35zM407 8l-5 197q-2 76 16 184h-4q-27 -104 -62 -184l-89 -197q-40 -8 -92 -8q-55 0 -92 8l-23 514q30 8 77 8q22 0 38.5 -2t21.5 -4l5 -2l12 -234q2 -60 -6 -145h3q23 73 55 146l108 233
q38 8 83 8q21 0 39.5 -2t26.5 -4l8 -2l6 -233q2 -60 -8 -146h3q24 71 57 146l112 233q26 8 69 8q20 0 36 -2t22 -4l6 -2l-240 -514q-40 -8 -93 -8q-54 0 -90 8z" />
    <glyph glyph-name="Ycircumflex" unicode="&#x176;" horiz-adv-x="647" 
d="M487 950l129 -132q-38 -52 -83 -68l-92 67l-119 -66q-43 18 -54 67l183 132h36zM555 711q41 9 92 9q23 0 44 -2t31 -4l9 -3l-333 -426l-59 -276q-29 -9 -80 -9q-25 0 -45 2t-27 4l-7 3l58 275l-145 427q34 9 96 9q24 0 43.5 -2t27.5 -4l7 -3l88 -261z" />
    <glyph glyph-name="ycircumflex" unicode="&#x177;" horiz-adv-x="548" 
d="M392 770l125 -129q-37 -51 -81 -66l-88 71l-119 -70q-38 15 -53 65l180 129h36zM385 522q29 8 79 8q23 0 41.5 -2t26.5 -4l7 -2l-106 -496q-30 -144 -108.5 -210t-208.5 -66q-50 0 -92 10t-60 20l-17 11q16 62 60 99q45 -23 106 -23q47 0 74 8.5t51.5 42.5t40.5 101l3 12
q-59 -41 -134 -41q-81 0 -111.5 47.5t-14.5 127.5l76 357q28 8 79 8q23 0 42 -2t26 -4l7 -2l-75 -352q-13 -60 50 -60q39 0 76 28z" />
    <glyph glyph-name="Ydieresis" unicode="&#x178;" horiz-adv-x="648" 
d="M281 893q23 7 67 7q19 0 35.5 -2t22.5 -4l7 -1l-25 -115q-24 -7 -67 -7q-19 0 -35.5 1.5t-23.5 3.5l-6 2zM478 893q23 7 67 7q19 0 35 -2t23 -4l7 -1l-25 -115q-25 -7 -67 -7q-20 0 -36 1.5t-22 3.5l-7 2zM553 711q44 9 95 9q23 0 44 -2t30 -4l10 -3l-333 -426l-59 -276
q-29 -9 -80 -9q-25 0 -45 2t-27 4l-7 3l58 275l-146 427q35 9 97 9q24 0 43 -2t25 -4l7 -3l88 -261z" />
    <glyph glyph-name="Zacute" unicode="&#x179;" horiz-adv-x="609" 
d="M326 794l122 148q38 4 74 -11.5t46 -40.5l-167 -140q-57 10 -75 44zM152 720h493q5 -27 -3 -62q-7 -37 -25 -69l-436 -457h352q2 -31 -6 -64q-8 -39 -22 -68h-534q-4 25 4 68q8 38 24 64l430 457h-305q-2 33 6 69q6 31 22 62z" />
    <glyph glyph-name="zacute" unicode="&#x17a;" horiz-adv-x="480" 
d="M473 734l-167 -139q-59 11 -75 44l122 147q38 5 74 -11t46 -41zM166 121h231q4 -22 -4 -61q-4 -16 -9.5 -31t-9.5 -22l-3 -7h-398q-1 25 6 63q8 33 20 58l294 288h-221q-3 25 5 61q4 16 9 31t8 22l4 7h387q1 -26 -6 -57q-6 -33 -20 -64z" />
    <glyph glyph-name="Zdotaccent" unicode="&#x17b;" horiz-adv-x="610" 
d="M363 904q24 7 71 7q20 0 37 -1.5t24 -3.5l7 -2l-27 -128q-27 -7 -72 -7q-20 0 -37 1.5t-24 3.5l-6 2zM151 720h494q4 -31 -3 -62q-6 -32 -25 -69l-437 -457h353q0 -33 -7 -64q-8 -37 -21 -68h-535q-2 25 5 68q8 37 23 64l430 457h-305q0 35 7 69q5 29 21 62z" />
    <glyph glyph-name="zdotaccent" unicode="&#x17c;" horiz-adv-x="480" 
d="M410 731l-27 -128q-27 -8 -72 -8q-21 0 -38 2t-23 4l-7 2l27 128q25 7 72 7q20 0 37 -2t24 -4zM166 121h231q4 -22 -4 -61q-4 -16 -9.5 -31t-9.5 -22l-3 -7h-398q-1 25 6 63q8 33 20 58l294 288h-221q-3 25 5 61q4 16 9 31t8 22l4 7h387q1 -26 -6 -57q-6 -33 -20 -64z
" />
    <glyph glyph-name="Zcaron" unicode="&#x17d;" horiz-adv-x="609" 
d="M432 883l120 66q40 -18 53 -67l-183 -128h-36l-130 128q37 51 83 68zM152 720h493q5 -27 -3 -62q-7 -37 -25 -69l-436 -457h352q2 -31 -6 -64q-8 -39 -22 -68h-534q-4 25 4 68q8 38 24 64l430 457h-305q-2 33 6 69q6 31 22 62z" />
    <glyph glyph-name="zcaron" unicode="&#x17e;" horiz-adv-x="480" 
d="M295 595l-116 120q31 44 74 61l83 -61l109 60q37 -17 48 -60l-166 -120h-32zM166 121h231q4 -22 -4 -61q-4 -16 -9.5 -31t-9.5 -22l-3 -7h-398q-1 25 6 63q8 33 20 58l294 288h-221q-3 25 5 61q4 16 9 31t8 22l4 7h387q1 -26 -6 -57q-6 -33 -20 -64z" />
    <glyph glyph-name="longs" unicode="&#x17f;" horiz-adv-x="321" 
d="M304 580l-121 -572q-29 -8 -79 -8q-23 0 -41.5 2t-26.5 4l-7 2l86 408h-64q0 57 24 110h64l13 60q34 164 220 164q36 0 68 -7t46 -13l13 -7q-16 -57 -64 -103q-24 12 -70 12q-50 0 -61 -52z" />
    <glyph glyph-name="florin" unicode="&#x192;" horiz-adv-x="505" 
d="M325 373l-110 -357q-47 -156 -214 -156q-36 0 -67 6.5t-44 13.5l-14 6q16 58 55 96q28 -11 69 -11q53 0 71 58l106 344h-72q-3 20 5 53q3 14 7.5 27t7.5 19l3 6h82l18 57q47 156 213 156q36 0 67.5 -6.5t45.5 -12.5l13 -7q-15 -58 -56 -96q-27 11 -70 11q-27 0 -43 -13.5
t-26 -43.5l-13 -45h78q3 -20 -3 -52q-4 -15 -9 -28t-8 -19l-3 -6h-89z" />
    <glyph glyph-name="Aringacute" unicode="&#x1fa;" horiz-adv-x="675" 
d="M647 1040l-150 -103q-54 7 -73 33l108 109q35 4 69.5 -8t45.5 -31zM524 691l81 -682q-31 -9 -87 -9q-23 0 -40.5 2t-23.5 4l-6 3l-16 146h-251l-78 -146q-36 -9 -84 -9q-21 0 -40 2t-27 4l-8 3l370 677q-32 33 -20 91q13 60 62 94.5t107 34.5q57 0 92 -34t22 -95
q-12 -53 -53 -86zM486 777q4 20 -6 34.5t-35 14.5q-24 0 -41 -14.5t-21 -34.5t6.5 -34.5t34.5 -14.5q25 0 41.5 14.5t20.5 34.5zM420 272l-21 177q-3 29 -4 58t-1 44l1 15h-4q-17 -54 -51 -117l-97 -177h177z" />
    <glyph glyph-name="aringacute" unicode="&#x1fb;" 
d="M319 865l108 110q35 3 69.5 -8.5t45.5 -30.5l-150 -103q-55 7 -73 32zM235 692q9 58 55 91t102 33q55 0 90 -33t26 -91q-9 -59 -55 -93t-105 -34t-91 34t-22 93zM419 692q4 19 -6 32t-33 13t-38.5 -13.5t-19.5 -31.5q-4 -19 5.5 -32.5t32.5 -13.5t39 13.5t20 32.5z
M407 530q20 6 69 6q22 0 40.5 -2t25.5 -4l8 -2l-110 -520q-30 -8 -71 -8q-19 0 -36 2t-25 4l-7 2l1 41q-56 -59 -144 -59t-124 70.5t-4 217.5q31 145 91 203.5t153 58.5q85 0 118 -52zM355 336q7 37 -7.5 60t-46.5 23q-43 0 -69 -33t-45 -124q-17 -92 -6 -122t54 -30
q33 0 57.5 23.5t32.5 60.5z" />
    <glyph glyph-name="AEacute" unicode="&#x1fc;" horiz-adv-x="891" 
d="M836 896l-167 -140q-57 10 -75 44l122 148q38 4 74 -11.5t46 -40.5zM101 10q-33 -10 -87 -10q-57 0 -81 10l584 710h413q7 -65 -26 -120h-247l-37 -176h197q8 -64 -26 -121h-197l-38 -182h257q8 -63 -26 -121h-400l34 159h-200zM493 496l-175 -217h129z" />
    <glyph glyph-name="aeacute" unicode="&#x1fd;" horiz-adv-x="785" 
d="M615 724l-167 -139q-59 11 -75 44l122 147q38 5 74 -11t46 -41zM629 540q84 0 119 -52t12 -157q-6 -28 -14.5 -55t-13.5 -40l-6 -13h-270q-11 -112 84 -112q26 0 53 5.5t41 11.5l13 6q34 -34 24 -99q-5 -5 -15.5 -12.5t-49.5 -20t-86 -12.5q-74 0 -107 53l-11 -36
q-20 -7 -61 -7q-19 0 -34.5 2t-22.5 4l-6 2l3 41q-56 -59 -137 -59t-113.5 70t-0.5 216q31 145 89 204.5t144 59.5q43 0 66 -11t42 -41l15 42q18 6 67 6q22 0 37 -2t19 -4l4 -1l-4 -33q57 44 120 44zM476 318h135q5 14 8 28q16 82 -42 82q-67 0 -101 -110zM304 194l30 142
q16 83 -44 83q-36 0 -60.5 -33.5t-43.5 -123.5q-17 -92 -7.5 -122t45.5 -30q61 0 80 84z" />
    <glyph glyph-name="Oslashacute" unicode="&#x1fe;" horiz-adv-x="687" 
d="M619 909l-165 -139q-60 11 -77 44l122 147q38 4 73.5 -11t46.5 -41zM713 724l-78 -95q57 -103 18 -285q-40 -189 -132 -272.5t-237 -83.5q-88 0 -146 38l-64 -79q-66 2 -93 50l89 106q-50 101 -13 274q40 186 133.5 270.5t237.5 84.5q79 0 134 -31l59 72q61 -2 92 -49z
M477 586q-24 21 -69 21q-67 0 -111.5 -53t-74.5 -194q-13 -57 -16 -103zM229 141q23 -27 74 -27q67 0 111 53t74 193q16 75 17 119z" />
    <glyph glyph-name="oslashacute" unicode="&#x1ff;" horiz-adv-x="550" 
d="M482 722l-166 -139q-60 11 -76 44l122 147q38 5 74 -11t46 -41zM544 541l-59 -71q50 -71 19 -216q-30 -143 -102.5 -203.5t-188.5 -60.5q-61 0 -105 21l-57 -67q-49 2 -70 38l67 80q-49 76 -19 217q31 143 103 202t189 59q60 0 105 -20l49 59q46 -1 69 -38zM341 410
q-12 13 -40 13q-42 0 -69.5 -34t-46.5 -124q-6 -32 -9 -55zM190 121q14 -15 43 -15q41 0 69 34.5t46 124.5q6 28 10 57z" />
    <glyph glyph-name="Scommaaccent" unicode="&#x218;" horiz-adv-x="573" 
d="M142 -349l-47 38q43 41 62 110l-48 8l31 143q29 8 78 8q21 0 40 -2t28 -4l8 -2l-22 -103q-12 -56 -44.5 -105t-59.5 -70zM94 537q20 98 94 146.5t208 48.5q58 0 108.5 -8.5t71.5 -17.5l22 -8q-16 -75 -65 -118q-62 20 -141 20q-126 0 -143 -77q-3 -11 -0.5 -21t11 -18
t17.5 -14t24.5 -13t28 -11.5t32.5 -11.5t33 -12q69 -27 105.5 -86t16.5 -150q-23 -101 -98 -149.5t-211 -48.5q-65 0 -122 12t-82 24l-24 13q15 70 64 122q83 -31 183 -31q115 0 132 77q6 32 -15.5 52t-67.5 37q-18 7 -32 12t-32.5 13.5t-31.5 17t-28.5 20.5t-26 24.5
t-19.5 29.5t-13 35.5t-4 41.5t5 49z" />
    <glyph glyph-name="scommaaccent" unicode="&#x219;" horiz-adv-x="450" 
d="M93 -347l-46 37q43 40 62 108l-48 8l30 140q29 8 77 8q21 0 39.5 -2t26.5 -4l8 -2l-22 -101q-7 -35 -23 -67.5t-33 -54t-33.5 -38.5t-26.5 -25zM55 385q36 155 233 155q49 0 87.5 -8t52.5 -16l15 -7q-13 -69 -57 -103q-48 16 -107 16q-76 0 -85 -44q-2 -10 3 -17.5
t17.5 -13.5t24.5 -10.5t32 -10.5t33 -11q55 -21 77 -60.5t7 -107.5q-17 -81 -75 -119t-164 -38q-52 0 -96 10t-62 20l-18 10q14 66 60 105q59 -23 128 -23q73 0 82 44q-1 8 0 13.5t-6 11t-11 9t-15.5 8t-18.5 6.5t-20.5 6.5t-21.5 7.5q-123 42 -95 167z" />
    <glyph glyph-name="dotlessj" unicode="&#x237;" horiz-adv-x="266" 
d="M-23 -66l125 588q28 8 79 8q21 0 40 -2t27 -4l8 -2l-130 -610q-35 -162 -197 -162q-25 0 -47.5 4t-31.5 8l-10 4q0 16 3 34q5 23 13.5 42t14.5 27l6 8q16 -4 33 -4q55 0 67 61z" />
    <glyph glyph-name="circumflex" unicode="&#x2c6;" horiz-adv-x="396" 
d="M222 752l129 -132q-37 -51 -84 -68l-91 67l-120 -66q-43 18 -54 67l183 132h37z" />
    <glyph glyph-name="caron" unicode="&#x2c7;" horiz-adv-x="404" 
d="M141 538l-129 132q39 52 83 67l93 -66l119 65q40 -16 54 -66l-184 -132h-36z" />
    <glyph glyph-name="breve" unicode="&#x2d8;" horiz-adv-x="324" 
d="M317 663q-8 -8 -22.5 -20.5t-62.5 -33t-100 -20.5q-32 0 -60 7.5t-44 18.5t-27.5 22t-16.5 19l-4 7q28 50 78 69q32 -28 99 -28q30 0 57.5 7t40.5 14l13 7q19 -9 32.5 -28t16.5 -41z" />
    <glyph glyph-name="dotaccent" unicode="&#x2d9;" horiz-adv-x="190" 
d="M166 729l-27 -128q-27 -7 -71 -7q-21 0 -38 2t-24 4l-6 1l27 128q24 7 71 7q20 0 37 -2t24 -4z" />
    <glyph glyph-name="ring" unicode="&#x2da;" horiz-adv-x="344" 
d="M120 483q-62 0 -93.5 35.5t-18.5 96.5t61.5 95t106.5 34q57 0 92.5 -34t22.5 -95q-13 -62 -61.5 -97t-109.5 -35zM200 615q4 20 -6.5 34.5t-35.5 14.5q-24 0 -40.5 -14.5t-20.5 -34.5q-5 -20 5.5 -34.5t34.5 -14.5q25 0 42 14.5t21 34.5z" />
    <glyph glyph-name="ogonek" unicode="&#x2db;" horiz-adv-x="283" 
d="M-8 -157q19 -18 11 -52q-40 -23 -90 -23q-47 0 -73 27t-16 75q12 54 65 87t140 35l15 -20q-108 -32 -119 -86q-5 -23 6.5 -35.5t31.5 -12.5z" />
    <glyph glyph-name="tilde" unicode="&#x2dc;" horiz-adv-x="327" 
d="M227 714q16 0 30 6.5t21 13.5l6 6q19 -10 28 -31.5t7 -44.5q-5 -6 -15 -14.5t-40 -22.5t-59 -14q-35 0 -67 16t-54 16q-15 0 -29.5 -6.5t-21.5 -12.5l-7 -7q-41 24 -35 76q6 6 16 14.5t40.5 22.5t58.5 14q34 0 66 -16t55 -16z" />
    <glyph glyph-name="hungarumlaut" unicode="&#x2dd;" horiz-adv-x="386" 
d="M218 762l-167 -139q-58 8 -76 44l123 147q38 5 74 -11t46 -41zM407 762l-167 -139q-58 9 -75 44l122 147q38 5 74 -11t46 -41z" />
    <glyph glyph-name="pi" unicode="&#x3c0;" horiz-adv-x="634" 
d="M277 526h373q4 -31 -3 -60q-6 -33 -23 -60h-69l-35 -168q-14 -63 -18.5 -116t-2.5 -74l2 -21q-39 -27 -107 -27q-43 0 -57 7q-9 52 28 229l36 170h-131l-84 -397q-30 -9 -80 -9q-23 0 -41.5 2t-25.5 4l-7 3l83 389l-70 -12q-4 24 2 58q8 38 24 62q72 20 206 20z" />
    <glyph glyph-name="uni0401" unicode="&#x401;" horiz-adv-x="559" 
d="M259 896q24 7 68 7q19 0 35 -1.5t22 -3.5l7 -2l-24 -115q-25 -7 -68 -7q-19 0 -35 2t-22 4l-7 1zM456 896q24 7 68 7q19 0 34.5 -1.5t21.5 -3.5l7 -2l-24 -115q-25 -7 -67 -7q-20 0 -36 2t-22 4l-6 1zM159 720h438q4 -27 -2 -58q-7 -36 -24 -64h-278l-37 -174h228
q2 -39 -2 -59q-8 -33 -24 -62h-228l-38 -181h288q4 -30 -3 -60q-9 -39 -23 -62h-448z" />
    <glyph glyph-name="uni0410" unicode="&#x410;" horiz-adv-x="672" 
d="M321 711q40 9 103 9q29 0 54 -2t35 -4l10 -3l79 -702q-30 -9 -86 -9q-23 0 -40.5 2t-23.5 4l-6 3l-16 146h-251l-78 -146q-36 -9 -85 -9q-21 0 -39 2t-25 4l-8 3zM394 570h-4q-18 -54 -52 -117l-97 -181h177l-20 181q-3 28 -4 57.5t0 44.5v15z" />
    <glyph glyph-name="uni0411" unicode="&#x411;" horiz-adv-x="624" 
d="M159 720h455q8 -21 -2 -65q-4 -17 -10 -33t-10 -24l-5 -7h-295l-32 -148h138q106 0 153 -68t25 -171q-21 -100 -91.5 -152t-180.5 -52h-298zM235 326l-44 -209h107q98 0 120 105q22 104 -76 104h-107z" />
    <glyph glyph-name="uni0412" unicode="&#x412;" horiz-adv-x="632" 
d="M159 720h294q96 0 140 -58.5t23 -153.5q-19 -92 -112 -140q42 -20 61 -66.5t6 -104.5q-21 -98 -90.5 -147.5t-176.5 -49.5h-298zM255 423h103q40 0 66 24.5t34 66.5q19 91 -61 91h-103zM190 116h108q93 0 114 96q20 96 -74 96h-108z" />
    <glyph glyph-name="uni0413" unicode="&#x413;" horiz-adv-x="506" 
d="M159 720h412q5 -22 -4 -65q-4 -16 -9.5 -32t-9.5 -24l-4 -8h-252l-124 -582q-33 -9 -83 -9q-22 0 -41 2t-28 4l-8 3z" />
    <glyph glyph-name="uni0414" unicode="&#x414;" horiz-adv-x="720" 
d="M572 122h78l-55 -260q-38 -10 -73 -10q-44 0 -73 10l29 138h-382l-29 -138q-36 -9 -75 -9q-42 0 -71 9l55 260h54q74 43 132 245l102 353h435zM383 606l-69 -245q-45 -156 -105 -239h204l103 484h-133z" />
    <glyph glyph-name="uni0415" unicode="&#x415;" 
d="M159 720h438q4 -27 -2 -58q-7 -36 -24 -64h-278l-36 -172h228q2 -35 -3 -59q-6 -32 -23 -62h-228l-39 -183h288q4 -30 -3 -60q-9 -39 -23 -62h-448z" />
    <glyph glyph-name="uni0416" unicode="&#x416;" horiz-adv-x="932" 
d="M825 711q41 9 84 9t83 -9l-262 -336l144 -366q-38 -9 -95 -9q-25 0 -44.5 2t-26.5 4l-7 3l-113 305h-39l-65 -305q-26 -9 -82 -9q-23 0 -42.5 2t-27.5 4l-8 3l65 305h-29l-242 -305q-36 -9 -92 -9q-25 0 -48 2t-33 4l-10 3l302 384l-123 318q45 9 87 9q40 0 76 -9
l105 -277h32l59 277q31 9 83 9q23 0 42 -2t27 -4l8 -3l-59 -277h31z" />
    <glyph glyph-name="uni0417" unicode="&#x417;" horiz-adv-x="560" 
d="M115 693q91 39 217 39t179.5 -58t31.5 -158q-12 -54 -38 -88.5t-76 -55.5l-1 -4q97 -45 69 -175q-44 -205 -333 -205q-61 0 -111 9.5t-70 19.5l-20 10q13 72 66 115q66 -22 140 -22q150 0 169 93q10 50 -16.5 71t-95.5 21h-81q-5 24 3 62t23 60h81q60 0 90.5 20.5
t40.5 66.5q10 47 -17 68.5t-82 21.5q-36 0 -72 -5t-54 -11l-19 -5q-43 37 -24 110z" />
    <glyph glyph-name="uni0418" unicode="&#x418;" horiz-adv-x="698" 
d="M529 711q32 9 94 9q28 0 51 -2t32 -4l8 -3l-149 -702q-32 -9 -81 -9q-24 0 -43.5 2t-26.5 4l-8 3l50 234q16 77 34.5 147t29.5 102l10 31h-5q-37 -77 -143 -235l-184 -279l-2 -1q-3 0 -7 -1t-10 -2t-14.5 -1.5t-18 -1.5t-21.5 -1.5t-25 -0.5q-31 0 -54 2t-31 4l-8 3
l149 702q32 9 81 9q14 0 27.5 -1t22.5 -2t16 -2.5t11 -2.5l3 -1l-49 -233q-16 -76 -35.5 -148.5t-30.5 -107.5l-11 -34h5q38 78 149 245z" />
    <glyph glyph-name="uni0419" unicode="&#x419;" horiz-adv-x="698" 
d="M478 907q33 0 65.5 9.5t48.5 18.5l15 9q20 -10 33 -33.5t15 -50.5q-3 -3 -9 -8t-26 -18.5t-42 -23.5t-56 -18t-70 -8q-56 0 -98.5 19t-57.5 38l-15 19q12 27 35.5 50t48.5 34q4 -4 12.5 -10t38 -16.5t62.5 -10.5zM529 711q32 9 94 9q28 0 51 -2t32 -4l8 -3l-149 -702
q-32 -9 -81 -9q-24 0 -43.5 2t-26.5 4l-8 3l50 234q16 77 34.5 147t29.5 102l10 31h-5q-37 -77 -143 -235l-184 -279l-2 -1q-3 0 -7 -1t-10 -2t-14.5 -1.5t-18 -1.5t-21.5 -1.5t-25 -0.5q-31 0 -54 2t-31 4l-8 3l149 702q32 9 81 9q14 0 27.5 -1t22.5 -2t16 -2.5t11 -2.5
l3 -1l-49 -233q-16 -76 -35.5 -148.5t-30.5 -107.5l-11 -34h5q38 78 149 245z" />
    <glyph glyph-name="uni041A" unicode="&#x41a;" horiz-adv-x="630" 
d="M296 434l227 277q41 9 85 9q42 0 83 -9l-276 -339l158 -363q-39 -9 -96 -9q-25 0 -44 2t-25 4l-7 3l-121 305h-48l-65 -305q-27 -9 -82 -9q-23 0 -42.5 2t-27.5 4l-8 3l149 702q31 9 83 9q23 0 42 -2t27 -4l8 -3l-59 -277h39z" />
    <glyph glyph-name="uni041B" unicode="&#x41b;" horiz-adv-x="690" 
d="M29 -7q-40 0 -69 11q-5 27 2 56q6 31 22 59q22 -2 41 1q89 16 166 280l93 320h424l-151 -711q-31 -9 -80 -9q-61 0 -78 9l125 589h-132l-56 -200q-117 -405 -307 -405z" />
    <glyph glyph-name="uni041C" unicode="&#x41c;" horiz-adv-x="833" 
d="M647 711q41 9 99 9q54 0 103 -9l-149 -702q-29 -9 -78 -9q-22 0 -41 2t-27 4l-8 3l45 210q44 215 80 317h-6q-38 -78 -137 -234l-97 -153q-22 -7 -59 -7q-16 0 -29 2t-17 4l-5 1q-27 123 -32 147q-35 151 -39 240h-6q0 -83 -47 -301l-48 -226q-28 -9 -73 -9q-20 0 -37 2
t-25 4l-7 3l149 702q72 9 100 9q24 0 47.5 -2t34.5 -4l11 -3l40 -184q27 -126 28 -193h5q21 51 58 114q31 50 92 145.5t75 117.5z" />
    <glyph glyph-name="uni041D" unicode="&#x41d;" horiz-adv-x="685" 
d="M482 434l59 277q33 9 82 9q22 0 41.5 -2t27.5 -4l9 -3l-149 -702q-32 -9 -81 -9q-24 0 -43.5 2t-27.5 4l-8 3l63 295h-225l-63 -295q-34 -9 -82 -9q-24 0 -43.5 2t-27.5 4l-7 3l149 702q32 9 81 9q22 0 42 -2t29 -4l8 -3l-59 -277h225z" />
    <glyph glyph-name="uni041E" unicode="&#x41e;" horiz-adv-x="687" 
d="M57 377q40 186 133.5 270.5t237.5 84.5q142 0 204 -99t21 -289q-40 -189 -132 -272.5t-237 -83.5q-144 0 -205.5 99t-21.5 290zM488 360q16 73 17.5 122.5t-10.5 76t-33 37.5t-54 11q-67 0 -111.5 -53t-74.5 -194q-23 -97 -16 -151.5t30 -74.5t67 -20q67 0 111 53t74 193
z" />
    <glyph glyph-name="uni041F" unicode="&#x41f;" horiz-adv-x="674" 
d="M692 720l-151 -711q-29 -9 -81 -9q-26 0 -45.5 2t-26.5 4l-7 3l124 582h-213l-124 -582q-31 -9 -82 -9q-25 0 -44.5 2t-26.5 4l-7 3l151 711h533z" />
    <glyph glyph-name="uni0420" unicode="&#x420;" horiz-adv-x="605" 
d="M221 261l-53 -252q-31 -9 -82 -9q-24 0 -43.5 2t-26.5 4l-8 3l151 711h277q107 0 155 -67t24 -176q-22 -105 -94.5 -160.5t-182.5 -55.5h-117zM248 385h94q45 0 75 27t40 78q11 51 -7.5 78t-63.5 27h-94z" />
    <glyph glyph-name="uni0421" unicode="&#x421;" horiz-adv-x="566" 
d="M58 378q76 354 389 354q53 0 97 -10t61 -20l17 -9q-10 -63 -69 -110q-50 20 -113 20q-82 0 -136 -54t-83 -190q-28 -135 2.5 -188t113.5 -53q30 0 63 5.5t50 10.5l18 6q38 -42 23 -113q-8 -4 -24 -10.5t-69 -17.5t-110 -11q-151 0 -210 103t-20 287z" />
    <glyph glyph-name="uni0422" unicode="&#x422;" horiz-adv-x="564" 
d="M114 720h512q4 -28 -4 -66q-4 -17 -10 -34t-10 -26l-4 -8h-174l-123 -577q-34 -9 -82 -9q-24 0 -43 2t-26 4l-8 3l123 577h-179q-5 26 4 66q4 18 10 35t10 25z" />
    <glyph glyph-name="uni0423" unicode="&#x423;" horiz-adv-x="622" 
d="M540 711q32 9 80 9q19 0 38 -2t28 -4l10 -3l-295 -518q-111 -193 -283 -193q-21 0 -40.5 3t-29.5 6l-9 3q-6 25 1 60q3 15 8 30.5t8 23.5l4 7q30 -4 58 -4q69 0 128 86h-26l-133 496q34 9 88 9q26 0 47 -2t29 -4l8 -3l60 -247q6 -28 9.5 -55t4.5 -41l1 -13h4
q21 47 59 111z" />
    <glyph glyph-name="uni0424" unicode="&#x424;" horiz-adv-x="815" 
d="M410 664l13 62q30 9 81 9q23 0 43 -2.5t28 -4.5l8 -2l-13 -62q139 0 201.5 -75t29.5 -230q-33 -151 -120.5 -210.5t-232.5 -59.5l-17 -80q-32 -9 -82 -9q-24 0 -43.5 2t-27.5 4l-7 3l17 80q-139 0 -201.5 74.5t-29.5 229.5q32 151 120.5 211t232.5 60zM317 205l72 342
q-69 0 -114 -37.5t-65 -133.5q-21 -97 8.5 -134t98.5 -37zM541 547l-72 -342q68 0 114 37.5t66 133.5q20 97 -9.5 134t-98.5 37z" />
    <glyph glyph-name="uni0425" unicode="&#x425;" horiz-adv-x="642" 
d="M534 711q40 9 93 9q45 0 82 -9l-273 -339l144 -361q-33 -11 -91 -11q-25 0 -44.5 2.5t-26.5 5.5l-6 2l-103 241l-188 -243q-37 -8 -96 -8q-57 0 -89 8l300 374l-125 329q33 9 95 9q24 0 43.5 -2t26.5 -4l7 -3l84 -207z" />
    <glyph glyph-name="uni0426" unicode="&#x426;" horiz-adv-x="713" 
d="M6 0l151 711q29 9 82 9q21 0 40.5 -2t28.5 -4l9 -3l-124 -582h213l124 582q29 9 83 9q22 0 41 -2t28 -4l8 -3l-124 -582h77l-56 -267q-38 -10 -73 -10q-43 0 -73 10l29 138h-464z" />
    <glyph glyph-name="uni0427" unicode="&#x427;" horiz-adv-x="645" 
d="M438 408l64 303q33 9 82 9q22 0 41 -2t27 -4l9 -3l-149 -702q-31 -9 -80 -9q-24 0 -44 2t-28 4l-7 3l57 271q-70 -24 -150 -24q-113 0 -159.5 54.5t-20.5 177.5l47 223q32 9 81 9q22 0 41.5 -2t28.5 -4l8 -3l-47 -221q-12 -59 8.5 -82.5t73.5 -23.5q56 0 117 24z" />
    <glyph glyph-name="uni0428" unicode="&#x428;" horiz-adv-x="961" 
d="M6 0l151 711q29 9 82 9q21 0 40.5 -2t28.5 -4l9 -3l-124 -582h170l124 582q29 9 83 9q22 0 41 -2t27 -4l9 -3l-124 -582h170l124 582q29 9 83 9q22 0 41 -2t27 -4l9 -3l-151 -711h-820z" />
    <glyph glyph-name="uni0429" unicode="&#x429;" horiz-adv-x="1000" 
d="M6 0l151 711q29 9 82 9q21 0 40.5 -2t28.5 -4l9 -3l-124 -582h170l124 582q29 9 83 9q22 0 41 -2t27 -4l9 -3l-124 -582h170l124 582q29 9 83 9q22 0 41 -2t27 -4l9 -3l-124 -582h77l-56 -267q-29 -10 -75 -10q-42 0 -71 10l29 138h-751z" />
    <glyph glyph-name="uni042A" unicode="&#x42a;" horiz-adv-x="718" 
d="M356 447h133q107 0 157 -66t28 -172q-22 -103 -95.5 -156t-184.5 -53h-292l125 586h-142q-5 26 4 66q4 18 10 35t10 25l4 8h301zM330 323l-42 -198h109q93 0 114 99q20 99 -72 99h-109z" />
    <glyph glyph-name="uni042B" unicode="&#x42b;" horiz-adv-x="898" 
d="M157 711q28 9 82 9q23 0 42.5 -2t27.5 -4l8 -3l-56 -264h132q108 0 157 -67.5t23 -172.5q-50 -207 -275 -207h-292zM754 711q33 9 82 9q22 0 41.5 -2t28.5 -4l8 -3l-149 -702q-34 -9 -82 -9q-24 0 -43.5 2t-27.5 4l-7 3zM235 323l-42 -198h109q93 0 114 99q20 99 -72 99
h-109z" />
    <glyph glyph-name="uni042C" unicode="&#x42c;" horiz-adv-x="621" 
d="M261 447h132q107 0 155.5 -64.5t26.5 -170.5q-22 -104 -94.5 -158t-182.5 -54h-292l151 711q28 9 82 9q23 0 42.5 -2t27.5 -4l8 -3zM193 125h109q93 0 114 99q20 99 -72 99h-109z" />
    <glyph glyph-name="uni042D" unicode="&#x42d;" horiz-adv-x="591" 
d="M113 693q83 39 206 39q157 0 217.5 -105.5t20.5 -290.5q-38 -179 -136.5 -263.5t-260.5 -84.5q-57 0 -106.5 9.5t-71.5 19.5l-21 10q16 75 67 114q62 -22 138 -22t129 41t85 145h-239q-5 23 3 62q4 17 9.5 32t9.5 21l4 6h237q10 98 -26 137.5t-109 39.5q-30 0 -63.5 -5
t-51.5 -10l-19 -5q-36 38 -22 110z" />
    <glyph glyph-name="uni042E" unicode="&#x42e;" horiz-adv-x="966" 
d="M8 9l149 702q33 9 82 9q22 0 41.5 -2t27.5 -4l9 -3l-61 -289h92q92 310 360 310q145 0 205.5 -95.5t19.5 -288.5q-40 -189 -132.5 -274.5t-237.5 -85.5q-133 0 -197.5 76.5t-44.5 233.5h-92l-61 -289q-34 -9 -82 -9q-24 0 -43.5 2t-26.5 4zM687 607q-67 0 -111.5 -53
t-74.5 -194q-23 -97 -16 -151.5t30 -74.5t67 -20q67 0 111 53t74 193q16 73 17.5 122.5t-10.5 76t-33 37.5t-54 11z" />
    <glyph glyph-name="uni042F" unicode="&#x42f;" horiz-adv-x="634" 
d="M652 720l-151 -711q-29 -9 -82 -9q-22 0 -41.5 2t-27.5 4l-9 3l55 258h-74l-189 -258q-33 -9 -89 -9q-26 0 -47.5 2t-30.5 4l-8 3l211 282q-52 23 -70.5 86t-2.5 136q45 207 275 207h281zM466 596h-98q-93 0 -115 -103q-22 -102 71 -102h98z" />
    <glyph glyph-name="uni0430" unicode="&#x430;" 
d="M407 530q20 6 69 6q22 0 40.5 -2t25.5 -4l8 -2l-110 -520q-30 -8 -71 -8q-19 0 -36 2t-25 4l-7 2l1 41q-56 -59 -144 -59t-124 70.5t-4 217.5q31 145 91 203.5t153 58.5q85 0 118 -52zM355 336q7 37 -7.5 60t-46.5 23q-43 0 -69 -33t-45 -124q-17 -92 -6 -122t54 -30
q33 0 57.5 23.5t32.5 60.5z" />
    <glyph glyph-name="uni0431" unicode="&#x431;" horiz-adv-x="573" 
d="M54 351q18 86 43 146t54.5 99t76 64t95 38.5t125.5 26.5q32 5 44.5 10.5t24.5 21.5q67 -5 89 -52q-21 -54 -55 -79t-90 -32q-149 -20 -202 -47.5t-83 -114.5h4q65 82 179 82q223 0 168 -262q-56 -262 -298 -262q-47 0 -81.5 9.5t-62 34.5t-40 65.5t-11 103.5t19.5 148z
M316 401q-43 0 -69 -31t-44 -118q-17 -88 -4.5 -118t54.5 -30t68 31.5t45 116.5q16 89 4 119t-54 30z" />
    <glyph glyph-name="uni0432" unicode="&#x432;" horiz-adv-x="517" 
d="M360 530q73 0 104.5 -38.5t17.5 -103.5q-17 -82 -82 -115q71 -36 52 -120q-15 -70 -68 -111.5t-135 -41.5h-259l113 530h257zM209 316h65q49 0 61 58q5 25 -4.5 40.5t-32.5 15.5h-65zM163 100h67q60 0 72 56q13 60 -47 60h-67z" />
    <glyph glyph-name="uni0433" unicode="&#x433;" horiz-adv-x="417" 
d="M103 530h340q4 -25 -3 -61q-4 -16 -9.5 -31t-9.5 -22l-4 -7h-186l-85 -401q-31 -8 -79 -8q-23 0 -41.5 2t-25.5 4l-8 2z" />
    <glyph glyph-name="uni0434" unicode="&#x434;" horiz-adv-x="602" 
d="M-22 110h37q55 27 100 182l69 238h375l-90 -420h63l-49 -230q-22 -8 -67 -8q-50 0 -77 8l26 120h-266l-26 -120q-26 -8 -73 -8q-54 0 -71 8zM290 417l-39 -135q-30 -103 -74 -172h139l66 307h-92z" />
    <glyph glyph-name="uni0435" unicode="&#x435;" horiz-adv-x="509" 
d="M452 219h-278q-9 -58 14 -80.5t72 -22.5q28 0 55.5 6t41.5 12l14 6q15 -17 22.5 -46.5t1.5 -58.5q-7 -5 -20 -12.5t-59 -20t-98 -12.5q-123 0 -171 74t-19 214q30 138 102.5 200t185.5 62q91 0 140.5 -56.5t27.5 -159.5q-6 -29 -14 -55.5t-13 -38.5zM344 346
q16 82 -47 82q-69 0 -104 -113h142q6 20 9 31z" />
    <glyph glyph-name="uni0436" unicode="&#x436;" horiz-adv-x="778" 
d="M642 522q31 8 80 8q21 0 40 -2t28 -4l9 -2l-166 -236l79 -277q-30 -9 -87 -9q-22 0 -40 2t-25 4l-6 2l-60 213h-45l-45 -213q-29 -8 -78 -8q-22 0 -41 2t-27 4l-8 2l45 213h-38l-149 -213q-34 -8 -84 -8q-25 0 -45.5 2t-28.5 4l-8 3l197 277l-66 236q34 8 83 8
q22 0 38.5 -2t21.5 -4l6 -2l52 -190h45l40 190q31 8 80 8q20 0 38.5 -2t26.5 -4l9 -2l-40 -190h39z" />
    <glyph glyph-name="uni0437" unicode="&#x437;" horiz-adv-x="466" 
d="M74 510q62 30 184 30q108 0 150.5 -38.5t27.5 -112.5q-18 -86 -86 -116l-1 -3q69 -29 50 -119q-35 -161 -265 -161q-49 0 -92 9t-62 18l-19 9q16 64 60 100q47 -19 123 -19q90 0 101 54q6 29 -10 40.5t-58 11.5h-79q-4 23 3 57q3 15 8 27.5t9 18.5l3 5h79q69 0 79 53
q6 30 -12.5 41.5t-57.5 11.5q-29 0 -58.5 -4t-44.5 -8l-16 -4q-27 34 -16 99z" />
    <glyph glyph-name="uni0438" unicode="&#x438;" horiz-adv-x="575" 
d="M411 522q34 8 80 8q21 0 40 -2t27 -4l8 -2l-109 -514q-29 -8 -76 -8q-24 0 -43.5 2t-27.5 4l-7 2l28 131q11 54 25.5 106.5t23.5 79.5t11 28h-4q3 -1 -35.5 -58t-89.5 -129l-117 -158q-31 -8 -80 -8q-21 0 -39.5 2t-26.5 4l-8 2l109 514q31 8 77 8q22 0 41 -2t28 -4l8 -2
l-28 -133q-10 -44 -24.5 -97t-25 -84.5t-11.5 -31.5h4q39 71 81 131z" />
    <glyph glyph-name="uni0439" unicode="&#x439;" horiz-adv-x="575" 
d="M411 522q34 8 80 8q21 0 40 -2t27 -4l8 -2l-109 -514q-29 -8 -76 -8q-24 0 -43.5 2t-27.5 4l-7 2l28 131q11 54 25.5 106.5t23.5 79.5t11 28h-4q3 -1 -35.5 -58t-89.5 -129l-117 -158q-31 -8 -80 -8q-21 0 -39.5 2t-26.5 4l-8 2l109 514q31 8 77 8q22 0 41 -2t28 -4l8 -2
l-28 -133q-10 -44 -24.5 -97t-25 -84.5t-11.5 -31.5h4q39 71 81 131zM547 663q-8 -8 -22 -19.5t-62 -31t-100 -19.5q-32 0 -60 7t-44.5 17.5t-28 21t-16.5 17.5l-4 7q27 49 76 68q34 -27 101 -27q30 0 57.5 7t40.5 13l13 7q42 -19 49 -68z" />
    <glyph glyph-name="uni043A" unicode="&#x43a;" horiz-adv-x="519" 
d="M249 332l131 190q35 8 84 8q20 0 39.5 -2t28.5 -4l9 -2l-179 -250l93 -264q-36 -9 -88 -9q-22 0 -40 2t-25 5l-7 2l-69 213h-35l-45 -213q-29 -8 -78 -8q-22 0 -41 2t-27 4l-8 2l109 515q31 6 79 6q20 0 38.5 -1.5t27.5 -3.5l9 -1l-40 -191h34z" />
    <glyph glyph-name="uni043B" unicode="&#x43b;" horiz-adv-x="567" 
d="M266 290q-36 -123 -73 -188t-76 -86.5t-100 -21.5q-15 0 -30 2.5t-22 5.5l-7 2q-4 18 2 48q3 13 8.5 26t9.5 20l4 7q19 -3 38 1q55 11 106 188l69 236h365l-111 -522q-34 -8 -77 -8q-22 0 -41 2t-27 4l-8 2l87 409h-79z" />
    <glyph glyph-name="uni043C" unicode="&#x43c;" horiz-adv-x="667" 
d="M493 522q36 8 85 8q20 0 40 -2t30 -4l10 -2l-109 -514q-27 -8 -74 -8q-20 0 -38 2t-25 4l-8 2l31 147q11 51 26 100.5t25 72.5l9 24h-6q-19 -41 -63 -107l-100 -148q-15 -5 -40 -5l-40 5l-38 139q-7 30 -11.5 59t-5.5 43l-1 13h-6q0 -83 -24 -197l-31 -146q-30 -8 -70 -8
q-18 0 -35 2t-24 4l-8 2l109 514q37 8 85 8q21 0 40 -2t28 -4l8 -2l47 -172q11 -42 14 -87h3q16 36 49 87z" />
    <glyph glyph-name="uni043D" unicode="&#x43d;" 
d="M188 211l-43 -203q-29 -8 -80 -8q-22 0 -40.5 2t-26.5 4l-7 2l109 514q29 8 79 8q21 0 39.5 -2t27.5 -4l8 -2l-41 -192h141l41 192q33 8 79 8q20 0 39 -2t27 -4l9 -2l-109 -514q-27 -8 -80 -8q-22 0 -40.5 2t-25.5 4l-8 2l43 203h-141z" />
    <glyph glyph-name="uni043E" unicode="&#x43e;" horiz-adv-x="550" 
d="M29 279q31 143 103 202t189 59q115 0 164.5 -70.5t18.5 -215.5q-30 -143 -102.5 -203.5t-188.5 -60.5q-114 0 -164.5 72t-19.5 217zM348 265q17 95 5.5 126.5t-52.5 31.5q-42 0 -69.5 -34t-46.5 -124q-17 -95 -5 -127t53 -32t69 34.5t46 124.5z" />
    <glyph glyph-name="uni043F" unicode="&#x43f;" horiz-adv-x="553" 
d="M231 408l-85 -400q-36 -8 -80 -8q-20 0 -38.5 2t-27.5 4l-8 2l111 522h442l-111 -522q-33 -8 -80 -8q-20 0 -38.5 2t-27.5 4l-8 2l85 400h-134z" />
    <glyph glyph-name="uni0440" unicode="&#x440;" horiz-adv-x="561" 
d="M248 489q54 51 141 51q185 0 125 -284q-30 -145 -91.5 -205.5t-151.5 -60.5q-86 0 -118 51l-55 -257q-31 -8 -80 -8q-22 0 -40.5 2t-25.5 4l-8 2l157 738q29 8 78 8q22 0 41 -2t27 -4l8 -2zM353 265q17 95 6 124.5t-53 29.5q-33 0 -57.5 -24t-34.5 -64l-27 -127
q-9 -40 4.5 -67t48.5 -27q41 0 67 31.5t46 123.5z" />
    <glyph glyph-name="uni0441" unicode="&#x441;" horiz-adv-x="446" 
d="M322 418q-57 0 -88.5 -36t-48.5 -118q-17 -80 1 -114t76 -34q21 0 42.5 4t31.5 8l11 3q31 -37 21 -106q-57 -35 -167 -35q-233 0 -175 273q59 277 292 277q46 0 82 -8t48 -16l13 -7q-15 -64 -66 -105q-28 14 -73 14z" />
    <glyph glyph-name="uni0442" unicode="&#x442;" horiz-adv-x="477" 
d="M71 530h433q5 -24 -4 -62q-3 -16 -9 -31.5t-10 -22.5l-4 -7h-139l-84 -399q-30 -8 -79 -8q-23 0 -42 2t-26 4l-7 2l84 399h-140q-5 24 2 61q4 17 10.5 32.5t10.5 22.5z" />
    <glyph glyph-name="uni0443" unicode="&#x443;" horiz-adv-x="548" 
d="M385 522q29 8 79 8q23 0 41.5 -2t26.5 -4l7 -2l-106 -496q-30 -144 -108.5 -210t-208.5 -66q-50 0 -92 10t-60 20l-17 11q16 62 60 99q45 -23 106 -23q47 0 74 8.5t51.5 42.5t40.5 101l3 12q-59 -41 -134 -41q-81 0 -111.5 47.5t-14.5 127.5l76 357q28 8 79 8q23 0 42 -2
t26 -4l7 -2l-75 -352q-13 -60 50 -60q39 0 76 28z" />
    <glyph glyph-name="uni0444" unicode="&#x444;" horiz-adv-x="787" 
d="M410 742q27 8 78 8q21 0 40 -2t28 -4l8 -2l-47 -220q38 18 92 18q192 0 130 -288q-29 -136 -87.5 -199t-159.5 -63q-23 0 -44 5t-30 11l-10 5l-53 -253q-31 -8 -79 -8q-23 0 -41.5 2t-26.5 4l-7 2l53 253q-40 -21 -92 -21q-192 0 -131 288q30 136 88.5 199t159.5 63
q24 0 45 -4.5t30 -9.5l9 -4zM347 413l-5 3q-6 3 -20 6.5t-32 3.5q-40 0 -66 -35t-45 -126q-18 -96 -8 -128t50 -32q16 0 32 4t24 8l8 4zM590 265q18 96 8 128.5t-49 32.5q-18 0 -33.5 -3.5t-22.5 -6.5l-7 -3l-62 -292q20 -16 56 -16q40 0 65.5 34t44.5 126z" />
    <glyph glyph-name="uni0445" unicode="&#x445;" horiz-adv-x="552" 
d="M179 275l-100 247q36 8 86 8q24 0 42 -2t25 -4l6 -2l59 -137l114 137q37 8 83 8q21 0 41 -2t29 -4l9 -2l-212 -252l117 -262q-37 -8 -87 -8q-24 0 -42 2t-25 4l-6 2l-72 156l-129 -156q-43 -8 -87 -8q-21 0 -40.5 2t-27.5 4l-9 2z" />
    <glyph glyph-name="uni0446" unicode="&#x446;" horiz-adv-x="588" 
d="M388 522q31 8 78 8q20 0 39 -2t28 -4l9 -2l-85 -400h63l-52 -242q-24 -8 -69 -8q-56 0 -75 8l26 120h-360l111 522q30 8 78 8q24 0 43 -2t26 -4l7 -2l-85 -400h133z" />
    <glyph glyph-name="uni0447" unicode="&#x447;" horiz-adv-x="529" 
d="M520 522l-109 -514q-30 -8 -80 -8q-21 0 -39.5 2t-26.5 4l-8 2l38 179q-35 -11 -98 -11q-94 0 -134.5 41.5t-20.5 134.5l36 170q32 8 78 8q20 0 39 -2t28 -4l9 -2l-36 -171q-14 -59 54 -59q19 0 36.5 2.5t25.5 5.5l7 2l47 220q31 8 78 8q22 0 41 -2t27 -4z" />
    <glyph glyph-name="uni0448" unicode="&#x448;" horiz-adv-x="762" 
d="M-10 0l111 522q27 8 78 8q22 0 41 -2t27 -4l8 -2l-85 -400h95l85 400q27 8 78 8q22 0 41 -2t27 -4l8 -2l-85 -400h95l85 400q27 8 78 8q22 0 41 -2t27 -4l8 -2l-111 -522h-652z" />
    <glyph glyph-name="uni0449" unicode="&#x449;" horiz-adv-x="799" 
d="M731 122l-52 -242q-32 -8 -73 -8q-46 0 -71 8l26 120h-571l111 522q27 8 78 8q22 0 41 -2t27 -4l8 -2l-85 -400h95l85 400q27 8 78 8q22 0 41 -2t27 -4l8 -2l-85 -400h95l85 400q27 8 78 8q22 0 41 -2t27 -4l8 -2l-85 -400h63z" />
    <glyph glyph-name="uni044A" unicode="&#x44a;" horiz-adv-x="583" 
d="M295 331h96q83 0 120 -49t20 -128q-33 -154 -210 -154h-250l86 407h-113q-6 27 2 63q7 36 25 60h267zM247 103h65q57 0 70 63q6 29 -5.5 45.5t-38.5 16.5h-65z" />
    <glyph glyph-name="uni044B" unicode="&#x44b;" horiz-adv-x="749" 
d="M101 522q34 8 78 8q46 0 76 -8l-41 -191h96q83 0 120 -47.5t20 -126.5q-16 -77 -70.5 -117t-139.5 -40h-250zM586 522q34 8 79 8q43 0 75 -8l-109 -514q-32 -8 -80 -8q-49 0 -74 8zM192 228l-26 -125h65q58 0 71 63q6 29 -6 45.5t-39 16.5h-65z" />
    <glyph glyph-name="uni044C" unicode="&#x44c;" horiz-adv-x="502" 
d="M214 331h96q83 0 119.5 -48t19.5 -127q-16 -77 -70 -116.5t-139 -39.5h-250l111 522q30 8 78 8q49 0 76 -8zM166 103h65q58 0 71 63q6 29 -6 45.5t-39 16.5h-65z" />
    <glyph glyph-name="uni044D" unicode="&#x44d;" horiz-adv-x="465" 
d="M251 213h-169q-5 20 3 54q3 16 8 29.5t9 19.5l3 6h168q6 102 -87 102q-24 0 -47.5 -3.5t-35.5 -6.5l-12 -4q-29 36 -17 100q64 30 171 30q116 0 159.5 -75t13.5 -215q-29 -136 -100.5 -198t-191.5 -62q-49 0 -90.5 8.5t-57.5 17.5l-17 9q17 64 60 101q41 -17 96 -17
q98 0 134 104z" />
    <glyph glyph-name="uni044E" unicode="&#x44e;" horiz-adv-x="789" 
d="M280 323q71 217 285 217q114 0 161.5 -72t16.5 -217q-30 -142 -103.5 -201.5t-191.5 -59.5q-212 0 -194 210h-68l-40 -192q-30 -8 -80 -8q-47 0 -74 8l109 514q30 8 79 8q48 0 75 -8l-42 -199h67zM587 265q18 95 6.5 126.5t-53.5 31.5t-69.5 -34t-46.5 -124
q-17 -95 -5 -127t53 -32q42 0 69 34.5t46 124.5z" />
    <glyph glyph-name="uni044F" unicode="&#x44f;" horiz-adv-x="526" 
d="M243 186l-128 -178q-34 -8 -82 -8q-45 0 -80 8l151 201q-67 43 -43 157q17 77 72 120.5t140 43.5h245l-111 -522q-31 -8 -78 -8q-52 0 -76 8l37 178h-47zM281 425q-58 0 -72 -68q-7 -32 4 -50t39 -18h61l30 136h-62z" />
    <glyph glyph-name="uni0451" unicode="&#x451;" horiz-adv-x="509" 
d="M171 715q23 7 67 7q19 0 35.5 -2t22.5 -4l7 -1l-24 -114q-25 -7 -68 -7q-19 0 -35 2t-22 4l-7 1zM368 715q23 7 67 7q19 0 35 -2t23 -4l7 -1l-24 -114q-26 -7 -68 -7q-20 0 -36 2t-22 4l-6 1zM452 219h-278q-9 -58 14 -80.5t72 -22.5q28 0 55.5 6t41.5 12l14 6
q15 -17 22.5 -46.5t1.5 -58.5q-7 -5 -20 -12.5t-59 -20t-98 -12.5q-123 0 -171 74t-19 214q30 138 102.5 200t185.5 62q91 0 140.5 -56.5t27.5 -159.5q-6 -29 -14 -55.5t-13 -38.5zM344 346q16 82 -47 82q-69 0 -104 -113h142q6 20 9 31z" />
    <glyph glyph-name="Wgrave" unicode="&#x1e80;" horiz-adv-x="984" 
d="M578 749l-107 139q21 25 63.5 41t78.5 11l60 -147q-32 -34 -95 -44zM532 9l4 383q1 48 5 93t8 66l4 21h-5q-18 -73 -62 -180l-159 -383q-43 -9 -107 -9q-60 0 -98 9l-22 702q31 9 83 9q22 0 40.5 -2t25.5 -4l7 -3l12 -400q0 -35 -2 -75t-4 -62l-1 -23h4q25 80 58 159
l168 401q31 9 93 9q28 0 51 -2t31 -4l9 -3l-3 -400q0 -37 -3 -77t-6 -62l-3 -21h4q23 72 62 159l183 401q29 9 74 9q20 0 38 -2t26 -4l8 -3l-322 -702q-38 -9 -100 -9q-28 0 -53.5 2t-36.5 4z" />
    <glyph glyph-name="wgrave" unicode="&#x1e81;" horiz-adv-x="796" 
d="M440 595l-107 140q21 25 64 40.5t78 11.5l60 -148q-32 -34 -95 -44zM407 8l-5 197q-3 85 16 184h-4q-27 -104 -62 -184l-89 -197q-41 -8 -92 -8q-56 0 -92 8l-24 514q31 8 78 8q22 0 38 -2t21 -4l5 -2l13 -234q3 -67 -7 -145h3q30 89 56 146l107 233q39 8 84 8
q21 0 39.5 -2t26.5 -4l8 -2l6 -233q1 -68 -8 -146h3q22 68 57 146l112 233q26 8 69 8q20 0 36 -2t22 -4l6 -2l-240 -514q-40 -8 -94 -8t-89 8z" />
    <glyph glyph-name="Wacute" unicode="&#x1e82;" horiz-adv-x="984" 
d="M751 890l-167 -140q-57 10 -75 44l122 148q38 4 74 -11.5t46 -40.5zM532 9l4 383q1 48 5 93t8 66l4 21h-5q-18 -73 -62 -180l-159 -383q-43 -9 -107 -9q-60 0 -98 9l-22 702q31 9 83 9q22 0 40.5 -2t25.5 -4l7 -3l12 -400q0 -35 -2 -75t-4 -62l-1 -23h4q25 80 58 159
l168 401q31 9 93 9q28 0 51 -2t31 -4l9 -3l-3 -400q0 -37 -3 -77t-6 -62l-3 -21h4q23 72 62 159l183 401q29 9 74 9q20 0 38 -2t26 -4l8 -3l-322 -702q-38 -9 -100 -9q-28 0 -53.5 2t-36.5 4z" />
    <glyph glyph-name="wacute" unicode="&#x1e83;" horiz-adv-x="796" 
d="M605 734l-167 -139q-59 11 -75 44l122 147q38 5 74 -11t46 -41zM407 8l-5 197q-2 76 16 184h-4q-27 -104 -62 -184l-89 -197q-40 -8 -92 -8q-55 0 -92 8l-23 514q30 8 77 8q22 0 38.5 -2t21.5 -4l5 -2l12 -234q2 -60 -6 -145h3q23 73 55 146l108 233q38 8 83 8
q21 0 39.5 -2t26.5 -4l8 -2l6 -233q2 -60 -8 -146h3q24 71 57 146l112 233q26 8 69 8q20 0 36 -2t22 -4l6 -2l-240 -514q-40 -8 -93 -8q-54 0 -90 8z" />
    <glyph glyph-name="Wdieresis" unicode="&#x1e84;" horiz-adv-x="984" 
d="M586 888l-25 -115q-25 -7 -67 -7q-20 0 -36 2t-22 4l-7 1l25 115q23 7 67 7q19 0 35 -1.5t23 -3.5zM786 888l-25 -115q-24 -7 -66 -7q-20 0 -36 2t-23 4l-6 1l25 115q23 7 67 7q19 0 35 -1.5t23 -3.5zM532 9l4 383q1 48 5 93t8 66l4 21h-5q-18 -73 -62 -180l-159 -383
q-43 -9 -107 -9q-60 0 -98 9l-22 702q31 9 83 9q22 0 40.5 -2t25.5 -4l7 -3l12 -400q0 -35 -2 -75t-4 -62l-1 -23h4q25 80 58 159l168 401q31 9 93 9q28 0 51 -2t31 -4l9 -3l-3 -400q0 -37 -3 -77t-6 -62l-3 -21h4q23 72 62 159l183 401q29 9 74 9q20 0 38 -2t26 -4l8 -3
l-322 -702q-38 -9 -100 -9q-28 0 -53.5 2t-36.5 4z" />
    <glyph glyph-name="wdieresis" unicode="&#x1e85;" horiz-adv-x="796" 
d="M460 717l-24 -115q-25 -7 -68 -7q-19 0 -35 1.5t-23 3.5l-6 2l24 115q24 7 68 7q19 0 35 -2t23 -4zM657 717l-24 -115q-26 -7 -68 -7q-20 0 -36 1.5t-22 3.5l-6 2l24 115q24 7 68 7q19 0 35 -2t22 -4zM407 8l-5 197q-2 76 16 184h-4q-27 -104 -62 -184l-89 -197
q-40 -8 -92 -8q-55 0 -92 8l-23 514q30 8 77 8q22 0 38.5 -2t21.5 -4l5 -2l12 -234q2 -60 -6 -145h3q23 73 55 146l108 233q38 8 83 8q21 0 39.5 -2t26.5 -4l8 -2l6 -233q2 -60 -8 -146h3q24 71 57 146l112 233q26 8 69 8q20 0 36 -2t22 -4l6 -2l-240 -514q-40 -8 -93 -8
q-54 0 -90 8z" />
    <glyph glyph-name="Ygrave" unicode="&#x1ef2;" horiz-adv-x="648" 
d="M436 940l60 -147q-32 -34 -95 -44l-107 139q21 25 63.5 41t78.5 11zM554 711q43 9 94 9q23 0 44 -2t30 -4l10 -3l-333 -426l-59 -276q-29 -9 -80 -9q-25 0 -45 2t-27 4l-7 3l58 275l-146 427q35 9 97 9q24 0 43 -2t26 -4l7 -3l88 -261z" />
    <glyph glyph-name="ygrave" unicode="&#x1ef3;" horiz-adv-x="548" 
d="M330 587l-105 137q20 24 62 39.5t77 11.5l59 -145q-33 -33 -93 -43zM385 522q29 8 79 8q23 0 41.5 -2t26.5 -4l7 -2l-106 -496q-30 -144 -108.5 -210t-208.5 -66q-50 0 -92 10t-60 20l-17 11q16 62 60 99q45 -23 106 -23q47 0 74 8.5t51.5 42.5t40.5 101l3 12
q-59 -41 -134 -41q-81 0 -111.5 47.5t-14.5 127.5l76 357q28 8 79 8q23 0 42 -2t26 -4l7 -2l-75 -352q-13 -60 50 -60q39 0 76 28z" />
    <glyph glyph-name="endash" unicode="&#x2013;" horiz-adv-x="555" 
d="M476 235h-427q-3 21 5 55q3 15 7.5 29t7.5 20l3 6h427q3 -21 -4 -55q-4 -15 -8.5 -29t-7.5 -20z" />
    <glyph glyph-name="emdash" unicode="&#x2014;" horiz-adv-x="805" 
d="M726 235h-677q-3 21 5 55q3 15 7.5 29t7.5 20l3 6h677q3 -21 -4 -55q-4 -15 -8.5 -29t-7.5 -20z" />
    <glyph glyph-name="quoteleft" unicode="&#x2018;" horiz-adv-x="246" 
d="M221 720l47 -37q-43 -41 -62 -111l48 -7l-30 -143q-28 -8 -79 -8q-21 0 -40 2t-27 4l-8 2l22 103q12 56 44 104.5t58 69.5z" />
    <glyph glyph-name="quoteright" unicode="&#x2019;" horiz-adv-x="237" 
d="M131 414l-47 37q43 40 62 110l-48 8l30 143q28 8 79 8q21 0 40 -2t27 -4l8 -2l-22 -103q-12 -56 -44 -104.5t-58 -69.5z" />
    <glyph glyph-name="quotesinglbase" unicode="&#x201a;" horiz-adv-x="254" 
d="M21 -148l-47 38q43 41 62 110l-48 8l30 143q28 8 79 8q21 0 40 -2t27 -4l8 -2l-22 -103q-8 -36 -24 -69t-33.5 -55t-34 -39t-26.5 -25z" />
    <glyph glyph-name="quotedblleft" unicode="&#x201c;" horiz-adv-x="433" 
d="M221 720l47 -37q-43 -41 -62 -111l48 -7l-30 -143q-28 -8 -79 -8q-21 0 -40 2t-27 4l-8 2l22 103q12 56 44 104.5t58 69.5zM408 720l46 -37q-43 -41 -62 -111l49 -7l-30 -143q-28 -8 -79 -8q-21 0 -40 2t-27 4l-8 2l22 103q12 56 44 104.5t59 69.5z" />
    <glyph glyph-name="quotedblright" unicode="&#x201d;" horiz-adv-x="424" 
d="M131 414l-47 37q43 40 62 110l-48 8l30 143q28 8 79 8q21 0 40 -2t27 -4l8 -2l-22 -103q-12 -56 -44 -104.5t-58 -69.5zM318 414l-47 37q42 40 61 110l-47 8l30 143q28 8 79 8q21 0 40 -2t27 -4l8 -2l-22 -103q-7 -35 -23 -68t-33.5 -55t-34 -39t-27.5 -25z" />
    <glyph glyph-name="quotedblbase" unicode="&#x201e;" horiz-adv-x="441" 
d="M21 -148l-47 38q43 41 62 110l-48 8l30 143q28 8 79 8q21 0 40 -2t27 -4l8 -2l-22 -103q-8 -36 -24 -69t-33.5 -55t-34 -39t-26.5 -25zM208 -148l-47 38q42 41 61 110l-47 8l30 143q28 8 79 8q21 0 40 -2t27 -4l8 -2l-22 -103q-12 -56 -44.5 -105t-58.5 -70z" />
    <glyph glyph-name="dagger" unicode="&#x2020;" horiz-adv-x="566" 
d="M196 -135l-57 34l115 505l-207 -7q1 26 7 56l17 55l203 -7l36 199q30 5 64 5l61 -5l-50 -199l195 7q1 -24 -6 -55q-3 -14 -7.5 -28t-7.5 -21l-3 -7l-191 7l-101 -505z" />
    <glyph glyph-name="daggerdbl" unicode="&#x2021;" horiz-adv-x="623" 
d="M341 175l207 7q-1 -25 -7 -56q-3 -15 -7.5 -29t-7.5 -20l-2 -6l-203 7l-36 -199q-30 -5 -64 -5l-61 5l50 199l-206 -7q-1 25 6 55l18 56l202 -7l17 114l32 115l-207 -7q1 26 7 56q3 15 7.5 29t7.5 20l2 6l203 -7l36 199q30 5 64 5l61 -5l-50 -199l206 7q1 -24 -6 -55
q-3 -14 -7.5 -28t-7.5 -21l-3 -7l-202 7l-18 -115z" />
    <glyph glyph-name="bullet" unicode="&#x2022;" horiz-adv-x="364" 
d="M296 282q-11 -52 -51.5 -84t-91.5 -32q-52 0 -79 32t-16 84q11 53 52 85.5t93 32.5q51 0 77.5 -32.5t15.5 -85.5z" />
    <glyph glyph-name="ellipsis" unicode="&#x2026;" horiz-adv-x="713" 
d="M172 151l-30 -143q-29 -8 -79 -8q-23 0 -42 2t-26 4l-7 2l30 143q27 8 79 8q22 0 41 -2t26 -4zM402 151l-30 -143q-29 -8 -79 -8q-23 0 -41.5 2t-25.5 4l-8 2l30 143q27 8 79 8q22 0 41 -2t26 -4zM631 151l-30 -143q-29 -8 -79 -8q-23 0 -42 2t-26 4l-7 2l30 143
q27 8 79 8q22 0 41 -2t27 -4z" />
    <glyph glyph-name="perthousand" unicode="&#x2030;" horiz-adv-x="1101" 
d="M719 695l-534 -698q-20 -7 -59 -7q-17 0 -31 2t-19 4l-6 1l534 698q19 7 58 7q17 0 31 -2t20 -4zM181 344q-147 0 -110 174q36 174 184 174t111 -174t-185 -174zM238 612q-22 0 -35 -18.5t-25 -75.5q-11 -61 -6 -76.5t27 -15.5q21 0 34 17.5t25 74.5q11 60 6 77t-26 17z
M524 -10q-147 0 -110 174q36 174 184 174t111 -174t-185 -174zM861 -10q-147 0 -110 174q36 174 184 174t111 -174t-185 -174zM581 258q-22 0 -35 -18.5t-25 -75.5q-11 -61 -6.5 -76.5t26.5 -15.5t35 17.5t25 74.5q11 60 6 77t-26 17zM918 258q-22 0 -35 -18.5t-25 -75.5
q-11 -61 -6.5 -76.5t26.5 -15.5t35 17.5t25 74.5q11 60 6 77t-26 17z" />
    <glyph glyph-name="guilsinglleft" unicode="&#x2039;" horiz-adv-x="337" 
d="M46 329l254 185q28 -33 25 -92l-167 -153l102 -152q-22 -58 -64 -92l-176 182q-5 21 3 58q4 18 9.5 34t9.5 23z" />
    <glyph glyph-name="guilsinglright" unicode="&#x203a;" horiz-adv-x="337" 
d="M125 514l176 -185q4 -24 -5 -64q-4 -16 -9 -30.5t-9 -20.5l-3 -7l-254 -182q-29 35 -24 92l166 152l-101 153q18 57 63 92z" />
    <glyph glyph-name="fraction" unicode="&#x2044;" horiz-adv-x="147" 
d="M-245 -3l535 698q19 7 58 7q17 0 31.5 -2t20.5 -4l5 -1l-536 -698q-23 -7 -58 -7q-15 0 -29 2t-20 4z" />
    <glyph glyph-name="zeroinferior" unicode="&#x2080;" horiz-adv-x="348" 
d="M87 -101q-146 0 -109 177q37 176 185 176t110 -176q-37 -177 -186 -177zM146 173q-21 0 -35 -20t-26 -77q-11 -61 -6.5 -78.5t26.5 -17.5q21 0 34.5 19.5t25.5 76.5q11 59 6.5 78t-25.5 19z" />
    <glyph glyph-name="oneinferior" unicode="&#x2081;" horiz-adv-x="257" 
d="M-15 185q67 16 112 57q18 5 52 5q25 0 47 -5l-70 -333q-27 -5 -49 -5q-34 0 -54 5l38 181q5 26 10 44q-34 -21 -77 -26q-23 30 -9 77z" />
    <glyph glyph-name="twoinferior" unicode="&#x2082;" horiz-adv-x="304" 
d="M-54 -48q9 45 40.5 77t63.5 45t60.5 30t32.5 37q4 16 -8.5 23.5t-34.5 7.5q-28 1 -67 -9q-21 29 -6 72q51 17 111 17q59 0 89 -25.5t19 -76.5q-10 -48 -43.5 -74.5t-80.5 -47t-68 -41.5h140q3 -18 -2 -42q-5 -22 -15 -41h-236q-1 20 5 48z" />
    <glyph glyph-name="threeinferior" unicode="&#x2083;" horiz-adv-x="304" 
d="M213 1q-21 -102 -168 -102q-32 0 -58.5 5.5t-36.5 11.5l-11 5q10 43 39 66q31 -11 69 -11q57 0 66 36q4 18 -5 26t-35 8h-48q-6 35 15 74h48q37 0 43 26q3 16 -6.5 23t-33.5 7q-16 0 -33 -2t-26 -4l-9 -3q-19 21 -11 66q49 19 110 19q66 0 95 -24t20 -69q-12 -54 -60 -74
q50 -22 36 -84z" />
    <glyph glyph-name="fourinferior" unicode="&#x2084;" horiz-adv-x="333" 
d="M214 46h37q1 -18 -3 -36q-1 -9 -12 -34h-37l-14 -67q-22 -5 -46 -5t-43 5l14 67h-161q-1 15 2 34q3 16 10 30l199 201q24 6 49 6q27 0 46 -6zM143 134l-85 -88h67z" />
    <glyph glyph-name="fiveinferior" unicode="&#x2085;" horiz-adv-x="306" 
d="M111 167l-7 -37q139 0 115 -115q-24 -116 -175 -116q-31 0 -57 5.5t-37 11.5l-10 5q7 43 39 69q31 -11 69 -11q59 0 66 37q5 21 -6.5 29t-43.5 8h-72l41 194h216q5 -40 -17 -80h-121z" />
    <glyph glyph-name="sixinferior" unicode="&#x2086;" horiz-adv-x="315" 
d="M-32 38q42 196 267 212q5 -14 0.5 -36t-16.5 -38q-79 -6 -116 -56q16 3 36 3q51 0 78 -27t15 -83t-53.5 -85t-105.5 -29q-134 0 -105 139zM131 13q8 41 -26 41q-5 0 -32 -3q-19 -81 16 -81q33 0 42 43z" />
    <glyph glyph-name="seveninferior" unicode="&#x2087;" horiz-adv-x="291" 
d="M135 163h-139q-3 39 17 84h245q1 -20 -3 -40q-7 -34 -28.5 -64t-47 -53.5t-51 -48.5t-46 -59t-27.5 -74q-57 -9 -100 0q12 53 35 93t45 60.5t52.5 49t47.5 52.5z" />
    <glyph glyph-name="eightinferior" unicode="&#x2088;" horiz-adv-x="327" 
d="M3 157q10 45 49 70t101 25q59 0 87 -23.5t19 -65.5q-11 -50 -59 -77q49 -29 37 -86q-11 -48 -52 -74.5t-109 -26.5q-65 0 -95.5 24.5t-20.5 71.5q12 55 71 82q-39 26 -28 80zM166 156q7 28 -28 28q-32 0 -37 -25q-3 -13 8 -23t33 -17q20 13 24 37zM140 -1q-1 6 0.5 9.5
t-3.5 8t-6.5 6.5t-8.5 6t-10 5.5l-11 5.5t-11 5q-28 -17 -33 -42q-4 -16 5.5 -24.5t31.5 -8.5q40 0 46 29z" />
    <glyph glyph-name="nineinferior" unicode="&#x2089;" horiz-adv-x="315" 
d="M-15 138q12 56 53.5 85t105.5 29q134 0 105 -139q-42 -196 -267 -212q-5 14 -0.5 36t16.5 38q80 6 115 56q-15 -3 -35 -3q-51 0 -78 27t-15 83zM144 100q18 81 -16 81q-33 0 -42 -43q-8 -41 26 -41q18 0 32 3z" />
    <glyph glyph-name="Euro" unicode="&#x20ac;" horiz-adv-x="592" 
d="M151 461q93 219 316 219q47 0 86.5 -9t54.5 -18l16 -9q-14 -66 -66 -101q-44 19 -99 19q-103 0 -153 -101h218q0 -49 -33 -91h-218q-2 -7 -9 -36q-4 -18 -6 -33h191q0 -49 -33 -91h-163q3 -55 31.5 -77t79.5 -22q26 0 55.5 4.5t45.5 9.5l16 5q36 -33 21 -103
q-70 -37 -181 -37t-167.5 56t-55.5 164h-84q-1 20 9 47t24 44h58l7 34q1 6 3.5 17.5t4.5 17.5h-72q-1 20 9 47t24 44h70z" />
    <glyph glyph-name="uni2113" unicode="&#x2113;" horiz-adv-x="490" 
d="M160 541q43 209 229 209q83 0 119 -39t21 -110q-39 -180 -284 -338l-22 -101q-10 -52 33 -52q22 0 47.5 13t40.5 25l15 13q48 -20 51 -73q-4 -4 -11 -10.5t-29.5 -23.5t-46.5 -30t-60 -23.5t-72 -10.5q-69 0 -100.5 36.5t-13.5 125.5l5 22q-10 -5 -29.5 -14t-24.5 -11
q-37 32 -23 95q59 26 103 51zM395 597q6 30 0.5 43.5t-25.5 13.5q-23 0 -39.5 -24t-30.5 -91l-26 -119q104 95 121 177z" />
    <glyph glyph-name="uni2117" unicode="&#x2117;" horiz-adv-x="791" 
d="M46 340q31 148 157.5 252.5t275.5 104.5q148 0 230.5 -104t50.5 -253q-31 -148 -157.5 -252.5t-275.5 -104.5q-148 0 -230.5 104t-50.5 253zM661 340q23 108 -36 183.5t-167 75.5t-199 -75.5t-114 -183.5t36 -183.5t167 -75.5t199.5 75.5t113.5 183.5zM330 523h155
q59 0 87 -35.5t15 -95.5t-55.5 -95.5t-102.5 -35.5h-59l-24 -114q-22 -9 -49.5 -9t-46.5 9zM409 442l-21 -98h46q45 0 55 49q11 49 -34 49h-46z" />
    <glyph glyph-name="trademark" unicode="&#x2122;" horiz-adv-x="613" 
d="M117 720h213q2 -7 -2 -26q-1 -12 -9 -25h-74l-49 -233q-13 -4 -33 -4l-30 4l49 233h-76q0 16 1 24q4 17 10 27zM362 716q24 4 40 4q26 0 37 -4l17 -73q10 -58 10 -76q14 25 43 70l48 79q20 4 41 4l41 -4l-59 -280q-12 -4 -31 -4l-31 4l23 108q13 64 22 96q-6 -10 -34 -58
l-48 -74q-11 -4 -29 -4l-27 4l-14 83q-5 16 -11 49q-2 -22 -17 -96l-23 -108q-12 -4 -30 -4l-27 4z" />
    <glyph glyph-name="Omega" unicode="&#x2126;" horiz-adv-x="735" 
d="M80 380q74 350 378 350q305 0 231 -350q-31 -145 -138 -252h97q3 -32 -3 -64q-7 -29 -24 -64h-267q-5 28 2.5 64.5t24.5 63.5q111 89 146 252q21 89 11.5 139.5t-34.5 69t-72 18.5q-71 0 -117 -49.5t-73 -177.5q-34 -161 38 -252q8 -61 -27 -128h-267q-6 27 1 63
q9 38 26 65h96q-61 103 -29 252z" />
    <glyph glyph-name="estimated" unicode="&#x212e;" horiz-adv-x="770" 
d="M535 95h67q-120 -105 -276 -105q-146 0 -227 103.5t-50 248.5q31 146 156 249t270 103q146 0 227.5 -103.5t50.5 -248.5l-5 -24h-544l-47 -218q77 -67 178 -67q99 0 200 62zM644 583q-75 68 -178 68q-99 0 -206 -67l-47 -222h384z" />
    <glyph glyph-name="uni2153" unicode="&#x2153;" horiz-adv-x="744" 
d="M569 695q19 7 58 7q17 0 31.5 -2t19.5 -4l6 -1l-535 -698q-24 -7 -59 -7q-15 0 -28.5 2t-19.5 4l-7 1zM203 683q17 5 53 5q24 0 46 -5l-71 -333q-23 -5 -49 -5q-32 0 -54 5l39 181q5 28 11 44q-36 -21 -78 -26q-23 28 -9 77q67 16 112 57zM470 329q48 19 109 19
q66 0 95.5 -24t19.5 -69q-10 -53 -60 -74q50 -21 37 -84q-23 -102 -168 -102q-32 0 -58.5 5.5t-36.5 11.5l-11 5q8 43 39 66q30 -11 68 -11q59 0 66 36q4 18 -5 26t-35 8h-48q-5 38 16 74h48q37 0 42 26q4 16 -5.5 23t-33.5 7q-16 0 -33 -2t-26 -4l-9 -3q-21 22 -11 66z" />
    <glyph glyph-name="uni2154" unicode="&#x2154;" horiz-adv-x="788" 
d="M83 -3l534 698q19 7 58 7q17 0 31.5 -2t19.5 -4l6 -1l-535 -698q-24 -7 -59 -7q-15 0 -28.5 2t-19.5 4zM47 394q9 45 40.5 77t63.5 45t60.5 30t32.5 37q4 15 -8 22.5t-34 8.5q-27 1 -68 -9q-21 29 -6 72q50 17 110 17q59 0 89.5 -25.5t19.5 -76.5q-10 -48 -43.5 -74.5
t-80 -47t-67.5 -40.5h139q3 -19 -2 -43q-5 -22 -15 -41h-235q-2 20 4 48zM719 97q-23 -102 -168 -102q-32 0 -58.5 5.5t-36.5 11.5l-11 5q8 43 39 66q30 -11 68 -11q59 0 66 36q4 18 -5 26t-35 8h-48q-5 38 16 74h48q37 0 42 26q4 16 -5.5 23t-33.5 7q-16 0 -33 -2t-26 -4
l-9 -3q-21 22 -11 66q48 19 109 19q66 0 95.5 -24t19.5 -69q-10 -53 -60 -74q50 -21 37 -84z" />
    <glyph glyph-name="oneeighth" unicode="&#x215b;" horiz-adv-x="742" 
d="M569 695q19 7 58 7q17 0 31.5 -2t19.5 -4l6 -1l-535 -698q-24 -7 -59 -7q-15 0 -28.5 2t-19.5 4l-7 1zM203 683q17 5 53 5q24 0 46 -5l-71 -333q-23 -5 -49 -5q-32 0 -54 5l39 181q5 28 11 44q-36 -21 -78 -26q-23 28 -9 77q67 16 112 57zM436 253q9 45 48 70t101 25
q59 0 87 -23.5t19 -65.5q-10 -48 -58 -77q48 -29 36 -86q-21 -101 -160 -101q-65 0 -96 24.5t-21 71.5q12 55 72 82q-40 25 -28 80zM599 252q2 13 -5 20.5t-24 7.5q-32 0 -37 -25q-3 -13 8.5 -22.5t33.5 -17.5q18 13 24 37zM572 95q-1 6 0.5 9.5t-3.5 8t-6.5 6.5t-8.5 6
t-10 5.5l-11 5.5t-11 5q-28 -17 -33 -42q-3 -16 6 -24.5t31 -8.5q40 0 46 29z" />
    <glyph glyph-name="threeeighths" unicode="&#x215c;" horiz-adv-x="771" 
d="M600 695q19 7 58 7q17 0 31.5 -2t20.5 -4l5 -1l-535 -698q-24 -7 -59 -7q-15 0 -28.5 2t-20.5 4l-6 1zM113 675q48 19 109 19q66 0 95.5 -24t20.5 -69q-12 -54 -60 -74q50 -22 36 -84q-21 -102 -168 -102q-32 0 -58.5 5.5t-37.5 11.5l-10 5q10 43 39 66q31 -11 69 -11
q58 0 65 36q5 18 -4 26t-35 8h-48q-6 35 15 74h48q37 0 43 26q3 16 -6.5 23t-33.5 7q-16 0 -33 -2t-26 -4l-9 -3q-19 21 -11 66zM467 253q9 45 48 70t101 25q59 0 87 -23.5t19 -65.5q-10 -48 -58 -77q48 -29 36 -86q-21 -101 -160 -101q-65 0 -96 24.5t-21 71.5q12 55 72 82
q-40 25 -28 80zM630 252q2 13 -5 20.5t-24 7.5q-32 0 -37 -25q-3 -13 8.5 -22.5t33.5 -17.5q18 13 24 37zM603 95q-1 6 0.5 9.5t-3.5 8t-6.5 6.5t-8.5 6t-10 5.5l-11 5.5t-11 5q-28 -17 -33 -42q-3 -16 6 -24.5t31 -8.5q40 0 46 29z" />
    <glyph glyph-name="fiveeighths" unicode="&#x215d;" horiz-adv-x="771" 
d="M600 695q19 7 58 7q17 0 31.5 -2t20.5 -4l5 -1l-535 -698q-24 -7 -59 -7q-15 0 -28.5 2t-20.5 4l-6 1zM133 689h216q5 -40 -17 -80h-121l-7 -37q139 0 115 -115q-24 -116 -175 -116q-31 0 -57 5.5t-37 11.5l-10 5q7 43 39 69q32 -10 70 -10q58 0 65 36q4 21 -7 29t-43 8
h-72zM467 253q9 45 48 70t101 25q59 0 87 -23.5t19 -65.5q-10 -48 -58 -77q48 -29 36 -86q-21 -101 -160 -101q-65 0 -96 24.5t-21 71.5q12 55 72 82q-40 25 -28 80zM630 252q2 13 -5 20.5t-24 7.5q-32 0 -37 -25q-3 -13 8.5 -22.5t33.5 -17.5q18 13 24 37zM603 95
q-1 6 0.5 9.5t-3.5 8t-6.5 6.5t-8.5 6t-10 5.5l-11 5.5t-11 5q-28 -17 -33 -42q-3 -16 6 -24.5t31 -8.5q40 0 46 29z" />
    <glyph glyph-name="seveneighths" unicode="&#x215e;" horiz-adv-x="698" 
d="M527 695q19 7 58 7q17 0 31.5 -2t19.5 -4l6 -1l-535 -698q-24 -7 -59 -7q-15 0 -28.5 2t-19.5 4l-7 1zM118 689h245q1 -20 -3 -40q-7 -34 -27 -64t-44 -54t-48 -48.5t-44 -58.5t-28 -74q-56 -9 -99 0q15 67 42.5 109.5t68.5 81.5t59 64h-139q-3 39 17 84zM394 253
q9 45 48 70t101 25q59 0 87 -23.5t19 -65.5q-10 -48 -58 -77q48 -29 36 -86q-21 -101 -160 -101q-65 0 -96 24.5t-21 71.5q12 55 72 82q-40 25 -28 80zM557 252q2 13 -5 20.5t-24 7.5q-32 0 -37 -25q-3 -13 8.5 -22.5t33.5 -17.5q18 13 24 37zM530 95q-1 6 0.5 9.5t-3.5 8
t-6.5 6.5t-8.5 6t-10 5.5l-11 5.5t-11 5q-28 -17 -33 -42q-3 -16 6 -24.5t31 -8.5q40 0 46 29z" />
    <glyph glyph-name="arrowleft" unicode="&#x2190;" horiz-adv-x="624" 
d="M29 350l289 239q18 -7 31 -24t15 -37l-155 -127h398q3 -21 -4 -51q-5 -26 -17 -51h-398l101 -126q-26 -46 -72 -62z" />
    <glyph glyph-name="arrowup" unicode="&#x2191;" horiz-adv-x="520" 
d="M330 637l189 -238q-25 -44 -75 -59l-99 127l-84 -397q-24 -7 -53 -7q-28 0 -49 7l84 397l-154 -127q-19 8 -32.5 24t-15.5 35z" />
    <glyph glyph-name="arrowright" unicode="&#x2192;" horiz-adv-x="623" 
d="M612 350l-288 -239q-39 15 -46 62l155 126h-398q-2 25 3 51q6 27 18 51h398l-101 127q28 47 72 61z" />
    <glyph glyph-name="arrowdown" unicode="&#x2193;" horiz-adv-x="520" 
d="M278 630q30 7 52 7q29 0 50 -7l-85 -398l153 128q43 -17 50 -59l-290 -238l-188 238q10 19 30.5 35t42.5 24l100 -128z" />
    <glyph glyph-name="uni2196" unicode="&#x2196;" horiz-adv-x="513" 
d="M107 553h334q5 -19 0 -42q-6 -23 -18 -42h-179l221 -281q-12 -23 -36.5 -43t-49.5 -29l-222 281l-38 -179q-20 -7 -43 -7q-25 0 -42 7z" />
    <glyph glyph-name="uni2197" unicode="&#x2197;" horiz-adv-x="513" 
d="M512 553l-71 -335q-20 -7 -44 -7t-41 7l38 179l-340 -281q-22 9 -38 29t-18 43l341 281h-179q-6 19 0 42q4 23 18 42h334z" />
    <glyph glyph-name="uni2198" unicode="&#x2198;" horiz-adv-x="528" 
d="M368 277l38 180q20 7 44 7t41 -7l-72 -335h-334q-5 20 0 42t18 42h179l-222 281q27 50 87 72z" />
    <glyph glyph-name="uni2199" unicode="&#x2199;" horiz-adv-x="528" 
d="M148 277l341 282q21 -9 37 -29t18 -43l-340 -281h179q5 -20 0 -42t-18 -42h-334l70 335q20 7 45 7q23 0 40 -7z" />
    <glyph glyph-name="partialdiff" unicode="&#x2202;" horiz-adv-x="559" 
d="M188 625q0 75 42 125q202 -15 267.5 -117.5t21.5 -311.5q-39 -184 -115.5 -257.5t-195.5 -73.5q-116 0 -165 61.5t-19 200.5q55 262 278 262q33 0 68 -11q-12 53 -54 82t-128 40zM370 381q-27 20 -74 20q-44 0 -70 -31t-44 -118q-17 -90 -4.5 -119t55.5 -29t69.5 31
t45.5 117q18 93 22 129z" />
    <glyph glyph-name="Delta" unicode="&#x2206;" horiz-adv-x="676" 
d="M353 712q34 8 76 8q41 0 75 -8l102 -633q-24 -48 -66 -79h-531q-36 32 -33 78zM384 524h-4q-27 -58 -70 -135l-156 -268h284l-42 269q-10 69 -12 134z" />
    <glyph glyph-name="product" unicode="&#x220f;" horiz-adv-x="719" 
d="M721 693l-189 -890q-29 -10 -73 -10q-19 0 -36.5 2.5t-24.5 4.5l-8 3l163 766h-274l-163 -766q-29 -10 -74 -10q-19 0 -36 2.5t-24 4.5l-8 3l189 890h558z" />
    <glyph glyph-name="summation" unicode="&#x2211;" horiz-adv-x="614" 
d="M-72 -146l313 407l-129 377l11 56h528q4 -25 -3 -61q-4 -15 -9.5 -29.5t-8.5 -21.5l-4 -8h-338l110 -315l-263 -343h357q4 -26 -4 -62q-3 -15 -8.5 -30.5t-9.5 -23.5l-4 -7h-551z" />
    <glyph glyph-name="minus" unicode="&#x2212;" horiz-adv-x="458" 
d="M385 275h-327q-2 21 5 55q3 15 8 29t8 20l3 6h327q2 -21 -5 -55q-3 -15 -8 -29t-8 -20z" />
    <glyph glyph-name="uni2215" unicode="&#x2215;" horiz-adv-x="494" 
d="M-71 -3l535 698q19 7 58 7q17 0 31.5 -2t20.5 -4l5 -1l-536 -698q-23 -7 -58 -7q-15 0 -29 2t-20 4z" />
    <glyph glyph-name="uni2219" unicode="&#x2219;" horiz-adv-x="253" 
d="M115 252q-35 0 -56 22t-12 62q9 39 38.5 61.5t64.5 22.5q34 0 55 -22.5t12 -61.5q-9 -40 -38.5 -62t-63.5 -22z" />
    <glyph glyph-name="radical" unicode="&#x221a;" horiz-adv-x="650" 
d="M215 -15l-78 332l-97 -39q-15 14 -21 39t1 54l222 89l65 -298l316 568q31 4 60 -3.5t44 -23.5l-394 -718h-118z" />
    <glyph glyph-name="infinity" unicode="&#x221e;" horiz-adv-x="804" 
d="M537 142q-31 0 -57.5 10t-43 24.5t-28 29t-16.5 24.5l-5 10q-3 -4 -9.5 -10.5t-26 -23.5t-41 -30t-53 -23.5t-62.5 -10.5q-91 0 -130.5 54t-23.5 129t78.5 129.5t153.5 54.5q31 0 58 -10.5t43 -25t28 -29t16 -24.5l5 -11q3 4 9.5 11t26.5 24t41 30t52.5 24t62.5 11
q91 0 131 -54.5t24 -129.5t-79 -129t-154 -54zM220 258q27 0 54.5 17t41.5 33l14 17l-2.5 7.5t-8.5 16t-15.5 20.5t-23.5 16.5t-32 7.5q-35 0 -58 -20.5t-29 -47.5t8.5 -47t50.5 -20zM590 393q-27 0 -54.5 -17t-41.5 -34l-14 -17l2.5 -7.5t8.5 -16t15.5 -20.5t23.5 -16
t32 -7q36 0 58.5 20t28.5 47t-8.5 47.5t-50.5 20.5z" />
    <glyph glyph-name="integral" unicode="&#x222b;" horiz-adv-x="515" 
d="M124 9l111 521q18 88 76.5 139t147.5 51q36 0 70 -13t49 -26l16 -13q-21 -52 -68 -86q-37 34 -86 29q-64 -5 -83 -91l-110 -521q-19 -90 -73 -140.5t-141 -50.5q-36 0 -68 13t-47 26l-14 13q24 56 68 85q40 -35 79 -29q54 5 73 93z" />
    <glyph glyph-name="approxequal" unicode="&#x2248;" horiz-adv-x="521" 
d="M190 347q-21 0 -39.5 -9t-26.5 -18l-9 -9q-51 21 -51 74q2 3 6 8t17.5 17.5t29 22t40 17.5t50.5 8q39 0 82 -25.5t74 -25.5q20 0 38.5 8.5t26.5 17.5l9 9q24 -9 38 -29t13 -45q-6 -8 -16.5 -20t-47.5 -32t-79 -20q-39 0 -82.5 25.5t-72.5 25.5zM151 163q-21 0 -39.5 -8.5
t-27.5 -17.5l-8 -9q-51 20 -51 74q2 3 6 8t17.5 17.5t29 22t40 17.5t50.5 8q39 0 82.5 -25.5t74.5 -25.5q20 0 38.5 9t26.5 17l8 9q24 -9 38 -29t13 -45q-2 -3 -6 -8t-17.5 -17.5t-28.5 -22t-40 -17.5t-51 -8q-39 0 -82.5 25.5t-72.5 25.5z" />
    <glyph glyph-name="notequal" unicode="&#x2260;" horiz-adv-x="497" 
d="M178 138l-58 -79q-25 -7 -58 -7q-24 0 -45 7l58 79h-55q0 32 5 54q7 34 19 56h114l61 83h-158q-2 28 6 58q6 28 18 52h216l54 70q22 7 54 7q25 0 50 -7l-54 -70h64q3 -20 -4 -52q-10 -38 -20 -58h-123l-61 -83h167q1 -22 -5 -53q-7 -34 -19 -57h-226z" />
    <glyph glyph-name="lessequal" unicode="&#x2264;" horiz-adv-x="447" 
d="M363 202l-303 114q-2 25 6 59q3 16 7.5 29.5t7.5 19.5l3 6l352 115q3 -18 -5 -55q-4 -16 -8.5 -29.5t-7.5 -19.5l-3 -6l-200 -63l174 -60q3 -18 -4 -55q-4 -16 -8.5 -29.5t-7.5 -19.5zM334 68h-327q-3 19 5 53q3 15 7.5 28.5t7.5 18.5l3 6h327q4 -19 -3 -53
q-4 -15 -9 -28.5t-8 -18.5z" />
    <glyph glyph-name="greaterequal" unicode="&#x2265;" horiz-adv-x="444" 
d="M392 316l-351 -114q-3 19 5 55q3 16 7.5 30t7.5 19l3 6l199 60l-173 63q-3 19 5 55q4 16 8.5 30t7.5 20l3 5l302 -115q3 -20 -4 -55q-4 -15 -9 -30t-8 -22zM338 68h-327q-3 19 5 53q3 15 7.5 28.5t7.5 18.5l3 6h327q3 -19 -4 -53q-4 -15 -8.5 -28.5t-7.5 -18.5z" />
    <glyph glyph-name="lozenge" unicode="&#x25ca;" horiz-adv-x="566" 
d="M173 7l-142 345l289 344h83l146 -344l-293 -345h-83zM406 351l-76 191l-154 -191l73 -191z" />
    <glyph glyph-name="commaaccentcomb" unicode="&#xf6c3;" horiz-adv-x="0" 
d="M-88 -148l-47 38q43 41 62 110l-48 8l30 143q28 8 79 8q21 0 40 -2t27 -4l8 -2l-22 -103q-8 -36 -24 -69t-33.5 -55t-34 -39t-27.5 -25z" />
    <glyph glyph-name="CR" horiz-adv-x="322" 
 />
    <glyph glyph-name="_0020" horiz-adv-x="0" 
 />
    <glyph glyph-name="_375" horiz-adv-x="646" 
d="M249 712q34 8 76 8q41 0 75 -8l102 -633q-24 -48 -66 -79h-531q-36 32 -33 78zM280 524h-4q-27 -58 -70 -135l-156 -268h284l-42 269q-10 69 -12 134z" />
    <glyph glyph-name="_376" horiz-adv-x="700" 
d="M514 0h-267q-5 28 2.5 64.5t24.5 63.5q111 89 146 252q21 89 11.5 139.5t-34.5 69t-72 18.5q-71 0 -117 -49.5t-73 -177.5q-34 -161 38 -252q8 -61 -27 -128h-267q-6 27 1 63q9 38 26 65h96q-61 103 -29 252q74 350 378 350q305 0 231 -350q-31 -145 -138 -252h97
q3 -32 -3 -64q-7 -29 -24 -64z" />
    <glyph glyph-name="commaaccentcomb.alt" horiz-adv-x="0" 
d="M108 720l47 -37q-43 -41 -62 -111l48 -7l-30 -143q-28 -8 -79 -8q-21 0 -40 2t-27 4l-8 2l22 103q12 56 44 104.5t59 69.5z" />
    <glyph glyph-name="eight.denom" horiz-adv-x="327" 
d="M24 253q9 45 48 70t101 25q59 0 87 -23.5t19 -65.5q-10 -48 -58 -77q48 -29 36 -86q-21 -101 -160 -101q-65 0 -96 24.5t-21 71.5q12 55 72 82q-40 25 -28 80zM187 252q2 13 -5 20.5t-24 7.5q-32 0 -37 -25q-3 -13 8.5 -22.5t33.5 -17.5q18 13 24 37zM160 95
q-1 6 0.5 9.5t-3.5 8t-6.5 6.5t-8.5 6t-10 5.5l-11 5.5t-11 5q-28 -17 -33 -42q-3 -16 6 -24.5t31 -8.5q40 0 46 29z" />
    <glyph glyph-name="eight.num" horiz-adv-x="327" 
d="M97 599q10 45 48.5 70t100.5 25q59 0 87 -23.5t20 -65.5q-11 -50 -59 -77q49 -29 37 -86q-11 -48 -52 -74.5t-109 -26.5q-65 0 -95.5 24.5t-20.5 71.5q12 55 71 82q-39 26 -28 80zM260 598q7 28 -28 28q-32 0 -37 -25q-3 -13 8 -23t33 -17q20 13 24 37zM234 441
q3 4 0.5 8.5t-2.5 7t-5 6.5t-7 5.5t-8.5 5t-9 4.5t-9.5 4.5t-10 4.5q-27 -17 -32 -42q-4 -16 5.5 -24.5t31.5 -8.5q40 0 46 29z" />
    <glyph glyph-name="five.denom" horiz-adv-x="306" 
d="M131 263l-8 -37q70 0 99 -29t17 -86q-13 -59 -55 -87.5t-120 -28.5q-31 0 -57 5.5t-37 11.5l-10 5q7 42 38 69q32 -10 70 -10q58 0 66 36q4 21 -7 29t-43 8h-72l41 194h216q5 -40 -17 -80h-121z" />
    <glyph glyph-name="five.num" horiz-adv-x="306" 
d="M205 609l-7 -37q139 0 115 -115q-24 -116 -175 -116q-31 0 -57 5.5t-37 11.5l-10 5q7 43 39 69q32 -10 70 -10q58 0 65 36q4 21 -7 29t-43 8h-72l41 194h216q5 -40 -17 -80h-121z" />
    <glyph glyph-name="four.denom" horiz-adv-x="334" 
d="M234 142h37q1 -18 -3 -36q-2 -15 -12 -34h-37l-14 -67q-23 -5 -46 -5q-24 0 -43 5l14 67h-161q0 23 2 34q5 18 11 30l199 201q22 6 49 6q25 0 46 -6zM164 230l-86 -88h67z" />
    <glyph glyph-name="four.num" horiz-adv-x="334" 
d="M309 488h37q1 -18 -3 -36q-3 -13 -12 -34h-37l-14 -67q-22 -5 -46 -5t-43 5l14 67h-161q-1 15 2 34q3 16 10 30l199 201q24 6 49 6q26 0 46 -6zM238 576l-85 -88h67z" />
    <glyph glyph-name="g.alt" horiz-adv-x="541" 
d="M107 190q-42 21 -56 68t-1 107q37 175 250 175q73 0 117 -25l152 25q5 -21 -2.5 -55.5t-21.5 -57.5l-69 10q11 -35 -3 -95q-36 -174 -252 -174q-20 0 -29 1q-18 -20 -17 -39q0 -15 17 -24t43.5 -13.5t58 -10t61.5 -15.5t53 -26.5t32.5 -47.5t0.5 -74q-18 -81 -102 -125
t-215 -44q-117 0 -164.5 38t-32.5 109q5 25 17 45.5t32 35.5t29.5 21t30.5 17q-17 29 -10 67q13 60 81 107zM279 443q-66 0 -86 -89q-18 -89 48 -89q68 0 86 89q20 89 -48 89zM149 -146q128 0 141 61q3 15 -6.5 25t-30.5 15t-43.5 8t-53 7.5t-50.5 9.5q-30 -28 -38 -62
q-6 -30 13 -47t68 -17z" />
    <glyph glyph-name="gbreve.alt" horiz-adv-x="541" 
d="M498 669q-8 -8 -22.5 -20.5t-62.5 -33t-100 -20.5q-32 0 -60 7.5t-44 18.5t-27.5 22t-15.5 19l-5 7q28 50 78 69q32 -28 99 -28q30 0 57.5 7t40.5 14l13 7q42 -19 49 -69zM107 190q-42 21 -56 68t-1 107q37 175 250 175q73 0 117 -25l152 25q5 -21 -2.5 -55.5
t-21.5 -57.5l-69 10q11 -35 -3 -95q-36 -174 -252 -174q-20 0 -29 1q-18 -20 -17 -39q0 -15 17 -24t43.5 -13.5t58 -10t61.5 -15.5t53 -26.5t32.5 -47.5t0.5 -74q-18 -82 -102 -126.5t-215 -44.5q-116 0 -164 39t-33 110q5 25 17 45.5t32 35.5t29.5 21t30.5 17
q-17 29 -10 67q13 60 81 107zM279 443q-66 0 -86 -89q-18 -89 48 -89q68 0 86 89q20 89 -48 89zM149 -148q128 0 141 62q5 24 -20.5 34.5t-82 16t-81.5 12.5q-31 -29 -38 -60q-6 -30 13 -47.5t68 -17.5z" />
    <glyph glyph-name="gcircumflex.alt" horiz-adv-x="541" 
d="M368 790l126 -129q-37 -51 -81 -66l-90 65l-116 -64q-40 16 -54 65l180 129h35zM107 190q-42 21 -56 68t-1 107q37 175 250 175q73 0 117 -25l152 25q5 -21 -2.5 -55.5t-21.5 -57.5l-69 10q11 -35 -3 -95q-36 -174 -252 -174q-20 0 -29 1q-18 -20 -17 -39q0 -15 17 -24
t43.5 -13.5t58 -10t61.5 -15.5t53 -26.5t32.5 -47.5t0.5 -74q-18 -82 -102 -126.5t-215 -44.5q-116 0 -164 39t-33 110q5 25 17 45.5t32 35.5t29.5 21t30.5 17q-17 29 -10 67q13 60 81 107zM279 443q-66 0 -86 -89q-18 -89 48 -89q68 0 86 89q20 89 -48 89zM149 -148
q128 0 141 62q5 24 -20.5 34.5t-82 16t-81.5 12.5q-31 -29 -38 -60q-6 -30 13 -47.5t68 -17.5z" />
    <glyph glyph-name="gcommaaccent.alt" horiz-adv-x="541" 
d="M381 866l50 -32q-44 -37 -61 -98l50 -7l-27 -127q-31 -7 -81 -7q-22 0 -41 1.5t-27 3.5l-9 2l19 92q11 49 42.5 92t57.5 62zM107 190q-42 21 -56 68t-1 107q37 175 250 175q73 0 117 -25l152 25q5 -21 -2.5 -55.5t-21.5 -57.5l-69 10q11 -35 -3 -95q-36 -174 -252 -174
q-20 0 -29 1q-18 -20 -17 -39q0 -15 17 -24t43.5 -13.5t58 -10t61.5 -15.5t53 -26.5t32.5 -47.5t0.5 -74q-18 -82 -102 -126.5t-215 -44.5q-116 0 -164 39t-33 110q5 25 17 45.5t32 35.5t29.5 21t30.5 17q-17 29 -10 67q13 60 81 107zM279 443q-66 0 -86 -89q-18 -89 48 -89
q68 0 86 89q20 89 -48 89zM149 -148q128 0 141 62q5 24 -20.5 34.5t-82 16t-81.5 12.5q-31 -29 -38 -60q-6 -30 13 -47.5t68 -17.5z" />
    <glyph glyph-name="gdotaccent.alt" horiz-adv-x="541" 
d="M412 731l-27 -128q-27 -8 -72 -8q-20 0 -37 2t-24 4l-6 2l27 128q24 7 71 7q20 0 37 -2t24 -4zM107 190q-42 21 -56 68t-1 107q37 175 250 175q73 0 117 -25l152 25q5 -21 -2.5 -55.5t-21.5 -57.5l-69 10q11 -35 -3 -95q-36 -174 -252 -174q-20 0 -29 1q-18 -20 -17 -39
q0 -15 17 -24t43.5 -13.5t58 -10t61.5 -15.5t53 -26.5t32.5 -47.5t0.5 -74q-18 -82 -102 -126.5t-215 -44.5q-116 0 -164 39t-33 110q5 25 17 45.5t32 35.5t29.5 21t30.5 17q-17 29 -10 67q13 60 81 107zM279 443q-66 0 -86 -89q-18 -89 48 -89q68 0 86 89q20 89 -48 89z
M149 -148q128 0 141 62q5 24 -20.5 34.5t-82 16t-81.5 12.5q-31 -29 -38 -60q-6 -30 13 -47.5t68 -17.5z" />
    <glyph glyph-name="nine.denom" horiz-adv-x="315" 
d="M6 234q12 56 53 85t105 29q65 0 92.5 -34.5t12.5 -104.5q-41 -196 -267 -212q-5 14 0 36t16 38q79 4 115 56q-13 -3 -35 -3q-51 0 -77.5 27t-14.5 83zM165 196q17 81 -16 81t-42 -43q-8 -41 25 -41q18 0 33 3z" />
    <glyph glyph-name="nine.num" horiz-adv-x="315" 
d="M79 580q12 56 53 85t105 29q135 0 106 -139q-42 -196 -267 -212q-5 14 -0.5 36t16.5 38q79 4 114 56q-14 -3 -34 -3q-51 0 -78 27t-15 83zM238 542q18 81 -16 81q-33 0 -42 -43q-8 -41 26 -41q18 0 32 3z" />
    <glyph glyph-name="_300" horiz-adv-x="0" 
 />
    <glyph glyph-name="one.denom" horiz-adv-x="257" 
d="M6 281q68 17 112 57q18 5 52 5q24 0 47 -5l-71 -333q-27 -5 -49 -5q-34 0 -54 5l38 181l11 44q-36 -21 -78 -26q-22 29 -8 77z" />
    <glyph glyph-name="one.num" horiz-adv-x="272" 
d="M79 627q67 16 112 57q17 5 52 5q25 0 47 -5l-70 -333q-27 -5 -49 -5q-34 0 -54 5l38 181q5 26 10 44q-34 -21 -77 -26q-23 28 -9 77z" />
    <glyph glyph-name="seven.denom" horiz-adv-x="288" 
d="M152 259h-139q0 23 4 42q5 25 14 42h245q1 -20 -4 -40q-7 -34 -27 -64t-43.5 -54t-47.5 -48.5t-44 -58.5t-27 -74q-23 -4 -52 -4q-31 0 -48 4q15 67 42.5 109.5t68 81.5t58.5 64z" />
    <glyph glyph-name="seven.num" horiz-adv-x="290" 
d="M105 689h245q2 -16 -3 -40q-7 -34 -27 -64t-44 -54t-47.5 -48.5t-43.5 -58.5t-28 -74q-57 -9 -100 0q15 67 42.5 109.5t68.5 81.5t59 64h-139q-3 39 17 84z" />
    <glyph glyph-name="six.denom" horiz-adv-x="316" 
d="M-11 134q42 196 268 212q5 -15 0 -37.5t-16 -36.5q-79 -6 -116 -56q15 3 36 3q51 0 77.5 -27t14.5 -83t-53 -85t-105 -29q-135 0 -106 139zM152 109q8 41 -25 41q-6 0 -33 -3q-19 -81 16 -81q33 0 42 43z" />
    <glyph glyph-name="six.num" horiz-adv-x="315" 
d="M62 480q42 196 267 212q5 -14 0.5 -36t-16.5 -38q-79 -6 -116 -56q17 3 36 3q51 0 78 -27t15 -83t-53.5 -85t-105.5 -29q-134 0 -105 139zM225 455q8 41 -26 41q-5 0 -32 -3q-19 -81 16 -81q33 0 42 43z" />
    <glyph glyph-name="three.denom" horiz-adv-x="304" 
d="M234 97q-23 -102 -168 -102q-32 0 -58.5 5.5t-37.5 11.5l-10 5q8 43 39 66q30 -11 68 -11q59 0 66 36q4 18 -5 26t-35 8h-48q-5 38 16 74h48q37 0 42 26q4 16 -5.5 23t-33.5 7q-16 0 -33 -2t-26 -4l-9 -3q-21 22 -11 66q48 19 109 19q66 0 95.5 -24t19.5 -69
q-10 -53 -60 -74q50 -21 37 -84z" />
    <glyph glyph-name="three.num" horiz-adv-x="304" 
d="M307 443q-21 -102 -168 -102q-32 0 -58.5 5.5t-36.5 11.5l-11 5q10 43 39 66q31 -11 69 -11q58 0 65 36q5 18 -4 26t-35 8h-48q-6 35 15 74h48q37 0 43 26q3 16 -6.5 23t-33.5 7q-16 0 -33 -2t-26 -4l-9 -3q-19 21 -11 66q48 19 109 19q66 0 95.5 -24t20.5 -69
q-12 -54 -60 -74q50 -22 36 -84z" />
    <glyph glyph-name="two.denom" horiz-adv-x="304" 
d="M-34 48q10 45 41 77t63.5 45t60.5 30t32 37q3 16 -8 23t-34 8q-29 1 -68 -9q-19 29 -6 72q51 17 111 17q59 0 89 -25.5t19 -76.5q-10 -48 -43.5 -74.5t-80 -47t-67.5 -40.5h140q3 -19 -2 -43q-5 -23 -16 -41h-236q-1 20 5 48z" />
    <glyph glyph-name="two.num" horiz-adv-x="304" 
d="M40 394q9 45 40.5 77t63.5 45t60.5 30t32.5 37q4 16 -8.5 23.5t-33.5 7.5q-32 0 -68 -9q-21 29 -6 72q50 17 110 17q59 0 89.5 -25.5t19.5 -76.5q-8 -37 -32 -63t-50 -37t-59 -27.5t-51 -34.5h140q3 -19 -2 -43q-5 -22 -15 -41h-236q-1 20 5 48z" />
    <glyph glyph-name="zero.denom" horiz-adv-x="348" 
d="M107 -5q-147 0 -109 177q37 176 184 176q148 0 111 -176q-38 -177 -186 -177zM165 269q-21 0 -35 -20t-25 -77q-12 -61 -7.5 -78t26.5 -17q21 0 34.5 19t26.5 76q11 59 6 78t-26 19z" />
    <glyph glyph-name="zero.num" horiz-adv-x="348" 
d="M181 341q-147 0 -109 177q37 176 184 176q149 0 111 -176q-38 -177 -186 -177zM240 615q-21 0 -35 -20t-26 -77q-11 -61 -6.5 -78t26.5 -17q21 0 34.5 19t25.5 76q11 59 6.5 78t-25.5 19z" />
    </font>
</defs>
</svg>
