<?xml version="1.0" standalone="no"?>
<!DOCTYPE svg PUBLIC "-//W3C//DTD SVG 1.1//EN" "http://www.w3.org/Graphics/SVG/1.1/DTD/svg11.dtd" >
<svg xmlns="http://www.w3.org/2000/svg" xmlns:xlink="http://www.w3.org/1999/xlink" version="1.1">
<metadata>
Created by FontForge 20170731 at Fri Feb  7 20:03:20 2014
 By Aleksey,,,
Copyright (c) 2014 by Fontfabric LLC. All rights reserved.
</metadata>
<defs>
<font id="GloberLight" horiz-adv-x="548" >
  <font-face 
    font-family="Glober Light"
    font-weight="300"
    font-stretch="normal"
    units-per-em="1000"
    panose-1="0 0 0 0 0 0 0 0 0 0"
    ascent="750"
    descent="-250"
    x-height="526"
    cap-height="720"
    bbox="-151 -250.389 1008 1052"
    underline-thickness="50"
    underline-position="-200"
    unicode-range="U+0020-FB02"
  />
<missing-glyph horiz-adv-x="618" 
d="M37 0v720h538v-720h-538zM287 200l12 3q0 46 16 80t38.5 55t44.5 41.5t38 53t16 76.5q0 53 -35 88.5t-108 35.5q-32 0 -62.5 -6.5t-44.5 -12.5l-14 -6q-2 -14 9 -20q42 20 110 20q61 0 89 -28t28 -73q0 -29 -8 -52.5t-21 -39t-29 -30t-32 -30.5t-29 -35.5t-21 -49
t-8 -67.5q4 -3 11 -3zM307 83v34q-6 2 -19 2l-19 -2v-34q6 -2 19 -2z" />
    <glyph glyph-name="fi" unicode="fi" horiz-adv-x="551" 
d="M457 526v-523q-4 -3 -16 -3l-16 3v493h-285v-493q-4 -3 -16 -3l-16 3v493h-64q-3 4 -3 15l3 15h64v60q0 82 38.5 123t136.5 41q40 0 82 -7t65 -13l22 -7q3 -17 -9 -28q-72 25 -155 25q-85 0 -116.5 -30.5t-31.5 -98.5v-65h296h5h16z" />
    <glyph glyph-name="fl" unicode="fl" horiz-adv-x="553" 
d="M274 496h-134v-493q-4 -3 -16 -3l-16 3v493h-64q-3 4 -3 15l3 15h64v60q0 79 37.5 121.5t127.5 42.5q44 0 90 -8.5t70 -17.5l24 -8v-713q-4 -3 -16 -3l-16 3v693q-70 24 -147 24q-78 0 -108 -31.5t-30 -97.5v-65h134q3 -4 3 -15z" />
    <glyph glyph-name=".notdef" horiz-adv-x="618" 
d="M37 0v720h538v-720h-538zM287 200l12 3q0 46 16 80t38.5 55t44.5 41.5t38 53t16 76.5q0 53 -35 88.5t-108 35.5q-32 0 -62.5 -6.5t-44.5 -12.5l-14 -6q-2 -14 9 -20q42 20 110 20q61 0 89 -28t28 -73q0 -29 -8 -52.5t-21 -39t-29 -30t-32 -30.5t-29 -35.5t-21 -49
t-8 -67.5q4 -3 11 -3zM307 83v34q-6 2 -19 2l-19 -2v-34q6 -2 19 -2z" />
    <glyph glyph-name=".null" horiz-adv-x="0" 
 />
    <glyph glyph-name="nonmarkingreturn" horiz-adv-x="333" 
 />
    <glyph glyph-name="space" unicode=" " horiz-adv-x="257" 
 />
    <glyph glyph-name="exclam" unicode="!" horiz-adv-x="238" 
d="M107 153l-5 564l1 2l16 1q18 0 17 -3l-5 -564q-3 -4 -12 -4zM141 45v-42q-6 -3 -22 -3l-22 3v42q6 3 22 3z" />
    <glyph glyph-name="quotedbl" unicode="&#x22;" horiz-adv-x="294" 
d="M85 526l-7 191q6 3 17 3l17 -3l-7 -191q-3 -2 -10 -2zM189 526l-7 191q5 3 17 3l17 -3l-7 -191q-3 -2 -10 -2z" />
    <glyph glyph-name="numbersign" unicode="#" horiz-adv-x="651" 
d="M330 4l40 144h-178l-40 -144q-5 -4 -17 -4l-15 4l40 144h-109q-3 6 -3 15t3 15h118l73 259h-107q-3 6 -3 15t3 15h115l44 153q8 3 16 3q10 0 16 -3l-44 -153h178l44 153q8 3 16 3q10 0 16 -3l-44 -153h106q3 -6 3 -15q0 -8 -3 -15h-114l-73 -259h103q3 -6 3 -15
q0 -7 -3 -15h-112l-40 -144q-5 -4 -17 -4zM274 437l-73 -259h178l73 259h-178z" />
    <glyph glyph-name="dollar" unicode="$" horiz-adv-x="559" 
d="M295 637q-97 0 -145.5 -36.5t-48.5 -101.5q0 -41 22 -69t57 -42.5t77 -24.5t84 -22t77 -29.5t57 -52t22 -83.5q0 -76 -54.5 -122t-151.5 -51l6 -129q-5 -3 -19 -3l-20 3l5 128q-53 0 -102 8t-72 16l-23 9q-2 18 10 27q87 -27 183 -27q97 0 150 35.5t53 104.5q0 58 -41 91
t-99 46.5t-116 28.5t-99 52.5t-41 103.5q0 74 51.5 119t145.5 51l-5 119q6 3 19 3l20 -3l-6 -118q48 0 90.5 -5.5t60.5 -10.5l19 -6q2 -18 -10 -27q-67 18 -156 18z" />
    <glyph glyph-name="percent" unicode="%" horiz-adv-x="743" 
d="M183 345q-127 0 -127 173t127 173q128 0 128 -173t-128 -173zM183 661q-92 0 -92 -143q0 -77 23.5 -109.5t68.5 -32.5t68.5 32.5t23.5 109.5q0 143 -92 143zM587 699l-389 -706q-7 -3 -21 -3l-18 3l389 706q6 3 20 3zM560 -10q-127 0 -127 173t127 173q128 0 128 -173
t-128 -173zM560 306q-92 0 -92 -143q0 -77 23.5 -109.5t68.5 -32.5t68.5 32.5t23.5 109.5q0 143 -92 143z" />
    <glyph glyph-name="ampersand" unicode="&#x26;" horiz-adv-x="635" 
d="M325 690q62 0 97.5 -35t35.5 -84q0 -72 -51 -120.5t-161 -105.5q65 -131 199 -228q57 66 81 159q22 0 32 -15q-21 -83 -89 -162q55 -37 132 -70q2 -20 -14 -30q-73 29 -141 76q-7 -8 -20.5 -19t-39 -27.5t-64.5 -27.5t-82 -11q-78 0 -131.5 42.5t-53.5 126.5q0 32 11 62
t27 50.5t38 39t39 29t35 19.5q-35 81 -35 155q0 82 40 129t115 47zM244 20q98 0 178 72q-136 101 -205 240q-47 -24 -86 -66.5t-39 -104.5q0 -66 41.5 -103.5t110.5 -37.5zM321 660q-55 0 -86 -37t-31 -106q0 -72 30 -144q97 50 143 92t46 100q0 44 -27 69.5t-75 25.5z" />
    <glyph glyph-name="quotesingle" unicode="'" horiz-adv-x="190" 
d="M85 526l-7 191q5 3 17 3l17 -3l-7 -191q-3 -2 -10 -2z" />
    <glyph glyph-name="parenleft" unicode="(" horiz-adv-x="283" 
d="M235 807q4 -2 6.5 -5t2.5 -4l1 -2q-6 -8 -15.5 -22t-34.5 -62t-44 -100t-34.5 -131.5t-15.5 -160.5t15 -160t36 -133.5t42 -97.5t36 -64l15 -21q-2 -6 -10 -11l-14 -4q-6 8 -16.5 23.5t-37 65.5t-47 103.5t-37 135.5t-16.5 163t16 162t38.5 137.5t45 101.5t38.5 67l16 23
q6 1 14 -4z" />
    <glyph glyph-name="parenright" unicode=")" horiz-adv-x="283" 
d="M182 320q0 81 -15 160t-36 133.5t-42 97.5t-36 64l-15 21q2 6 10 11l14 4q6 -8 16.5 -23.5t37 -65.5t47 -103.5t37 -135.5t16.5 -163t-16 -162t-38.5 -137.5t-45 -101.5t-38.5 -67l-16 -23q-6 -1 -14 4q-4 2 -6.5 5t-3.5 4v2q6 8 15.5 22t34.5 62t44 100t34.5 131.5
t15.5 160.5z" />
    <glyph glyph-name="asterisk" unicode="*" horiz-adv-x="353" 
d="M232 497l-56 75l-54 -76q-11 4 -21 14l55 78l-87 28q0 14 8 24l87 -28v89q4 2 13 2l12 -2v-89l87 28q8 -8 8 -24l-88 -28l56 -77q-10 -10 -20 -14z" />
    <glyph glyph-name="plus" unicode="+" horiz-adv-x="466" 
d="M218 125v150h-150q-3 4 -3 15l3 15h150v150q4 3 15 3l15 -3v-150h150q3 -4 3 -15l-3 -15h-150v-150q-4 -3 -15 -3z" />
    <glyph glyph-name="comma" unicode="," horiz-adv-x="206" 
d="M80 -94l-16 12q28 28 33 82l-18 3v42q8 3 24 3l24 -3v-32q0 -31 -11.5 -58t-23.5 -38z" />
    <glyph glyph-name="hyphen" unicode="-" horiz-adv-x="354" 
d="M267 275h-180q-3 4 -3 15l3 15h180q3 -4 3 -15z" />
    <glyph glyph-name="period" unicode="." horiz-adv-x="198" 
d="M123 45v-42q-8 -3 -24 -3l-24 3v42q8 3 24 3z" />
    <glyph glyph-name="slash" unicode="/" horiz-adv-x="425" 
d="M25 -44l339 791q6 3 18 3l18 -3l-339 -791q-7 -3 -20 -3z" />
    <glyph glyph-name="zero" unicode="0" horiz-adv-x="621" 
d="M310 660q-102 0 -150.5 -77t-48.5 -243q0 -165 48.5 -242.5t150.5 -77.5q103 0 152 77.5t49 242.5q0 166 -49 243t-152 77zM310 -10q-117 0 -175.5 83.5t-58.5 266.5q0 181 59 265.5t175 84.5q117 0 176.5 -84t59.5 -266t-59.5 -266t-176.5 -84z" />
    <glyph glyph-name="one" unicode="1" horiz-adv-x="387" 
d="M41 518q63 17 117 58t90 101q4 3 15 3l15 -3v-674q-4 -3 -17 -3l-16 3v479q0 79 4 141q-66 -99 -199 -134q-12 11 -9 29z" />
    <glyph glyph-name="two" unicode="2" horiz-adv-x="528" 
d="M97 628q-11 9 -10 26q71 36 182 36q87 0 140 -40.5t53 -128.5q0 -33 -9.5 -60.5t-22.5 -47t-41.5 -42.5t-50.5 -37.5t-67 -41.5q-7 -4 -32 -18.5t-35.5 -22l-31.5 -22.5t-31.5 -29t-23 -33.5t-18 -43t-5.5 -50.5l2 -41h353q3 -4 3 -16l-3 -16h-382q-6 32 -6 67q0 32 5 59
t17.5 49t23.5 37.5t33 32t35 25t40.5 25t38.5 23.5q7 4 34 21t34 21.5t28 19.5t27 22.5t19.5 22.5t17.5 28t8.5 30.5t4.5 36.5q0 140 -164 140q-39 0 -80.5 -8t-63.5 -16z" />
    <glyph glyph-name="three" unicode="3" horiz-adv-x="512" 
d="M440 170q0 -76 -53.5 -128t-169.5 -52q-43 0 -83.5 8t-59.5 16l-18 8q0 18 10 25q84 -26 149 -26q192 0 192 155q0 166 -194 166h-45q-3 4 -3 15l3 15h45q175 0 175 150q0 65 -41.5 102t-123.5 37q-37 0 -73 -6.5t-54 -12.5l-18 -7q-14 7 -12 24q67 31 160 31
q96 0 145.5 -44.5t49.5 -117.5q0 -135 -113 -171q132 -37 132 -187z" />
    <glyph glyph-name="four" unicode="4" horiz-adv-x="573" 
d="M44 215l340 462q5 3 18 3l16 -3v-462h107q3 -4 3 -15l-3 -15h-107v-182q-5 -3 -17 -3l-16 3v182h-341q-3 4 -3 15zM83 215h302v411z" />
    <glyph glyph-name="five" unicode="5" horiz-adv-x="516" 
d="M130 648v-274q39 7 92 7q229 0 229 -199q0 -192 -242 -192q-46 0 -83.5 6t-51.5 12l-15 7q-4 17 9 26q60 -21 136 -21q108 0 160 39.5t52 122.5q0 77 -44.5 122.5t-156.5 45.5q-27 0 -56.5 -3t-45.5 -5l-16 -3v341h325q3 -5 3 -16l-3 -16h-292z" />
    <glyph glyph-name="six" unicode="6" horiz-adv-x="552" 
d="M426 666q0 -8 -3 -14q-265 -26 -307 -289q83 53 177 53q91 0 145.5 -52.5t54.5 -160.5q0 -101 -58 -157t-152 -56q-96 0 -153 66.5t-57 200.5q0 202 94 307t255 116q4 -6 4 -14zM458 203q0 91 -45 137t-122 46q-91 0 -180 -63q-3 -33 -3 -70q0 -117 47.5 -175t127.5 -58
q79 0 127 47t48 136z" />
    <glyph glyph-name="seven" unicode="7" horiz-adv-x="495" 
d="M446 680q3 0 3 -20q0 -52 -14 -98t-37 -83t-50.5 -73.5t-55 -77t-50.5 -85t-37 -106.5t-14 -134q-5 -3 -16 -3l-18 3q0 99 25 180t62 136t74 103.5t65 105.5t32 120h-373q-3 5 -3 16l3 16h404z" />
    <glyph glyph-name="eight" unicode="8" horiz-adv-x="583" 
d="M288 -10q-103 0 -160 47t-57 120q0 42 16 80t42 65t46.5 43t41.5 28q-58 28 -90.5 65.5t-32.5 95.5q0 71 53 113.5t142 42.5q90 0 143 -43t53 -114q0 -69 -37.5 -115.5t-83.5 -72.5q70 -31 109.5 -72.5t39.5 -111.5q0 -78 -58.5 -124.5t-166.5 -46.5zM292 21q89 0 138 39
t49 100q0 25 -6.5 45.5t-21.5 38t-28 29.5t-39.5 25.5t-41.5 20.5t-47.5 20t-45.5 19q-11 -6 -24 -14t-36 -27t-40.5 -40t-30.5 -52t-13 -64q0 -63 47 -101.5t140 -38.5zM289 659q-73 0 -117 -33.5t-44 -89.5q0 -17 3 -32t12 -28.5t15 -23t22.5 -20.5t24.5 -17t30.5 -16
t30 -13.5t34 -14.5t32.5 -13q118 68 118 173q0 60 -43.5 94t-117.5 34z" />
    <glyph glyph-name="nine" unicode="9" horiz-adv-x="552" 
d="M126 14q0 8 3 14q265 26 306 289q-81 -53 -176 -53q-91 0 -145.5 52.5t-54.5 160.5q0 101 58 157t152 56q96 0 153 -66.5t57 -200.5q0 -202 -94 -307t-255 -116q-4 5 -4 14zM94 477q0 -91 45 -137t122 -46q96 0 180 63q3 33 3 70q0 117 -47.5 175t-127.5 58
q-79 0 -127 -47t-48 -136z" />
    <glyph glyph-name="colon" unicode=":" horiz-adv-x="216" 
d="M132 45v-42q-8 -3 -24 -3l-24 3v42q8 3 24 3zM132 440v-42q-8 -3 -24 -3l-24 3v42q8 3 24 3z" />
    <glyph glyph-name="semicolon" unicode=";" horiz-adv-x="236" 
d="M98 -94l-16 12q28 28 33 82l-18 3v42q8 3 24 3l24 -3v-32q0 -31 -11.5 -58t-23.5 -38zM145 440v-42q-8 -3 -24 -3l-24 3v42q8 3 24 3z" />
    <glyph glyph-name="less" unicode="&#x3c;" horiz-adv-x="474" 
d="M385 120l-320 148q-3 8 -3 22l3 21l320 148q3 -4 3 -16l-3 -17l-295 -137l295 -134q3 -6 3 -18z" />
    <glyph glyph-name="equal" unicode="=" horiz-adv-x="510" 
d="M419 358h-328q-3 4 -3 15l3 15h328q3 -4 3 -15zM419 192h-328q-3 3 -3 15l3 15h328q3 -4 3 -15z" />
    <glyph glyph-name="greater" unicode="&#x3e;" horiz-adv-x="474" 
d="M410 268l-320 -148q-3 6 -3 17l3 18l295 134l-295 137q-3 5 -3 17l3 16l320 -148q3 -8 3 -21z" />
    <glyph glyph-name="question" unicode="?" horiz-adv-x="430" 
d="M375 535q0 -40 -10.5 -72.5t-27.5 -54.5t-37 -41t-40.5 -38.5t-37.5 -42.5t-27.5 -56.5t-10.5 -76.5q-5 -4 -15 -4l-14 4q0 64 19 110t46.5 72.5t54.5 51t46 60.5t19 86q0 56 -35 91t-111 35q-38 0 -72.5 -6.5t-49.5 -12.5l-16 -6q-13 8 -11 25q60 31 152 31
q90 0 134 -44t44 -111zM194 45v-42q-8 -3 -24 -3l-24 3v42q8 3 24 3z" />
    <glyph glyph-name="at" unicode="@" horiz-adv-x="916" 
d="M842 303q0 -101 -42.5 -159.5t-121.5 -58.5q-78 0 -98 75q-37 -75 -129 -75q-71 0 -115.5 46t-44.5 147q0 102 44.5 148t115.5 46q85 0 123 -64v61q5 3 14 3l16 -3v-249q0 -109 76 -109q55 0 93.5 47.5t38.5 144.5q0 160 -94.5 255.5t-259.5 95.5q-157 0 -257.5 -102.5
t-100.5 -272.5q0 -92 28 -164t76.5 -115.5t110.5 -65.5t134 -22q154 0 282 87q15 -5 15 -21q-126 -94 -304 -94q-160 0 -266 102.5t-106 292.5q0 181 109 291t279 110q182 0 283 -104t101 -273zM324 278q0 -167 132 -167q53 0 84.5 35t33.5 82v97q0 48 -32 84.5t-86 36.5
q-60 0 -96 -36.5t-36 -131.5z" />
    <glyph glyph-name="A" unicode="A" horiz-adv-x="640" 
d="M581 3l-85 215h-353l-86 -215q-5 -3 -18 -3l-16 3l283 714q4 3 14 3l14 -3l283 -714q-5 -3 -18 -3zM306 631l-151 -381h328l-150 381l-12 38h-2q-4 -14 -13 -38z" />
    <glyph glyph-name="B" unicode="B" horiz-adv-x="626" 
d="M343 0h-236v720h232q104 0 149 -52t45 -134q0 -37 -9.5 -68t-21.5 -48t-27.5 -30t-23.5 -17t-14 -6q35 -12 53 -24q66 -49 66 -152q0 -189 -213 -189zM341 347h-200v-315h201q96 0 137 39.5t41 117.5q0 82 -43 120t-136 38zM141 688v-309h193q163 0 163 155
q0 75 -38 114.5t-128 39.5h-190z" />
    <glyph glyph-name="C" unicode="C" horiz-adv-x="556" 
d="M336 -10q-132 0 -197 91t-65 279q0 370 262 370q48 0 89.5 -8t58.5 -16l18 -8q2 -7 -2 -15q-2 -4 -4.5 -7t-3.5 -4l-2 -1q-58 28 -149 28q-73 0 -122 -29.5t-79 -106.5t-30 -204q0 -96 16 -163t47.5 -104.5t72 -53.5t95.5 -16q44 0 84 7t58 14l18 7q6 -2 10 -11l2 -16
q-59 -33 -177 -33z" />
    <glyph glyph-name="D" unicode="D" horiz-adv-x="658" 
d="M292 688h-151v-656h151q88 0 141.5 27t83.5 100t30 201q0 97 -16 161.5t-49.5 101t-78.5 51t-111 14.5zM296 0h-189v720h189q75 0 126.5 -17t88.5 -58t54.5 -111t17.5 -174t-17.5 -174t-54.5 -111t-88.5 -58t-126.5 -17z" />
    <glyph glyph-name="E" unicode="E" horiz-adv-x="557" 
d="M107 0v720h385q3 -6 3 -16t-3 -16h-351v-307h301q3 -6 3 -15q0 -8 -3 -16h-301v-318h361q3 -8 3 -15q0 -9 -3 -17h-395z" />
    <glyph glyph-name="F" unicode="F" horiz-adv-x="533" 
d="M445 341h-304v-338q-5 -3 -17 -3l-17 3v717h385q3 -5 3 -16l-3 -16h-351v-315h304q3 -6 3 -16z" />
    <glyph glyph-name="G" unicode="G" horiz-adv-x="619" 
d="M347 -10q-133 0 -203 92.5t-70 277.5q0 183 70.5 276.5t202.5 93.5q50 0 95.5 -8t65.5 -16l20 -8q2 -7 -2 -15q-2 -4 -4.5 -6.5l-3.5 -3.5l-2 -1q-73 27 -164 27q-242 0 -242 -340q0 -184 64 -260.5t178 -76.5q72 0 153 19v301h-193q-3 6 -3 16l3 16h227v-352
q-74 -32 -192 -32z" />
    <glyph glyph-name="H" unicode="H" horiz-adv-x="672" 
d="M532 385v332q6 3 17 3l17 -3v-714q-5 -3 -17 -3l-17 3v350h-392v-350q-6 -3 -17 -3l-17 3v714q6 3 17 3l17 -3v-332h392z" />
    <glyph glyph-name="I" unicode="I" horiz-adv-x="246" 
d="M106 3v714q5 3 17 3l17 -3v-714q-5 -3 -17 -3z" />
    <glyph glyph-name="J" unicode="J" horiz-adv-x="418" 
d="M282 154v563q4 3 17 3l17 -3v-563q0 -85 -36 -124.5t-116 -39.5q-33 0 -66.5 7.5t-50.5 14.5l-17 8q-2 19 11 28q58 -26 123 -26q58 0 88 30t30 102z" />
    <glyph glyph-name="K" unicode="K" horiz-adv-x="607" 
d="M140 717v-327h144l230 327q6 3 19 3l19 -3l-239 -340l267 -374q-6 -3 -19 -3l-22 3l-254 355h-145v-355q-6 -3 -17 -3l-17 3v714q6 3 17 3z" />
    <glyph glyph-name="L" unicode="L" horiz-adv-x="502" 
d="M106 0v717q6 3 17 3l17 -3v-685h331q3 -6 3 -16l-3 -16h-365z" />
    <glyph glyph-name="M" unicode="M" horiz-adv-x="842" 
d="M702 3v576l5 104h-2q-11 -27 -37 -69l-238 -407q-6 -3 -16 -3l-16 3l-228 407l-35 69h-2q6 -39 6 -114v-566q-4 -3 -16 -3l-17 3v714q8 3 22 3l23 -3l234 -418l28 -53h2q9 19 30 53l245 418q6 3 23 3l23 -3v-714q-5 -3 -17 -3z" />
    <glyph glyph-name="N" unicode="N" horiz-adv-x="690" 
d="M545 3l-361 588q-15 24 -26.5 45t-15.5 30l-4 9h-2q3 -36 3 -130v-542q-5 -3 -17 -3l-16 3v714q7 3 20 3l19 -3l358 -580l50 -90h2q-4 48 -4 120v550q5 3 17 3l16 -3v-714q-6 -3 -19 -3z" />
    <glyph glyph-name="O" unicode="O" horiz-adv-x="678" 
d="M339 -10q-265 0 -265 370t265 370t265 -370t-265 -370zM339 700q-229 0 -229 -340t229 -340t229 340t-229 340z" />
    <glyph glyph-name="P" unicode="P" horiz-adv-x="598" 
d="M349 309h-208v-306q-5 -3 -17 -3l-17 3v717h242q91 0 142.5 -56t51.5 -150q0 -93 -51.5 -149t-142.5 -56zM141 688v-347h209q74 0 115.5 46t41.5 126q0 82 -41 128.5t-116 46.5h-209z" />
    <glyph glyph-name="Q" unicode="Q" horiz-adv-x="678" 
d="M604 360q0 -231 -104 -318q53 -55 126 -72q-3 -21 -21 -30q-33 8 -69.5 31t-61.5 53q-56 -34 -135 -34q-265 0 -265 370t265 370t265 -370zM339 700q-229 0 -229 -340t229 -340t229 340t-229 340z" />
    <glyph glyph-name="R" unicode="R" horiz-adv-x="615" 
d="M141 688v-685q-5 -3 -17 -3l-17 3v717h236q91 0 143 -53.5t52 -143.5t-52 -143.5t-144 -53.5h-216v32h219q73 0 115 44t42 121t-42 121t-115 44h-204zM387 335l175 -332q-7 -3 -19 -3l-21 3l-170 323z" />
    <glyph glyph-name="S" unicode="S" horiz-adv-x="560" 
d="M298 699q-96 0 -145 -42t-49 -115q0 -32 10.5 -56.5t24 -39.5t43 -28.5t50 -19.5t62.5 -17q38 -10 61.5 -17.5t54.5 -23.5t48 -35t29.5 -50.5t12.5 -71.5q0 -90 -62 -141.5t-171 -51.5q-53 0 -102.5 9t-72.5 19l-23 9q-2 18 10 28q87 -32 183 -32t149.5 41t53.5 118
q0 40 -13.5 68.5t-43 46.5t-55 27.5t-69.5 21.5t-65 18.5t-55.5 22.5t-51 34t-30 48.5t-13.5 70.5q0 88 59 139t166 51q48 0 93 -6t66 -12l21 -6q1 -18 -10 -28q-77 21 -166 21z" />
    <glyph glyph-name="T" unicode="T" horiz-adv-x="528" 
d="M36 720h457q3 -4 3 -15l-3 -16h-209v-686q-5 -3 -17 -3l-17 3v686h-214q-3 6 -3 16z" />
    <glyph glyph-name="U" unicode="U" horiz-adv-x="663" 
d="M562 717v-495q0 -110 -63 -171t-168 -61t-167.5 61.5t-62.5 170.5v495q6 3 17 3l17 -3v-499q0 -94 52.5 -146t145.5 -52t144.5 52t51.5 146v499q6 3 16 3z" />
    <glyph glyph-name="V" unicode="V" horiz-adv-x="608" 
d="M63 717l223 -610l17 -56h2q4 23 16 55l223 611q5 3 18 3l17 -3l-261 -714q-4 -3 -14 -3l-14 3l-261 714q4 3 17 3z" />
    <glyph glyph-name="W" unicode="W" horiz-adv-x="943" 
d="M671 3l-176 577q-8 26 -12.5 47t-5.5 29l-1 8h-2q-2 -25 -19 -84l-177 -577q-5 -3 -14 -3l-14 3l-218 714q5 3 17 3l18 -3l175 -574q8 -24 13.5 -47t6.5 -34l2 -11h2q3 37 20 92l176 574q3 3 14 3l14 -3l175 -574q7 -24 12 -47t6 -34l1 -11h2q4 37 21 92l166 574
q4 3 17 3l16 -3l-207 -714q-4 -3 -14 -3z" />
    <glyph glyph-name="X" unicode="X" horiz-adv-x="591" 
d="M547 717l-229 -348l237 -366q-7 -3 -21 -3l-22 3l-221 341l-213 -341q-8 -3 -22 -3l-19 3l230 365l-225 349q7 3 22 3l20 -3l209 -325l212 325q7 3 21 3z" />
    <glyph glyph-name="Y" unicode="Y" horiz-adv-x="614" 
d="M28 717q7 3 21 3l20 -3l237 -375l245 375q5 3 19 3l21 -3l-268 -412v-302q-6 -3 -17 -3l-17 3v301z" />
    <glyph glyph-name="Z" unicode="Z" horiz-adv-x="575" 
d="M73 720h439q3 -6 3 -16l-3 -16l-426 -656h439q3 -5 3 -16l-3 -16h-479q-3 5 -3 16l3 16l427 656h-400q-3 5 -3 16z" />
    <glyph glyph-name="bracketleft" unicode="[" horiz-adv-x="313" 
d="M106 810h163q3 -5 3 -17l-3 -17h-129v-912h129q3 -5 3 -16l-3 -18h-163v980z" />
    <glyph glyph-name="backslash" unicode="\" horiz-adv-x="422" 
d="M61 746l337 -789q-5 -4 -18 -4l-19 4l-337 789q5 4 18 4z" />
    <glyph glyph-name="bracketright" unicode="]" horiz-adv-x="313" 
d="M44 810h163v-980h-163q-3 5 -3 18l3 16h129v912h-129q-3 5 -3 17z" />
    <glyph glyph-name="asciicircum" unicode="^" horiz-adv-x="517" 
d="M277 717l176 -262q-4 -3 -19 -3l-20 3l-157 235l-157 -235q-3 -3 -18 -3l-19 3l176 262q4 3 19 3z" />
    <glyph glyph-name="underscore" unicode="_" horiz-adv-x="518" 
d="M460 -48h-400q-3 3 -3 14l3 14h400q3 -3 3 -14z" />
    <glyph glyph-name="grave" unicode="`" horiz-adv-x="238" 
d="M174 643l-125 147q11 17 32 17l117 -150q-6 -13 -24 -14z" />
    <glyph glyph-name="a" unicode="a" horiz-adv-x="510" 
d="M391 284v78q0 77 -34.5 111t-104.5 34q-36 0 -73 -6.5t-56 -13.5l-19 -7q-13 10 -11 27q77 29 163 29q100 0 133.5 -50.5t33.5 -162.5v-320q-4 -3 -13 -3l-13 3l-6 90v1q-23 -50 -70.5 -77t-112.5 -27q-70 0 -112.5 40.5t-42.5 110.5q0 73 45.5 113t138.5 40
q84 0 154 -10zM87 141q0 -60 33.5 -90.5t91.5 -30.5q78 0 128.5 50.5t50.5 137.5v47q-105 10 -148 10q-156 0 -156 -124z" />
    <glyph glyph-name="b" unicode="b" horiz-adv-x="554" 
d="M123 747v-308q49 97 167 97q97 0 147 -63t50 -210t-50 -210t-147 -63q-118 0 -167 97v-84q-4 -3 -16 -3l-16 3v744q4 3 16 3zM453 263q0 129 -39.5 186t-131.5 57q-73 0 -115 -53t-44 -121v-132q0 -69 42.5 -124.5t116.5 -55.5q92 0 131.5 57t39.5 186z" />
    <glyph glyph-name="c" unicode="c" horiz-adv-x="445" 
d="M279 505q-180 0 -180 -242q0 -240 184 -240q28 0 54 5.5t37 11.5l12 6q12 -8 14 -27q-48 -29 -128 -29q-99 0 -153 70t-54 203t54 203t153 70q34 0 63 -6t41 -12l12 -5q0 -19 -12 -28q-37 20 -97 20z" />
    <glyph glyph-name="d" unicode="d" horiz-adv-x="554" 
d="M431 439v308q4 3 16 3l16 -3v-744q-4 -3 -13 -3l-13 3l-5 85q-50 -98 -168 -98q-97 0 -147 63t-50 210t50 210t147 63q118 0 167 -97zM431 326q0 69 -42.5 124.5t-116.5 55.5q-92 0 -131.5 -57t-39.5 -186t39.5 -186t131.5 -57q74 0 116.5 55.5t42.5 124.5v126z" />
    <glyph glyph-name="e" unicode="e" horiz-adv-x="508" 
d="M438 252h-339q4 -121 47 -175t131 -54q37 0 69 10t46 20l14 10q15 -9 17 -27q-6 -5 -17.5 -12.5t-52 -20.5t-86.5 -13q-98 0 -150 70.5t-52 205.5q0 136 55 203t150 67q86 0 132.5 -51t46.5 -133q0 -27 -2.5 -52t-5.5 -36zM415 357q0 64 -36 106.5t-109 42.5
q-78 0 -123 -55t-48 -169h310q6 28 6 75z" />
    <glyph glyph-name="f" unicode="f" horiz-adv-x="336" 
d="M304 496h-164v-493q-4 -3 -16 -3l-16 3v493h-64q-3 4 -3 15l3 15h64v60q0 80 31.5 122t113.5 42q22 0 44 -3t33 -6l12 -3q3 -17 -9 -28q-32 10 -75 10q-70 0 -94 -31t-24 -98v-65h164q3 -4 3 -15z" />
    <glyph glyph-name="g" unicode="g" horiz-adv-x="516" 
d="M154 215q-85 40 -85 151q0 80 47 125t131 45q59 0 104 -24l129 23q8 -17 0 -36l-99 -11q44 -44 44 -122q0 -79 -46.5 -124t-131.5 -45q-36 0 -66 8q-38 -45 -38 -95q0 -32 34.5 -46.5t84 -19t99 -12.5t84 -37.5t34.5 -84.5q0 -68 -62 -114t-177 -46q-97 0 -145.5 41
t-48.5 105q0 38 18.5 73t35 51t34.5 29q-26 21 -26 58q0 47 46 108zM240 -221q92 0 149 35.5t57 92.5q0 37 -19.5 59.5t-53.5 31.5t-69 13t-76.5 9t-65.5 14q-38 -25 -59 -61t-21 -72q0 -57 41 -89.5t117 -32.5zM247 508q-66 0 -105 -36.5t-39 -104.5q0 -69 39 -105.5
t105 -36.5t105 36.5t39 105.5q0 68 -39 104.5t-105 36.5z" />
    <glyph glyph-name="h" unicode="h" 
d="M461 388v-385q-5 -3 -16 -3l-16 3v377q0 127 -129 127q-54 0 -103 -35.5t-74 -95.5v-373q-5 -3 -16 -3l-16 3v744q5 3 16 3l16 -3v-312q66 101 187 101q70 0 110.5 -40t40.5 -108z" />
    <glyph glyph-name="i" unicode="i" horiz-adv-x="220" 
d="M126 523v-520q-4 -3 -16 -3l-16 3v520q4 3 16 3zM134 681v-42q-8 -3 -24 -3l-24 3v42q8 3 24 3z" />
    <glyph glyph-name="j" unicode="j" horiz-adv-x="220" 
d="M94 -92v615q4 3 16 3l16 -3v-611q0 -162 -131 -162q-19 0 -33 2t-18 4l-5 3q-1 3 -1 8l4 16q16 -4 45 -4q55 0 81 30.5t26 98.5zM134 681v-42q-8 -3 -24 -3l-24 3v42q8 3 24 3z" />
    <glyph glyph-name="k" unicode="k" horiz-adv-x="494" 
d="M123 747v-457h123l164 233q6 3 21 3l16 -2l-174 -247l198 -273q-5 -4 -19 -4l-21 4l-185 256h-123v-257q-4 -3 -16 -3l-16 3v744q4 3 16 3z" />
    <glyph glyph-name="l" unicode="l" horiz-adv-x="224" 
d="M128 747v-744q-4 -3 -16 -3l-16 3v744q4 3 16 3z" />
    <glyph glyph-name="m" unicode="m" horiz-adv-x="843" 
d="M756 388v-385q-5 -3 -16 -3l-16 3v377q0 127 -118 127q-51 0 -97 -36t-70 -98v-370q-5 -3 -16 -3l-16 3v377q0 127 -118 127q-50 0 -96 -35.5t-70 -95.5v-373q-5 -3 -16 -3l-16 3v520q5 3 16 3l16 -3v-87q63 100 176 100q29 0 50 -7q69 -23 86 -101q63 108 181 108
q65 0 102.5 -40t37.5 -108z" />
    <glyph glyph-name="n" unicode="n" 
d="M461 388v-385q-5 -3 -16 -3l-16 3v377q0 127 -129 127q-54 0 -103 -35.5t-74 -95.5v-373q-5 -3 -16 -3l-16 3v520q5 3 16 3l16 -3v-88q66 101 187 101q70 0 110.5 -40t40.5 -108z" />
    <glyph glyph-name="o" unicode="o" horiz-adv-x="538" 
d="M269 -10q-100 0 -151.5 64.5t-51.5 208.5t51.5 208.5t151.5 64.5t151.5 -64.5t51.5 -208.5t-51.5 -208.5t-151.5 -64.5zM269 507q-83 0 -126 -55.5t-43 -188.5t43 -188.5t126 -55.5t126 55.5t43 188.5t-43 188.5t-126 55.5z" />
    <glyph glyph-name="p" unicode="p" horiz-adv-x="554" 
d="M123 87v-334q-4 -3 -16 -3l-16 3v770q4 3 16 3l16 -3v-84q49 97 167 97q97 0 147 -63t50 -210t-50 -210t-147 -63q-118 0 -167 97zM123 200q0 -69 42.5 -124.5t116.5 -55.5q92 0 131.5 57t39.5 186t-39.5 186t-131.5 57q-73 0 -115 -53t-44 -121v-132z" />
    <glyph glyph-name="q" unicode="q" horiz-adv-x="554" 
d="M431 -247v334q-49 -97 -167 -97q-97 0 -147 63t-50 210t50 210t147 63q118 0 167 -97v84q4 3 16 3l16 -3v-770q-4 -3 -16 -3zM101 263q0 -129 39.5 -186t131.5 -57q72 0 114.5 53t44.5 121v138q-3 68 -45 121t-114 53q-92 0 -131.5 -57t-39.5 -186z" />
    <glyph glyph-name="r" unicode="r" horiz-adv-x="386" 
d="M123 423q63 112 153 112q23 0 44 -5.5t30 -11.5l9 -5q-2 -19 -17 -27q-36 18 -75 18q-74 0 -144 -136v-365q-4 -3 -16 -3l-16 3v520q4 3 16 3l16 -3v-100z" />
    <glyph glyph-name="s" unicode="s" horiz-adv-x="441" 
d="M62 392q0 66 44 105t129 39q33 0 64.5 -5.5t46.5 -10.5l15 -6q2 -17 -11 -26q-50 18 -112 18q-70 0 -106 -29t-36 -84q0 -45 32.5 -68t90.5 -39q86 -24 114 -44q54 -36 54 -107q0 -68 -44.5 -106.5t-129.5 -38.5q-42 0 -79.5 8t-54.5 16l-17 7q-2 17 10 25
q65 -26 138 -26q63 0 102.5 28t39.5 85q0 20 -4.5 36t-17.5 28.5t-20.5 19.5t-31.5 15t-31 10.5t-36 10.5q-32 9 -54.5 18t-46 24.5t-36 40t-12.5 56.5z" />
    <glyph glyph-name="t" unicode="t" horiz-adv-x="351" 
d="M311 496h-161v-324q0 -81 24.5 -116.5t89.5 -35.5l59 6q4 -5 4 -15l-2 -13q-27 -8 -67 -8q-79 0 -109.5 45t-30.5 137v324h-81q-3 4 -3 15l3 15h81v102q12 11 32 9v-111h161q4 -4 4 -15z" />
    <glyph glyph-name="u" unicode="u" 
d="M87 138v385q5 3 16 3l16 -3v-377q0 -127 129 -127q53 0 102 35t75 96v373q5 3 16 3l16 -3v-520q-5 -3 -16 -3l-16 3v88q-68 -101 -187 -101q-70 0 -110.5 40t-40.5 108z" />
    <glyph glyph-name="v" unicode="v" horiz-adv-x="498" 
d="M67 523l150 -380l32 -96h2q11 39 32 94l148 382q4 3 16 3l17 -3l-201 -520q-4 -3 -13 -3l-13 3l-205 520q5 3 18 3z" />
    <glyph glyph-name="w" unicode="w" horiz-adv-x="791" 
d="M557 3l-124 357l-35 119h-3q-6 -29 -38 -119l-123 -357q-4 -3 -13 -3l-13 3l-173 520q5 3 17 3l17 -3l131 -395q8 -23 13 -42.5t6 -27.5l1 -9h3q5 30 22 79l136 395q4 3 15 3l16 -3l136 -393q8 -23 13 -43t6 -29l1 -9h3q5 28 22 81l130 393q5 3 16 3l16 -3l-172 -520
q-4 -3 -13 -3z" />
    <glyph glyph-name="x" unicode="x" horiz-adv-x="483" 
d="M33 3l187 265l-183 255q5 3 19 3l20 -3l168 -233l164 233q3 3 19 3l19 -3l-184 -259l188 -261q-5 -3 -19 -3l-20 3l-172 239l-168 -239q-4 -3 -21 -3z" />
    <glyph glyph-name="y" unicode="y" horiz-adv-x="520" 
d="M486 523l-238 -650q-23 -63 -49 -93t-71 -30q-12 0 -23.5 1.5t-16.5 2.5l-6 2q-3 6 -3 14q0 10 4 15q16 -5 42 -5q29 0 50 23.5t42 80.5l43 117q-11 5 -13 7l-215 515q6 3 18 3l18 -3l166 -398l36 -93h3q13 40 32 92l146 399q4 3 17 3z" />
    <glyph glyph-name="z" unicode="z" horiz-adv-x="449" 
d="M391 496l-308 -466h312q3 -3 3 -15l-3 -15h-349q-3 3 -3 15l3 15l309 466h-284q-3 3 -3 15l3 15h320q3 -4 3 -15z" />
    <glyph glyph-name="braceleft" unicode="{" horiz-adv-x="336" 
d="M77 318h-35q-3 6 -3 16l3 17h35q21 0 31.5 15t10.5 37v274q0 62 34 97.5t99 35.5h40q3 -6 3 -16l-3 -16h-35q-104 0 -104 -103v-254q0 -66 -30 -86q30 -20 30 -87v-254q0 -103 104 -103h35q3 -4 3 -15l-3 -17h-40q-65 0 -99 35.5t-34 97.5v274q0 22 -10.5 37t-31.5 15z
" />
    <glyph glyph-name="bar" unicode="|" horiz-adv-x="244" 
d="M138 787v-981q-4 -3 -16 -3l-16 3v981q4 3 16 3z" />
    <glyph glyph-name="braceright" unicode="}" horiz-adv-x="336" 
d="M259 351h35q3 -6 3 -16l-3 -17h-35q-21 0 -31.5 -15t-10.5 -37v-274q0 -62 -34 -97.5t-99 -35.5h-40q-3 6 -3 16l3 16h35q104 0 104 103v254q0 66 30 86q-30 20 -30 87v254q0 103 -104 103h-35q-3 4 -3 15l3 17h40q65 0 99 -35.5t34 -97.5v-274q0 -22 10.5 -37t31.5 -15z
" />
    <glyph glyph-name="asciitilde" unicode="~" horiz-adv-x="538" 
d="M188 315q-21 0 -40.5 -9t-28.5 -18l-9 -9q-19 3 -22 22q4 5 11 13t34 21t59 13q33 0 79.5 -25.5t77.5 -25.5q21 0 40.5 9t28.5 18l9 9q18 -3 24 -20q-3 -5 -10.5 -13.5t-34.5 -22t-61 -13.5q-33 0 -79.5 25.5t-77.5 25.5z" />
    <glyph glyph-name="exclamdown" unicode="&#xa1;" horiz-adv-x="224" 
d="M95 -199l5 564q2 4 12 4l12 -4l5 -564l-1 -2q-3 -1 -16 -1q-18 0 -17 3zM136 515v-42q-8 -3 -24 -3l-24 3v42q8 3 24 3z" />
    <glyph glyph-name="cent" unicode="&#xa2;" horiz-adv-x="466" 
d="M291 627l-5 -109h-25l-5 109q9 3 18 3q10 0 17 -3zM256 -101l5 109h25l5 -109q-8 -4 -18 -4t-17 4zM285 505q-180 0 -180 -242q0 -240 184 -240q28 0 54 5.5t37 11.5l12 6q12 -8 14 -27q-48 -29 -128 -29q-99 0 -153 70t-54 203t54 203t153 70q34 0 63 -6t41 -12l12 -5
q0 -19 -12 -28q-37 20 -97 20z" />
    <glyph glyph-name="sterling" unicode="&#xa3;" horiz-adv-x="512" 
d="M379 321h-190q16 -53 19.5 -94.5t-15.5 -94.5t-67 -100h320q4 -5 4 -16t-4 -16h-370v32q42 37 65 74t26.5 75t-1 68.5t-17.5 71.5h-83q-4 8 -4 16q0 11 4 16h73q-38 106 -38 163q0 88 53 131.5t146 43.5q37 0 73.5 -6.5t54.5 -12.5l19 -6q2 -19 -12 -27q-59 21 -134 21
q-164 0 -164 -147q0 -15 2 -30t7.5 -33.5t8.5 -29t11.5 -35.5t11.5 -32h201q4 -8 4 -15q0 -10 -4 -17z" />
    <glyph glyph-name="currency" unicode="&#xa4;" horiz-adv-x="588" 
d="M493 51l-75 75q-53 -45 -123 -45q-71 0 -124 45l-74 -75q-6 0 -14 9q-4 3 -6 6.5t-2 5.5v1l75 74q-45 53 -45 124q0 72 46 124l-76 74q1 7 8 14l14 7l76 -73q54 44 122 44q69 0 122 -45l73 74q5 0 14 -7l8 -14l-73 -74q46 -54 46 -124q0 -72 -46 -124l75 -74q0 -6 -7 -13
zM295 431q-67 0 -113.5 -46.5t-46.5 -113.5t46.5 -113.5t113.5 -46.5t113.5 46.5t46.5 113.5t-46.5 113.5t-113.5 46.5z" />
    <glyph glyph-name="yen" unicode="&#xa5;" horiz-adv-x="605" 
d="M566 681l-242 -382h164q3 -5 3 -14l-3 -14h-174v-82h174q3 -5 3 -14l-3 -14h-174v-158q-3 -3 -16 -3l-16 3v158h-174q-3 5 -3 14l3 14h174v82h-174q-3 5 -3 14l3 14h164l-230 382q5 3 17 3l19 -3l220 -366l232 366q5 3 18 3z" />
    <glyph glyph-name="brokenbar" unicode="&#xa6;" horiz-adv-x="242" 
d="M104 -194v441q5 3 17 3l17 -3v-441q-5 -3 -17 -3zM104 356v441q5 3 17 3l17 -3v-441q-5 -3 -17 -3z" />
    <glyph glyph-name="section" unicode="&#xa7;" horiz-adv-x="484" 
d="M378 117q0 33 -31 54.5t-76 34.5t-89.5 27t-75.5 42.5t-31 71.5q0 77 86 121q-76 35 -76 104q0 58 41.5 88t119.5 30q36 0 69.5 -5t48.5 -11l16 -5q4 -18 -9 -27q-60 18 -116 18q-75 0 -105 -22.5t-30 -64.5q0 -34 29.5 -57t72 -36t84.5 -27.5t71.5 -42t29.5 -69.5
q0 -75 -78 -119q84 -36 84 -105q0 -127 -185 -127q-39 0 -77 6t-56 12l-18 6q-2 18 9 29q72 -20 134 -20q83 0 120.5 22.5t37.5 71.5zM193 455q-83 -41 -83 -104q0 -19 8.5 -34t19.5 -24.5t32.5 -19t37 -14.5t44 -12.5t42.5 -12.5q78 41 78 103q0 21 -9.5 37t-31 28t-39 19
t-51 17.5t-48.5 16.5z" />
    <glyph glyph-name="dieresis" unicode="&#xa8;" horiz-adv-x="455" 
d="M177 656v-42q-8 -3 -24 -3l-24 3v42q8 3 24 3zM318 656v-42q-8 -3 -24 -3l-24 3v42q8 3 24 3z" />
    <glyph glyph-name="copyright" unicode="&#xa9;" horiz-adv-x="809" 
d="M405 5q-139 0 -237 98t-98 237t98 236.5t237 97.5t236.5 -97.5t97.5 -236.5t-97.5 -237t-236.5 -98zM405 646q-127 0 -217 -89.5t-90 -216.5t90 -217t217 -90t216.5 90t89.5 217t-89.5 216.5t-216.5 89.5zM406 147q-83 0 -125 51.5t-42 148.5q0 199 167 199q29 0 54 -5.5
t36 -10.5l10 -6q0 -14 -11 -22q-39 18 -84 18q-75 0 -108.5 -40.5t-33.5 -132.5q0 -173 142 -173q22 0 44 4t33 8l12 5q9 -5 11 -21q-36 -23 -105 -23z" />
    <glyph glyph-name="ordfeminine" unicode="&#xaa;" horiz-adv-x="360" 
d="M158 296q-43 0 -69 25t-26 68q0 93 112 93q46 0 91 -6v46q0 46 -20 66t-62 20q-21 0 -43.5 -4t-34.5 -8l-11 -4q-9 7 -7 20q47 18 99 18q102 0 102 -102v-223q-3 -2 -9 -2l-10 2l-4 47q-31 -56 -108 -56zM286 223h-220q-2 4 -2 11l2 10h220q2 -4 2 -10zM87 389
q0 -71 73 -71q46 0 75.5 27.5t30.5 77.5v33q-75 5 -87 5q-92 0 -92 -72z" />
    <glyph glyph-name="guillemotleft" unicode="&#xab;" horiz-adv-x="486" 
d="M58 284l207 225q13 -7 13 -25l-194 -214l194 -215q0 -19 -13 -25l-207 226q-3 5 -3 14zM218 283l187 204q12 -6 12 -24l-172 -193l172 -194q0 -18 -12 -24l-187 205q-2 4 -2 13z" />
    <glyph glyph-name="logicalnot" unicode="&#xac;" horiz-adv-x="602" 
d="M511 439v-250q-5 -3 -15 -3l-15 3v220h-410q-3 5 -3 15l3 15h440z" />
    <glyph glyph-name="uni00AD" unicode="&#xad;" horiz-adv-x="280" 
 />
    <glyph glyph-name="registered" unicode="&#xae;" horiz-adv-x="542" 
d="M271 266q-85 0 -145 60t-60 145t60 145t145 60t145 -60t60 -145t-60 -145t-145 -60zM271 659q-77 0 -132 -55t-55 -133t55 -133t132 -55q78 0 132.5 55t54.5 133t-54.5 133t-132.5 55zM288 589q70 0 70 -65q0 -47 -44 -60l58 -100q-3 -3 -10 -3l-11 2l-57 99h-74v-99
q-3 -2 -9 -2l-9 2v226h86zM220 572v-93h69q50 0 50 45q0 25 -11.5 36.5t-38.5 11.5h-69z" />
    <glyph glyph-name="macron" unicode="&#xaf;" horiz-adv-x="407" 
d="M338 630h-283q-4 7 -4 16t4 16h283q4 -5 4 -15t-4 -17z" />
    <glyph glyph-name="degree" unicode="&#xb0;" horiz-adv-x="366" 
d="M281 619q0 41 -25 69.5t-72 28.5t-73 -29.5t-26 -69.5t25.5 -68t73.5 -28q47 0 72 28t25 69zM65 617q0 47 32 83t88 36q55 0 85.5 -34.5t30.5 -81.5t-30.5 -82t-85.5 -35q-58 0 -89 33.5t-31 80.5z" />
    <glyph glyph-name="plusminus" unicode="&#xb1;" horiz-adv-x="512" 
d="M241 267v120h-150q-3 4 -3 15l3 15h150v120q4 3 15 3l15 -3v-120h150q3 -4 3 -15l-3 -15h-150v-120q-4 -3 -15 -3zM421 149h-330q-3 4 -3 15l3 15h330q3 -4 3 -15z" />
    <glyph glyph-name="twosuperior" unicode="&#xb2;" horiz-adv-x="301" 
d="M38 387q0 38 20 64t48 40.5t56.5 27.5t48.5 33.5t20 49.5q0 70 -90 70q-17 0 -35.5 -2.5t-29.5 -5.5l-10 -2q-6 10 -5 20q33 12 83 12q111 0 111 -90q0 -37 -21.5 -62t-51.5 -39t-59.5 -29t-47.5 -41t-13 -64h191q3 -5 3 -12t-3 -11h-211q-4 18 -4 41z" />
    <glyph glyph-name="threesuperior" unicode="&#xb3;" horiz-adv-x="301" 
d="M257 438q0 -97 -130 -97q-22 0 -43 3.5t-32 6.5l-10 3q-2 12 6 18q35 -10 78 -10q63 0 85 21t22 55q0 39 -24.5 58t-64.5 19h-43q-5 11 0 22h43q37 0 57 18t20 50q0 67 -84 67q-21 0 -41 -2t-30 -4l-10 -3q-7 8 -5 19q35 12 86 12q108 0 108 -88q0 -56 -48 -79
q30 -12 45 -31.5t15 -57.5z" />
    <glyph glyph-name="acute" unicode="&#xb4;" horiz-adv-x="224" 
d="M182 790l-125 -147q-18 1 -24 14l117 150q21 0 32 -17z" />
    <glyph glyph-name="mu" unicode="&#xb5;" horiz-adv-x="575" 
d="M101 -14v537q4 3 16 3l16 -3v-379q0 -125 130 -125q59 0 107 38.5t69 91.5v374q4 3 16 3l16 -3v-520q-4 -3 -16 -3l-16 3v89q-67 -102 -183 -102q-84 0 -125 51q1 -101 8 -171.5t13 -90.5l6 -20q-13 -13 -35 -8q-22 68 -22 235z" />
    <glyph glyph-name="paragraph" unicode="&#xb6;" horiz-adv-x="433" 
d="M324 696v-920q-4 -3 -15 -3l-15 3v920q4 3 15 3zM136 -224v742q-42 1 -64.5 27.5t-22.5 63.5q1 37 24.5 63.5t65.5 26.5h27v-923q-4 -3 -15 -3z" />
    <glyph glyph-name="periodcentered" unicode="&#xb7;" horiz-adv-x="216" 
d="M132 305v-42q-8 -3 -24 -3l-24 3v42q8 3 24 3z" />
    <glyph glyph-name="cedilla" unicode="&#xb8;" horiz-adv-x="296" 
d="M113 -54l-7 8l15 85l27 -2l-11 -63q113 0 113 -88q0 -97 -112 -97q-22 0 -44 5.5t-32 11.5l-11 6q1 14 11 22q33 -18 77 -18q78 0 78 70q0 60 -73 60h-31z" />
    <glyph glyph-name="onesuperior" unicode="&#xb9;" horiz-adv-x="240" 
d="M33 614q69 18 118 73q4 2 12 2q9 0 11 -2v-339q-4 -2 -11 -2q-8 0 -12 2v266q0 29 1 41q-49 -44 -114 -61q-9 7 -5 20z" />
    <glyph glyph-name="ordmasculine" unicode="&#xba;" horiz-adv-x="379" 
d="M189 295q-65 0 -95 40.5t-30 127.5q0 86 30 126.5t95 40.5q64 0 95 -40t31 -127t-31 -127.5t-95 -40.5zM189 608q-54 0 -77.5 -34.5t-23.5 -110.5q0 -78 23.5 -112t77.5 -34t78 34.5t24 111.5q0 76 -24 110.5t-78 34.5zM302 223h-226q-2 4 -2 11l2 10h226q2 -3 2 -10z
" />
    <glyph glyph-name="guillemotright" unicode="&#xbb;" horiz-adv-x="486" 
d="M222 509l207 -225q3 -5 3 -14l-3 -14l-207 -226q-13 6 -13 25l194 215l-194 214q0 18 13 25zM82 487l187 -204q2 -4 2 -13l-2 -13l-187 -205q-12 6 -12 24l172 194l-172 193q0 18 12 24z" />
    <glyph glyph-name="onequarter" unicode="&#xbc;" horiz-adv-x="640" 
d="M113 -8l389 707q4 3 13 3l12 -3l-388 -707q-4 -2 -13 -2zM43 614q69 18 118 73q4 2 12 2q9 0 11 -2v-339q-4 -2 -11 -2q-8 0 -12 2v266q0 29 1 41q-49 -44 -114 -61q-9 7 -5 20zM544 120h43q2 -4 2 -11l-2 -12h-43v-95q-3 -2 -11 -2l-12 2v95h-184q-2 2 -2 7l2 8l183 229
q3 2 12 2l12 -2v-221zM371 120h150v187z" />
    <glyph glyph-name="onehalf" unicode="&#xbd;" horiz-adv-x="701" 
d="M113 -8l389 707q4 3 13 3l12 -3l-388 -707q-4 -2 -13 -2zM43 614q69 18 118 73q4 2 12 2q9 0 11 -2v-339q-4 -2 -11 -2q-8 0 -12 2v266q0 29 1 41q-49 -44 -114 -61q-9 7 -5 20zM425 41q0 38 20 64t48.5 40.5t56.5 27.5t48 33.5t20 49.5q0 70 -90 70q-17 0 -35.5 -2.5
t-28.5 -5.5l-11 -2q-6 10 -5 20q33 12 83 12q111 0 111 -90q0 -37 -21.5 -62t-51.5 -39t-59.5 -29t-47.5 -41t-13 -64h191q3 -4 3 -12q0 -7 -3 -11h-211q-4 18 -4 41z" />
    <glyph glyph-name="threequarters" unicode="&#xbe;" horiz-adv-x="698" 
d="M172 -8l389 707q4 3 13 3l12 -3l-388 -707q-4 -2 -13 -2zM275 438q0 -97 -130 -97q-22 0 -43 3.5t-32 6.5l-10 3q-2 12 6 18q35 -10 78 -10q63 0 85 21t22 55q0 39 -24.5 58t-64.5 19h-43q-5 11 0 22h43q37 0 57 18t20 50q0 67 -84 67q-21 0 -41 -2t-30 -4l-10 -3
q-7 8 -5 19q35 12 86 12q108 0 108 -88q0 -56 -48 -79q30 -12 45 -31.5t15 -57.5zM603 120h43q2 -4 2 -11l-2 -12h-43v-95q-3 -2 -11 -2l-12 2v95h-184q-2 2 -2 7l2 8l183 229q3 2 12 2l12 -2v-221zM430 120h150v187z" />
    <glyph glyph-name="questiondown" unicode="&#xbf;" horiz-adv-x="420" 
d="M52 -15q0 55 19.5 95.5t48 66t56.5 52t47.5 68.5t19.5 100q5 4 15 4l14 -4q0 -64 -19 -110t-46 -72.5t-54.5 -51t-46.5 -60.5t-19 -86q0 -56 35 -91t111 -35q38 0 72.5 6t50.5 13l15 6q13 -8 11 -25q-60 -31 -152 -31q-90 0 -134 44t-44 111zM233 475v42q8 3 24 3l24 -3
v-42q-8 -3 -24 -3z" />
    <glyph glyph-name="Agrave" unicode="&#xc0;" horiz-adv-x="640" 
d="M581 3l-85 215h-353l-86 -215q-5 -3 -18 -3l-16 3l283 714q4 3 14 3l14 -3l283 -714q-5 -3 -18 -3zM306 631l-151 -381h328l-150 381l-12 38h-2q-4 -14 -13 -38zM345 757l-125 147q11 17 32 17l117 -150q-6 -13 -24 -14z" />
    <glyph glyph-name="Aacute" unicode="&#xc1;" horiz-adv-x="640" 
d="M581 3l-85 215h-353l-86 -215q-5 -3 -18 -3l-16 3l283 714q4 3 14 3l14 -3l283 -714q-5 -3 -18 -3zM306 631l-151 -381h328l-150 381l-12 38h-2q-4 -14 -13 -38zM426 905l-125 -147q-18 1 -24 14l117 150q21 0 32 -17z" />
    <glyph glyph-name="Acircumflex" unicode="&#xc2;" horiz-adv-x="640" 
d="M581 3l-85 215h-353l-86 -215q-5 -3 -18 -3l-16 3l283 714q4 3 14 3l14 -3l283 -714q-5 -3 -18 -3zM306 631l-151 -381h328l-150 381l-12 38h-2q-4 -14 -13 -38zM307 893h26l123 -101q-3 -17 -16 -20l-121 90l-119 -91q-14 6 -17 21z" />
    <glyph glyph-name="Atilde" unicode="&#xc3;" horiz-adv-x="640" 
d="M581 3l-85 215h-353l-86 -215q-5 -3 -18 -3l-16 3l283 714q4 3 14 3l14 -3l283 -714q-5 -3 -18 -3zM306 631l-151 -381h328l-150 381l-12 38h-2q-4 -14 -13 -38zM376 806q12 0 22 7t14 15l3 7q17 2 26 -11q-2 -5 -6.5 -13t-22.5 -21t-41 -13q-25 0 -57 18t-50 18
q-12 0 -22 -7.5t-14 -15.5l-3 -7q-19 -2 -26 11q2 5 6.5 13t22.5 21.5t41 13.5q25 0 57 -18t50 -18z" />
    <glyph glyph-name="Adieresis" unicode="&#xc4;" horiz-adv-x="640" 
d="M581 3l-85 215h-353l-86 -215q-5 -3 -18 -3l-16 3l283 714q4 3 14 3l14 -3l283 -714q-5 -3 -18 -3zM306 631l-151 -381h328l-150 381l-12 38h-2q-4 -14 -13 -38zM273 835v-42q-8 -3 -24 -3l-24 3v42q8 3 24 3zM414 835v-42q-8 -3 -24 -3l-24 3v42q8 3 24 3z" />
    <glyph glyph-name="Aring" unicode="&#xc5;" horiz-adv-x="640" 
d="M342 697l275 -694q-5 -3 -18 -3l-18 3l-85 215h-353l-86 -215q-5 -3 -18 -3l-16 3l275 694q-38 6 -64 34t-26 70q0 48 33 76t79 28t79.5 -27.5t33.5 -76.5q0 -42 -26.5 -69.5t-64.5 -34.5zM319 876q-38 0 -58.5 -22t-20.5 -53q0 -32 20.5 -54.5t58.5 -22.5q39 0 60.5 23
t21.5 54t-21.5 53t-60.5 22zM155 250h328l-150 381l-12 38h-2q-4 -14 -13 -38z" />
    <glyph glyph-name="AE" unicode="&#xc6;" horiz-adv-x="848" 
d="M51 3q-7 -3 -17 -3q-13 0 -19 3l433 717h335q9 -15 0 -32h-294v-307h244q8 -17 0 -32h-244v-317h304q9 -16 0 -32h-338v205h-282zM192 237h263v435z" />
    <glyph glyph-name="Ccedilla" unicode="&#xc7;" horiz-adv-x="555" 
d="M512 23q-59 -33 -177 -33h-5l-11 -47q113 0 113 -88q0 -47 -27.5 -67.5t-84.5 -20.5q-22 0 -44 5.5t-32 11.5l-11 6q1 14 11 22q33 -18 77 -18q40 0 60 13.5t20 47.5q0 60 -75 60h-31l-7 8l17 68q-232 19 -232 369q0 370 262 370q48 0 89.5 -8t59.5 -16l17 -8
q2 -7 -2 -15q-2 -4 -4.5 -7t-4.5 -4l-1 -1q-58 28 -149 28q-73 0 -122 -29.5t-79 -106.5t-30 -204q0 -96 16 -163t47.5 -104.5t72 -53.5t95.5 -16q44 0 84 7t58 14l18 7q6 -2 10 -11z" />
    <glyph glyph-name="Egrave" unicode="&#xc8;" horiz-adv-x="557" 
d="M107 0v720h385q3 -6 3 -16t-3 -16h-351v-307h301q3 -6 3 -15q0 -8 -3 -16h-301v-318h361q3 -8 3 -15q0 -9 -3 -17h-395zM312 757l-125 147q11 17 32 17l117 -150q-6 -13 -24 -14z" />
    <glyph glyph-name="Eacute" unicode="&#xc9;" horiz-adv-x="557" 
d="M107 0v720h385q3 -6 3 -16t-3 -16h-351v-307h301q3 -6 3 -15q0 -8 -3 -16h-301v-318h361q3 -8 3 -15q0 -9 -3 -17h-395zM371 906l-125 -147q-18 1 -24 14l117 150q21 0 32 -17z" />
    <glyph glyph-name="Ecircumflex" unicode="&#xca;" horiz-adv-x="557" 
d="M107 0v720h385q3 -6 3 -16t-3 -16h-351v-307h301q3 -6 3 -15q0 -8 -3 -16h-301v-318h361q3 -8 3 -15q0 -9 -3 -17h-395zM282 893h26l123 -101q-3 -17 -16 -20l-121 90l-119 -91q-14 6 -17 21z" />
    <glyph glyph-name="Edieresis" unicode="&#xcb;" horiz-adv-x="557" 
d="M107 0v720h385q3 -6 3 -16t-3 -16h-351v-307h301q3 -6 3 -15q0 -8 -3 -16h-301v-318h361q3 -8 3 -15q0 -9 -3 -17h-395zM260 823v-42q-8 -3 -24 -3l-24 3v42q8 3 24 3zM401 823v-42q-8 -3 -24 -3l-24 3v42q8 3 24 3z" />
    <glyph glyph-name="Igrave" unicode="&#xcc;" horiz-adv-x="246" 
d="M106 3v714q5 3 17 3l17 -3v-714q-5 -3 -17 -3zM154 757l-125 147q11 17 32 17l117 -150q-6 -13 -24 -14z" />
    <glyph glyph-name="Iacute" unicode="&#xcd;" horiz-adv-x="246" 
d="M106 3v714q5 3 17 3l17 -3v-714q-5 -3 -17 -3zM203 906l-125 -147q-18 1 -24 14l117 150q21 0 32 -17z" />
    <glyph glyph-name="Icircumflex" unicode="&#xce;" horiz-adv-x="246" 
d="M106 3v714q5 3 17 3l17 -3v-714q-5 -3 -17 -3zM110 893h26l123 -101q-3 -17 -16 -20l-121 90l-119 -91q-14 6 -17 21z" />
    <glyph glyph-name="Idieresis" unicode="&#xcf;" horiz-adv-x="246" 
d="M106 3v714q5 3 17 3l17 -3v-714q-5 -3 -17 -3zM77 815v-42q-8 -3 -24 -3l-24 3v42q8 3 24 3zM218 815v-42q-8 -3 -24 -3l-24 3v42q8 3 24 3z" />
    <glyph glyph-name="Eth" unicode="&#xd0;" horiz-adv-x="664" 
d="M113 720h189q75 0 126.5 -17t88.5 -58t54.5 -111t17.5 -174t-17.5 -174t-54.5 -111t-88.5 -58t-126.5 -17h-189v342h-87q-3 5 -3 15l3 15h87v348zM147 32h151q88 0 141.5 27t83.5 100t30 201q0 97 -16 161.5t-49.5 101t-78.5 51t-111 14.5h-151v-316h154q3 -5 3 -15
l-3 -15h-154v-310z" />
    <glyph glyph-name="Ntilde" unicode="&#xd1;" horiz-adv-x="690" 
d="M545 3l-361 588q-15 24 -26.5 45t-15.5 30l-4 9h-2q3 -36 3 -130v-542q-5 -3 -17 -3l-16 3v714q7 3 20 3l19 -3l358 -580l50 -90h2q-4 48 -4 120v550q5 3 17 3l16 -3v-714q-6 -3 -19 -3zM408 799q12 0 22 7.5t14 14.5l3 7q17 2 26 -11q-2 -5 -6.5 -13t-22.5 -21t-41 -13
q-25 0 -57 18t-50 18q-12 0 -22 -7.5t-14 -14.5l-3 -8q-19 -2 -26 11q2 5 6.5 13t22.5 21.5t41 13.5q25 0 57 -18t50 -18z" />
    <glyph glyph-name="Ograve" unicode="&#xd2;" horiz-adv-x="678" 
d="M339 -10q-265 0 -265 370t265 370t265 -370t-265 -370zM339 700q-229 0 -229 -340t229 -340t229 340t-229 340zM385 757l-125 147q11 17 32 17l117 -150q-6 -13 -24 -14z" />
    <glyph glyph-name="Oacute" unicode="&#xd3;" horiz-adv-x="678" 
d="M339 -10q-265 0 -265 370t265 370t265 -370t-265 -370zM339 700q-229 0 -229 -340t229 -340t229 340t-229 340zM474 906l-125 -147q-18 1 -24 14l117 150q21 0 32 -17z" />
    <glyph glyph-name="Ocircumflex" unicode="&#xd4;" horiz-adv-x="678" 
d="M339 -10q-265 0 -265 370t265 370t265 -370t-265 -370zM339 700q-229 0 -229 -340t229 -340t229 340t-229 340zM328 893h26l123 -101q-3 -17 -16 -20l-121 90l-119 -91q-14 6 -17 21z" />
    <glyph glyph-name="Otilde" unicode="&#xd5;" horiz-adv-x="678" 
d="M339 -10q-265 0 -265 370t265 370t265 -370t-265 -370zM339 700q-229 0 -229 -340t229 -340t229 340t-229 340zM407 811q12 0 22 7.5t13 14.5l4 7q18 2 26 -11q-2 -5 -6.5 -13t-22.5 -21t-41 -13q-25 0 -57 18t-50 18q-12 0 -22 -7.5t-13 -14.5l-4 -8q-19 -2 -26 11
q2 5 6.5 13t22.5 21.5t41 13.5q25 0 57 -18t50 -18z" />
    <glyph glyph-name="Odieresis" unicode="&#xd6;" horiz-adv-x="678" 
d="M339 -10q-265 0 -265 370t265 370t265 -370t-265 -370zM339 700q-229 0 -229 -340t229 -340t229 340t-229 340zM291 835v-42q-8 -3 -24 -3l-24 3v42q8 3 24 3zM432 835v-42q-8 -3 -24 -3l-24 3v42q8 3 24 3z" />
    <glyph glyph-name="multiply" unicode="&#xd7;" horiz-adv-x="453" 
d="M342 149l-115 115l-115 -115q-7 3 -14 11l-11 14l115 115l-115 115q3 7 11 14l14 10l115 -114l115 114q7 -2 14 -10l10 -14l-114 -115l114 -115q-2 -7 -10 -14z" />
    <glyph glyph-name="Oslash" unicode="&#xd8;" horiz-adv-x="678" 
d="M572 763l-56 -101q88 -90 88 -302q0 -370 -265 -370q-102 0 -165 56l-50 -90q-6 -3 -19 -3l-18 3l63 115q-76 92 -76 289q0 370 265 370q92 0 152 -45l43 78q7 4 19 4zM339 700q-229 0 -229 -340q0 -171 58 -257l307 553q-54 44 -136 44zM191 76q55 -56 148 -56
q229 0 229 340q0 186 -69 271z" />
    <glyph glyph-name="Ugrave" unicode="&#xd9;" horiz-adv-x="663" 
d="M562 717v-495q0 -110 -63 -171t-168 -61t-167.5 61.5t-62.5 170.5v495q6 3 17 3l17 -3v-499q0 -94 52.5 -146t145.5 -52t144.5 52t51.5 146v499q6 3 16 3zM351 757l-125 147q11 17 32 17l117 -150q-6 -13 -24 -14z" />
    <glyph glyph-name="Uacute" unicode="&#xda;" horiz-adv-x="663" 
d="M562 717v-495q0 -110 -63 -171t-168 -61t-167.5 61.5t-62.5 170.5v495q6 3 17 3l17 -3v-499q0 -94 52.5 -146t145.5 -52t144.5 52t51.5 146v499q6 3 16 3zM420 906l-125 -147q-18 1 -24 14l117 150q21 0 32 -17z" />
    <glyph glyph-name="Ucircumflex" unicode="&#xdb;" horiz-adv-x="663" 
d="M562 717v-495q0 -110 -63 -171t-168 -61t-167.5 61.5t-62.5 170.5v495q6 3 17 3l17 -3v-499q0 -94 52.5 -146t145.5 -52t144.5 52t51.5 146v499q6 3 16 3zM320 893h26l123 -101q-3 -17 -16 -20l-121 90l-119 -91q-14 6 -17 21z" />
    <glyph glyph-name="Udieresis" unicode="&#xdc;" horiz-adv-x="663" 
d="M562 717v-495q0 -110 -63 -171t-168 -61t-167.5 61.5t-62.5 170.5v495q6 3 17 3l17 -3v-499q0 -94 52.5 -146t145.5 -52t144.5 52t51.5 146v499q6 3 16 3zM283 795v-42q-8 -3 -24 -3l-24 3v42q8 3 24 3zM424 795v-42q-8 -3 -24 -3l-24 3v42q8 3 24 3z" />
    <glyph glyph-name="Yacute" unicode="&#xdd;" horiz-adv-x="614" 
d="M28 717q7 3 21 3l20 -3l237 -375l245 375q5 3 19 3l21 -3l-268 -412v-302q-6 -3 -17 -3l-17 3v301zM406 906l-125 -147q-18 1 -24 14l117 150q21 0 32 -17z" />
    <glyph glyph-name="Thorn" unicode="&#xde;" horiz-adv-x="599" 
d="M348 172h-208v-169q-4 -3 -17 -3l-17 3v714q4 3 17 3l17 -3v-146h208q91 0 142.5 -54.5t51.5 -145.5t-51.5 -145t-142.5 -54zM140 539v-335h209q75 0 116 44t41 122q0 80 -41 124.5t-116 44.5h-209z" />
    <glyph glyph-name="germandbls" unicode="&#xdf;" horiz-adv-x="569" 
d="M91 3v553q0 194 195 194q89 0 133.5 -50t44.5 -120q0 -25 -5 -49t-11 -35l-5 -12q-5 0 -13.5 -0.5t-30.5 -5.5t-38.5 -14t-30 -29.5t-13.5 -48.5q0 -31 21 -53.5t50.5 -38.5t59.5 -35t51 -52.5t21 -79.5q0 -63 -40.5 -100t-116.5 -37q-31 0 -55.5 4t-33.5 8l-10 5
q-2 17 9 25q36 -12 85 -12q67 0 97.5 29.5t30.5 75.5q0 41 -21 70t-50.5 46.5t-59.5 34t-51 44t-21 65.5q0 34 14 59t34 37.5t40 19.5t34 9l14 1q10 30 10 69q0 60 -35 100t-109 40q-162 0 -162 -164v-553q-4 -3 -16 -3z" />
    <glyph glyph-name="agrave" unicode="&#xe0;" horiz-adv-x="510" 
d="M391 284v78q0 77 -34.5 111t-104.5 34q-36 0 -73 -6.5t-56 -13.5l-19 -7q-13 10 -11 27q77 29 163 29q100 0 133.5 -50.5t33.5 -162.5v-320q-4 -3 -13 -3l-13 3l-6 90v1q-23 -50 -70.5 -77t-112.5 -27q-70 0 -112.5 40.5t-42.5 110.5q0 73 45.5 113t138.5 40
q84 0 154 -10zM87 141q0 -60 33.5 -90.5t91.5 -30.5q78 0 128.5 50.5t50.5 137.5v47q-105 10 -148 10q-156 0 -156 -124zM280 601l-125 147q11 17 32 17l117 -150q-6 -13 -24 -14z" />
    <glyph glyph-name="aacute" unicode="&#xe1;" horiz-adv-x="510" 
d="M391 284v78q0 77 -34.5 111t-104.5 34q-36 0 -73 -6.5t-56 -13.5l-19 -7q-13 10 -11 27q77 29 163 29q100 0 133.5 -50.5t33.5 -162.5v-320q-4 -3 -13 -3l-13 3l-6 90v1q-23 -50 -70.5 -77t-112.5 -27q-70 0 -112.5 40.5t-42.5 110.5q0 73 45.5 113t138.5 40
q84 0 154 -10zM87 141q0 -60 33.5 -90.5t91.5 -30.5q78 0 128.5 50.5t50.5 137.5v47q-105 10 -148 10q-156 0 -156 -124zM335 757l-125 -147q-18 1 -24 14l117 150q21 0 32 -17z" />
    <glyph glyph-name="acircumflex" unicode="&#xe2;" horiz-adv-x="510" 
d="M391 284v78q0 77 -34.5 111t-104.5 34q-36 0 -73 -6.5t-56 -13.5l-19 -7q-13 10 -11 27q77 29 163 29q100 0 133.5 -50.5t33.5 -162.5v-320q-4 -3 -13 -3l-13 3l-6 90v1q-23 -50 -70.5 -77t-112.5 -27q-70 0 -112.5 40.5t-42.5 110.5q0 73 45.5 113t138.5 40
q84 0 154 -10zM87 141q0 -60 33.5 -90.5t91.5 -30.5q78 0 128.5 50.5t50.5 137.5v47q-105 10 -148 10q-156 0 -156 -124zM239 721h25l121 -99q-4 -16 -16 -19l-118 88l-117 -89q-13 5 -16 20z" />
    <glyph glyph-name="atilde" unicode="&#xe3;" horiz-adv-x="510" 
d="M391 284v78q0 77 -34.5 111t-104.5 34q-36 0 -73 -6.5t-56 -13.5l-19 -7q-13 10 -11 27q77 29 163 29q100 0 133.5 -50.5t33.5 -162.5v-320q-4 -3 -13 -3l-13 3l-6 90v1q-23 -50 -70.5 -77t-112.5 -27q-70 0 -112.5 40.5t-42.5 110.5q0 73 45.5 113t138.5 40
q84 0 154 -10zM87 141q0 -60 33.5 -90.5t91.5 -30.5q78 0 128.5 50.5t50.5 137.5v47q-105 10 -148 10q-156 0 -156 -124zM313 660q12 0 22 7t13 15l4 7q18 2 26 -11q-2 -5 -6.5 -13t-22.5 -21t-41 -13q-25 0 -57 18t-50 18q-12 0 -22 -7.5t-13 -15.5l-4 -7q-19 -2 -26 11
q2 5 6.5 13t22.5 21.5t41 13.5q25 0 57 -18t50 -18z" />
    <glyph glyph-name="adieresis" unicode="&#xe4;" horiz-adv-x="510" 
d="M391 284v78q0 77 -34.5 111t-104.5 34q-36 0 -73 -6.5t-56 -13.5l-19 -7q-13 10 -11 27q77 29 163 29q100 0 133.5 -50.5t33.5 -162.5v-320q-4 -3 -13 -3l-13 3l-6 90v1q-23 -50 -70.5 -77t-112.5 -27q-70 0 -112.5 40.5t-42.5 110.5q0 73 45.5 113t138.5 40
q84 0 154 -10zM87 141q0 -60 33.5 -90.5t91.5 -30.5q78 0 128.5 50.5t50.5 137.5v47q-105 10 -148 10q-156 0 -156 -124zM205 687v-42q-8 -3 -24 -3l-24 3v42q8 3 24 3zM346 687v-42q-8 -3 -24 -3l-24 3v42q8 3 24 3z" />
    <glyph glyph-name="aring" unicode="&#xe5;" horiz-adv-x="510" 
d="M391 284v78q0 77 -34.5 111t-104.5 34q-36 0 -73 -6.5t-56 -13.5l-19 -7q-13 10 -11 27q77 29 163 29q100 0 133.5 -50.5t33.5 -162.5v-320q-4 -3 -13 -3l-13 3l-6 90v1q-23 -50 -70.5 -77t-112.5 -27q-70 0 -112.5 40.5t-42.5 110.5q0 73 45.5 113t138.5 40
q84 0 154 -10zM87 141q0 -60 33.5 -90.5t91.5 -30.5q78 0 128.5 50.5t50.5 137.5v47q-105 10 -148 10q-156 0 -156 -124zM253 595q-49 0 -80 28t-31 78q0 48 33 76t79 28t79.5 -27.5t33.5 -76.5t-32.5 -77.5t-81.5 -28.5zM335 701q0 31 -21.5 53t-60.5 22q-38 0 -58.5 -22
t-20.5 -53q0 -32 20.5 -54.5t58.5 -22.5q39 0 60.5 23t21.5 54z" />
    <glyph glyph-name="ae" unicode="&#xe6;" horiz-adv-x="779" 
d="M710 261h-305q5 -122 43 -180.5t113 -58.5q35 0 64 10t41 20l12 9q15 -8 17 -25q-5 -5 -15 -12.5t-46 -20.5t-77 -13q-130 0 -168 139q-17 -67 -66.5 -103t-124.5 -36q-66 0 -105.5 40.5t-39.5 110.5q0 150 174 150h144v71q0 78 -31.5 111.5t-97.5 33.5q-33 0 -67.5 -6.5
t-52.5 -13.5l-18 -7q-13 10 -11 27q72 29 153 29q128 0 151 -113q41 113 160 113q81 0 122.5 -50.5t41.5 -133.5q0 -24 -2.5 -46.5t-5.5 -33.5zM87 141q0 -60 30.5 -90.5t84.5 -30.5q74 0 121.5 50.5t47.5 137.5v53h-138q-76 0 -111 -29t-35 -91zM687 357q0 65 -31.5 107
t-98.5 42q-66 0 -107.5 -52t-44.5 -163h277q5 19 5 66z" />
    <glyph glyph-name="ccedilla" unicode="&#xe7;" horiz-adv-x="445" 
d="M255 -9l-14 -51q110 0 110 -80q0 -94 -110 -94q-22 0 -43 6t-32 12l-10 5q1 14 11 22q32 -18 75 -18q77 0 77 67q0 54 -72 54h-30l-7 8l22 71q-80 14 -123.5 83t-43.5 187q0 133 54 203t153 70q34 0 63 -6t41 -12l12 -5q0 -19 -12 -28q-37 20 -97 20q-180 0 -180 -242
q0 -240 184 -240q28 0 54 5.5t37 11.5l12 6q12 -8 14 -27q-48 -29 -128 -29z" />
    <glyph glyph-name="egrave" unicode="&#xe8;" horiz-adv-x="508" 
d="M438 252h-339q4 -121 47 -175t131 -54q37 0 69 10t46 20l14 10q15 -9 17 -27q-6 -5 -17.5 -12.5t-52 -20.5t-86.5 -13q-98 0 -150 70.5t-52 205.5q0 136 55 203t150 67q86 0 132.5 -51t46.5 -133q0 -27 -2.5 -52t-5.5 -36zM415 357q0 64 -36 106.5t-109 42.5
q-78 0 -123 -55t-48 -169h310q6 28 6 75zM294 610l-125 147q11 17 32 17l117 -150q-6 -13 -24 -14z" />
    <glyph glyph-name="eacute" unicode="&#xe9;" horiz-adv-x="508" 
d="M438 252h-339q4 -121 47 -175t131 -54q37 0 69 10t46 20l14 10q15 -9 17 -27q-6 -5 -17.5 -12.5t-52 -20.5t-86.5 -13q-98 0 -150 70.5t-52 205.5q0 136 55 203t150 67q86 0 132.5 -51t46.5 -133q0 -27 -2.5 -52t-5.5 -36zM415 357q0 64 -36 106.5t-109 42.5
q-78 0 -123 -55t-48 -169h310q6 28 6 75zM344 757l-125 -147q-18 1 -24 14l117 150q21 0 32 -17z" />
    <glyph glyph-name="ecircumflex" unicode="&#xea;" horiz-adv-x="508" 
d="M438 252h-339q4 -121 47 -175t131 -54q37 0 69 10t46 20l14 10q15 -9 17 -27q-6 -5 -17.5 -12.5t-52 -20.5t-86.5 -13q-98 0 -150 70.5t-52 205.5q0 136 55 203t150 67q86 0 132.5 -51t46.5 -133q0 -27 -2.5 -52t-5.5 -36zM415 357q0 64 -36 106.5t-109 42.5
q-78 0 -123 -55t-48 -169h310q6 28 6 75zM257 721h25l121 -99q-4 -16 -16 -19l-118 88l-117 -89q-13 5 -16 20z" />
    <glyph glyph-name="edieresis" unicode="&#xeb;" horiz-adv-x="508" 
d="M438 252h-339q4 -121 47 -175t131 -54q37 0 69 10t46 20l14 10q15 -9 17 -27q-6 -5 -17.5 -12.5t-52 -20.5t-86.5 -13q-98 0 -150 70.5t-52 205.5q0 136 55 203t150 67q86 0 132.5 -51t46.5 -133q0 -27 -2.5 -52t-5.5 -36zM415 357q0 64 -36 106.5t-109 42.5
q-78 0 -123 -55t-48 -169h310q6 28 6 75zM224 687v-42q-8 -3 -24 -3l-24 3v42q8 3 24 3zM365 687v-42q-8 -3 -24 -3l-24 3v42q8 3 24 3z" />
    <glyph glyph-name="igrave" unicode="&#xec;" horiz-adv-x="220" 
d="M126 523v-520q-4 -3 -16 -3l-16 3v520q4 3 16 3zM135 612l-125 147q11 17 32 17l117 -150q-6 -13 -24 -14z" />
    <glyph glyph-name="iacute" unicode="&#xed;" horiz-adv-x="220" 
d="M126 523v-520q-4 -3 -16 -3l-16 3v520q4 3 16 3zM200 757l-125 -147q-18 1 -24 14l117 150q21 0 32 -17z" />
    <glyph glyph-name="icircumflex" unicode="&#xee;" horiz-adv-x="222" 
d="M127 523v-520q-4 -3 -16 -3l-16 3v520q4 3 16 3zM100 721h25l121 -99q-4 -16 -16 -19l-118 88l-117 -89q-13 5 -16 20z" />
    <glyph glyph-name="idieresis" unicode="&#xef;" horiz-adv-x="222" 
d="M127 523v-520q-4 -3 -16 -3l-16 3v520q4 3 16 3zM62 647v-42q-8 -3 -24 -3l-24 3v42q8 3 24 3zM203 647v-42q-8 -3 -24 -3l-24 3v42q8 3 24 3z" />
    <glyph glyph-name="eth" unicode="&#xf0;" horiz-adv-x="552" 
d="M405 702l-64 -40q142 -121 142 -355q0 -173 -53 -245t-159 -72q-205 0 -205 262q0 135 52 198.5t144 63.5q131 0 181 -102q-25 145 -129 232l-136 -86q-15 8 -17 26l127 80q-63 43 -144 59q-3 17 7 27q93 -18 164 -68l73 46q15 -8 17 -26zM271 19q173 0 173 233
q0 126 -47.5 179t-133.5 53q-80 0 -121.5 -53t-41.5 -179q0 -233 171 -233z" />
    <glyph glyph-name="ntilde" unicode="&#xf1;" 
d="M461 3v385q0 68 -40.5 108t-110.5 40q-121 0 -187 -101v88q-5 3 -16 3l-16 -3v-520q5 -3 16 -3l16 3v373q25 60 74 95.5t103 35.5q129 0 129 -127v-377q5 -3 16 -3zM336 660q12 0 22 7t14 15l3 7q17 2 26 -11q-2 -5 -6.5 -13t-22.5 -21t-41 -13q-25 0 -57 18t-50 18
q-12 0 -22 -7.5t-14 -15.5l-3 -7q-19 -2 -26 11q2 5 6.5 13t22.5 21.5t41 13.5q25 0 57 -18t50 -18z" />
    <glyph glyph-name="ograve" unicode="&#xf2;" horiz-adv-x="538" 
d="M269 -10q-100 0 -151.5 64.5t-51.5 208.5t51.5 208.5t151.5 64.5t151.5 -64.5t51.5 -208.5t-51.5 -208.5t-151.5 -64.5zM269 507q-83 0 -126 -55.5t-43 -188.5t43 -188.5t126 -55.5t126 55.5t43 188.5t-43 188.5t-126 55.5zM266 610l-125 147q11 17 32 17l117 -150
q-6 -13 -24 -14z" />
    <glyph glyph-name="oacute" unicode="&#xf3;" horiz-adv-x="538" 
d="M269 -10q-100 0 -151.5 64.5t-51.5 208.5t51.5 208.5t151.5 64.5t151.5 -64.5t51.5 -208.5t-51.5 -208.5t-151.5 -64.5zM269 507q-83 0 -126 -55.5t-43 -188.5t43 -188.5t126 -55.5t126 55.5t43 188.5t-43 188.5t-126 55.5zM341 757l-125 -147q-18 1 -24 14l117 150
q21 0 32 -17z" />
    <glyph glyph-name="ocircumflex" unicode="&#xf4;" horiz-adv-x="538" 
d="M269 -10q-100 0 -151.5 64.5t-51.5 208.5t51.5 208.5t151.5 64.5t151.5 -64.5t51.5 -208.5t-51.5 -208.5t-151.5 -64.5zM269 507q-83 0 -126 -55.5t-43 -188.5t43 -188.5t126 -55.5t126 55.5t43 188.5t-43 188.5t-126 55.5zM256 721h25l121 -99q-4 -16 -16 -19l-118 88
l-117 -89q-13 5 -16 20z" />
    <glyph glyph-name="otilde" unicode="&#xf5;" horiz-adv-x="538" 
d="M269 -10q-100 0 -151.5 64.5t-51.5 208.5t51.5 208.5t151.5 64.5t151.5 -64.5t51.5 -208.5t-51.5 -208.5t-151.5 -64.5zM269 507q-83 0 -126 -55.5t-43 -188.5t43 -188.5t126 -55.5t126 55.5t43 188.5t-43 188.5t-126 55.5zM329 660q12 0 22 7t13 15l4 7q17 2 26 -11
q-2 -5 -6.5 -13t-22.5 -21t-41 -13q-25 0 -57 18t-50 18q-12 0 -22 -7.5t-13 -15.5l-4 -7q-19 -2 -26 11q2 5 6.5 13t22.5 21.5t41 13.5q25 0 57 -18t50 -18z" />
    <glyph glyph-name="odieresis" unicode="&#xf6;" horiz-adv-x="538" 
d="M269 -10q-100 0 -151.5 64.5t-51.5 208.5t51.5 208.5t151.5 64.5t151.5 -64.5t51.5 -208.5t-51.5 -208.5t-151.5 -64.5zM269 507q-83 0 -126 -55.5t-43 -188.5t43 -188.5t126 -55.5t126 55.5t43 188.5t-43 188.5t-126 55.5zM223 687v-42q-8 -3 -24 -3l-24 3v42q8 3 24 3z
M364 687v-42q-8 -3 -24 -3l-24 3v42q8 3 24 3z" />
    <glyph glyph-name="divide" unicode="&#xf7;" horiz-adv-x="563" 
d="M472 275h-381q-3 4 -3 15l3 15h381q3 -4 3 -15zM306 150v-42q-8 -3 -24 -3l-24 3v42q8 3 24 3zM306 472v-42q-8 -3 -24 -3l-24 3v42q8 3 24 3z" />
    <glyph glyph-name="oslash" unicode="&#xf8;" horiz-adv-x="537" 
d="M462 565l-48 -86q58 -66 58 -216q0 -144 -51.5 -208.5t-151.5 -64.5q-65 0 -111 28l-35 -64q-4 -3 -19 -3l-17 3l46 83q-67 65 -67 226q0 144 51.5 208.5t151.5 64.5q74 0 122 -35l35 64q4 3 19 3zM269 507q-83 0 -126 -55.5t-43 -188.5q0 -137 49 -197l226 407
q-40 34 -106 34zM173 45q36 -26 96 -26q83 0 126 55.5t43 188.5q0 125 -41 185z" />
    <glyph glyph-name="ugrave" unicode="&#xf9;" 
d="M87 523v-385q0 -68 40.5 -108t110.5 -40q119 0 187 101v-88q5 -3 16 -3l16 3v520q-5 3 -16 3l-16 -3v-373q-26 -61 -75 -96t-102 -35q-129 0 -129 127v377q-5 3 -16 3zM296 610l-125 147q11 17 32 17l117 -150q-6 -13 -24 -14z" />
    <glyph glyph-name="uacute" unicode="&#xfa;" 
d="M87 138v385q5 3 16 3l16 -3v-377q0 -127 129 -127q53 0 102 35t75 96v373q5 3 16 3l16 -3v-520q-5 -3 -16 -3l-16 3v88q-68 -101 -187 -101q-70 0 -110.5 40t-40.5 108zM354 757l-125 -147q-18 1 -24 14l117 150q21 0 32 -17z" />
    <glyph glyph-name="ucircumflex" unicode="&#xfb;" 
d="M87 138v385q5 3 16 3l16 -3v-377q0 -127 129 -127q53 0 102 35t75 96v373q5 3 16 3l16 -3v-520q-5 -3 -16 -3l-16 3v88q-68 -101 -187 -101q-70 0 -110.5 40t-40.5 108zM259 721h25l121 -99q-4 -16 -16 -19l-118 88l-117 -89q-13 5 -16 20z" />
    <glyph glyph-name="udieresis" unicode="&#xfc;" 
d="M87 523v-385q0 -68 40.5 -108t110.5 -40q119 0 187 101v-88q5 -3 16 -3l16 3v520q-5 3 -16 3l-16 -3v-373q-26 -61 -75 -96t-102 -35q-129 0 -129 127v377q-5 3 -16 3zM229 687v-42q-8 -3 -24 -3l-24 3v42q8 3 24 3zM370 687v-42q-8 -3 -24 -3l-24 3v42q8 3 24 3z" />
    <glyph glyph-name="yacute" unicode="&#xfd;" horiz-adv-x="519" 
d="M486 523l-238 -650q-23 -63 -49 -93t-71 -30q-12 0 -23.5 1.5t-16.5 2.5l-6 2q-3 6 -3 14q0 10 4 15q16 -5 42 -5q29 0 50 23.5t42 80.5l43 117q-11 5 -13 7l-215 515q6 3 18 3l18 -3l166 -398l36 -93h3q13 40 32 92l146 399q4 3 17 3zM343 757l-125 -147q-18 1 -24 14
l117 150q21 0 32 -17z" />
    <glyph glyph-name="thorn" unicode="&#xfe;" horiz-adv-x="554" 
d="M123 87v-334q-4 -3 -16 -3l-16 3v994q4 3 16 3l16 -3v-308q49 97 167 97q97 0 147 -63t50 -210t-50 -210t-147 -63q-118 0 -167 97zM123 200q0 -69 42.5 -124.5t116.5 -55.5q92 0 131.5 57t39.5 186t-39.5 186t-131.5 57q-73 0 -115 -53t-44 -121v-132z" />
    <glyph glyph-name="ydieresis" unicode="&#xff;" horiz-adv-x="519" 
d="M486 523l-238 -650q-23 -63 -49 -93t-71 -30q-12 0 -23.5 1.5t-16.5 2.5l-6 2q-3 6 -3 14q0 10 4 15q16 -5 42 -5q29 0 50 23.5t42 80.5l43 117q-11 5 -13 7l-215 515q6 3 18 3l18 -3l166 -398l36 -93h3q13 40 32 92l146 399q4 3 17 3zM210 677v-42q-8 -3 -24 -3l-24 3
v42q8 3 24 3zM351 677v-42q-8 -3 -24 -3l-24 3v42q8 3 24 3z" />
    <glyph glyph-name="Amacron" unicode="&#x100;" horiz-adv-x="640" 
d="M581 3l-85 215h-353l-86 -215q-5 -3 -18 -3l-16 3l283 714q4 3 14 3l14 -3l283 -714q-5 -3 -18 -3zM306 631l-151 -381h328l-150 381l-12 38h-2q-4 -14 -13 -38zM442 807h-251q-4 7 -4 15t4 15h251q4 -5 4 -14t-4 -16z" />
    <glyph glyph-name="amacron" unicode="&#x101;" horiz-adv-x="510" 
d="M391 284v78q0 77 -34.5 111t-104.5 34q-36 0 -73 -6.5t-56 -13.5l-19 -7q-13 10 -11 27q77 29 163 29q100 0 133.5 -50.5t33.5 -162.5v-320q-4 -3 -13 -3l-13 3l-6 90v1q-23 -50 -70.5 -77t-112.5 -27q-70 0 -112.5 40.5t-42.5 110.5q0 73 45.5 113t138.5 40
q84 0 154 -10zM87 141q0 -60 33.5 -90.5t91.5 -30.5q78 0 128.5 50.5t50.5 137.5v47q-105 10 -148 10q-156 0 -156 -124zM373 643h-240q-3 7 -3 14q0 8 3 14h240q4 -4 4 -13q0 -8 -4 -15z" />
    <glyph glyph-name="Abreve" unicode="&#x102;" horiz-adv-x="640" 
d="M581 3l-85 215h-353l-86 -215q-5 -3 -18 -3l-16 3l283 714q4 3 14 3l14 -3l283 -714q-5 -3 -18 -3zM306 631l-151 -381h328l-150 381l-12 38h-2q-4 -14 -13 -38zM450 840l-5.5 -5.5t-16 -12.5t-27 -15.5t-37.5 -12t-48 -5.5t-48 5.5t-38 12.5t-26.5 14.5t-16.5 12.5l-5 6
q4 14 18 19q5 -5 15 -12t40 -18.5t61 -11.5t59.5 10.5t42.5 20.5l13 11q16 -4 19 -19z" />
    <glyph glyph-name="abreve" unicode="&#x103;" horiz-adv-x="510" 
d="M391 284v78q0 77 -34.5 111t-104.5 34q-36 0 -73 -6.5t-56 -13.5l-19 -7q-13 10 -11 27q77 29 163 29q100 0 133.5 -50.5t33.5 -162.5v-320q-4 -3 -13 -3l-13 3l-6 90v1q-23 -50 -70.5 -77t-112.5 -27q-70 0 -112.5 40.5t-42.5 110.5q0 73 45.5 113t138.5 40
q84 0 154 -10zM87 141q0 -60 33.5 -90.5t91.5 -30.5q78 0 128.5 50.5t50.5 137.5v47q-105 10 -148 10q-156 0 -156 -124zM382 688q-5 -6 -14.5 -15t-43.5 -24t-72 -15t-70.5 13.5t-45.5 26.5l-14 14q4 14 18 19q5 -5 14.5 -12t38.5 -19t59 -12t58 11t41 21l13 11
q15 -4 18 -19z" />
    <glyph glyph-name="Aogonek" unicode="&#x104;" horiz-adv-x="639" 
d="M305 631l-151 -381h328l-150 381l-12 38h-2q-4 -14 -13 -38zM557 -145q11 0 21.5 2.5t15.5 4.5l5 3q9 -7 9 -22q-21 -16 -57 -16q-39 0 -60 20t-21 53q0 44 29.5 73.5t75.5 41.5l-80 203h-353l-86 -215q-5 -3 -18 -3l-16 3l283 714q4 3 14 3l14 -3l283 -714l-12 -3
q-42 -9 -71.5 -33t-29.5 -63q0 -49 54 -49z" />
    <glyph glyph-name="aogonek" unicode="&#x105;" horiz-adv-x="510" 
d="M384 -144q11 0 21.5 2.5t15.5 5.5l5 2q9 -7 9 -22q-21 -16 -57 -16q-37 0 -59 19t-22 51q0 43 28.5 74t70.5 44l-5 78q-23 -50 -70.5 -77t-112.5 -27q-70 0 -112.5 40.5t-42.5 110.5q0 73 45.5 113t138.5 40q84 0 154 -10v78q0 77 -34.5 111t-104.5 34q-36 0 -73 -6.5
t-56 -13.5l-19 -7q-13 10 -11 27q77 29 163 29q100 0 133.5 -50.5t33.5 -162.5v-321q-37 -8 -65 -33.5t-28 -66.5q0 -23 15.5 -34.5t38.5 -11.5zM391 208v47q-105 10 -148 10q-156 0 -156 -124q0 -60 33.5 -90.5t91.5 -30.5q78 0 128.5 50.5t50.5 137.5z" />
    <glyph glyph-name="Cacute" unicode="&#x106;" horiz-adv-x="556" 
d="M336 -10q-132 0 -197 91t-65 279q0 370 262 370q48 0 89.5 -8t58.5 -16l18 -8q2 -7 -2 -15q-2 -4 -4.5 -7t-3.5 -4l-2 -1q-58 28 -149 28q-73 0 -122 -29.5t-79 -106.5t-30 -204q0 -96 16 -163t47.5 -104.5t72 -53.5t95.5 -16q44 0 84 7t58 14l18 7q6 -2 10 -11l2 -16
q-59 -33 -177 -33zM432 906l-125 -147q-18 1 -24 14l117 150q21 0 32 -17z" />
    <glyph glyph-name="cacute" unicode="&#x107;" horiz-adv-x="445" 
d="M279 505q-180 0 -180 -242q0 -240 184 -240q28 0 54 5.5t37 11.5l12 6q12 -8 14 -27q-48 -29 -128 -29q-99 0 -153 70t-54 203t54 203t153 70q34 0 63 -6t41 -12l12 -5q0 -19 -12 -28q-37 20 -97 20zM338 757l-125 -147q-18 1 -24 14l117 150q21 0 32 -17z" />
    <glyph glyph-name="Ccircumflex" unicode="&#x108;" horiz-adv-x="556" 
d="M336 -10q-132 0 -197 91t-65 279q0 370 262 370q48 0 89.5 -8t58.5 -16l18 -8q2 -7 -2 -15q-2 -4 -4.5 -7t-3.5 -4l-2 -1q-58 28 -149 28q-73 0 -122 -29.5t-79 -106.5t-30 -204q0 -96 16 -163t47.5 -104.5t72 -53.5t95.5 -16q44 0 84 7t58 14l18 7q6 -2 10 -11l2 -16
q-59 -33 -177 -33zM331 881h26l123 -101q-3 -17 -16 -20l-121 90l-119 -91q-14 6 -17 21z" />
    <glyph glyph-name="ccircumflex" unicode="&#x109;" horiz-adv-x="445" 
d="M279 505q-180 0 -180 -242q0 -240 184 -240q28 0 54 5.5t37 11.5l12 6q12 -8 14 -27q-48 -29 -128 -29q-99 0 -153 70t-54 203t54 203t153 70q34 0 63 -6t41 -12l12 -5q0 -19 -12 -28q-37 20 -97 20zM254 721h25l121 -99q-4 -16 -16 -19l-118 88l-117 -89q-13 5 -16 20z
" />
    <glyph glyph-name="Cdotaccent" unicode="&#x10a;" horiz-adv-x="556" 
d="M336 -10q-132 0 -197 91t-65 279q0 370 262 370q48 0 89.5 -8t58.5 -16l18 -8q2 -7 -2 -15q-2 -4 -4.5 -7t-3.5 -4l-2 -1q-58 28 -149 28q-73 0 -122 -29.5t-79 -106.5t-30 -204q0 -96 16 -163t47.5 -104.5t72 -53.5t95.5 -16q44 0 84 7t58 14l18 7q6 -2 10 -11l2 -16
q-59 -33 -177 -33zM364 833v-42q-8 -3 -24 -3l-24 3v42q8 3 24 3z" />
    <glyph glyph-name="cdotaccent" unicode="&#x10b;" horiz-adv-x="445" 
d="M279 505q-180 0 -180 -242q0 -240 184 -240q28 0 54 5.5t37 11.5l12 6q12 -8 14 -27q-48 -29 -128 -29q-99 0 -153 70t-54 203t54 203t153 70q34 0 63 -6t41 -12l12 -5q0 -19 -12 -28q-37 20 -97 20zM294 676v-42q-8 -3 -24 -3l-24 3v42q8 3 24 3z" />
    <glyph glyph-name="Ccaron" unicode="&#x10c;" horiz-adv-x="557" 
d="M336 -10q-132 0 -197 91t-65 279q0 370 262 370q48 0 89.5 -8t58.5 -16l18 -8q2 -7 -2 -15q-2 -4 -4.5 -7t-3.5 -4l-2 -1q-58 28 -149 28q-73 0 -122 -29.5t-79 -106.5t-30 -204q0 -96 16 -163t47.5 -104.5t72 -53.5t95.5 -16q44 0 84 7t58 14l18 7q6 -2 10 -11l2 -16
q-59 -33 -177 -33zM347 771h-26l-124 101q3 15 17 21l121 -91l119 90q13 -3 16 -20z" />
    <glyph glyph-name="ccaron" unicode="&#x10d;" horiz-adv-x="446" 
d="M280 505q-180 0 -180 -242q0 -240 184 -240q28 0 54 5.5t38 11.5l11 6q12 -8 14 -27q-48 -29 -128 -29q-99 0 -153 70t-54 203t54 203t153 70q34 0 63 -6t41 -12l12 -5q0 -19 -12 -28q-37 20 -97 20zM281 602h-23l-114 93q3 15 15 20l111 -84l109 83q12 -3 15 -19z" />
    <glyph glyph-name="Dcaron" unicode="&#x10e;" horiz-adv-x="658" 
d="M292 688h-151v-656h151q88 0 141.5 27t83.5 100t30 201q0 97 -16 161.5t-49.5 101t-78.5 51t-111 14.5zM296 0h-189v720h189q75 0 126.5 -17t88.5 -58t54.5 -111t17.5 -174t-17.5 -174t-54.5 -111t-88.5 -58t-126.5 -17zM301 771h-26l-124 101q3 15 17 21l121 -91l119 90
q13 -3 16 -20z" />
    <glyph glyph-name="dcaron" unicode="&#x10f;" horiz-adv-x="565" 
d="M539 588q-15 0 -19 11q62 53 57 150q22 5 34 -4q0 -45 -19 -89.5t-53 -67.5zM431 439v308q4 3 16 3l16 -3v-744q-4 -3 -13 -3l-13 3l-5 85q-50 -98 -168 -98q-97 0 -147 63t-50 210t50 210t147 63q118 0 167 -97zM431 326q0 69 -42.5 124.5t-116.5 55.5q-92 0 -131.5 -57
t-39.5 -186t39.5 -186t131.5 -57q74 0 116.5 55.5t42.5 124.5v126z" />
    <glyph glyph-name="Dcroat" unicode="&#x110;" horiz-adv-x="664" 
d="M113 720h189q75 0 126.5 -17t88.5 -58t54.5 -111t17.5 -174t-17.5 -174t-54.5 -111t-88.5 -58t-126.5 -17h-189v342h-87q-3 5 -3 15l3 15h87v348zM147 32h151q88 0 141.5 27t83.5 100t30 201q0 97 -16 161.5t-49.5 101t-78.5 51t-111 14.5h-151v-316h154q3 -5 3 -15
l-3 -15h-154v-310z" />
    <glyph glyph-name="dcroat" unicode="&#x111;" horiz-adv-x="554" 
d="M535 630h-260q-3 3 -3 14l3 14h260q3 -3 3 -14zM431 439v308q4 3 16 3l16 -3v-744q-4 -3 -13 -3l-13 3l-5 85q-50 -98 -168 -98q-97 0 -147 63t-50 210t50 210t147 63q118 0 167 -97zM431 326q0 69 -42.5 124.5t-116.5 55.5q-92 0 -131.5 -57t-39.5 -186t39.5 -186
t131.5 -57q74 0 116.5 55.5t42.5 124.5v126z" />
    <glyph glyph-name="Emacron" unicode="&#x112;" horiz-adv-x="557" 
d="M107 0v720h385q3 -6 3 -16t-3 -16h-351v-307h301q3 -6 3 -15q0 -8 -3 -16h-301v-318h361q3 -8 3 -15q0 -9 -3 -17h-395zM433 802h-259q-4 7 -4 16t4 16h259q4 -5 4 -15t-4 -17z" />
    <glyph glyph-name="emacron" unicode="&#x113;" horiz-adv-x="508" 
d="M438 252h-339q4 -121 47 -175t131 -54q37 0 69 10t46 20l14 10q15 -9 17 -27q-6 -5 -17.5 -12.5t-52 -20.5t-86.5 -13q-98 0 -150 70.5t-52 205.5q0 136 55 203t150 67q86 0 132.5 -51t46.5 -133q0 -27 -2.5 -52t-5.5 -36zM415 357q0 64 -36 106.5t-109 42.5
q-78 0 -123 -55t-48 -169h310q6 28 6 75zM398 642h-240q-4 7 -4 15t4 15h240q3 -4 3 -14q0 -11 -3 -16z" />
    <glyph glyph-name="Ebreve" unicode="&#x114;" horiz-adv-x="557" 
d="M107 0v720h385q3 -6 3 -16t-3 -16h-351v-307h301q3 -6 3 -15q0 -8 -3 -16h-301v-318h361q3 -8 3 -15q0 -9 -3 -17h-395zM432 851l-5.5 -5.5t-16 -12.5t-27 -15.5t-37.5 -12t-48 -5.5q-40 0 -73.5 13t-46.5 25l-14 13q4 14 18 19q5 -5 15 -12t40 -18.5t61 -11.5t59.5 10.5
t42.5 21.5l13 10q16 -4 19 -19z" />
    <glyph glyph-name="ebreve" unicode="&#x115;" horiz-adv-x="508" 
d="M438 252h-339q4 -121 47 -175t131 -54q37 0 69 10t46 20l14 10q15 -9 17 -27q-6 -5 -17.5 -12.5t-52 -20.5t-86.5 -13q-98 0 -150 70.5t-52 205.5q0 136 55 203t150 67q86 0 132.5 -51t46.5 -133q0 -27 -2.5 -52t-5.5 -36zM415 357q0 64 -36 106.5t-109 42.5
q-78 0 -123 -55t-48 -169h310q6 28 6 75zM398 688q-5 -6 -14.5 -15t-43.5 -24t-72 -15t-70.5 13.5t-45.5 26.5l-14 14q4 14 18 19q5 -5 14.5 -12t38.5 -19t59 -12t58 11t41 21l13 11q15 -4 18 -19z" />
    <glyph glyph-name="Edotaccent" unicode="&#x116;" horiz-adv-x="557" 
d="M107 0v720h385q3 -6 3 -16t-3 -16h-351v-307h301q3 -6 3 -15q0 -8 -3 -16h-301v-318h361q3 -8 3 -15q0 -9 -3 -17h-395zM327 833v-42q-8 -3 -24 -3l-24 3v42q8 3 24 3z" />
    <glyph glyph-name="edotaccent" unicode="&#x117;" horiz-adv-x="508" 
d="M438 252h-339q4 -121 47 -175t131 -54q37 0 69 10t46 20l14 10q15 -9 17 -27q-6 -5 -17.5 -12.5t-52 -20.5t-86.5 -13q-98 0 -150 70.5t-52 205.5q0 136 55 203t150 67q86 0 132.5 -51t46.5 -133q0 -27 -2.5 -52t-5.5 -36zM415 357q0 64 -36 106.5t-109 42.5
q-78 0 -123 -55t-48 -169h310q6 28 6 75zM296 686v-42q-8 -3 -24 -3l-24 3v42q8 3 24 3z" />
    <glyph glyph-name="Eogonek" unicode="&#x118;" horiz-adv-x="557" 
d="M141 32h361q3 -8 3 -15q0 -9 -3 -17h-10q-43 -8 -74 -32t-31 -65q0 -49 54 -49q11 0 21.5 2.5t15.5 5.5l5 2q9 -8 9 -22q-21 -16 -57 -16q-39 0 -60 20t-21 53q0 70 75 101h-322v720h385q3 -6 3 -16t-3 -16h-351v-307h301q3 -6 3 -15q0 -8 -3 -16h-301v-318z" />
    <glyph glyph-name="eogonek" unicode="&#x119;" horiz-adv-x="508" 
d="M270 536q86 0 132.5 -51t46.5 -133q0 -27 -2.5 -52t-5.5 -36l-3 -12h-339q4 -121 47 -175t131 -54q37 0 69 10t46 20l14 10q15 -9 17 -27q-32 -28 -94 -40q-84 -25 -84 -92q0 -49 54 -49q11 0 21.5 2.5t15.5 4.5l5 3q9 -7 9 -22q-21 -16 -57 -16q-39 0 -60 20t-21 53
q0 57 50 90q-96 2 -146.5 72.5t-50.5 203.5q0 136 55 203t150 67zM99 282h310q6 28 6 75q0 64 -36 106.5t-109 42.5q-78 0 -123 -55t-48 -169z" />
    <glyph glyph-name="Ecaron" unicode="&#x11a;" horiz-adv-x="557" 
d="M107 0v720h385q3 -6 3 -16t-3 -16h-351v-307h301q3 -6 3 -15q0 -8 -3 -16h-301v-318h361q3 -8 3 -15q0 -9 -3 -17h-395zM301 771h-26l-124 101q3 15 17 21l121 -91l119 90q13 -3 16 -20z" />
    <glyph glyph-name="ecaron" unicode="&#x11b;" horiz-adv-x="509" 
d="M439 252h-339q4 -121 47 -175t131 -54q37 0 69 10t46 20l14 10q15 -9 17 -27q-6 -5 -17.5 -12.5t-52 -20.5t-86.5 -13q-98 0 -150 70.5t-52 205.5q0 136 55 203t150 67q86 0 132.5 -51t46.5 -133q0 -27 -3 -52t-5 -36zM416 357q0 64 -36 106.5t-109 42.5q-78 0 -123 -55
t-48 -169h310q6 28 6 75zM281 602h-25l-118 96q3 14 16 20l115 -87l114 86q11 -3 15 -19z" />
    <glyph glyph-name="Gcircumflex" unicode="&#x11c;" horiz-adv-x="619" 
d="M347 -10q-133 0 -203 92.5t-70 277.5q0 183 70.5 276.5t202.5 93.5q50 0 95.5 -8t65.5 -16l20 -8q2 -7 -2 -15q-2 -4 -4.5 -6.5l-3.5 -3.5l-2 -1q-73 27 -164 27q-242 0 -242 -340q0 -184 64 -260.5t178 -76.5q72 0 153 19v301h-193q-3 6 -3 16l3 16h227v-352
q-74 -32 -192 -32zM357 893h26l123 -101q-3 -17 -16 -20l-121 90l-119 -91q-14 6 -17 21z" />
    <glyph glyph-name="gcircumflex" unicode="&#x11d;" horiz-adv-x="516" 
d="M154 215q-85 40 -85 151q0 80 47 125t131 45q59 0 104 -24l129 23q8 -17 0 -36l-99 -11q44 -44 44 -122q0 -79 -46.5 -124t-131.5 -45q-36 0 -66 8q-38 -45 -38 -95q0 -32 34.5 -46.5t84 -19t99 -12.5t84 -37.5t34.5 -84.5q0 -68 -62 -114t-177 -46q-97 0 -145.5 41
t-48.5 105q0 38 18.5 73t35 51t34.5 29q-26 21 -26 58q0 47 46 108zM240 -221q92 0 149 35.5t57 92.5q0 37 -19.5 59.5t-53.5 31.5t-69 13t-76.5 9t-65.5 14q-38 -25 -59 -61t-21 -72q0 -57 41 -89.5t117 -32.5zM247 508q-66 0 -105 -36.5t-39 -104.5q0 -69 39 -105.5
t105 -36.5t105 36.5t39 105.5q0 68 -39 104.5t-105 36.5zM233 721h25l121 -99q-4 -16 -16 -19l-118 88l-117 -89q-13 5 -16 20z" />
    <glyph glyph-name="Gbreve" unicode="&#x11e;" horiz-adv-x="619" 
d="M347 -10q-133 0 -203 92.5t-70 277.5q0 183 70.5 276.5t202.5 93.5q50 0 95.5 -8t65.5 -16l20 -8q2 -7 -2 -15q-2 -4 -4.5 -6.5l-3.5 -3.5l-2 -1q-73 27 -164 27q-242 0 -242 -340q0 -184 64 -260.5t178 -76.5q72 0 153 19v301h-193q-3 6 -3 16l3 16h227v-352
q-74 -32 -192 -32zM484 840l-5.5 -5.5t-16 -12.5t-27 -15.5t-37.5 -12t-48 -5.5t-48 5.5t-38 12.5t-26.5 14.5t-16.5 12.5l-5 6q4 14 18 19q5 -5 15 -12t40 -18.5t61 -11.5t59.5 10.5t42.5 20.5l13 11q16 -4 19 -19z" />
    <glyph glyph-name="gbreve" unicode="&#x11f;" horiz-adv-x="516" 
d="M154 215q-85 40 -85 151q0 80 47 125t131 45q59 0 104 -24l129 23q8 -17 0 -36l-99 -11q44 -44 44 -122q0 -79 -46.5 -124t-131.5 -45q-36 0 -66 8q-38 -45 -38 -95q0 -32 34.5 -46.5t84 -19t99 -12.5t84 -37.5t34.5 -84.5q0 -68 -62 -114t-177 -46q-97 0 -145.5 41
t-48.5 105q0 38 18.5 73t35 51t34.5 29q-26 21 -26 58q0 47 46 108zM240 -221q92 0 149 35.5t57 92.5q0 37 -19.5 59.5t-53.5 31.5t-69 13t-76.5 9t-65.5 14q-38 -25 -59 -61t-21 -72q0 -57 41 -89.5t117 -32.5zM247 508q-66 0 -105 -36.5t-39 -104.5q0 -69 39 -105.5
t105 -36.5t105 36.5t39 105.5q0 68 -39 104.5t-105 36.5zM380 688q-5 -6 -14.5 -15t-43.5 -24t-72 -15t-70.5 13.5t-45.5 26.5l-14 14q4 14 18 19q5 -5 14.5 -12t38.5 -19t59 -12t58 11t41 21l13 11q15 -4 18 -19z" />
    <glyph glyph-name="Gdotaccent" unicode="&#x120;" horiz-adv-x="619" 
d="M347 -10q-133 0 -203 92.5t-70 277.5q0 183 70.5 276.5t202.5 93.5q50 0 95.5 -8t65.5 -16l20 -8q2 -7 -2 -15q-2 -4 -4.5 -6.5l-3.5 -3.5l-2 -1q-73 27 -164 27q-242 0 -242 -340q0 -184 64 -260.5t178 -76.5q72 0 153 19v301h-193q-3 6 -3 16l3 16h227v-352
q-74 -32 -192 -32zM374 833v-42q-8 -3 -24 -3l-24 3v42q8 3 24 3z" />
    <glyph glyph-name="gdotaccent" unicode="&#x121;" horiz-adv-x="516" 
d="M154 215q-85 40 -85 151q0 80 47 125t131 45q59 0 104 -24l129 23q8 -17 0 -36l-99 -11q44 -44 44 -122q0 -79 -46.5 -124t-131.5 -45q-36 0 -66 8q-38 -45 -38 -95q0 -32 34.5 -46.5t84 -19t99 -12.5t84 -37.5t34.5 -84.5q0 -68 -62 -114t-177 -46q-97 0 -145.5 41
t-48.5 105q0 38 18.5 73t35 51t34.5 29q-26 21 -26 58q0 47 46 108zM240 -221q92 0 149 35.5t57 92.5q0 37 -19.5 59.5t-53.5 31.5t-69 13t-76.5 9t-65.5 14q-38 -25 -59 -61t-21 -72q0 -57 41 -89.5t117 -32.5zM247 508q-66 0 -105 -36.5t-39 -104.5q0 -69 39 -105.5
t105 -36.5t105 36.5t39 105.5q0 68 -39 104.5t-105 36.5zM275 646v-42q-8 -3 -24 -3l-24 3v42q8 3 24 3z" />
    <glyph glyph-name="Gcommaaccent" unicode="&#x122;" horiz-adv-x="619" 
d="M347 -10q-133 0 -203 92.5t-70 277.5q0 183 70.5 276.5t202.5 93.5q50 0 95.5 -8t65.5 -16l20 -8q2 -7 -2 -15q-2 -4 -4.5 -6.5l-3.5 -3.5l-2 -1q-73 27 -164 27q-242 0 -242 -340q0 -184 64 -260.5t178 -76.5q72 0 153 19v301h-193q-3 6 -3 16l3 16h227v-352
q-74 -32 -192 -32zM330 -186l-17 11q30 26 35 77l-19 3v39q9 3 26 3l25 -3v-30q0 -29 -12.5 -54t-25.5 -36z" />
    <glyph glyph-name="gcommaaccent" unicode="&#x123;" horiz-adv-x="516" 
d="M154 215q-85 40 -85 151q0 80 47 125t131 45q59 0 104 -24l129 23q8 -17 0 -36l-99 -11q44 -44 44 -122q0 -79 -46.5 -124t-131.5 -45q-36 0 -66 8q-38 -45 -38 -95q0 -32 34.5 -46.5t84 -19t99 -12.5t84 -37.5t34.5 -84.5q0 -68 -62 -114t-177 -46q-97 0 -145.5 41
t-48.5 105q0 38 18.5 73t35 51t34.5 29q-26 21 -26 58q0 47 46 108zM240 -221q92 0 149 35.5t57 92.5q0 37 -19.5 59.5t-53.5 31.5t-69 13t-76.5 9t-65.5 14q-38 -25 -59 -61t-21 -72q0 -57 41 -89.5t117 -32.5zM247 508q-66 0 -105 -36.5t-39 -104.5q0 -69 39 -105.5
t105 -36.5t105 36.5t39 105.5q0 68 -39 104.5t-105 36.5zM272 727l17 -10q-29 -25 -34 -73l18 -3v-37q-8 -2 -24 -2l-25 2v29q0 27 12 50.5t24 33.5z" />
    <glyph glyph-name="Hcircumflex" unicode="&#x124;" horiz-adv-x="672" 
d="M532 385v332q6 3 17 3l17 -3v-714q-5 -3 -17 -3l-17 3v350h-392v-350q-6 -3 -17 -3l-17 3v714q6 3 17 3l17 -3v-332h392zM330 893h26l123 -101q-3 -17 -16 -20l-121 90l-119 -91q-14 6 -17 21z" />
    <glyph glyph-name="hcircumflex" unicode="&#x125;" 
d="M461 388v-385q-5 -3 -16 -3l-16 3v377q0 127 -129 127q-54 0 -103 -35.5t-74 -95.5v-373q-5 -3 -16 -3l-16 3v744q5 3 16 3l16 -3v-312q66 101 187 101q70 0 110.5 -40t40.5 -108zM255 881h25l118 -97q-3 -16 -16 -19l-116 87l-114 -88q-15 6 -16 20z" />
    <glyph glyph-name="Hbar" unicode="&#x126;" horiz-adv-x="682" 
d="M648 588q3 -4 3 -14q0 -9 -3 -15h-75v-556q-5 -3 -17 -3l-17 3v350h-392v-350q-6 -3 -17 -3l-17 3v556h-65q-3 7 -3 15t3 14h65v129q6 3 17 3l17 -3v-129h392v129q6 3 17 3l17 -3v-129h75zM539 385v174h-392v-174h392z" />
    <glyph glyph-name="hbar" unicode="&#x127;" 
d="M329 629h-310q-5 15 0 29h310q7 -14 0 -29zM461 388v-385q-5 -3 -16 -3l-16 3v377q0 127 -129 127q-54 0 -103 -35.5t-74 -95.5v-373q-5 -3 -16 -3l-16 3v744q5 3 16 3l16 -3v-312q66 101 187 101q70 0 110.5 -40t40.5 -108z" />
    <glyph glyph-name="Itilde" unicode="&#x128;" horiz-adv-x="246" 
d="M106 3v714q5 3 17 3l17 -3v-714q-5 -3 -17 -3zM188 798q12 0 21.5 7t12.5 15l4 7q17 2 25 -11l-2.5 -5t-7 -11t-13 -14t-19.5 -11t-26 -5q-25 0 -56 17.5t-48 17.5q-12 0 -21.5 -7.5t-13.5 -14.5l-3 -7q-20 -2 -25 11l2.5 5t7 11t13 14t19.5 11t26 5q24 0 55.5 -17.5
t48.5 -17.5z" />
    <glyph glyph-name="itilde" unicode="&#x129;" horiz-adv-x="222" 
d="M127 523v-520q-4 -3 -16 -3l-16 3v520q4 3 16 3zM166 629q10 0 18 6.5t11 13.5l3 7q14 2 21 -10q-2 -5 -5.5 -12.5t-18 -20t-33.5 -12.5q-20 0 -45.5 17t-40.5 17q-10 0 -18 -7t-11 -14l-3 -7q-14 -2 -21 10q2 5 5.5 12.5t18.5 20.5t33 13q21 0 46.5 -17t39.5 -17z" />
    <glyph glyph-name="Imacron" unicode="&#x12a;" horiz-adv-x="246" 
d="M106 3v714q5 3 17 3l17 -3v-714q-5 -3 -17 -3zM258 781h-267q-4 7 -4 16t4 16h267q4 -5 4 -15t-4 -17z" />
    <glyph glyph-name="imacron" unicode="&#x12b;" horiz-adv-x="222" 
d="M127 523v-520q-4 -3 -16 -3l-16 3v520q4 3 16 3zM200 602h-176q-2 5 -2 15q0 11 2 15h176q2 -3 2 -14t-2 -16z" />
    <glyph glyph-name="Ibreve" unicode="&#x12c;" horiz-adv-x="246" 
d="M106 3v714q5 3 17 3l17 -3v-714q-5 -3 -17 -3zM255 840l-5.5 -5.5t-16 -12.5t-27 -15.5t-37.5 -12t-48 -5.5t-48 5.5t-38 12.5t-26.5 14.5t-16.5 12.5l-5 6q4 14 18 19q5 -5 15 -12t40 -18.5t61 -11.5t59.5 10.5t41.5 20.5l14 11q16 -4 19 -19z" />
    <glyph glyph-name="ibreve" unicode="&#x12d;" horiz-adv-x="222" 
d="M127 523v-520q-4 -3 -16 -3l-16 3v520q4 3 16 3zM240 688q-5 -6 -14.5 -15t-43.5 -24t-72 -15t-70.5 13.5t-45.5 26.5l-14 14q4 14 18 19q5 -5 14.5 -12t38.5 -19t59 -12t58 11t41 21l13 11q15 -4 18 -19z" />
    <glyph glyph-name="Iogonek" unicode="&#x12e;" horiz-adv-x="247" 
d="M110 -144q11 0 21.5 2.5t15.5 5.5l5 2q9 -8 9 -22q-21 -16 -57 -16q-39 0 -60 20t-21 53q0 34 23 66t61 47v703q5 3 17 3l17 -3v-715q-36 -7 -60.5 -35t-24.5 -62q0 -49 54 -49z" />
    <glyph glyph-name="iogonek" unicode="&#x12f;" horiz-adv-x="223" 
d="M120 -134q9 -8 9 -22q-21 -16 -57 -16q-39 0 -60 20t-21 53q0 51 40 83t98 38v-20q-43 -8 -74 -32t-31 -65q0 -49 54 -49q11 0 21.5 2.5t15.5 5.5zM129 523v-520q-4 -3 -16 -3l-16 3v520q4 3 16 3zM137 651v-42q-8 -3 -24 -3l-24 3v42q8 3 24 3z" />
    <glyph glyph-name="Idotaccent" unicode="&#x130;" horiz-adv-x="246" 
d="M106 3v714q5 3 17 3l17 -3v-714q-5 -3 -17 -3zM147 833v-42q-8 -3 -24 -3l-24 3v42q8 3 24 3z" />
    <glyph glyph-name="dotlessi" unicode="&#x131;" horiz-adv-x="220" 
d="M126 523v-520q-4 -3 -16 -3l-16 3v520q4 3 16 3z" />
    <glyph glyph-name="IJ" unicode="&#x132;" horiz-adv-x="615" 
d="M106 3v714q5 3 17 3l17 -3v-714q-5 -3 -17 -3zM479 154v563q4 3 17 3l17 -3v-563q0 -85 -36 -124.5t-116 -39.5q-33 0 -66.5 7.5t-50.5 14.5l-17 8q-2 19 11 28q58 -26 123 -26q57 0 87.5 30t30.5 102z" />
    <glyph glyph-name="ij" unicode="&#x133;" horiz-adv-x="375" 
d="M126 523v-520q-4 -3 -16 -3l-16 3v520q4 3 16 3zM134 651v-42q-8 -3 -24 -3l-24 3v42q8 3 24 3zM248 -92v615q4 3 16 3l16 -3v-611q0 -162 -131 -162q-19 0 -33 2t-18 4l-5 3q-1 3 -1 8l4 16q16 -4 45 -4q55 0 81 30.5t26 98.5zM288 651v-42q-8 -3 -24 -3l-24 3v42
q8 3 24 3z" />
    <glyph glyph-name="Jcircumflex" unicode="&#x134;" horiz-adv-x="418" 
d="M282 154v563q4 3 17 3l17 -3v-563q0 -85 -36 -124.5t-116 -39.5q-33 0 -66.5 7.5t-50.5 14.5l-17 8q-2 19 11 28q58 -26 123 -26q58 0 88 30t30 102zM286 893h26l123 -101q-3 -17 -16 -20l-121 90l-119 -91q-14 6 -17 21z" />
    <glyph glyph-name="jcircumflex" unicode="&#x135;" horiz-adv-x="222" 
d="M95 -92v615q4 3 16 3l16 -3v-611q0 -162 -131 -162q-19 0 -33 2t-19 4l-4 3q-1 3 -1 8l4 16q16 -4 45 -4q55 0 81 30.5t26 98.5zM98 702h26l120 -98q-3 -17 -16 -20l-118 88l-117 -89q-13 6 -16 21z" />
    <glyph glyph-name="Kcommaaccent" unicode="&#x136;" horiz-adv-x="607" 
d="M140 717v-327h144l230 327q6 3 19 3l19 -3l-239 -340l267 -374q-6 -3 -19 -3l-22 3l-254 355h-145v-355q-6 -3 -17 -3l-17 3v714q6 3 17 3zM292 -182l-16 12q28 28 33 82l-18 3v42q8 3 24 3l24 -3v-32q0 -31 -11.5 -58t-23.5 -38z" />
    <glyph glyph-name="kcommaaccent" unicode="&#x137;" horiz-adv-x="494" 
d="M123 747v-457h123l164 233q6 3 21 3l16 -2l-174 -247l198 -273q-5 -4 -19 -4l-21 4l-185 256h-123v-257q-4 -3 -16 -3l-16 3v744q4 3 16 3zM252 -182l-16 12q28 28 33 82l-18 3v42q8 3 24 3l24 -3v-32q0 -31 -11.5 -58t-23.5 -38z" />
    <glyph glyph-name="kgreenlandic" unicode="&#x138;" horiz-adv-x="501" 
d="M455 523l-201 -224l222 -296q-6 -3 -19 -3l-22 3l-205 270l-107 -120v-150q-6 -3 -16 -3t-16 3v521q6 2 16 2q12 0 16 -2v-327l291 326q8 3 21 3t20 -3z" />
    <glyph glyph-name="Lacute" unicode="&#x139;" horiz-adv-x="502" 
d="M106 0v717q6 3 17 3l17 -3v-685h331q3 -6 3 -16l-3 -16h-365zM230 906l-125 -147q-18 1 -24 14l117 150q21 0 32 -17z" />
    <glyph glyph-name="lacute" unicode="&#x13a;" horiz-adv-x="224" 
d="M128 747v-744q-4 -3 -16 -3l-16 3v744q4 3 16 3zM201 927l-125 -147q-18 1 -24 14l117 150q21 0 32 -17z" />
    <glyph glyph-name="Lcommaaccent" unicode="&#x13b;" horiz-adv-x="502" 
d="M106 0v717q6 3 17 3l17 -3v-685h331q3 -6 3 -16l-3 -16h-365zM262 -202l-16 12q28 28 33 82l-18 3v42q8 3 24 3l24 -3v-32q0 -31 -11.5 -58t-23.5 -38z" />
    <glyph glyph-name="lcommaaccent" unicode="&#x13c;" horiz-adv-x="224" 
d="M128 747v-744q-4 -3 -16 -3l-16 3v744q4 3 16 3zM89 -182l-16 12q28 28 33 82l-18 3v42q8 3 24 3l24 -3v-32q0 -31 -12 -58t-24 -38z" />
    <glyph glyph-name="Lcaron" unicode="&#x13d;" horiz-adv-x="503" 
d="M304 569q-15 0 -19 11q62 53 57 150q22 5 34 -4q0 -45 -19 -89.5t-53 -67.5zM107 0v717q6 3 17 3l17 -3v-685h331q3 -6 3 -16l-3 -16h-365z" />
    <glyph glyph-name="lcaron" unicode="&#x13e;" horiz-adv-x="230" 
d="M203 591q-14 1 -18 12q65 48 68 146q22 3 33 -6q-3 -45 -25 -88t-58 -64zM128 747v-744q-4 -3 -16 -3l-16 3v744q4 3 16 3z" />
    <glyph glyph-name="Ldot" unicode="&#x13f;" horiz-adv-x="503" 
d="M106 0v717q6 3 17 3l17 -3v-685h331q3 -6 3 -16l-3 -16h-365zM348 355v-42q-8 -3 -24 -3l-24 3v42q8 3 24 3z" />
    <glyph glyph-name="ldot" unicode="&#x140;" horiz-adv-x="257" 
d="M128 747v-744q-4 -3 -16 -3l-16 3v744q4 3 16 3zM261 355v-42q-8 -3 -24 -3l-24 3v42q8 3 24 3z" />
    <glyph glyph-name="Lslash" unicode="&#x141;" horiz-adv-x="516" 
d="M154 32h331q3 -6 3 -16l-3 -16h-365v333l-71 -41q-15 8 -15 25l86 50v350q6 3 17 3l17 -3v-331l112 65q13 -7 15 -25l-127 -73v-321z" />
    <glyph glyph-name="lslash" unicode="&#x142;" horiz-adv-x="314" 
d="M275 454l-103 -60v-391q-4 -3 -16 -3l-16 3v372l-85 -49q-15 7 -15 26l100 58v337q4 3 16 3l16 -3v-318l88 51q15 -8 15 -26z" />
    <glyph glyph-name="Nacute" unicode="&#x143;" horiz-adv-x="690" 
d="M545 3l-361 588q-15 24 -26.5 45t-15.5 30l-4 9h-2q3 -36 3 -130v-542q-5 -3 -17 -3l-16 3v714q7 3 20 3l19 -3l358 -580l50 -90h2q-4 48 -4 120v550q5 3 17 3l16 -3v-714q-6 -3 -19 -3zM465 906l-125 -147q-18 1 -24 14l117 150q21 0 32 -17z" />
    <glyph glyph-name="nacute" unicode="&#x144;" 
d="M461 388v-385q-5 -3 -16 -3l-16 3v377q0 127 -129 127q-54 0 -103 -35.5t-74 -95.5v-373q-5 -3 -16 -3l-16 3v520q5 3 16 3l16 -3v-88q66 101 187 101q70 0 110.5 -40t40.5 -108zM348 757l-125 -147q-18 1 -24 14l117 150q21 0 32 -17z" />
    <glyph glyph-name="Ncommaaccent" unicode="&#x145;" horiz-adv-x="690" 
d="M545 3l-361 588q-15 24 -26.5 45t-15.5 30l-4 9h-2q3 -36 3 -130v-542q-5 -3 -17 -3l-16 3v714q7 3 20 3l19 -3l358 -580l50 -90h2q-4 48 -4 120v550q5 3 17 3l16 -3v-714q-6 -3 -19 -3zM327 -192l-16 12q28 28 33 82l-18 3v42q8 3 24 3l24 -3v-32q0 -31 -12 -58t-24 -38
z" />
    <glyph glyph-name="ncommaaccent" unicode="&#x146;" 
d="M461 388v-385q-5 -3 -16 -3l-16 3v377q0 127 -129 127q-54 0 -103 -35.5t-74 -95.5v-373q-5 -3 -16 -3l-16 3v520q5 3 16 3l16 -3v-88q66 101 187 101q70 0 110.5 -40t40.5 -108zM258 -182l-16 12q28 28 33 82l-18 3v42q8 3 24 3l24 -3v-32q0 -31 -11.5 -58t-23.5 -38z
" />
    <glyph glyph-name="Ncaron" unicode="&#x147;" horiz-adv-x="690" 
d="M545 3l-361 588q-15 24 -26.5 45t-15.5 30l-4 9h-2q3 -36 3 -130v-542q-5 -3 -17 -3l-16 3v714q7 3 20 3l19 -3l358 -580l50 -90h2q-4 48 -4 120v550q5 3 17 3l16 -3v-714q-6 -3 -19 -3zM365 771h-26l-124 101q3 15 17 21l121 -91l119 90q13 -3 16 -20z" />
    <glyph glyph-name="ncaron" unicode="&#x148;" horiz-adv-x="549" 
d="M461 3v385q0 68 -40.5 108t-110.5 40q-121 0 -187 -101v88q-5 3 -16 3l-16 -3v-520q5 -3 16 -3l16 3v373q25 60 74 95.5t103 35.5q129 0 129 -127v-377q5 -3 16 -3zM294 602h-23l-114 93q3 15 15 20l111 -84l109 83q12 -3 15 -19z" />
    <glyph glyph-name="napostrophe" unicode="&#x149;" 
d="M97 591q-14 1 -18 12q65 48 68 146q22 3 33 -6q-3 -45 -25 -88t-58 -64zM461 388v-385q-5 -3 -16 -3l-16 3v377q0 127 -129 127q-54 0 -103 -35.5t-74 -95.5v-373q-5 -3 -16 -3l-16 3v520q5 3 16 3l16 -3v-88q66 101 187 101q70 0 110.5 -40t40.5 -108z" />
    <glyph glyph-name="Eng" unicode="&#x14a;" horiz-adv-x="690" 
d="M551 717q5 3 17 3l16 -3v-773q0 -72 -21 -112t-83 -60q-13 7 -10 26q45 16 63 48t18 96v59l-6 2l-361 588q-15 24 -26.5 45t-15.5 30l-4 9h-2q3 -36 3 -130v-542q-5 -3 -17 -3l-16 3v714q7 3 20 3l19 -3l358 -580l50 -90h2q-4 48 -4 120v550z" />
    <glyph glyph-name="eng" unicode="&#x14b;" 
d="M123 435q66 101 187 101q70 0 110.5 -40t40.5 -108v-444q0 -72 -21 -112t-83 -60q-12 8 -10 25q46 16 64 48.5t18 96.5v438q0 127 -129 127q-54 0 -103 -35.5t-74 -95.5v-373q-5 -3 -16 -3l-16 3v520q5 3 16 3l16 -3v-88z" />
    <glyph glyph-name="Omacron" unicode="&#x14c;" horiz-adv-x="678" 
d="M339 -10q-265 0 -265 370t265 370t265 -370t-265 -370zM339 700q-229 0 -229 -340t229 -340t229 340t-229 340zM471 798h-259q-4 7 -4 16t4 16h259q4 -5 4 -15t-4 -17z" />
    <glyph glyph-name="omacron" unicode="&#x14d;" horiz-adv-x="538" 
d="M269 -10q-100 0 -151.5 64.5t-51.5 208.5t51.5 208.5t151.5 64.5t151.5 -64.5t51.5 -208.5t-51.5 -208.5t-151.5 -64.5zM269 507q-83 0 -126 -55.5t-43 -188.5t43 -188.5t126 -55.5t126 55.5t43 188.5t-43 188.5t-126 55.5zM383 643h-214q-3 7 -3 15q0 7 3 15h214
q3 -6 3 -14q0 -9 -3 -16z" />
    <glyph glyph-name="Obreve" unicode="&#x14e;" horiz-adv-x="678" 
d="M339 -10q-265 0 -265 370t265 370t265 -370t-265 -370zM339 700q-229 0 -229 -340t229 -340t229 340t-229 340zM475 840l-5.5 -5.5t-16 -12.5t-27 -15.5t-37.5 -12t-48 -5.5t-48 5.5t-38 12.5t-26.5 14.5t-16.5 12.5l-5 6q4 14 18 19q5 -5 15 -12t40 -18.5t61 -11.5
t59.5 10.5t41.5 20.5l14 11q16 -4 19 -19z" />
    <glyph glyph-name="obreve" unicode="&#x14f;" horiz-adv-x="538" 
d="M269 -10q-100 0 -151.5 64.5t-51.5 208.5t51.5 208.5t151.5 64.5t151.5 -64.5t51.5 -208.5t-51.5 -208.5t-151.5 -64.5zM269 507q-83 0 -126 -55.5t-43 -188.5t43 -188.5t126 -55.5t126 55.5t43 188.5t-43 188.5t-126 55.5zM398 688q-5 -6 -14.5 -15t-43.5 -24t-72 -15
t-70.5 13.5t-45.5 26.5l-14 14q4 14 18 19q5 -5 14.5 -12t38.5 -19t59 -12t58 11t41 21l13 11q15 -4 18 -19z" />
    <glyph glyph-name="Ohungarumlaut" unicode="&#x150;" horiz-adv-x="678" 
d="M339 -10q-265 0 -265 370t265 370t265 -370t-265 -370zM339 700q-229 0 -229 -340t229 -340t229 340t-229 340zM368 899l-111 -131q-19 2 -23 13l98 135q24 0 36 -17zM512 899l-112 -131q-17 2 -23 13l99 135q22 0 36 -17z" />
    <glyph glyph-name="ohungarumlaut" unicode="&#x151;" horiz-adv-x="538" 
d="M269 -10q-100 0 -151.5 64.5t-51.5 208.5t51.5 208.5t151.5 64.5t151.5 -64.5t51.5 -208.5t-51.5 -208.5t-151.5 -64.5zM269 507q-83 0 -126 -55.5t-43 -188.5t43 -188.5t126 -55.5t126 55.5t43 188.5t-43 188.5t-126 55.5zM307 712l-109 -115q-16 1 -22 12l96 118
q23 0 35 -15zM445 712l-109 -115q-16 1 -22 12l96 118q23 0 35 -15z" />
    <glyph glyph-name="OE" unicode="&#x152;" horiz-adv-x="828" 
d="M773 0h-340q-38 -10 -84 -10q-132 0 -203.5 90.5t-71.5 279.5t71.5 279.5t203.5 90.5q37 0 85 -10h329q3 -6 3 -16t-3 -16h-301v-307h251q3 -6 3 -15q0 -8 -3 -16h-251v-318h311q3 -8 3 -15q0 -9 -3 -17zM110 360q0 -340 239 -340q42 0 79 13v655q-36 12 -79 12
q-239 0 -239 -340z" />
    <glyph glyph-name="oe" unicode="&#x153;" horiz-adv-x="833" 
d="M762 252h-309q5 -122 42 -176t116 -54q32 0 62 10t43 20l14 9q15 -8 17 -25q-5 -5 -16 -12.5t-48.5 -20.5t-81.5 -13q-125 0 -166 140q-20 -74 -60.5 -107t-110.5 -33q-97 0 -147 64.5t-50 208.5t50 208.5t147 64.5q69 0 110.5 -33t61.5 -107q42 140 168 140
q82 0 125.5 -51t43.5 -133q0 -27 -2.5 -52t-5.5 -36zM264 507q-80 0 -121.5 -55.5t-41.5 -188.5t41.5 -188.5t121.5 -55.5q79 0 116 55.5t37 190.5t-37 188.5t-116 53.5zM739 357q0 65 -33 107t-102 42q-145 0 -151 -224h280q6 28 6 75z" />
    <glyph glyph-name="Racute" unicode="&#x154;" horiz-adv-x="615" 
d="M141 688v-685q-5 -3 -17 -3l-17 3v717h236q91 0 143 -53.5t52 -143.5t-52 -143.5t-144 -53.5h-216v32h219q73 0 115 44t42 121t-42 121t-115 44h-204zM387 335l175 -332q-7 -3 -19 -3l-21 3l-170 323zM371 906l-125 -147q-18 1 -24 14l117 150q21 0 32 -17z" />
    <glyph glyph-name="racute" unicode="&#x155;" horiz-adv-x="385" 
d="M123 423q63 112 153 112q23 0 44 -5.5t30 -11.5l9 -5q-2 -19 -17 -27q-36 18 -75 18q-74 0 -144 -136v-365q-4 -3 -16 -3l-16 3v520q4 3 16 3l16 -3v-100zM298 757l-125 -147q-18 1 -24 14l117 150q21 0 32 -17z" />
    <glyph glyph-name="Rcommaaccent" unicode="&#x156;" horiz-adv-x="615" 
d="M141 688v-685q-5 -3 -17 -3l-17 3v717h236q91 0 143 -53.5t52 -143.5t-52 -143.5t-144 -53.5h-216v32h219q73 0 115 44t42 121t-42 121t-115 44h-204zM387 335l175 -332q-7 -3 -19 -3l-21 3l-170 323zM293 -182l-16 12q28 28 33 82l-18 3v42q8 3 24 3l24 -3v-32
q0 -31 -12 -58t-24 -38z" />
    <glyph glyph-name="rcommaaccent" unicode="&#x157;" horiz-adv-x="385" 
d="M123 423q63 112 153 112q23 0 44 -5.5t30 -11.5l9 -5q-2 -19 -17 -27q-36 18 -75 18q-74 0 -144 -136v-365q-4 -3 -16 -3l-16 3v520q4 3 16 3l16 -3v-100zM84 -182l-16 12q28 28 33 82l-18 3v42q8 3 24 3l24 -3v-32q0 -31 -11.5 -58t-23.5 -38z" />
    <glyph glyph-name="Rcaron" unicode="&#x158;" horiz-adv-x="615" 
d="M141 688v-685q-5 -3 -17 -3l-17 3v717h236q91 0 143 -53.5t52 -143.5t-52 -143.5t-144 -53.5h-216v32h219q73 0 115 44t42 121t-42 121t-115 44h-204zM387 335l175 -332q-7 -3 -19 -3l-21 3l-170 323zM301 771h-26l-124 101q3 15 17 21l121 -91l119 90q13 -3 16 -20z" />
    <glyph glyph-name="rcaron" unicode="&#x159;" horiz-adv-x="385" 
d="M123 423q63 112 153 112q23 0 44 -5.5t30 -11.5l9 -5q-2 -19 -17 -27q-36 18 -75 18q-74 0 -144 -136v-365q-4 -3 -16 -3l-16 3v520q4 3 16 3l16 -3v-100zM214 602h-23l-114 93q3 15 15 20l111 -84l109 83q12 -3 15 -19z" />
    <glyph glyph-name="Sacute" unicode="&#x15a;" horiz-adv-x="560" 
d="M298 699q-96 0 -145 -42t-49 -115q0 -32 10.5 -56.5t24 -39.5t43 -28.5t50 -19.5t62.5 -17q38 -10 61.5 -17.5t54.5 -23.5t48 -35t29.5 -50.5t12.5 -71.5q0 -90 -62 -141.5t-171 -51.5q-53 0 -102.5 9t-72.5 19l-23 9q-2 18 10 28q87 -32 183 -32t149.5 41t53.5 118
q0 40 -13.5 68.5t-43 46.5t-55 27.5t-69.5 21.5t-65 18.5t-55.5 22.5t-51 34t-30 48.5t-13.5 70.5q0 88 59 139t166 51q48 0 93 -6t66 -12l21 -6q1 -18 -10 -28q-77 21 -166 21zM377 906l-125 -147q-18 1 -24 14l117 150q21 0 32 -17z" />
    <glyph glyph-name="sacute" unicode="&#x15b;" horiz-adv-x="441" 
d="M62 392q0 66 44 105t129 39q33 0 64.5 -5.5t46.5 -10.5l15 -6q2 -17 -11 -26q-50 18 -112 18q-70 0 -106 -29t-36 -84q0 -45 32.5 -68t90.5 -39q86 -24 114 -44q54 -36 54 -107q0 -68 -44.5 -106.5t-129.5 -38.5q-42 0 -79.5 8t-54.5 16l-17 7q-2 17 10 25
q65 -26 138 -26q63 0 102.5 28t39.5 85q0 20 -4.5 36t-17.5 28.5t-20.5 19.5t-31.5 15t-31 10.5t-36 10.5q-32 9 -54.5 18t-46 24.5t-36 40t-12.5 56.5zM306 757l-125 -147q-18 1 -24 14l117 150q21 0 32 -17z" />
    <glyph glyph-name="Scircumflex" unicode="&#x15c;" horiz-adv-x="560" 
d="M298 699q-96 0 -145 -42t-49 -115q0 -32 10.5 -56.5t24 -39.5t43 -28.5t50 -19.5t62.5 -17q38 -10 61.5 -17.5t54.5 -23.5t48 -35t29.5 -50.5t12.5 -71.5q0 -90 -62 -141.5t-171 -51.5q-53 0 -102.5 9t-72.5 19l-23 9q-2 18 10 28q87 -32 183 -32t149.5 41t53.5 118
q0 40 -13.5 68.5t-43 46.5t-55 27.5t-69.5 21.5t-65 18.5t-55.5 22.5t-51 34t-30 48.5t-13.5 70.5q0 88 59 139t166 51q48 0 93 -6t66 -12l21 -6q1 -18 -10 -28q-77 21 -166 21zM288 893h26l123 -101q-3 -17 -16 -20l-121 90l-119 -91q-14 6 -17 21z" />
    <glyph glyph-name="scircumflex" unicode="&#x15d;" horiz-adv-x="441" 
d="M62 392q0 66 44 105t129 39q33 0 64.5 -5.5t46.5 -10.5l15 -6q2 -17 -11 -26q-50 18 -112 18q-70 0 -106 -29t-36 -84q0 -45 32.5 -68t90.5 -39q86 -24 114 -44q54 -36 54 -107q0 -68 -44.5 -106.5t-129.5 -38.5q-42 0 -79.5 8t-54.5 16l-17 7q-2 17 10 25
q65 -26 138 -26q63 0 102.5 28t39.5 85q0 20 -4.5 36t-17.5 28.5t-20.5 19.5t-31.5 15t-31 10.5t-36 10.5q-32 9 -54.5 18t-46 24.5t-36 40t-12.5 56.5zM216 721h25l121 -99q-4 -16 -16 -19l-118 88l-117 -89q-13 5 -16 20z" />
    <glyph glyph-name="Scedilla" unicode="&#x15e;" horiz-adv-x="559" 
d="M293 381q38 -10 61.5 -17.5t54.5 -23.5t48 -35t29.5 -50.5t12.5 -71.5q0 -86 -57 -137.5t-159 -55.5l-9 -53q113 0 113 -83q0 -97 -112 -97q-22 0 -44 5.5t-33 11.5l-10 6q1 14 11 22q33 -18 77 -18q78 0 78 70q0 55 -73 55h-31l-7 8l12 73q-51 1 -97.5 10t-67.5 18
l-22 9q-2 18 10 28q87 -32 183 -32t149.5 41t53.5 118q0 40 -13.5 68.5t-43 46.5t-55 27.5t-69.5 21.5t-65 18.5t-55.5 22.5t-51 34t-30 48.5t-13.5 70.5q0 88 59 139t166 51q48 0 93 -6t66 -12l21 -6q1 -18 -10 -28q-77 21 -166 21q-96 0 -145 -42t-49 -115
q0 -32 10.5 -56.5t24 -39.5t43 -28.5t50 -19.5t62.5 -17z" />
    <glyph glyph-name="scedilla" unicode="&#x15f;" horiz-adv-x="441" 
d="M219 286q86 -24 114 -44q54 -36 54 -107q0 -67 -42 -105t-124 -40l-8 -54q110 0 110 -80q0 -87 -109 -87q-22 0 -43 5.5t-31 11.5l-11 5q1 14 11 22q32 -18 75 -18q76 0 76 61q0 53 -71 53h-31l-6 8l11 73q-37 2 -70 9.5t-48 14.5l-14 7q-2 17 10 25q65 -26 138 -26
q63 0 102.5 28t39.5 85q0 20 -4.5 36t-17.5 28.5t-20.5 19.5t-31.5 15t-31 10.5t-36 10.5q-32 9 -54.5 18t-46 24.5t-36 40t-12.5 56.5q0 66 44 105t129 39q33 0 64.5 -5.5t46.5 -10.5l15 -6q2 -17 -11 -26q-50 18 -112 18q-70 0 -106 -29t-36 -84q0 -45 32.5 -68t90.5 -39z
" />
    <glyph glyph-name="Scaron" unicode="&#x160;" horiz-adv-x="560" 
d="M298 699q-96 0 -145 -42t-49 -115q0 -32 10.5 -56.5t24 -39.5t43 -28.5t50 -19.5t62.5 -17q38 -10 61.5 -17.5t54.5 -23.5t48 -35t29.5 -50.5t12.5 -71.5q0 -90 -62 -141.5t-171 -51.5q-53 0 -102.5 9t-72.5 19l-23 9q-2 18 10 28q87 -32 183 -32t149.5 41t53.5 118
q0 40 -13.5 68.5t-43 46.5t-55 27.5t-69.5 21.5t-65 18.5t-55.5 22.5t-51 34t-30 48.5t-13.5 70.5q0 88 59 139t166 51q48 0 93 -6t66 -12l21 -6q1 -18 -10 -28q-77 21 -166 21zM307 771h-26l-124 101q3 15 17 21l121 -91l119 90q13 -3 16 -20z" />
    <glyph glyph-name="scaron" unicode="&#x161;" horiz-adv-x="443" 
d="M63 392q0 66 44 105t129 39q33 0 64.5 -5.5t46.5 -10.5l15 -6q2 -17 -11 -26q-50 18 -112 18q-70 0 -106 -29t-36 -84q0 -45 32.5 -68t90.5 -39q86 -24 114 -44q54 -36 54 -107q0 -68 -44.5 -106.5t-129.5 -38.5q-42 0 -79.5 8t-54.5 16l-17 7q-2 17 10 25
q65 -26 138 -26q63 0 102.5 28t39.5 85q0 20 -4.5 36t-17.5 28.5t-20.5 19.5t-31.5 15t-31 10.5t-36 10.5q-32 9 -54.5 18t-46 24.5t-36 40t-12.5 56.5zM248 602h-24l-112 91q3 15 16 19l109 -82l108 81q11 -3 14 -18z" />
    <glyph glyph-name="Tcommaaccent" unicode="&#x162;" horiz-adv-x="528" 
d="M36 720h457q3 -4 3 -15l-3 -16h-209v-686q-5 -3 -17 -3l-17 3v686h-214q-3 6 -3 16zM244 -182l-16 12q28 28 33 82l-18 3v42q8 3 24 3l24 -3v-32q0 -31 -11.5 -58t-23.5 -38z" />
    <glyph glyph-name="Tcommaaccent" unicode="&#x21a;" horiz-adv-x="528" 
d="M36 720h457q3 -4 3 -15l-3 -16h-209v-686q-5 -3 -17 -3l-17 3v686h-214q-3 6 -3 16zM244 -182l-16 12q28 28 33 82l-18 3v42q8 3 24 3l24 -3v-32q0 -31 -11.5 -58t-23.5 -38z" />
    <glyph glyph-name="tcommaaccent" unicode="&#x163;" horiz-adv-x="350" 
d="M310 496h-161v-324q0 -81 24.5 -116.5t89.5 -35.5l59 6q4 -5 4 -15l-2 -13q-27 -8 -67 -8q-79 0 -109.5 45t-30.5 137v324h-81q-3 4 -3 15l3 15h81v102q12 11 32 9v-111h161q4 -4 4 -15zM209 -212l-16 12q28 28 33 82l-18 3v42q8 3 24 3l24 -3v-32q0 -31 -12 -58t-24 -38
z" />
    <glyph glyph-name="tcommaaccent" unicode="&#x21b;" horiz-adv-x="350" 
d="M310 496h-161v-324q0 -81 24.5 -116.5t89.5 -35.5l59 6q4 -5 4 -15l-2 -13q-27 -8 -67 -8q-79 0 -109.5 45t-30.5 137v324h-81q-3 4 -3 15l3 15h81v102q12 11 32 9v-111h161q4 -4 4 -15zM209 -212l-16 12q28 28 33 82l-18 3v42q8 3 24 3l24 -3v-32q0 -31 -12 -58t-24 -38
z" />
    <glyph glyph-name="Tcaron" unicode="&#x164;" horiz-adv-x="528" 
d="M36 720h457q3 -4 3 -15l-3 -16h-209v-686q-5 -3 -17 -3l-17 3v686h-214q-3 6 -3 16zM281 771h-26l-124 101q3 15 17 21l121 -91l119 90q13 -3 16 -20z" />
    <glyph glyph-name="tcaron" unicode="&#x165;" horiz-adv-x="340" 
d="M286 561q-14 1 -18 12q65 48 68 146q22 3 33 -6q-3 -45 -25 -88t-58 -64zM249 496h-99v-324q0 -81 24.5 -116.5t89.5 -35.5l59 6q4 -5 4 -15l-2 -13q-27 -8 -67 -8q-79 0 -109.5 45t-30.5 137v324h-81q-3 4 -3 15l3 15h81v102q12 11 32 9v-111h99q4 -4 4 -15z" />
    <glyph glyph-name="Tbar" unicode="&#x166;" horiz-adv-x="541" 
d="M499 689h-209v-330h130q3 -5 3 -15l-3 -15h-130v-326q-5 -3 -17 -3l-17 3v326h-130q-3 5 -3 15l3 15h130v330h-214q-3 6 -3 16l3 15h457q3 -4 3 -15z" />
    <glyph glyph-name="tbar" unicode="&#x167;" horiz-adv-x="354" 
d="M266 20l59 6q4 -5 4 -15l-2 -13q-27 -8 -67 -8q-79 0 -109.5 45t-30.5 137v100h-68q-3 4 -3 12l3 13h68v199h-81q-3 4 -3 15l3 15h81v102q12 11 32 9v-111h161q4 -4 4 -15l-4 -15h-161v-199h125q3 -4 3 -13l-3 -12h-125v-100q0 -81 24.5 -116.5t89.5 -35.5z" />
    <glyph glyph-name="Utilde" unicode="&#x168;" horiz-adv-x="663" 
d="M562 717v-495q0 -110 -63 -171t-168 -61t-167.5 61.5t-62.5 170.5v495q6 3 17 3l17 -3v-499q0 -94 52.5 -146t145.5 -52t144.5 52t51.5 146v499q6 3 16 3zM391 808q12 0 22 7t13 13l4 7q18 2 26 -10q-2 -5 -6.5 -12.5t-22.5 -20t-41 -12.5q-25 0 -57 17t-50 17
q-12 0 -22 -7t-13 -15l-4 -7q-19 -2 -26 11q2 5 6.5 12.5t22.5 20.5t41 13q25 0 57 -17t50 -17z" />
    <glyph glyph-name="utilde" unicode="&#x169;" 
d="M87 523v-385q0 -68 40.5 -108t110.5 -40q119 0 187 101v-88q5 -3 16 -3l16 3v520q-5 3 -16 3l-16 -3v-373q-26 -61 -75 -96t-102 -35q-129 0 -129 127v377q-5 3 -16 3zM334 659q12 0 22 7.5t14 14.5l3 7q17 2 26 -11q-2 -5 -6.5 -13t-22.5 -21t-41 -13q-25 0 -57 18
t-50 18q-12 0 -22 -7.5t-14 -14.5l-3 -8q-19 -2 -26 11q2 5 6.5 13t22.5 21.5t41 13.5q25 0 57 -18t50 -18z" />
    <glyph glyph-name="Umacron" unicode="&#x16a;" horiz-adv-x="663" 
d="M562 717v-495q0 -110 -63 -171t-168 -61t-167.5 61.5t-62.5 170.5v495q6 3 17 3l17 -3v-499q0 -94 52.5 -146t145.5 -52t144.5 52t51.5 146v499q6 3 16 3zM468 771h-267q-4 7 -4 16t4 16h267q4 -5 4 -15t-4 -17z" />
    <glyph glyph-name="umacron" unicode="&#x16b;" 
d="M87 523v-385q0 -68 40.5 -108t110.5 -40q119 0 187 101v-88q5 -3 16 -3l16 3v520q-5 3 -16 3l-16 -3v-373q-26 -61 -75 -96t-102 -35q-129 0 -129 127v377q-5 3 -16 3zM382 642h-215q-3 8 -3 15t3 15h215q3 -6 3 -14t-3 -16z" />
    <glyph glyph-name="Ubreve" unicode="&#x16c;" horiz-adv-x="663" 
d="M562 717v-495q0 -110 -63 -171t-168 -61t-167.5 61.5t-62.5 170.5v495q6 3 17 3l17 -3v-499q0 -94 52.5 -146t145.5 -52t144.5 52t51.5 146v499q6 3 16 3zM461 840l-5.5 -5.5t-16 -12.5t-27 -15.5t-37.5 -12t-48 -5.5t-48 5.5t-38 12.5t-26.5 14.5t-16.5 12.5l-5 6
q4 14 18 19q5 -5 15 -12t40 -18.5t61 -11.5t59.5 10.5t41.5 20.5l14 11q16 -4 19 -19z" />
    <glyph glyph-name="ubreve" unicode="&#x16d;" 
d="M87 523v-385q0 -68 40.5 -108t110.5 -40q119 0 187 101v-88q5 -3 16 -3l16 3v520q-5 3 -16 3l-16 -3v-373q-26 -61 -75 -96t-102 -35q-129 0 -129 127v377q-5 3 -16 3zM403 688q-5 -6 -14.5 -15t-43.5 -24t-72 -15t-70.5 13.5t-46.5 26.5l-13 14q4 14 18 19
q5 -5 14.5 -12t38.5 -19t59 -12t58 11t41 21l13 11q15 -4 18 -19z" />
    <glyph glyph-name="Uring" unicode="&#x16e;" horiz-adv-x="663" 
d="M562 717v-495q0 -110 -63 -171t-168 -61t-167.5 61.5t-62.5 170.5v495q6 3 17 3l17 -3v-499q0 -94 52.5 -146t145.5 -52t144.5 52t51.5 146v499q6 3 16 3zM331 769q-49 0 -80 28t-31 78q0 48 33 76t79 28t79.5 -27.5t33.5 -76.5t-32.5 -77.5t-81.5 -28.5zM413 875
q0 31 -21.5 53t-60.5 22q-38 0 -58.5 -22t-20.5 -53q0 -32 20.5 -54.5t58.5 -22.5q39 0 60.5 23t21.5 54z" />
    <glyph glyph-name="uring" unicode="&#x16f;" 
d="M87 523v-385q0 -68 40.5 -108t110.5 -40q119 0 187 101v-88q5 -3 16 -3l16 3v520q-5 3 -16 3l-16 -3v-373q-26 -61 -75 -96t-102 -35q-129 0 -129 127v377q-5 3 -16 3zM272 593q-45 0 -73.5 26t-28.5 72q0 45 30.5 70.5t72.5 25.5t73 -25.5t31 -70.5q0 -46 -30 -72
t-75 -26zM348 691q0 29 -20 49t-56 20q-35 0 -54 -20t-19 -49t19 -50t54 -21q36 0 56 21t20 50z" />
    <glyph glyph-name="Uhungarumlaut" unicode="&#x170;" horiz-adv-x="663" 
d="M562 717v-495q0 -110 -63 -171t-168 -61t-167.5 61.5t-62.5 170.5v495q6 3 17 3l17 -3v-499q0 -94 52.5 -146t145.5 -52t144.5 52t51.5 146v499q6 3 16 3zM366 901l-121 -143q-17 1 -23 14l107 146q23 0 37 -17zM511 901l-121 -143q-17 1 -23 14l107 146q23 0 37 -17z
" />
    <glyph glyph-name="uhungarumlaut" unicode="&#x171;" 
d="M87 138v385q5 3 16 3l16 -3v-377q0 -127 129 -127q53 0 102 35t75 96v373q5 3 16 3l16 -3v-520q-5 -3 -16 -3l-16 3v88q-68 -101 -187 -101q-70 0 -110.5 40t-40.5 108zM306 744l-116 -135q-15 1 -22 13l103 137q21 0 35 -15zM444 744l-115 -135q-16 1 -23 13l103 137
q21 0 35 -15z" />
    <glyph glyph-name="Uogonek" unicode="&#x172;" horiz-adv-x="663" 
d="M529 717q6 3 16 3l17 -3v-495q0 -83 -37 -139t-103 -79q-69 -27 -69 -88q0 -49 54 -49q11 0 21.5 2.5t15.5 5.5l5 3q9 -8 9 -24q-21 -15 -57 -15q-39 0 -60 20t-21 53q0 50 39 79q-9 -1 -28 -1q-105 0 -167.5 61.5t-62.5 170.5v495q6 3 17 3l17 -3v-499q0 -94 52.5 -146
t145.5 -52t144.5 52t51.5 146v499z" />
    <glyph glyph-name="uogonek" unicode="&#x173;" 
d="M426 -144q11 0 21.5 2.5t15.5 5.5l5 2q9 -7 9 -22q-21 -16 -57 -16q-39 0 -60 20t-21 53t25 66t64 49l-3 75q-68 -101 -187 -101q-70 0 -110.5 40t-40.5 108v385q5 3 16 3l16 -3v-377q0 -127 129 -127q53 0 102 35t75 96v373q5 3 16 3l16 -3v-521q-39 -10 -62 -38
t-23 -59q0 -49 54 -49z" />
    <glyph glyph-name="Wcircumflex" unicode="&#x174;" horiz-adv-x="943" 
d="M671 3l-176 577q-8 26 -12.5 47t-5.5 29l-1 8h-2q-2 -25 -19 -84l-177 -577q-5 -3 -14 -3l-14 3l-218 714q5 3 17 3l18 -3l175 -574q8 -24 13.5 -47t6.5 -34l2 -11h2q3 37 20 92l176 574q3 3 14 3l14 -3l175 -574q7 -24 12 -47t6 -34l1 -11h2q4 37 21 92l166 574
q4 3 17 3l16 -3l-207 -714q-4 -3 -14 -3zM465 893h26l123 -101q-3 -17 -16 -20l-121 90l-119 -91q-14 6 -17 21z" />
    <glyph glyph-name="wcircumflex" unicode="&#x175;" horiz-adv-x="791" 
d="M557 3l-124 357l-35 119h-3q-6 -29 -38 -119l-123 -357q-4 -3 -13 -3l-13 3l-173 520q5 3 17 3l17 -3l131 -395q8 -23 13 -42.5t6 -27.5l1 -9h3q5 30 22 79l136 395q4 3 15 3l16 -3l136 -393q8 -23 13 -43t6 -29l1 -9h3q5 28 22 81l130 393q5 3 16 3l16 -3l-172 -520
q-4 -3 -13 -3zM384 721h25l121 -99q-4 -16 -16 -19l-118 88l-117 -89q-13 5 -16 20z" />
    <glyph glyph-name="Ycircumflex" unicode="&#x176;" horiz-adv-x="614" 
d="M28 717q7 3 21 3l20 -3l237 -375l245 375q5 3 19 3l21 -3l-268 -412v-302q-6 -3 -17 -3l-17 3v301zM301 893h26l123 -101q-3 -17 -16 -20l-121 90l-119 -91q-14 6 -17 21z" />
    <glyph glyph-name="ycircumflex" unicode="&#x177;" horiz-adv-x="519" 
d="M486 523l-238 -650q-23 -63 -49 -93t-71 -30q-12 0 -23.5 1.5t-16.5 2.5l-6 2q-3 6 -3 14q0 10 4 15q16 -5 42 -5q29 0 50 23.5t42 80.5l43 117q-11 5 -13 7l-215 515q6 3 18 3l18 -3l166 -398l36 -93h3q13 40 32 92l146 399q4 3 17 3zM245 721h25l121 -99
q-4 -16 -16 -19l-118 88l-117 -89q-13 5 -16 20z" />
    <glyph glyph-name="Ydieresis" unicode="&#x178;" horiz-adv-x="614" 
d="M28 717q7 3 21 3l20 -3l237 -375l245 375q5 3 19 3l21 -3l-268 -412v-302q-6 -3 -17 -3l-17 3v301zM259 816v-42q-8 -3 -24 -3l-24 3v42q8 3 24 3zM400 816v-42q-8 -3 -24 -3l-24 3v42q8 3 24 3z" />
    <glyph glyph-name="Zacute" unicode="&#x179;" horiz-adv-x="575" 
d="M73 720h439q3 -6 3 -16l-3 -16l-426 -656h439q3 -5 3 -16l-3 -16h-479q-3 5 -3 16l3 16l427 656h-400q-3 5 -3 16zM385 906l-125 -147q-18 1 -24 14l117 150q21 0 32 -17z" />
    <glyph glyph-name="zacute" unicode="&#x17a;" horiz-adv-x="448" 
d="M391 496l-308 -466h312q3 -3 3 -15l-3 -15h-349q-3 3 -3 15l3 15l309 466h-284q-3 3 -3 15l3 15h320q3 -4 3 -15zM335 757l-125 -147q-18 1 -24 14l117 150q21 0 32 -17z" />
    <glyph glyph-name="Zdotaccent" unicode="&#x17b;" horiz-adv-x="575" 
d="M73 720h439q3 -6 3 -16l-3 -16l-426 -656h439q3 -5 3 -16l-3 -16h-479q-3 5 -3 16l3 16l427 656h-400q-3 5 -3 16zM313 833v-42q-8 -3 -24 -3l-24 3v42q8 3 24 3z" />
    <glyph glyph-name="zdotaccent" unicode="&#x17c;" horiz-adv-x="448" 
d="M391 496l-308 -466h312q3 -3 3 -15l-3 -15h-349q-3 3 -3 15l3 15l309 466h-284q-3 3 -3 15l3 15h320q3 -4 3 -15zM259 676v-42q-8 -3 -24 -3l-24 3v42q8 3 24 3z" />
    <glyph glyph-name="Zcaron" unicode="&#x17d;" horiz-adv-x="575" 
d="M73 720h439q3 -6 3 -16l-3 -16l-426 -656h439q3 -5 3 -16l-3 -16h-479q-3 5 -3 16l3 16l427 656h-400q-3 5 -3 16zM305 771h-26l-124 101q3 15 17 21l121 -91l119 90q13 -3 16 -20z" />
    <glyph glyph-name="zcaron" unicode="&#x17e;" horiz-adv-x="449" 
d="M391 496l-308 -466h312q3 -3 3 -15l-3 -15h-349q-3 3 -3 15l3 15l309 466h-284q-3 3 -3 15l3 15h320q3 -4 3 -15zM245 602h-23l-112 91q3 15 15 19l109 -82l108 81q10 -1 14 -18z" />
    <glyph glyph-name="longs" unicode="&#x17f;" horiz-adv-x="251" 
d="M140 591v-588q-4 -3 -16 -3l-16 3v493h-64q-3 4 -3 15l3 15h64v60q0 80 31.5 122t113.5 42q22 0 44 -3t33 -6l12 -3q3 -17 -9 -28q-32 10 -75 10q-70 0 -94 -31t-24 -98z" />
    <glyph glyph-name="florin" unicode="&#x192;" horiz-adv-x="427" 
d="M325 420h-107l-41 -409q-8 -80 -41 -116t-94 -36q-19 0 -39 4.5t-31 8.5l-10 5q-2 16 9 24q35 -12 69 -12q46 0 72.5 27t32.5 94l41 410h-100q-3 5 -3 15l3 13h103l9 90q8 82 39.5 117.5t92.5 35.5q21 0 41.5 -3.5t30.5 -7.5l9 -4q1 -14 -9 -24q-35 11 -71 11
q-46 0 -70 -27.5t-31 -96.5l-9 -91h104q3 -4 3 -14z" />
    <glyph glyph-name="Aringacute" unicode="&#x1fa;" horiz-adv-x="640" 
d="M431 1039l-117 -109q-16 1 -22 10l109 112q20 0 30 -13zM306 631l-151 -381h328l-150 381l-12 38h-2q-4 -14 -13 -38zM400 801q0 31 -21.5 53t-60.5 22q-38 0 -58.5 -22t-20.5 -53q0 -32 20.5 -54.5t58.5 -22.5q39 0 60.5 23t21.5 54zM342 697l275 -694q-5 -3 -18 -3
l-18 3l-85 215h-353l-86 -215q-5 -3 -18 -3l-16 3l275 693q-41 6 -66 33.5t-25 71.5q0 48 33 76t79 28t79.5 -27.5t33.5 -76.5q0 -43 -25 -70t-65 -34z" />
    <glyph glyph-name="aringacute" unicode="&#x1fb;" horiz-adv-x="510" 
d="M391 284v78q0 77 -34.5 111t-104.5 34q-36 0 -73 -6.5t-56 -13.5l-19 -7q-13 10 -11 27q77 29 163 29q100 0 133.5 -50.5t33.5 -162.5v-320q-4 -3 -13 -3l-13 3l-6 90v1q-23 -50 -70.5 -77t-112.5 -27q-70 0 -112.5 40.5t-42.5 110.5q0 73 45.5 113t138.5 40
q84 0 154 -10zM87 141q0 -60 33.5 -90.5t91.5 -30.5q78 0 128.5 50.5t50.5 137.5v47q-105 10 -148 10q-156 0 -156 -124zM339 917l-117 -109q-16 1 -22 10l109 112q20 0 30 -13zM254 566q-49 0 -80 28t-31 78q0 48 33 76t79 28t79.5 -27.5t33.5 -76.5t-32.5 -77.5
t-81.5 -28.5zM336 672q0 31 -21.5 53t-60.5 22q-38 0 -58.5 -22t-20.5 -53q0 -32 20.5 -54.5t58.5 -22.5q39 0 60.5 23t21.5 54z" />
    <glyph glyph-name="AEacute" unicode="&#x1fc;" horiz-adv-x="848" 
d="M51 3q-7 -3 -17 -3q-13 0 -19 3l433 717h335q9 -15 0 -32h-294v-307h244q8 -17 0 -32h-244v-317h304q9 -16 0 -32h-338v205h-282zM192 237h263v435zM701 906l-125 -147q-18 1 -24 14l117 150q21 0 32 -17z" />
    <glyph glyph-name="aeacute" unicode="&#x1fd;" horiz-adv-x="779" 
d="M474 757l-125 -147q-18 1 -24 14l117 150q21 0 32 -17zM710 261h-305q5 -122 43 -180.5t113 -58.5q35 0 64 10t41 20l12 9q15 -8 17 -25q-5 -5 -15 -12.5t-46 -20.5t-77 -13q-130 0 -168 139q-17 -67 -66.5 -103t-124.5 -36q-66 0 -105.5 40.5t-39.5 110.5q0 150 174 150
h144v71q0 78 -31.5 111.5t-97.5 33.5q-33 0 -67.5 -6.5t-52.5 -13.5l-18 -7q-13 10 -11 27q72 29 153 29q128 0 151 -113q41 113 160 113q81 0 122.5 -50.5t41.5 -133.5q0 -24 -2.5 -46.5t-5.5 -33.5zM87 141q0 -60 30.5 -90.5t84.5 -30.5q74 0 121.5 50.5t47.5 137.5v53
h-138q-76 0 -111 -29t-35 -91zM687 357q0 65 -31.5 107t-98.5 42q-66 0 -107.5 -52t-44.5 -163h277q5 19 5 66z" />
    <glyph glyph-name="Oslashacute" unicode="&#x1fe;" horiz-adv-x="678" 
d="M444 906l-118 -139q-18 1 -24 14l110 142q21 0 32 -17zM572 762l-56 -100q88 -91 88 -302q0 -370 -265 -370q-102 0 -165 56l-50 -91q-6 -3 -19 -3l-18 3l64 115q-77 92 -77 290q0 370 265 370q91 0 152 -45l43 77q7 4 19 4zM339 700q-229 0 -229 -340q0 -173 59 -257
l306 552q-54 45 -136 45zM191 76q55 -56 148 -56q229 0 229 340q0 186 -69 271z" />
    <glyph glyph-name="oslashacute" unicode="&#x1ff;" horiz-adv-x="537" 
d="M356 757l-125 -147q-18 1 -24 14l117 150q21 0 32 -17zM464 569l-50 -90q58 -66 58 -216q0 -144 -51.5 -208.5t-151.5 -64.5q-67 0 -111 28l-33 -60q-4 -3 -19 -3l-17 3l44 79q-67 65 -67 226q0 144 51.5 208.5t151.5 64.5q74 0 121 -35l38 68q4 3 19 3zM269 507
q-83 0 -126 -55.5t-43 -188.5q0 -138 49 -196l226 406q-40 34 -106 34zM173 45q38 -26 96 -26q83 0 126 55.5t43 188.5q0 125 -41 185z" />
    <glyph glyph-name="Scommaaccent" unicode="&#x218;" horiz-adv-x="560" 
d="M298 699q-96 0 -145 -42t-49 -115q0 -32 10.5 -56.5t24 -39.5t43 -28.5t50 -19.5t62.5 -17q38 -10 61.5 -17.5t54.5 -23.5t48 -35t29.5 -50.5t12.5 -71.5q0 -90 -62 -141.5t-171 -51.5q-53 0 -102.5 9t-72.5 19l-23 9q-2 18 10 28q87 -32 183 -32t149.5 41t53.5 118
q0 40 -13.5 68.5t-43 46.5t-55 27.5t-69.5 21.5t-65 18.5t-55.5 22.5t-51 34t-30 48.5t-13.5 70.5q0 88 59 139t166 51q48 0 93 -6t66 -12l21 -6q1 -18 -10 -28q-77 21 -166 21zM255 -205l-16 12q28 28 33 82l-18 3v42q8 3 24 3l24 -3v-32q0 -31 -12 -58t-24 -38z" />
    <glyph glyph-name="scommaaccent" unicode="&#x219;" horiz-adv-x="443" 
d="M63 392q0 66 44 105t129 39q33 0 64.5 -5.5t46.5 -10.5l15 -6q2 -17 -11 -26q-50 18 -112 18q-70 0 -106 -29t-36 -84q0 -45 32.5 -68t90.5 -39q86 -24 114 -44q54 -36 54 -107q0 -68 -44.5 -106.5t-129.5 -38.5q-42 0 -79.5 8t-54.5 16l-17 7q-2 17 10 25
q65 -26 138 -26q63 0 102.5 28t39.5 85q0 20 -4.5 36t-17.5 28.5t-20.5 19.5t-31.5 15t-31 10.5t-36 10.5q-32 9 -54.5 18t-46 24.5t-36 40t-12.5 56.5zM199 -202l-16 12q28 28 33 82l-18 3v42q8 3 24 3l24 -3v-32q0 -31 -12 -58t-24 -38z" />
    <glyph glyph-name="dotlessj" unicode="&#x237;" horiz-adv-x="220" 
d="M94 -92v615q4 3 16 3l16 -3v-611q0 -162 -131 -162q-19 0 -33 2t-18 4l-5 3q-1 3 -1 8l4 16q16 -4 45 -4q55 0 81 30.5t26 98.5z" />
    <glyph glyph-name="circumflex" unicode="&#x2c6;" horiz-adv-x="396" 
d="M185 683h26l123 -101q-3 -17 -16 -20l-121 90l-119 -91q-14 6 -17 21z" />
    <glyph glyph-name="caron" unicode="&#x2c7;" horiz-adv-x="404" 
d="M211 550h-26l-124 101q3 15 17 21l121 -91l119 90q13 -3 16 -20z" />
    <glyph glyph-name="breve" unicode="&#x2d8;" horiz-adv-x="324" 
d="M290 682q-5 -6 -14.5 -15t-43.5 -24t-72 -15t-70.5 13.5t-45.5 26.5l-14 14q4 14 18 19q5 -5 14.5 -12t38.5 -19t59 -12t58 11t41 21l13 11q15 -4 18 -19z" />
    <glyph glyph-name="dotaccent" unicode="&#x2d9;" horiz-adv-x="176" 
d="M111 648v-42q-8 -3 -24 -3l-24 3v42q8 3 24 3z" />
    <glyph glyph-name="ring" unicode="&#x2da;" horiz-adv-x="344" 
d="M170 509q-49 0 -80 28t-31 78q0 48 33 76t79 28t79.5 -27.5t33.5 -76.5t-32.5 -77.5t-81.5 -28.5zM252 615q0 31 -21.5 53t-60.5 22q-38 0 -58.5 -22t-20.5 -53q0 -32 20.5 -54.5t58.5 -22.5q39 0 60.5 23t21.5 54z" />
    <glyph glyph-name="ogonek" unicode="&#x2db;" horiz-adv-x="283" 
d="M161 -170q9 -8 9 -22q-21 -16 -57 -16q-39 0 -60 20t-21 53q0 51 40 83t98 38v-20q-43 -8 -74 -32t-31 -65q0 -49 54 -49q11 0 21.5 2.5t15.5 5.5z" />
    <glyph glyph-name="tilde" unicode="&#x2dc;" horiz-adv-x="327" 
d="M232 646q12 0 22 7t14 15l3 7q17 2 26 -11q-2 -5 -6.5 -13t-22.5 -21t-41 -13q-25 0 -57 18t-50 18q-12 0 -22 -7.5t-14 -15.5l-3 -7q-19 -2 -26 11q2 5 6.5 13t22.5 21.5t41 13.5q25 0 57 -18t50 -18z" />
    <glyph glyph-name="hungarumlaut" unicode="&#x2dd;" horiz-adv-x="386" 
d="M182 790l-125 -147q-18 1 -24 14l111 150q24 0 38 -17zM332 790l-125 -147q-18 1 -24 14l111 150q24 0 38 -17z" />
    <glyph glyph-name="pi" unicode="&#x3c0;" horiz-adv-x="597" 
d="M447 236v260h-303v-493q-4 -3 -16 -3l-16 3v493q-19 -1 -37 -3t-26 -4l-8 -2q-3 6 -3 16q0 9 3 13q34 10 131 10h382q3 -6 3 -15t-3 -15h-74v-260q0 -78 9 -134.5t19 -73.5l9 -18q-7 -10 -25 -10q-6 0 -9 1q-4 7 -10 21.5t-16 74.5t-10 139z" />
    <glyph glyph-name="afii10023" unicode="&#x401;" horiz-adv-x="557" 
d="M261 830v-42q-8 -3 -24 -3l-24 3v42q8 3 24 3zM402 830v-42q-8 -3 -24 -3l-24 3v42q8 3 24 3zM107 0v720h385q3 -6 3 -16t-3 -16h-351v-307h301q3 -6 3 -15q0 -8 -3 -16h-301v-318h361q3 -8 3 -15q0 -9 -3 -17h-395z" />
    <glyph glyph-name="afii10017" unicode="&#x410;" horiz-adv-x="640" 
d="M581 3l-85 215h-353l-86 -215q-5 -3 -18 -3l-16 3l283 714q4 3 14 3l14 -3l283 -714q-5 -3 -18 -3zM306 631l-151 -381h328l-150 381l-12 38h-2q-4 -14 -13 -38z" />
    <glyph glyph-name="afii10018" unicode="&#x411;" horiz-adv-x="608" 
d="M479 688h-338v-290h213q91 0 145 -53.5t54 -143.5q0 -91 -54 -146t-145 -55h-247v720h372q3 -6 3 -16zM141 31h210q79 0 122.5 46t43.5 123q0 78 -43.5 122.5t-122.5 44.5h-210v-336z" />
    <glyph glyph-name="afii10019" unicode="&#x412;" horiz-adv-x="626" 
d="M343 0h-236v720h232q104 0 149 -52t45 -134q0 -37 -9.5 -68t-21.5 -48t-27.5 -30t-23.5 -17t-14 -6q35 -12 53 -24q66 -49 66 -152q0 -189 -213 -189zM341 347h-200v-315h201q96 0 137 39.5t41 117.5q0 82 -43 120t-136 38zM141 688v-309h193q163 0 163 155
q0 75 -38 114.5t-128 39.5h-190z" />
    <glyph glyph-name="afii10020" unicode="&#x413;" horiz-adv-x="492" 
d="M107 3v717h355q3 -6 3 -16l-3 -16h-321v-685q-6 -3 -17 -3z" />
    <glyph glyph-name="afii10021" unicode="&#x414;" horiz-adv-x="668" 
d="M619 32v-170q-6 -3 -16 -3l-17 3v138h-533v-138q-6 -3 -17 -3l-16 3v170h63q61 86 81 335l27 353h350v-688h78zM221 689l-24 -328q-18 -243 -76 -329h386v657h-286z" />
    <glyph glyph-name="afii10022" unicode="&#x415;" horiz-adv-x="557" 
d="M107 0v720h385q3 -6 3 -16t-3 -16h-351v-307h301q3 -6 3 -15q0 -8 -3 -16h-301v-318h361q3 -8 3 -15q0 -9 -3 -17h-395z" />
    <glyph glyph-name="afii10024" unicode="&#x416;" horiz-adv-x="951" 
d="M459 389v328q6 3 17 3l17 -3v-328h157l207 328q6 3 19 3l18 -3l-213 -337l243 -377q-7 -3 -20 -3l-23 3l-229 355h-159v-355q-6 -3 -17 -3l-17 3v355h-165l-228 -355q-7 -3 -20 -3l-18 3l241 375l-213 339q7 3 19 3l19 -3l206 -328h159z" />
    <glyph glyph-name="afii10025" unicode="&#x417;" horiz-adv-x="544" 
d="M473 181q0 -85 -58.5 -138t-188.5 -53q-48 0 -93 7t-65 15l-21 7q0 19 11 27q77 -24 165 -24q214 0 214 159q0 171 -216 171h-50q-8 17 0 32h50q195 0 195 162q0 70 -46.5 111t-137.5 41q-41 0 -81 -7t-60 -14l-20 -7q-15 8 -13 28q74 32 178 32q106 0 161 -50t55 -133
q0 -44 -12.5 -78t-31 -52t-36.5 -29.5t-30 -14.5l-13 -3q6 -1 15.5 -3.5t34.5 -15t44 -31t34.5 -55.5t15.5 -84z" />
    <glyph glyph-name="afii10026" unicode="&#x418;" horiz-adv-x="682" 
d="M499 590l-354 -587q-8 -3 -21 -3l-18 3v714q6 3 17 3l17 -3v-550l-4 -120h2q20 42 49 90l350 580q6 3 20 3l19 -3v-714q-5 -3 -17 -3l-17 3v542l4 130h-2q-12 -31 -45 -85z" />
    <glyph glyph-name="afii10027" unicode="&#x419;" horiz-adv-x="682" 
d="M483 881q-6 -6 -17.5 -14.5t-48 -22.5t-75.5 -14q-38 0 -73.5 13t-52.5 25l-16 13q5 16 18 20q57 -40 124 -40q30 0 61 10t47 20l16 10q14 -4 17 -20zM145 3l354 587q15 24 26 45t15 31l4 9h2q-4 -26 -4 -130v-542q5 -3 17 -3l17 3v714q-6 3 -19 3l-20 -3l-350 -580
l-49 -90h-2q4 48 4 120v550q-5 3 -17 3l-17 -3v-714q6 -3 18 -3z" />
    <glyph glyph-name="afii10028" unicode="&#x41a;" horiz-adv-x="607" 
d="M140 717v-327h144l230 327q6 3 19 3l19 -3l-239 -340l267 -374q-6 -3 -19 -3l-22 3l-254 355h-145v-355q-6 -3 -17 -3l-17 3v714q6 3 17 3z" />
    <glyph glyph-name="afii10029" unicode="&#x41b;" horiz-adv-x="652" 
d="M50 -6q-15 0 -27 5q-3 5 -3 14l3 15q14 -2 20 -2q17 0 28 3t28.5 23t29.5 56.5t25 109.5t21 176l25 326h345v-717q-6 -3 -17 -3q-18 0 -17 3v685h-281l-22 -296q-8 -107 -22 -183.5t-28.5 -117.5t-34.5 -63.5t-35.5 -28t-37.5 -5.5z" />
    <glyph glyph-name="afii10030" unicode="&#x41c;" horiz-adv-x="842" 
d="M702 3v576l5 104h-2q-11 -27 -37 -69l-238 -407q-6 -3 -16 -3l-16 3l-228 407l-35 69h-2q6 -39 6 -114v-566q-4 -3 -16 -3l-17 3v714q8 3 22 3l23 -3l234 -418l28 -53h2q9 19 30 53l245 418q6 3 23 3l23 -3v-714q-5 -3 -17 -3z" />
    <glyph glyph-name="afii10031" unicode="&#x41d;" horiz-adv-x="672" 
d="M532 385v332q6 3 17 3l17 -3v-714q-5 -3 -17 -3l-17 3v350h-392v-350q-6 -3 -17 -3l-17 3v714q6 3 17 3l17 -3v-332h392z" />
    <glyph glyph-name="afii10032" unicode="&#x41e;" horiz-adv-x="678" 
d="M339 -10q-265 0 -265 370t265 370t265 -370t-265 -370zM339 700q-229 0 -229 -340t229 -340t229 340t-229 340z" />
    <glyph glyph-name="afii10033" unicode="&#x41f;" horiz-adv-x="662" 
d="M107 720h448v-717q-6 -3 -16 -3l-18 3v685h-380v-685q-6 -3 -17 -3l-17 3v717z" />
    <glyph glyph-name="afii10034" unicode="&#x420;" horiz-adv-x="598" 
d="M349 309h-208v-306q-5 -3 -17 -3l-17 3v717h242q91 0 142.5 -56t51.5 -150q0 -93 -51.5 -149t-142.5 -56zM141 688v-347h209q74 0 115.5 46t41.5 126q0 82 -41 128.5t-116 46.5h-209z" />
    <glyph glyph-name="afii10035" unicode="&#x421;" horiz-adv-x="556" 
d="M336 -10q-132 0 -197 91t-65 279q0 370 262 370q48 0 89.5 -8t58.5 -16l18 -8q2 -7 -2 -15q-2 -4 -4.5 -7t-3.5 -4l-2 -1q-58 28 -149 28q-73 0 -122 -29.5t-79 -106.5t-30 -204q0 -96 16 -163t47.5 -104.5t72 -53.5t95.5 -16q44 0 84 7t58 14l18 7q6 -2 10 -11l2 -16
q-59 -33 -177 -33z" />
    <glyph glyph-name="afii10036" unicode="&#x422;" horiz-adv-x="528" 
d="M36 720h457q3 -4 3 -15l-3 -16h-209v-686q-5 -3 -17 -3l-17 3v686h-214q-3 6 -3 16z" />
    <glyph glyph-name="afii10037" unicode="&#x423;" horiz-adv-x="607" 
d="M306 138l-279 579q5 3 19 3l18 -3l243 -504q14 -29 19 -45h2q3 7 9.5 23.5t9.5 24.5l197 501q4 3 17 3l18 -3l-206 -524q-24 -62 -46 -101t-45.5 -59t-45 -26.5t-52.5 -6.5q-14 0 -27 1.5t-19 2.5l-6 2q-5 16 1 30q22 -4 40 -4q25 0 40 2.5t34 12.5t35 32t33 59h-9z" />
    <glyph glyph-name="afii10038" unicode="&#x424;" horiz-adv-x="790" 
d="M377 646v80q6 3 17 3l17 -3v-80q71 0 125.5 -12.5t100.5 -42t70.5 -83.5t24.5 -132t-24.5 -132.5t-70.5 -84t-100.5 -42t-125.5 -12.5v-102q-7 -3 -17 -3l-17 3v102q-56 0 -101.5 7.5t-87 26.5t-69.5 49t-44.5 77.5t-16.5 110.5q0 78 24 132t69.5 83.5t100 42t125.5 12.5
zM377 135v481q-137 0 -210 -53t-73 -187q0 -135 73 -188t210 -53zM411 616v-481q137 0 211 53.5t74 187.5q0 135 -74 187.5t-211 52.5z" />
    <glyph glyph-name="afii10039" unicode="&#x425;" horiz-adv-x="591" 
d="M547 717l-229 -348l237 -366q-7 -3 -21 -3l-22 3l-221 341l-213 -341q-8 -3 -22 -3l-19 3l230 365l-225 349q7 3 22 3l20 -3l209 -325l212 325q7 3 21 3z" />
    <glyph glyph-name="afii10040" unicode="&#x426;" horiz-adv-x="691" 
d="M608 -138v138h-502v717q6 3 17 3l17 -3v-685h390v685q6 3 17 3l17 -3v-685h77v-170q-6 -3 -17 -3q-10 0 -16 3z" />
    <glyph glyph-name="afii10041" unicode="&#x427;" horiz-adv-x="629" 
d="M489 381v336q6 3 17 3l17 -3v-714q-6 -3 -17 -3l-17 3v344q-89 -39 -207 -39q-105 0 -160.5 51t-55.5 177v181q6 3 17 3l17 -3v-180q0 -110 44.5 -153.5t146.5 -43.5q52 0 101.5 10t73.5 20z" />
    <glyph glyph-name="afii10042" unicode="&#x428;" horiz-adv-x="954" 
d="M848 0h-742v717q5 3 17 3l17 -3v-685h320v685q3 3 17 3l17 -3v-685h320v685q5 3 17 3l17 -3v-717z" />
    <glyph glyph-name="afii10043" unicode="&#x429;" horiz-adv-x="975" 
d="M892 -138v138h-786v717q5 3 17 3l17 -3v-685h320v685q6 3 17 3l17 -3v-685h320v685q6 3 17 3l17 -3v-685h77v-170q-7 -3 -16 -3t-17 3z" />
    <glyph glyph-name="afii10044" unicode="&#x42a;" horiz-adv-x="687" 
d="M32 688q-3 6 -3 16l3 16h166h5h17v-322h213q91 0 145 -53.5t54 -143.5q0 -91 -54 -146t-145 -55h-247v688h-154zM220 367v-336h210q79 0 122.5 46t43.5 123q0 78 -43.5 122.5t-122.5 44.5h-210z" />
    <glyph glyph-name="afii10045" unicode="&#x42b;" horiz-adv-x="852" 
d="M140 398h213q91 0 145 -53.5t54 -143.5q0 -91 -54 -146t-145 -55h-247v717q6 3 17 3l17 -3v-319zM712 3v714q5 3 17 3l17 -3v-714q-5 -3 -17 -3zM140 367v-336h210q79 0 122.5 46t43.5 123q0 78 -43.5 122.5t-122.5 44.5h-210z" />
    <glyph glyph-name="afii10046" unicode="&#x42c;" horiz-adv-x="607" 
d="M140 398h213q91 0 145 -53.5t54 -143.5q0 -91 -54 -146t-145 -55h-247v717q6 3 17 3l17 -3v-319zM140 367v-336h210q79 0 122.5 46t43.5 123q0 78 -43.5 122.5t-122.5 44.5h-210z" />
    <glyph glyph-name="afii10047" unicode="&#x42d;" horiz-adv-x="581" 
d="M235 730q272 0 272 -370t-272 -370q-55 0 -101.5 8t-65.5 16l-20 9q-2 6 2 15q2 4 4.5 6.5l3.5 3.5l2 1q66 -27 170 -27q116 0 178 73.5t63 254.5h-294q-3 6 -3 16l3 16h294q-4 173 -66.5 245t-174.5 72q-43 0 -82.5 -6.5t-57.5 -13.5l-19 -7q-6 2 -10 11l-2 15
q63 32 176 32z" />
    <glyph glyph-name="afii10048" unicode="&#x42e;" horiz-adv-x="945" 
d="M107 3v714q6 3 17 3l17 -3v-341h200q6 354 265 354q265 0 265 -370t-265 -370q-259 0 -265 354h-200v-341q-6 -3 -17 -3zM606 700q-229 0 -229 -340t229 -340t229 340t-229 340z" />
    <glyph glyph-name="afii10049" unicode="&#x42f;" horiz-adv-x="618" 
d="M226 323q-72 13 -111.5 65.5t-39.5 131.5q0 91 52 145.5t143 54.5h241v-717q-5 -3 -17 -3l-17 3v317h-213l-168 -317q-8 -3 -21 -3l-19 3zM477 352v336h-209q-73 0 -115 -44.5t-42 -123.5t42 -123.5t115 -44.5h209z" />
    <glyph glyph-name="afii10065" unicode="&#x430;" horiz-adv-x="510" 
d="M391 284v78q0 77 -34.5 111t-104.5 34q-36 0 -73 -6.5t-56 -13.5l-19 -7q-13 10 -11 27q77 29 163 29q100 0 133.5 -50.5t33.5 -162.5v-320q-4 -3 -13 -3l-13 3l-6 90v1q-23 -50 -70.5 -77t-112.5 -27q-70 0 -112.5 40.5t-42.5 110.5q0 73 45.5 113t138.5 40
q84 0 154 -10zM87 141q0 -60 33.5 -90.5t91.5 -30.5q78 0 128.5 50.5t50.5 137.5v47q-105 10 -148 10q-156 0 -156 -124z" />
    <glyph glyph-name="afii10066" unicode="&#x431;" horiz-adv-x="568" 
d="M80 351q0 64 6.5 112.5t16.5 84t31 62t42 43.5t57.5 30.5t69 21t85.5 17.5q29 5 40 11.5t22 23.5q18 0 26 -11q-8 -25 -24 -36t-58 -19q-43 -9 -67 -14t-55.5 -14.5t-48 -19t-37.5 -25t-31 -34t-21 -45t-16 -60t-7 -76.5h4q44 111 187 111q95 0 147.5 -64.5t52.5 -197.5
q0 -262 -207 -262q-40 0 -70 7.5t-59 30.5t-46.5 62t-28.5 105t-11 156zM295 485q-80 0 -126.5 -52t-46.5 -181q0 -233 173 -233q81 0 127 53t46 180t-46 180t-127 53z" />
    <glyph glyph-name="afii10067" unicode="&#x432;" horiz-adv-x="513" 
d="M285 526q68 0 106.5 -34t38.5 -100q0 -90 -72 -121q45 -13 68.5 -48t23.5 -85q0 -68 -40 -103t-115 -35h-204v526h194zM294 252h-171v-222h171q121 0 121 109q0 53 -30 83t-91 30zM123 496v-214h158q56 0 86.5 28t30.5 80q0 106 -117 106h-158z" />
    <glyph glyph-name="afii10068" unicode="&#x433;" horiz-adv-x="396" 
d="M91 3v523h273q3 -5 3 -15l-3 -15h-241v-493q-3 -3 -16 -3z" />
    <glyph glyph-name="afii10069" unicode="&#x434;" horiz-adv-x="560" 
d="M26 30h46q43 62 58 258l19 238h302v-496h63v-155q-5 -3 -15 -3l-15 3v125h-428v-125q-4 -3 -15 -3l-15 3v155zM177 496l-16 -212q-13 -179 -51 -254h309v466h-242z" />
    <glyph glyph-name="afii10070" unicode="&#x435;" horiz-adv-x="508" 
d="M438 252h-339q4 -121 47 -175t131 -54q37 0 69 10t46 20l14 10q15 -9 17 -27q-6 -5 -17.5 -12.5t-52 -20.5t-86.5 -13q-98 0 -150 70.5t-52 205.5q0 136 55 203t150 67q86 0 132.5 -51t46.5 -133q0 -27 -2.5 -52t-5.5 -36zM415 357q0 64 -36 106.5t-109 42.5
q-78 0 -123 -55t-48 -169h310q6 28 6 75z" />
    <glyph glyph-name="afii10072" unicode="&#x436;" horiz-adv-x="774" 
d="M372 290v233q4 3 16 3l16 -3v-233h129l153 233q6 3 21 3l17 -3l-162 -246l187 -273q-6 -4 -20 -4l-20 4l-176 256h-129v-257q-4 -3 -16 -3l-16 3v257h-129l-176 -256q-7 -4 -21 -4l-19 4l187 273l-162 246q3 3 17 3l21 -3l153 -233h129z" />
    <glyph glyph-name="afii10073" unicode="&#x437;" horiz-adv-x="452" 
d="M388 139q0 -70 -44.5 -109.5t-156.5 -39.5q-41 0 -77 6.5t-51 13.5l-15 6q0 18 11 27q51 -22 131 -22q89 0 128.5 30.5t39.5 89.5q0 55 -42 83.5t-118 28.5h-53q-3 6 -3 15l3 15h53q146 0 146 109q0 58 -34 86t-113 28q-33 0 -64 -5t-45 -10l-14 -5q-13 8 -9 27
q51 23 142 23q171 0 171 -140q0 -100 -86 -127q49 -13 74.5 -48t25.5 -82z" />
    <glyph glyph-name="afii10074" unicode="&#x438;" horiz-adv-x="577" 
d="M164 109l284 414q4 3 19 3l19 -3v-520q-5 -3 -16 -3l-17 3v401l2 80h-2q-20 -35 -46 -73l-278 -408q-6 -3 -20 -3l-18 3v520q4 3 16 3l16 -3v-407l-3 -74h2q14 26 42 67z" />
    <glyph glyph-name="afii10075" unicode="&#x439;" horiz-adv-x="577" 
d="M419 688q-5 -6 -14.5 -15t-43.5 -24t-72 -15t-70.5 13.5t-46.5 26.5l-13 14q4 14 18 19q5 -5 14.5 -12t38.5 -19t59 -12t58 11t41 21l13 11q15 -4 18 -19zM164 109l284 414q4 3 19 3l19 -3v-520q-5 -3 -16 -3l-17 3v401l2 80h-2q-20 -35 -46 -73l-278 -408q-6 -3 -20 -3
l-18 3v520q4 3 16 3l16 -3v-407l-3 -74h2q14 26 42 67z" />
    <glyph glyph-name="afii10076" unicode="&#x43a;" horiz-adv-x="496" 
d="M123 523v-233h121l164 233q7 3 22 3l17 -2l-174 -247l198 -273q-6 -4 -20 -4l-22 4l-185 256h-121v-257q-4 -3 -16 -3l-16 3v520q4 3 16 3z" />
    <glyph glyph-name="afii10077" unicode="&#x43b;" horiz-adv-x="550" 
d="M174 290q-11 -128 -30.5 -195.5t-39 -84t-50.5 -16.5l-27 4q-3 4 -3 13l3 14q10 -2 24 -2q37 0 59.5 63t33.5 208l18 232h297v-523q-4 -3 -16 -3l-16 3v493h-237z" />
    <glyph glyph-name="afii10078" unicode="&#x43c;" horiz-adv-x="673" 
d="M91 523q5 3 17 3l18 -3l204 -348l216 348q6 3 18 3l18 -3v-520q-4 -3 -16 -3l-16 3v401q0 48 3 74h-2q-16 -37 -37 -70l-173 -276q-4 -2 -11 -2l-11 2l-162 272q-26 44 -37 74h-3q6 -34 6 -74v-401q-4 -3 -16 -3l-16 3v520z" />
    <glyph glyph-name="afii10079" unicode="&#x43d;" horiz-adv-x="560" 
d="M437 3v253h-314v-253q-4 -3 -16 -3l-16 3v520q4 3 16 3l16 -3v-237h314v237q4 3 16 3l16 -3v-520q-4 -3 -16 -3z" />
    <glyph glyph-name="afii10080" unicode="&#x43e;" horiz-adv-x="538" 
d="M269 -10q-100 0 -151.5 64.5t-51.5 208.5t51.5 208.5t151.5 64.5t151.5 -64.5t51.5 -208.5t-51.5 -208.5t-151.5 -64.5zM269 507q-83 0 -126 -55.5t-43 -188.5t43 -188.5t126 -55.5t126 55.5t43 188.5t-43 188.5t-126 55.5z" />
    <glyph glyph-name="afii10081" unicode="&#x43f;" horiz-adv-x="549" 
d="M426 3v493h-303v-493q-4 -3 -16 -3l-16 3v523h367v-523q-3 -3 -15 -3z" />
    <glyph glyph-name="afii10082" unicode="&#x440;" horiz-adv-x="554" 
d="M123 87v-334q-4 -3 -16 -3l-16 3v770q4 3 16 3l16 -3v-84q49 97 167 97q97 0 147 -63t50 -210t-50 -210t-147 -63q-118 0 -167 97zM123 200q0 -69 42.5 -124.5t116.5 -55.5q92 0 131.5 57t39.5 186t-39.5 186t-131.5 57q-73 0 -115 -53t-44 -121v-132z" />
    <glyph glyph-name="afii10083" unicode="&#x441;" horiz-adv-x="445" 
d="M279 505q-180 0 -180 -242q0 -240 184 -240q28 0 54 5.5t37 11.5l12 6q12 -8 14 -27q-48 -29 -128 -29q-99 0 -153 70t-54 203t54 203t153 70q34 0 63 -6t41 -12l12 -5q0 -19 -12 -28q-37 20 -97 20z" />
    <glyph glyph-name="afii10084" unicode="&#x442;" horiz-adv-x="428" 
d="M33 526h362q4 -4 4 -15l-4 -15h-165v-493q-4 -3 -16 -3l-16 3v493h-165q-4 4 -4 15z" />
    <glyph glyph-name="afii10085" unicode="&#x443;" horiz-adv-x="520" 
d="M486 523l-238 -650q-23 -63 -49 -93t-71 -30q-12 0 -23.5 1.5t-16.5 2.5l-6 2q-3 6 -3 14q0 10 4 15q16 -5 42 -5q29 0 50 23.5t42 80.5l43 117q-11 5 -13 7l-215 515q6 3 18 3l18 -3l166 -398l36 -93h3q13 40 32 92l146 399q4 3 17 3z" />
    <glyph glyph-name="afii10086" unicode="&#x444;" horiz-adv-x="775" 
d="M404 16v-263q-4 -3 -16 -3l-16 3v263q-47 -26 -127 -26q-96 0 -136.5 67t-40.5 206t40.5 206t136.5 67q32 0 63.5 -6t47.5 -12l16 -5v234q4 3 16 3l16 -3v-234q6 3 17 7t44 10t66 6q97 -1 137 -67.5t40 -205.5t-40.5 -206t-136.5 -67q-36 0 -67.5 6.5t-45.5 13.5zM372 50
v431l-6 3q-5 2 -16 5.5t-24.5 7.5t-34 6.5t-42.5 2.5q-80 0 -113.5 -59t-33.5 -184t33.5 -183.5t113.5 -58.5q32 0 62.5 7.5t45.5 14.5zM674 263q0 125 -33.5 184t-113.5 59q-22 0 -42.5 -2.5t-34 -6.5t-24.5 -7.5t-16 -5.5l-6 -3v-431q51 -29 123 -29q80 0 113.5 58.5
t33.5 183.5z" />
    <glyph glyph-name="afii10087" unicode="&#x445;" horiz-adv-x="483" 
d="M33 3l187 265l-183 255q5 3 19 3l20 -3l168 -233l164 233q3 3 19 3l19 -3l-184 -259l188 -261q-5 -3 -19 -3l-20 3l-172 239l-168 -239q-4 -3 -21 -3z" />
    <glyph glyph-name="afii10088" unicode="&#x446;" horiz-adv-x="569" 
d="M461 523v-493h63v-155q-4 -3 -15 -3l-15 3v125h-403v523q4 3 16 3l16 -3v-493h306v493q4 3 16 3z" />
    <glyph glyph-name="afii10089" unicode="&#x447;" horiz-adv-x="518" 
d="M427 523v-520q-4 -3 -16 -3l-16 3v245q-68 -41 -163 -41q-173 0 -173 158v158q4 3 16 3l16 -3v-159q0 -65 34.5 -96t111.5 -31q85 0 158 45v241q4 3 16 3z" />
    <glyph glyph-name="afii10090" unicode="&#x448;" horiz-adv-x="802" 
d="M711 523v-523h-620v523q4 3 16 3l16 -3v-493h261v493q4 3 16 3l16 -3v-493h263v493q4 3 16 3z" />
    <glyph glyph-name="afii10091" unicode="&#x449;" horiz-adv-x="819" 
d="M711 523v-493h63v-155q-4 -3 -15 -3l-15 3v125h-653v523q4 3 16 3l16 -3v-493h261v493q4 3 16 3l16 -3v-493h263v493q4 3 16 3z" />
    <glyph glyph-name="afii10092" unicode="&#x44a;" horiz-adv-x="564" 
d="M185 526v-232h182q70 0 108 -40t38 -107t-38 -107t-108 -40h-214v496h-120q-3 4 -3 15l3 15h152zM363 264h-178v-234h178q116 0 116 116q0 118 -116 118z" />
    <glyph glyph-name="afii10093" unicode="&#x44b;" horiz-adv-x="707" 
d="M123 523v-229h182q70 0 108 -40t38 -107t-38 -107t-108 -40h-214v523q6 3 16 3zM301 264h-178v-234h178q116 0 116 116q0 118 -116 118zM616 523v-520q-4 -3 -16 -3l-16 3v520q4 3 16 3z" />
    <glyph glyph-name="afii10094" unicode="&#x44c;" horiz-adv-x="502" 
d="M123 523v-229h182q70 0 108 -40t38 -107t-38 -107t-108 -40h-214v523q6 3 16 3zM301 264h-178v-234h178q116 0 116 116q0 118 -116 118z" />
    <glyph glyph-name="afii10095" unicode="&#x44d;" horiz-adv-x="450" 
d="M351 251h-222q-3 6 -3 15t3 15h221q-6 225 -181 225q-27 0 -52 -4.5t-37 -9.5l-12 -4q-11 8 -11 25q43 23 119 23q100 0 154.5 -70.5t54.5 -202.5t-55 -202.5t-154 -70.5q-36 0 -69 7t-47 15l-15 7q2 16 13 25q46 -22 107 -22q182 0 186 229z" />
    <glyph glyph-name="afii10096" unicode="&#x44e;" horiz-adv-x="778" 
d="M123 523v-249h175q2 137 54.5 199.5t152.5 62.5q101 0 154 -64.5t53 -208.5t-53 -208.5t-154 -64.5q-98 0 -150.5 60t-56.5 194h-175v-241q-4 -3 -16 -3l-16 3v520q4 3 16 3zM505 507q-85 0 -129 -55.5t-44 -188.5t44 -188.5t129 -55.5t129 55.5t44 188.5t-44 188.5
t-129 55.5z" />
    <glyph glyph-name="afii10097" unicode="&#x44f;" horiz-adv-x="517" 
d="M394 3v221h-163l-22 1l-120 -222q-8 -3 -22 -3l-17 3l125 227q-51 13 -77.5 50.5t-26.5 93.5q0 70 41.5 111t118.5 41h195v-523q-4 -3 -16 -3zM235 496q-130 0 -130 -122q0 -56 32.5 -88t97.5 -32h159v242h-159z" />
    <glyph glyph-name="afii10071" unicode="&#x451;" horiz-adv-x="508" 
d="M223 687v-42q-8 -3 -24 -3l-24 3v42q8 3 24 3zM364 687v-42q-8 -3 -24 -3l-24 3v42q8 3 24 3zM438 252h-339q4 -121 47 -175t131 -54q37 0 69 10t46 20l14 10q15 -9 17 -27q-6 -5 -17.5 -12.5t-52 -20.5t-86.5 -13q-98 0 -150 70.5t-52 205.5q0 136 55 203t150 67
q86 0 132.5 -51t46.5 -133q0 -27 -2.5 -52t-5.5 -36zM415 357q0 64 -36 106.5t-109 42.5q-78 0 -123 -55t-48 -169h310q6 28 6 75z" />
    <glyph glyph-name="Wgrave" unicode="&#x1e80;" horiz-adv-x="943" 
d="M671 3l-176 577q-8 26 -12.5 47t-5.5 29l-1 8h-2q-2 -25 -19 -84l-177 -577q-5 -3 -14 -3l-14 3l-218 714q5 3 17 3l18 -3l175 -574q8 -24 13.5 -47t6.5 -34l2 -11h2q3 37 20 92l176 574q3 3 14 3l14 -3l175 -574q7 -24 12 -47t6 -34l1 -11h2q4 37 21 92l166 574
q4 3 17 3l16 -3l-207 -714q-4 -3 -14 -3zM493 757l-125 147q11 17 32 17l117 -150q-6 -13 -24 -14z" />
    <glyph glyph-name="wgrave" unicode="&#x1e81;" horiz-adv-x="791" 
d="M557 3l-124 357l-35 119h-3q-6 -29 -38 -119l-123 -357q-4 -3 -13 -3l-13 3l-173 520q5 3 17 3l17 -3l131 -395q8 -23 13 -42.5t6 -27.5l1 -9h3q5 30 22 79l136 395q4 3 15 3l16 -3l136 -393q8 -23 13 -43t6 -29l1 -9h3q5 28 22 81l130 393q5 3 16 3l16 -3l-172 -520
q-4 -3 -13 -3zM403 610l-125 147q11 17 32 17l117 -150q-6 -13 -24 -14z" />
    <glyph glyph-name="Wacute" unicode="&#x1e82;" horiz-adv-x="943" 
d="M671 3l-176 577q-8 26 -12.5 47t-5.5 29l-1 8h-2q-2 -25 -19 -84l-177 -577q-5 -3 -14 -3l-14 3l-218 714q5 3 17 3l18 -3l175 -574q8 -24 13.5 -47t6.5 -34l2 -11h2q3 37 20 92l176 574q3 3 14 3l14 -3l175 -574q7 -24 12 -47t6 -34l1 -11h2q4 37 21 92l166 574
q4 3 17 3l16 -3l-207 -714q-4 -3 -14 -3zM552 906l-125 -147q-18 1 -24 14l117 150q21 0 32 -17z" />
    <glyph glyph-name="wacute" unicode="&#x1e83;" horiz-adv-x="791" 
d="M557 3l-124 357l-35 119h-3q-6 -29 -38 -119l-123 -357q-4 -3 -13 -3l-13 3l-173 520q5 3 17 3l17 -3l131 -395q8 -23 13 -42.5t6 -27.5l1 -9h3q5 30 22 79l136 395q4 3 15 3l16 -3l136 -393q8 -23 13 -43t6 -29l1 -9h3q5 28 22 81l130 393q5 3 16 3l16 -3l-172 -520
q-4 -3 -13 -3zM468 757l-125 -147q-18 1 -24 14l117 150q21 0 32 -17z" />
    <glyph glyph-name="Wdieresis" unicode="&#x1e84;" horiz-adv-x="943" 
d="M671 3l-176 577q-8 26 -12.5 47t-5.5 29l-1 8h-2q-2 -25 -19 -84l-177 -577q-5 -3 -14 -3l-14 3l-218 714q5 3 17 3l18 -3l175 -574q8 -24 13.5 -47t6.5 -34l2 -11h2q3 37 20 92l176 574q3 3 14 3l14 -3l175 -574q7 -24 12 -47t6 -34l1 -11h2q4 37 21 92l166 574
q4 3 17 3l16 -3l-207 -714q-4 -3 -14 -3zM429 835v-42q-8 -3 -24 -3l-24 3v42q8 3 24 3zM570 835v-42q-8 -3 -24 -3l-24 3v42q8 3 24 3z" />
    <glyph glyph-name="wdieresis" unicode="&#x1e85;" horiz-adv-x="791" 
d="M557 3l-124 357l-35 119h-3q-6 -29 -38 -119l-123 -357q-4 -3 -13 -3l-13 3l-173 520q5 3 17 3l17 -3l131 -395q8 -23 13 -42.5t6 -27.5l1 -9h3q5 30 22 79l136 395q4 3 15 3l16 -3l136 -393q8 -23 13 -43t6 -29l1 -9h3q5 28 22 81l130 393q5 3 16 3l16 -3l-172 -520
q-4 -3 -13 -3zM350 677v-42q-8 -3 -24 -3l-24 3v42q8 3 24 3zM491 677v-42q-8 -3 -24 -3l-24 3v42q8 3 24 3z" />
    <glyph glyph-name="Ygrave" unicode="&#x1ef2;" horiz-adv-x="614" 
d="M28 717q7 3 21 3l20 -3l237 -375l245 375q5 3 19 3l21 -3l-268 -412v-302q-6 -3 -17 -3l-17 3v301zM327 757l-125 147q11 17 32 17l117 -150q-6 -13 -24 -14z" />
    <glyph glyph-name="ygrave" unicode="&#x1ef3;" horiz-adv-x="520" 
d="M486 523l-238 -650q-23 -63 -49 -93t-71 -30q-12 0 -23.5 1.5t-16.5 2.5l-6 2q-3 6 -3 14q0 10 4 15q16 -5 42 -5q29 0 50 23.5t42 80.5l43 117q-11 5 -13 7l-215 515q6 3 18 3l18 -3l166 -398l36 -93h3q13 40 32 92l146 399q4 3 17 3zM258 610l-125 147q11 17 32 17
l117 -150q-6 -13 -24 -14z" />
    <glyph glyph-name="endash" unicode="&#x2013;" horiz-adv-x="564" 
d="M472 275h-380q-3 4 -3 15l3 15h380q3 -4 3 -15z" />
    <glyph glyph-name="emdash" unicode="&#x2014;" horiz-adv-x="814" 
d="M722 275h-630q-3 4 -3 15l3 15h630q3 -4 3 -15z" />
    <glyph glyph-name="quoteleft" unicode="&#x2018;" horiz-adv-x="203" 
d="M121 720l16 -12q-29 -28 -34 -82l19 -3v-42q-8 -3 -24 -3l-24 3v32q0 31 12 58t24 38z" />
    <glyph glyph-name="quoteright" unicode="&#x2019;" horiz-adv-x="199" 
d="M86 578l-16 12q28 28 33 82l-18 3v42q8 3 24 3l24 -3v-32q0 -31 -11.5 -58t-23.5 -38z" />
    <glyph glyph-name="quotesinglbase" unicode="&#x201a;" horiz-adv-x="198" 
d="M76 -94l-16 12q28 28 33 82l-18 3v42q8 3 24 3l24 -3v-32q0 -31 -11.5 -58t-23.5 -38z" />
    <glyph glyph-name="quotedblleft" unicode="&#x201c;" horiz-adv-x="303" 
d="M121 720l16 -12q-29 -28 -34 -82l19 -3v-42q-8 -3 -24 -3l-24 3v32q0 31 12 58t24 38zM221 720l16 -12q-29 -28 -34 -82l19 -3v-42q-8 -3 -24 -3l-24 3v32q0 31 12 58t24 38z" />
    <glyph glyph-name="quotedblright" unicode="&#x201d;" horiz-adv-x="299" 
d="M86 578l-16 12q28 28 33 82l-18 3v42q8 3 24 3l24 -3v-32q0 -31 -11.5 -58t-23.5 -38zM186 578l-16 12q28 28 33 82l-18 3v42q8 3 24 3l24 -3v-32q0 -31 -11.5 -58t-23.5 -38z" />
    <glyph glyph-name="quotedblbase" unicode="&#x201e;" horiz-adv-x="301" 
d="M76 -94l-16 12q28 28 33 82l-18 3v42q8 3 24 3l24 -3v-32q0 -31 -11.5 -58t-23.5 -38zM179 -94l-16 12q28 28 33 82l-18 3v42q8 3 24 3l24 -3v-32q0 -31 -12 -58t-24 -38z" />
    <glyph glyph-name="dagger" unicode="&#x2020;" horiz-adv-x="590" 
d="M306 442l7 -553l-18 -16l-19 16l7 553l-242 -6q-4 6 -4 17l4 16l242 -5l-7 234q6 3 19 3l18 -3l-7 -234l244 5q3 -5 3 -16l-3 -17z" />
    <glyph glyph-name="daggerdbl" unicode="&#x2021;" horiz-adv-x="640" 
d="M332 136l242 7q3 -4 3 -17l-3 -16l-242 7l7 -236q-4 -3 -19 -3l-18 3l7 236l-241 -7q-3 4 -3 16l3 17l241 -7l-7 153l7 153l-242 -6q-3 4 -3 17l3 16l242 -5l-7 234q4 3 19 3l18 -3l-7 -234l241 5q3 -4 3 -16l-3 -17l-241 6l7 -153z" />
    <glyph glyph-name="bullet" unicode="&#x2022;" horiz-adv-x="278" 
d="M170 282q0 -13 -8.5 -21.5t-22.5 -8.5q-13 0 -22 8.5t-9 21.5q0 14 9 22.5t22 8.5q14 0 22.5 -8.5t8.5 -22.5z" />
    <glyph glyph-name="ellipsis" unicode="&#x2026;" horiz-adv-x="502" 
d="M127 45v-42q-8 -3 -24 -3l-24 3v42q8 3 24 3zM275 45v-42q-8 -3 -24 -3l-24 3v42q8 3 24 3zM423 45v-42q-8 -3 -24 -3l-24 3v42q8 3 24 3z" />
    <glyph glyph-name="perthousand" unicode="&#x2030;" horiz-adv-x="1062" 
d="M183 345q-127 0 -127 173t127 173q128 0 128 -173t-128 -173zM183 661q-92 0 -92 -143q0 -77 23.5 -109.5t68.5 -32.5t68.5 32.5t23.5 109.5q0 143 -92 143zM587 699l-389 -706q-7 -3 -21 -3l-18 3l389 706q6 3 20 3zM560 -10q-127 0 -127 173t127 173q128 0 128 -173
t-128 -173zM560 306q-92 0 -92 -143q0 -77 23.5 -109.5t68.5 -32.5t68.5 32.5t23.5 109.5q0 143 -92 143zM880 -10q-127 0 -127 173t127 173q128 0 128 -173t-128 -173zM880 306q-92 0 -92 -143q0 -77 23.5 -109.5t68.5 -32.5t68.5 32.5t23.5 109.5q0 143 -92 143z" />
    <glyph glyph-name="guilsinglleft" unicode="&#x2039;" horiz-adv-x="340" 
d="M58 284l207 225q13 -7 13 -25l-194 -214l194 -215q0 -19 -13 -25l-207 226q-3 5 -3 14z" />
    <glyph glyph-name="guilsinglright" unicode="&#x203a;" horiz-adv-x="340" 
d="M75 509l207 -225q3 -5 3 -14l-3 -14l-207 -226q-13 6 -13 25l194 215l-194 214q0 18 13 25z" />
    <glyph glyph-name="fraction" unicode="&#x2044;" horiz-adv-x="123" 
d="M-151 -6l388 705q6 3 18 3l17 -3l-389 -705q-6 -4 -18 -4z" />
    <glyph glyph-name="zeroinferior" unicode="&#x2080;" horiz-adv-x="343" 
d="M171 -101q-65 0 -95 43t-30 134q0 90 30.5 133t94.5 43t95 -42.5t31 -133.5t-31 -134t-95 -43zM171 230q-54 0 -77.5 -36.5t-23.5 -117.5q0 -82 23.5 -118.5t77.5 -36.5t78 37t24 118q0 80 -24 117t-78 37z" />
    <glyph glyph-name="oneinferior" unicode="&#x2081;" horiz-adv-x="240" 
d="M33 172q69 18 118 73q4 2 12 2q9 0 11 -2v-339q-4 -2 -11 -2q-8 0 -12 2v266q0 29 1 41q-49 -44 -114 -61q-9 7 -5 20z" />
    <glyph glyph-name="twoinferior" unicode="&#x2082;" horiz-adv-x="301" 
d="M38 -55q0 38 20 64t48 40.5t56.5 27.5t48.5 33.5t20 49.5q0 70 -90 70q-17 0 -35.5 -2.5t-29.5 -5.5l-10 -2q-6 10 -5 20q33 12 83 12q111 0 111 -90q0 -37 -21.5 -62t-51.5 -39t-59.5 -29t-47.5 -41t-13 -64h191q3 -4 3 -12q0 -7 -3 -11h-211q-4 18 -4 41z" />
    <glyph glyph-name="threeinferior" unicode="&#x2083;" horiz-adv-x="301" 
d="M257 -4q0 -97 -130 -97q-22 0 -43 3.5t-32 6.5l-10 3q-2 12 6 18q35 -10 78 -10q63 0 85 21t22 55q0 39 -24.5 58t-64.5 19h-43q-5 11 0 22h43q37 0 57 18t20 50q0 67 -84 67q-21 0 -41 -2t-30 -4l-10 -3q-7 8 -5 19q35 12 86 12q108 0 108 -88q0 -56 -48 -79
q30 -12 45 -31.5t15 -57.5z" />
    <glyph glyph-name="fourinferior" unicode="&#x2084;" horiz-adv-x="320" 
d="M241 24h43q2 -4 2 -11l-2 -12h-43v-95q-3 -2 -11 -2l-12 2v95h-184q-2 2 -2 7l2 8l183 229q3 2 12 2l12 -2v-221zM68 24h150v187z" />
    <glyph glyph-name="fiveinferior" unicode="&#x2085;" horiz-adv-x="295" 
d="M88 224v-118q84 0 125.5 -22.5t41.5 -82.5q0 -102 -130 -102q-22 0 -43 3.5t-32 6.5l-10 3q-2 12 6 19q36 -10 78 -10q106 0 106 79q0 47 -32.5 65t-107.5 18h-26v164h172q6 -11 0 -23h-148z" />
    <glyph glyph-name="sixinferior" unicode="&#x2086;" horiz-adv-x="306" 
d="M69 76q41 27 95 27q49 0 77 -27t28 -72q0 -51 -32 -78t-77 -27q-56 0 -86 38.5t-30 112.5q0 81 46.5 136t138.5 64q7 -9 2 -20q-73 -10 -115 -50t-47 -104zM68 49q2 -129 92 -129q38 0 61 22.5t23 61.5q0 34 -22 55.5t-60 21.5q-62 0 -94 -32z" />
    <glyph glyph-name="seveninferior" unicode="&#x2087;" horiz-adv-x="272" 
d="M215 224h-181q-8 12 0 23h204q2 -7 2 -20q0 -39 -13.5 -70.5t-32 -54.5t-37.5 -47.5t-32.5 -62t-13.5 -86.5q-6 -2 -13 -2q-8 0 -12 2q0 51 13.5 91t32 65.5t37.5 48t32.5 51t13.5 62.5z" />
    <glyph glyph-name="eightinferior" unicode="&#x2088;" horiz-adv-x="320" 
d="M160 252q49 0 76.5 -21.5t27.5 -60.5q0 -59 -60 -93q72 -33 72 -88q0 -42 -30.5 -66t-84.5 -24q-53 0 -85 23t-32 67q0 65 70 104q-58 30 -58 79q0 37 26.5 58.5t77.5 21.5zM162 -80q39 0 64.5 17.5t25.5 49.5q0 16 -5.5 28.5t-21.5 23t-24 15.5t-34 16t-32 13
q-67 -37 -67 -93q0 -70 94 -70zM159 231q-37 0 -58 -15.5t-21 -41.5q0 -8 1.5 -15.5t6 -14t7.5 -11.5t11.5 -10t12.5 -8t15 -8t15 -7t17 -7t17 -7q57 36 57 83q0 62 -81 62z" />
    <glyph glyph-name="nineinferior" unicode="&#x2089;" horiz-adv-x="306" 
d="M237 75q-39 -27 -95 -27q-49 0 -77 27t-28 72q0 51 32 78t77 27q56 0 86 -38.5t30 -112.5q0 -81 -46.5 -136t-138.5 -64q-7 9 -2 20q73 10 115 50t47 104zM238 102q-2 129 -92 129q-38 0 -61 -22.5t-23 -61.5q0 -33 22 -55t60 -22q62 0 94 32z" />
    <glyph glyph-name="Euro" unicode="&#x20ac;" horiz-adv-x="587" 
d="M411 243h-234q13 -122 63.5 -172.5t137.5 -50.5q39 0 73.5 6t50.5 12l15 7q6 -2 9 -10l2 -14q-50 -31 -155 -31q-103 0 -159.5 62.5t-70.5 190.5h-82l-1 14l6 14h75q-2 40 -2 64q0 43 2 67h-80l-1 14l6 14h78q29 250 229 250q45 0 81 -7.5t50 -14.5l14 -8q2 -6 -2 -14
l-9 -10q-49 25 -129 25q-85 0 -135.5 -50.5t-64.5 -170.5h279l1 -14l-6 -14h-277q-2 -42 -2 -68q0 -44 2 -63h241l1 -14z" />
    <glyph glyph-name="afii61289" unicode="&#x2113;" horiz-adv-x="451" 
d="M50 192q-13 10 -11 25q40 19 90 52v253q0 126 32 177t111 51q64 0 96 -39.5t32 -109.5q0 -92 -66 -184.5t-174 -164.5v-116q0 -64 22.5 -90t71.5 -26q31 0 64 14t50 28l18 15q6 0 11.5 -5t6.5 -12q-7 -8 -19.5 -19.5t-53.5 -31t-85 -19.5q-69 0 -93 44.5t-24 150.5v50
q-40 -23 -79 -43zM160 574v-288q206 155 206 314q0 121 -92 121q-57 0 -85.5 -33.5t-28.5 -113.5z" />
    <glyph glyph-name="uni2117" unicode="&#x2117;" horiz-adv-x="809" 
d="M438 266h-106v-125q-6 -3 -15 -3q-8 0 -14 3v382h135q59 0 94.5 -35.5t35.5 -92.5q0 -59 -35.5 -94t-94.5 -35zM332 496v-203h103q47 0 74.5 26t27.5 76q0 49 -27.5 75t-74.5 26h-103zM405 5q-139 0 -237 98t-98 237t98 236.5t237 97.5t236.5 -97.5t97.5 -236.5
t-97.5 -237t-236.5 -98zM405 646q-127 0 -217 -89.5t-90 -216.5t90 -217t217 -90t216.5 90t89.5 217t-89.5 216.5t-216.5 89.5z" />
    <glyph glyph-name="trademark" unicode="&#x2122;" horiz-adv-x="636" 
d="M49 720h203q6 -10 0 -21h-90v-264q-3 -3 -11 -3l-10 3v264h-92q-5 13 0 21zM526 435v251l-91 -174q-3 -3 -11 -3l-11 3l-87 174v-251q-3 -3 -9 -3l-9 3v282q3 3 12 3l12 -3l93 -185l96 185q3 3 12 3l12 -3v-282q-3 -3 -9 -3z" />
    <glyph glyph-name="Omega" unicode="&#x2126;" horiz-adv-x="712" 
d="M644 0h-227q-4 7 -4 17q0 11 4 18q26 22 50 48t56.5 70.5t52 103.5t19.5 123q0 156 -64 238t-175 82t-175 -82t-64 -238q0 -64 19.5 -123t52 -103.5t56.5 -70.5t50 -48q4 -7 4 -17q0 -11 -4 -18h-227q-4 8 -4 16q0 9 4 16h179q-8 6 -21 17.5t-40.5 45t-49 71t-38.5 95.5
t-17 119q0 177 73.5 263.5t201.5 86.5t201.5 -86.5t73.5 -263.5q0 -61 -17 -119t-39 -95.5t-49.5 -71t-40.5 -45t-21 -17.5h180q4 -7 4 -16q0 -8 -4 -16z" />
    <glyph glyph-name="estimated" unicode="&#x212e;" horiz-adv-x="827" 
d="M614 583q-83 68 -192 68q-106 0 -192 -67v-222h384v221zM609 95h67q-99 -105 -254 -105q-146 0 -249 103t-103 249t103 249t249 103t249 -103t103 -249v-24h-544v-218q90 -67 192 -67q99 0 187 62z" />
    <glyph glyph-name="onethird" unicode="&#x2153;" horiz-adv-x="704" 
d="M119 -8l389 707q4 3 13 3l12 -3l-388 -707q-4 -2 -13 -2zM647 92q0 -97 -130 -97q-22 0 -43 3.5t-32 6.5l-10 3q-2 12 6 18q35 -10 78 -10q63 0 85 21t22 55q0 39 -24.5 58t-64.5 19h-43q-5 11 0 22h43q37 0 57 18t20 50q0 67 -84 67q-21 0 -41 -2t-30 -4l-10 -3
q-7 8 -5 19q35 12 86 12q108 0 108 -88q0 -56 -48 -79q30 -12 45 -31.5t15 -57.5zM42 614q69 18 118 73q4 2 12 2q9 0 11 -2v-339q-4 -2 -11 -2q-8 0 -12 2v266q0 29 1 41q-49 -44 -114 -61q-9 7 -5 20z" />
    <glyph glyph-name="twothirds" unicode="&#x2154;" horiz-adv-x="768" 
d="M184 -8l389 707q4 3 13 3l12 -3l-388 -707q-4 -2 -13 -2zM712 92q0 -97 -130 -97q-22 0 -43 3.5t-31 6.5l-11 3q-2 12 6 18q35 -10 78 -10q63 0 85 21t22 55q0 39 -24.5 58t-64.5 19h-43q-6 11 0 22h43q37 0 57 18t20 50q0 67 -84 67q-21 0 -41 -2t-30 -4l-10 -3
q-7 8 -5 19q35 12 86 12q108 0 108 -88q0 -56 -48 -79q30 -12 45 -31.5t15 -57.5zM56 387q0 38 20 64t48 40.5t56.5 27.5t48.5 33.5t20 49.5q0 70 -90 70q-17 0 -35.5 -2.5t-29.5 -5.5l-10 -2q-6 10 -5 20q33 12 83 12q111 0 111 -90q0 -37 -21.5 -62t-51.5 -39t-59.5 -29
t-47.5 -41t-13 -64h191q3 -5 3 -12t-3 -11h-211q-4 18 -4 41z" />
    <glyph glyph-name="oneeighth" unicode="&#x215b;" horiz-adv-x="703" 
d="M531 348q49 0 76.5 -21.5t27.5 -60.5q0 -59 -60 -93q72 -33 72 -88q0 -42 -30.5 -66t-84.5 -24q-53 0 -85 23t-32 67q0 65 70 104q-58 30 -58 79q0 37 26.5 58.5t77.5 21.5zM119 -8l389 707q4 3 13 3l12 -3l-388 -707q-4 -2 -13 -2zM42 614q69 18 118 73q4 2 12 2
q9 0 11 -2v-339q-4 -2 -11 -2q-8 0 -12 2v266q0 29 1 41q-49 -44 -114 -61q-9 7 -5 20zM533 16q39 0 64.5 17.5t25.5 49.5q0 16 -5.5 28.5t-21.5 23t-24 15.5t-34 16t-32 13q-67 -37 -67 -93q0 -70 94 -70zM530 327q-37 0 -58 -15.5t-21 -41.5q0 -8 1.5 -15.5t6 -14
t7.5 -11.5t11.5 -10t12.5 -8t15 -8t15 -7t17 -7t17 -7q57 36 57 83q0 62 -81 62z" />
    <glyph glyph-name="threeeighths" unicode="&#x215c;" horiz-adv-x="750" 
d="M579 348q49 0 76.5 -21.5t27.5 -60.5q0 -59 -60 -93q72 -33 72 -88q0 -42 -30.5 -66t-84.5 -24q-53 0 -85 23t-32 67q0 65 70 104q-58 30 -58 79q0 37 26.5 58.5t77.5 21.5zM167 -8l389 707q4 3 13 3l12 -3l-388 -707q-4 -2 -13 -2zM275 438q0 -97 -130 -97
q-22 0 -43 3.5t-32 6.5l-10 3q-2 12 6 18q35 -10 78 -10q63 0 85 21t22 55q0 39 -24.5 58t-64.5 19h-43q-5 11 0 22h43q37 0 57 18t20 50q0 67 -84 67q-21 0 -41 -2t-30 -4l-10 -3q-7 8 -5 19q35 12 86 12q108 0 108 -88q0 -56 -48 -79q30 -12 45 -31.5t15 -57.5zM581 16
q39 0 64.5 17.5t25.5 49.5q0 16 -5.5 28.5t-21.5 23t-24 15.5t-34 16t-32 13q-67 -37 -67 -93q0 -70 94 -70zM578 327q-37 0 -58 -15.5t-21 -41.5q0 -8 1.5 -15.5t6 -14t7.5 -11.5t11.5 -10t12.5 -8t15 -8t15 -7t17 -7t17 -7q57 36 57 83q0 62 -81 62z" />
    <glyph glyph-name="fiveeighths" unicode="&#x215d;" horiz-adv-x="745" 
d="M574 348q49 0 76.5 -21.5t27.5 -60.5q0 -59 -60 -93q72 -33 72 -88q0 -42 -30.5 -66t-84.5 -24q-53 0 -85 23t-32 67q0 65 70 104q-58 30 -58 79q0 37 26.5 58.5t77.5 21.5zM162 -8l389 707q4 3 13 3l12 -3l-388 -707q-4 -2 -13 -2zM106 666v-118q84 0 125.5 -22.5
t41.5 -82.5q0 -102 -130 -102q-22 0 -43 3.5t-32 6.5l-10 3q-2 12 6 19q36 -10 78 -10q106 0 106 79q0 47 -32.5 65t-107.5 18h-26v164h172q6 -11 0 -23h-148zM576 16q39 0 64.5 17.5t25.5 49.5q0 16 -5.5 28.5t-21.5 23t-24 15.5t-34 16t-32 13q-67 -37 -67 -93
q0 -70 94 -70zM573 327q-37 0 -58 -15.5t-21 -41.5q0 -8 1.5 -15.5t6 -14t7.5 -11.5t11.5 -10t12.5 -8t15 -8t15 -7t17 -7t17 -7q57 36 57 83q0 62 -81 62z" />
    <glyph glyph-name="seveneighths" unicode="&#x215e;" horiz-adv-x="657" 
d="M486 348q49 0 76.5 -21.5t27.5 -60.5q0 -59 -60 -93q72 -33 72 -88q0 -42 -30.5 -66t-84.5 -24q-53 0 -85 23t-32 67q0 65 70 104q-58 30 -58 79q0 37 26.5 58.5t77.5 21.5zM74 -8l389 707q4 3 13 3l12 -3l-388 -707q-4 -2 -13 -2zM238 666h-181q-8 12 0 23h204
q2 -7 2 -20q0 -39 -13.5 -70.5t-32.5 -54.5t-37.5 -47.5t-32 -62t-13.5 -86.5q-6 -2 -13 -2q-8 0 -12 2q0 51 13.5 90.5t32.5 65t37.5 48.5t32 51.5t13.5 62.5zM488 16q39 0 64.5 17.5t25.5 49.5q0 16 -5.5 28.5t-21.5 23t-24 15.5t-34 16t-32 13q-67 -37 -67 -93
q0 -70 94 -70zM485 327q-37 0 -58 -15.5t-21 -41.5q0 -8 1.5 -15.5t6 -14t7.5 -11.5t11.5 -10t12.5 -8t15 -8t15 -7t17 -7t17 -7q57 36 57 83q0 62 -81 62z" />
    <glyph glyph-name="arrowleft" unicode="&#x2190;" horiz-adv-x="622" 
d="M52 350l202 202q16 -6 20 -20l-168 -167h455q2 -5 2 -15l-2 -15h-455l168 -168q-5 -15 -20 -19z" />
    <glyph glyph-name="arrowup" unicode="&#x2191;" horiz-adv-x="494" 
d="M45 403l202 202l202 -202q-4 -15 -19 -20l-168 168v-455q-5 -2 -15 -2l-15 2v455l-167 -168q-14 4 -20 20z" />
    <glyph glyph-name="arrowright" unicode="&#x2192;" horiz-adv-x="622" 
d="M368 552l202 -202l-202 -202q-15 4 -20 19l168 168h-455q-2 5 -2 15l2 15h455l-168 167q4 14 20 20z" />
    <glyph glyph-name="arrowdown" unicode="&#x2193;" horiz-adv-x="494" 
d="M247 94l-202 202q6 16 20 20l167 -168v455q5 2 15 2l15 -2v-455l168 168q15 -5 19 -20z" />
    <glyph glyph-name="uni2196" unicode="&#x2196;" horiz-adv-x="512" 
d="M83 244v286h286q3 -6 3 -14t-3 -14h-237l322 -321q-3 -5 -10 -12l-12 -10l-321 322v-237q-6 -3 -14 -3t-14 3z" />
    <glyph glyph-name="uni2197" unicode="&#x2197;" horiz-adv-x="512" 
d="M429 530v-286q-6 -3 -14 -3t-14 3v237l-321 -322q-5 3 -12 10l-10 12l322 321h-237q-3 6 -3 14t3 14h286z" />
    <glyph glyph-name="uni2198" unicode="&#x2198;" horiz-adv-x="507" 
d="M420 432v-286h-286q-3 6 -3 14t3 14h237l-322 321q3 5 10 12l12 10l321 -322v237q6 3 14 3t14 -3z" />
    <glyph glyph-name="uni2199" unicode="&#x2199;" horiz-adv-x="507" 
d="M87 147v286q6 3 14 3t14 -3v-237l321 322q7 -1 14 -8l8 -14l-322 -321h237q3 -6 3 -14t-3 -14h-286z" />
    <glyph glyph-name="partialdiff" unicode="&#x2202;" horiz-adv-x="553" 
d="M443 412q-21 119 -98 203.5t-201 107.5q-3 17 7 27q154 -30 243 -143.5t89 -299.5q0 -173 -53 -245t-159 -72q-205 0 -205 262q0 135 52 198.5t144 63.5q131 0 181 -102zM271 19q173 0 173 233q0 126 -47.5 179t-133.5 53q-80 0 -121.5 -53t-41.5 -179q0 -233 171 -233z
" />
    <glyph glyph-name="Delta" unicode="&#x2206;" horiz-adv-x="643" 
d="M596 0h-549q-12 9 -15 24l274 693q5 3 18 3l18 -3l269 -693q-5 -15 -15 -24zM69 32h505q-63 158 -187 476l-37 95q-9 22 -15.5 42t-8.5 29l-2 9h-2q-5 -28 -26 -81l-38 -95z" />
    <glyph glyph-name="product" unicode="&#x220f;" horiz-adv-x="705" 
d="M596 693v-897q-4 -3 -18 -3l-16 3v865h-419v-865q-4 -3 -18 -3l-16 3v897h487z" />
    <glyph glyph-name="summation" unicode="&#x2211;" horiz-adv-x="569" 
d="M521 -207h-480v21l227 447l-210 417v16h457q3 -5 3 -16l-3 -16h-411l202 -401l-220 -436h435q3 -5 3 -16z" />
    <glyph glyph-name="minus" unicode="&#x2212;" horiz-adv-x="462" 
d="M371 313h-280q-3 4 -3 17l3 17h280q3 -4 3 -17z" />
    <glyph glyph-name="uni2215" unicode="&#x2215;" horiz-adv-x="467" 
d="M21 -6l388 705q6 3 18 3l17 -3l-389 -705q-6 -4 -18 -4z" />
    <glyph glyph-name="uni2219" unicode="&#x2219;" horiz-adv-x="216" 
d="M108 312q-10 0 -17 6.5t-7 17.5t7 17.5t17 6.5t17 -6.5t7 -17.5t-7 -17.5t-17 -6.5z" />
    <glyph glyph-name="radical" unicode="&#x221a;" horiz-adv-x="625" 
d="M595 722l-245 -737h-33l-157 387l-110 -47q-14 9 -12 29l140 60l155 -382l233 698q19 3 29 -8z" />
    <glyph glyph-name="infinity" unicode="&#x221e;" horiz-adv-x="828" 
d="M236 191q33 0 61.5 14t45.5 33.5t29.5 39t17.5 33.5l4 14q-2 5 -5 14.5t-16.5 32.5t-29.5 40.5t-45 32t-62 14.5q-70 0 -102.5 -39.5t-32.5 -94.5t32.5 -94.5t102.5 -39.5zM591 162q-38 0 -70 13.5t-50.5 33t-32.5 39t-19 32.5l-5 14q-2 -5 -5.5 -14t-18 -32t-33 -40
t-50.5 -31.5t-70 -14.5q-82 0 -124.5 48t-42.5 115t42.5 115t124.5 48q38 0 70 -13.5t50.5 -33t32.5 -39.5t19 -34l5 -13q2 5 6.5 14t20 32t34.5 40.5t50 32t66 14.5q82 0 124.5 -48t42.5 -115t-42.5 -115t-124.5 -48zM592 459q-33 0 -61.5 -14t-45.5 -33.5t-29.5 -39
t-17.5 -33.5l-4 -14q2 -5 5 -14.5t16.5 -32.5t29.5 -40.5t45 -32t62 -14.5q70 0 102.5 39.5t32.5 94.5t-32.5 94.5t-102.5 39.5z" />
    <glyph glyph-name="integral" unicode="&#x222b;" horiz-adv-x="504" 
d="M237 -51v631q0 68 31.5 104.5t91.5 36.5q65 0 122 -33q-2 -15 -14 -22q-52 27 -104 27q-96 0 -96 -111v-633q0 -140 -129 -140q-58 0 -116 35q1 16 14 22q51 -29 105 -29q95 0 95 112z" />
    <glyph glyph-name="approxequal" unicode="&#x2248;" horiz-adv-x="539" 
d="M188 374q-21 0 -40.5 -9t-28.5 -18l-9 -9q-19 3 -22 22q4 5 11 13t34 21t59 13q33 0 79.5 -25.5t77.5 -25.5q21 0 40.5 9t28.5 18l9 9q18 -3 24 -20q-3 -5 -10.5 -13.5t-34.5 -22t-61 -13.5q-33 0 -79.5 25.5t-77.5 25.5zM188 215q-21 0 -40.5 -9t-28.5 -18l-9 -9
q-19 3 -22 22q4 5 11 13t34 21t59 13q33 0 79.5 -25.5t77.5 -25.5q21 0 40.5 9t28.5 18l9 9q18 -3 24 -20q-3 -5 -10.5 -13.5t-34.5 -22t-61 -13.5q-33 0 -79.5 25.5t-77.5 25.5z" />
    <glyph glyph-name="notequal" unicode="&#x2260;" horiz-adv-x="457" 
d="M392 192h-206l-54 -98q-6 -3 -18 -3l-15 3l54 98h-89q-3 3 -3 15l3 15h105l75 136h-180q-3 4 -3 15l3 15h197l50 90q7 3 17 3l16 -3l-50 -90h98q3 -4 3 -15l-3 -15h-114l-76 -136h190q3 -4 3 -15z" />
    <glyph glyph-name="lessequal" unicode="&#x2264;" horiz-adv-x="471" 
d="M379 230l-288 118q-3 8 -3 22l3 21l288 118q3 -4 3 -16l-3 -17l-260 -107l260 -104q3 -6 3 -18zM379 128h-288q-3 3 -3 15l3 15h288q3 -4 3 -15z" />
    <glyph glyph-name="greaterequal" unicode="&#x2265;" horiz-adv-x="472" 
d="M381 348l-288 -118q-3 6 -3 17l3 18l260 104l-260 107q-3 5 -3 17l3 16l288 -118q3 -8 3 -21zM381 128h-288q-3 4 -3 15l3 15h288q3 -4 3 -15z" />
    <glyph glyph-name="lozenge" unicode="&#x25ca;" horiz-adv-x="544" 
d="M492 352l-212 -345h-15l-209 345l209 344h15zM94 351l179 -299l182 299l-182 299z" />
    <glyph glyph-name="commaaccent" unicode="&#xf6c3;" horiz-adv-x="186" 
d="M65 -94l-16 12q28 28 33 82l-18 3v42q8 3 24 3l24 -3v-32q0 -31 -12 -58t-24 -38z" />
    <glyph glyph-name="CR" horiz-adv-x="322" 
 />
    <glyph glyph-name="_0020" horiz-adv-x="0" 
 />
    <glyph glyph-name="_375" horiz-adv-x="646" 
d="M598 0h-549q-12 9 -15 24l274 693q5 3 18 3l18 -3l269 -693q-5 -15 -15 -24zM71 32h505q-63 158 -187 476l-37 95q-9 22 -15.5 42t-8.5 29l-2 9h-2q-5 -28 -26 -81l-38 -95z" />
    <glyph glyph-name="_376" horiz-adv-x="700" 
d="M637 0h-227q-4 7 -4 17q0 11 4 18q26 22 50 48t56.5 70.5t52 103.5t19.5 123q0 156 -64 238t-175 82t-175 -82t-64 -238q0 -64 19.5 -123t52 -103.5t56.5 -70.5t50 -48q4 -7 4 -17q0 -11 -4 -18h-227q-4 8 -4 16q0 9 4 16h179q-8 6 -21 17.5t-40.5 45t-49 71t-38.5 95.5
t-17 119q0 177 73.5 263.5t201.5 86.5t201.5 -86.5t73.5 -263.5q0 -61 -17 -119t-39 -95.5t-49.5 -71t-40.5 -45t-21 -17.5h180q4 -7 4 -16q0 -8 -4 -16z" />
    <glyph glyph-name="commaaccent.alt" horiz-adv-x="166" 
d="M101 720l16 -12q-29 -28 -34 -82l19 -3v-42q-8 -3 -24 -3l-24 3v32q0 31 12 58t24 38z" />
    <glyph glyph-name="eight.denom" horiz-adv-x="320" 
d="M160 348q49 0 76.5 -21.5t27.5 -60.5q0 -59 -60 -93q72 -33 72 -88q0 -42 -30.5 -66t-84.5 -24q-53 0 -85 23t-32 67q0 65 70 104q-58 30 -58 79q0 37 26.5 58.5t77.5 21.5zM162 16q39 0 64.5 17.5t25.5 49.5q0 16 -5.5 28.5t-21.5 23t-24 15.5t-34 16t-32 13
q-67 -37 -67 -93q0 -70 94 -70zM159 327q-37 0 -58 -15.5t-21 -41.5q0 -8 1.5 -15.5t6 -14t7.5 -11.5t11.5 -10t12.5 -8t15 -8t15 -7t17 -7t17 -7q57 36 57 83q0 62 -81 62z" />
    <glyph glyph-name="eight.num" horiz-adv-x="320" 
d="M160 694q49 0 76.5 -21.5t27.5 -60.5q0 -59 -60 -93q72 -33 72 -88q0 -42 -30.5 -66t-84.5 -24q-53 0 -85 23t-32 67q0 65 70 104q-58 30 -58 79q0 37 26.5 58.5t77.5 21.5zM162 362q39 0 64.5 17.5t25.5 49.5q0 16 -5.5 28.5t-21.5 23t-24 15.5t-34 16t-32 13
q-67 -37 -67 -93q0 -70 94 -70zM159 673q-37 0 -58 -15.5t-21 -41.5q0 -8 1.5 -15.5t6 -14t7.5 -11.5t11.5 -10t12.5 -8t15 -8t15 -7t17 -7t17 -7q57 36 57 83q0 62 -81 62z" />
    <glyph glyph-name="five.denom" horiz-adv-x="295" 
d="M88 320v-118q84 0 125.5 -22.5t41.5 -82.5q0 -102 -130 -102q-22 0 -43 3.5t-32 6.5l-10 3q-2 12 6 19q36 -10 78 -10q106 0 106 79q0 47 -32.5 65t-107.5 18h-26v164h172q6 -11 0 -23h-148z" />
    <glyph glyph-name="five.num" horiz-adv-x="296" 
d="M88 666v-118q84 0 125.5 -22.5t41.5 -82.5q0 -102 -130 -102q-22 0 -43 3.5t-32 6.5l-10 3q-2 12 6 19q36 -10 78 -10q106 0 106 79q0 47 -32.5 65t-107.5 18h-26v164h172q6 -11 0 -23h-148z" />
    <glyph glyph-name="four.denom" horiz-adv-x="320" 
d="M241 120h43q2 -4 2 -11l-2 -12h-43v-95q-3 -2 -11 -2l-12 2v95h-184q-2 2 -2 7l2 8l183 229q3 2 12 2l12 -2v-221zM68 120h150v187z" />
    <glyph glyph-name="four.num" horiz-adv-x="320" 
d="M241 466h43q2 -4 2 -11l-2 -12h-43v-95q-3 -2 -11 -2l-12 2v95h-184q-2 2 -2 7l2 8l183 229q3 2 12 2l12 -2v-221zM68 466h150v187z" />
    <glyph glyph-name="g.alt" horiz-adv-x="554" 
d="M431 26v62q-49 -98 -167 -98q-97 0 -147 63t-50 210t50 210t147 63q118 0 167 -99v86q4 3 16 3l16 -3v-497q0 -143 -44 -209.5t-159 -66.5q-35 0 -66.5 6t-45.5 12l-14 6q-2 19 11 27q51 -19 115 -19q88 0 129.5 52.5t41.5 191.5zM101 263q0 -129 39.5 -186t131.5 -57
q41 0 73.5 18t50 46t26 56t9.5 55v136q-1 37 -15 74.5t-51.5 69t-92.5 31.5q-92 0 -131.5 -57t-39.5 -186z" />
    <glyph glyph-name="gbreve.alt" horiz-adv-x="554" 
d="M431 26v62q-49 -98 -167 -98q-97 0 -147 63t-50 210t50 210t147 63q118 0 167 -99v86q4 3 16 3l16 -3v-497q0 -143 -44 -209.5t-159 -66.5q-35 0 -66.5 6t-45.5 12l-14 6q-2 19 11 27q51 -19 115 -19q88 0 129.5 52.5t41.5 191.5zM101 263q0 -129 39.5 -186t131.5 -57
q41 0 73.5 18t50 46t26 56t9.5 55v136q-1 37 -15 74.5t-51.5 69t-92.5 31.5q-92 0 -131.5 -57t-39.5 -186zM415 688q-5 -6 -14.5 -15t-43.5 -24t-72 -15t-70.5 13.5t-46.5 26.5l-13 14q4 14 18 19q5 -5 14.5 -12t38.5 -19t59 -12t58 11t41 21l13 11q15 -4 18 -19z" />
    <glyph glyph-name="gcircumflex.alt" horiz-adv-x="554" 
d="M431 26v62q-49 -98 -167 -98q-97 0 -147 63t-50 210t50 210t147 63q118 0 167 -99v86q4 3 16 3l16 -3v-497q0 -143 -44 -209.5t-159 -66.5q-35 0 -66.5 6t-45.5 12l-14 6q-2 19 11 27q51 -19 115 -19q88 0 129.5 52.5t41.5 191.5zM101 263q0 -129 39.5 -186t131.5 -57
q41 0 73.5 18t50 46t26 56t9.5 55v136q-1 37 -15 74.5t-51.5 69t-92.5 31.5q-92 0 -131.5 -57t-39.5 -186zM264 721h25l121 -99q-4 -16 -16 -19l-118 88l-117 -89q-13 5 -16 20z" />
    <glyph glyph-name="gcommaaccent.alt" horiz-adv-x="554" 
d="M431 26v62q-49 -98 -167 -98q-97 0 -147 63t-50 210t50 210t147 63q118 0 167 -99v86q4 3 16 3l16 -3v-497q0 -143 -44 -209.5t-159 -66.5q-35 0 -66.5 6t-45.5 12l-14 6q-2 19 11 27q51 -19 115 -19q88 0 129.5 52.5t41.5 191.5zM101 263q0 -129 39.5 -186t131.5 -57
q41 0 73.5 18t50 46t26 56t9.5 55v136q-1 37 -15 74.5t-51.5 69t-92.5 31.5q-92 0 -131.5 -57t-39.5 -186zM283 744l16 -12q-28 -28 -33 -82l18 -3v-42q-8 -3 -24 -3l-24 3v32q0 31 12 58t24 38z" />
    <glyph glyph-name="gdotaccent.alt" horiz-adv-x="554" 
d="M431 26v62q-49 -98 -167 -98q-97 0 -147 63t-50 210t50 210t147 63q118 0 167 -99v86q4 3 16 3l16 -3v-497q0 -143 -44 -209.5t-159 -66.5q-35 0 -66.5 6t-45.5 12l-14 6q-2 19 11 27q51 -19 115 -19q88 0 129.5 52.5t41.5 191.5zM101 263q0 -129 39.5 -186t131.5 -57
q41 0 73.5 18t50 46t26 56t9.5 55v136q-1 37 -15 74.5t-51.5 69t-92.5 31.5q-92 0 -131.5 -57t-39.5 -186zM294 676v-42q-8 -3 -24 -3l-24 3v42q8 3 24 3z" />
    <glyph glyph-name="nine.denom" horiz-adv-x="306" 
d="M237 171q-39 -27 -95 -27q-49 0 -77 27t-28 72q0 51 32 78t77 27q56 0 86 -38.5t30 -112.5q0 -81 -46.5 -136t-138.5 -64q-7 9 -2 20q73 10 115 50t47 104zM238 198q-2 129 -92 129q-38 0 -61 -22.5t-23 -61.5q0 -33 22 -55t60 -22q62 0 94 32z" />
    <glyph glyph-name="nine.num" horiz-adv-x="306" 
d="M237 517q-39 -27 -95 -27q-49 0 -77 27t-28 72q0 51 32 78t77 27q56 0 86 -38.5t30 -112.5q0 -81 -46.5 -136t-138.5 -64q-7 9 -2 20q73 10 115 50t47 104zM238 544q-2 129 -92 129q-38 0 -61 -22.5t-23 -61.5q0 -33 22 -55t60 -22q62 0 94 32z" />
    <glyph glyph-name="_368" horiz-adv-x="0" 
 />
    <glyph glyph-name="one.denom" horiz-adv-x="240" 
d="M33 268q69 18 118 73q4 2 12 2q9 0 11 -2v-339q-4 -2 -12 -2q-7 0 -11 2v266q0 29 1 41q-49 -44 -114 -61q-9 7 -5 20z" />
    <glyph glyph-name="one.num" horiz-adv-x="256" 
d="M33 614q69 18 118 73q4 2 12 2q9 0 11 -2v-339q-4 -2 -11 -2q-8 0 -12 2v266q0 29 1 41q-49 -44 -114 -61q-9 7 -5 20z" />
    <glyph glyph-name="seven.denom" horiz-adv-x="273" 
d="M216 320h-181q-3 3 -3 11l3 12h204q2 -7 2 -20q0 -39 -13.5 -70.5t-32.5 -54.5t-37.5 -47.5t-32 -62t-13.5 -86.5q-6 -2 -13 -2q-8 0 -12 2q0 51 13.5 91t32.5 65.5t37.5 48t32 51t13.5 62.5z" />
    <glyph glyph-name="seven.num" horiz-adv-x="273" 
d="M216 666h-181q-8 12 0 23h204q2 -7 2 -20q0 -39 -13.5 -70.5t-32.5 -54.5t-37.5 -47.5t-32 -62t-13.5 -86.5q-6 -2 -13 -2q-8 0 -12 2q0 51 13.5 91t32.5 65.5t37.5 48t32 51t13.5 62.5z" />
    <glyph glyph-name="six.denom" horiz-adv-x="306" 
d="M69 172q41 27 95 27q49 0 77 -27t28 -72q0 -51 -32 -78t-77 -27q-56 0 -86 38.5t-30 112.5q0 81 46.5 136t138.5 64q7 -9 2 -20q-73 -10 -115 -50t-47 -104zM68 145q2 -129 92 -129q38 0 61 22.5t23 61.5q0 34 -22 55.5t-60 21.5q-62 0 -94 -32z" />
    <glyph glyph-name="six.num" horiz-adv-x="306" 
d="M69 520q41 27 95 27q49 0 77 -27t28 -72q0 -51 -32 -78t-77 -27q-56 0 -86 38.5t-30 112.5q0 81 46.5 136t138.5 64q7 -9 2 -20q-73 -10 -115 -50t-47 -104zM68 493q2 -129 92 -129q38 0 61 22.5t23 61.5q0 34 -22 55.5t-60 21.5q-62 0 -94 -32z" />
    <glyph glyph-name="three.denom" horiz-adv-x="301" 
d="M257 92q0 -97 -130 -97q-22 0 -43 3.5t-32 6.5l-10 3q-2 12 6 18q35 -10 78 -10q63 0 85 21t22 55q0 39 -24.5 58t-64.5 19h-43q-5 11 0 22h43q37 0 57 18t20 50q0 67 -84 67q-21 0 -41 -2t-30 -4l-10 -3q-7 8 -5 19q35 12 86 12q108 0 108 -88q0 -56 -48 -79
q30 -12 45 -31.5t15 -57.5z" />
    <glyph glyph-name="three.num" horiz-adv-x="301" 
d="M257 438q0 -97 -130 -97q-22 0 -43 3.5t-32 6.5l-10 3q-2 12 6 18q35 -10 78 -10q63 0 85 21t22 55q0 39 -24.5 58t-64.5 19h-43q-5 11 0 22h43q37 0 57 18t20 50q0 67 -84 67q-21 0 -41 -2t-30 -4l-10 -3q-7 8 -5 19q35 12 86 12q108 0 108 -88q0 -56 -48 -79
q30 -12 45 -31.5t15 -57.5z" />
    <glyph glyph-name="two.denom" horiz-adv-x="301" 
d="M38 41q0 38 20 64t48 40.5t56.5 27.5t48.5 33.5t20 49.5q0 70 -90 70q-17 0 -35.5 -2.5t-29.5 -5.5l-10 -2q-6 10 -5 20q33 12 83 12q111 0 111 -90q0 -37 -21.5 -62t-51.5 -39t-59.5 -29t-47.5 -41t-13 -64h191q3 -5 3 -12t-3 -11h-211q-4 18 -4 41z" />
    <glyph glyph-name="two.num" horiz-adv-x="301" 
d="M38 387q0 38 20 64t48 40.5t56.5 27.5t48.5 33.5t20 49.5q0 70 -90 70q-17 0 -35.5 -2.5t-29.5 -5.5l-10 -2q-6 10 -5 20q33 12 83 12q111 0 111 -90q0 -37 -21.5 -62t-51.5 -39t-59.5 -29t-47.5 -41t-13 -64h191q3 -5 3 -12t-3 -11h-211q-4 18 -4 41z" />
    <glyph glyph-name="Remove1" horiz-adv-x="537" 
 />
    <glyph glyph-name="Remove2" horiz-adv-x="398" 
 />
    <glyph glyph-name="zero.denom" horiz-adv-x="343" 
d="M171 -5q-65 0 -95 43t-30 134q0 90 30.5 133t94.5 43t95 -42.5t31 -133.5t-31 -134t-95 -43zM171 326q-54 0 -77.5 -36.5t-23.5 -117.5q0 -82 23.5 -118.5t77.5 -36.5t78 37t24 118q0 80 -24 117t-78 37z" />
    <glyph glyph-name="zero.num" horiz-adv-x="343" 
d="M171 341q-65 0 -95 43t-30 134q0 90 30.5 133t94.5 43t95 -42.5t31 -133.5t-31 -134t-95 -43zM171 672q-54 0 -77.5 -36.5t-23.5 -117.5q0 -82 23.5 -118.5t77.5 -36.5t78 37t24 118q0 80 -24 117t-78 37z" />
    </font>
</defs>
</svg>
