<?xml version="1.0" standalone="no"?>
<!DOCTYPE svg PUBLIC "-//W3C//DTD SVG 1.1//EN" "http://www.w3.org/Graphics/SVG/1.1/DTD/svg11.dtd" >
<svg xmlns="http://www.w3.org/2000/svg" xmlns:xlink="http://www.w3.org/1999/xlink" version="1.1">
<metadata>
Created by FontForge 20170731 at Fri Feb  7 20:03:23 2014
 By Aleksey,,,
Copyright (c) 2014 by Fontfabric LLC. All rights reserved.
</metadata>
<defs>
<font id="GloberLightItalic" horiz-adv-x="554" >
  <font-face 
    font-family="Glober Light Italic"
    font-weight="300"
    font-style="italic"
    font-stretch="normal"
    units-per-em="1000"
    panose-1="0 0 0 0 0 0 0 0 0 0"
    ascent="750"
    descent="-250"
    x-height="526"
    cap-height="720"
    bbox="-218 -250.389 991 1052"
    underline-thickness="50"
    underline-position="-200"
    unicode-range="U+0020-FB02"
  />
<missing-glyph horiz-adv-x="618" 
d="M-116 0l153 720h538l-153 -720h-538zM176 200l13 3q10 46 33 80t50 55t53.5 41.5t49.5 53t32 76.5q12 54 -16 89t-100 35q-32 0 -64 -6.5t-47 -12.5l-16 -6q-4 -14 5 -20q46 20 114 20q61 0 83 -28t13 -73q-8 -40 -29.5 -69t-47.5 -48t-52.5 -40.5t-49.5 -58.5t-34 -88
q3 -3 10 -3zM172 83l7 34q-6 2 -19 2l-19 -2l-7 -34q5 -2 18 -2z" />
    <glyph glyph-name="fi" unicode="fi" 
d="M506 526l-111 -523q-5 -3 -17 -3l-15 3l104 493h-285l-104 -493q-5 -3 -17 -3l-15 3l104 493h-64q-2 4 1 15l6 15h64l13 60q17 82 64 123t145 41q40 0 81 -7t62 -13l21 -7q0 -17 -15 -28q-67 25 -150 25q-85 0 -123 -30.5t-52 -98.5l-14 -65h296h5h16z" />
    <glyph glyph-name="fl" unicode="fl" horiz-adv-x="556" 
d="M316 496h-134l-104 -493q-5 -3 -17 -3l-15 3l104 493h-64q-2 4 1 15l6 15h64l13 60q16 79 62.5 121.5t136.5 42.5q44 0 88 -8.5t67 -17.5l22 -8l-151 -713q-5 -3 -17 -3l-15 3l147 693q-65 24 -142 24q-78 0 -114.5 -31.5t-50.5 -97.5l-14 -65h134q2 -4 0 -15z" />
    <glyph glyph-name=".notdef" horiz-adv-x="618" 
d="M-116 0l153 720h538l-153 -720h-538zM176 200l13 3q10 46 33 80t50 55t53.5 41.5t49.5 53t32 76.5q12 54 -16 89t-100 35q-32 0 -64 -6.5t-47 -12.5l-16 -6q-4 -14 5 -20q46 20 114 20q61 0 83 -28t13 -73q-8 -40 -29.5 -69t-47.5 -48t-52.5 -40.5t-49.5 -58.5t-34 -88
q3 -3 10 -3zM172 83l7 34q-6 2 -19 2l-19 -2l-7 -34q5 -2 18 -2z" />
    <glyph glyph-name=".null" horiz-adv-x="0" 
 />
    <glyph glyph-name="nonmarkingreturn" horiz-adv-x="333" 
 />
    <glyph glyph-name="space" unicode=" " horiz-adv-x="263" 
 />
    <glyph glyph-name="exclam" unicode="!" horiz-adv-x="238" 
d="M74 153l115 564l1 2q5 1 17 1q17 -1 16 -3l-125 -564q-3 -4 -12 -4zM86 45l-9 -42q-7 -3 -23 -3l-21 3l9 42q6 3 22 3z" />
    <glyph glyph-name="quotedbl" unicode="&#x22;" horiz-adv-x="291" 
d="M128 526l33 191q7 3 18 3l16 -3l-47 -191q-4 -2 -11 -2zM232 526l33 191q6 3 18 3l16 -3l-47 -191q-4 -2 -11 -2z" />
    <glyph glyph-name="numbersign" unicode="#" horiz-adv-x="645" 
d="M263 4l70 144h-178l-70 -144q-6 -4 -18 -4l-14 4l70 144h-109q-2 7 1 15q1 9 6 15h118l128 259h-107q-2 6 0 15t6 15h115l77 153q8 3 16 3q10 0 16 -3l-77 -153h178l77 153q8 3 16 3q10 0 16 -3l-77 -153h106q1 -6 0 -15q-1 -7 -6 -15h-114l-128 -259h103q2 -6 0 -15
q-2 -7 -7 -15h-112l-70 -144q-6 -4 -18 -4zM299 437l-128 -259h178l128 259h-178z" />
    <glyph glyph-name="dollar" unicode="$" horiz-adv-x="558" 
d="M365 637q-97 0 -153 -36.5t-70 -101.5q-9 -41 7 -69t48 -42.5t72 -24.5t79.5 -22t70.5 -29.5t46 -52t4 -83.5q-16 -76 -80 -122t-162 -51l-22 -129q-5 -3 -19 -3l-20 3l32 128q-53 0 -100.5 8t-68.5 16l-21 9q2 18 16 27q81 -27 177 -27q97 0 157.5 35.5t75.5 104.5
q9 43 -6.5 72t-47.5 43.5t-72 25t-79.5 22t-71 28.5t-46 50t-4.5 81q15 74 76 119t157 51l20 119q7 3 20 3l19 -3l-31 -118q48 0 89.5 -5.5t58.5 -10.5l17 -6q-2 -18 -15 -27q-64 18 -153 18z" />
    <glyph glyph-name="percent" unicode="%" horiz-adv-x="740" 
d="M190 345q-127 0 -90 173t164 173q128 0 91 -173t-165 -173zM257 661q-91 0 -122 -143q-16 -77 0.5 -109.5t61.5 -32.5t75.5 32.5t46.5 109.5q31 143 -62 143zM670 699l-540 -706q-7 -3 -21 -3l-18 3l540 706q6 3 20 3zM492 -10q-127 0 -90 173t163 173q128 0 92 -173
q-37 -173 -165 -173zM559 306q-93 0 -122 -143q-16 -77 0 -109.5t61 -32.5q93 0 123 142q30 143 -62 143z" />
    <glyph glyph-name="ampersand" unicode="&#x26;" horiz-adv-x="627" 
d="M404 690q62 0 89.5 -35t17.5 -84q-15 -72 -76.5 -120.5t-183.5 -105.5q38 -131 151 -228q72 67 115 159q21 0 28 -15q-38 -84 -123 -162q47 -38 117 -70q-2 -19 -20 -30q-66 28 -125 76q-9 -9 -24.5 -19.5t-45 -27t-70.5 -27.5t-84 -11q-78 0 -122.5 42.5t-26.5 126.5
q8 40 31.5 75t54.5 59.5t55.5 39.5t50.5 26q-17 81 -2 155q18 82 68 129t125 47zM180 20q95 0 194 72q-115 102 -154 240q-52 -24 -100.5 -66.5t-61.5 -104.5q-14 -66 19.5 -103.5t102.5 -37.5zM393 660q-55 0 -93.5 -37t-53.5 -106q-15 -74 -1 -144q107 50 162.5 92
t67.5 100q9 44 -12.5 69.5t-69.5 25.5z" />
    <glyph glyph-name="quotesingle" unicode="'" horiz-adv-x="187" 
d="M128 526l33 191q6 3 18 3l16 -3l-47 -191q-4 -2 -11 -2z" />
    <glyph glyph-name="parenleft" unicode="(" horiz-adv-x="280" 
d="M340 807l8 -11q-7 -8 -20 -22t-48 -62t-65 -100t-62.5 -131.5t-49.5 -160.5q-26 -146 -16 -252t35 -165l24 -59q-3 -6 -13 -11l-14 -4q-5 8 -12 23.5t-23 65.5t-25 103.5t-8 135.5t18 163t50 162t68 137.5t67 101.5t52 67l21 23q7 1 13 -4z" />
    <glyph glyph-name="parenright" unicode=")" horiz-adv-x="279" 
d="M183 320q26 146 16 252t-35 165l-24 59q3 6 12 11l15 4q5 -8 12 -23.5t23 -65.5t25 -103.5t8 -135.5t-18 -163t-50 -162t-68 -137.5t-67 -101.5t-52 -67l-21 -23q-7 -1 -14 4l-7 11q7 8 20 22t48 62t65 100t62.5 131.5t49.5 160.5z" />
    <glyph glyph-name="asterisk" unicode="*" horiz-adv-x="354" 
d="M272 497l-40 75l-71 -76q-10 4 -18 14l72 78l-81 28q3 14 13 24l81 -28l19 89q4 2 13 2l12 -2l-19 -89l93 28q6 -8 3 -24l-94 -28l40 -77q-12 -10 -23 -14z" />
    <glyph glyph-name="plus" unicode="+" horiz-adv-x="460" 
d="M176 125l31 150h-150q-2 4 1 15l6 15h150l32 150q4 3 15 3l15 -3l-32 -150h150q2 -4 0 -15l-7 -15h-150l-31 -150q-5 -3 -16 -3z" />
    <glyph glyph-name="comma" unicode="," horiz-adv-x="204" 
d="M-4 -94l-13 12q33 28 50 82l-17 3l9 42q8 3 24 3l24 -3l-7 -32q-7 -31 -24.5 -58t-31.5 -38z" />
    <glyph glyph-name="hyphen" unicode="-" horiz-adv-x="355" 
d="M259 275h-180q-2 4 1 15l6 15h180q2 -4 0 -15z" />
    <glyph glyph-name="period" unicode="." horiz-adv-x="195" 
d="M71 45l-9 -42q-9 -3 -25 -3l-23 3l9 42q8 3 24 3z" />
    <glyph glyph-name="slash" unicode="/" horiz-adv-x="426" 
d="M-48 -44l507 791q6 3 18 3l18 -3l-507 -791q-8 -3 -21 -3z" />
    <glyph glyph-name="zero" unicode="0" horiz-adv-x="620" 
d="M384 660q-102 0 -167 -77t-100 -243t-3 -243t134 -77q103 0 168.5 77.5t100.5 242.5q35 166 2.5 243t-135.5 77zM248 -10q-117 0 -159.5 83.5t-6.5 266.5q36 181 111.5 265.5t191.5 84.5q117 0 160 -84t7 -266q-36 -183 -111.5 -266.5t-192.5 -83.5z" />
    <glyph glyph-name="one" unicode="1" horiz-adv-x="385" 
d="M81 518q67 17 130 58t111 101q4 3 15 3l15 -3l-143 -674q-5 -3 -18 -3l-15 3l101 479q17 74 34 141q-86 -98 -227 -134q-10 10 -3 29z" />
    <glyph glyph-name="two" unicode="2" horiz-adv-x="523" 
d="M165 628q-11 10 -4 30q79 32 190 32q85 0 128.5 -43.5t24.5 -131.5q-9 -41 -26 -71t-53 -58t-65 -45.5t-92 -51.5q-9 -5 -42 -22t-47 -25t-41.5 -28t-42 -37.5t-29.5 -45t-22 -58.5l-6 -41h353q2 -4 -1 -16l-6 -16h-382q1 32 8 67q7 32 18 59t28 49t31 37.5t40 32t40 25
t45.5 25t44.5 23.5q9 5 38.5 21t38 21.5t32 20t32 22t24.5 22.5t23 28t15 30.5t12 36.5q30 140 -134 140q-39 0 -82.5 -8t-67.5 -16z" />
    <glyph glyph-name="three" unicode="3" horiz-adv-x="509" 
d="M409 170q-14 -76 -79.5 -128t-181.5 -52q-43 0 -81.5 8t-55.5 16l-17 8q2 18 15 25q78 -26 143 -26q193 0 225 155q11 42 3.5 71t-21 47.5t-39 29t-49 14.5t-52.5 4h-45q-2 4 0 15l6 15h45q175 0 207 150q14 65 -20.5 102t-115.5 37q-37 0 -74.5 -6.5t-56.5 -12.5l-19 -7
q-13 8 -7 27q74 28 167 28t133.5 -49t24.5 -122q-13 -64 -48.5 -104t-100.5 -60q122 -37 94 -185z" />
    <glyph glyph-name="four" unicode="4" horiz-adv-x="568" 
d="M24 215l438 462q5 3 18 3l16 -3l-98 -464h107q2 -4 -1 -13l-6 -15h-107l-38 -182q-6 -3 -18 -3l-15 3l38 182h-341q-2 4 0 15zM61 213h304l88 413z" />
    <glyph glyph-name="five" unicode="5" horiz-adv-x="519" 
d="M205 648l-59 -274q41 7 94 7q116 0 161.5 -54.5t24.5 -152.5q-20 -93 -88 -138.5t-194 -45.5q-46 0 -82 6t-50 12l-13 7q0 19 15 28q55 -22 131 -22q108 0 168.5 39t78.5 122q16 77 -19 122.5t-147 45.5q-27 0 -57 -3t-47 -5l-16 -3l72 341h325q2 -5 0 -16l-6 -16h-292z
" />
    <glyph glyph-name="six" unicode="6" horiz-adv-x="553" 
d="M502 666q-4 -10 -6 -14q-270 -26 -369 -289q96 53 188 53q89 0 133.5 -58.5t21.5 -168.5q-21 -100 -88.5 -149.5t-163.5 -49.5t-140.5 66.5t-15.5 200.5q43 202 159 307t279 116q3 -5 2 -14zM435 196q20 91 -16 139.5t-112 48.5q-96 0 -193 -61q-10 -31 -18 -70
q-25 -117 10 -175t115 -58t137.5 44t76.5 132z" />
    <glyph glyph-name="seven" unicode="7" horiz-adv-x="489" 
d="M519 680q1 0 1 -2t-0.5 -7t-1.5 -11q-15 -70 -54.5 -131t-87.5 -110.5t-97.5 -103.5t-93 -134t-64.5 -178q-6 -3 -17 -3l-17 3q21 99 63.5 180t90.5 136t95.5 103.5t88 105.5t57.5 120h-373q-2 5 0 16l6 16h404z" />
    <glyph glyph-name="eight" unicode="8" horiz-adv-x="579" 
d="M222 -10q-104 0 -152 47t-33 120q9 42 33 80t56 65t55.5 43t47.5 28q-109 59 -87 165q16 72 75.5 112t151.5 40q90 0 133.5 -43t28.5 -114q-25 -118 -161 -188q63 -30 93.5 -74t15.5 -114q-16 -78 -81 -122.5t-176 -44.5zM226 21q91 0 148 38.5t71 100.5q4 17 4 33t-3 29
t-10.5 25t-15.5 21t-21 18.5t-24 16t-27 15t-28 14t-30 13.5t-29 13q-18 -9 -38 -21t-54.5 -37.5t-61 -62t-35.5 -76.5q-15 -63 23 -101.5t131 -38.5zM365 659q-75 0 -125.5 -33.5t-64.5 -89.5q-3 -15 -3 -29.5t2 -25.5t9.5 -22t13 -19t18 -17.5t20 -14.5t24.5 -13.5t25 -12
t27.5 -12.5t26.5 -12q134 67 158 173q14 60 -21.5 94t-109.5 34z" />
    <glyph glyph-name="nine" unicode="9" horiz-adv-x="551" 
d="M64 14q2 12 6 17q275 27 370 288q-48 -28 -86.5 -41.5t-94.5 -13.5q-91 0 -138.5 55.5t-24.5 163.5q22 101 90 154t162 53q95 0 140 -69t16 -198q-46 -204 -159.5 -309t-279.5 -114q-3 5 -1 14zM130 477q-19 -91 16.5 -136.5t112.5 -45.5q93 0 193 62q5 15 18 70
q24 117 -11 175t-115 58q-79 0 -137 -47t-77 -136z" />
    <glyph glyph-name="colon" unicode=":" horiz-adv-x="218" 
d="M78 45l-9 -42q-9 -3 -25 -3l-23 3l9 42q8 3 24 3zM161 440l-8 -42q-9 -3 -25 -3l-23 3l8 42q9 3 25 3z" />
    <glyph glyph-name="semicolon" unicode=";" horiz-adv-x="236" 
d="M13 -94l-13 12q33 28 50 82l-17 3l9 42q8 3 24 3l24 -3l-7 -32q-7 -31 -24.5 -58t-31.5 -38zM173 440l-8 -42q-9 -3 -25 -3l-23 3l8 42q9 3 25 3z" />
    <glyph glyph-name="less" unicode="&#x3c;" horiz-adv-x="473" 
d="M343 120l-288 148q-1 8 2 22l7 21l352 148q2 -4 -1 -16l-6 -17l-325 -137l267 -134q2 -6 -1 -18z" />
    <glyph glyph-name="equal" unicode="=" horiz-adv-x="513" 
d="M431 358h-328q-2 4 0 15l6 15h328q3 -4 0 -15zM396 192h-328q-3 3 0 15l6 15h328q2 -4 0 -15z" />
    <glyph glyph-name="greater" unicode="&#x3e;" horiz-adv-x="470" 
d="M399 268l-352 -148q-1 6 1 17l7 18l323 134l-265 137q-2 5 0 17l7 16l288 -148q1 -8 -1 -21z" />
    <glyph glyph-name="question" unicode="?" horiz-adv-x="423" 
d="M418 535q-12 -55 -40.5 -95.5t-62 -66t-67 -52t-62.5 -68.5t-41 -100q-5 -4 -15 -4l-14 4q14 64 43 110t62 72.5t65 51t59 60.5t37 86q12 56 -15.5 91t-103.5 35q-38 0 -73.5 -6.5t-52.5 -12.5l-17 -6q-12 8 -6 25q67 31 159 31q90 0 124.5 -44t20.5 -111zM133 45l-9 -42
q-9 -3 -25 -3l-23 3l9 42q8 3 24 3z" />
    <glyph glyph-name="at" unicode="@" horiz-adv-x="914" 
d="M840 303q-21 -101 -76 -159.5t-134 -58.5q-78 0 -82 75q-52 -75 -145 -75q-71 0 -106 46t-13 147q22 102 76 148t125 46q86 0 110 -64l13 61q5 3 14 3l16 -3l-53 -249q-24 -109 53 -109q55 0 103.5 47.5t68.5 144.5q34 160 -40 255.5t-239 95.5q-157 0 -279.5 -102.5
t-158.5 -272.5q-38 -181 41 -274t230 -93q155 0 301 87q14 -5 10 -21q-146 -94 -324 -94q-160 0 -244 102.5t-44 292.5q38 181 170.5 291t302.5 110q182 0 261 -104t43 -273zM317 278q-36 -167 97 -167q53 0 92 35t50 82l21 97q10 48 -14 84.5t-78 36.5q-60 0 -104 -36.5
t-64 -131.5z" />
    <glyph glyph-name="A" unicode="A" horiz-adv-x="634" 
d="M516 3l-40 215h-353l-131 -215q-8 -3 -21 -3l-15 3l434 714q5 3 15 3l13 -3l132 -714q-6 -3 -19 -3zM374 631l-232 -381h328l-69 381l-4 38h-2q-7 -14 -21 -38z" />
    <glyph glyph-name="B" unicode="B" horiz-adv-x="628" 
d="M279 0h-236l153 720h232q95 0 134.5 -51.5t19.5 -142.5q-10 -45 -29.5 -78.5t-42 -50t-37 -24t-24.5 -9.5h1q60 -18 80 -77q15 -43 2 -104q-19 -91 -76 -137t-177 -46zM351 347h-200l-67 -315h201q96 0 145 39.5t66 117.5q17 82 -17.5 120t-127.5 38zM223 688l-65 -309
h193q166 0 195 155q15 77 -17 115.5t-116 38.5h-190z" />
    <glyph glyph-name="C" unicode="C" horiz-adv-x="553" 
d="M269 -10q-262 0 -183 376q40 185 123.5 274.5t216.5 89.5q48 0 88 -8t56 -16l15 -8q1 -7 -5 -15l-12 -12q-52 28 -143 28q-112 0 -188 -77t-116 -263q-18 -98 -18 -163t24.5 -103.5t61.5 -54.5t92 -16q44 0 85.5 7t61.5 14l19 7q5 -2 7 -11l-1 -16q-66 -33 -184 -33z" />
    <glyph glyph-name="D" unicode="D" horiz-adv-x="659" 
d="M374 688h-151l-139 -655h151q133 0 209 70t115 257q17 78 18 135t-10.5 94t-39 59t-64.5 31t-89 9zM238 0h-195l153 720h183q60 0 102.5 -10.5t73.5 -36t45.5 -66.5t13.5 -102.5t-19 -144.5q-43 -203 -125.5 -281.5t-231.5 -78.5z" />
    <glyph glyph-name="E" unicode="E" horiz-adv-x="555" 
d="M43 0l153 720h385q1 -6 0 -16q-3 -11 -7 -16h-351l-65 -307h301q1 -6 0 -15q-3 -10 -7 -16h-301l-67 -318h361q1 -7 0 -15q-3 -10 -7 -17h-395z" />
    <glyph glyph-name="F" unicode="F" horiz-adv-x="537" 
d="M453 341h-304l-71 -338q-6 -3 -18 -3l-16 3l152 717h385q2 -5 0 -16l-7 -16h-351l-67 -315h304q2 -6 0 -16z" />
    <glyph glyph-name="G" unicode="G" horiz-adv-x="619" 
d="M286 -10q-133 0 -186.5 92.5t-14.5 277.5q80 370 346 370q54 0 99 -8t63 -16l18 -8q1 -7 -5 -15q-3 -4 -6 -6.5t-4 -3.5l-2 -1q-67 27 -158 27q-242 0 -315 -340q-18 -98 -16 -163t29 -103.5t65 -54.5t93 -16q70 0 157 19l64 301h-193q-2 6 0 16l6 16h227l-74 -352
q-75 -32 -193 -32z" />
    <glyph glyph-name="H" unicode="H" horiz-adv-x="676" 
d="M551 385l70 332q7 3 18 3l16 -3l-151 -714q-6 -3 -18 -3l-16 3l74 350h-392l-74 -350q-7 -3 -18 -3l-16 3l151 714q7 3 18 3l16 -3l-70 -332h392z" />
    <glyph glyph-name="I" unicode="I" horiz-adv-x="250" 
d="M44 3l151 714q6 3 18 3l16 -3l-151 -714q-6 -3 -18 -3z" />
    <glyph glyph-name="J" unicode="J" horiz-adv-x="421" 
d="M251 154l119 563q5 3 18 3l16 -3l-119 -563q-18 -85 -62.5 -124.5t-124.5 -39.5q-33 0 -65 7.5t-47 14.5l-16 8q3 19 17 28q53 -26 118 -26q57 0 93.5 30t52.5 102z" />
    <glyph glyph-name="K" unicode="K" horiz-adv-x="605" 
d="M229 717l-69 -327h143l298 327q7 3 22 3l18 -3l-312 -346l189 -368q-7 -3 -20 -3l-19 3l-181 355h-145l-75 -355q-7 -3 -18 -3l-16 3l151 714q7 3 18 3z" />
    <glyph glyph-name="L" unicode="L" horiz-adv-x="498" 
d="M43 0l152 717q7 3 18 3l16 -3l-145 -685h331q1 -6 -1 -16l-6 -16h-365z" />
    <glyph glyph-name="M" unicode="M" horiz-adv-x="846" 
d="M640 3l122 576q6 30 13 56t11 37l3 11h-2q-17 -27 -52 -69l-324 -407q-7 -3 -17 -3l-15 3l-142 407l-20 69h-2q-2 -39 -18 -114l-120 -566q-5 -3 -17 -3l-16 3l151 714q9 3 23 3l19 -3l145 -418l16 -53h2q14 18 42 53l334 418q7 3 27 3l22 -3l-151 -714q-6 -3 -18 -3z
" />
    <glyph glyph-name="N" unicode="N" horiz-adv-x="694" 
d="M486 3l-238 588l-29 84h-2q-4 -36 -24 -130l-116 -542q-6 -3 -18 -3l-15 3l151 714q8 3 21 3l16 -3l236 -580q9 -21 16.5 -43.5l11.5 -34.5l3 -12h2q6 48 21 120l118 550q6 3 18 3l15 -3l-151 -714q-7 -3 -20 -3z" />
    <glyph glyph-name="O" unicode="O" horiz-adv-x="677" 
d="M275 -10q-266 0 -190 370q77 370 341 370q266 0 189 -370q-76 -370 -340 -370zM426 700q-229 0 -305 -340q-75 -340 157 -340q226 0 301 340q76 340 -153 340z" />
    <glyph glyph-name="P" unicode="P" horiz-adv-x="598" 
d="M355 309h-212l-65 -306q-6 -3 -18 -3l-16 3l152 717h238q91 0 132.5 -56.5t21.5 -149.5q-20 -94 -81.5 -149.5t-151.5 -55.5zM223 688l-74 -347h209q74 0 125.5 46t68.5 126q17 82 -14 128.5t-106 46.5h-209z" />
    <glyph glyph-name="Q" unicode="Q" horiz-adv-x="677" 
d="M426 730q266 0 189 -370q-48 -232 -170 -319q41 -54 110 -71q-7 -20 -28 -30q-31 8 -62 30.5t-50 52.5q-63 -33 -140 -33q-266 0 -190 370q77 370 341 370zM121 360q-75 -340 157 -340q226 0 301 340q76 340 -153 340t-305 -340z" />
    <glyph glyph-name="R" unicode="R" horiz-adv-x="616" 
d="M196 720h233q91 0 132 -55t22 -145q-17 -78 -65.5 -128t-121.5 -62l103 -327q-8 -3 -20 -3l-19 3l-100 323h-10h-204l-68 -323q-6 -3 -18 -3l-16 3zM357 358q73 0 124.5 44t67.5 121t-16.5 121t-105.5 44h-204l-70 -330h204z" />
    <glyph glyph-name="S" unicode="S" horiz-adv-x="560" 
d="M382 699q-97 0 -155 -42t-73 -115q-4 -19 -4 -35.5t2 -29.5t9 -24t13.5 -19.5t19 -16t23 -13t27.5 -11.5t30 -9.5t33 -9.5q19 -5 32.5 -9.5t31 -11t29 -12.5t25.5 -15.5t22.5 -20t16 -24t10.5 -29.5t3 -35.5t-5 -42.5q-19 -89 -90.5 -136.5t-181.5 -47.5q-53 0 -100.5 9
t-68.5 19l-21 9q2 19 16 28q80 -32 176 -32t158.5 41t78.5 118q8 40 1 68t-32 46t-47.5 27t-64.5 21q-21 6 -33.5 10t-32 11t-31.5 13t-27 15.5t-23.5 19.5t-17 24t-12 30t-3.5 36t5 43q18 87 86.5 135.5t176.5 48.5q48 0 92 -6t64 -12l19 -6q-3 -19 -16 -28q-72 21 -161 21
z" />
    <glyph glyph-name="T" unicode="T" horiz-adv-x="524" 
d="M121 720h457q2 -4 0 -15l-7 -16h-209l-145 -686q-6 -3 -18 -3l-16 3l145 686h-214q-1 6 1 16z" />
    <glyph glyph-name="U" unicode="U" horiz-adv-x="665" 
d="M651 717l-105 -495q-24 -111 -96.5 -171.5t-176.5 -60.5q-106 0 -158.5 61.5t-29.5 170.5l105 495q7 3 18 3l16 -3l-106 -499q-19 -94 22 -146t134 -52t156 52t82 146l106 499q7 3 17 3z" />
    <glyph glyph-name="V" unicode="V" horiz-adv-x="602" 
d="M145 717l94 -610l5 -56h2q9 23 27 55l353 611q8 3 21 3l16 -3l-412 -714q-5 -3 -15 -3l-13 3l-110 714q5 3 18 3z" />
    <glyph glyph-name="W" unicode="W" horiz-adv-x="940" 
d="M605 3l-52 577q-2 26 -2.5 47t0.5 29l1 8h-2q-6 -25 -37 -84l-301 -577q-6 -3 -15 -3l-13 3l-67 714q6 3 18 3l17 -3l53 -574l3 -92h2q10 37 39 92l298 574q4 3 15 3l13 -3l51 -574q2 -24 2 -47t-1 -34l-1 -11h2q12 37 40 92l288 574q5 3 20 3l15 -3l-358 -714
q-5 -3 -15 -3z" />
    <glyph glyph-name="X" unicode="X" horiz-adv-x="587" 
d="M633 717l-303 -348l160 -366q-8 -3 -22 -3l-18 3l-149 341l-285 -341q-12 -3 -26 -3l-18 3l307 365l-151 349q8 3 23 3l16 -3l140 -325l281 325q8 3 25 3z" />
    <glyph glyph-name="Y" unicode="Y" horiz-adv-x="606" 
d="M111 717q8 3 22 3l16 -3l158 -375l324 375q9 3 23 3l20 -3l-355 -412l-64 -302q-7 -3 -18 -3l-16 3l64 301z" />
    <glyph glyph-name="Z" unicode="Z" horiz-adv-x="570" 
d="M159 720h439q2 -6 0 -16l-7 -16l-568 -656h442q2 -5 -1 -16l-6 -16h-479q-2 5 0 16l7 16l566 656h-400q-2 5 1 16z" />
    <glyph glyph-name="bracketleft" unicode="[" horiz-adv-x="311" 
d="M214 810h163q2 -5 0 -17l-7 -17h-129l-194 -912h129q2 -5 0 -16l-7 -18h-163z" />
    <glyph glyph-name="backslash" unicode="\" horiz-adv-x="421" 
d="M154 746l169 -789q-6 -4 -19 -4l-18 4l-169 789q5 4 18 4z" />
    <glyph glyph-name="bracketright" unicode="]" horiz-adv-x="310" 
d="M147 810h163l-208 -980h-163q-2 5 1 18l6 16h129l194 912h-129q-2 5 1 17z" />
    <glyph glyph-name="asciicircum" unicode="^" horiz-adv-x="511" 
d="M364 717l121 -262q-5 -3 -20 -3l-19 3l-107 235l-207 -235q-4 -3 -19 -3l-18 3l231 262q5 3 20 3z" />
    <glyph glyph-name="underscore" unicode="_" horiz-adv-x="512" 
d="M385 -48h-400q-3 3 0 14l6 14h400q2 -3 0 -14z" />
    <glyph glyph-name="grave" unicode="`" horiz-adv-x="238" 
d="M158 643l-94 147q15 17 35 17l86 -150q-9 -13 -27 -14z" />
    <glyph glyph-name="a" unicode="a" 
d="M459 436l22 87q2 3 14 3l14 -3l-110 -520q-5 -3 -14 -3l-12 3l13 87q-69 -100 -189 -100q-197 0 -139 273q31 147 94.5 210t160.5 63q57 0 96 -27.5t50 -72.5zM436 326q16 67 -15.5 123.5t-101.5 56.5q-92 0 -145 -57t-82 -186q-29 -128 -1.5 -185.5t116.5 -57.5
q74 0 129 55.5t71 124.5z" />
    <glyph glyph-name="b" unicode="b" 
d="M218 747l-66 -308q71 97 183 97q202 0 144 -273q-31 -147 -93.5 -210t-156.5 -63q-121 0 -151 104l-18 -91q-5 -3 -17 -3l-15 3l158 744q4 3 16 3zM445 263q27 128 -2 185.5t-117 57.5q-73 0 -126.5 -53.5t-69.5 -120.5l-29 -132q-14 -69 17.5 -124.5t103.5 -55.5
q90 0 143 57.5t80 185.5z" />
    <glyph glyph-name="c" unicode="c" horiz-adv-x="442" 
d="M321 505q-179 0 -231 -242q-51 -241 133 -241q28 0 55 6t40 12l13 6q10 -7 8 -27q-50 -29 -130 -29q-99 0 -139 73t-12 209q27 131 95 197.5t168 66.5q34 0 61.5 -6t38.5 -12l11 -5q-3 -19 -18 -28q-33 20 -93 20z" />
    <glyph glyph-name="d" unicode="d" 
d="M458 434l66 313q4 3 16 3l16 -3l-158 -744q-5 -3 -14 -3l-12 3l13 88q-68 -101 -184 -101q-202 0 -144 273q31 147 93 210t157 63q60 0 99 -28t52 -74zM434 326q15 69 -16 124.5t-104 55.5q-91 0 -143.5 -57t-79.5 -186q-27 -128 1.5 -185.5t117.5 -57.5q74 0 128.5 55.5
t68.5 124.5z" />
    <glyph glyph-name="e" unicode="e" horiz-adv-x="506" 
d="M426 252h-339q-22 -121 9.5 -175t119.5 -54q37 0 71 10t50 20l16 10q14 -9 12 -28q-7 -5 -19 -12.5t-54 -20t-88 -12.5q-99 0 -138 71t-11 205q30 137 97 203.5t161 66.5q87 0 124.5 -51.5t20.5 -132.5q-6 -27 -14 -52t-13 -36zM427 357q14 65 -13 107t-102 42
q-79 0 -135.5 -55.5t-83.5 -168.5h312q12 28 22 75z" />
    <glyph glyph-name="f" unicode="f" horiz-adv-x="334" 
d="M344 496h-164l-104 -493q-5 -3 -17 -3l-15 3l104 493h-70q-1 8 0.5 15.5t3.5 10.5l3 4h70l14 66q17 79 56 118.5t122 39.5q22 0 43.5 -3t32.5 -6l11 -3q0 -17 -15 -28q-30 10 -73 10q-70 0 -100.5 -31t-44.5 -98l-14 -65h164q2 -4 0 -15z" />
    <glyph glyph-name="g" unicode="g" horiz-adv-x="553" 
d="M370 26l14 62q-70 -98 -183 -98q-97 0 -136 63.5t-8 209.5q31 147 92.5 210t157.5 63q120 0 150 -104l19 91q5 3 17 3l15 -3l-106 -497q-31 -146 -86.5 -211t-174.5 -65q-35 0 -65.5 6t-43.5 12l-12 6q2 19 17 27q47 -19 111 -19q92 0 142 52t80 192zM91 263
q-28 -128 -0.5 -185.5t119.5 -57.5q41 0 77 18t59.5 46t38.5 56.5t21 54.5l29 136q7 24 2.5 54.5t-14.5 57t-38.5 45t-70.5 18.5q-92 0 -144 -57t-79 -186z" />
    <glyph glyph-name="h" unicode="h" horiz-adv-x="550" 
d="M479 388l-81 -385q-6 -3 -17 -3l-15 3l80 377q26 127 -102 127q-54 0 -111 -35.5t-94 -95.5l-79 -373q-6 -3 -17 -3l-15 3l158 744q5 3 16 3l16 -3l-67 -312q88 101 203 101q71 0 105.5 -40.5t19.5 -107.5z" />
    <glyph glyph-name="i" unicode="i" horiz-adv-x="222" 
d="M173 523l-110 -520q-5 -3 -17 -3l-15 3l110 520q5 3 17 3zM215 683l-9 -42q-8 -3 -24 -3l-24 3l9 42q9 3 25 3z" />
    <glyph glyph-name="j" unicode="j" horiz-adv-x="223" 
d="M11 -92l131 615q5 3 17 3l15 -3l-130 -611q-34 -162 -165 -162q-19 0 -32.5 2t-17.5 4l-4 3q-1 3 0 8l8 16q15 -4 44 -4q55 0 87.5 30.5t46.5 98.5zM216 683l-9 -42q-8 -3 -24 -3l-24 3l9 42q9 3 25 3z" />
    <glyph glyph-name="k" unicode="k" horiz-adv-x="493" 
d="M218 747l-97 -457h123l211 233q7 3 24 3l15 -2l-227 -252l141 -268q-6 -4 -20 -4l-18 4l-133 256h-123l-54 -257q-5 -3 -17 -3l-15 3l158 744q4 3 16 3z" />
    <glyph glyph-name="l" unicode="l" horiz-adv-x="226" 
d="M223 747l-158 -744q-5 -3 -17 -3l-15 3l158 744q4 3 16 3z" />
    <glyph glyph-name="m" unicode="m" horiz-adv-x="845" 
d="M774 388l-81 -385q-6 -3 -17 -3l-15 3l80 377q14 66 -8 96.5t-81 30.5q-51 0 -106 -36t-92 -98l-78 -370q-6 -3 -17 -3l-15 3l80 377q14 66 -8 96.5t-80 30.5q-50 0 -105 -35.5t-92 -95.5l-79 -373q-6 -3 -17 -3l-15 3l110 520q6 3 17 3l15 -3l-18 -87q84 100 194 100
q53 0 84.5 -27t31.5 -81q85 108 202 108q66 0 95.5 -40t14.5 -108z" />
    <glyph glyph-name="n" unicode="n" horiz-adv-x="550" 
d="M479 388l-81 -385q-6 -3 -17 -3l-15 3l80 377q13 66 -11.5 96.5t-87.5 30.5q-54 0 -112.5 -35.5t-95.5 -95.5l-79 -373q-6 -3 -17 -3l-15 3l110 520q6 3 17 3l15 -3l-19 -88q88 101 206 101q71 0 104 -40.5t18 -107.5z" />
    <glyph glyph-name="o" unicode="o" horiz-adv-x="537" 
d="M207 -10q-100 0 -139 64.5t-11 208.5t92 208.5t164 64.5t139 -64.5t11 -208.5t-92 -208.5t-164 -64.5zM312 506q-83 0 -138 -55t-83 -188q-29 -133 2.5 -188t114.5 -55t137.5 55t83.5 188q28 133 -3 188t-114 55z" />
    <glyph glyph-name="p" unicode="p" 
d="M79 95l-73 -342q-4 -3 -16 -3l-16 3l164 770q5 3 17 3l15 -3l-18 -84q71 97 183 97q97 0 136 -63.5t8 -209.5q-31 -147 -92.5 -210t-157.5 -63q-121 0 -150 105zM101 200q-14 -68 18 -124t103 -56q92 0 144 57t79 186q28 128 0.5 185.5t-119.5 57.5q-70 0 -125 -54
t-71 -120z" />
    <glyph glyph-name="q" unicode="q" horiz-adv-x="553" 
d="M313 -247l71 334q-69 -97 -182 -97q-97 0 -136 63.5t-8 209.5q31 147 92.5 210t157.5 63q121 0 150 -103l19 90q5 3 17 3l15 -3l-164 -770q-4 -3 -16 -3zM92 263q-28 -128 -0.5 -185.5t119.5 -57.5q72 0 125.5 53t70.5 121l30 138q12 68 -19 121t-103 53q-92 0 -144 -57
t-79 -186z" />
    <glyph glyph-name="r" unicode="r" horiz-adv-x="385" 
d="M149 426q49 67 91.5 88t85.5 21q23 0 42.5 -5.5t27.5 -11.5l8 -5q-6 -21 -19 -27q-31 18 -71 18q-43 0 -90.5 -36.5t-86.5 -99.5l-77 -365q-5 -3 -17 -3l-15 3l110 520q5 3 17 3l15 -3z" />
    <glyph glyph-name="s" unicode="s" horiz-adv-x="445" 
d="M84 399q14 65 65.5 101t136.5 36q33 0 63.5 -5.5t44.5 -10.5l13 -6q-2 -18 -16 -27q-46 19 -108 19q-142 0 -167 -113q-10 -45 18.5 -70t82.5 -40q35 -11 56.5 -20t46 -26.5t32.5 -45t0 -64.5q-31 -137 -204 -137q-42 0 -78 8t-52 16l-15 7q2 18 16 27q59 -28 132 -28
q64 0 109 27.5t58 84.5q6 28 0 48.5t-26.5 34.5t-38 21t-49.5 17q-63 19 -98 52t-22 94z" />
    <glyph glyph-name="t" unicode="t" horiz-adv-x="342" 
d="M345 496h-161l-68 -324q-20 -77 -4 -114.5t80 -37.5l65 6l1 -15l-4 -13q-29 -8 -69 -8q-79 0 -101.5 48t0.5 134l68 324h-81q-2 4 1 15l6 15h81l21 102q15 11 34 9l-23 -111h161l1 -15z" />
    <glyph glyph-name="u" unicode="u" horiz-adv-x="551" 
d="M53 143l82 380q6 3 17 3l15 -3l-80 -377q-28 -128 101 -128q53 0 110 35.5t96 96.5l79 373q6 3 17 3l15 -3l-110 -520q-6 -3 -17 -3l-15 3l18 88q-90 -101 -200 -101q-72 0 -107.5 41t-20.5 112z" />
    <glyph glyph-name="v" unicode="v" horiz-adv-x="494" 
d="M109 523l69 -380l12 -96h2q19 39 52 94l229 382q5 3 19 3l16 -3l-311 -520q-5 -3 -14 -3l-12 3l-95 520q6 3 19 3z" />
    <glyph glyph-name="w" unicode="w" horiz-adv-x="789" 
d="M492 3l-47 357q-3 25 -5.5 47t-3 34.5t-0.5 21.5v13v3h-3q-13 -28 -64 -119l-200 -357q-5 -3 -14 -3l-12 3l-63 520q6 3 18 3l16 -3l45 -395q3 -23 3.5 -42.5t-0.5 -27.5v-9h3q12 30 39 79l222 395q5 3 16 3l15 -3l51 -393q3 -23 3.5 -43t-0.5 -29l-1 -9h3q11 28 40 81
l213 393q6 3 19 3l15 -3l-282 -520q-5 -3 -14 -3z" />
    <glyph glyph-name="x" unicode="x" horiz-adv-x="483" 
d="M-31 3l243 265l-129 255q6 3 20 3l15 -3l119 -233l213 233q4 3 24 3l18 -3l-239 -259l133 -261q-6 -3 -20 -3l-15 3l-122 239l-218 -239q-5 -3 -26 -3z" />
    <glyph glyph-name="y" unicode="y" horiz-adv-x="549" 
d="M472 523q6 3 17 3l15 -3l-111 -520q-30 -129 -92 -191t-173 -62q-35 0 -65.5 6t-42.5 12l-13 6q2 19 17 27q47 -19 111 -19q89 0 145 49t82 173l18 87q-90 -101 -203 -101q-71 0 -105 40.5t-20 107.5l82 385q6 3 17 3l15 -3l-80 -377q-27 -127 102 -127q53 0 109.5 35
t95.5 96z" />
    <glyph glyph-name="z" unicode="z" horiz-adv-x="444" 
d="M430 496l-407 -466h312q3 -3 0 -15l-6 -15h-349q-2 3 0 15l6 15l408 468h-284q-2 3 1 13l6 15h320q2 -4 0 -15z" />
    <glyph glyph-name="braceleft" unicode="{" horiz-adv-x="334" 
d="M82 318h-35q-2 6 0 16l7 17h35q41 0 53 52l58 274q13 62 54.5 97.5t106.5 35.5h40q2 -6 0 -16l-7 -16h-35q-104 0 -126 -103l-54 -254q-7 -35 -17 -54.5t-31 -31.5q26 -20 12 -87l-54 -254q-22 -103 82 -103h35q2 -4 0 -15l-7 -17h-40q-65 0 -91.5 35.5t-13.5 97.5
l58 274q5 22 -2 37t-28 15z" />
    <glyph glyph-name="bar" unicode="|" horiz-adv-x="244" 
d="M240 787l-208 -981q-5 -3 -17 -3l-15 3l208 981q5 3 17 3z" />
    <glyph glyph-name="braceright" unicode="}" horiz-adv-x="334" 
d="M265 351h35q1 -6 -1 -16l-6 -17h-35q-42 0 -54 -52l-58 -274q-13 -62 -54.5 -97.5t-106.5 -35.5h-40q-2 6 0 16l7 16h35q104 0 126 103l54 254q7 35 17 54.5t31 31.5q-26 21 -12 87l54 254q22 103 -82 103h-35q-2 4 1 15l6 17h40q65 0 91.5 -35.5t13.5 -97.5l-58 -274
q-5 -22 2.5 -37t28.5 -15z" />
    <glyph glyph-name="asciitilde" unicode="~" horiz-adv-x="539" 
d="M190 315q-21 0 -42.5 -9t-32.5 -18l-11 -9q-17 3 -17 22q5 5 14 13t38.5 21t61.5 13q33 0 74 -25.5t72 -25.5q21 0 42.5 9t32.5 18l11 9q17 -3 19 -20q-4 -5 -13 -13.5t-39 -22t-64 -13.5q-33 0 -74 25.5t-72 25.5z" />
    <glyph glyph-name="exclamdown" unicode="&#xa1;" horiz-adv-x="228" 
d="M-10 -199l125 564q2 4 12 4l12 -4l-115 -564l-1 -2q-5 -1 -17 -1q-17 1 -16 3zM182 515l-9 -42q-8 -3 -24 -3l-24 3l9 42q9 3 25 3z" />
    <glyph glyph-name="cent" unicode="&#xa2;" horiz-adv-x="458" 
d="M357 627l-28 -109h-25l18 109q10 3 19 3q10 0 16 -3zM167 -101l29 109h25l-19 -109q-8 -4 -18 -4t-17 4zM325 505q-179 0 -231 -242q-51 -240 133 -240q28 0 55 5.5t40 11.5l13 6q10 -7 8 -27q-54 -29 -134 -29q-99 0 -138 70t-11 203t97 203t168 70q34 0 61.5 -6
t38.5 -12l11 -5q-3 -19 -18 -28q-33 20 -93 20z" />
    <glyph glyph-name="sterling" unicode="&#xa3;" horiz-adv-x="510" 
d="M383 321h-190q8 -82 -16 -151.5t-108 -137.5h320q3 -6 0 -16q-2 -11 -7 -16h-370l7 32q50 37 80.5 75t42 72.5t14.5 71t-3 70.5h-83q-2 9 0 16q2 11 7 16h73q-16 104 -3 163q19 88 81 131.5t155 43.5q37 0 72.5 -6.5t52.5 -12.5l17 -6q-4 -20 -18 -27q-55 21 -130 21
q-163 0 -195 -147q-3 -15 -4 -30t0 -33.5t2 -29.5t4.5 -34.5t4.5 -32.5h201q2 -8 1 -15q-1 -9 -8 -17z" />
    <glyph glyph-name="currency" unicode="&#xa4;" horiz-adv-x="586" 
d="M438 51l-59 75q-63 -45 -133 -45q-71 0 -114 45l-90 -75q-6 0 -12 9q-3 3 -4.5 6.5t-1.5 5.5v1l91 74q-34 54 -18 124q15 72 72 124l-60 74q2 7 11 14l15 7l61 -73q62 44 131 44t112 -45l89 74q5 0 13 -7l5 -14l-89 -74q35 -54 20 -124q-17 -72 -73 -124l59 -74
q-1 -6 -9 -13zM321 431q-67 0 -123.5 -46.5t-70.5 -113.5q-15 -67 22 -113.5t104 -46.5t123 46t71 114q14 68 -22.5 114t-103.5 46z" />
    <glyph glyph-name="yen" unicode="&#xa5;" horiz-adv-x="602" 
d="M641 681l-323 -382h164q1 -5 0 -14l-6 -14h-174l-18 -82h174q2 -5 0 -14l-6 -14h-174l-33 -158q-4 -3 -17 -3l-15 3l33 158h-174q-2 5 0 14l6 14h174l18 82h-174q-2 5 0 14l6 14h164l-149 382q5 3 17 3l19 -3l142 -366l310 366q5 3 18 3z" />
    <glyph glyph-name="brokenbar" unicode="&#xa6;" horiz-adv-x="243" 
d="M-1 -194l93 441q6 3 18 3l16 -3l-93 -441q-6 -3 -18 -3zM116 356l93 441q6 3 18 3l16 -3l-93 -441q-6 -3 -18 -3z" />
    <glyph glyph-name="section" unicode="&#xa7;" horiz-adv-x="484" 
d="M339 117q7 33 -19.5 54.5t-68.5 34.5t-83.5 27t-66.5 42.5t-16 71.5q16 76 111 121q-68 36 -53 104q24 118 186 118q36 0 68.5 -5t46.5 -11l14 -5q0 -18 -15 -27q-56 18 -112 18q-75 0 -109.5 -22.5t-43.5 -64.5q-7 -34 17.5 -57t64 -36t78.5 -27.5t62.5 -42t14.5 -69.5
q-15 -75 -103 -119q77 -36 62 -105q-27 -127 -212 -127q-39 0 -75.5 6t-53.5 12l-17 6q2 17 15 29q68 -20 130 -20q83 0 125.5 22.5t52.5 71.5zM226 455q-92 -41 -105 -104q-4 -19 1 -34t14 -24.5t28.5 -19t34 -14.5t41.5 -13t40 -12q86 41 100 103q4 21 -2.5 37t-25 28
t-34.5 19t-47 17.5t-45 16.5z" />
    <glyph glyph-name="dieresis" unicode="&#xa8;" horiz-adv-x="455" 
d="M163 656l-9 -42q-8 -3 -24 -3l-24 3l9 42q9 3 25 3zM304 656l-9 -42q-8 -3 -24 -3l-24 3l9 42q9 3 25 3z" />
    <glyph glyph-name="copyright" unicode="&#xa9;" horiz-adv-x="807" 
d="M340 5q-139 0 -216 98t-48 237q30 139 148.5 236.5t257.5 97.5t216 -97.5t47 -236.5q-29 -139 -147.5 -237t-257.5 -98zM476 646q-127 0 -236 -89.5t-136 -216.5t44 -217t198 -90t235.5 90t135.5 217t-43.5 216.5t-197.5 89.5zM371 147q-166 0 -124 200q43 199 209 199
q29 0 53 -5.5t33 -10.5l9 -6q-2 -14 -15 -22q-36 18 -81 18q-75 0 -117 -40.5t-61 -132.5q-38 -173 105 -173q22 0 45 4t35 8l13 5q8 -5 6 -21q-41 -23 -110 -23z" />
    <glyph glyph-name="ordfeminine" unicode="&#xaa;" horiz-adv-x="360" 
d="M161 296q-43 0 -66 25.5t-13 67.5q20 93 131 93q48 0 90 -6l10 46q10 48 -4 67t-60 19q-21 0 -44 -4t-35 -8l-13 -4q-7 7 -3 20q51 18 103 18q102 0 80 -102l-47 -223q-2 -2 -8 -2l-9 2l6 49q-45 -58 -118 -58zM269 223h-220q-1 4 1 11l4 10h220v-10zM106 389
q-16 -71 58 -71q45 0 81.5 28.5t46.5 76.5l7 33q-75 5 -86 5q-92 0 -107 -72z" />
    <glyph glyph-name="guillemotleft" unicode="&#xab;" horiz-adv-x="486" 
d="M55 284l255 225q12 -7 8 -25l-240 -214l149 -215q-5 -19 -19 -25l-159 226q-2 5 0 14zM215 283l230 204q11 -5 7 -24l-213 -193l131 -194q-3 -18 -17 -24l-143 205q-2 4 0 13z" />
    <glyph glyph-name="logicalnot" unicode="&#xac;" horiz-adv-x="596" 
d="M533 439l-53 -250q-6 -3 -16 -3l-14 3l47 220h-410q-2 5 0 15l6 15h440z" />
    <glyph glyph-name="uni00AD" unicode="&#xad;" horiz-adv-x="274" 
 />
    <glyph glyph-name="registered" unicode="&#xae;" horiz-adv-x="540" 
d="M260 266q-85 0 -132 60t-29 145t91 145t158 60t132 -60t29 -145t-91 -145t-158 -60zM344 659q-77 0 -144 -55t-83 -133t27 -133t120 -55q78 0 144 55t83 133t-26 133t-121 55zM346 589q70 0 56 -65q-9 -47 -56 -60l36 -100q-3 -3 -10 -3l-11 2l-36 99h-74l-21 -99
q-3 -2 -9 -2l-9 2l48 226h86zM275 572l-20 -93h69q50 0 59 45q5 25 -3.5 36.5t-35.5 11.5h-69z" />
    <glyph glyph-name="macron" unicode="&#xaf;" horiz-adv-x="407" 
d="M319 630h-283q-3 6 -1 16q3 10 8 16h283q3 -6 0 -15q-2 -10 -7 -17z" />
    <glyph glyph-name="degree" unicode="&#xb0;" horiz-adv-x="362" 
d="M343 619q8 41 -11 69.5t-66 28.5t-79 -29.5t-41 -69.5q-8 -40 11.5 -68t67.5 -28q47 0 78 28t40 69zM126 617q10 47 49.5 83t95.5 36q55 0 78.5 -34.5t13.5 -81.5q-11 -48 -48.5 -82.5t-92.5 -34.5q-58 0 -82 33.5t-14 80.5z" />
    <glyph glyph-name="plusminus" unicode="&#xb1;" horiz-adv-x="513" 
d="M233 267l25 120h-150q-2 4 0 15l7 15h150l25 120q5 3 16 3l14 -3l-25 -120h150q2 -4 -1 -15l-6 -15h-150l-25 -120q-5 -3 -16 -3zM388 149h-330q-3 4 0 15l6 15h330q2 -4 0 -15z" />
    <glyph glyph-name="twosuperior" unicode="&#xb2;" horiz-adv-x="301" 
d="M57 387q8 38 33.5 64t57 40.5t62.5 27.5t55.5 33.5t30.5 49.5q6 31 -10 50.5t-65 19.5q-17 0 -36 -2.5t-30 -5.5l-11 -2q-5 10 -1 20q35 12 85 12q59 0 80 -24.5t12 -65.5q-8 -37 -34.5 -62t-59.5 -39t-65.5 -29t-56 -41t-27.5 -64h191q3 -4 1 -12q-1 -6 -5 -11h-211
q-1 18 4 41z" />
    <glyph glyph-name="threesuperior" unicode="&#xb3;" horiz-adv-x="305" 
d="M287 438q-21 -97 -151 -97q-22 0 -42.5 3.5t-29.5 6.5l-10 3q2 13 10 18q33 -10 76 -10q63 0 89.5 21t33.5 55q9 39 -12 58t-61 19h-43q-2 12 5 22h43q77 0 92 68q7 33 -11 50t-59 17q-21 0 -41.5 -2t-31.5 -4l-10 -3q-5 9 -1 19q37 12 88 12q53 0 76 -23t14 -65
q-13 -57 -65 -79q27 -12 38 -31.5t3 -57.5z" />
    <glyph glyph-name="acute" unicode="&#xb4;" horiz-adv-x="224" 
d="M197 790l-156 -147q-18 1 -21 14l148 150q21 0 29 -17z" />
    <glyph glyph-name="mu" unicode="&#xb5;" horiz-adv-x="578" 
d="M33 -14l114 537q5 3 17 3l15 -3l-80 -379q-27 -125 103 -125q59 0 115 38.5t89 91.5l79 374q5 3 17 3l15 -3l-110 -520q-5 -3 -17 -3l-15 3l19 89q-89 -102 -205 -102q-85 0 -114 51q-20 -101 -28.5 -171.5t-6.5 -90.5l2 -20q-16 -13 -37 -8q-8 68 28 235z" />
    <glyph glyph-name="paragraph" unicode="&#xb6;" horiz-adv-x="438" 
d="M410 696l-196 -920q-4 -3 -15 -3l-15 3l196 920q5 3 16 3zM26 -224l158 742q-42 1 -58.5 27.5t-9.5 63.5q9 37 38.5 63.5t71.5 26.5h27l-197 -923q-4 -3 -15 -3z" />
    <glyph glyph-name="periodcentered" unicode="&#xb7;" horiz-adv-x="217" 
d="M132 305l-9 -42q-9 -3 -25 -3l-23 3l9 42q8 3 24 3z" />
    <glyph glyph-name="cedilla" unicode="&#xb8;" horiz-adv-x="296" 
d="M-52 -54l-5 8l33 85l27 -2l-25 -63q57 0 80 -23t15 -65q-21 -97 -133 -97q-22 0 -42.5 5.5t-29.5 11.5l-10 6q4 13 16 22q29 -18 73 -18q78 0 93 70q6 29 -10 44.5t-51 15.5h-31z" />
    <glyph glyph-name="onesuperior" unicode="&#xb9;" horiz-adv-x="242" 
d="M98 614q73 18 134 73q4 2 12 2q9 0 11 -2l-72 -339q-4 -2 -11 -2q-8 0 -12 2l56 266q2 8 5.5 21.5t4.5 19.5q-59 -44 -127 -61q-7 7 -1 20z" />
    <glyph glyph-name="ordmasculine" unicode="&#xba;" horiz-adv-x="378" 
d="M190 295q-65 0 -87 40t-6 128q17 86 55.5 126.5t102.5 40.5t87 -40t6 -127q-16 -87 -55 -127.5t-103 -40.5zM253 608q-54 0 -84.5 -34t-47.5 -111t-0.5 -111.5t70.5 -34.5t85 34.5t48 111.5q17 76 0 110.5t-71 34.5zM284 223h-226q-1 4 1 11l4 10h226q1 -3 0 -10z" />
    <glyph glyph-name="guillemotright" unicode="&#xbb;" horiz-adv-x="485" 
d="M262 509l159 -225q2 -5 0 -14l-6 -14l-255 -226q-12 7 -7 25l239 215l-148 214q4 19 18 25zM117 487l144 -204q1 -4 -1 -13l-4 -13l-231 -205q-10 6 -7 24l213 194l-131 193q3 17 17 24z" />
    <glyph glyph-name="onequarter" unicode="&#xbc;" horiz-adv-x="635" 
d="M44 -8l540 707q4 3 13 3l12 -3l-539 -707q-4 -2 -13 -2zM106 614q73 18 134 73q4 2 12 2q9 0 11 -2l-72 -339q-4 -2 -11 -2q-8 0 -12 2l56 266q2 8 5.5 21.5t4.5 19.5q-59 -44 -127 -61q-7 7 -1 20zM502 120h43q2 -4 0 -11l-4 -12h-43l-21 -95q-3 -2 -11 -2l-12 2l21 95
h-184l-1 7l4 8l231 229q4 2 13 2l11 -2zM329 120h150l40 187z" />
    <glyph glyph-name="onehalf" unicode="&#xbd;" horiz-adv-x="693" 
d="M44 -8l540 707q4 3 13 3l12 -3l-539 -707q-4 -2 -13 -2zM106 614q73 18 134 73q4 2 12 2q9 0 11 -2l-72 -339q-4 -2 -11 -2q-8 0 -12 2l56 266q2 8 5.5 21.5t4.5 19.5q-59 -44 -127 -61q-7 7 -1 20zM367 41q8 38 33.5 64t57 40.5t62.5 27.5t55 33.5t30 49.5q7 30 -9.5 50
t-65.5 20q-17 0 -36 -2.5t-30 -5.5l-11 -2q-4 9 -1 20q36 12 86 12q58 0 79 -24.5t13 -65.5q-8 -37 -35 -62t-60 -39t-65.5 -29t-56 -41t-26.5 -64h191q2 -5 0 -12q-2 -8 -5 -11h-211q0 18 5 41z" />
    <glyph glyph-name="threequarters" unicode="&#xbe;" horiz-adv-x="691" 
d="M100 -8l540 707q4 3 13 3l12 -3l-539 -707q-4 -2 -13 -2zM298 438q-21 -97 -151 -97q-22 0 -42.5 3.5t-30.5 6.5l-9 3q2 13 10 18q33 -10 76 -10q63 0 89.5 21t33.5 55q9 39 -12 58t-61 19h-43q-2 12 5 22h43q77 0 92 68q7 33 -11 50t-59 17q-21 0 -41.5 -2t-30.5 -4
l-11 -3q-5 9 -1 19q37 12 88 12q54 0 76.5 -23t13.5 -65q-13 -57 -65 -79q27 -12 38 -31.5t3 -57.5zM558 120h43q2 -4 0 -11l-4 -12h-43l-21 -95q-3 -2 -11 -2l-12 2l21 95h-184l-1 7l4 8l231 229q4 2 13 2l11 -2zM385 120h150l40 187z" />
    <glyph glyph-name="questiondown" unicode="&#xbf;" horiz-adv-x="413" 
d="M-16 -15q12 55 40 95.5t61.5 66t67 52t62.5 68.5t41 100q6 4 16 4l13 -4q-14 -64 -42.5 -110t-61.5 -72.5t-65.5 -51t-59 -60.5t-37.5 -86q-12 -56 15.5 -91t103.5 -35q38 0 74 6t53 13l17 6q11 -8 5 -25q-66 -31 -158 -31q-90 0 -124.5 44t-20.5 111zM269 475l9 42
q8 3 24 3l24 -3l-9 -42q-9 -3 -25 -3z" />
    <glyph glyph-name="Agrave" unicode="&#xc0;" horiz-adv-x="634" 
d="M516 3l-40 215h-353l-131 -215q-8 -3 -21 -3l-15 3l434 714q5 3 15 3l13 -3l132 -714q-6 -3 -19 -3zM374 631l-232 -381h328l-69 381l-4 38h-2q-7 -14 -21 -38zM438 757l-94 147q15 17 36 17l85 -150q-9 -13 -27 -14z" />
    <glyph glyph-name="Aacute" unicode="&#xc1;" horiz-adv-x="634" 
d="M516 3l-40 215h-353l-131 -215q-6 -3 -21 -3l-15 3l434 714q5 3 15 3l13 -3l132 -714q-6 -3 -19 -3zM374 631l-232 -381h328l-69 381l-4 38h-2q-7 -14 -21 -38zM550 905l-156 -147q-18 1 -21 14l149 150q22 0 28 -17z" />
    <glyph glyph-name="Acircumflex" unicode="&#xc2;" horiz-adv-x="634" 
d="M516 3l-40 215h-353l-131 -215q-8 -3 -21 -3l-15 3l434 714q5 3 15 3l13 -3l132 -714q-6 -3 -19 -3zM374 631l-232 -381h328l-69 381l-4 38h-2q-7 -14 -21 -38zM429 893h26l101 -101q-7 -18 -18 -20l-102 90l-138 -91q-15 7 -15 21z" />
    <glyph glyph-name="Atilde" unicode="&#xc3;" horiz-adv-x="634" 
d="M516 3l-40 215h-353l-131 -215q-6 -3 -21 -3l-15 3l434 714q5 3 15 3l13 -3l132 -714q-6 -3 -19 -3zM374 631l-232 -381h328l-69 381l-4 38h-2q-7 -14 -21 -38zM478 799q12 0 23.5 7.5t16.5 14.5l5 7q18 2 24 -11q-20 -47 -75 -47q-23 0 -55 18t-50 18q-12 0 -23.5 -7.5
t-16.5 -14.5l-5 -8q-17 -2 -24 15q3 5 8.5 12.5t25.5 19.5t44 12q23 0 53.5 -18t48.5 -18z" />
    <glyph glyph-name="Adieresis" unicode="&#xc4;" horiz-adv-x="634" 
d="M516 3l-40 215h-353l-131 -215q-6 -3 -21 -3l-15 3l434 714q5 3 15 3l13 -3l132 -714q-6 -3 -19 -3zM374 631l-232 -381h328l-69 381l-4 38h-2q-7 -14 -21 -38zM378 815l-9 -42q-8 -3 -24 -3l-24 3l9 42q9 3 25 3zM519 815l-9 -42q-8 -3 -24 -3l-24 3l9 42q9 3 25 3z" />
    <glyph glyph-name="Aring" unicode="&#xc5;" horiz-adv-x="634" 
d="M422 696l128 -693q-6 -3 -19 -3l-15 3l-40 215h-353l-131 -215q-8 -3 -21 -3l-15 3l422 694q-38 7 -56.5 34t-11.5 70q9 49 46.5 76.5t83.5 27.5t75 -27.5t20 -76.5q-8 -44 -39.5 -72t-73.5 -33zM437 876q-38 0 -63 -22t-32 -53q-7 -32 9 -54.5t54 -22.5q39 0 65 23
t33 54t-10 53t-56 22zM142 250h328l-69 381l-4 38h-2q-7 -14 -21 -38z" />
    <glyph glyph-name="AE" unicode="&#xc6;" horiz-adv-x="846" 
d="M-11 3q-9 -3 -20 -3q-13 0 -18 3l585 717h335q6 -16 -7 -32h-294l-65 -307h244q5 -17 -7 -32h-244l-67 -317h304q5 -16 -7 -32h-338l46 205h-282zM179 237h263l93 435z" />
    <glyph glyph-name="Ccedilla" unicode="&#xc7;" horiz-adv-x="552" 
d="M425 730q48 0 88 -8t55 -16l16 -8q1 -7 -5 -15l-12 -12q-52 28 -143 28q-231 0 -304 -340q-18 -98 -18 -163t24.5 -103.5t61.5 -54.5t92 -16q44 0 85.5 7t60.5 14l20 7q5 -2 7 -11l-1 -16q-66 -33 -183 -33l-15 -40q56 0 78.5 -25t13.5 -67q-19 -89 -130 -89
q-22 0 -42.5 5.5t-29.5 11.5l-10 6q4 14 15 22q30 -18 74 -18q78 0 92 67q7 29 -8.5 44t-51.5 15h-31l-5 8l23 61q-232 18 -157 374q40 185 123.5 275t216.5 90z" />
    <glyph glyph-name="Egrave" unicode="&#xc8;" horiz-adv-x="555" 
d="M43 0l153 720h385q1 -6 0 -16q-3 -11 -7 -16h-351l-65 -307h301q1 -6 0 -15q-3 -10 -7 -16h-301l-67 -318h361q1 -7 0 -15q-3 -10 -7 -17h-395zM409 757l-94 147q15 17 36 17l85 -150q-9 -13 -27 -14z" />
    <glyph glyph-name="Eacute" unicode="&#xc9;" horiz-adv-x="555" 
d="M43 0l153 720h385q1 -6 0 -16q-3 -11 -7 -16h-351l-65 -307h301q1 -6 0 -15q-3 -10 -7 -16h-301l-67 -318h361q1 -7 0 -15q-3 -10 -7 -17h-395zM500 906l-157 -147q-16 1 -21 14l149 150q21 0 29 -17z" />
    <glyph glyph-name="Ecircumflex" unicode="&#xca;" horiz-adv-x="555" 
d="M43 0l153 720h385q1 -6 0 -16q-3 -11 -7 -16h-351l-65 -307h301q1 -6 0 -15q-3 -10 -7 -16h-301l-67 -318h361q1 -7 0 -15q-3 -10 -7 -17h-395zM408 893h26l101 -101q-7 -18 -17 -20l-102 90l-138 -91q-16 7 -16 21z" />
    <glyph glyph-name="Edieresis" unicode="&#xcb;" horiz-adv-x="555" 
d="M43 0l153 720h385q1 -6 0 -16q-3 -11 -7 -16h-351l-65 -307h301q1 -6 0 -15q-3 -10 -7 -16h-301l-67 -318h361q1 -7 0 -15q-3 -10 -7 -17h-395zM363 820l-9 -42q-8 -3 -24 -3l-24 3l9 42q9 3 25 3zM504 820l-9 -42q-8 -3 -24 -3l-24 3l9 42q9 3 25 3z" />
    <glyph glyph-name="Igrave" unicode="&#xcc;" horiz-adv-x="250" 
d="M44 3l151 714q6 3 18 3l16 -3l-151 -714q-6 -3 -18 -3zM252 757l-94 147q15 17 36 17l85 -150q-9 -13 -27 -14z" />
    <glyph glyph-name="Iacute" unicode="&#xcd;" horiz-adv-x="250" 
d="M44 3l151 714q6 3 18 3l16 -3l-151 -714q-6 -3 -18 -3zM333 906l-157 -147q-16 1 -21 14l149 150q21 0 29 -17z" />
    <glyph glyph-name="Icircumflex" unicode="&#xce;" horiz-adv-x="250" 
d="M44 3l151 714q6 3 18 3l16 -3l-151 -714q-6 -3 -18 -3zM237 893h26l101 -101q-7 -17 -19 -20l-100 90l-141 -91q-13 6 -13 21z" />
    <glyph glyph-name="Idieresis" unicode="&#xcf;" horiz-adv-x="250" 
d="M44 3l151 714q6 3 18 3l16 -3l-151 -714q-6 -3 -18 -3zM187 815l-9 -42q-8 -3 -24 -3l-24 3l9 42q9 3 25 3zM328 815l-9 -42q-8 -3 -24 -3l-24 3l9 42q9 3 25 3z" />
    <glyph glyph-name="Eth" unicode="&#xd0;" horiz-adv-x="664" 
d="M201 720h183q60 0 102.5 -10.5t73.5 -36t45.5 -66.5t13.5 -102.5t-19 -144.5q-43 -203 -125.5 -281.5t-231.5 -78.5h-195l73 342h-87q-2 5 0 15l6 15h87zM240 32q133 0 209 70.5t115 257.5q17 78 18 135t-10.5 94t-39 59t-64.5 31t-89 9h-151l-67 -316h174q2 -5 0 -15
l-6 -15h-174l-66 -310h151z" />
    <glyph glyph-name="Ntilde" unicode="&#xd1;" horiz-adv-x="694" 
d="M515 799q12 0 23.5 7.5t16.5 14.5l5 7q18 2 24 -11q-2 -5 -6.5 -12.5t-22.5 -20.5t-41 -13q-25 0 -58.5 17.5t-51.5 17.5q-12 0 -23.5 -7.5t-16.5 -14.5l-5 -8q-19 -2 -24 11q2 5 6.5 13t22.5 21.5t41 13.5q25 0 58.5 -18t51.5 -18zM486 3l-238 588l-29 84h-2
q-4 -36 -24 -130l-116 -542q-6 -3 -18 -3l-15 3l151 714q8 3 21 3l16 -3l236 -580q9 -21 16.5 -43.5l11.5 -34.5l3 -12h2q6 48 21 120l118 550q6 3 18 3l15 -3l-151 -714q-7 -3 -20 -3z" />
    <glyph glyph-name="Ograve" unicode="&#xd2;" horiz-adv-x="677" 
d="M481 757l-94 147q15 17 36 17l85 -150q-9 -13 -27 -14zM275 -10q-266 0 -190 370q77 370 341 370q266 0 189 -370q-76 -370 -340 -370zM426 700q-229 0 -305 -340q-75 -340 157 -340q226 0 301 340q76 340 -153 340z" />
    <glyph glyph-name="Oacute" unicode="&#xd3;" horiz-adv-x="677" 
d="M602 906l-157 -147q-16 1 -21 14l149 150q21 0 29 -17zM275 -10q-266 0 -190 370q77 370 341 370q266 0 189 -370q-76 -370 -340 -370zM426 700q-229 0 -305 -340q-75 -340 157 -340q226 0 301 340q76 340 -153 340z" />
    <glyph glyph-name="Ocircumflex" unicode="&#xd4;" horiz-adv-x="677" 
d="M453 893h26l101 -101q-7 -17 -20 -20l-100 90l-140 -91q-13 6 -13 21zM275 -10q-266 0 -190 370q77 370 341 370q266 0 189 -370q-76 -370 -340 -370zM426 700q-229 0 -305 -340q-75 -340 157 -340q226 0 301 340q76 340 -153 340z" />
    <glyph glyph-name="Otilde" unicode="&#xd5;" horiz-adv-x="677" 
d="M509 809q12 0 23.5 7.5t16.5 14.5l5 7q18 2 24 -11q-2 -5 -6.5 -13t-22.5 -21t-41 -13q-25 0 -58.5 18t-51.5 18q-12 0 -23.5 -7.5t-16.5 -14.5l-5 -8q-19 -2 -24 11q2 5 6.5 13t22.5 21.5t41 13.5q25 0 58.5 -18t51.5 -18zM275 -10q-266 0 -190 370q77 370 341 370
q266 0 189 -370q-76 -370 -340 -370zM426 700q-229 0 -305 -340q-75 -340 157 -340q226 0 301 340q76 340 -153 340z" />
    <glyph glyph-name="Odieresis" unicode="&#xd6;" horiz-adv-x="677" 
d="M399 825l-9 -42q-8 -3 -24 -3l-24 3l9 42q9 3 25 3zM540 825l-9 -42q-8 -3 -24 -3l-24 3l9 42q9 3 25 3zM275 -10q-266 0 -190 370q77 370 341 370q266 0 189 -370q-76 -370 -340 -370zM426 700q-229 0 -305 -340q-75 -340 157 -340q226 0 301 340q76 340 -153 340z" />
    <glyph glyph-name="multiply" unicode="&#xd7;" horiz-adv-x="451" 
d="M307 149l-91 115l-139 -115q-7 3 -12 11l-8 14l139 115l-90 115q4 7 14 14l16 10l91 -114l139 114q7 -2 12 -10l7 -14l-139 -115l90 -115q-4 -7 -13 -14z" />
    <glyph glyph-name="Oslash" unicode="&#xd8;" horiz-adv-x="677" 
d="M676 763l-82 -107q63 -91 21 -296q-76 -370 -340 -370q-99 0 -151 53l-67 -87q-7 -3 -20 -3l-17 3l85 111q-61 92 -20 293q77 370 341 370q97 0 148 -50l64 83q8 4 20 4zM426 700q-229 0 -305 -340q-39 -180 7 -263l426 556q-43 47 -128 47zM278 20q226 0 301 340
q42 183 -7 268l-427 -557q44 -51 133 -51z" />
    <glyph glyph-name="Ugrave" unicode="&#xd9;" horiz-adv-x="665" 
d="M651 717l-105 -495q-24 -111 -96.5 -171.5t-176.5 -60.5q-106 0 -158.5 61.5t-29.5 170.5l105 495q7 3 18 3l16 -3l-106 -499q-19 -94 22 -146t134 -52t156 52t82 146l106 499q7 3 17 3zM449 757l-94 147q14 16 33 16l85 -150q-9 -12 -24 -13z" />
    <glyph glyph-name="Uacute" unicode="&#xda;" horiz-adv-x="665" 
d="M651 717l-105 -495q-24 -111 -96.5 -171.5t-176.5 -60.5q-106 0 -158.5 61.5t-29.5 170.5l105 495q7 3 18 3l16 -3l-106 -499q-19 -94 22 -146t134 -52t156 52t82 146l106 499q7 3 17 3zM550 906l-157 -147q-16 1 -21 14l149 150q21 0 29 -17z" />
    <glyph glyph-name="Ucircumflex" unicode="&#xdb;" horiz-adv-x="665" 
d="M651 717l-105 -495q-24 -111 -96.5 -171.5t-177.5 -60.5q-106 0 -158 61.5t-29 170.5l105 495q7 3 18 3l16 -3l-106 -499q-19 -94 22 -146t134 -52t156 52t82 146l106 499q7 3 17 3zM447 893h26l101 -101q-7 -18 -17 -20l-101 91l-139 -92q-16 7 -16 21z" />
    <glyph glyph-name="Udieresis" unicode="&#xdc;" horiz-adv-x="665" 
d="M651 717l-105 -495q-24 -111 -96.5 -171.5t-177.5 -60.5q-106 0 -158 61.5t-29 170.5l105 495q7 3 18 3l16 -3l-106 -499q-19 -94 22 -146t134 -52t156 52t82 146l106 499q7 3 17 3zM392 835l-9 -42q-9 -3 -25 -3l-23 3l9 42q9 3 25 3zM533 835l-9 -42q-9 -3 -25 -3
l-23 3l9 42q9 3 25 3z" />
    <glyph glyph-name="Yacute" unicode="&#xdd;" horiz-adv-x="606" 
d="M111 717q8 3 22 3l17 -3l158 -375l324 375q6 3 22 3l20 -3l-355 -412l-64 -302q-7 -3 -18 -3l-16 3l64 301zM510 892l-157 -147q-16 1 -21 14l149 150q21 0 29 -17z" />
    <glyph glyph-name="Thorn" unicode="&#xde;" horiz-adv-x="600" 
d="M327 172h-213l-36 -169q-5 -3 -18 -3l-16 3l151 714q5 3 18 3l16 -3l-31 -146h203q91 0 133 -57t23 -148t-79 -142.5t-151 -51.5zM192 539l-72 -335h209q75 0 125.5 44t67.5 122q17 80 -14.5 124.5t-106.5 44.5h-209z" />
    <glyph glyph-name="germandbls" unicode="&#xdf;" horiz-adv-x="569" 
d="M28 3l117 553q41 194 236 194q89 0 123 -50t19 -120q-5 -25 -15.5 -49t-17.5 -35l-8 -12q-5 0 -14 -1t-32 -7t-42 -16t-37 -31t-24 -49q-6 -26 5 -46.5t31 -32t43.5 -27.5t42.5 -32t27.5 -46t0.5 -69q-13 -63 -61.5 -100t-124.5 -37q-31 0 -55 4t-32 8l-9 5q4 18 15 25
q32 -12 82 -12q66 0 103.5 31.5t47.5 78.5q7 35 -2.5 61t-29 40.5t-42.5 30t-42.5 29t-29 38t-2.5 56.5q7 34 26.5 59t42 37.5t44 19.5t36.5 9l14 1q16 30 24 69q13 60 -13.5 100t-100.5 40q-162 0 -197 -164l-117 -553q-5 -3 -17 -3z" />
    <glyph glyph-name="agrave" unicode="&#xe0;" 
d="M308 768l85 -150q-7 -12 -24 -13l-93 147q14 16 32 16zM459 436l23 90q2 3 14 3l14 -3l-111 -523q-5 -3 -14 -3l-12 3l13 87q-69 -100 -189 -100q-197 0 -139 273q31 147 94.5 210t160.5 63q57 0 96 -27.5t50 -72.5zM436 326q16 67 -15.5 123.5t-101.5 56.5
q-92 0 -145 -57t-82 -186q-29 -128 -1.5 -185.5t116.5 -57.5q74 0 129 55.5t71 124.5z" />
    <glyph glyph-name="aacute" unicode="&#xe1;" 
d="M449 753l-156 -147q-18 1 -21 14l149 150q20 0 28 -17zM459 436l23 90q2 3 14 3l14 -3l-111 -523q-5 -3 -14 -3l-12 3l13 87q-69 -100 -189 -100q-197 0 -139 273q31 147 94.5 210t160.5 63q57 0 96 -27.5t50 -72.5zM436 326q16 67 -15.5 123.5t-101.5 56.5
q-92 0 -145 -57t-82 -186q-29 -128 -1.5 -185.5t116.5 -57.5q74 0 129 55.5t71 124.5z" />
    <glyph glyph-name="acircumflex" unicode="&#xe2;" 
d="M358 721h25l98 -99q-8 -17 -17 -19l-97 88l-138 -89q-15 7 -15 20zM459 436l23 90q2 3 14 3l14 -3l-111 -523q-5 -3 -14 -3l-12 3l13 87q-69 -100 -189 -100q-197 0 -139 273q31 147 94.5 210t160.5 63q57 0 96 -27.5t50 -72.5zM436 326q16 67 -15.5 123.5t-101.5 56.5
q-92 0 -145 -57t-82 -186q-29 -128 -1.5 -185.5t116.5 -57.5q74 0 129 55.5t71 124.5z" />
    <glyph glyph-name="atilde" unicode="&#xe3;" 
d="M421 668q12 0 23.5 7t16.5 15l5 7q18 2 24 -11q-2 -5 -7 -12.5t-23.5 -20.5t-41.5 -13q-25 0 -57.5 17.5t-50.5 17.5q-12 0 -23.5 -7.5t-16.5 -15.5l-5 -7q-19 -2 -24 11l2.5 5t8 11.5t13.5 15t20 11.5t27 5q25 0 58 -18t51 -18zM459 436l23 90q2 3 14 3l14 -3l-111 -523
q-5 -3 -14 -3l-12 3l13 87q-69 -100 -189 -100q-197 0 -139 273q31 147 94.5 210t160.5 63q57 0 96 -27.5t50 -72.5zM436 326q16 67 -15.5 123.5t-101.5 56.5q-92 0 -145 -57t-82 -186q-29 -128 -1.5 -185.5t116.5 -57.5q74 0 129 55.5t71 124.5z" />
    <glyph glyph-name="adieresis" unicode="&#xe4;" 
d="M312 681l-9 -42q-9 -3 -25 -3l-23 3l9 42q8 3 24 3zM453 681l-9 -42q-9 -3 -25 -3l-23 3l9 42q8 3 24 3zM459 436l23 90q2 3 14 3l14 -3l-111 -523q-5 -3 -14 -3l-12 3l13 87q-69 -100 -189 -100q-197 0 -139 273q31 147 94.5 210t160.5 63q57 0 96 -27.5t50 -72.5z
M436 326q16 67 -15.5 123.5t-101.5 56.5q-92 0 -145 -57t-82 -186q-29 -128 -1.5 -185.5t116.5 -57.5q74 0 129 55.5t71 124.5z" />
    <glyph glyph-name="aring" unicode="&#xe5;" 
d="M337 590q-49 0 -74.5 28t-15.5 78q9 48 47.5 76t84.5 28t74.5 -27.5t18.5 -76.5t-48.5 -77.5t-86.5 -28.5zM440 696q7 31 -9.5 53t-55.5 22q-38 0 -63.5 -22t-32.5 -53q-7 -32 8.5 -54.5t53.5 -22.5q39 0 65.5 23t33.5 54zM459 436l23 90q2 3 14 3l14 -3l-111 -523
q-5 -3 -14 -3l-12 3l13 87q-69 -100 -189 -100q-197 0 -139 273q31 147 94.5 210t160.5 63q57 0 96 -27.5t50 -72.5zM436 326q16 67 -15.5 123.5t-101.5 56.5q-92 0 -145 -57t-82 -186q-29 -128 -1.5 -185.5t116.5 -57.5q74 0 129 55.5t71 124.5z" />
    <glyph glyph-name="ae" unicode="&#xe6;" horiz-adv-x="804" 
d="M634 536q81 0 111.5 -50.5t13.5 -133.5q-5 -24 -12.5 -46.5t-12.5 -33.5l-6 -11h-303q-21 -122 4 -180.5t100 -58.5q35 0 66 10t45 20l14 9q14 -8 12 -25q-6 -5 -18 -12.5t-50.5 -20.5t-79.5 -13q-109 0 -127 108l-20 -95q-5 -3 -14 -3l-12 3l16 85q-32 -49 -72.5 -73.5
t-102.5 -24.5q-186 0 -128 273t244 273q61 0 90 -25t42 -76l20 91q2 3 14 3l14 -3l-21 -96q70 106 173 106zM383 200l27 126q8 29 5.5 60.5t-12 58t-35.5 44t-64 17.5q-81 0 -133 -58.5t-79 -184.5q-27 -127 0 -185t108 -58q73 0 120.5 54t62.5 126zM432 291h275q9 19 19 66
q14 65 -8.5 107t-89.5 42q-66 0 -118 -52t-78 -163z" />
    <glyph glyph-name="ccedilla" unicode="&#xe7;" horiz-adv-x="442" 
d="M58 272q27 131 95 197.5t168 66.5q34 0 61.5 -6t38.5 -12l11 -5q-3 -19 -18 -28q-33 20 -93 20q-179 0 -231 -242q-51 -241 133 -241q28 0 55 6t40 12l13 6q10 -7 8 -27q-50 -29 -130 -29h-8l-18 -44q53 0 76.5 -25.5t14.5 -67.5q-19 -92 -129 -92q-22 0 -42.5 5.5
t-30.5 11.5l-9 6q4 14 15 22q30 -18 74 -18q77 0 92 70q7 29 -9 44.5t-51 15.5h-31l-5 8l26 67q-80 12 -110.5 84t-5.5 195z" />
    <glyph glyph-name="egrave" unicode="&#xe8;" horiz-adv-x="506" 
d="M357 602l-92 144q14 16 35 16l84 -147q-9 -11 -27 -13zM426 252h-339q-22 -121 9.5 -175t119.5 -54q37 0 71 10t50 20l16 10q14 -9 12 -28q-7 -5 -19 -12.5t-54 -20t-88 -12.5q-99 0 -138 71t-11 205q30 137 97 203.5t161 66.5q87 0 124.5 -51.5t20.5 -132.5
q-6 -27 -14 -52t-13 -36zM427 357q14 65 -13 107t-102 42q-79 0 -135.5 -55.5t-83.5 -168.5h312q12 28 22 75z" />
    <glyph glyph-name="eacute" unicode="&#xe9;" horiz-adv-x="506" 
d="M437 746l-153 -144q-17 2 -20 13l145 147q21 0 28 -16zM426 252h-339q-22 -121 9.5 -175t119.5 -54q37 0 71 10t50 20l16 10q14 -9 12 -28q-7 -5 -19 -12.5t-54 -20t-88 -12.5q-99 0 -138 71t-11 205q30 137 97 203.5t161 66.5q87 0 124.5 -51.5t20.5 -132.5
q-6 -27 -14 -52t-13 -36zM427 357q14 65 -13 107t-102 42q-79 0 -135.5 -55.5t-83.5 -168.5h312q12 28 22 75z" />
    <glyph glyph-name="ecircumflex" unicode="&#xea;" horiz-adv-x="506" 
d="M344 721h25l100 -99q-7 -16 -17 -18l-99 88l-136 -89q-15 7 -15 19zM426 252h-339q-22 -121 9.5 -175t119.5 -54q37 0 71 10t50 20l16 10q14 -9 12 -28q-7 -5 -19 -12.5t-54 -20t-88 -12.5q-99 0 -138 71t-11 205q30 137 97 203.5t161 66.5q87 0 124.5 -51.5t20.5 -132.5
q-6 -27 -14 -52t-13 -36zM427 357q14 65 -13 107t-102 42q-79 0 -135.5 -55.5t-83.5 -168.5h312q12 28 22 75z" />
    <glyph glyph-name="edieresis" unicode="&#xeb;" horiz-adv-x="506" 
d="M295 677l-8 -42q-9 -3 -25 -3l-23 3l8 42q9 3 25 3zM436 677l-8 -42q-9 -3 -25 -3l-23 3l8 42q9 3 25 3zM426 252h-339q-22 -121 9.5 -175t119.5 -54q37 0 71 10t50 20l16 10q14 -9 12 -28q-7 -5 -19 -12.5t-54 -20t-88 -12.5q-99 0 -138 71t-11 205q30 137 97 203.5
t161 66.5q87 0 124.5 -51.5t20.5 -132.5q-6 -27 -14 -52t-13 -36zM427 357q14 65 -13 107t-102 42q-79 0 -135.5 -55.5t-83.5 -168.5h312q12 28 22 75z" />
    <glyph glyph-name="igrave" unicode="&#xec;" horiz-adv-x="222" 
d="M173 523l-110 -520q-5 -3 -17 -3l-15 3l110 520q5 3 17 3zM201 612l-94 147q14 16 32 16l85 -150q-9 -12 -23 -13z" />
    <glyph glyph-name="iacute" unicode="&#xed;" horiz-adv-x="222" 
d="M173 523l-110 -520q-5 -3 -17 -3l-15 3l110 520q5 3 17 3zM297 757l-156 -147q-18 1 -21 14l148 150q21 0 29 -17z" />
    <glyph glyph-name="icircumflex" unicode="&#xee;" horiz-adv-x="222" 
d="M173 523l-110 -520q-5 -3 -17 -3l-15 3l110 520q5 3 17 3zM188 721h25l102 -99q-7 -16 -20 -19l-99 88l-136 -89q-14 6 -14 20z" />
    <glyph glyph-name="idieresis" unicode="&#xef;" horiz-adv-x="222" 
d="M173 523l-110 -520q-5 -3 -17 -3l-15 3l110 520q5 3 17 3zM134 647l-8 -42q-9 -3 -25 -3l-23 3l8 42q9 3 25 3zM275 647l-8 -42q-9 -3 -25 -3l-23 3l8 42q9 3 25 3z" />
    <glyph glyph-name="eth" unicode="&#xf0;" 
d="M488 702l-72 -40q116 -121 66 -355q-37 -174 -103 -245.5t-171 -71.5q-99 0 -141 63.5t-13 198.5q55 262 246 262q69 0 113.5 -31t51.5 -85q4 86 -15.5 143t-64.5 103l-133 -74q-14 8 -12 26l123 68q-53 43 -131 59q0 17 12 27q89 -18 150 -68l83 46q14 -8 11 -26z
M209 19q173 0 223 233q27 126 -9.5 179t-122.5 53q-80 0 -132.5 -53t-79.5 -179q-27 -125 6.5 -179t114.5 -54z" />
    <glyph glyph-name="ntilde" unicode="&#xf1;" horiz-adv-x="550" 
d="M406 630q12 0 23.5 7t16.5 15l5 7q18 2 24 -11q-2 -5 -6.5 -12.5t-22.5 -20.5t-41 -13q-25 0 -58.5 17.5t-51.5 17.5q-12 0 -23.5 -7.5t-16.5 -15.5l-5 -7q-19 -2 -24 11q2 5 7 13t23 21t41 13q25 0 58 -17.5t51 -17.5zM479 388l-81 -385q-6 -3 -17 -3l-15 3l80 377
q13 66 -11.5 96.5t-87.5 30.5q-54 0 -112.5 -35.5t-95.5 -95.5l-79 -373q-6 -3 -17 -3l-15 3l110 520q6 3 17 3l15 -3l-19 -88q88 101 206 101q71 0 104 -40.5t18 -107.5z" />
    <glyph glyph-name="ograve" unicode="&#xf2;" horiz-adv-x="537" 
d="M336 614l-102 137q13 19 33 19l94 -140q-7 -13 -25 -16zM207 -10q-100 0 -139 64.5t-11 208.5t92 208.5t164 64.5t139 -64.5t11 -208.5t-92 -208.5t-164 -64.5zM312 506q-83 0 -138 -55t-83 -188q-29 -133 2.5 -188t114.5 -55t137.5 55t83.5 188q28 133 -3 188t-114 55z
" />
    <glyph glyph-name="oacute" unicode="&#xf3;" horiz-adv-x="537" 
d="M437 757l-156 -147q-18 1 -21 14l148 150q21 0 29 -17zM207 -10q-100 0 -139 64.5t-11 208.5t92 208.5t164 64.5t139 -64.5t11 -208.5t-92 -208.5t-164 -64.5zM312 506q-83 0 -138 -55t-83 -188q-29 -133 2.5 -188t114.5 -55t137.5 55t83.5 188q28 133 -3 188t-114 55z
" />
    <glyph glyph-name="ocircumflex" unicode="&#xf4;" horiz-adv-x="537" 
d="M344 721h25l100 -99q-8 -17 -17 -19l-99 88l-136 -89q-15 7 -15 20zM207 -10q-100 0 -139 64.5t-11 208.5t92 208.5t164 64.5t139 -64.5t11 -208.5t-92 -208.5t-164 -64.5zM312 506q-83 0 -138 -55t-83 -188q-29 -133 2.5 -188t114.5 -55t137.5 55t83.5 188
q28 133 -3 188t-114 55z" />
    <glyph glyph-name="otilde" unicode="&#xf5;" horiz-adv-x="537" 
d="M395 654q12 0 23.5 7t16.5 15l5 7q18 2 24 -11q-2 -5 -7 -13t-23.5 -21t-41.5 -13q-25 0 -57.5 18t-50.5 18q-12 0 -23.5 -7.5t-16.5 -15.5l-5 -7q-19 -2 -24 11q2 5 7.5 13t24 21.5t41.5 13.5q25 0 57 -18t50 -18zM207 -10q-100 0 -139 64.5t-11 208.5t92 208.5
t164 64.5t139 -64.5t11 -208.5t-92 -208.5t-164 -64.5zM312 506q-83 0 -138 -55t-83 -188q-29 -133 2.5 -188t114.5 -55t137.5 55t83.5 188q28 133 -3 188t-114 55z" />
    <glyph glyph-name="odieresis" unicode="&#xf6;" horiz-adv-x="537" 
d="M296 677l-8 -42q-9 -3 -25 -3l-23 3l8 42q9 3 25 3zM437 677l-8 -42q-9 -3 -25 -3l-23 3l8 42q9 3 25 3zM207 -10q-100 0 -139 64.5t-11 208.5t92 208.5t164 64.5t139 -64.5t11 -208.5t-92 -208.5t-164 -64.5zM312 506q-83 0 -138 -55t-83 -188q-29 -133 2.5 -188
t114.5 -55t137.5 55t83.5 188q28 133 -3 188t-114 55z" />
    <glyph glyph-name="divide" unicode="&#xf7;" horiz-adv-x="563" 
d="M464 275h-381q-2 4 1 15l6 15h381q2 -4 0 -15zM272 150l-9 -42q-9 -3 -25 -3l-23 3l9 42q8 3 24 3zM340 472l-9 -42q-8 -3 -24 -3l-24 3l9 42q9 3 25 3z" />
    <glyph glyph-name="oslash" unicode="&#xf8;" horiz-adv-x="535" 
d="M509 568l-65 -85q48 -67 18 -220q-28 -144 -92 -208.5t-164 -64.5q-74 0 -114 34l-52 -67q-5 -3 -20 -3l-16 3l68 89q-45 67 -16 217q28 144 92 208.5t164 64.5q71 0 112 -32l49 64q5 3 20 3zM311 507q-83 0 -138 -55.5t-83 -188.5q-29 -130 3 -190l311 406
q-31 28 -93 28zM207 19q83 0 137.5 55.5t83.5 188.5q28 133 -5 193l-312 -406q32 -31 96 -31z" />
    <glyph glyph-name="ugrave" unicode="&#xf9;" horiz-adv-x="551" 
d="M360 617l-86 134q12 16 32 16l79 -137q-10 -12 -25 -13zM53 143l82 380q6 3 17 3l15 -3l-80 -377q-28 -128 101 -128q53 0 110 35.5t96 96.5l79 373q6 3 17 3l15 -3l-110 -520q-6 -3 -17 -3l-15 3l18 88q-90 -101 -200 -101q-72 0 -107.5 41t-20.5 112z" />
    <glyph glyph-name="uacute" unicode="&#xfa;" horiz-adv-x="551" 
d="M452 757l-156 -147q-18 1 -21 14l148 150q21 0 29 -17zM53 143l82 380q6 3 17 3l15 -3l-80 -377q-28 -128 101 -128q53 0 110 35.5t96 96.5l79 373q6 3 17 3l15 -3l-110 -520q-6 -3 -17 -3l-15 3l18 88q-90 -101 -200 -101q-72 0 -107.5 41t-20.5 112z" />
    <glyph glyph-name="ucircumflex" unicode="&#xfb;" horiz-adv-x="551" 
d="M349 721h25l100 -99q-7 -16 -20 -19l-96 88l-139 -89q-12 5 -12 20zM53 143l82 380q6 3 17 3l15 -3l-80 -377q-28 -128 101 -128q53 0 110 35.5t96 96.5l79 373q6 3 17 3l15 -3l-110 -520q-6 -3 -17 -3l-15 3l18 88q-90 -101 -200 -101q-72 0 -107.5 41t-20.5 112z" />
    <glyph glyph-name="udieresis" unicode="&#xfc;" horiz-adv-x="551" 
d="M298 677l-8 -42q-9 -3 -25 -3l-23 3l8 42q9 3 25 3zM439 677l-8 -42q-9 -3 -25 -3l-23 3l8 42q9 3 25 3zM53 143l82 380q6 3 17 3l15 -3l-80 -377q-28 -128 101 -128q53 0 110 35.5t96 96.5l79 373q6 3 17 3l15 -3l-110 -520q-6 -3 -17 -3l-15 3l18 88
q-90 -101 -200 -101q-72 0 -107.5 41t-20.5 112z" />
    <glyph glyph-name="yacute" unicode="&#xfd;" horiz-adv-x="549" 
d="M466 747l-157 -147q-16 1 -21 14l149 150q21 0 29 -17zM472 523q6 3 17 3l15 -3l-111 -520q-30 -129 -92 -191t-173 -62q-35 0 -65.5 6t-42.5 12l-13 6q2 19 17 27q47 -19 111 -19q89 0 145 49t82 173l18 87q-90 -101 -203 -101q-71 0 -105 40.5t-20 107.5l82 385
q6 3 17 3l15 -3l-80 -377q-27 -127 102 -127q53 0 109.5 35t95.5 96z" />
    <glyph glyph-name="thorn" unicode="&#xfe;" 
d="M77 87l-71 -334q-4 -3 -16 -3l-16 3l212 994q4 3 16 3l16 -3l-66 -308q71 97 183 97q97 0 136 -63.5t8 -209.5q-31 -147 -92.5 -210t-157.5 -63q-122 0 -152 97zM101 200q-14 -69 16.5 -124.5t104.5 -55.5q92 0 144 57t79 186q28 128 0.5 185.5t-119.5 57.5
q-73 0 -126.5 -53.5t-69.5 -120.5z" />
    <glyph glyph-name="ydieresis" unicode="&#xff;" horiz-adv-x="549" 
d="M308 686l-9 -42q-9 -3 -25 -3l-23 3l9 42q8 3 24 3zM449 686l-9 -42q-9 -3 -25 -3l-23 3l9 42q8 3 24 3zM472 523q6 3 17 3l15 -3l-111 -520q-30 -129 -92 -191t-173 -62q-35 0 -65.5 6t-42.5 12l-13 6q2 19 17 27q47 -19 111 -19q89 0 145 49t82 173l18 87
q-90 -101 -203 -101q-71 0 -105 40.5t-20 107.5l82 385q6 3 17 3l15 -3l-80 -377q-27 -127 102 -127q53 0 109.5 35t95.5 96z" />
    <glyph glyph-name="Amacron" unicode="&#x100;" horiz-adv-x="634" 
d="M516 3l-40 215h-353l-131 -215q-8 -3 -21 -3l-15 3l434 714q5 3 15 3l13 -3l132 -714q-6 -3 -19 -3zM374 631l-232 -381h328l-69 381l-4 38h-2q-7 -14 -21 -38zM550 796h-267q-3 7 0 16q2 9 7 16h267q3 -5 1 -15q-4 -12 -8 -17z" />
    <glyph glyph-name="amacron" unicode="&#x101;" 
d="M454 656h-225q-1 6 0 13q1 9 6 15h225q4 -4 1 -14q-1 -7 -7 -14zM459 436l23 90q2 3 14 3l14 -3l-111 -523q-5 -3 -14 -3l-12 3l13 87q-69 -100 -189 -100q-197 0 -139 273q31 147 94.5 210t160.5 63q57 0 96 -27.5t50 -72.5zM436 326q16 67 -15.5 123.5t-101.5 56.5
q-92 0 -145 -57t-82 -186q-29 -128 -1.5 -185.5t116.5 -57.5q74 0 129 55.5t71 124.5z" />
    <glyph glyph-name="Abreve" unicode="&#x102;" horiz-adv-x="634" 
d="M516 3l-40 215h-353l-131 -215q-8 -3 -21 -3l-15 3l434 714q5 3 15 3l13 -3l132 -714q-6 -3 -19 -3zM374 631l-232 -381h328l-69 381l-4 38h-2q-7 -14 -21 -38zM561 840q-6 -6 -17.5 -14.5t-48.5 -22.5t-76 -14q-25 0 -47 5.5t-36 12.5t-24 14.5t-14 12.5l-5 6
q7 14 22 19q4 -5 12.5 -12t36 -18.5t58.5 -11.5t62 10.5t46 20.5l16 11q15 -4 15 -19z" />
    <glyph glyph-name="abreve" unicode="&#x103;" 
d="M492 688q-6 -6 -16.5 -15t-46 -24t-73.5 -15t-69 13.5t-43 26.5l-12 14q7 14 22 19q4 -5 12 -12t34.5 -19t56.5 -12t60 11t45 21l16 11q15 -4 14 -19zM459 436l23 90q2 3 14 3l14 -3l-111 -523q-5 -3 -14 -3l-12 3l13 87q-69 -100 -189 -100q-197 0 -139 273
q31 147 94.5 210t160.5 63q57 0 96 -27.5t50 -72.5zM436 326q16 67 -15.5 123.5t-101.5 56.5q-92 0 -145 -57t-82 -186q-29 -128 -1.5 -185.5t116.5 -57.5q74 0 129 55.5t71 124.5z" />
    <glyph glyph-name="Aogonek" unicode="&#x104;" horiz-adv-x="634" 
d="M416 -96q-5 -24 6.5 -36.5t36.5 -12.5q11 0 22 2.5t17 4.5l5 3q8 -8 5 -22q-25 -16 -61 -16q-39 0 -55.5 20t-9.5 53q9 42 46 72.5t86 42.5l-38 203h-353l-131 -215q-8 -3 -21 -3l-15 3l434 714q5 3 15 3l13 -3l132 -714q-4 -2 -13 -3q-42 -8 -77.5 -33t-43.5 -63z
M142 250h328l-69 381l-4 38h-2q-7 -14 -21 -38z" />
    <glyph glyph-name="aogonek" unicode="&#x105;" 
d="M328 -145q11 0 22 2.5t16 5.5l6 3q8 -8 5 -22q-25 -17 -61 -17q-39 0 -56 18t-10 50q8 40 43 72.5t81 47.5l11 75q-69 -100 -189 -100q-96 0 -133 63t-6 210t94.5 210t160.5 63q115 0 145 -105l24 95q2 3 14 3l14 -3l-111 -523l-10 -3q-36 -12 -67 -40t-38 -61
q-4 -23 7.5 -33.5t37.5 -10.5zM407 200l27 126q15 69 -15.5 124.5t-104.5 55.5q-92 0 -144 -57t-79 -186q-28 -128 -1 -185.5t118 -57.5q74 0 129.5 55.5t69.5 124.5z" />
    <glyph glyph-name="Cacute" unicode="&#x106;" horiz-adv-x="553" 
d="M269 -10q-132 0 -178 91t-6 279q80 370 341 370q48 0 88 -8t56 -16l15 -8q1 -7 -5 -15l-12 -12q-52 28 -143 28q-112 0 -188 -77t-116 -263q-18 -98 -18 -163t24.5 -103.5t61.5 -54.5t92 -16q44 0 85.5 7t61.5 14l19 7q5 -2 7 -11l-1 -16q-66 -33 -184 -33zM560 906
l-157 -147q-16 1 -21 14l149 150q21 0 29 -17z" />
    <glyph glyph-name="cacute" unicode="&#x107;" horiz-adv-x="442" 
d="M432 757l-154 -147q-18 1 -21 14l148 150q19 0 27 -17zM321 505q-179 0 -231 -242q-51 -241 133 -241q28 0 55 6t40 12l13 6q10 -7 8 -27q-50 -29 -130 -29q-99 0 -139 73t-12 209q27 131 95 197.5t168 66.5q34 0 61.5 -6t38.5 -12l11 -5q-3 -19 -18 -28q-33 20 -93 20z
" />
    <glyph glyph-name="Ccircumflex" unicode="&#x108;" horiz-adv-x="553" 
d="M270 -10q-132 0 -178 91t-6 279q41 188 122 279t219 91q48 0 88 -8t55 -16l16 -8q1 -7 -5 -15l-12 -12q-52 28 -143 28q-112 0 -188 -77t-116 -263q-18 -98 -18 -163t24.5 -103.5t61.5 -54.5t92 -16q44 0 85.5 7t60.5 14l20 7q5 -2 7 -11l-1 -19q-66 -30 -184 -30z
M454 880h26l101 -101q-6 -16 -19 -19l-99 90l-142 -92q-13 5 -13 21z" />
    <glyph glyph-name="ccircumflex" unicode="&#x109;" horiz-adv-x="442" 
d="M342 721h25l100 -99q-7 -15 -17 -17l-99 88l-136 -89q-15 7 -15 18zM321 505q-179 0 -231 -242q-51 -241 133 -241q28 0 55 6t40 12l13 6q10 -7 8 -27q-50 -29 -130 -29q-99 0 -139 73t-12 209q27 131 95 197.5t168 66.5q34 0 61.5 -6t38.5 -12l11 -5q-3 -19 -18 -28
q-33 20 -93 20z" />
    <glyph glyph-name="Cdotaccent" unicode="&#x10a;" horiz-adv-x="553" 
d="M269 -10q-132 0 -178 91t-6 279q80 370 341 370q48 0 88 -8t56 -16l15 -8q1 -7 -5 -15l-12 -12q-52 28 -143 28q-112 0 -188 -77t-116 -263q-18 -98 -18 -163t24.5 -103.5t61.5 -54.5t92 -16q44 0 85.5 7t61.5 14l19 7q5 -2 7 -11l-1 -16q-66 -33 -184 -33zM476 833
l-9 -42q-9 -3 -25 -3l-23 3l9 42q9 3 25 3z" />
    <glyph glyph-name="cdotaccent" unicode="&#x10b;" horiz-adv-x="442" 
d="M366 666l-9 -42q-8 -3 -24 -3l-24 3l9 42q9 3 25 3zM321 505q-179 0 -231 -242q-51 -241 133 -241q28 0 55 6t40 12l13 6q10 -7 8 -27q-50 -29 -130 -29q-99 0 -139 73t-12 209q27 131 95 197.5t168 66.5q34 0 61.5 -6t38.5 -12l11 -5q-3 -19 -18 -28q-33 20 -93 20z" />
    <glyph glyph-name="Ccaron" unicode="&#x10c;" horiz-adv-x="553" 
d="M269 -10q-132 0 -178 91t-6 279q80 370 341 370q48 0 88 -8t56 -16l15 -8q1 -7 -5 -15l-12 -12q-52 28 -143 28q-112 0 -188 -77t-116 -263q-18 -98 -18 -163t24.5 -103.5t61.5 -54.5t92 -16q44 0 85.5 7t61.5 14l19 7q5 -2 7 -11l-1 -16q-66 -33 -184 -33zM446 771h-26
l-103 101q8 17 18 21l101 -91l139 90q15 -4 15 -20z" />
    <glyph glyph-name="ccaron" unicode="&#x10d;" horiz-adv-x="442" 
d="M343 602h-23l-94 93q5 14 17 19l93 -84l127 83q13 -3 13 -18zM321 505q-179 0 -231 -242q-51 -241 133 -241q28 0 55 6t40 12l13 6q10 -7 8 -27q-50 -29 -130 -29q-99 0 -139 73t-12 209q27 131 95 197.5t168 66.5q34 0 61.5 -6t38.5 -12l11 -5q-3 -19 -18 -28
q-33 20 -93 20z" />
    <glyph glyph-name="Dcaron" unicode="&#x10e;" horiz-adv-x="659" 
d="M401 771h-26l-103 101q8 17 19 21l101 -91l139 90q14 -4 14 -20zM374 688h-151l-139 -655h151q133 0 209 70t115 257q17 78 18 135t-10.5 94t-39 59t-64.5 31t-89 9zM238 0h-195l153 720h183q60 0 102.5 -10.5t73.5 -36t45.5 -66.5t13.5 -102.5t-19 -144.5
q-43 -203 -125.5 -281.5t-231.5 -78.5z" />
    <glyph glyph-name="dcaron" unicode="&#x10f;" horiz-adv-x="565" 
d="M599 588q-15 0 -17 11q72 54 88 152q23 5 33 -4q-10 -45 -38 -90t-66 -69zM458 434l66 313q4 3 16 3l16 -3l-158 -744q-5 -3 -14 -3l-12 3l13 88q-68 -101 -184 -101q-202 0 -144 273q31 147 93 210t157 63q60 0 99 -28t52 -74zM434 326q15 69 -16 124.5t-104 55.5
q-91 0 -143.5 -57t-79.5 -186q-27 -128 1.5 -185.5t117.5 -57.5q74 0 128.5 55.5t68.5 124.5z" />
    <glyph glyph-name="Dcroat" unicode="&#x110;" horiz-adv-x="664" 
d="M201 720h183q60 0 102.5 -10.5t73.5 -36t45.5 -66.5t13.5 -102.5t-19 -144.5q-43 -203 -125.5 -281.5t-231.5 -78.5h-195l73 342h-87q-2 5 0 15l6 15h87zM240 32q133 0 209 70.5t115 257.5q17 78 18 135t-10.5 94t-39 59t-64.5 31t-89 9h-151l-67 -316h174q2 -5 0 -15
l-6 -15h-174l-66 -310h151z" />
    <glyph glyph-name="dcroat" unicode="&#x111;" 
d="M537 658h72q2 -3 0 -14l-6 -14h-72l-133 -627q-5 -3 -14 -3l-12 3l13 88q-68 -101 -184 -101q-202 0 -144 273q31 147 93 210t157 63q60 0 99 -28t52 -74l41 196h-136q-2 3 0 14l6 14h136l19 89q4 3 16 3l16 -3zM407 200l27 126q15 69 -16 124.5t-104 55.5
q-91 0 -143.5 -57t-79.5 -186q-27 -128 1.5 -185.5t117.5 -57.5q74 0 128.5 55.5t68.5 124.5z" />
    <glyph glyph-name="Emacron" unicode="&#x112;" horiz-adv-x="555" 
d="M43 0l153 720h385q1 -6 0 -16q-3 -11 -7 -16h-351l-65 -307h301q1 -6 0 -15q-3 -10 -7 -16h-301l-67 -318h361q1 -7 0 -15q-3 -10 -7 -17h-395zM538 796h-267q-3 7 0 16q2 9 7 16h267q3 -5 1 -15q-4 -12 -8 -17z" />
    <glyph glyph-name="emacron" unicode="&#x113;" horiz-adv-x="506" 
d="M457 643h-234q-3 5 -1 14q1 8 7 14h234q3 -4 0 -13q-2 -11 -6 -15zM426 252h-339q-22 -121 9.5 -175t119.5 -54q37 0 71 10t50 20l16 10q14 -9 12 -28q-7 -5 -19 -12.5t-54 -20t-88 -12.5q-99 0 -138 71t-11 205q30 137 97 203.5t161 66.5q87 0 124.5 -51.5t20.5 -132.5
q-6 -27 -14 -52t-13 -36zM427 357q14 65 -13 107t-102 42q-79 0 -135.5 -55.5t-83.5 -168.5h312q12 28 22 75z" />
    <glyph glyph-name="Ebreve" unicode="&#x114;" horiz-adv-x="555" 
d="M43 0l153 720h385q1 -6 0 -16q-3 -11 -7 -16h-351l-65 -307h301q1 -6 0 -15q-3 -10 -7 -16h-301l-67 -318h361q1 -7 0 -15q-3 -10 -7 -17h-395zM549 851q-6 -6 -18 -14.5t-50 -22.5t-77 -14q-40 0 -70.5 13t-41.5 25l-11 13q7 14 22 19q4 -5 12.5 -12t36 -18.5
t58.5 -11.5t62 10.5t46 21.5l16 10q15 -4 15 -19z" />
    <glyph glyph-name="ebreve" unicode="&#x115;" horiz-adv-x="506" 
d="M218 688q7 14 22 19q4 -5 12 -12t34.5 -19t56.5 -12t60 11t45 21l16 11q16 -4 14 -22q-6 -6 -17 -14t-47 -22t-74 -14t-68.5 13.5t-41.5 26.5zM426 252h-339q-22 -121 9.5 -175t119.5 -54q37 0 71 10t50 20l16 10q14 -9 12 -28q-7 -5 -19 -12.5t-54 -20t-88 -12.5
q-99 0 -138 71t-11 205q30 137 97 203.5t161 66.5q87 0 124.5 -51.5t20.5 -132.5q-6 -27 -14 -52t-13 -36zM427 357q14 65 -13 107t-102 42q-79 0 -135.5 -55.5t-83.5 -168.5h312q12 28 22 75z" />
    <glyph glyph-name="Edotaccent" unicode="&#x116;" horiz-adv-x="555" 
d="M43 0l153 720h385q1 -6 0 -16q-3 -11 -7 -16h-351l-65 -307h301q1 -6 0 -15q-3 -10 -7 -16h-301l-67 -318h361q1 -7 0 -15q-3 -10 -7 -17h-395zM440 833l-9 -42q-9 -3 -25 -3l-23 3l9 42q9 3 25 3z" />
    <glyph glyph-name="edotaccent" unicode="&#x117;" horiz-adv-x="506" 
d="M366 676l-9 -42q-8 -3 -24 -3l-24 3l9 42q9 3 25 3zM426 252h-339q-22 -121 9.5 -175t119.5 -54q37 0 71 10t50 20l16 10q14 -9 12 -28q-7 -5 -19 -12.5t-54 -20t-88 -12.5q-99 0 -138 71t-11 205q30 137 97 203.5t161 66.5q87 0 124.5 -51.5t20.5 -132.5q-6 -27 -14 -52
t-13 -36zM427 357q14 65 -13 107t-102 42q-79 0 -135.5 -55.5t-83.5 -168.5h312q12 28 22 75z" />
    <glyph glyph-name="Eogonek" unicode="&#x118;" horiz-adv-x="555" 
d="M196 720h385q1 -6 0 -16q-3 -11 -7 -16h-351l-65 -307h301q1 -6 0 -15q-3 -10 -7 -16h-301l-67 -318h361q1 -7 0 -15q-3 -10 -7 -17h-10q-45 -8 -81 -32t-45 -65q-9 -49 44 -49q11 0 22 2.5t16 5.5l6 2q7 -7 4 -22q-24 -16 -60 -16q-39 0 -55.5 20t-10.5 53q14 67 90 101
h-315z" />
    <glyph glyph-name="eogonek" unicode="&#x119;" horiz-adv-x="507" 
d="M56 266q30 137 97 203.5t161 66.5q87 0 124.5 -51.5t20.5 -132.5q-6 -27 -14 -52t-13 -36l-5 -12h-339q-22 -121 9.5 -175t119.5 -54q37 0 71 10t50 20l16 10q14 -9 12 -28q-35 -27 -100 -39q-74 -28 -86 -87q-5 -24 6.5 -36.5t36.5 -12.5q11 0 22 2.5t17 5.5l5 2
q8 -8 5 -22q-25 -16 -61 -16q-39 0 -55.5 20t-9.5 53q12 53 60 85h-1q-99 0 -138 71t-11 205zM406 282q12 28 22 75q14 65 -13 107t-102 42q-79 0 -135.5 -55.5t-83.5 -168.5h312z" />
    <glyph glyph-name="Ecaron" unicode="&#x11a;" horiz-adv-x="555" 
d="M43 0l153 720h385q1 -6 0 -16q-3 -11 -7 -16h-351l-65 -307h301q1 -6 0 -15q-3 -10 -7 -16h-301l-67 -318h361q1 -7 0 -15q-3 -10 -7 -17h-395zM401 771h-26l-103 101q8 17 19 21l100 -91l140 90q14 -4 14 -20z" />
    <glyph glyph-name="ecaron" unicode="&#x11b;" horiz-adv-x="506" 
d="M342 602h-25l-98 96q6 14 18 19l96 -87l132 86q14 -4 14 -18zM426 252h-339q-22 -121 9.5 -175t119.5 -54q37 0 71 10t50 20l16 10q14 -9 12 -28q-7 -5 -19 -12.5t-54 -20t-88 -12.5q-99 0 -138 71t-11 205q30 137 97 203.5t161 66.5q87 0 124.5 -51.5t20.5 -132.5
q-6 -27 -14 -52t-13 -36zM427 357q14 65 -13 107t-102 42q-79 0 -135.5 -55.5t-83.5 -168.5h312q12 28 22 75z" />
    <glyph glyph-name="Gcircumflex" unicode="&#x11c;" horiz-adv-x="619" 
d="M477 893h26l101 -101q-7 -18 -18 -20l-102 90l-138 -91q-15 7 -15 21zM286 -10q-133 0 -186.5 92.5t-14.5 277.5q80 370 346 370q54 0 99 -8t63 -16l18 -8q1 -7 -5 -15q-3 -4 -6 -6.5t-4 -3.5l-2 -1q-67 27 -158 27q-242 0 -315 -340q-18 -98 -16 -163t29 -103.5
t65 -54.5t93 -16q70 0 157 19l64 301h-193q-2 6 0 16l6 16h227l-74 -352q-75 -32 -193 -32z" />
    <glyph glyph-name="gcircumflex" unicode="&#x11d;" horiz-adv-x="553" 
d="M351 721h25l100 -99q-6 -14 -17 -16l-99 88l-136 -89q-15 7 -15 17zM370 26l14 62q-70 -98 -183 -98q-97 0 -136 63.5t-8 209.5q31 147 92.5 210t157.5 63q120 0 150 -104l19 91q5 3 17 3l15 -3l-106 -497q-31 -146 -86.5 -211t-174.5 -65q-35 0 -65.5 6t-43.5 12l-12 6
q2 19 17 27q47 -19 111 -19q92 0 142 52t80 192zM91 263q-28 -128 -0.5 -185.5t119.5 -57.5q41 0 77 18t59.5 46t38.5 56.5t21 54.5l29 136q7 24 2.5 54.5t-14.5 57t-38.5 45t-70.5 18.5q-92 0 -144 -57t-79 -186z" />
    <glyph glyph-name="Gbreve" unicode="&#x11e;" horiz-adv-x="619" 
d="M598 840q-6 -6 -18 -14.5t-50 -22.5t-77 -14q-40 0 -70.5 12.5t-41.5 25.5l-11 13q8 15 19 19q4 -5 12.5 -12t36 -18.5t58.5 -11.5t62 10.5t46 20.5l16 11q18 -5 18 -19zM286 -10q-133 0 -186.5 92.5t-14.5 277.5q80 370 346 370q54 0 99 -8t63 -16l18 -8q1 -7 -5 -15
q-3 -4 -6 -6.5t-4 -3.5l-2 -1q-67 27 -158 27q-242 0 -315 -340q-18 -98 -16 -163t29 -103.5t65 -54.5t93 -16q70 0 157 19l64 301h-193q-2 6 0 16l6 16h227l-74 -352q-75 -32 -193 -32z" />
    <glyph glyph-name="gbreve" unicode="&#x11f;" horiz-adv-x="553" 
d="M485 690q-6 -6 -16.5 -15t-46.5 -24t-74 -15t-69 13.5t-43 26.5l-11 14q7 14 22 19q4 -5 12 -12t34.5 -19t56.5 -12t60 11t46 21l15 11q14 -4 14 -19zM370 26l14 62q-70 -98 -183 -98q-97 0 -136 63.5t-8 209.5q31 147 92.5 210t157.5 63q120 0 150 -104l19 91q5 3 17 3
l15 -3l-106 -497q-31 -146 -86.5 -211t-174.5 -65q-35 0 -65.5 6t-43.5 12l-12 6q2 19 17 27q47 -19 111 -19q92 0 142 52t80 192zM91 263q-28 -128 -0.5 -185.5t119.5 -57.5q41 0 77 18t59.5 46t38.5 56.5t21 54.5l29 136q7 24 2.5 54.5t-14.5 57t-38.5 45t-70.5 18.5
q-92 0 -144 -57t-79 -186z" />
    <glyph glyph-name="Gdotaccent" unicode="&#x120;" horiz-adv-x="619" 
d="M486 833l-9 -42q-9 -3 -25 -3l-23 3l9 42q9 3 25 3zM286 -10q-133 0 -186.5 92.5t-14.5 277.5q80 370 346 370q54 0 99 -8t63 -16l18 -8q1 -7 -5 -15q-3 -4 -6 -6.5t-4 -3.5l-2 -1q-67 27 -158 27q-242 0 -315 -340q-18 -98 -16 -163t29 -103.5t65 -54.5t93 -16
q70 0 157 19l64 301h-193q-2 6 0 16l6 16h227l-74 -352q-75 -32 -193 -32z" />
    <glyph glyph-name="gdotaccent" unicode="&#x121;" horiz-adv-x="553" 
d="M376 679l-9 -42q-8 -3 -24 -3l-24 3l9 42q9 3 25 3zM370 26l14 62q-70 -98 -183 -98q-97 0 -136 63.5t-8 209.5q31 147 92.5 210t157.5 63q120 0 150 -104l19 91q5 3 17 3l15 -3l-106 -497q-31 -146 -86.5 -211t-174.5 -65q-35 0 -65.5 6t-43.5 12l-12 6q2 19 17 27
q47 -19 111 -19q92 0 142 52t80 192zM91 263q-28 -128 -0.5 -185.5t119.5 -57.5q41 0 77 18t59.5 46t38.5 56.5t21 54.5l29 136q7 24 2.5 54.5t-14.5 57t-38.5 45t-70.5 18.5q-92 0 -144 -57t-79 -186z" />
    <glyph glyph-name="Gcommaaccent" unicode="&#x122;" horiz-adv-x="619" 
d="M226 -194l-15 11q36 26 52 77l-19 3l9 39q9 3 26 3l25 -3l-7 -30q-6 -29 -24 -54t-33 -36zM286 -10q-133 0 -186.5 92.5t-14.5 277.5q80 370 346 370q54 0 99 -8t63 -16l18 -8q1 -7 -5 -15q-3 -4 -6 -6.5t-4 -3.5l-2 -1q-67 27 -158 27q-242 0 -315 -340
q-18 -98 -16 -163t29 -103.5t65 -54.5t93 -16q70 0 157 19l64 301h-193q-2 6 0 16l6 16h227l-74 -352q-75 -32 -193 -32z" />
    <glyph glyph-name="gcommaaccent" unicode="&#x123;" horiz-adv-x="553" 
d="M381 727l15 -10q-34 -25 -49 -73l17 -3l-8 -37q-8 -2 -24 -2l-25 2l7 29q5 27 22 50.5t31 33.5zM370 26l14 62q-70 -98 -183 -98q-97 0 -136 63.5t-8 209.5q31 147 92.5 210t157.5 63q120 0 150 -104l19 91q5 3 17 3l15 -3l-106 -497q-31 -146 -86.5 -211t-174.5 -65
q-35 0 -65.5 6t-43.5 12l-12 6q2 19 17 27q47 -19 111 -19q92 0 142 52t80 192zM91 263q-28 -128 -0.5 -185.5t119.5 -57.5q41 0 77 18t59.5 46t38.5 56.5t21 54.5l29 136q7 24 2.5 54.5t-14.5 57t-38.5 45t-70.5 18.5q-92 0 -144 -57t-79 -186z" />
    <glyph glyph-name="Hcircumflex" unicode="&#x124;" horiz-adv-x="676" 
d="M551 385l70 332q7 3 18 3l16 -3l-151 -714q-6 -3 -18 -3l-16 3l74 350h-392l-74 -350q-7 -3 -18 -3l-16 3l151 714q7 3 18 3l16 -3l-70 -332h392zM457 893h26l101 -101q-7 -17 -20 -20l-99 90l-141 -91q-13 6 -13 21z" />
    <glyph glyph-name="hcircumflex" unicode="&#x125;" horiz-adv-x="550" 
d="M479 388l-81 -385q-6 -3 -17 -3l-15 3l80 377q26 127 -102 127q-54 0 -111 -35.5t-94 -95.5l-79 -373q-6 -3 -17 -3l-15 3l158 744q5 3 16 3l16 -3l-67 -312q91 101 202 101q71 0 106 -40.5t20 -107.5zM378 881h25l98 -97q-8 -16 -16 -18l-98 87l-133 -88q-17 8 -15 19z
" />
    <glyph glyph-name="Hbar" unicode="&#x126;" horiz-adv-x="689" 
d="M634 588h70q2 -5 0 -14q-2 -8 -6 -14h-70l-118 -557q-6 -3 -18 -3l-16 3l74 350h-392l-74 -350q-7 -3 -18 -3l-16 3l118 557h-65q-1 7 0 14q2 8 6 14h65l27 129q7 3 18 3l16 -3l-27 -129h392l27 129q7 3 18 3l16 -3zM557 385l37 175h-392l-37 -175h392z" />
    <glyph glyph-name="hbar" unicode="&#x127;" horiz-adv-x="550" 
d="M151 435q90 101 202 101q71 0 106 -40.5t20 -107.5l-81 -385q-6 -3 -17 -3l-15 3l80 377q26 127 -102 127q-54 0 -111 -35.5t-94 -95.5l-79 -373q-6 -3 -17 -3l-15 3l133 628h-72q-2 15 6 27h72l19 89q5 3 16 3l16 -3l-19 -89h166q3 -13 -6 -27h-166z" />
    <glyph glyph-name="Itilde" unicode="&#x128;" horiz-adv-x="250" 
d="M44 3l151 714q6 3 18 3l16 -3l-151 -714q-6 -3 -18 -3zM285 798q12 0 23 7t16 15l5 7q16 2 22 -11l-2.5 -5t-7 -11t-12.5 -14t-19 -11t-26 -5q-25 0 -57.5 17.5t-49.5 17.5q-12 0 -23 -7.5t-16 -14.5l-5 -7q-19 -2 -23 11l2.5 5t7 11t13 14t19.5 11t26 5q24 0 57 -17.5
t50 -17.5z" />
    <glyph glyph-name="itilde" unicode="&#x129;" horiz-adv-x="222" 
d="M173 523l-110 -520q-5 -3 -17 -3l-15 3l110 520q5 3 17 3zM235 629q10 0 19.5 6.5t13.5 13.5l4 7q15 2 19 -10q-2 -5 -5.5 -12t-17.5 -19t-33 -12q-20 0 -47 16t-42 16q-10 0 -19.5 -7t-14.5 -14l-4 -7q-14 -2 -19 10q2 5 5.5 12.5t18.5 20t33 12.5q21 0 48 -16.5
t41 -16.5z" />
    <glyph glyph-name="Imacron" unicode="&#x12a;" horiz-adv-x="250" 
d="M44 3l151 714q6 3 18 3l16 -3l-151 -714q-6 -3 -18 -3zM346 776h-251q-3 6 -1 16q3 10 8 16h251q3 -6 0 -15q-2 -10 -7 -17z" />
    <glyph glyph-name="imacron" unicode="&#x12b;" horiz-adv-x="222" 
d="M173 523l-110 -520q-5 -3 -17 -3l-15 3l110 520q5 3 17 3zM263 634h-176q-1 3 1 13q2 11 5 15h176q2 -4 -1 -14q-1 -8 -5 -14z" />
    <glyph glyph-name="Ibreve" unicode="&#x12c;" horiz-adv-x="250" 
d="M44 3l151 714q6 3 18 3l16 -3l-151 -714q-6 -3 -18 -3zM371 840q-6 -6 -18 -14.5t-50 -22.5t-77 -14q-40 0 -70.5 12.5t-41.5 25.5l-11 13q7 15 20 19q4 -5 12.5 -12t36 -18.5t58.5 -11.5t62 10.5t46 20.5l16 11q17 -5 17 -19z" />
    <glyph glyph-name="ibreve" unicode="&#x12d;" horiz-adv-x="222" 
d="M173 523l-110 -520q-5 -3 -17 -3l-15 3l110 520q5 3 17 3zM321 688q-6 -6 -17.5 -15t-48.5 -24t-75 -15t-68 13.5t-40 26.5l-11 14q7 14 22 19q4 -5 11 -12t32.5 -19t55.5 -12t61 11t47 21l17 11q15 -4 14 -19z" />
    <glyph glyph-name="Iogonek" unicode="&#x12e;" horiz-adv-x="250" 
d="M229 717l-152 -715q-37 -8 -72.5 -34t-43.5 -66q-10 -46 44 -46q11 0 22 2.5t17 5.5l5 2q8 -8 5 -24q-25 -14 -61 -14q-39 0 -55.5 20t-9.5 53q9 42 43 72t76 43l148 701q6 3 18 3z" />
    <glyph glyph-name="iogonek" unicode="&#x12f;" horiz-adv-x="223" 
d="M161 651q9 3 25 3l23 -3l-9 -42q-8 -3 -24 -3l-24 3zM34 14l108 509q5 3 17 3l15 -3l-110 -520q-38 -10 -67 -35.5t-37 -59.5q-6 -24 6 -36.5t37 -12.5q11 0 22 2.5t17 4.5l5 3q8 -8 5 -22q-25 -16 -61 -16q-39 0 -56 20.5t-9 52.5q9 38 38 67t70 43z" />
    <glyph glyph-name="Idotaccent" unicode="&#x130;" horiz-adv-x="250" 
d="M44 3l151 714q6 3 18 3l16 -3l-151 -714q-6 -3 -18 -3zM261 833l-9 -42q-9 -3 -25 -3l-23 3l9 42q9 3 25 3z" />
    <glyph glyph-name="dotlessi" unicode="&#x131;" horiz-adv-x="222" 
d="M173 523l-110 -520q-5 -3 -17 -3l-15 3l110 520q5 3 17 3z" />
    <glyph glyph-name="IJ" unicode="&#x132;" horiz-adv-x="609" 
d="M44 3l151 714q6 3 18 3l16 -3l-151 -714q-6 -3 -18 -3zM439 154l119 563q5 3 18 3l16 -3l-119 -563q-18 -85 -62.5 -124.5t-124.5 -39.5q-33 0 -65 7.5t-47 14.5l-16 8q3 19 17 28q53 -26 118 -26q57 0 93.5 30t52.5 102z" />
    <glyph glyph-name="ij" unicode="&#x133;" horiz-adv-x="404" 
d="M173 523l-110 -520q-5 -3 -17 -3l-15 3l110 520q5 3 17 3zM208 651l-9 -42q-8 -3 -24 -3l-24 3l9 42q9 3 25 3zM192 -92l131 615q5 3 17 3l15 -3l-130 -611q-34 -162 -165 -162q-19 0 -32.5 2t-17.5 4l-4 3q-1 3 0 8l8 16q15 -4 44 -4q55 0 87.5 30.5t46.5 98.5zM390 651
l-9 -42q-8 -3 -24 -3l-24 3l9 42q9 3 25 3z" />
    <glyph glyph-name="Jcircumflex" unicode="&#x134;" horiz-adv-x="421" 
d="M251 154l119 563q5 3 18 3l16 -3l-119 -563q-18 -85 -62.5 -124.5t-124.5 -39.5q-33 0 -65 7.5t-47 14.5l-16 8q3 19 17 28q53 -26 118 -26q57 0 93.5 30t52.5 102zM412 893h26l101 -101q-7 -17 -20 -20l-99 90l-141 -91q-13 6 -13 21z" />
    <glyph glyph-name="jcircumflex" unicode="&#x135;" horiz-adv-x="223" 
d="M11 -92l131 615q5 3 17 3l15 -3l-130 -611q-34 -162 -165 -162q-19 0 -32.5 2t-17.5 4l-4 3q-1 3 0 8l8 16q15 -4 44 -4q55 0 87.5 30.5t46.5 98.5zM183 702h26l99 -98q-7 -17 -18 -19l-99 88l-136 -89q-14 7 -14 20z" />
    <glyph glyph-name="Kcommaaccent" unicode="&#x136;" horiz-adv-x="605" 
d="M190 -192l-13 12q34 28 50 82l-17 3l9 42q8 3 24 3l24 -3l-7 -32q-7 -31 -24.5 -58t-31.5 -38zM229 717l-69 -327h143l298 327q7 3 22 3l18 -3l-312 -346l189 -368q-7 -3 -20 -3l-19 3l-181 355h-145l-75 -355q-7 -3 -18 -3l-16 3l151 714q7 3 18 3z" />
    <glyph glyph-name="kcommaaccent" unicode="&#x137;" horiz-adv-x="493" 
d="M147 -192l-13 12q34 28 50 82l-17 3l9 42q8 3 24 3l24 -3l-7 -32q-7 -31 -24.5 -58t-31.5 -38zM218 747l-97 -457h123l211 233q7 3 24 3l15 -2l-227 -252l141 -268q-6 -4 -20 -4l-18 4l-133 256h-123l-54 -257q-5 -3 -17 -3l-15 3l158 744q4 3 16 3z" />
    <glyph glyph-name="kgreenlandic" unicode="&#x138;" horiz-adv-x="498" 
d="M502 523l-248 -224l159 -296q-7 -3 -20 -3l-15 3l-148 275l-139 -125l-31 -150q-8 -3 -17 -3q-11 0 -15 3l110 521q8 2 17 2q13 0 15 -2l-66 -319l353 318q9 3 26 3q13 0 19 -3z" />
    <glyph glyph-name="Lacute" unicode="&#x139;" horiz-adv-x="498" 
d="M43 0l152 717q7 3 18 3l16 -3l-145 -685h331q1 -6 -1 -16l-6 -16h-365zM360 906l-157 -147q-16 1 -21 14l149 150q21 0 29 -17z" />
    <glyph glyph-name="lacute" unicode="&#x13a;" horiz-adv-x="226" 
d="M223 747l-158 -744q-5 -3 -17 -3l-15 3l158 744q4 3 16 3zM338 919l-166 -136q-17 3 -20 15l160 140q20 -1 26 -19z" />
    <glyph glyph-name="Lcommaaccent" unicode="&#x13b;" horiz-adv-x="498" 
d="M43 0l152 717q7 3 18 3l16 -3l-145 -685h331q1 -6 -1 -16l-6 -16h-365zM170 -182l-13 12q34 28 50 82l-17 3l9 42q8 3 24 3l24 -3l-7 -32q-7 -31 -24.5 -58t-31.5 -38z" />
    <glyph glyph-name="lcommaaccent" unicode="&#x13c;" horiz-adv-x="226" 
d="M223 747l-158 -744q-5 -3 -17 -3l-15 3l158 744q4 3 16 3zM-14 -182l-13 12q34 28 50 82l-17 3l9 42q8 3 24 3l24 -3l-7 -32q-7 -31 -24.5 -58t-31.5 -38z" />
    <glyph glyph-name="Lcaron" unicode="&#x13d;" horiz-adv-x="499" 
d="M350 566q-14 0 -18 11q70 54 84 155q21 6 32 -3q-8 -46 -34.5 -92t-63.5 -71zM44 0l152 717q7 3 18 3l16 -3l-145 -685h331q1 -6 -1 -16l-6 -16h-365z" />
    <glyph glyph-name="lcaron" unicode="&#x13e;" horiz-adv-x="232" 
d="M265 588q-15 0 -17 11q72 54 88 152q23 5 33 -4q-10 -45 -38 -90t-66 -69zM223 747l-158 -744q-5 -3 -17 -3l-15 3l158 744q4 3 16 3z" />
    <glyph glyph-name="Ldot" unicode="&#x13f;" horiz-adv-x="502" 
d="M43 0l152 717q7 3 18 3l16 -3l-145 -685h331q1 -6 -1 -16l-6 -16h-365zM390 355l-9 -42q-8 -3 -24 -3l-24 3l9 42q9 3 25 3z" />
    <glyph glyph-name="ldot" unicode="&#x140;" horiz-adv-x="245" 
d="M223 747l-158 -744q-5 -3 -17 -3l-15 3l158 744q4 3 16 3zM262 355l-9 -42q-8 -3 -24 -3l-24 3l9 42q9 3 25 3z" />
    <glyph glyph-name="Lslash" unicode="&#x141;" horiz-adv-x="510" 
d="M96 32h331q1 -6 -1 -16l-6 -16h-365l72 341l-76 -39q-13 8 -10 26l94 48l72 341q7 3 18 3l16 -3l-68 -322l142 73q12 -7 9 -26l-158 -81z" />
    <glyph glyph-name="lslash" unicode="&#x142;" horiz-adv-x="278" 
d="M169 430l94 48q12 -7 9 -26l-111 -57l-83 -392q-5 -3 -17 -3l-15 3l79 373l-78 -40q-13 7 -10 26l96 49l71 336q4 3 16 3l16 -3z" />
    <glyph glyph-name="Nacute" unicode="&#x143;" horiz-adv-x="694" 
d="M595 906l-157 -147q-16 1 -21 14l149 150q21 0 29 -17zM486 3l-238 588l-29 84h-2q-4 -36 -24 -130l-116 -542q-6 -3 -18 -3l-15 3l151 714q8 3 21 3l16 -3l236 -580q9 -21 16.5 -43.5l11.5 -34.5l3 -12h2q6 48 21 120l118 550q6 3 18 3l15 -3l-151 -714q-7 -3 -20 -3z
" />
    <glyph glyph-name="nacute" unicode="&#x144;" horiz-adv-x="550" 
d="M445 757l-156 -147q-18 1 -21 14l148 150q21 0 29 -17zM479 388l-81 -385q-6 -3 -17 -3l-15 3l80 377q13 66 -11.5 96.5t-87.5 30.5q-54 0 -112.5 -35.5t-95.5 -95.5l-79 -373q-6 -3 -17 -3l-15 3l110 520q6 3 17 3l15 -3l-19 -88q88 101 206 101q71 0 104 -40.5
t18 -107.5z" />
    <glyph glyph-name="Ncommaaccent" unicode="&#x145;" horiz-adv-x="694" 
d="M225 -192l-13 12q34 28 50 82l-17 3l9 42q8 3 24 3l24 -3l-7 -32q-7 -31 -24.5 -58t-31.5 -38zM486 3l-238 588l-29 84h-2q-4 -36 -24 -130l-116 -542q-6 -3 -18 -3l-15 3l151 714q8 3 21 3l16 -3l236 -580q9 -21 16.5 -43.5l11.5 -34.5l3 -12h2q6 48 21 120l118 550
q6 3 18 3l15 -3l-151 -714q-7 -3 -20 -3z" />
    <glyph glyph-name="ncommaaccent" unicode="&#x146;" horiz-adv-x="550" 
d="M156 -192l-13 12q34 28 50 82l-17 3l9 42q8 3 24 3l24 -3l-7 -32q-7 -31 -24.5 -58t-31.5 -38zM479 388l-81 -385q-6 -3 -17 -3l-15 3l80 377q13 66 -11.5 96.5t-87.5 30.5q-54 0 -112.5 -35.5t-95.5 -95.5l-79 -373q-6 -3 -17 -3l-15 3l110 520q6 3 17 3l15 -3l-19 -88
q88 101 206 101q71 0 104 -40.5t18 -107.5z" />
    <glyph glyph-name="Ncaron" unicode="&#x147;" horiz-adv-x="694" 
d="M466 771h-26l-103 101q6 14 21 19l99 -89l138 90q15 -4 15 -20zM486 3l-238 588l-29 84h-2q-4 -36 -24 -130l-116 -542q-6 -3 -18 -3l-15 3l151 714q8 3 21 3l16 -3l236 -580q9 -21 16.5 -43.5l11.5 -34.5l3 -12h2q6 48 21 120l118 550q6 3 18 3l15 -3l-151 -714
q-7 -3 -20 -3z" />
    <glyph glyph-name="ncaron" unicode="&#x148;" horiz-adv-x="550" 
d="M358 602h-23l-97 96q4 11 18 17l94 -86l126 85q15 -4 15 -19zM479 388l-81 -385q-6 -3 -17 -3l-15 3l80 377q13 66 -11.5 96.5t-87.5 30.5q-54 0 -112.5 -35.5t-95.5 -95.5l-79 -373q-6 -3 -17 -3l-15 3l110 520q6 3 17 3l15 -3l-19 -88q88 101 206 101q71 0 104 -40.5
t18 -107.5z" />
    <glyph glyph-name="napostrophe" unicode="&#x149;" horiz-adv-x="550" 
d="M159 591q-14 1 -16 12q75 48 99 146q23 3 32 -6q-13 -45 -44 -88t-71 -64zM479 388l-81 -385q-6 -3 -17 -3l-15 3l80 377q13 66 -11.5 96.5t-87.5 30.5q-54 0 -112.5 -35.5t-95.5 -95.5l-79 -373q-6 -3 -17 -3l-15 3l110 520q6 3 17 3l15 -3l-19 -88q88 101 206 101
q71 0 104 -40.5t18 -107.5z" />
    <glyph glyph-name="Eng" unicode="&#x14a;" horiz-adv-x="694" 
d="M673 717l-152 -714l-12 -59q-15 -72 -44.5 -112t-96.5 -60q-11 8 -4 26q48 16 73 48t39 96l12 60l-2 1l-238 588l-29 84h-2q-4 -36 -24 -130l-116 -542q-6 -3 -18 -3l-15 3l151 714q8 3 21 3l16 -3l236 -580q9 -21 16.5 -43.5l11.5 -34.5l3 -12h2q6 48 21 120l118 550
q6 3 18 3z" />
    <glyph glyph-name="eng" unicode="&#x14b;" horiz-adv-x="550" 
d="M151 435q88 101 206 101q71 0 104 -40.5t18 -107.5l-94 -444q-15 -72 -44.5 -112t-96.5 -60q-10 10 -4 25q49 16 74 48.5t39 96.5l93 438q13 66 -11 96.5t-87 30.5q-54 0 -113 -35.5t-96 -95.5l-79 -373q-6 -3 -17 -3l-15 3l110 520q6 3 17 3l15 -3z" />
    <glyph glyph-name="Omacron" unicode="&#x14c;" horiz-adv-x="677" 
d="M571 795h-267q-2 6 -1 13q2 9 7 16h267q3 -5 1 -15q-1 -7 -7 -14zM275 -10q-266 0 -190 370q77 370 341 370q266 0 189 -370q-76 -370 -340 -370zM426 700q-229 0 -305 -340q-75 -340 157 -340q226 0 301 340q76 340 -153 340z" />
    <glyph glyph-name="omacron" unicode="&#x14d;" horiz-adv-x="537" 
d="M443 643h-217q-1 7 0 15q1 3 2 5.5l2 5t2 4.5h217q1 -6 0 -14q-2 -6 -6 -16zM207 -10q-100 0 -139 64.5t-11 208.5t92 208.5t164 64.5t139 -64.5t11 -208.5t-92 -208.5t-164 -64.5zM312 506q-83 0 -138 -55t-83 -188q-29 -133 2.5 -188t114.5 -55t137.5 55t83.5 188
q28 133 -3 188t-114 55z" />
    <glyph glyph-name="Obreve" unicode="&#x14e;" horiz-adv-x="677" 
d="M589 840q-6 -6 -18 -14.5t-50 -22.5t-77 -14q-40 0 -70.5 12.5t-41.5 25.5l-11 13q7 14 22 19q4 -5 11 -12t33.5 -18.5t57.5 -11.5t63 10.5t49 20.5l17 11q15 -4 15 -19zM275 -10q-266 0 -190 370q77 370 341 370q266 0 189 -370q-76 -370 -340 -370zM426 700
q-229 0 -305 -340q-75 -340 157 -340q226 0 301 340q76 340 -153 340z" />
    <glyph glyph-name="obreve" unicode="&#x14f;" horiz-adv-x="537" 
d="M479 688q-6 -6 -16.5 -15t-46 -23.5t-73.5 -14.5t-69 13.5t-43 26.5l-12 13q7 14 22 19q4 -5 12 -12t34.5 -19t56.5 -12t60 11t46 21l15 11q15 -4 14 -19zM207 -10q-100 0 -139 64.5t-11 208.5t92 208.5t164 64.5t139 -64.5t11 -208.5t-92 -208.5t-164 -64.5zM312 506
q-83 0 -138 -55t-83 -188q-29 -133 2.5 -188t114.5 -55t137.5 55t83.5 188q28 133 -3 188t-114 55z" />
    <glyph glyph-name="Ohungarumlaut" unicode="&#x150;" horiz-adv-x="677" 
d="M494 899l-136 -127q-19 2 -20 13l124 131q23 0 32 -17zM638 899l-137 -127q-17 2 -20 13l125 131q21 0 32 -17zM275 -10q-266 0 -190 370q77 370 341 370q266 0 189 -370q-76 -370 -340 -370zM426 700q-229 0 -305 -340q-75 -340 157 -340q226 0 301 340q76 340 -153 340
z" />
    <glyph glyph-name="ohungarumlaut" unicode="&#x151;" horiz-adv-x="537" 
d="M386 720l-131 -122q-16 1 -19 12l118 125q23 0 32 -15zM524 720l-131 -122q-16 1 -19 12l118 125q23 0 32 -15zM207 -10q-100 0 -139 64.5t-11 208.5t92 208.5t164 64.5t139 -64.5t11 -208.5t-92 -208.5t-164 -64.5zM312 506q-83 0 -138 -55t-83 -188q-29 -133 2.5 -188
t114.5 -55t137.5 55t83.5 188q28 133 -3 188t-114 55z" />
    <glyph glyph-name="OE" unicode="&#x152;" horiz-adv-x="826" 
d="M707 0h-340q-40 -10 -86 -10q-132 0 -184.5 90.5t-12.5 279.5q80 370 354 370q38 0 83 -10h329q1 -6 0 -16q-3 -11 -7 -16h-301l-65 -307h251q2 -6 0 -15q-3 -10 -7 -16h-251l-67 -318h311q1 -7 0 -15q-3 -10 -7 -17zM120 360q-38 -179 5 -259.5t162 -80.5q43 0 82 13
l139 655q-34 12 -76 12q-238 0 -312 -340z" />
    <glyph glyph-name="oe" unicode="&#x153;" horiz-adv-x="826" 
d="M746 252h-308q-22 -123 3 -176.5t104 -53.5q32 0 65 10t50 20l16 9q14 -8 12 -25q-7 -5 -19 -12.5t-52.5 -20.5t-84.5 -13q-125 0 -136 140q-36 -74 -84 -107t-117 -33q-97 0 -133.5 64.5t-5.5 208.5t94.5 208.5t160.5 64.5q69 0 103.5 -33t38.5 -107q72 140 198 140
q77 0 110.5 -51.5t16.5 -132.5q-6 -27 -14 -52t-13 -36zM309 507q-81 0 -136 -56t-83 -188q-29 -134 -0.5 -189t108.5 -55q78 0 129 56.5t82 189.5q27 133 2 187.5t-102 54.5zM748 357q14 65 -10 107t-93 42q-70 0 -122 -55.5t-79 -168.5h282q12 28 22 75z" />
    <glyph glyph-name="Racute" unicode="&#x154;" horiz-adv-x="616" 
d="M500 906l-151 -142q-16 1 -21 14l143 145q21 0 29 -17zM196 720h233q91 0 132 -55t22 -145q-17 -78 -65.5 -128t-121.5 -62l103 -327q-8 -3 -20 -3l-19 3l-100 323h-10h-204l-68 -323q-6 -3 -18 -3l-16 3zM357 358q73 0 124.5 44t67.5 121t-16.5 121t-105.5 44h-204
l-70 -330h204z" />
    <glyph glyph-name="racute" unicode="&#x155;" horiz-adv-x="385" 
d="M149 423q87 112 177 112q23 0 42.5 -5.5t27.5 -11.5l8 -5q-5 -19 -23 -27q-32 18 -71 18q-75 0 -173 -136l-77 -365q-5 -3 -17 -3l-15 3l110 520q5 3 17 3l15 -3zM395 757l-156 -147q-18 1 -21 14l148 150q21 0 29 -17z" />
    <glyph glyph-name="Rcommaaccent" unicode="&#x156;" horiz-adv-x="616" 
d="M200 -182l-13 12q34 28 50 82l-17 3l9 42q8 3 24 3l24 -3l-7 -32q-7 -31 -24.5 -58t-31.5 -38zM196 720h233q91 0 132 -55t22 -145q-17 -78 -65.5 -128t-121.5 -62l103 -327q-8 -3 -20 -3l-19 3l-100 323h-10h-204l-68 -323q-6 -3 -18 -3l-16 3zM357 358q73 0 124.5 44
t67.5 121t-16.5 121t-105.5 44h-204l-70 -330h204z" />
    <glyph glyph-name="rcommaaccent" unicode="&#x157;" horiz-adv-x="385" 
d="M149 423q87 112 177 112q23 0 42.5 -5.5t27.5 -11.5l8 -5q-5 -19 -23 -27q-32 18 -71 18q-75 0 -173 -136l-77 -365q-5 -3 -17 -3l-15 3l110 520q5 3 17 3l15 -3zM-19 -182l-13 12q34 28 50 82l-17 3l9 42q8 3 24 3l24 -3l-7 -32q-7 -31 -24.5 -58t-31.5 -38z" />
    <glyph glyph-name="Rcaron" unicode="&#x158;" horiz-adv-x="616" 
d="M401 771h-26l-103 101q8 17 19 21l101 -91l139 90q14 -4 14 -20zM196 720h233q91 0 132 -55t22 -145q-17 -78 -65.5 -128t-121.5 -62l103 -327q-8 -3 -20 -3l-19 3l-100 323h-10h-204l-68 -323q-6 -3 -18 -3l-16 3zM357 358q73 0 124.5 44t67.5 121t-16.5 121t-105.5 44
h-204l-70 -330h204z" />
    <glyph glyph-name="rcaron" unicode="&#x159;" horiz-adv-x="385" 
d="M149 423q87 112 177 112q23 0 42.5 -5.5t27.5 -11.5l8 -5q-5 -19 -23 -27q-32 18 -71 18q-75 0 -173 -136l-77 -365q-5 -3 -17 -3l-15 3l110 520q5 3 17 3l15 -3zM278 602h-23l-94 93q5 14 16 18l93 -84l127 83q14 -4 14 -17z" />
    <glyph glyph-name="Sacute" unicode="&#x15a;" horiz-adv-x="559" 
d="M505 906l-151 -141q-16 1 -21 14l143 144q21 0 29 -17zM382 699q-97 0 -155 -42t-73 -115q-4 -19 -4 -35.5t2 -29.5t9 -24t13.5 -19.5t19 -16t23 -13t27.5 -11.5t30 -9.5t33 -9.5q19 -5 32.5 -9.5t30.5 -11t29 -12.5t25.5 -15.5t21.5 -20t16 -24t10.5 -29.5t2.5 -35.5
t-5 -42.5q-19 -89 -89.5 -136.5t-180.5 -47.5q-53 0 -100.5 9t-68.5 19l-21 9q2 19 16 28q80 -32 176 -32t158.5 41t78.5 118q8 40 1 68t-32 46t-47.5 27t-64.5 21q-21 6 -33.5 10t-32 11t-31.5 13t-27 15.5t-23.5 19.5t-17 24t-12 30t-3.5 36t5 43q18 87 86.5 135.5
t176.5 48.5q48 0 92 -6t64 -12l19 -6q-3 -19 -16 -28q-72 21 -161 21z" />
    <glyph glyph-name="sacute" unicode="&#x15b;" horiz-adv-x="445" 
d="M404 757l-156 -147q-18 1 -21 14l148 150q21 0 29 -17zM84 399q14 65 65.5 101t136.5 36q33 0 63.5 -5.5t44.5 -10.5l13 -6q-2 -18 -16 -27q-46 19 -108 19q-142 0 -167 -113q-10 -45 18.5 -70t82.5 -40q35 -11 56.5 -20t46 -26.5t32.5 -45t0 -64.5q-31 -137 -204 -137
q-42 0 -78 8t-52 16l-15 7q2 18 16 27q59 -28 132 -28q64 0 109 27.5t58 84.5q6 28 0 48.5t-26.5 34.5t-38 21t-49.5 17q-63 19 -98 52t-22 94z" />
    <glyph glyph-name="Scircumflex" unicode="&#x15c;" horiz-adv-x="560" 
d="M412 893h26l101 -101q-7 -18 -18 -20l-101 90l-139 -91q-15 7 -15 21zM382 699q-97 0 -155 -42t-73 -115q-4 -19 -4 -35.5t2 -29.5t9 -24t13.5 -19.5t19 -16t23 -13t27.5 -11.5t30 -9.5t33 -9.5q19 -5 32.5 -9.5t31 -11t29 -12.5t25.5 -15.5t22.5 -20t16 -24t10.5 -29.5
t3 -35.5t-5 -42.5q-19 -89 -90.5 -136.5t-181.5 -47.5q-53 0 -100.5 9t-68.5 19l-21 9q2 19 16 28q80 -32 176 -32t158.5 41t78.5 118q8 40 1 68t-32 46t-47.5 27t-64.5 21q-21 6 -33.5 10t-32 11t-31.5 13t-27 15.5t-23.5 19.5t-17 24t-12 30t-3.5 36t5 43
q18 87 86.5 135.5t176.5 48.5q48 0 92 -6t64 -12l19 -6q-3 -19 -16 -28q-72 21 -161 21z" />
    <glyph glyph-name="scircumflex" unicode="&#x15d;" horiz-adv-x="445" 
d="M306 721h25l100 -99q-7 -16 -20 -19l-97 88l-135 -89q-15 7 -15 20zM84 399q14 65 65.5 101t136.5 36q33 0 63.5 -5.5t44.5 -10.5l13 -6q-2 -18 -16 -27q-46 19 -108 19q-142 0 -167 -113q-10 -45 18.5 -70t82.5 -40q35 -11 56.5 -20t46 -26.5t32.5 -45t0 -64.5
q-31 -137 -204 -137q-42 0 -78 8t-52 16l-15 7q2 18 16 27q59 -28 132 -28q64 0 109 27.5t58 84.5q6 28 0 48.5t-26.5 34.5t-38 21t-49.5 17q-63 19 -98 52t-22 94z" />
    <glyph glyph-name="Scedilla" unicode="&#x15e;" horiz-adv-x="559" 
d="M120 546q18 87 86.5 135.5t176.5 48.5q48 0 92 -6t63 -12l20 -6q-3 -19 -16 -28q-72 21 -161 21q-97 0 -155 -42t-73 -115q-4 -19 -4 -35.5t2 -29.5t9 -24t13.5 -19.5t19 -16t23 -13t27.5 -11.5t30 -9.5t33 -9.5q19 -5 32.5 -9.5t31 -11t29 -12.5t25.5 -15.5t22.5 -20
t16 -24t10.5 -29.5t3 -35.5t-5 -42.5q-19 -85 -85.5 -132.5t-170.5 -51.5l-18 -48q56 0 78 -25.5t13 -68.5q-20 -91 -130 -91q-22 0 -42.5 5.5t-29.5 11.5l-10 6q4 13 16 22q29 -18 73 -18q78 0 93 70q12 60 -60 60h-31l-6 8l26 68q-50 1 -94.5 10t-64.5 18l-19 9
q2 19 16 28q80 -32 176 -32t158.5 41t78.5 118q8 40 1 68t-32 46t-47.5 27t-64.5 21q-21 6 -33.5 10t-32 11t-31.5 13t-27 15.5t-23.5 19.5t-17 24t-12 30t-3.5 36t5 43z" />
    <glyph glyph-name="scedilla" unicode="&#x15f;" horiz-adv-x="444" 
d="M83 399q14 65 65.5 101t136.5 36q33 0 63.5 -5.5t43.5 -10.5l14 -6q-2 -18 -16 -27q-46 19 -108 19q-142 0 -167 -113q-10 -45 18.5 -70t82.5 -40q35 -11 56.5 -20t46 -26.5t32.5 -45t0 -64.5q-29 -131 -192 -137l-17 -46q55 0 77 -24t13 -65q-18 -86 -127 -86
q-22 0 -42 5.5t-29 11.5l-9 5q4 14 15 22q28 -18 71 -18q77 0 91 65q6 28 -9 42.5t-50 14.5h-31l-4 8l24 65q-37 1 -69.5 9t-46.5 15l-14 7q2 18 16 27q59 -28 132 -28q64 0 109 27.5t58 84.5q6 28 0 48.5t-26.5 34.5t-38 21t-49.5 17q-63 19 -98 52t-22 94z" />
    <glyph glyph-name="Scaron" unicode="&#x160;" horiz-adv-x="559" 
d="M406 771h-26l-103 101q7 16 18 20l101 -91l139 90q15 -4 15 -19zM382 699q-97 0 -155 -42t-73 -115q-4 -19 -4 -35.5t2 -29.5t9 -24t13.5 -19.5t19 -16t23 -13t27.5 -11.5t30 -9.5t33 -9.5q19 -5 32.5 -9.5t30.5 -11t29 -12.5t25.5 -15.5t21.5 -20t16 -24t10.5 -29.5
t2.5 -35.5t-5 -42.5q-19 -89 -89.5 -136.5t-180.5 -47.5q-53 0 -100.5 9t-68.5 19l-21 9q2 19 16 28q80 -32 176 -32t158.5 41t78.5 118q8 40 1 68t-32 46t-47.5 27t-64.5 21q-21 6 -33.5 10t-32 11t-31.5 13t-27 15.5t-23.5 19.5t-17 24t-12 30t-3.5 36t5 43
q18 87 86.5 135.5t176.5 48.5q48 0 92 -6t64 -12l19 -6q-3 -19 -16 -28q-72 21 -161 21z" />
    <glyph glyph-name="scaron" unicode="&#x161;" horiz-adv-x="445" 
d="M312 602h-24l-93 91q6 15 20 19l89 -82l124 82q14 -4 14 -19zM84 399q14 65 65.5 101t136.5 36q33 0 63.5 -5.5t44.5 -10.5l13 -6q-2 -18 -16 -27q-46 19 -108 19q-142 0 -167 -113q-10 -45 18.5 -70t82.5 -40q35 -11 56.5 -20t46 -26.5t32.5 -45t0 -64.5
q-31 -137 -204 -137q-42 0 -78 8t-52 16l-15 7q2 18 16 27q59 -28 132 -28q64 0 109 27.5t58 84.5q6 28 0 48.5t-26.5 34.5t-38 21t-49.5 17q-63 19 -98 52t-22 94z" />
    <glyph glyph-name="Tcommaaccent" unicode="&#x162;" horiz-adv-x="524" 
d="M121 720h457q2 -4 0 -15l-7 -16h-209l-145 -686q-6 -3 -18 -3l-16 3l145 686h-214q-1 6 1 16zM137 -182l-13 12q34 28 50 82l-17 3l9 42q8 3 24 3l24 -3l-7 -32q-7 -31 -24.5 -58t-31.5 -38z" />
    <glyph glyph-name="Tcommaaccent" unicode="&#x21a;" horiz-adv-x="524" 
d="M121 720h457q2 -4 0 -15l-7 -16h-209l-145 -686q-6 -3 -18 -3l-16 3l145 686h-214q-1 6 1 16zM137 -182l-13 12q34 28 50 82l-17 3l9 42q8 3 24 3l24 -3l-7 -32q-7 -31 -24.5 -58t-31.5 -38z" />
    <glyph glyph-name="tcommaaccent" unicode="&#x163;" horiz-adv-x="341" 
d="M345 496h-161l-68 -324q-19 -77 -3.5 -114.5t80.5 -37.5l64 6l1 -15l-4 -13q-29 -8 -69 -8q-79 0 -101.5 48t0.5 134l68 324h-81q-2 4 1 15l6 15h81l21 102q15 11 34 9l-23 -111h161l1 -15zM103 -202l-13 12q34 28 50 82l-17 3l9 42q8 3 24 3l24 -3l-7 -32
q-7 -31 -24.5 -58t-31.5 -38z" />
    <glyph glyph-name="tcommaaccent" unicode="&#x21b;" horiz-adv-x="341" 
d="M345 496h-161l-68 -324q-19 -77 -3.5 -114.5t80.5 -37.5l64 6l1 -15l-4 -13q-29 -8 -69 -8q-79 0 -101.5 48t0.5 134l68 324h-81q-2 4 1 15l6 15h81l21 102q15 11 34 9l-23 -111h161l1 -15zM103 -202l-13 12q34 28 50 82l-17 3l9 42q8 3 24 3l24 -3l-7 -32
q-7 -31 -24.5 -58t-31.5 -38z" />
    <glyph glyph-name="Tcaron" unicode="&#x164;" horiz-adv-x="524" 
d="M121 720h457q2 -4 0 -15l-7 -16h-209l-145 -686q-6 -3 -18 -3l-16 3l145 686h-214q-1 6 1 16zM374 767h-26l-103 101q8 17 19 21l101 -91l139 90q14 -4 14 -20z" />
    <glyph glyph-name="tcaron" unicode="&#x165;" horiz-adv-x="331" 
d="M311 571q-14 1 -16 12q75 48 99 146q23 3 32 -6q-13 -45 -44 -88t-71 -64zM289 496h-105l-68 -324q-19 -77 -1.5 -114.5t82.5 -37.5l60 6l1 -15l-4 -13q-29 -8 -69 -8q-79 0 -101.5 48t0.5 134l68 324h-81q-2 4 1 15l6 15h81l21 102q15 11 34 9l-23 -111h105l1 -15z" />
    <glyph glyph-name="Tbar" unicode="&#x166;" horiz-adv-x="537" 
d="M127 720h457q2 -4 0 -15l-7 -16h-209l-70 -330h130q3 -5 0 -15l-6 -13h-130l-69 -328q-6 -3 -18 -3l-16 3l69 328h-130q-2 5 0 13l6 15h130l70 330h-214q-1 6 1 16z" />
    <glyph glyph-name="tbar" unicode="&#x167;" horiz-adv-x="344" 
d="M193 526h161l1 -15l-8 -15h-161l-42 -198h135q2 -4 0 -14l-6 -14h-134l-21 -98q-20 -77 -4 -114.5t80 -37.5l65 6l1 -15l-4 -13q-29 -8 -69 -8q-79 0 -101.5 48t0.5 134l21 98h-59q-2 4 0 14l6 14h58l42 198h-81q-2 4 1 15l6 15h81l21 102q15 11 34 9z" />
    <glyph glyph-name="Utilde" unicode="&#x168;" horiz-adv-x="665" 
d="M651 717l-105 -495q-24 -111 -96.5 -171.5t-177.5 -60.5q-106 0 -158 61.5t-29 170.5l105 495q7 3 18 3l16 -3l-106 -499q-19 -94 22 -146t134 -52t156 52t82 146l106 499q7 3 17 3zM496 818q12 0 23 7t16 13l5 7q19 2 24 -10q-2 -5 -6.5 -12.5t-22 -20t-40.5 -12.5
q-25 0 -58.5 17t-51.5 17q-12 0 -23.5 -7t-16.5 -15l-5 -7q-19 -2 -24 11q2 5 6.5 12.5t22.5 20.5t41 13q25 0 58.5 -17t51.5 -17z" />
    <glyph glyph-name="utilde" unicode="&#x169;" horiz-adv-x="551" 
d="M405 650q12 0 23.5 7t16.5 15l5 7q18 2 24 -11q-2 -5 -7 -13t-23.5 -21t-41.5 -13q-25 0 -57.5 18t-50.5 18q-12 0 -23.5 -7.5t-16.5 -15.5l-5 -7q-19 -2 -24 11l2.5 5t8 11.5t13.5 15t20 11.5t27 5q25 0 58 -18t51 -18zM53 143l82 380q6 3 17 3l15 -3l-80 -377
q-28 -128 101 -128q53 0 110 35.5t96 96.5l79 373q6 3 17 3l15 -3l-110 -520q-6 -3 -17 -3l-15 3l18 88q-90 -101 -200 -101q-72 0 -107.5 41t-20.5 112z" />
    <glyph glyph-name="Umacron" unicode="&#x16a;" horiz-adv-x="665" 
d="M651 717l-105 -495q-24 -111 -96 -171.5t-176 -60.5q-106 0 -159 61.5t-30 170.5l105 495q7 3 18 3l16 -3l-106 -499q-19 -94 22 -146t134 -52t156 52t82 146l106 499q7 3 17 3zM559 802h-254q-2 6 -1 15q4 11 7 15h254q3 -6 0 -14q-1 -8 -6 -16z" />
    <glyph glyph-name="umacron" unicode="&#x16b;" horiz-adv-x="551" 
d="M447 643h-211q-2 6 0 14q1 8 6 14h211q2 -7 0 -13q-1 -9 -6 -15zM53 143l82 380q6 3 17 3l15 -3l-80 -377q-28 -128 101 -128q53 0 110 35.5t96 96.5l79 373q6 3 17 3l15 -3l-110 -520q-6 -3 -17 -3l-15 3l18 88q-90 -101 -200 -101q-72 0 -107.5 41t-20.5 112z" />
    <glyph glyph-name="Ubreve" unicode="&#x16c;" horiz-adv-x="665" 
d="M651 717l-105 -495q-24 -111 -96.5 -171.5t-176.5 -60.5q-106 0 -158.5 61.5t-29.5 170.5l105 495q7 3 18 3l16 -3l-106 -499q-19 -94 22 -146t134 -52t156 52t82 146l106 499q7 3 17 3zM577 840q-6 -6 -17 -14.5t-48 -23t-76 -14.5q-40 0 -71.5 13t-43.5 26l-12 13
q7 14 22 19q4 -5 12.5 -12t36 -18.5t58.5 -11.5t62 10.5t46 20.5l16 11q15 -4 15 -19z" />
    <glyph glyph-name="ubreve" unicode="&#x16d;" horiz-adv-x="551" 
d="M486 688q-6 -6 -16.5 -14.5t-46.5 -23t-74 -14.5t-69 13t-42 26l-12 13q7 14 22 19q4 -5 12 -12t34.5 -19t56.5 -12t60 11t45 21l16 11q15 -4 14 -19zM53 143l82 380q6 3 17 3l15 -3l-80 -377q-28 -128 101 -128q53 0 110 35.5t96 96.5l79 373q6 3 17 3l15 -3l-110 -520
q-6 -3 -17 -3l-15 3l18 88q-90 -101 -200 -101q-72 0 -107.5 41t-20.5 112z" />
    <glyph glyph-name="Uring" unicode="&#x16e;" horiz-adv-x="665" 
d="M651 717l-105 -495q-24 -111 -96.5 -171.5t-177.5 -60.5q-106 0 -158 61.5t-29 170.5l105 495q7 3 18 3l16 -3l-106 -499q-19 -94 22 -146t134 -52t156 52t82 146l106 499q7 3 17 3zM433 769q-49 0 -74.5 28t-15.5 78q9 48 47.5 76t84.5 28t74.5 -27.5t18.5 -76.5
t-48.5 -77.5t-86.5 -28.5zM536 875q6 32 -10 53.5t-55 21.5q-38 0 -64 -22t-32 -53q-7 -32 8.5 -54.5t53.5 -22.5q39 0 65.5 23t33.5 54z" />
    <glyph glyph-name="uring" unicode="&#x16f;" horiz-adv-x="551" 
d="M367 794q43 0 70 -26t18 -72q-8 -46 -44 -73t-82 -27t-70 26.5t-15 73.5q8 46 44 72t79 26zM274 696q-7 -30 7 -51.5t50 -21.5q37 0 62 22t32 51q7 30 -8 50.5t-52 20.5q-36 0 -60 -21t-31 -50zM53 143l82 380q6 3 17 3l15 -3l-80 -377q-28 -128 101 -128q53 0 110 35.5
t96 96.5l79 373q6 3 17 3l15 -3l-110 -520q-6 -3 -17 -3l-15 3l18 88q-90 -101 -200 -101q-72 0 -107.5 41t-20.5 112z" />
    <glyph glyph-name="Uhungarumlaut" unicode="&#x170;" horiz-adv-x="665" 
d="M651 717l-105 -495q-24 -111 -96.5 -171.5t-176.5 -60.5q-106 0 -158.5 61.5t-29.5 170.5l105 495q7 3 18 3l16 -3l-106 -499q-19 -94 22 -146t134 -52t156 52t82 146l106 499q7 3 17 3zM494 901l-151 -143q-17 1 -20 14l138 146q24 0 33 -17zM639 901l-151 -143
q-17 1 -20 14l138 146q24 0 33 -17z" />
    <glyph glyph-name="uhungarumlaut" unicode="&#x171;" horiz-adv-x="551" 
d="M375 724l-141 -131q-14 1 -19 13l129 133q21 0 31 -15zM509 724l-140 -131q-15 2 -20 13l129 133q20 0 31 -15zM53 143l82 380q6 3 17 3l15 -3l-80 -377q-28 -128 101 -128q53 0 110 35.5t96 96.5l79 373q6 3 17 3l15 -3l-110 -520q-6 -3 -17 -3l-15 3l18 88
q-90 -101 -200 -101q-72 0 -107.5 41t-20.5 112z" />
    <glyph glyph-name="Uogonek" unicode="&#x172;" horiz-adv-x="665" 
d="M617 717q7 3 17 3l16 -3l-105 -495q-19 -90 -72 -147.5t-130 -76.5q-94 -31 -107 -92q-5 -24 6.5 -36.5t36.5 -12.5q11 0 22 2.5t17 4.5l5 3q8 -8 5 -22q-25 -16 -61 -16q-39 0 -55.5 20t-9.5 53q11 54 69 88h-1q-106 0 -157.5 61.5t-28.5 170.5l105 495q7 3 18 3l16 -3
l-106 -499q-19 -94 22 -146t134 -52t156 52t82 146z" />
    <glyph glyph-name="uogonek" unicode="&#x173;" horiz-adv-x="551" 
d="M505 523l-111 -524q-41 -7 -73.5 -32.5t-41.5 -61.5q-6 -24 6 -36.5t37 -12.5q11 0 22 2.5t16 5.5l6 2q8 -8 5 -22q-25 -16 -61 -16q-39 0 -56 20.5t-9 52.5q10 40 43 69.5t79 42.5l15 78q-90 -101 -201 -101q-72 0 -107.5 41t-20.5 112l82 380q6 3 17 3l15 -3l-80 -377
q-28 -128 101 -128q53 0 110 35.5t96 96.5l79 373q6 3 17 3z" />
    <glyph glyph-name="Wcircumflex" unicode="&#x174;" horiz-adv-x="940" 
d="M586 893h26l101 -101q-7 -18 -17 -20l-102 90l-138 -91q-16 7 -16 21zM605 3l-52 577q-2 26 -2.5 47t0.5 29l1 8h-2q-6 -25 -37 -84l-301 -577q-6 -3 -15 -3l-13 3l-67 714q6 3 18 3l17 -3l53 -574l3 -92h2q10 37 39 92l298 574q4 3 15 3l13 -3l51 -574q2 -24 2 -47
t-1 -34l-1 -11h2q12 37 40 92l288 574q5 3 20 3l15 -3l-358 -714q-5 -3 -15 -3z" />
    <glyph glyph-name="wcircumflex" unicode="&#x175;" horiz-adv-x="789" 
d="M471 721h25l100 -99q-7 -16 -20 -19l-97 88l-138 -89q-12 5 -12 20zM492 3l-47 357q-3 25 -5.5 47t-3 34.5t-0.5 21.5v13v3h-3q-13 -28 -64 -119l-200 -357q-5 -3 -14 -3l-12 3l-63 520q6 3 18 3l16 -3l45 -395q3 -23 3.5 -42.5t-0.5 -27.5v-9h3q12 30 39 79l222 395
q5 3 16 3l15 -3l51 -393q3 -23 3.5 -43t-0.5 -29l-1 -9h3q11 28 40 81l213 393q6 3 19 3l15 -3l-282 -520q-5 -3 -14 -3z" />
    <glyph glyph-name="Ycircumflex" unicode="&#x176;" horiz-adv-x="606" 
d="M111 717q8 3 22 3l16 -3l158 -375l324 375q6 3 23 3l20 -3l-355 -412l-64 -302q-7 -3 -18 -3l-16 3l64 301zM422 893h26l101 -101q-7 -18 -17 -20l-102 90l-138 -91q-16 7 -16 21z" />
    <glyph glyph-name="ycircumflex" unicode="&#x177;" horiz-adv-x="549" 
d="M355 725h25l100 -99q-7 -16 -20 -19l-96 88l-135 -89q-16 7 -16 20zM472 523q6 3 17 3l15 -3l-111 -520q-30 -129 -92 -191t-173 -62q-35 0 -65.5 6t-42.5 12l-13 6q2 19 17 27q47 -19 111 -19q89 0 145 49t82 173l18 87q-90 -101 -203 -101q-71 0 -105 40.5t-20 107.5
l82 385q6 3 17 3l15 -3l-80 -377q-27 -127 102 -127q53 0 109.5 35t95.5 96z" />
    <glyph glyph-name="Ydieresis" unicode="&#x178;" horiz-adv-x="606" 
d="M111 717q8 3 22 3l16 -3l158 -375l324 375q6 3 23 3l20 -3l-355 -412l-64 -302q-7 -3 -18 -3l-16 3l64 301zM363 826l-9 -42q-8 -3 -24 -3l-24 3l9 42q9 3 25 3zM504 826l-9 -42q-8 -3 -24 -3l-24 3l9 42q9 3 25 3z" />
    <glyph glyph-name="Zacute" unicode="&#x179;" horiz-adv-x="570" 
d="M159 720h439q2 -6 0 -16l-7 -16l-565 -656h439q2 -5 -1 -16l-6 -16h-479q-2 5 0 16l7 16l566 656h-400q-2 5 1 16zM511 906l-157 -147q-16 1 -21 14l149 150q21 0 29 -17z" />
    <glyph glyph-name="zacute" unicode="&#x17a;" horiz-adv-x="444" 
d="M430 496l-407 -466h312q3 -3 0 -15l-6 -15h-349q-2 3 0 15l6 15l408 468h-284q-2 3 1 13l6 15h320q2 -4 0 -15zM430 757l-156 -147q-18 1 -21 14l148 150q21 0 29 -17z" />
    <glyph glyph-name="Zdotaccent" unicode="&#x17b;" horiz-adv-x="570" 
d="M159 720h439q2 -6 0 -16l-7 -16l-565 -656h439q2 -5 -1 -16l-6 -16h-479q-2 5 0 16l7 16l566 656h-400q-2 5 1 16zM423 833l-9 -42q-9 -3 -25 -3l-23 3l9 42q9 3 25 3z" />
    <glyph glyph-name="zdotaccent" unicode="&#x17c;" horiz-adv-x="444" 
d="M430 496l-407 -466h312q3 -3 0 -15l-6 -15h-349q-2 3 0 15l6 15l408 468h-284q-2 3 1 13l6 15h320q2 -4 0 -15zM334 680l-9 -42q-8 -3 -24 -3l-24 3l9 42q9 3 25 3z" />
    <glyph glyph-name="Zcaron" unicode="&#x17d;" horiz-adv-x="570" 
d="M159 720h439q2 -6 0 -16l-7 -16l-565 -656h439q2 -5 -1 -16l-6 -16h-479q-2 5 0 16l7 16l566 656h-400q-2 5 1 16zM402 771h-26l-103 101q8 17 19 21l101 -91l139 90q14 -4 14 -20z" />
    <glyph glyph-name="zcaron" unicode="&#x17e;" horiz-adv-x="444" 
d="M430 496l-407 -466h312q3 -3 0 -15l-6 -15h-349q-2 3 0 15l6 15l408 468h-284q-2 3 1 13l6 15h320q2 -4 0 -15zM307 602h-23l-93 91q6 15 19 19l89 -82l124 82q14 -2 14 -19z" />
    <glyph glyph-name="longs" unicode="&#x17f;" horiz-adv-x="254" 
d="M203 591l-125 -588q-5 -3 -17 -3l-15 3l104 493h-64q-2 4 1 15l6 15h64l13 60q17 80 57 122t122 42q22 0 43.5 -3t32.5 -6l11 -3q0 -17 -15 -28q-30 10 -73 10q-70 0 -100.5 -31t-44.5 -98z" />
    <glyph glyph-name="florin" unicode="&#x192;" horiz-adv-x="433" 
d="M351 420h-107l-128 -409q-25 -80 -65.5 -116t-101.5 -36q-19 0 -38 4.5t-29 8.5l-9 5q2 16 14 24q32 -12 66 -12q46 0 78 27t53 94l128 410h-100q-2 5 0 15l6 13h103l28 90q26 82 65 117.5t100 35.5q21 0 40.5 -3.5t28.5 -7.5l9 -4q-1 -13 -14 -24q-33 11 -69 11
q-46 0 -76 -27.5t-51 -96.5l-29 -91h104q2 -4 0 -14z" />
    <glyph glyph-name="Aringacute" unicode="&#x1fa;" horiz-adv-x="634" 
d="M584 1039l-139 -112q-17 2 -21 13l133 112q21 0 27 -13zM439 905q46 0 75 -27.5t20 -76.5q-8 -44 -39 -71.5t-73 -33.5l128 -693q-6 -3 -19 -3l-15 3l-40 215h-353l-131 -215q-8 -3 -21 -3l-15 3l422 694q-35 8 -55.5 35.5t-13.5 68.5q9 49 46.5 76.5t83.5 27.5zM436 876
q-38 0 -63 -22t-32 -53q-7 -32 9 -54.5t54 -22.5q39 0 65 23t33 54t-10 53t-56 22zM142 250h328l-69 381l-4 38h-2q-7 -14 -21 -38z" />
    <glyph glyph-name="aringacute" unicode="&#x1fb;" 
d="M488 917l-139 -113q-15 1 -21 14l133 112q21 0 27 -13zM332 575q-47 0 -72 27.5t-16 75.5q9 47 47 74t82 27t71.5 -27t18.5 -74q-9 -48 -46.5 -75.5t-84.5 -27.5zM434 678q7 31 -9.5 53t-55.5 22q-38 0 -63.5 -22t-32.5 -53q-7 -32 8.5 -54.5t53.5 -22.5q39 0 65.5 23
t33.5 54zM459 436l23 90q2 3 14 3l14 -3l-111 -523q-5 -3 -14 -3l-12 3l13 87q-69 -100 -189 -100q-197 0 -139 273q31 147 94.5 210t160.5 63q57 0 96 -27.5t50 -72.5zM436 326q16 67 -15.5 123.5t-101.5 56.5q-92 0 -145 -57t-82 -186q-29 -128 -1.5 -185.5t116.5 -57.5
q74 0 129 55.5t71 124.5z" />
    <glyph glyph-name="AEacute" unicode="&#x1fc;" horiz-adv-x="846" 
d="M-11 3q-9 -3 -20 -3q-13 0 -18 3l585 717h335q6 -16 -7 -32h-294l-65 -307h244q5 -17 -7 -32h-244l-67 -317h304q5 -16 -7 -32h-336l44 205h-282zM179 237h263l93 435zM829 906l-157 -147q-16 1 -21 14l149 150q21 0 29 -17z" />
    <glyph glyph-name="aeacute" unicode="&#x1fd;" horiz-adv-x="804" 
d="M597 744l-154 -144q-17 2 -21 13l147 147q21 0 28 -16zM634 536q81 0 111.5 -50.5t13.5 -133.5q-5 -24 -12.5 -46.5t-12.5 -33.5l-6 -11h-303q-21 -122 4 -180.5t100 -58.5q35 0 66 10t45 20l14 9q14 -8 12 -25q-6 -5 -18 -12.5t-50.5 -20.5t-79.5 -13q-109 0 -127 108
l-20 -95q-5 -3 -14 -3l-12 3l16 85q-32 -49 -72.5 -73.5t-102.5 -24.5q-186 0 -128 273t244 273q61 0 90 -25t42 -76l20 91q2 3 14 3l14 -3l-21 -96q70 106 173 106zM383 200l27 126q8 29 5.5 60.5t-12 58t-35.5 44t-64 17.5q-81 0 -133 -58.5t-79 -184.5q-27 -127 0 -185
t108 -58q73 0 120.5 54t62.5 126zM432 291h275q9 19 19 66q14 65 -8.5 107t-89.5 42q-66 0 -118 -52t-78 -163z" />
    <glyph glyph-name="Oslashacute" unicode="&#x1fe;" horiz-adv-x="677" 
d="M572 906l-167 -142q-16 1 -21 14l159 145q21 0 29 -17zM676 763l-82 -107q63 -91 21 -296q-76 -370 -340 -370q-99 0 -151 53l-67 -87q-7 -3 -20 -3l-17 3l85 111q-61 92 -20 293q77 370 341 370q97 0 148 -50l64 83q8 4 20 4zM426 700q-229 0 -305 -340q-39 -180 7 -263
l426 556q-43 47 -128 47zM278 20q226 0 301 340q42 183 -7 268l-427 -557q44 -51 133 -51z" />
    <glyph glyph-name="oslashacute" unicode="&#x1ff;" horiz-adv-x="535" 
d="M441 757l-156 -147q-18 1 -21 14l148 150q21 0 29 -17zM509 568l-65 -85q48 -67 18 -220q-28 -144 -92 -208.5t-164 -64.5q-74 0 -114 34l-52 -67q-5 -3 -20 -3l-16 3l68 89q-45 67 -16 217q28 144 92 208.5t164 64.5q71 0 112 -32l49 64q5 3 20 3zM311 507
q-83 0 -138 -55.5t-83 -188.5q-29 -130 3 -190l311 406q-31 28 -93 28zM207 19q83 0 137.5 55.5t83.5 188.5q28 133 -5 193l-312 -406q32 -31 96 -31z" />
    <glyph glyph-name="Scommaaccent" unicode="&#x218;" horiz-adv-x="560" 
d="M140 -202l-13 12q34 28 50 82l-17 3l9 42q8 3 24 3l24 -3l-7 -32q-7 -31 -24.5 -58t-31.5 -38zM382 699q-97 0 -155 -42t-73 -115q-4 -19 -4 -35.5t2 -29.5t9 -24t13.5 -19.5t19 -16t23 -13t27.5 -11.5t30 -9.5t33 -9.5q19 -5 32.5 -9.5t30.5 -11t29 -12.5t25.5 -15.5
t22 -20t16 -24t10.5 -29.5t3 -35.5t-5 -42.5q-19 -89 -90 -136.5t-181 -47.5q-53 0 -100.5 9t-68.5 19l-21 9q2 19 16 28q80 -32 176 -32t158.5 41t78.5 118q8 40 1 68t-32 46t-47.5 27t-64.5 21q-21 6 -33.5 10t-32 11t-31.5 13t-27 15.5t-23.5 19.5t-17 24t-12 30t-3.5 36
t5 43q18 87 86.5 135.5t176.5 48.5q48 0 92 -6t64 -12l19 -6q-3 -19 -16 -28q-72 21 -161 21z" />
    <glyph glyph-name="scommaaccent" unicode="&#x219;" horiz-adv-x="444" 
d="M93 -212l-13 12q34 28 50 82l-17 3l9 42q8 3 24 3l24 -3l-7 -32q-7 -31 -24.5 -58t-31.5 -38zM83 399q14 65 65.5 101t136.5 36q33 0 63.5 -5.5t43.5 -10.5l14 -6q-2 -18 -16 -27q-46 19 -108 19q-142 0 -167 -113q-10 -45 18.5 -70t82.5 -40q35 -11 56.5 -20t46 -26.5
t32.5 -45t0 -64.5q-31 -137 -204 -137q-42 0 -78 8t-51 16l-16 7q2 18 16 27q59 -28 132 -28q64 0 109 27.5t58 84.5q6 28 0 48.5t-26.5 34.5t-38 21t-49.5 17q-63 19 -98 52t-22 94z" />
    <glyph glyph-name="dotlessj" unicode="&#x237;" horiz-adv-x="223" 
d="M11 -92l131 615q5 3 17 3l15 -3l-130 -611q-34 -162 -165 -162q-19 0 -32.5 2t-17.5 4l-4 3q-1 3 0 8l8 16q15 -4 44 -4q55 0 87.5 30.5t46.5 98.5z" />
    <glyph glyph-name="circumflex" unicode="&#x2c6;" horiz-adv-x="396" 
d="M177 683h26l102 -101q-7 -17 -21 -20l-101 90l-139 -91q-13 6 -12 21z" />
    <glyph glyph-name="caron" unicode="&#x2c7;" horiz-adv-x="404" 
d="M175 550h-26l-103 101q7 16 22 21l101 -91l139 90q11 -3 11 -20z" />
    <glyph glyph-name="breve" unicode="&#x2d8;" horiz-adv-x="324" 
d="M282 682q-6 -6 -18 -15t-49 -24t-75 -15t-67.5 13.5t-40.5 26.5l-10 14q7 14 22 19q4 -5 12 -12t34.5 -19t56.5 -12t60 11t45 21l16 11q14 -4 14 -19z" />
    <glyph glyph-name="dotaccent" unicode="&#x2d9;" horiz-adv-x="176" 
d="M96 648l-9 -42q-9 -3 -25 -3l-23 3l9 42q8 3 24 3z" />
    <glyph glyph-name="ring" unicode="&#x2da;" horiz-adv-x="344" 
d="M125 509q-49 0 -74 28t-14 78q10 48 49 76t85 28q45 0 73 -27.5t18 -76.5q-11 -49 -49.5 -77.5t-87.5 -28.5zM230 615q6 31 -10.5 53t-55.5 22q-38 0 -63 -22t-32 -53q-7 -32 8.5 -54.5t53.5 -22.5q39 0 65.5 23t33.5 54z" />
    <glyph glyph-name="ogonek" unicode="&#x2db;" horiz-adv-x="283" 
d="M-28 -170q7 -7 4 -22q-24 -16 -60 -16q-39 0 -56 20.5t-10 52.5q11 51 57.5 83t106.5 38l-4 -20q-45 -8 -81 -32t-45 -65q-5 -24 7 -36.5t37 -12.5q11 0 22 2.5t16 5.5z" />
    <glyph glyph-name="tilde" unicode="&#x2dc;" horiz-adv-x="327" 
d="M216 646q12 0 23.5 7t16.5 15l5 7q18 2 24 -11q-3 -5 -9.5 -13t-27 -21t-43.5 -13q-25 0 -53 18t-46 18q-12 0 -23.5 -7.5t-16.5 -15.5l-6 -7q-19 -2 -23 11q3 5 9.5 13t27 21.5t43.5 13.5q25 0 53 -18t46 -18z" />
    <glyph glyph-name="hungarumlaut" unicode="&#x2dd;" horiz-adv-x="386" 
d="M197 790l-156 -147q-18 1 -21 14l142 150q24 0 35 -17zM347 790l-156 -147q-18 1 -21 14l142 150q24 0 35 -17z" />
    <glyph glyph-name="pi" unicode="&#x3c0;" horiz-adv-x="594" 
d="M429 236l55 260h-303l-104 -493q-5 -3 -17 -3l-15 3l104 493l-73 -9q-1 4 1 16q2 9 6 13q36 10 133 10h382q2 -7 0 -15t-7 -15h-74l-55 -260q-16 -78 -19 -134.5t3 -73.5l5 -18q-8 -10 -27 -10q-6 0 -9 1q-3 7 -5.5 21.5t0.5 74.5t19 139z" />
    <glyph glyph-name="afii10023" unicode="&#x401;" horiz-adv-x="555" 
d="M374 831l-9 -42q-9 -3 -25 -3l-23 3l9 42q8 3 24 3zM515 831l-9 -42q-9 -3 -25 -3l-23 3l9 42q8 3 24 3zM43 0l153 720h385q1 -6 0 -16q-3 -11 -7 -16h-351l-65 -307h301q1 -6 0 -15q-3 -10 -7 -16h-301l-67 -318h361q1 -7 0 -15q-3 -10 -7 -17h-395z" />
    <glyph glyph-name="afii10017" unicode="&#x410;" horiz-adv-x="634" 
d="M516 3l-40 215h-353l-131 -215q-8 -3 -21 -3l-15 3l434 714q5 3 15 3l13 -3l132 -714q-6 -3 -19 -3zM374 631l-232 -381h328l-69 381l-4 38h-2q-7 -14 -21 -38z" />
    <glyph glyph-name="afii10018" unicode="&#x411;" horiz-adv-x="609" 
d="M561 688h-338l-61 -290h208q92 0 136 -54.5t25 -144.5q-20 -92 -82.5 -145.5t-153.5 -53.5h-252l153 720h372q2 -6 0 -16zM84 31h210q79 0 132 46t69 123q17 78 -17 122.5t-113 44.5h-210z" />
    <glyph glyph-name="afii10019" unicode="&#x412;" horiz-adv-x="628" 
d="M279 0h-236l153 720h232q95 0 134.5 -51.5t19.5 -142.5q-10 -45 -29.5 -78.5t-42 -50t-37 -24t-24.5 -9.5h1q60 -18 80 -77q15 -43 2 -104q-19 -91 -76 -137t-177 -46zM351 347h-200l-67 -315h201q96 0 145 39.5t66 117.5q17 82 -17.5 120t-127.5 38zM223 688l-65 -309
h193q166 0 195 155q15 77 -17 115.5t-116 38.5h-190z" />
    <glyph glyph-name="afii10020" unicode="&#x413;" horiz-adv-x="496" 
d="M44 3l152 717h355q2 -6 0 -16l-7 -16h-321l-145 -685q-7 -3 -18 -3z" />
    <glyph glyph-name="afii10021" unicode="&#x414;" horiz-adv-x="669" 
d="M560 32l-36 -170q-7 -3 -17 -3l-16 3l29 138h-533l-29 -138q-7 -3 -18 -3l-15 3l36 170h63q80 87 152 335l102 353h350l-146 -688h78zM301 689l-93 -328q-71 -244 -146 -329h386l139 657h-286z" />
    <glyph glyph-name="afii10022" unicode="&#x415;" horiz-adv-x="555" 
d="M43 0l153 720h385q1 -6 0 -16q-3 -11 -7 -16h-351l-65 -307h301q1 -6 0 -15q-3 -10 -7 -16h-301l-67 -318h361q1 -7 0 -15q-3 -10 -7 -17h-395z" />
    <glyph glyph-name="afii10024" unicode="&#x416;" horiz-adv-x="945" 
d="M476 389l69 328q7 3 18 3l16 -3l-69 -328h157l273 328q7 3 23 3l17 -3l-285 -348l163 -366q-8 -3 -20 -3l-22 3l-154 355h-159l-75 -355q-7 -3 -18 -3l-16 3l75 355h-165l-300 -355q-8 -3 -24 -3l-17 3l320 379l-139 335q8 3 18 3l18 -3l136 -328h160z" />
    <glyph glyph-name="afii10025" unicode="&#x417;" horiz-adv-x="540" 
d="M442 175q-17 -84 -86.5 -134.5t-199.5 -50.5q-48 0 -91.5 7t-62.5 15l-19 7q4 19 17 27q72 -24 160 -24q214 0 247 159q11 53 -0.5 89t-42 52.5t-62.5 23t-74 6.5h-50q-5 17 7 32h50q194 0 229 162q15 70 -23 111t-129 41q-41 0 -82.5 -7t-63.5 -14l-21 -7q-12 8 -7 28
q81 32 185 32q105 0 149 -53t26 -137q-9 -44 -29.5 -77.5t-43.5 -51t-44.5 -28.5t-35.5 -13l-14 -3q3 0 8 -1.5t20.5 -7t26.5 -14t27 -23t22.5 -34.5t11.5 -48t-5 -64z" />
    <glyph glyph-name="afii10026" unicode="&#x418;" horiz-adv-x="686" 
d="M562 590l-479 -587q-9 -3 -22 -3l-17 3l151 714q7 3 18 3l16 -3l-119 -550l-29 -120h2q29 42 68 90l475 580q7 3 21 3l18 -3l-151 -714q-6 -3 -18 -3l-16 3l116 542l31 130h-2q-19 -31 -63 -85z" />
    <glyph glyph-name="afii10027" unicode="&#x419;" horiz-adv-x="686" 
d="M607 881q-7 -6 -19.5 -14t-51.5 -22t-78 -14q-38 0 -71.5 12.5t-48.5 24.5l-14 13q8 15 22 20q46 -41 116 -41q30 0 63 10t51 20l18 11q13 -4 13 -20zM83 3l478 587q20 24 35.5 45.5t21.5 30.5l6 9h2q-9 -26 -31 -130l-115 -542q4 -3 16 -3l18 3l151 714q-5 3 -18 3
l-21 -3l-473 -580l-68 -90h-2q14 48 29 120l117 550q-4 3 -16 3l-18 -3l-151 -714q5 -3 17 -3z" />
    <glyph glyph-name="afii10028" unicode="&#x41a;" horiz-adv-x="605" 
d="M229 717l-69 -327h143l298 327q7 3 22 3l18 -3l-312 -346l189 -368q-7 -3 -20 -3l-19 3l-181 355h-145l-75 -355q-7 -3 -18 -3l-16 3l151 714q7 3 18 3z" />
    <glyph glyph-name="afii10029" unicode="&#x41b;" horiz-adv-x="654" 
d="M-16 -6q-16 0 -26 5q-2 5 0 14l6 15q14 -2 19 -2q17 0 28.5 3t33.5 23t42 56.5t48.5 109.5t58.5 176l94 326h345l-152 -717q-7 -3 -18 -3q-17 0 -16 3l145 685h-281l-85 -296q-31 -107 -61 -183.5t-53 -117.5t-48 -63.5t-41.5 -28t-38.5 -5.5z" />
    <glyph glyph-name="afii10030" unicode="&#x41c;" horiz-adv-x="846" 
d="M640 3l122 576q6 30 13 56t11 37l3 11h-2q-17 -27 -52 -69l-324 -407q-7 -3 -17 -3l-15 3l-142 407l-20 69h-2q-2 -39 -18 -114l-120 -566q-5 -3 -17 -3l-16 3l151 714q9 3 23 3l19 -3l145 -418l16 -53h2q14 18 42 53l334 418q7 3 27 3l22 -3l-151 -714q-6 -3 -18 -3z
" />
    <glyph glyph-name="afii10031" unicode="&#x41d;" horiz-adv-x="676" 
d="M551 385l70 332q7 3 18 3l16 -3l-151 -714q-6 -3 -18 -3l-16 3l74 350h-392l-74 -350q-7 -3 -18 -3l-16 3l151 714q7 3 18 3l16 -3l-70 -332h392z" />
    <glyph glyph-name="afii10032" unicode="&#x41e;" horiz-adv-x="677" 
d="M275 -10q-266 0 -190 370q77 370 341 370q266 0 189 -370q-76 -370 -340 -370zM426 700q-229 0 -305 -340q-75 -340 157 -340q226 0 301 340q76 340 -153 340z" />
    <glyph glyph-name="afii10033" unicode="&#x41f;" horiz-adv-x="665" 
d="M196 720h448l-152 -717q-7 -3 -17 -3l-17 3l145 685h-380l-145 -685q-7 -3 -18 -3l-16 3z" />
    <glyph glyph-name="afii10034" unicode="&#x420;" horiz-adv-x="598" 
d="M355 309h-212l-65 -306q-6 -3 -18 -3l-16 3l152 717h238q91 0 132.5 -56.5t21.5 -149.5q-20 -94 -81.5 -149.5t-151.5 -55.5zM223 688l-74 -347h209q74 0 125.5 46t68.5 126q17 82 -14 128.5t-106 46.5h-209z" />
    <glyph glyph-name="afii10035" unicode="&#x421;" horiz-adv-x="553" 
d="M269 -10q-262 0 -183 376q40 185 123.5 274.5t216.5 89.5q48 0 88 -8t56 -16l15 -8q1 -7 -5 -15l-12 -12q-52 28 -143 28q-112 0 -188 -77t-116 -263q-18 -98 -18 -163t24.5 -103.5t61.5 -54.5t92 -16q44 0 85.5 7t61.5 14l19 7q5 -2 7 -11l-1 -16q-66 -33 -184 -33z" />
    <glyph glyph-name="afii10036" unicode="&#x422;" horiz-adv-x="524" 
d="M121 720h457q2 -4 0 -15l-7 -16h-209l-145 -686q-6 -3 -18 -3l-16 3l145 686h-214q-1 6 1 16z" />
    <glyph glyph-name="afii10037" unicode="&#x423;" horiz-adv-x="603" 
d="M267 138l-159 579q6 3 20 3l16 -3l136 -504q6 -20 10 -45h2q4 7 14 23.5t15 24.5l301 501q3 3 19 3l19 -3l-317 -524q-73 -122 -118.5 -157.5t-111.5 -35.5q-14 0 -26.5 1.5t-18.5 2.5l-6 2q-2 15 8 30q21 -5 39 -5q33 0 53.5 5t49.5 29.5t61 72.5h-6z" />
    <glyph glyph-name="afii10038" unicode="&#x424;" horiz-adv-x="790" 
d="M451 646l17 80q7 3 18 3l16 -3l-17 -80q320 0 262 -275q-17 -78 -52.5 -131.5t-87.5 -82t-109 -40.5t-128 -12l-21 -102q-8 -3 -18 -3l-16 3l21 102q-319 0 -260 275q16 78 51.5 131.5t87.5 82t108.5 40.5t127.5 12zM343 135l102 481q-137 0 -221.5 -53t-112.5 -187
q-8 -48 -8.5 -84.5t13.5 -63.5t33.5 -44.5t50.5 -28.5t65.5 -15.5t77.5 -4.5zM479 616l-102 -481q137 0 222 53.5t114 187.5q8 48 8.5 84.5t-14 63t-34 44.5t-51 28.5t-66 15t-77.5 4.5z" />
    <glyph glyph-name="afii10039" unicode="&#x425;" horiz-adv-x="587" 
d="M633 717l-303 -348l160 -366q-8 -3 -22 -3l-18 3l-149 341l-285 -341q-12 -3 -26 -3l-18 3l307 365l-151 349q8 3 23 3l16 -3l140 -325l281 325q8 3 25 3z" />
    <glyph glyph-name="afii10040" unicode="&#x426;" horiz-adv-x="695" 
d="M516 -138l29 138h-502l152 717q7 3 18 3l16 -3l-145 -685h390l145 685q7 3 18 3l16 -3l-145 -685h77l-36 -170q-7 -3 -18 -3t-15 3z" />
    <glyph glyph-name="afii10041" unicode="&#x427;" horiz-adv-x="629" 
d="M504 381l71 336q7 3 18 3l16 -3l-151 -714q-7 -3 -18 -3l-16 3l73 344q-92 -43 -210 -43q-105 0 -152.5 53t-20.5 179l38 181q7 3 18 3l16 -3l-38 -180q-24 -110 11.5 -155.5t137.5 -45.5q52 0 103.5 11t77.5 23z" />
    <glyph glyph-name="afii10042" unicode="&#x428;" horiz-adv-x="958" 
d="M785 0h-742l152 717q6 3 18 3l16 -3l-145 -685h320l145 685q4 3 18 3l16 -3l-145 -685h320l145 685q6 3 18 3l16 -3z" />
    <glyph glyph-name="afii10043" unicode="&#x429;" horiz-adv-x="980" 
d="M801 -138l29 138h-786l152 717q6 3 18 3l16 -3l-145 -685h320l145 685q7 3 18 3l16 -3l-145 -685h320l145 685q7 3 18 3l16 -3l-145 -685h77l-36 -170q-9 -3 -17 -3q-10 0 -16 3z" />
    <glyph glyph-name="afii10044" unicode="&#x42a;" horiz-adv-x="679" 
d="M107 688q-2 6 1 16l6 16h166h5h17l-68 -322h213q91 0 133 -56.5t23 -147.5q-19 -90 -84 -142t-157 -52h-247l146 688h-154zM227 367l-71 -336h210q79 0 132 46t69 123q17 78 -17 122.5t-113 44.5h-210z" />
    <glyph glyph-name="afii10045" unicode="&#x42b;" horiz-adv-x="856" 
d="M162 398h213q90 0 132 -56.5t23 -147.5q-19 -90 -83.5 -142t-156.5 -52h-247l152 717q7 3 18 3l16 -3zM650 3l151 714q6 3 18 3l16 -3l-151 -714q-6 -3 -18 -3zM155 367l-71 -336h210q79 0 132 46t69 123q17 78 -17 122.5t-113 44.5h-210z" />
    <glyph glyph-name="afii10046" unicode="&#x42c;" horiz-adv-x="606" 
d="M162 398h213q91 0 132.5 -55.5t22.5 -146.5t-83.5 -143.5t-156.5 -52.5h-247l152 717q7 3 18 3l16 -3zM155 367l-71 -336h210q79 0 132 46t69 123q17 78 -17 122.5t-113 44.5h-210z" />
    <glyph glyph-name="afii10047" unicode="&#x42d;" horiz-adv-x="577" 
d="M321 730q136 0 184 -96t8 -281q-40 -189 -123 -276t-226 -87q-55 0 -100 8t-62 16l-18 9q0 6 5 15q3 4 6 7t5 4l1 1q61 -27 165 -27q116 0 193 73t117 254h-294q-1 6 1 16l6 16h294q33 173 -14 245t-159 72q-43 0 -84 -6.5t-61 -13.5l-20 -7q-6 2 -8 11l1 17
q70 30 183 30z" />
    <glyph glyph-name="afii10048" unicode="&#x42e;" horiz-adv-x="945" 
d="M44 3l151 714q7 3 18 3l16 -3l-72 -341h200q80 354 334 354q130 0 181.5 -90.5t10.5 -279.5q-40 -191 -124.5 -280.5t-212.5 -89.5q-127 0 -179.5 86.5t-16.5 267.5h-200l-72 -341q-7 -3 -18 -3zM691 700q-230 0 -304 -340q-72 -340 159 -340q229 0 301 340
q74 340 -156 340z" />
    <glyph glyph-name="afii10049" unicode="&#x42f;" horiz-adv-x="621" 
d="M231 326q-64 10 -94 64.5t-14 132.5q20 91 82.5 144t153.5 53h241l-152 -717q-6 -3 -18 -3l-16 3l67 317h-213l-235 -317q-9 -3 -22 -3l-18 3zM488 352l71 336h-209q-73 0 -124.5 -44.5t-68.5 -123.5q-17 -80 13.5 -124t102.5 -44h215z" />
    <glyph glyph-name="afii10065" unicode="&#x430;" 
d="M459 436l23 90q2 3 14 3l14 -3l-111 -523q-5 -3 -14 -3l-12 3l13 87q-69 -100 -189 -100q-197 0 -139 273q31 147 94.5 210t160.5 63q57 0 96 -27.5t50 -72.5zM436 326q16 67 -15.5 123.5t-101.5 56.5q-92 0 -145 -57t-82 -186q-29 -128 -1.5 -185.5t116.5 -57.5
q74 0 129 55.5t71 124.5z" />
    <glyph glyph-name="afii10066" unicode="&#x431;" horiz-adv-x="567" 
d="M90 351q12 56 25 100t31 78t34.5 59t43 44.5t48.5 32t58.5 23t67 17t78.5 15.5q28 5 39 12t27 26q8 1 18 -2.5t13 -8.5q-13 -25 -33 -37.5t-64 -20.5q-58 -11 -91 -19t-71.5 -23t-61 -34.5t-47 -51t-42 -75t-34.5 -104.5h1q72 132 214 132q91 0 132 -67t14 -198
q-29 -134 -93 -196.5t-164 -62.5q-35 0 -62 7.5t-52.5 31t-37.5 62t-11 105t20 155.5zM333 483q-72 0 -133.5 -54.5t-88.5 -176.5q-27 -124 12 -178.5t111 -54.5q81 0 138.5 53t84.5 180q48 231 -124 231z" />
    <glyph glyph-name="afii10067" unicode="&#x432;" horiz-adv-x="513" 
d="M333 526q68 0 99 -36.5t17 -102.5q-19 -88 -101 -121q87 -28 65 -131q-28 -135 -182 -135h-204l112 526h194zM284 252h-171l-48 -222h171q121 0 145 109q11 54 -13 83.5t-84 29.5zM164 496l-45 -214h158q56 0 92.5 28t47.5 80q22 106 -95 106h-158z" />
    <glyph glyph-name="afii10068" unicode="&#x433;" horiz-adv-x="395" 
d="M28 3l111 523h273q2 -5 0 -15l-7 -15h-241l-104 -493q-4 -3 -17 -3z" />
    <glyph glyph-name="afii10069" unicode="&#x434;" horiz-adv-x="562" 
d="M-32 30h46q57 62 113 258l70 238h302l-106 -496h63l-33 -155q-5 -3 -15 -3l-15 3l27 125h-428l-27 -125q-4 -3 -15 -3l-15 3zM218 496l-61 -212q-51 -180 -105 -254h309l99 466h-242z" />
    <glyph glyph-name="afii10070" unicode="&#x435;" horiz-adv-x="506" 
d="M426 252h-339q-22 -121 9.5 -175t119.5 -54q37 0 71 10t50 20l16 10q14 -9 12 -28q-7 -5 -19 -12.5t-54 -20t-88 -12.5q-99 0 -138 71t-11 205q30 137 97 203.5t161 66.5q87 0 124.5 -51.5t20.5 -132.5q-6 -27 -14 -52t-13 -36zM427 357q14 65 -13 107t-102 42
q-79 0 -135.5 -55.5t-83.5 -168.5h312q12 28 22 75z" />
    <glyph glyph-name="afii10072" unicode="&#x436;" horiz-adv-x="773" 
d="M370 290l49 233q5 3 17 3l15 -3l-49 -233h129l199 233q7 3 25 3l16 -3l-214 -253l129 -266q-7 -4 -21 -4l-17 4l-124 256h-129l-54 -257q-5 -3 -17 -3l-15 3l54 257h-129l-228 -256q-8 -4 -24 -4l-18 4l245 279l-110 240q4 3 18 3l19 -3l105 -233h129z" />
    <glyph glyph-name="afii10073" unicode="&#x437;" horiz-adv-x="450" 
d="M350 133q-15 -69 -67.5 -106t-164.5 -37q-41 0 -75.5 6.5t-48.5 13.5l-14 6q5 18 17 27q46 -22 126 -22q169 0 194 120q12 55 -24 83.5t-112 28.5h-53q-2 6 0 15l6 15h53q146 0 169 109q12 58 -15.5 86t-106.5 28q-33 0 -65 -5t-47 -10l-16 -5q-11 8 -3 27q56 23 147 23
q88 0 121 -40t19 -107q-20 -95 -112 -122q45 -13 63 -50t9 -84z" />
    <glyph glyph-name="afii10074" unicode="&#x438;" horiz-adv-x="579" 
d="M123 109l372 414q5 3 20 3l18 -3l-110 -520q-6 -3 -17 -3l-16 3l85 401l19 80h-2q-28 -35 -62 -73l-364 -408q-7 -3 -21 -3l-17 3l110 520q5 3 17 3l15 -3l-86 -407l-19 -74h2q19 26 56 67z" />
    <glyph glyph-name="afii10075" unicode="&#x439;" horiz-adv-x="579" 
d="M501 688q-6 -6 -16.5 -15t-46.5 -24t-74 -15t-69 13.5t-43 26.5l-11 14q7 14 22 19q4 -5 11.5 -12.5t34 -19.5t56.5 -12t60.5 11t46.5 22l15 11q15 -4 14 -19zM123 109l372 414q5 3 20 3l18 -3l-110 -520q-6 -3 -17 -3l-16 3l85 401l19 80h-2q-28 -35 -62 -73l-364 -408
q-7 -3 -21 -3l-17 3l110 520q5 3 17 3l15 -3l-86 -407l-19 -74h2q19 26 56 67z" />
    <glyph glyph-name="afii10076" unicode="&#x43a;" horiz-adv-x="494" 
d="M170 523l-50 -233h123l211 233q7 3 24 3l15 -2l-227 -252l141 -268q-6 -4 -20 -4l-18 4l-133 256h-123l-54 -257q-5 -3 -17 -3l-15 3l111 520q4 3 16 3z" />
    <glyph glyph-name="afii10077" unicode="&#x43b;" horiz-adv-x="550" 
d="M170 290q-40 -131 -70 -196.5t-52 -82.5t-56 -17l-31 4l-1 13l6 14q15 -3 29 -3q40 0 70.5 59.5t74.5 212.5l68 232h297l-111 -523q-5 -3 -17 -3l-15 3l104 493h-237z" />
    <glyph glyph-name="afii10078" unicode="&#x43c;" horiz-adv-x="675" 
d="M138 523q6 3 18 3l17 -3l128 -352l292 352q7 3 19 3l17 -3l-110 -520q-5 -3 -17 -3l-15 3l85 401q12 53 19 74h-2q-30 -43 -52 -70l-232 -276q-4 -2 -11 -2l-11 2l-102 272q-18 49 -21 74h-3q-2 -40 -10 -74l-87 -401q-5 -3 -17 -3l-15 3z" />
    <glyph glyph-name="afii10079" unicode="&#x43d;" horiz-adv-x="562" 
d="M374 3l53 253h-314l-53 -253q-5 -3 -17 -3l-15 3l110 520q5 3 17 3l15 -3l-50 -237h314l50 237q5 3 17 3l15 -3l-110 -520q-5 -3 -17 -3z" />
    <glyph glyph-name="afii10080" unicode="&#x43e;" horiz-adv-x="537" 
d="M207 -10q-100 0 -139 64.5t-11 208.5t92 208.5t164 64.5t139 -64.5t11 -208.5t-92 -208.5t-164 -64.5zM312 506q-83 0 -138 -55t-83 -188q-29 -133 2.5 -188t114.5 -55t137.5 55t83.5 188q28 133 -3 188t-114 55z" />
    <glyph glyph-name="afii10081" unicode="&#x43f;" horiz-adv-x="551" 
d="M363 3l104 493h-303l-104 -493q-5 -3 -17 -3l-15 3l111 523h367l-111 -523q-4 -3 -16 -3z" />
    <glyph glyph-name="afii10082" unicode="&#x440;" 
d="M79 95l-73 -342q-4 -3 -16 -3l-16 3l164 770q5 3 17 3l15 -3l-18 -84q71 97 183 97q97 0 136 -63.5t8 -209.5q-31 -147 -92.5 -210t-157.5 -63q-121 0 -150 105zM101 200q-14 -68 18 -124t103 -56q92 0 144 57t79 186q28 128 0.5 185.5t-119.5 57.5q-70 0 -125 -54
t-71 -120z" />
    <glyph glyph-name="afii10083" unicode="&#x441;" horiz-adv-x="442" 
d="M321 505q-179 0 -231 -242q-51 -241 133 -241q28 0 55 6t40 12l13 6q10 -7 8 -27q-50 -29 -130 -29q-99 0 -139 73t-12 209q27 131 95 197.5t168 66.5q34 0 61.5 -6t38.5 -12l11 -5q-3 -19 -18 -28q-33 20 -93 20z" />
    <glyph glyph-name="afii10084" unicode="&#x442;" horiz-adv-x="419" 
d="M76 526h362l1 -15l-8 -15h-165l-104 -493q-5 -3 -17 -3l-15 3l104 493h-165q-3 4 0 15z" />
    <glyph glyph-name="afii10085" unicode="&#x443;" horiz-adv-x="549" 
d="M472 523q6 3 17 3l15 -3l-111 -520q-30 -129 -92 -191t-173 -62q-35 0 -65.5 6t-42.5 12l-13 6q2 19 17 27q47 -19 111 -19q89 0 145 49t82 173l18 87q-90 -101 -202 -101q-71 0 -105.5 40.5t-20.5 107.5l82 385q6 3 17 3l15 -3l-80 -377q-27 -127 102 -127
q53 0 109.5 35t95.5 96z" />
    <glyph glyph-name="afii10086" unicode="&#x444;" horiz-adv-x="774" 
d="M341 16l-56 -263q-4 -3 -16 -3l-16 3l56 263q-47 -26 -127 -26q-97 0 -126 70t2 203q30 140 82 206.5t148 66.5q32 0 63.5 -6t47.5 -12l16 -5l50 234q4 3 16 3l16 -3l-50 -234q6 3 17 7t44 10t66 6q97 -1 126 -70.5t-2 -202.5q-30 -140 -82 -206.5t-148 -66.5
q-36 0 -67.5 6.5t-45.5 13.5zM317 50l91 431l-5 3q-5 2 -15 5.5t-23 7.5t-32.5 6.5t-41.5 2.5q-80 0 -126.5 -59t-72.5 -184q-28 -121 -6.5 -181.5t101.5 -60.5q32 0 64.5 7.5t48.5 14.5zM664 263q28 121 6.5 182t-101.5 61q-22 0 -43 -2.5t-35.5 -6.5t-26.5 -7.5t-18 -5.5
l-6 -3l-91 -431q44 -29 116 -29q80 0 126 58.5t73 183.5z" />
    <glyph glyph-name="afii10087" unicode="&#x445;" horiz-adv-x="483" 
d="M-31 3l243 265l-129 255q6 3 20 3l15 -3l119 -233l213 233q4 3 24 3l18 -3l-239 -259l133 -261q-6 -3 -20 -3l-15 3l-122 239l-218 -239q-5 -3 -26 -3z" />
    <glyph glyph-name="afii10088" unicode="&#x446;" horiz-adv-x="572" 
d="M508 523l-105 -493h63l-33 -155q-4 -3 -15 -3l-15 3l27 125h-403l111 523q5 3 17 3l15 -3l-105 -493h306l105 493q5 3 17 3z" />
    <glyph glyph-name="afii10089" unicode="&#x447;" horiz-adv-x="517" 
d="M471 523l-110 -520q-5 -3 -17 -3l-15 3l52 245l-9 -4q-9 -5 -11.5 -6.5t-12 -6t-14.5 -6.5t-15.5 -5.5t-17.5 -5.5t-18.5 -5t-21 -4t-22 -2t-24.5 -1q-91 0 -126 43.5t-19 119.5l33 158q5 3 17 3l15 -3l-34 -159q-14 -66 14 -99t105 -33q74 0 168 50l51 241q5 3 17 3z
" />
    <glyph glyph-name="afii10090" unicode="&#x448;" horiz-adv-x="803" 
d="M758 523l-111 -523h-620l111 523q5 3 17 3l15 -3l-105 -493h261l105 493q5 3 17 3l15 -3l-105 -493h263l105 493q5 3 17 3z" />
    <glyph glyph-name="afii10091" unicode="&#x449;" horiz-adv-x="822" 
d="M758 523l-105 -493h63l-33 -155q-4 -3 -15 -3l-15 3l27 125h-653l111 523q5 3 17 3l15 -3l-105 -493h261l105 493q5 3 17 3l15 -3l-105 -493h263l105 493q5 3 17 3z" />
    <glyph glyph-name="afii10092" unicode="&#x44a;" horiz-adv-x="556" 
d="M226 526l-50 -232h182q69 0 99 -42t15 -110q-14 -67 -59.5 -104.5t-116.5 -37.5h-214l105 496h-120q-2 4 1 15l6 15h152zM348 264h-178l-50 -234h178q116 0 141 116q12 57 -10.5 87.5t-80.5 30.5z" />
    <glyph glyph-name="afii10093" unicode="&#x44b;" horiz-adv-x="709" 
d="M170 523l-49 -229h182q69 0 99 -42.5t15 -110.5q-14 -67 -59.5 -104t-116.5 -37h-214l111 523q7 3 17 3zM293 264h-178l-50 -234h178q116 0 141 116q12 57 -10.5 87.5t-80.5 30.5zM663 523l-110 -520q-5 -3 -17 -3l-15 3l110 520q5 3 17 3z" />
    <glyph glyph-name="afii10094" unicode="&#x44c;" horiz-adv-x="499" 
d="M170 523l-49 -229h182q69 0 98.5 -42.5t14.5 -110.5q-14 -67 -59 -104t-116 -37h-214l111 523q7 3 17 3zM293 264h-178l-50 -234h178q116 0 141 116q12 57 -10.5 87.5t-80.5 30.5z" />
    <glyph glyph-name="afii10095" unicode="&#x44d;" horiz-adv-x="448" 
d="M337 251h-222q-4 16 7 30h221q21 113 -10.5 169t-122.5 56q-27 0 -53 -4.5t-39 -9.5l-13 -4q-10 8 -6 28q48 20 124 20q100 0 139.5 -72t11.5 -205q-28 -132 -97.5 -200.5t-169.5 -68.5q-36 0 -67 7t-44 15l-14 7q5 16 18 25q42 -22 103 -22q182 0 234 229z" />
    <glyph glyph-name="afii10096" unicode="&#x44e;" horiz-adv-x="778" 
d="M170 523l-53 -249h175q31 138 95 200t163 62q212 0 154 -273q-31 -144 -95 -208.5t-165 -64.5q-205 0 -158 254h-175l-51 -241q-5 -3 -17 -3l-15 3l110 520q5 3 17 3zM549 507q-85 0 -142 -55.5t-85 -188.5q-29 -133 4.5 -188.5t118.5 -55.5t140.5 55.5t84.5 188.5
q28 133 -4 188.5t-117 55.5z" />
    <glyph glyph-name="afii10097" unicode="&#x44f;" horiz-adv-x="519" 
d="M331 3l47 221h-161l-22 1l-169 -222q-9 -3 -23 -3l-16 3l175 227q-48 13 -67.5 51t-8.5 93q15 70 65.5 111t127.5 41h195l-111 -523q-5 -3 -17 -3zM276 496q-129 0 -156 -122q-25 -120 96 -120h168l51 242h-159z" />
    <glyph glyph-name="afii10071" unicode="&#x451;" horiz-adv-x="506" 
d="M292 677l-8 -42q-9 -3 -25 -3l-23 3l8 42q9 3 25 3zM433 677l-8 -42q-9 -3 -25 -3l-23 3l8 42q9 3 25 3zM426 252h-339q-22 -121 9.5 -175t119.5 -54q37 0 71 10t50 20l16 10q14 -9 12 -28q-7 -5 -19 -12.5t-54 -20t-88 -12.5q-99 0 -138 71t-11 205q30 137 97 203.5
t161 66.5q87 0 124.5 -51.5t20.5 -132.5q-6 -27 -14 -52t-13 -36zM427 357q14 65 -13 107t-102 42q-79 0 -135.5 -55.5t-83.5 -168.5h312q12 28 22 75z" />
    <glyph glyph-name="Wgrave" unicode="&#x1e80;" horiz-adv-x="940" 
d="M595 768l-108 136q14 19 34 21l100 -140q-8 -14 -26 -17zM605 3l-52 577q-2 26 -2.5 47t0.5 29l1 8h-2q-6 -25 -37 -84l-301 -577q-6 -3 -15 -3l-13 3l-67 714q6 3 18 3l17 -3l53 -574l3 -92h2q10 37 39 92l298 574q4 3 15 3l13 -3l51 -574q2 -24 2 -47t-1 -34l-1 -11h2
q12 37 40 92l288 574q5 3 20 3l15 -3l-358 -714q-5 -3 -15 -3z" />
    <glyph glyph-name="wgrave" unicode="&#x1e81;" horiz-adv-x="789" 
d="M471 616l-100 134q14 18 33 19l92 -138q-9 -14 -25 -15zM492 3l-47 357q-3 25 -5.5 47t-3 34.5t-0.5 21.5v13v3h-3q-13 -28 -64 -119l-200 -357q-5 -3 -14 -3l-12 3l-63 520q6 3 18 3l16 -3l45 -395q3 -23 3.5 -42.5t-0.5 -27.5v-9h3q12 30 39 79l222 395q5 3 16 3l15 -3
l51 -393q3 -23 3.5 -43t-0.5 -29l-1 -9h3q11 28 40 81l213 393q6 3 19 3l15 -3l-282 -520q-5 -3 -14 -3z" />
    <glyph glyph-name="Wacute" unicode="&#x1e82;" horiz-adv-x="940" 
d="M668 916l-157 -147q-16 1 -21 14l149 150q21 0 29 -17zM605 3l-52 577q-2 26 -2.5 47t0.5 29l1 8h-2q-6 -25 -37 -84l-301 -577q-6 -3 -15 -3l-13 3l-67 714q6 3 18 3l17 -3l53 -574l3 -92h2q10 37 39 92l298 574q4 3 15 3l13 -3l51 -574q2 -24 2 -47t-1 -34l-1 -11h2
q12 37 40 92l288 574q5 3 20 3l15 -3l-358 -714q-5 -3 -15 -3z" />
    <glyph glyph-name="wacute" unicode="&#x1e83;" horiz-adv-x="789" 
d="M563 757l-156 -147q-18 1 -21 14l148 150q21 0 29 -17zM492 3l-47 357q-3 25 -5.5 47t-3 34.5t-0.5 21.5v13v3h-3q-13 -28 -64 -119l-200 -357q-5 -3 -14 -3l-12 3l-63 520q6 3 18 3l16 -3l45 -395q3 -23 3.5 -42.5t-0.5 -27.5v-9h3q12 30 39 79l222 395q5 3 16 3l15 -3
l51 -393q3 -23 3.5 -43t-0.5 -29l-1 -9h3q11 28 40 81l213 393q6 3 19 3l15 -3l-282 -520q-5 -3 -14 -3z" />
    <glyph glyph-name="Wdieresis" unicode="&#x1e84;" horiz-adv-x="940" 
d="M536 839l-9 -42q-8 -3 -24 -3l-24 3l9 42q9 3 25 3zM677 839l-9 -42q-8 -3 -24 -3l-24 3l9 42q9 3 25 3zM605 3l-52 577q-2 26 -2.5 47t0.5 29l1 8h-2q-6 -25 -37 -84l-301 -577q-6 -3 -15 -3l-13 3l-67 714q6 3 18 3l17 -3l53 -574l3 -92h2q10 37 39 92l298 574
q4 3 15 3l13 -3l51 -574q2 -24 2 -47t-1 -34l-1 -11h2q12 37 40 92l288 574q5 3 20 3l15 -3l-358 -714q-5 -3 -15 -3z" />
    <glyph glyph-name="wdieresis" unicode="&#x1e85;" horiz-adv-x="789" 
d="M421 677l-8 -42q-9 -3 -25 -3l-23 3l8 42q9 3 25 3zM562 677l-8 -42q-9 -3 -25 -3l-23 3l8 42q9 3 25 3zM492 3l-47 357q-3 25 -5.5 47t-3 34.5t-0.5 21.5v13v3h-3q-13 -28 -64 -119l-200 -357q-5 -3 -14 -3l-12 3l-63 520q6 3 18 3l16 -3l45 -395q3 -23 3.5 -42.5
t-0.5 -27.5v-9h3q12 30 39 79l222 395q5 3 16 3l15 -3l51 -393q3 -23 3.5 -43t-0.5 -29l-1 -9h3q11 28 40 81l213 393q6 3 19 3l15 -3l-282 -520q-5 -3 -14 -3z" />
    <glyph glyph-name="Ygrave" unicode="&#x1ef2;" horiz-adv-x="606" 
d="M111 717q8 3 22 3l16 -3l158 -375l324 375q6 3 23 3l20 -3l-355 -412l-64 -302q-7 -3 -18 -3l-16 3l64 301zM409 757l-94 147q14 16 32 16l85 -150q-9 -12 -23 -13z" />
    <glyph glyph-name="ygrave" unicode="&#x1ef3;" horiz-adv-x="549" 
d="M368 599l-100 134q14 17 34 19l91 -138q-9 -14 -25 -15zM472 523q6 3 17 3l15 -3l-111 -520q-30 -129 -92 -191t-173 -62q-35 0 -65.5 6t-42.5 12l-13 6q2 19 17 27q47 -19 111 -19q89 0 145 49t82 173l18 84q-87 -98 -203 -98q-71 0 -105 40.5t-20 107.5l82 385
q6 3 17 3l15 -3l-80 -377q-27 -127 102 -127q53 0 109.5 35t95.5 96z" />
    <glyph glyph-name="endash" unicode="&#x2013;" horiz-adv-x="559" 
d="M461 275h-380q-2 4 1 15l6 15h380q2 -4 0 -15z" />
    <glyph glyph-name="emdash" unicode="&#x2014;" horiz-adv-x="809" 
d="M711 275h-630q-2 4 1 15l6 15h630q2 -4 0 -15z" />
    <glyph glyph-name="quoteleft" unicode="&#x2018;" horiz-adv-x="202" 
d="M206 720l13 -12q-35 -28 -51 -82l18 -3l-9 -42q-8 -3 -24 -3l-24 3l7 32q7 31 24.5 58t31.5 38z" />
    <glyph glyph-name="quoteright" unicode="&#x2019;" horiz-adv-x="199" 
d="M141 578l-14 12q34 28 51 82l-18 3l9 42q9 3 25 3l23 -3l-6 -32q-7 -31 -24.5 -58t-31.5 -38z" />
    <glyph glyph-name="quotesinglbase" unicode="&#x201a;" horiz-adv-x="195" 
d="M-6 -94l-13 12q33 28 50 82l-17 3l9 42q8 3 24 3l24 -3l-7 -32q-7 -31 -24.5 -58t-31.5 -38z" />
    <glyph glyph-name="quotedblleft" unicode="&#x201c;" horiz-adv-x="302" 
d="M206 720l13 -12q-35 -28 -51 -82l18 -3l-9 -42q-8 -3 -24 -3l-24 3l7 32q7 31 24.5 58t31.5 38zM306 720l13 -12q-35 -28 -51 -82l18 -3l-9 -42q-8 -3 -24 -3l-24 3l7 32q7 31 24.5 58t31.5 38z" />
    <glyph glyph-name="quotedblright" unicode="&#x201d;" horiz-adv-x="299" 
d="M141 578l-14 12q34 28 51 82l-18 3l9 42q9 3 25 3l23 -3l-6 -32q-7 -31 -24.5 -58t-31.5 -38zM241 578l-14 12q34 28 51 82l-18 3l9 42q9 3 25 3l23 -3l-6 -32q-7 -31 -24.5 -58t-31.5 -38z" />
    <glyph glyph-name="quotedblbase" unicode="&#x201e;" horiz-adv-x="298" 
d="M-6 -94l-13 12q33 28 50 82l-17 3l9 42q8 3 24 3l24 -3l-7 -32q-7 -31 -24.5 -58t-31.5 -38zM97 -94l-13 12q33 28 50 82l-17 3l9 42q8 3 24 3l24 -3l-7 -32q-7 -31 -24.5 -58t-31.5 -38z" />
    <glyph glyph-name="dagger" unicode="&#x2020;" horiz-adv-x="581" 
d="M330 442l-111 -553l-21 -16l-16 16l125 553l-243 -6l-1 17l8 16l241 -5l42 234q7 3 20 3l17 -3l-56 -234l245 5q2 -5 -1 -16l-6 -17z" />
    <glyph glyph-name="daggerdbl" unicode="&#x2021;" horiz-adv-x="636" 
d="M293 136l243 7q3 -4 0 -17l-7 -16l-240 7l-43 -236q-5 -3 -20 -3l-17 3l57 236l-243 -7q-2 4 1 16l6 17l240 -7l25 153l40 153l-243 -6q-3 4 0 17l7 16l241 -5l42 234q5 3 20 3l17 -3l-56 -234l242 5q2 -4 -1 -16l-6 -17l-240 6l-26 -153z" />
    <glyph glyph-name="bullet" unicode="&#x2022;" horiz-adv-x="279" 
d="M165 282q-7 -30 -37 -30q-13 0 -20.5 8.5t-4.5 21.5q7 31 37 31q14 0 21 -8.5t4 -22.5z" />
    <glyph glyph-name="ellipsis" unicode="&#x2026;" horiz-adv-x="500" 
d="M73 45l-9 -42q-9 -3 -25 -3l-23 3l9 42q8 3 24 3zM221 45l-9 -42q-9 -3 -25 -3l-23 3l9 42q8 3 24 3zM369 45l-9 -42q-9 -3 -25 -3l-23 3l9 42q8 3 24 3z" />
    <glyph glyph-name="perthousand" unicode="&#x2030;" horiz-adv-x="1058" 
d="M190 345q-127 0 -90 173t164 173q128 0 91 -173t-165 -173zM257 661q-91 0 -122 -143q-16 -77 0.5 -109.5t61.5 -32.5t75.5 32.5t46.5 109.5q31 143 -62 143zM670 699l-540 -706q-7 -3 -21 -3l-18 3l540 706q6 3 20 3zM492 -10q-127 0 -90 173t163 173q128 0 92 -173
q-37 -173 -165 -173zM559 306q-93 0 -122 -143q-16 -77 0 -109.5t61 -32.5q93 0 123 142q30 143 -62 143zM812 -10q-127 0 -90 173t163 173q128 0 92 -173q-37 -173 -165 -173zM879 306q-93 0 -122 -143q-16 -77 0 -109.5t61 -32.5q93 0 123 142q30 143 -62 143z" />
    <glyph glyph-name="guilsinglleft" unicode="&#x2039;" horiz-adv-x="341" 
d="M55 284l255 225q12 -7 8 -25l-240 -214l149 -215q-5 -19 -19 -25l-159 226q-2 5 0 14z" />
    <glyph glyph-name="guilsinglright" unicode="&#x203a;" horiz-adv-x="339" 
d="M116 509l159 -225q2 -5 0 -14l-6 -14l-255 -226q-12 7 -7 25l239 215l-148 214q4 19 18 25z" />
    <glyph glyph-name="fraction" unicode="&#x2044;" horiz-adv-x="123" 
d="M-218 -6l538 705q6 3 18 3l17 -3l-539 -705q-7 -4 -19 -4z" />
    <glyph glyph-name="zeroinferior" unicode="&#x2080;" horiz-adv-x="345" 
d="M84 -101q-64 0 -85.5 42.5t-1.5 134.5q20 90 59.5 133t103.5 43t85.5 -42.5t2.5 -133.5t-59.5 -134t-104.5 -43zM155 230q-54 0 -85.5 -36.5t-48.5 -117.5q-18 -81 -2 -118t70 -37t86 37t49 118q18 80 1.5 117t-70.5 37z" />
    <glyph glyph-name="oneinferior" unicode="&#x2081;" horiz-adv-x="242" 
d="M4 172q72 18 133 73q4 2 12 2q9 0 11 -2l-72 -339q-4 -2 -11 -2q-8 0 -12 2l57 266q4 20 9 41q-59 -44 -127 -61q-7 7 0 20z" />
    <glyph glyph-name="twoinferior" unicode="&#x2082;" horiz-adv-x="301" 
d="M-37 -55q8 38 33.5 64t57 40.5t62.5 27.5t55.5 33.5t30.5 49.5q6 31 -10 50.5t-65 19.5q-17 0 -36 -2.5t-30 -5.5l-11 -2q-5 10 -1 20q36 12 86 12q59 0 79.5 -24.5t11.5 -65.5q-8 -37 -34.5 -62t-59.5 -39t-65.5 -29t-56 -41t-27.5 -64h191q3 -4 1 -12q-1 -6 -5 -11
h-211q-1 18 4 41z" />
    <glyph glyph-name="threeinferior" unicode="&#x2083;" horiz-adv-x="304" 
d="M192 -4q-21 -97 -151 -97q-22 0 -42.5 3.5t-30.5 6.5l-9 3q2 13 10 18q33 -10 76 -10q63 0 89.5 21t33.5 55q9 39 -12 58t-61 19h-43q-2 12 5 22h43q77 0 92 68q7 33 -11 50t-59 17q-21 0 -41.5 -2t-30.5 -4l-11 -3q-5 9 -1 19q38 12 89 12q53 0 75.5 -22.5t13.5 -65.5
q-11 -56 -65 -79q27 -12 38 -31.5t3 -57.5z" />
    <glyph glyph-name="fourinferior" unicode="&#x2084;" horiz-adv-x="324" 
d="M183 24h43q1 -4 0 -11l-5 -12h-43l-20 -95q-3 -2 -11 -2l-12 2l20 95h-184q-1 2 0 7l3 8l232 229q3 2 12 2l12 -2zM10 24h150l40 187z" />
    <glyph glyph-name="fiveinferior" unicode="&#x2085;" horiz-adv-x="300" 
d="M74 224l-26 -118q84 0 121 -23t24 -82q-22 -102 -152 -102q-22 0 -42.5 3.5t-30.5 6.5l-9 3q2 13 10 19q34 -10 76 -10q106 0 123 79q10 47 -18.5 65t-103.5 18h-26l34 164h172q4 -11 -4 -23h-148z" />
    <glyph glyph-name="sixinferior" unicode="&#x2086;" horiz-adv-x="308" 
d="M21 76q46 27 101 27q49 0 71 -27t13 -72q-11 -51 -49 -78t-83 -27q-115 0 -83 151q17 81 75 136t152 64q5 -9 -2 -20q-76 -10 -126 -50t-69 -104zM14 49q-26 -129 65 -129q38 0 66 22.5t36 61.5q7 33 -10 55t-56 22q-62 0 -101 -32z" />
    <glyph glyph-name="seveninferior" unicode="&#x2087;" horiz-adv-x="272" 
d="M195 224h-181q-6 11 4 23h204q1 -7 -2 -20q-8 -39 -28 -70.5t-44 -54.5t-48 -47.5t-45.5 -62t-31.5 -86.5q-6 -2 -13 -2q-8 0 -12 2q11 51 32.5 91t46 65.5t48.5 48t43.5 51t26.5 62.5z" />
    <glyph glyph-name="eightinferior" unicode="&#x2088;" horiz-adv-x="322" 
d="M150 252q49 0 71.5 -21t14.5 -61q-13 -59 -80 -93q66 -33 54 -88q-9 -42 -45 -66t-90 -24q-53 0 -79.5 23t-17.5 67q13 65 92 104q-52 30 -41 79q8 37 39 58.5t82 21.5zM81 -80q40 0 69 17.5t35 49.5q4 9 1 19t-4 16t-9 13.5t-13 11.5t-16 10t-18 9t-18.5 8.5t-18.5 8.5
q-75 -36 -87 -93q-8 -36 12.5 -53t66.5 -17zM144 231q-37 0 -61.5 -15.5t-29.5 -41.5q-4 -6 -1.5 -14t1.5 -12.5t4.5 -11t7 -9.5t9 -8t10.5 -7.5t12.5 -7t13.5 -6.5t13.5 -6t13.5 -6q64 36 75 83q6 30 -11.5 46t-56.5 16z" />
    <glyph glyph-name="nineinferior" unicode="&#x2089;" horiz-adv-x="308" 
d="M188 75q-44 -27 -101 -27q-49 0 -71 27t-13 72q11 51 49 78t83 27q115 0 83 -151q-17 -81 -75 -136t-152 -64q-5 9 2 20q76 10 126 50t69 104zM195 102q26 129 -65 129q-38 0 -66 -22.5t-36 -61.5q-7 -33 10 -55t56 -22q62 0 101 32z" />
    <glyph glyph-name="Euro" unicode="&#x20ac;" horiz-adv-x="581" 
d="M395 243h-234q-14 -122 26 -172.5t127 -50.5q39 0 75 6t53 12l17 7q5 -2 6 -10l-1 -14q-56 -31 -161 -31q-103 0 -146.5 62.5t-29.5 190.5h-82q-3 4 2 14l9 14h75q6 43 11 64q10 48 16 67h-80q-2 4 2 14l9 14h78q83 250 282 250q45 0 79.5 -7.5t47.5 -14.5l12 -8
q1 -6 -5 -14l-11 -10q-44 25 -124 25q-85 0 -146.5 -50.5t-100.5 -170.5h279q2 -3 -2 -14l-9 -14h-277q-15 -62 -16 -68q-8 -39 -11 -63h241q2 -2 -2 -14z" />
    <glyph glyph-name="afii61289" unicode="&#x2113;" horiz-adv-x="449" 
d="M24 192q-11 9 -6 25q44 19 101 52l54 253q26 126 69 177t122 51q64 0 88 -39.5t9 -109.5q-19 -92 -105 -184.5t-209 -164.5l-25 -116q-14 -64 3 -90t66 -26q31 0 67 14t56 28l21 15q6 0 11 -5t4 -12q-8 -8 -23 -19.5t-60.5 -31t-89.5 -19.5q-69 0 -84.5 47t8.5 148l11 50
q-45 -23 -88 -43zM215 574l-61 -288q239 155 272 314q27 121 -66 121q-57 0 -92.5 -33t-52.5 -114z" />
    <glyph glyph-name="uni2117" unicode="&#x2117;" horiz-adv-x="807" 
d="M428 266h-106l-26 -125q-6 -3 -16 -3q-7 0 -13 3l81 382h135q59 0 87 -35.5t16 -92.5q-13 -59 -56 -94t-102 -35zM371 496l-43 -203h103q47 0 80 26t44 76q10 48 -12 74.5t-69 26.5h-103zM340 5q-139 0 -216 98t-48 237q30 139 148.5 236.5t257.5 97.5t216 -97.5
t47 -236.5q-29 -139 -147.5 -237t-257.5 -98zM476 646q-127 0 -236 -89.5t-136 -216.5t44 -217t198 -90t235.5 90t135.5 217t-43.5 216.5t-197.5 89.5z" />
    <glyph glyph-name="trademark" unicode="&#x2122;" horiz-adv-x="628" 
d="M128 720h203q5 -9 -4 -21h-90l-57 -264q-3 -3 -11 -3l-10 3l57 264h-92q-3 12 4 21zM544 435l54 251l-128 -174q-4 -3 -12 -3l-10 3l-50 174l-54 -251q-3 -3 -9 -3l-9 3l60 282q4 3 13 3l11 -3l54 -185l135 185q4 3 13 3l11 -3l-60 -282q-3 -3 -9 -3z" />
    <glyph glyph-name="Omega" unicode="&#x2126;" horiz-adv-x="711" 
d="M579 0h-227q-3 8 0 17q2 12 7 18q210 150 252 345q33 156 -13.5 238t-157.5 82t-192.5 -82t-114.5 -238q-7 -48 -8.5 -85.5t9 -75.5t21.5 -64t28.5 -52t29 -40.5t24.5 -27.5q3 -7 1 -17t-8 -18h-227q-2 9 -1 16q3 10 8 16h179q-3 3 -9.5 10t-19.5 24t-25 37t-23.5 50.5
t-18 63.5t-6 76t9.5 87q38 177 129.5 263.5t219.5 86.5t183.5 -86.5t17.5 -263.5q-13 -61 -42.5 -119t-59 -95.5t-65 -71t-50 -44.5t-24.5 -18h180q3 -7 0 -16q-1 -9 -7 -16z" />
    <glyph glyph-name="estimated" unicode="&#x212e;" horiz-adv-x="821" 
d="M671 583q-70 68 -178 68q-106 0 -206 -67l-47 -222h384zM562 95h67q-120 -105 -276 -105q-146 0 -227 103.5t-50 248.5q31 146 156 249t270 103q146 0 227.5 -103.5t50.5 -248.5l-5 -24h-544l-47 -218q77 -67 178 -67q99 0 200 62z" />
    <glyph glyph-name="onethird" unicode="&#x2153;" horiz-adv-x="697" 
d="M49 -8l540 707q4 3 13 3l12 -3l-539 -707q-4 -2 -13 -2zM599 92q-22 -97 -151 -97q-22 0 -42.5 3.5t-29.5 6.5l-10 3q0 11 9 18q33 -10 76 -10q63 0 89.5 20.5t34.5 55.5q8 39 -12.5 58t-60.5 19h-43q-4 11 5 22h43q76 0 91 68q7 33 -11 50t-59 17q-21 0 -41.5 -2
t-30.5 -4l-11 -3q-4 7 -1 19q38 12 89 12q53 0 75.5 -22.5t13.5 -65.5q-12 -57 -65 -79q27 -12 38.5 -31.5t3.5 -57.5zM104 614q73 18 134 73q4 2 12 2q9 0 11 -2l-72 -339q-4 -2 -11 -2q-8 0 -12 2l56 266q2 8 5.5 21.5t4.5 19.5q-59 -44 -127 -61q-7 7 -1 20z" />
    <glyph glyph-name="twothirds" unicode="&#x2154;" horiz-adv-x="761" 
d="M114 -8l540 707q4 3 13 3l12 -3l-539 -707q-4 -2 -13 -2zM664 92q-22 -97 -151 -97q-22 0 -42.5 3.5t-30.5 6.5l-9 3q0 11 9 18q33 -10 76 -10q62 0 89 20.5t35 55.5q8 39 -12.5 58t-60.5 19h-43q-4 11 5 22h43q76 0 91 68q7 33 -11 50t-59 17q-21 0 -41.5 -2t-31.5 -4
l-10 -3q-4 7 -1 19q38 12 89 12q53 0 75.5 -22.5t13.5 -65.5q-12 -57 -65 -79q27 -12 38.5 -31.5t3.5 -57.5zM70 387q8 38 33.5 64t57 40.5t62.5 27.5t55.5 33.5t30.5 49.5q6 31 -10 50.5t-65 19.5q-17 0 -36 -2.5t-30 -5.5l-11 -2q-5 10 -1 20q35 12 85 12q59 0 80 -24.5
t12 -65.5q-8 -37 -34.5 -62t-59.5 -39t-65.5 -29t-56 -41t-27.5 -64h191q3 -4 1 -12q-1 -6 -5 -11h-211q-1 18 4 41z" />
    <glyph glyph-name="oneeighth" unicode="&#x215b;" horiz-adv-x="696" 
d="M537 348q49 0 72 -21.5t14 -60.5q-12 -59 -79 -93q65 -33 53 -88q-9 -42 -44.5 -66t-89.5 -24q-53 0 -80 23t-18 67q13 65 92 104q-52 30 -41 79q8 37 39 58.5t82 21.5zM49 -8l540 707q4 3 13 3l12 -3l-539 -707q-4 -2 -13 -2zM104 614q73 18 134 73q4 2 12 2q9 0 11 -2
l-72 -339q-4 -2 -11 -2q-8 0 -12 2l56 266q2 8 5.5 21.5t4.5 19.5q-59 -44 -127 -61q-7 7 -1 20zM468 16q39 0 68.5 17.5t36.5 49.5q4 9 1 19t-4.5 16.5t-9 13.5t-13 11t-16 9.5t-18 9t-19 9t-18.5 8.5q-75 -36 -87 -93q-7 -36 13.5 -53t65.5 -17zM531 327q-37 0 -61 -15
t-30 -42q-6 -31 13 -48t60 -35q8 -3 12 -5q65 37 74 83q7 30 -11 46t-57 16z" />
    <glyph glyph-name="threeeighths" unicode="&#x215c;" horiz-adv-x="742" 
d="M583 348q49 0 72 -21.5t14 -60.5q-12 -59 -79 -93q65 -33 53 -88q-9 -42 -44.5 -66t-89.5 -24q-53 0 -80 23t-18 67q13 65 92 104q-52 30 -41 79q8 37 39 58.5t82 21.5zM95 -8l540 707q4 3 13 3l12 -3l-539 -707q-4 -2 -13 -2zM298 438q-21 -97 -151 -97q-22 0 -42.5 3.5
t-30.5 6.5l-9 3q2 13 10 18q33 -10 76 -10q63 0 89.5 21t33.5 55q9 39 -12 58t-61 19h-43q-2 12 5 22h43q77 0 92 68q7 33 -11 50t-59 17q-21 0 -41.5 -2t-30.5 -4l-11 -3q-5 9 -1 19q37 12 88 12q54 0 76.5 -23t13.5 -65q-13 -57 -65 -79q27 -12 38 -31.5t3 -57.5zM514 16
q39 0 68.5 17.5t36.5 49.5q4 9 1 19t-4.5 16.5t-9 13.5t-13 11t-16 9.5t-18 9t-19 9t-18.5 8.5q-75 -36 -87 -93q-7 -36 13.5 -53t65.5 -17zM577 327q-37 0 -61 -15t-30 -42q-6 -31 13 -48t60 -35q8 -3 12 -5q65 37 74 83q7 30 -11 46t-57 16z" />
    <glyph glyph-name="fiveeighths" unicode="&#x215d;" horiz-adv-x="740" 
d="M581 348q49 0 72 -21.5t14 -60.5q-12 -59 -79 -93q65 -33 53 -88q-9 -42 -44.5 -66t-89.5 -24q-53 0 -80 23t-18 67q13 65 92 104q-52 30 -41 79q8 37 39 58.5t82 21.5zM93 -8l540 707q4 3 13 3l12 -3l-539 -707q-4 -2 -13 -2zM181 666l-26 -118q84 0 121 -23t24 -82
q-22 -102 -152 -102q-22 0 -42.5 3.5t-29.5 6.5l-10 3q0 12 10 19q34 -10 76 -10q106 0 123 79q10 47 -18.5 65t-103.5 18h-26l34 164h172q4 -11 -4 -23h-148zM512 16q39 0 68.5 17.5t36.5 49.5q4 9 1 19t-4.5 16.5t-9 13.5t-13 11t-16 9.5t-18 9t-19 9t-18.5 8.5
q-75 -36 -87 -93q-7 -36 13.5 -53t65.5 -17zM575 327q-37 0 -61 -15t-30 -42q-6 -31 13 -48t60 -35q8 -3 12 -5q65 37 74 83q7 30 -11 46t-57 16z" />
    <glyph glyph-name="seveneighths" unicode="&#x215e;" horiz-adv-x="650" 
d="M491 348q49 0 72 -21.5t14 -60.5q-12 -59 -79 -93q65 -33 53 -88q-9 -42 -44.5 -66t-89.5 -24q-53 0 -80 23t-18 67q13 65 92 104q-52 30 -41 79q8 37 39 58.5t82 21.5zM3 -8l540 707q4 3 13 3l12 -3l-539 -707q-4 -2 -13 -2zM311 666h-181q-6 11 4 23h204q1 -7 -2 -20
q-8 -39 -28 -70.5t-44 -54.5t-48 -47.5t-45.5 -62t-31.5 -86.5q-6 -2 -13 -2q-8 0 -12 2q11 51 32.5 90.5t46 65t48.5 48.5t43.5 51.5t26.5 62.5zM422 16q39 0 68.5 17.5t36.5 49.5q4 9 1 19t-4.5 16.5t-9 13.5t-13 11t-16 9.5t-18 9t-19 9t-18.5 8.5q-75 -36 -87 -93
q-7 -36 13.5 -53t65.5 -17zM485 327q-37 0 -61 -15t-30 -42q-6 -31 13 -48t60 -35q4 -2 6.5 -3t5.5 -2q65 37 74 83q7 30 -11 46t-57 16z" />
    <glyph glyph-name="arrowleft" unicode="&#x2190;" horiz-adv-x="618" 
d="M59 350l245 202q15 -5 16 -20l-203 -167h455q0 -5 -2 -15l-5 -15h-455l132 -168q-7 -15 -24 -19z" />
    <glyph glyph-name="arrowup" unicode="&#x2191;" horiz-adv-x="485" 
d="M62 403l245 202l159 -202q-8 -15 -24 -20l-132 168l-97 -455q-5 -2 -15 -2l-15 2l97 455l-203 -168q-13 4 -15 20z" />
    <glyph glyph-name="arrowright" unicode="&#x2192;" horiz-adv-x="617" 
d="M418 552l159 -202l-245 -202q-13 4 -16 19l204 168h-455q-1 5 1 15l6 15h455l-133 167q7 14 24 20z" />
    <glyph glyph-name="arrowdown" unicode="&#x2193;" horiz-adv-x="485" 
d="M196 94l-159 202q10 16 24 20l131 -168l97 455q6 2 16 2l14 -2l-97 -455l204 168q15 -6 15 -20z" />
    <glyph glyph-name="uni2196" unicode="&#x2196;" horiz-adv-x="508" 
d="M69 244l61 286h286q2 -6 0 -14t-6 -14h-237l253 -321q-4 -5 -12 -12l-14 -10l-253 322l-50 -237q-7 -3 -15 -3t-13 3z" />
    <glyph glyph-name="uni2197" unicode="&#x2197;" horiz-adv-x="511" 
d="M474 530l-61 -286q-7 -3 -15 -3q-9 0 -13 3l50 237l-389 -322q-5 3 -10 10l-8 12l391 321h-237q-2 6 0 14t6 14h286z" />
    <glyph glyph-name="uni2198" unicode="&#x2198;" horiz-adv-x="502" 
d="M442 432l-61 -286h-286q-2 6 0 14t6 14h237l-254 321q4 5 13 12l14 10l252 -322l51 237q6 3 14 3t14 -3z" />
    <glyph glyph-name="uni2199" unicode="&#x2199;" horiz-adv-x="507" 
d="M52 147l61 286q6 3 15 3q7 0 13 -3l-50 -237l389 322q7 -1 12 -8q3 -3 4 -6.5t1 -5.5v-2l-390 -321h237q2 -6 0 -14t-6 -14h-286z" />
    <glyph glyph-name="partialdiff" unicode="&#x2202;" horiz-adv-x="553" 
d="M465 412q4 119 -55 203.5t-178 107.5q0 17 12 27q148 -30 212.5 -143.5t25.5 -299.5q-37 -173 -105 -245t-174 -72q-205 0 -149 262q28 135 93.5 198.5t157.5 63.5q130 0 160 -102zM209 19q173 0 223 233q27 126 -9.5 179t-122.5 53q-80 0 -132.5 -53t-79.5 -179
q-27 -125 6.5 -179t114.5 -54z" />
    <glyph glyph-name="Delta" unicode="&#x2206;" horiz-adv-x="638" 
d="M532 0h-549q-10 9 -10 24l421 693q6 3 19 3l17 -3l122 -693q-7 -14 -20 -24zM12 32h505q-30 158 -86 476l-17 95q-4 22 -6 42t-2 29l-1 9h-2q-11 -28 -43 -81l-58 -95z" />
    <glyph glyph-name="product" unicode="&#x220f;" horiz-adv-x="709" 
d="M680 693l-190 -897q-5 -3 -19 -3l-15 3l183 865h-419l-183 -865q-5 -3 -19 -3l-15 3l190 897h487z" />
    <glyph glyph-name="summation" unicode="&#x2211;" horiz-adv-x="564" 
d="M411 -207h-480l4 21l322 447l-121 417l3 16h457q2 -5 0 -16l-6 -16h-411l116 -401l-312 -436h435q2 -5 -1 -16z" />
    <glyph glyph-name="minus" unicode="&#x2212;" horiz-adv-x="466" 
d="M372 313h-280q-2 4 1 17l7 17h280q2 -4 -1 -17z" />
    <glyph glyph-name="uni2215" unicode="&#x2215;" horiz-adv-x="467" 
d="M-45 -6l538 705q6 3 18 3l17 -3l-539 -705q-7 -4 -19 -4z" />
    <glyph glyph-name="uni2219" unicode="&#x2219;" horiz-adv-x="219" 
d="M109 312q-23 0 -19 24q6 24 29 24q10 0 16 -6.5t3 -17.5q-2 -11 -10.5 -17.5t-18.5 -6.5z" />
    <glyph glyph-name="radical" unicode="&#x221a;" horiz-adv-x="621" 
d="M677 722l-401 -737h-33l-75 387l-120 -47q-11 8 -6 29l153 60l74 -382l381 698q20 3 27 -8z" />
    <glyph glyph-name="infinity" unicode="&#x221e;" horiz-adv-x="827" 
d="M211 191q33 0 64.5 14t52.5 33.5t37.5 39t24.5 33.5l7 14q0 3 -0.5 7.5t-4 18.5t-8.5 27t-15 28.5t-23 26.5t-33.5 18.5t-44.5 7.5q-70 0 -111.5 -40t-52.5 -94q-11 -55 13 -94.5t94 -39.5zM559 162q-38 0 -67 13.5t-43.5 33t-24 39t-12.5 32.5l-2 14q-3 -5 -8.5 -14
t-25 -32t-41.5 -40t-57 -31.5t-73 -14.5q-81 0 -113.5 48t-18.5 115t67 115t135 48q27 0 50 -7.5t38 -19t26.5 -25.5t17.5 -28.5t10 -26t5 -19.5l1 -7q3 5 9.5 14t27.5 32t43 40.5t56.5 32t69.5 14.5q81 0 113.5 -48t18.5 -115t-67 -115t-135 -48zM624 459q-33 0 -64.5 -14
t-53 -33.5t-38 -39t-24.5 -33.5l-7 -14q0 -5 1.5 -14.5t10 -32.5t21 -40.5t38.5 -32t59 -14.5q70 0 111 39.5t52 94.5t-12.5 94.5t-93.5 39.5z" />
    <glyph glyph-name="integral" unicode="&#x222b;" horiz-adv-x="498" 
d="M158 -51l134 631q14 68 53.5 104.5t99.5 36.5q65 0 115 -33q-5 -15 -18 -22q-47 27 -99 27q-95 0 -119 -111l-135 -633q-29 -140 -159 -140q-58 0 -108 35q4 15 18 22q46 -29 99 -29q96 0 119 112z" />
    <glyph glyph-name="approxequal" unicode="&#x2248;" horiz-adv-x="541" 
d="M203 374q-21 0 -42.5 -9t-32.5 -18l-10 -9q-18 3 -18 22q5 5 14 13t38.5 21t61.5 13q33 0 74.5 -25.5t72.5 -25.5q21 0 42.5 9t32.5 18l10 9q17 -3 20 -20q-4 -5 -13 -13.5t-39 -22t-64 -13.5q-33 0 -74.5 25.5t-72.5 25.5zM170 215q-21 0 -42.5 -9t-32.5 -18l-11 -9
q-19 3 -17 22q5 5 14 13t38.5 21t61.5 13q33 0 74 -25.5t72 -25.5q21 0 42.5 9t32.5 18l10 9q18 -3 20 -20q-4 -5 -13 -13.5t-39 -22t-64 -13.5q-33 0 -74 25.5t-72 25.5z" />
    <glyph glyph-name="notequal" unicode="&#x2260;" horiz-adv-x="458" 
d="M368 192h-206l-75 -98q-7 -3 -19 -3l-14 3l75 98h-89q-3 3 0 15l6 15h105l104 136h-180q-2 4 0 15l6 15h197l70 90q7 3 17 3l16 -3l-70 -90h98q3 -4 0 -15l-6 -15h-114l-105 -136h190q2 -4 0 -15z" />
    <glyph glyph-name="lessequal" unicode="&#x2264;" horiz-adv-x="472" 
d="M363 230l-263 118q-1 8 2 22l7 21l313 118q2 -4 0 -16l-7 -17l-283 -107l238 -104q2 -6 -1 -18zM341 128h-288q-2 3 0 15l7 15h288q2 -4 -1 -15z" />
    <glyph glyph-name="greaterequal" unicode="&#x2265;" horiz-adv-x="471" 
d="M390 348l-313 -118q-2 6 0 17l7 18l282 104l-237 107q-2 5 1 17l6 16l263 -118q1 -8 -1 -21zM343 128h-288q-2 4 0 15l7 15h288q2 -4 -1 -15z" />
    <glyph glyph-name="lozenge" unicode="&#x25ca;" horiz-adv-x="546" 
d="M501 352l-286 -345h-15l-135 345l282 344h15zM103 351l115 -299l246 299l-119 299z" />
    <glyph glyph-name="commaaccent" unicode="&#xf6c3;" horiz-adv-x="186" 
d="M-108 -94l-13 12q33 28 50 82l-17 3l9 42q8 3 24 3l24 -3l-7 -32q-7 -31 -24.5 -58t-31.5 -38z" />
    <glyph glyph-name="CR" horiz-adv-x="322" 
 />
    <glyph glyph-name="_0020" horiz-adv-x="0" 
 />
    <glyph glyph-name="_375" horiz-adv-x="646" 
d="M445 0h-549q-10 9 -10 24l421 693q6 3 19 3l17 -3l122 -693q-7 -14 -20 -24zM-75 32h505q-30 158 -86 476l-17 95q-4 22 -6.5 42t-2.5 29v9h-2q-11 -28 -43 -81l-58 -95z" />
    <glyph glyph-name="_376" horiz-adv-x="700" 
d="M484 0h-227q-3 8 0 17q2 12 7 18q210 150 252 345q33 156 -13.5 238t-157.5 82t-192.5 -82t-114.5 -238q-7 -48 -8.5 -85.5t9 -75.5t21.5 -64t28.5 -52t29 -40.5t24.5 -27.5q3 -7 1 -17t-8 -18h-227q-2 9 -1 16q3 10 8 16h179q-3 3 -9.5 10t-19.5 24t-25 37t-23.5 50.5
t-18 63.5t-6 76t9.5 87q38 177 129.5 263.5t219.5 86.5t183.5 -86.5t17.5 -263.5q-13 -61 -42.5 -119t-59 -95.5t-65 -71t-50 -44.5t-24.5 -18h180q3 -7 0 -16q-1 -9 -7 -16z" />
    <glyph glyph-name="commaaccent.alt" horiz-adv-x="166" 
d="M101 720l13 -12q-35 -28 -51 -82l18 -3l-9 -42q-8 -3 -24 -3l-24 3l7 32q7 31 24.5 58t31.5 38z" />
    <glyph glyph-name="eight.denom" horiz-adv-x="322" 
d="M170 348q49 0 72 -21.5t14 -60.5q-12 -59 -79 -93q65 -33 53 -88q-9 -42 -44.5 -66t-89.5 -24q-53 0 -80 23t-18 67q13 65 92 104q-52 30 -41 79q8 37 39 58.5t82 21.5zM101 16q39 0 68.5 17.5t36.5 49.5q4 9 1 19t-4.5 16.5t-9 13.5t-13 11t-16 9.5t-18 9t-19 9
t-18.5 8.5q-75 -36 -87 -93q-7 -36 13.5 -53t65.5 -17zM164 327q-37 0 -61 -15t-30 -42q-6 -31 13 -48t60 -35q8 -3 12 -5q65 37 74 83q7 30 -11 46t-57 16z" />
    <glyph glyph-name="eight.num" horiz-adv-x="322" 
d="M243 694q49 0 72 -21.5t15 -60.5q-13 -59 -80 -93q66 -34 54 -88q-9 -42 -45 -66t-90 -24q-53 0 -79.5 23t-17.5 67q13 65 92 104q-52 29 -42 79q8 37 39 58.5t82 21.5zM175 362q40 0 69 17.5t35 49.5q3 16 0 28.5t-16 23t-21 15.5t-30.5 15.5t-28.5 13.5
q-75 -36 -87 -93q-8 -36 12.5 -53t66.5 -17zM238 673q-37 0 -61.5 -15.5t-29.5 -41.5q-4 -6 -1.5 -14t1.5 -12.5t4.5 -11t7 -9.5t9 -8t10.5 -7.5t12.5 -7t13.5 -6.5t13.5 -6t13.5 -6q64 36 75 83q6 30 -11.5 46t-56.5 16z" />
    <glyph glyph-name="five.denom" horiz-adv-x="299" 
d="M93 320l-25 -118q84 0 120.5 -22.5t24.5 -82.5q-23 -102 -152 -102q-22 0 -42.5 3.5t-30.5 6.5l-9 3q0 12 10 19q34 -10 76 -10q106 0 122 79q10 47 -18.5 65t-103.5 18h-26l35 164h172q3 -10 -5 -23h-148z" />
    <glyph glyph-name="five.num" horiz-adv-x="301" 
d="M168 666l-26 -118q84 0 121 -23t24 -82q-22 -102 -152 -102q-22 0 -42.5 3.5t-30.5 6.5l-9 3q0 12 10 19q34 -10 76 -10q106 0 123 79q10 47 -18.5 65t-103.5 18h-26l34 164h172q4 -11 -4 -23h-148z" />
    <glyph glyph-name="four.denom" horiz-adv-x="323" 
d="M203 120h43q2 -4 0 -11l-4 -12h-43l-21 -95q-3 -2 -11 -2l-12 2l21 95h-184l-1 7l4 8l231 229q4 2 13 2l11 -2zM30 120h150l40 187z" />
    <glyph glyph-name="four.num" horiz-adv-x="324" 
d="M277 466h43q1 -4 0 -11l-5 -12h-43l-20 -95q-3 -2 -11 -2l-12 2l20 95h-184q-1 2 0 7l3 8l232 229q3 2 12 2l12 -2zM104 466h150l40 187z" />
    <glyph glyph-name="g.alt" horiz-adv-x="515" 
d="M139 214q-81 42 -57 152q17 80 72 125t139 45q60 0 100 -24l136 23q3 -19 -8 -36l-103 -11q36 -48 20 -122q-18 -80 -72 -125t-138 -45q-37 0 -64 8q-53 -48 -63 -94q-7 -32 24.5 -47t80.5 -20t96.5 -13.5t76 -38.5t16.5 -85q-15 -68 -84 -112t-189 -44q-96 0 -136 43.5
t-26 108.5q17 83 119 147q-21 21 -13 58q13 59 73 107zM128 -219q93 0 157 34.5t76 91.5q10 45 -17 69.5t-66.5 29.5t-93.5 11.5t-80 16.5q-44 -25 -72.5 -61t-36.5 -72q-12 -57 22 -88.5t111 -31.5zM290 508q-66 0 -112.5 -36.5t-61.5 -104.5q-15 -69 16.5 -105.5
t97.5 -36.5t112.5 36.5t61.5 105.5q15 68 -16.5 104.5t-97.5 36.5z" />
    <glyph glyph-name="gbreve.alt" horiz-adv-x="515" 
d="M461 688q-6 -6 -17 -14.5t-47 -23t-74 -14.5t-68.5 13t-42.5 26l-11 13q7 14 22 19q4 -5 12 -12t34.5 -19t56.5 -12t60 11t46 21l15 11q15 -4 14 -19zM139 214q-81 42 -57 152q17 80 72 125t139 45q60 0 100 -24l136 23q3 -19 -8 -36l-103 -11q36 -48 20 -122
q-18 -80 -72 -125t-138 -45q-37 0 -64 8q-53 -48 -63 -94q-7 -32 24.5 -47t80.5 -20t96.5 -13.5t76 -38.5t16.5 -85q-15 -68 -84 -112t-189 -44q-96 0 -136 43.5t-26 108.5q17 83 119 147q-21 21 -13 58q13 59 73 107zM128 -219q93 0 157 34.5t76 91.5q10 45 -17 69.5
t-66.5 29.5t-93.5 11.5t-80 16.5q-44 -25 -72.5 -61t-36.5 -72q-12 -57 22 -88.5t111 -31.5zM290 508q-66 0 -112.5 -36.5t-61.5 -104.5q-15 -69 16.5 -105.5t97.5 -36.5t112.5 36.5t61.5 105.5q15 68 -16.5 104.5t-97.5 36.5z" />
    <glyph glyph-name="gcircumflex.alt" horiz-adv-x="515" 
d="M321 721h25l100 -99q-7 -16 -19 -18l-97 87l-139 -89q-12 5 -12 20zM139 214q-81 42 -57 152q17 80 72 125t139 45q60 0 100 -24l136 23q3 -19 -8 -36l-103 -11q36 -48 20 -122q-18 -80 -72 -125t-138 -45q-37 0 -64 8q-53 -48 -63 -94q-7 -32 24.5 -47t80.5 -20
t96.5 -13.5t76 -38.5t16.5 -85q-15 -68 -84 -112t-189 -44q-96 0 -136 43.5t-26 108.5q17 83 119 147q-21 21 -13 58q13 59 73 107zM128 -219q93 0 157 34.5t76 91.5q10 45 -17 69.5t-66.5 29.5t-93.5 11.5t-80 16.5q-44 -25 -72.5 -61t-36.5 -72q-12 -57 22 -88.5
t111 -31.5zM290 508q-66 0 -112.5 -36.5t-61.5 -104.5q-15 -69 16.5 -105.5t97.5 -36.5t112.5 36.5t61.5 105.5q15 68 -16.5 104.5t-97.5 36.5z" />
    <glyph glyph-name="gcommaaccent.alt" horiz-adv-x="515" 
d="M361 727l15 -10q-34 -25 -49 -73l17 -3l-8 -37q-8 -2 -24 -2l-25 2l7 29q5 27 22 50.5t31 33.5zM139 214q-81 42 -57 152q17 80 72 125t139 45q60 0 100 -24l136 23q3 -19 -8 -36l-103 -11q36 -48 20 -122q-18 -80 -72 -125t-138 -45q-37 0 -64 8q-53 -48 -63 -94
q-7 -32 24.5 -47t80.5 -20t96.5 -13.5t76 -38.5t16.5 -85q-15 -68 -84 -112t-189 -44q-96 0 -136 43.5t-26 108.5q17 83 119 147q-21 21 -13 58q13 59 73 107zM128 -219q93 0 157 34.5t76 91.5q10 45 -17 69.5t-66.5 29.5t-93.5 11.5t-80 16.5q-44 -25 -72.5 -61t-36.5 -72
q-12 -57 22 -88.5t111 -31.5zM290 508q-66 0 -112.5 -36.5t-61.5 -104.5q-15 -69 16.5 -105.5t97.5 -36.5t112.5 36.5t61.5 105.5q15 68 -16.5 104.5t-97.5 36.5z" />
    <glyph glyph-name="gdotaccent.alt" horiz-adv-x="515" 
d="M347 676l-9 -42q-8 -3 -24 -3l-24 3l9 42q9 3 25 3zM139 214q-81 42 -57 152q17 80 72 125t139 45q60 0 100 -24l136 23q3 -19 -8 -36l-103 -11q36 -48 20 -122q-18 -80 -72 -125t-138 -45q-37 0 -64 8q-53 -48 -63 -94q-7 -32 24.5 -47t80.5 -20t96.5 -13.5t76 -38.5
t16.5 -85q-15 -68 -84 -112t-189 -44q-96 0 -136 43.5t-26 108.5q17 83 119 147q-21 21 -13 58q13 59 73 107zM128 -219q93 0 157 34.5t76 91.5q10 45 -17 69.5t-66.5 29.5t-93.5 11.5t-80 16.5q-44 -25 -72.5 -61t-36.5 -72q-12 -57 22 -88.5t111 -31.5zM290 508
q-66 0 -112.5 -36.5t-61.5 -104.5q-15 -69 16.5 -105.5t97.5 -36.5t112.5 36.5t61.5 105.5q15 68 -16.5 104.5t-97.5 36.5z" />
    <glyph glyph-name="nine.denom" horiz-adv-x="309" 
d="M209 171q-44 -27 -100 -27q-50 0 -72 27t-12 72q11 51 48.5 78t82.5 27q56 0 78 -38.5t6 -112.5q-18 -81 -76 -136t-152 -64q-6 10 3 20q75 10 125 50t69 104zM216 198q26 129 -65 129q-38 0 -65.5 -22.5t-35.5 -61.5q-8 -33 9 -55t56 -22q62 0 101 32z" />
    <glyph glyph-name="nine.num" horiz-adv-x="308" 
d="M282 517q-44 -27 -101 -27q-49 0 -71 27t-13 72q11 51 48.5 78t82.5 27q56 0 78 -38.5t6 -112.5q-17 -81 -75 -136t-152 -64q-5 9 2 20q76 10 126 50t69 104zM289 544q26 129 -65 129q-38 0 -66 -22.5t-36 -61.5q-7 -33 10 -55t56 -22q62 0 101 32z" />
    <glyph glyph-name="_368" horiz-adv-x="0" 
 />
    <glyph glyph-name="one.denom" horiz-adv-x="241" 
d="M24 268q72 18 133 73q6 2 13 2q10 0 10 -2l-72 -339q-4 -2 -12 -2q-7 0 -11 2l57 266q5 25 10 41q-58 -44 -127 -61q-8 8 -1 20z" />
    <glyph glyph-name="one.num" horiz-adv-x="258" 
d="M98 614q73 18 134 73q4 2 12 2q9 0 11 -2l-72 -339q-4 -2 -11 -2q-8 0 -12 2l56 266q2 8 5.5 21.5t4.5 19.5q-59 -44 -127 -61q-7 7 -1 20z" />
    <glyph glyph-name="seven.denom" horiz-adv-x="273" 
d="M216 320h-181l-1 11l6 12h204q0 -7 -2 -20q-8 -39 -28.5 -70.5t-44 -54.5t-48 -47.5t-46 -62t-31.5 -86.5q-6 -2 -13 -2q-8 0 -12 2q11 51 32.5 91t46 65.5t48.5 48t43.5 51t26.5 62.5z" />
    <glyph glyph-name="seven.num" horiz-adv-x="272" 
d="M289 666h-181q-6 11 4 23h204q1 -7 -2 -20q-8 -39 -28 -70.5t-44 -54.5t-48 -47.5t-45.5 -62t-31.5 -86.5q-6 -2 -13 -2q-8 0 -12 2q11 51 32.5 91t46 65.5t48.5 48t43.5 51t26.5 62.5z" />
    <glyph glyph-name="six.denom" horiz-adv-x="308" 
d="M42 172q46 27 100 27q50 0 72 -27t12 -72q-11 -51 -48.5 -78t-82.5 -27q-56 0 -78 38.5t-6 112.5q17 80 75 135.5t153 64.5q4 -11 -3 -20q-75 -10 -125 -50t-69 -104zM35 145q-25 -129 64 -129q38 0 66 22.5t36 61.5q7 34 -10 55.5t-55 21.5q-62 0 -101 -32z" />
    <glyph glyph-name="six.num" horiz-adv-x="308" 
d="M115 520q49 27 101 27q50 0 72 -27t12 -72q-11 -51 -48.5 -78t-82.5 -27q-56 0 -78 38.5t-6 112.5q17 80 75 135.5t152 64.5q5 -9 -2 -20q-75 -10 -125 -50t-70 -104zM109 493q-27 -129 64 -129q38 0 66 22.5t36 61.5q7 34 -10 55.5t-55 21.5q-62 0 -101 -32z" />
    <glyph glyph-name="three.denom" horiz-adv-x="304" 
d="M213 92q-22 -97 -151 -97q-22 0 -42.5 3.5t-29.5 6.5l-10 3q0 11 9 18q33 -10 76 -10q63 0 89.5 20.5t34.5 55.5q8 39 -12.5 58t-60.5 19h-43q-4 11 5 22h43q76 0 91 68q7 33 -11 50t-59 17q-21 0 -41.5 -2t-30.5 -4l-11 -3q-4 7 -1 19q38 12 89 12q53 0 75.5 -22.5
t13.5 -65.5q-12 -57 -65 -79q27 -12 38.5 -31.5t3.5 -57.5z" />
    <glyph glyph-name="three.num" horiz-adv-x="305" 
d="M287 438q-21 -97 -151 -97q-22 0 -42.5 3.5t-29.5 6.5l-10 3q2 13 10 18q33 -10 76 -10q63 0 89.5 21t33.5 55q9 39 -12 58t-61 19h-43q-2 12 5 22h43q77 0 92 68q7 33 -11 50t-59 17q-21 0 -41.5 -2t-31.5 -4l-10 -3q-5 9 -1 19q37 12 88 12q53 0 76 -23t14 -65
q-13 -57 -65 -79q27 -12 38 -31.5t3 -57.5z" />
    <glyph glyph-name="two.denom" horiz-adv-x="301" 
d="M-17 41q8 38 33.5 64t57 40.5t62.5 27.5t55 33.5t30 49.5q7 30 -9.5 50t-65.5 20q-17 0 -36 -2.5t-30 -5.5l-11 -2q-4 9 -1 20q36 12 86 12q58 0 79 -24.5t13 -65.5q-8 -37 -35 -62t-60 -39t-65.5 -29t-56 -41t-26.5 -64h191q2 -5 0 -12q-2 -8 -5 -11h-211q0 18 5 41z
" />
    <glyph glyph-name="two.num" horiz-adv-x="301" 
d="M57 387q8 38 33.5 64t57 40.5t62.5 27.5t55.5 33.5t30.5 49.5q6 31 -10 50.5t-65 19.5q-17 0 -36 -2.5t-30 -5.5l-11 -2q-5 10 -1 20q35 12 85 12q59 0 80 -24.5t12 -65.5q-8 -37 -34.5 -62t-59.5 -39t-65.5 -29t-56 -41t-27.5 -64h191q3 -4 1 -12q-1 -6 -5 -11h-211
q-1 18 4 41z" />
    <glyph glyph-name="Remove1" horiz-adv-x="537" 
 />
    <glyph glyph-name="Remove2" horiz-adv-x="398" 
 />
    <glyph glyph-name="zero.denom" horiz-adv-x="346" 
d="M105 -5q-64 0 -85.5 42.5t-1.5 134.5q19 90 58.5 133t103.5 43t86 -42.5t3 -133.5t-59.5 -134t-104.5 -43zM175 326q-54 0 -85 -36.5t-48 -117.5q-18 -81 -2 -118t70 -37t86 37t49 118q17 80 0.5 117t-70.5 37z" />
    <glyph glyph-name="zero.num" horiz-adv-x="345" 
d="M178 341q-64 0 -85.5 42.5t-1.5 134.5q20 90 59 133t103 43t86 -42.5t3 -133.5t-59.5 -134t-104.5 -43zM249 672q-54 0 -85.5 -36.5t-48.5 -117.5q-18 -81 -2 -118t70 -37t86 37t49 118q18 80 1.5 117t-70.5 37z" />
    </font>
</defs>
</svg>
