<?xml version="1.0" standalone="no"?>
<!DOCTYPE svg PUBLIC "-//W3C//DTD SVG 1.1//EN" "http://www.w3.org/Graphics/SVG/1.1/DTD/svg11.dtd" >
<svg xmlns="http://www.w3.org/2000/svg" xmlns:xlink="http://www.w3.org/1999/xlink" version="1.1">
<metadata>
Created by FontForge 20170731 at Fri Feb  7 20:03:03 2014
 By Aleksey,,,
Copyright (c) 2014 by Fontfabric LLC. All rights reserved.
</metadata>
<defs>
<font id="GloberBookItalic" horiz-adv-x="550" >
  <font-face 
    font-family="Glober Book Italic"
    font-weight="400"
    font-style="italic"
    font-stretch="normal"
    units-per-em="1000"
    panose-1="0 0 0 0 0 0 0 0 0 0"
    ascent="750"
    descent="-250"
    x-height="526"
    cap-height="720"
    bbox="-219 -250.793 1001 1052.19"
    underline-thickness="50"
    underline-position="-200"
    unicode-range="U+0020-FB02"
  />
<missing-glyph horiz-adv-x="618" 
d="M422 0h-538l153 720h538zM409 505q13 57 -17.5 92.5t-103.5 35.5q-33 0 -65 -6.5t-47 -12.5l-16 -7q-7 -19 7 -30q44 20 109 20q109 0 90 -95q-8 -37 -28 -64.5t-45 -45.5t-50 -38t-47 -56t-33 -86q5 -4 15 -4l18 4q9 43 31.5 74.5t48.5 51.5t52.5 39.5t49 51.5t31.5 76z
M187 129q-7 3 -24 3l-26 -3l-9 -45q7 -3 24 -3l26 3z" />
    <glyph glyph-name="fi" unicode="fi" horiz-adv-x="561" 
d="M168 586q17 82 66 123t147 41q43 0 86 -7t65 -14l21 -7q-2 -24 -21 -40q-67 25 -155 25q-75 0 -110.5 -27.5t-47.5 -88.5l-14 -65h284q5 0 15 -1t13 -1l-110 -520q-9 -4 -26 -4l-24 4l102 480h-263l-102 -480q-8 -4 -26 -4l-24 4l102 480h-64q-3 7 0 21l9 21h64z" />
    <glyph glyph-name="fl" unicode="fl" horiz-adv-x="563" 
d="M168 586q33 164 205 164q46 0 92 -8.5t69 -17.5l24 -8l-151 -712q-9 -4 -26 -4l-24 4l145 682q-63 21 -133 21t-104 -28.5t-46 -87.5l-14 -65h124q0 -17 -1 -21q-1 -5 -2.5 -9.5t-3.5 -7.5t-2 -4h-124l-102 -480q-8 -4 -26 -4l-24 4l102 480h-64q-2 7 0 21q3 12 9 21h64z
" />
    <glyph glyph-name=".notdef" horiz-adv-x="618" 
d="M422 0h-538l153 720h538zM409 505q13 57 -17.5 92.5t-103.5 35.5q-33 0 -65 -6.5t-47 -12.5l-16 -7q-7 -19 7 -30q44 20 109 20q109 0 90 -95q-8 -37 -28 -64.5t-45 -45.5t-50 -38t-47 -56t-33 -86q5 -4 15 -4l18 4q9 43 31.5 74.5t48.5 51.5t52.5 39.5t49 51.5t31.5 76z
M187 129q-7 3 -24 3l-26 -3l-9 -45q7 -3 24 -3l26 3z" />
    <glyph glyph-name=".null" horiz-adv-x="0" 
 />
    <glyph glyph-name="nonmarkingreturn" horiz-adv-x="333" 
 />
    <glyph glyph-name="space" unicode=" " horiz-adv-x="253" 
 />
    <glyph glyph-name="exclam" unicode="!" horiz-adv-x="250" 
d="M76 164l109 552q2 4 28 4q12 0 18.5 -1t6.5 -2l1 -1l-125 -552q-7 -5 -20 -5q-6 0 -10.5 1.5t-5.5 2.5zM103 60l-12 -56q-10 -4 -31 -4l-29 4l12 56q10 4 31 4z" />
    <glyph glyph-name="quotedbl" unicode="&#x22;" horiz-adv-x="311" 
d="M125 522l31 194q10 4 27 4l25 -4l-51 -194q-6 -3 -17 -3zM241 522l31 194q9 4 27 4l25 -4l-51 -194q-6 -3 -17 -3z" />
    <glyph glyph-name="numbersign" unicode="#" horiz-adv-x="648" 
d="M564 619q11 4 24 4q15 0 23 -4l-72 -145h98q0 -17 -1 -21q-3 -12 -9 -23h-110l-121 -245h95q2 -10 0 -22q-4 -16 -9 -22h-108l-67 -136q-15 -5 -25 -5q-7 0 -22 5l67 136h-167l-67 -136q-15 -5 -26 -5q-6 0 -21 5l67 136h-102q0 15 2 22q2 13 7 22h115l121 245h-100
q0 18 1 22q3 11 9 22h112l72 145q11 4 24 4q15 0 23 -4l-72 -145h167zM303 430l-121 -245h167l121 245h-167z" />
    <glyph glyph-name="dollar" unicode="$" horiz-adv-x="560" 
d="M356 785q9 4 26 4l25 -4l-31 -117q47 0 87.5 -6t58.5 -12l17 -5q-4 -15 -8 -22q-5 -8 -15 -18q-62 19 -149 19q-183 0 -210 -127q-7 -34 4 -58t35.5 -37t57 -24t67 -18.5t66.5 -21.5t55.5 -32t33 -50t0.5 -76q-17 -78 -80 -124.5t-162 -52.5l-21 -128q-7 -4 -25 -4l-26 4
l33 127q-52 0 -99 8.5t-68 17.5l-21 8q0 10 6 22t15 18q83 -27 178 -27q189 0 217 128q10 47 -12.5 76.5t-63 41.5t-88 26t-87 29t-60.5 51.5t-9 91.5q16 76 76.5 121.5t157.5 52.5z" />
    <glyph glyph-name="percent" unicode="%" horiz-adv-x="745" 
d="M676 698l-537 -704q-9 -4 -27 -4l-22 4l537 704q8 4 26 4zM188 345q-129 0 -92 173t166 173q131 0 94 -173t-168 -173zM254 653q-41 0 -69 -31t-44 -104q-16 -74 -0.5 -104t56.5 -30t68.5 30t43.5 104q29 135 -55 135zM498 -10q-129 0 -92 173t165 173q131 0 95 -173
q-37 -173 -168 -173zM563 298q-41 0 -69 -31t-43 -104q-16 -74 -1 -104t56 -30t69 30t44 104q28 135 -56 135z" />
    <glyph glyph-name="ampersand" unicode="&#x26;" horiz-adv-x="632" 
d="M404 690q64 0 93.5 -35t18.5 -85q-15 -71 -74.5 -119.5t-173.5 -103.5q36 -119 140 -211q62 58 103 144q31 2 40 -19q-35 -76 -115 -150q46 -38 113 -68q-5 -29 -31 -44q-62 26 -124 75q-100 -84 -223 -84q-79 0 -124.5 43t-27.5 127q8 40 31.5 75t54.5 60t56 40t51 27
q-20 80 -3 155q17 81 67.5 127t127.5 46zM391 650q-49 0 -84 -33t-48 -96q-15 -68 0 -137q94 44 144 84t62 95q8 40 -11 63.5t-63 23.5zM187 34q93 0 179 65q-105 96 -145 227q-128 -65 -148 -161q-13 -61 18 -96t96 -35z" />
    <glyph glyph-name="quotesingle" unicode="'" horiz-adv-x="195" 
d="M125 522l31 194q9 4 27 4l25 -4l-51 -194q-6 -3 -17 -3z" />
    <glyph glyph-name="parenleft" unicode="(" horiz-adv-x="284" 
d="M338 805q5 -3 8 -7t4 -6l1 -3q-7 -7 -19 -21.5t-45.5 -61.5t-62.5 -98t-60.5 -129.5t-48.5 -158.5q-26 -144 -18 -248t31 -162l23 -59q-6 -9 -19 -16l-23 -6q-4 8 -11 23.5t-22 66.5t-23 104.5t-7 135t18 161.5t49.5 160.5t66.5 137.5t65.5 102.5t51.5 67.5l20 23
q11 1 21 -6z" />
    <glyph glyph-name="parenright" unicode=")" horiz-adv-x="283" 
d="M173 320q26 144 18 248t-31 162l-22 59q5 9 19 16l22 6q4 -8 11 -23.5t22 -66.5t23 -104.5t7 -135t-18 -161.5t-49.5 -160.5t-66.5 -137.5t-65.5 -102.5t-51.5 -67.5l-20 -23q-11 -1 -21 6q-5 3 -8 7t-4 6v3q7 8 19 22t45.5 61t62 98t60 129.5t48.5 158.5z" />
    <glyph glyph-name="asterisk" unicode="*" horiz-adv-x="345" 
d="M219 616l18 87q19 6 33 0l-18 -87l90 28q8 -11 3 -32l-91 -27l39 -74q-16 -14 -30 -18l-39 72l-67 -73q-14 4 -24 18l69 75l-78 27q5 21 17 32z" />
    <glyph glyph-name="plus" unicode="+" horiz-adv-x="460" 
d="M200 269h-148q-2 7 1 21l8 21h148l32 148q7 4 21 4l21 -4l-32 -148h148q3 -7 0 -21l-9 -21h-148l-31 -148q-8 -4 -22 -4l-20 4z" />
    <glyph glyph-name="comma" unicode="," horiz-adv-x="220" 
d="M5 -102l-19 15q37 30 53 87l-21 4l12 56q12 4 33 4l31 -4l-9 -40q-8 -36 -28 -66.5t-36 -43.5z" />
    <glyph glyph-name="hyphen" unicode="-" horiz-adv-x="357" 
d="M263 269h-188q-2 7 1 21l8 21h188q3 -7 0 -21z" />
    <glyph glyph-name="period" unicode="." horiz-adv-x="216" 
d="M93 60l-12 -56q-12 -4 -33 -4l-31 4l12 56q12 4 33 4z" />
    <glyph glyph-name="slash" unicode="/" horiz-adv-x="440" 
d="M-50 -43l506 789q9 4 26 4l27 -4l-506 -789q-11 -4 -29 -4z" />
    <glyph glyph-name="zero" unicode="0" horiz-adv-x="619" 
d="M249 -10q-119 0 -162.5 84t-7.5 266q36 181 112.5 265.5t194.5 84.5q119 0 163 -84t8 -266t-112.5 -266t-195.5 -84zM382 645q-94 0 -154 -72t-95 -233q-33 -163 -4 -234t123 -71q95 0 155.5 72t94.5 233q34 164 4.5 234.5t-124.5 70.5z" />
    <glyph glyph-name="one" unicode="1" horiz-adv-x="392" 
d="M79 524q137 34 235 152q7 4 25 4l24 -4l-143 -672q-8 -4 -27 -4l-25 4l98 460q17 86 34 138q-84 -88 -217 -122q-14 17 -4 44z" />
    <glyph glyph-name="two" unicode="2" horiz-adv-x="526" 
d="M165 616q-15 14 -7 42q81 32 191 32q88 0 134.5 -46t26.5 -136q-7 -32 -22 -58.5t-30 -44.5t-47.5 -40t-54.5 -34.5t-71 -38.5l-3 -1.5l-3 -1.5t-3.5 -2t-3.5 -2q-3 -2 -39.5 -20.5t-46 -25t-38 -26.5t-40.5 -35t-26.5 -40.5t-20.5 -53.5q-6 -25 -6 -36h343q3 -8 -1 -24
q-3 -15 -9 -24h-389q1 32 8 67q6 29 16.5 54t21 43.5t28.5 37t30.5 30t36 26.5t36.5 22.5t40.5 22.5l38.5 21q105 59 132 81q57 45 71 111q12 55 -15 92.5t-113 37.5q-37 0 -78.5 -7.5t-63.5 -14.5z" />
    <glyph glyph-name="three" unicode="3" horiz-adv-x="514" 
d="M419 173q-18 -80 -83.5 -131.5t-185.5 -51.5q-44 0 -83.5 8t-56.5 16l-17 9q4 27 22 38q75 -25 142 -25q180 0 211 145q33 154 -146 154h-53q-3 22 9 43h53q159 0 189 138q13 62 -18.5 96t-109.5 34q-36 0 -72.5 -6t-54.5 -12l-18 -7q-17 11 -10 37q74 32 170 32
q97 0 138.5 -50.5t24.5 -128.5q-12 -59 -44 -96.5t-95 -60.5q63 -26 83 -68t5 -113z" />
    <glyph glyph-name="four" unicode="4" horiz-adv-x="571" 
d="M24 225l428 451q8 4 27 4l25 -4l-96 -451h102q2 -7 -1 -22l-9 -22h-102l-37 -177q-9 -4 -26 -4l-24 4l37 177h-334q-2 7 1 22zM438 603l-358 -378h278z" />
    <glyph glyph-name="five" unicode="5" horiz-adv-x="520" 
d="M217 633l-54 -252l5 1q4 0 12 1t17.5 2t22 1.5t25.5 0.5q116 0 162 -54t25 -154q-39 -189 -287 -189q-48 0 -85 7t-50 13l-13 7q2 26 21 39q53 -21 130 -21q198 0 230 151q17 74 -17 115t-140 41q-39 0 -119 -10l73 348h333q5 -24 -9 -47h-282z" />
    <glyph glyph-name="six" unicode="6" horiz-adv-x="551" 
d="M505 681q5 -21 -8 -45q-260 -26 -352 -265q90 45 172 45q90 0 134 -56t21 -168q-21 -102 -88 -152t-165 -50q-99 0 -144.5 66.5t-16.5 200.5q43 203 160.5 308t286.5 116zM420 203q18 85 -14.5 127.5t-103.5 42.5q-78 0 -175 -54q-8 -23 -17 -66q-24 -111 8 -165.5
t106 -54.5q72 0 125.5 43.5t70.5 126.5z" />
    <glyph glyph-name="seven" unicode="7" horiz-adv-x="492" 
d="M117 680h407q1 -13 -2 -30q-15 -68 -54.5 -128.5t-87 -109.5t-96 -102.5t-91.5 -132t-63 -173.5q-16 -4 -26 -4q-13 0 -25 4q21 97 62 177t88 134t93.5 101.5t86 102t57.5 113.5h-359q-2 9 1 24z" />
    <glyph glyph-name="eight" unicode="8" horiz-adv-x="584" 
d="M372 690q91 0 136 -47t30 -124q-21 -105 -149 -172q124 -70 98 -193q-17 -79 -85 -121.5t-180 -42.5q-104 0 -152.5 52t-32.5 129q7 32 24 61.5t35 49.5t44.5 39t42 28.5t36.5 20.5q-103 61 -80 168q15 72 77.5 112t155.5 40zM190 533q-7 -32 1 -56.5t31.5 -43.5
t45 -30.5t59.5 -28.5q11 -5 16 -7q124 66 143 160q12 56 -21.5 88t-102.5 32q-68 0 -114.5 -31t-57.5 -83zM235 34q81 0 135 36t66 93q7 34 0 60t-33.5 47t-45.5 31.5t-61 29.5q-23 11 -34 16q-14 -7 -28.5 -15.5t-39.5 -26.5t-44.5 -37t-37 -47t-23.5 -57q-13 -58 23.5 -94
t122.5 -36z" />
    <glyph glyph-name="nine" unicode="9" horiz-adv-x="549" 
d="M59 0q-7 23 8 46q126 13 214 75t137 188q-88 -45 -172 -45q-89 0 -132 57.5t-20 167.5q21 100 91 150.5t164 50.5q99 0 142.5 -66t14.5 -201q-43 -203 -160.5 -307.5t-286.5 -115.5zM143 477q-18 -85 14.5 -127.5t103.5 -42.5q81 0 176 54q12 42 17 66q23 111 -9.5 165.5
t-105.5 54.5q-72 0 -125 -43.5t-71 -126.5z" />
    <glyph glyph-name="colon" unicode=":" horiz-adv-x="224" 
d="M176 455l-12 -56q-12 -4 -33 -4l-31 4l12 56q12 4 33 4zM92 60l-12 -56q-12 -4 -33 -4l-31 4l12 56q12 4 33 4z" />
    <glyph glyph-name="semicolon" unicode=";" horiz-adv-x="238" 
d="M186 455l-12 -56q-12 -4 -33 -4l-31 4l12 56q12 4 33 4zM13 -102l-18 15q36 30 52 87l-21 4l12 56q12 4 33 4l31 -4l-9 -40q-8 -36 -28 -66.5t-36 -43.5z" />
    <glyph glyph-name="less" unicode="&#x3c;" horiz-adv-x="465" 
d="M340 116l-289 147q-2 11 2 27l9 26l351 147q3 -6 0 -22l-9 -23l-308 -129l253 -127q3 -7 0 -23z" />
    <glyph glyph-name="equal" unicode="=" horiz-adv-x="511" 
d="M433 354h-336q0 22 9 42h336q1 -19 -9 -42zM397 184h-336q-2 22 9 42h336q1 -18 -9 -42z" />
    <glyph glyph-name="greater" unicode="&#x3e;" horiz-adv-x="464" 
d="M396 263l-351 -147q-3 8 1 23l8 23l307 127l-252 129q-2 8 1 23l8 22l289 -147q2 -10 -1 -26z" />
    <glyph glyph-name="question" unicode="?" horiz-adv-x="426" 
d="M424 530q-12 -55 -39.5 -94.5t-60.5 -64.5t-65.5 -49.5t-60 -64t-39.5 -93.5q-8 -5 -23 -5l-20 5q13 63 41 107.5t59 70t62 48t56.5 56.5t35.5 81q11 54 -15.5 86t-96.5 32q-36 0 -70.5 -6.5t-50.5 -12.5l-16 -6q-17 12 -8 38q66 32 161 32q90 0 127.5 -44t22.5 -116z
M148 60l-12 -56q-12 -4 -33 -4l-31 4l12 56q12 4 33 4z" />
    <glyph glyph-name="at" unicode="@" horiz-adv-x="915" 
d="M845 303q-21 -102 -77.5 -160t-136.5 -58q-83 0 -90 71q-52 -71 -144 -71q-72 0 -106 46t-12 147q22 103 75 148.5t125 45.5q83 0 109 -58l12 55q8 4 22 4l23 -4l-53 -249q-21 -98 49 -98q52 0 96.5 45t63.5 136q33 155 -37.5 247.5t-230.5 92.5q-155 0 -273.5 -99
t-153.5 -265q-18 -93 -6 -160t51.5 -111t95.5 -64.5t126 -20.5q149 0 294 84q18 -8 13 -29q-149 -94 -325 -94q-162 0 -248.5 102.5t-46.5 292.5q39 182 173 291.5t307 109.5q182 0 262 -103.5t43 -273.5zM328 278q-33 -157 89 -157q49 0 85 32t46 75l21 98q10 44 -12.5 77
t-72.5 33q-56 0 -96.5 -34t-59.5 -124z" />
    <glyph glyph-name="A" unicode="A" horiz-adv-x="640" 
d="M381 716q10 4 27 4l25 -4l124 -712q-10 -4 -29 -4l-23 4l-36 204h-337l-123 -204q-9 -4 -31 -4l-23 4zM397 653h-2q-10 -21 -27 -52l-210 -347h304l-60 347z" />
    <glyph glyph-name="B" unicode="B" horiz-adv-x="629" 
d="M192 720h242q52 0 87.5 -16.5t51 -43.5t20 -62.5t-5.5 -73.5q-4 -17 -9.5 -33t-11.5 -28.5t-14 -23.5t-14.5 -19t-15.5 -16t-15.5 -12.5t-14.5 -9.5l-12 -7.5t-10.5 -5.5t-7.5 -3l6 -2q5 -3 9 -5.5t11.5 -8t13.5 -10.5t13 -14t12 -18.5t9.5 -22.5t6 -27.5t0.5 -33
t-5 -38.5q-19 -91 -79 -138.5t-174 -47.5h-246zM173 386h180q149 0 181 145q14 70 -13 107t-109 37h-178zM101 45h188q88 0 133.5 37.5t61.5 110.5q17 77 -15.5 113t-117.5 36h-187z" />
    <glyph glyph-name="C" unicode="C" horiz-adv-x="553" 
d="M83 369q40 184 125 272.5t221 88.5q48 0 88 -8t56 -16l16 -9q-6 -22 -25 -40q-53 27 -138 27q-107 0 -180 -73.5t-111 -251.5q-17 -94 -17 -156t24 -99t59 -52t88 -15q41 0 81 6.5t60 13.5l19 7q11 -16 8 -41q-67 -33 -185 -33q-268 0 -189 379z" />
    <glyph glyph-name="D" unicode="D" horiz-adv-x="662" 
d="M192 720h192q149 0 204.5 -85.5t12.5 -284.5q-22 -102 -53.5 -170.5t-76.5 -108t-99.5 -55.5t-128.5 -16h-204zM101 46h141q60 0 105 14t84 48.5t67 96.5t48 155q16 75 17.5 129.5t-10 90t-37 56.5t-59.5 29.5t-82 8.5h-141z" />
    <glyph glyph-name="E" unicode="E" horiz-adv-x="556" 
d="M192 720h391q2 -10 -1 -22q-3 -16 -9 -24h-339l-61 -286h289q1 -10 0 -22q-3 -12 -9 -23h-289l-63 -297h349q0 -18 -1 -22q-3 -14 -9 -24h-401z" />
    <glyph glyph-name="F" unicode="F" horiz-adv-x="538" 
d="M162 333l-70 -329q-9 -4 -27 -4l-25 4l152 716h389q0 -19 -1 -23q-2 -13 -9 -23h-337l-63 -296h293q3 -6 0 -22q-1 -5 -3 -10t-4 -8.5t-2 -4.5h-293z" />
    <glyph glyph-name="G" unicode="G" horiz-adv-x="620" 
d="M83 373q77 357 357 357q51 0 95 -8t63 -16l18 -9q-9 -24 -25 -39q-66 26 -154 26q-109 0 -187 -74t-116 -251q-17 -94 -15 -156t28 -99t63 -52t90 -15q59 0 139 16l60 282h-180q-2 9 1 23l9 23h231l-76 -358q-81 -33 -201 -33q-135 0 -187 98.5t-13 284.5z" />
    <glyph glyph-name="H" unicode="H" horiz-adv-x="679" 
d="M542 393l69 323q10 4 27 4l25 -4l-151 -712q-9 -4 -27 -4l-25 4l72 341h-368l-72 -341q-10 -4 -27 -4l-25 4l151 712q10 4 27 4l25 -4l-69 -323h368z" />
    <glyph glyph-name="I" unicode="I" horiz-adv-x="259" 
d="M40 4l151 712q9 4 27 4l25 -4l-151 -712q-9 -4 -27 -4z" />
    <glyph glyph-name="J" unicode="J" horiz-adv-x="427" 
d="M247 163l117 553q8 4 27 4l25 -4l-117 -552q-37 -174 -200 -174q-34 0 -66.5 7.5t-48.5 14.5l-16 8q5 28 24 41q50 -24 111 -24q116 0 144 126z" />
    <glyph glyph-name="K" unicode="K" horiz-adv-x="608" 
d="M298 397l290 319q12 4 30 4q13 0 29 -4l-309 -345l187 -367q-11 -4 -31 -4l-29 4l-173 347h-127l-74 -347q-9 -4 -27 -4l-25 4l151 712q10 4 28 4l24 -4l-68 -319h124z" />
    <glyph glyph-name="L" unicode="L" horiz-adv-x="505" 
d="M39 0l152 716q10 4 27 4l25 -4l-142 -669h323q0 -18 -1 -23q-1 -9 -9 -24h-375z" />
    <glyph glyph-name="M" unicode="M" horiz-adv-x="844" 
d="M755 716q20 4 39 4l34 -4l-151 -712q-9 -4 -27 -4l-25 4l108 507q21 101 36 148h-3q-16 -33 -73 -105l-281 -356q-9 -4 -21 -4l-19 4q-16 47 -57.5 168t-63.5 187q-28 79 -28 106h-3q0 -33 -25 -152l-107 -503q-8 -4 -25 -4l-24 4l151 712q14 4 34 4l28 -4l150 -454h2z
" />
    <glyph glyph-name="N" unicode="N" horiz-adv-x="696" 
d="M468 4l-243 639h-2q-6 -35 -26 -131l-108 -508q-9 -4 -27 -4l-23 4l151 712q12 4 32 4l29 -4l245 -647h2q7 55 24 133l109 514q8 4 26 4l23 -4l-151 -712q-10 -4 -31 -4z" />
    <glyph glyph-name="O" unicode="O" horiz-adv-x="676" 
d="M83 373q40 188 125 272.5t215 84.5q129 0 181 -94.5t11 -283.5q-40 -190 -123 -276t-212 -86q-130 0 -183.5 97t-13.5 286zM563 360q36 170 -5 247.5t-139 77.5q-215 0 -284 -325q-35 -167 8.5 -246t136.5 -79q215 0 283 325z" />
    <glyph glyph-name="P" unicode="P" horiz-adv-x="599" 
d="M155 301l-63 -297q-9 -4 -26 -4l-26 4l152 716h247q92 0 132 -62t19 -158q-20 -93 -83 -146t-157 -53h-195zM165 348h193q70 0 117.5 43t63.5 118q17 78 -12.5 121.5t-99.5 43.5h-193z" />
    <glyph glyph-name="Q" unicode="Q" horiz-adv-x="676" 
d="M423 730q129 0 181 -94.5t11 -283.5q-48 -228 -162 -310q40 -48 110 -67q-10 -31 -40 -45q-33 9 -64 32.5t-49 53.5q-56 -26 -130 -26q-130 0 -183.5 97t-13.5 286q40 188 125 272.5t215 84.5zM419 685q-215 0 -284 -325q-35 -167 8.5 -246t136.5 -79q215 0 283 325
q36 170 -5 247.5t-139 77.5z" />
    <glyph glyph-name="R" unicode="R" horiz-adv-x="620" 
d="M192 720h241q93 0 134.5 -59.5t21.5 -151.5q-16 -75 -64 -122t-122 -62l105 -321q-11 -4 -31 -4l-30 4l-101 315h-187l-67 -315q-9 -4 -26 -4l-26 4zM234 674l-65 -309h188q68 0 116 41t63 113q16 73 -15 114t-99 41h-188z" />
    <glyph glyph-name="S" unicode="S" horiz-adv-x="560" 
d="M118 548q19 89 87 135.5t180 46.5q50 0 94.5 -6t64.5 -12l20 -7q-7 -27 -23 -42q-71 21 -159 21q-92 0 -146 -38.5t-68 -106.5q-4 -17 -4 -31.5t2.5 -26t9 -21.5t13 -18t19 -15.5t22.5 -12t26.5 -11t28.5 -10t32 -9.5q23 -7 40 -13.5t37.5 -16.5t33.5 -21t27 -27
t18.5 -34.5t7.5 -43t-5 -53.5q-19 -91 -90 -138t-185 -47q-55 0 -103.5 9.5t-69.5 18.5l-22 10q5 25 23 43q82 -32 177 -32q91 0 148 38t72 109q7 21 4 39t-6 31t-14.5 25t-21.5 19.5t-27.5 15t-31.5 12.5t-34 11q-21 6 -34 10.5t-32 12t-31 14t-27.5 17t-24.5 21
t-17.5 24.5t-12 30t-3.5 36.5t5 43.5z" />
    <glyph glyph-name="T" unicode="T" horiz-adv-x="529" 
d="M120 720h463q2 -8 -1 -23l-9 -23h-203l-142 -670q-9 -4 -27 -4l-25 4l142 670h-208q-2 9 1 23z" />
    <glyph glyph-name="U" unicode="U" horiz-adv-x="668" 
d="M658 716l-104 -488q-24 -114 -97 -176t-180 -62q-109 0 -164 63.5t-32 174.5l104 488q10 4 27 4l26 -4l-105 -495q-19 -89 19 -137.5t126 -48.5q87 0 146 49t78 137l105 495q9 4 26 4z" />
    <glyph glyph-name="V" unicode="V" horiz-adv-x="613" 
d="M162 716l85 -575l5 -73h3q12 31 36 72l329 576q9 4 30 4l26 -4l-407 -712q-11 -4 -27 -4l-25 4l-105 711q9 5 29 5z" />
    <glyph glyph-name="W" unicode="W" horiz-adv-x="947" 
d="M594 4l-42 545q-2 34 -2 56.5t2 33.5l1 11h-3q-7 -34 -41 -101l-278 -545q-16 -4 -29 -4q-9 0 -25 4l-61 712q9 4 27 4l26 -4l44 -546q2 -25 2.5 -51t0.5 -39l-1 -13h3q13 45 43 103l279 546q8 4 26 4l24 -4l40 -546q2 -26 2 -52v-38l-1 -13h2q12 43 42 103l273 546
q9 4 29 4l24 -4l-355 -712q-10 -4 -27 -4z" />
    <glyph glyph-name="X" unicode="X" horiz-adv-x="597" 
d="M580 716q16 4 36 4q13 0 29 -4l-298 -344l158 -367q-12 -5 -33 -5l-24 4l-141 328l-275 -328q-16 -4 -37 -4q-13 0 -29 4l308 366l-147 346q11 4 33 4l24 -4l131 -308z" />
    <glyph glyph-name="Y" unicode="Y" horiz-adv-x="614" 
d="M619 716q10 4 34 4l30 -4l-351 -412l-64 -300q-10 -4 -27 -4l-25 4l63 299l-169 413q12 4 33 4l24 -4l147 -357z" />
    <glyph glyph-name="Z" unicode="Z" horiz-adv-x="577" 
d="M160 720h445q0 -19 -1 -23q-2 -11 -9 -25l-545 -624h425q3 -8 -1 -24q-2 -9 -9 -24h-485q0 18 1 24q3 12 9 24l545 624h-385q0 21 1 25q3 15 9 23z" />
    <glyph glyph-name="bracketleft" unicode="[" horiz-adv-x="316" 
d="M209 810h173q3 -7 -1 -23l-9 -23h-123l-188 -888h123q2 -8 -1 -23l-9 -23h-173z" />
    <glyph glyph-name="backslash" unicode="\" horiz-adv-x="436" 
d="M171 745l169 -787q-10 -5 -28 -5l-27 5l-169 787q10 5 28 5q8 0 15 -1t9 -3z" />
    <glyph glyph-name="bracketright" unicode="]" horiz-adv-x="316" 
d="M113 -170h-173q-3 7 1 23l9 23h123l188 888h-123q-2 7 1 23l9 23h173z" />
    <glyph glyph-name="asciicircum" unicode="^" horiz-adv-x="510" 
d="M369 716l120 -260q-7 -4 -25 -4l-25 4l-104 224l-197 -224q-8 -4 -26 -4l-23 4l230 260q8 4 26 4z" />
    <glyph glyph-name="underscore" unicode="_" horiz-adv-x="531" 
d="M396 -59h-408q-3 5 1 20l8 19h408q3 -5 0 -19z" />
    <glyph glyph-name="grave" unicode="`" horiz-adv-x="238" 
d="M152 641l-94 144q21 25 52 23l79 -148q-13 -16 -37 -19z" />
    <glyph glyph-name="a" unicode="a" horiz-adv-x="554" 
d="M467 524q8 4 23 4l23 -4l-110 -520q-9 -4 -22 -4l-21 4l13 77q-69 -91 -184 -91q-194 0 -134 283q31 145 93 204t157 59q108 0 143 -91zM421 327q13 63 -17 114t-97 51q-81 0 -128.5 -53t-73.5 -176q-26 -124 -2 -176.5t105 -52.5q67 0 120 51.5t66 114.5z" />
    <glyph glyph-name="b" unicode="b" horiz-adv-x="557" 
d="M231 746l-64 -298q68 88 180 88q195 0 136 -282q-31 -145 -93.5 -204.5t-158.5 -59.5q-111 0 -143 88l-16 -74q-8 -4 -25 -4l-24 4l158 742q7 4 25 4zM431 263q26 124 2 176.5t-107 52.5q-63 0 -116 -49.5t-68 -111.5l-28 -131q-13 -64 16.5 -115t94.5 -51q84 0 132 53
t74 176z" />
    <glyph glyph-name="c" unicode="c" horiz-adv-x="442" 
d="M318 491q-86 0 -139 -56t-77 -170q-49 -228 124 -228q27 0 52.5 5.5t37.5 10.5l12 5q17 -12 14 -39q-48 -29 -133 -29q-101 0 -142.5 75.5t-12.5 209.5q56 261 264 261q36 0 65 -6t40 -12l11 -6q-5 -26 -26 -39q-32 18 -90 18z" />
    <glyph glyph-name="d" unicode="d" horiz-adv-x="554" 
d="M511 746q7 4 25 4l25 -4l-158 -742q-9 -4 -22 -4l-21 4l13 77q-69 -91 -177 -91q-200 0 -141 282q30 144 94 204t156 60q110 0 142 -88zM421 327q13 65 -15 115t-95 50q-81 0 -130.5 -53.5t-75.5 -175.5q-26 -124 -1 -176.5t109 -52.5q68 0 118 50.5t63 115.5z" />
    <glyph glyph-name="e" unicode="e" horiz-adv-x="505" 
d="M429 247h-330q-37 -211 122 -211q35 0 69 9.5t50 18.5l17 10q18 -16 14 -39q-6 -5 -18.5 -12.5t-54.5 -20t-89 -12.5q-102 0 -143.5 77t-10.5 212q29 127 96 192t160 65q87 0 127 -54.5t21 -139.5q-6 -28 -13.5 -51.5t-11.5 -33.5zM415 353q13 60 -13.5 100t-94.5 40
q-147 0 -199 -205h287q12 23 20 65z" />
    <glyph glyph-name="f" unicode="f" horiz-adv-x="340" 
d="M167 586q16 80 58 122t127 42q24 0 47 -3.5t34 -6.5l11 -4q-3 -24 -22 -40q-29 11 -73 11q-62 0 -90.5 -28t-40.5 -88l-14 -65h154q0 -17 -1 -21q-1 -5 -2.5 -9.5t-3.5 -7.5t-2 -4h-154l-102 -480q-8 -4 -26 -4l-24 4l102 480h-70q-2 7 0 21q3 12 9 21h70z" />
    <glyph glyph-name="g" unicode="g" horiz-adv-x="555" 
d="M359 26l12 53q-68 -89 -175 -89q-94 0 -132.5 70t-7.5 217q30 144 92 201.5t157 57.5q107 0 142 -90l16 76q8 4 26 4l25 -4l-105 -496q-31 -146 -92 -211t-188 -65q-38 0 -72 7t-49 13l-14 7q5 27 23 38q53 -20 117 -20q98 0 147.5 48t77.5 183zM105 263
q-26 -124 -1 -176.5t109 -52.5q71 0 118.5 51.5t61.5 109.5l29 135q7 24 3 52.5t-14 52.5t-36 40.5t-64 16.5q-84 0 -132 -53t-74 -176z" />
    <glyph glyph-name="h" unicode="h" horiz-adv-x="551" 
d="M483 377l-80 -373q-9 -4 -26 -4l-24 4l79 372q25 117 -95 117q-48 0 -98.5 -30.5t-85.5 -82.5l-80 -376q-9 -4 -26 -4l-24 4l158 742q8 4 25 4l25 -4l-64 -297q79 87 190 87q72 0 107 -43t19 -116z" />
    <glyph glyph-name="i" unicode="i" horiz-adv-x="230" 
d="M232 706l-12 -56q-12 -4 -33 -4l-31 4l12 56q12 4 33 4zM186 522l-110 -518q-8 -4 -26 -4l-24 4l110 518q8 4 26 4z" />
    <glyph glyph-name="j" unicode="j" horiz-adv-x="230" 
d="M232 709l-12 -56q-11 -4 -32 -4l-31 4l12 56q11 4 33 4zM5 -92l131 614q7 4 26 4l24 -4l-130 -610q-34 -162 -169 -162q-19 0 -33 2t-19 4l-5 3q-1 5 0 12q2 8 5 14.5t5 8.5l2 3q15 -4 42 -4q50 0 79 27t42 88z" />
    <glyph glyph-name="k" unicode="k" horiz-adv-x="495" 
d="M241 296l202 226q8 4 29 4l27 -3l-225 -253l139 -265q-11 -5 -30 -5l-24 5l-128 249h-105l-53 -250q-9 -4 -26 -4l-24 4l158 742q8 4 25 4l25 -4l-96 -450h106z" />
    <glyph glyph-name="l" unicode="l" horiz-adv-x="234" 
d="M236 746l-158 -742q-8 -4 -26 -4l-24 4l158 742q7 4 25 4z" />
    <glyph glyph-name="m" unicode="m" horiz-adv-x="842" 
d="M467 438q85 98 188 98q69 0 102 -41.5t17 -115.5l-80 -375q-9 -4 -26 -4l-24 4l79 372q25 117 -85 117q-46 0 -94 -30t-82 -85l-79 -374q-9 -4 -26 -4l-24 4l79 372q25 117 -85 117q-45 0 -92.5 -30.5t-80.5 -82.5l-80 -376q-10 -4 -27 -4l-24 4l110 518q9 4 26 4l25 -4
l-16 -76q79 90 176 90q51 0 85.5 -24.5t37.5 -73.5z" />
    <glyph glyph-name="n" unicode="n" 
d="M482 377l-79 -373q-9 -4 -26 -4l-24 4l79 372q25 117 -95 117q-48 0 -98.5 -30.5t-85.5 -82.5l-80 -376q-9 -4 -26 -4l-24 4l110 518q9 4 26 4l24 -4l-16 -77q86 91 187 91q72 0 107.5 -43.5t20.5 -115.5z" />
    <glyph glyph-name="o" unicode="o" horiz-adv-x="538" 
d="M55 274q56 262 260 262q211 0 151 -281q-56 -265 -261 -265q-210 0 -150 284zM416 263q26 127 -2 179t-105 52q-157 0 -205 -231q-27 -126 1.5 -178.5t105.5 -52.5q155 0 205 231z" />
    <glyph glyph-name="p" unicode="p" horiz-adv-x="555" 
d="M167 448q68 88 180 88q194 0 134 -283q-31 -145 -92.5 -204t-157.5 -59q-49 0 -87 28.5t-53 69.5l-70 -329q-8 -4 -26 -4l-24 4l162 763q8 4 26 4l24 -4zM431 263q26 124 2 176.5t-107 52.5q-67 0 -118.5 -49t-65.5 -112l-26 -121q-13 -62 22 -119t95 -57q83 0 127.5 52
t70.5 177z" />
    <glyph glyph-name="q" unicode="q" horiz-adv-x="556" 
d="M303 -241l68 319q-68 -88 -177 -88q-199 0 -139 284q30 145 94 203.5t161 58.5q52 0 88.5 -25t50.5 -63l16 74q7 4 25 4l25 -4l-162 -763q-8 -4 -26 -4zM107 263q-27 -124 -4 -176.5t106 -52.5q66 0 118.5 48.5t67.5 111.5l29 137q11 61 -19.5 111t-91.5 50
q-84 0 -132 -53t-74 -176z" />
    <glyph glyph-name="r" unicode="r" horiz-adv-x="388" 
d="M165 441q29 43 64.5 65.5t55 25.5t46.5 3q50 0 79 -23q-8 -29 -33 -42q-31 18 -68 18q-84 0 -159 -119l-77 -365q-8 -4 -26 -4l-24 4l110 518q8 4 26 4l24 -4z" />
    <glyph glyph-name="s" unicode="s" horiz-adv-x="442" 
d="M82 405q29 131 201 131q36 0 67 -6t44 -12l14 -5q-4 -25 -23 -39q-45 18 -106 18q-130 0 -150 -96q-9 -42 18 -66t80 -40q15 -5 26 -9t25.5 -10.5t24 -13t21.5 -16.5t17 -20.5t11 -25t4.5 -30t-3.5 -36.5q-30 -139 -208 -139q-43 0 -80 8t-53 16l-15 8q3 25 22 39
q59 -26 131 -26q60 0 100.5 25t51.5 77q6 27 1 46.5t-23 32.5t-34 19.5t-46 15.5q-142 44 -118 154z" />
    <glyph glyph-name="t" unicode="t" horiz-adv-x="351" 
d="M198 484l-66 -308q-19 -74 -4.5 -108t75.5 -34l65 5q0 -1 0.5 -2.5t1.5 -7.5t-1 -12l-7 -19q-48 -8 -70 -8q-82 0 -106 46t-4 139l66 309h-80q-3 6 0 21q1 7 3.5 12t4.5 7l1 2h80l21 99q25 15 52 12l-23 -111h153q3 -7 0 -21l-9 -21h-153z" />
    <glyph glyph-name="u" unicode="u" 
d="M51 152l78 370q9 4 26 4l24 -4l-79 -372q-25 -117 95 -117q48 0 98.5 30t85.5 83l80 376q9 4 26 4l24 -4l-110 -518q-9 -4 -26 -4l-24 4l16 72q-81 -86 -187 -86q-71 0 -106.5 45t-20.5 117z" />
    <glyph glyph-name="v" unicode="v" horiz-adv-x="501" 
d="M123 522l61 -362q4 -24 6.5 -49t3.5 -38v-13h3q20 42 53 98l214 364q8 4 29 4l24 -4l-304 -518q-11 -4 -27 -4l-25 4l-88 518q10 4 28 4z" />
    <glyph glyph-name="w" unicode="w" horiz-adv-x="792" 
d="M479 4l-40 334q-8 68 -8 127h-3q-7 -27 -61 -127l-182 -334q-16 -4 -25 -4q-5 0 -25 4l-57 518q8 4 25 4l23 -4l41 -374q6 -60 2 -85h3q0 1 5 13t14 31.5t21 40.5l202 374q10 4 31 4l19 -4l45 -372q6 -58 1 -87h3q0 1 5 12.5t14.5 31t21.5 42.5l198 373q6 4 28 4l26 -4
l-277 -518q-20 -4 -26 -4q-4 0 -24 4z" />
    <glyph glyph-name="x" unicode="x" horiz-adv-x="488" 
d="M205 268l-124 254q10 4 29 4l24 -4l108 -218l198 218q4 4 29 4l31 -4l-233 -255l129 -263q-10 -4 -29 -4l-23 4l-113 226l-205 -226q-4 -5 -31 -5l-30 5z" />
    <glyph glyph-name="y" unicode="y" 
d="M459 522q9 4 26 4l24 -4l-106 -500q-15 -72 -35 -120.5t-52 -84t-78.5 -51.5t-112.5 -16q-38 0 -72 7t-49 13l-14 7q5 27 23 38q53 -20 117 -20q98 0 147.5 46.5t79.5 180.5l12 54q-81 -86 -185 -86q-79 0 -114 45.5t-19 121.5l78 365q9 4 26 4l24 -4l-79 -372
q-25 -117 95 -117q48 0 98.5 30t85.5 83z" />
    <glyph glyph-name="z" unicode="z" horiz-adv-x="451" 
d="M45 44h299q3 -6 0 -22l-9 -22h-355q0 18 1 23q1 6 3 10.5t3.5 7t1.5 3.5l390 438h-274q-2 7 1 22q1 7 3.5 12.5t4.5 7.5l1 2h329q0 -17 -1 -21q-2 -12 -9 -23z" />
    <glyph glyph-name="braceleft" unicode="{" horiz-adv-x="340" 
d="M358 810h48q0 -18 -1 -22q-1 -5 -2.5 -9.5t-3.5 -8t-2 -4.5h-39q-92 0 -112 -91l-53 -250q-14 -67 -52 -90q28 -23 14 -91l-53 -250q-20 -91 72 -91h39q2 -7 0 -22q-3 -13 -9 -22h-48q-65 0 -91.5 35.5t-13.5 97.5l58 270q9 50 -32 50h-33q0 16 1 22q4 15 9 23h33
q21 0 34.5 14t17.5 36l58 270q13 62 54.5 97.5t106.5 35.5z" />
    <glyph glyph-name="bar" unicode="|" horiz-adv-x="254" 
d="M204 786q8 4 26 4l24 -4l-208 -979q-8 -4 -26 -4l-24 4z" />
    <glyph glyph-name="braceright" unicode="}" horiz-adv-x="339" 
d="M147 810h48q65 0 91.5 -35.5t13.5 -97.5l-58 -270q-9 -50 32 -50h33q0 -18 -1 -22q-2 -13 -9 -23h-33q-21 0 -34.5 -14t-17.5 -36l-58 -270q-13 -62 -54.5 -97.5t-106.5 -35.5h-48q0 14 2 22q0 2 7 22h39q92 0 112 91l53 250q14 67 52 90q-28 23 -14 91l53 250
q20 91 -72 91h-39q0 15 1 21q3 16 8 23z" />
    <glyph glyph-name="asciitilde" unicode="~" horiz-adv-x="540" 
d="M187 303q-21 0 -42 -9t-31 -18l-10 -9q-22 4 -22 29q5 6 14 14.5t40 23t65 14.5q33 0 74 -25.5t72 -25.5q21 0 42 9t31 18l11 9q22 -4 24 -28q-5 -6 -14 -15t-40.5 -23.5t-66.5 -14.5q-33 0 -74.5 25.5t-72.5 25.5z" />
    <glyph glyph-name="exclamdown" unicode="&#xa1;" horiz-adv-x="239" 
d="M132 514q12 4 33 4l31 -4l-12 -56q-12 -4 -33 -4l-31 4zM111 354q6 5 20 5q6 0 10.5 -1.5t6.5 -2.5l1 -1l-109 -552q-2 -4 -28 -4q-12 0 -18.5 1t-7.5 2v1z" />
    <glyph glyph-name="cent" unicode="&#xa2;" horiz-adv-x="460" 
d="M315 627q12 4 26 4q17 0 23 -4l-24 -91q31 -1 56 -7t34 -11l10 -6q-5 -25 -25 -38q-32 18 -90 18q-168 0 -217 -229q-49 -227 124 -227q27 0 53 5t39 11l12 5q14 -9 10 -38q-48 -26 -122 -29l-15 -91q-12 -5 -26 -5q-13 0 -23 5l25 92q-90 8 -123 77t-6 195t89.5 195
t155.5 77z" />
    <glyph glyph-name="sterling" unicode="&#xa3;" horiz-adv-x="515" 
d="M389 316h-182q5 -76 -18.5 -140.5t-102.5 -127.5h313q4 -4 0 -24q-3 -19 -10 -24h-379l10 48q47 35 76.5 70.5t40.5 67t14.5 65.5t-1.5 65h-83q0 18 1 21q3 16 8 21h70q-12 104 -2 155q20 90 83.5 134t157.5 44q86 0 147 -27q-3 -28 -25 -40q-5 3 -20 7.5t-45.5 9.5
t-61.5 5q-152 0 -182 -136q-9 -45 5 -152h195q3 -9 1 -20q-3 -15 -10 -22z" />
    <glyph glyph-name="currency" unicode="&#xa4;" horiz-adv-x="588" 
d="M436 46l-60 74q-63 -43 -130 -43t-113 43l-89 -74q-8 0 -17 11q-2 3 -3.5 6t-2 5t-0.5 3.5v2.5v1l90 74q-31 54 -17 122q13 68 69 122l-59 74q3 9 14 19l21 10l61 -74q63 43 129 43q65 0 111 -43l88 74q8 0 17 -10q4 -4 5.5 -9t1.5 -7v-3l-89 -74q32 -55 19 -122
q-14 -68 -70 -122l59 -74q-3 -9 -14 -18q-6 -5 -11 -8t-8 -3h-2zM320 424q-64 0 -118 -44.5t-67 -108.5q-14 -64 21 -108.5t99 -44.5t118 44t68 109q13 64 -21.5 108.5t-99.5 44.5z" />
    <glyph glyph-name="yen" unicode="&#xa5;" horiz-adv-x="604" 
d="M592 680q10 4 28 4l26 -4l-310 -369h154q0 -1 0.5 -4t0.5 -7t-1 -8q-1 -5 -8 -19h-171l-17 -79h171q3 -5 0 -19q-2 -10 -8 -19h-171l-32 -152q-7 -4 -25 -4l-23 4l32 152h-171v19q1 4 2.5 8t3.5 7t2 4h171l17 79h-171v19q2 10 8 19h154l-142 368q10 5 28 5l28 -4
l133 -348z" />
    <glyph glyph-name="brokenbar" unicode="&#xa6;" horiz-adv-x="256" 
d="M183 689q9 4 27 4l25 -4l-164 -775q-9 -4 -27 -4l-25 4z" />
    <glyph glyph-name="section" unicode="&#xa7;" horiz-adv-x="485" 
d="M329 121q7 31 -19.5 51.5t-67.5 32t-81.5 25t-64.5 42t-15 72.5q16 71 103 119q-60 36 -46 103q13 61 64 92.5t130 31.5q81 0 130 -21q0 -25 -20 -37q-51 17 -108 17q-129 0 -147 -82q-7 -32 17.5 -53t63.5 -33t77.5 -26t61.5 -42t14 -71q-15 -69 -96 -115
q69 -37 55 -106q-29 -131 -217 -131q-40 0 -77 6t-54 12l-18 6q2 26 20 39q76 -19 129 -19q148 0 166 87zM221 444q-78 -40 -89 -93q-5 -21 1 -36.5t25 -26t34 -16.5t47 -15t46 -14q74 40 85 93q4 20 -2 34.5t-24 25.5t-34 17.5t-45 15.5t-44 15z" />
    <glyph glyph-name="dieresis" unicode="&#xa8;" horiz-adv-x="455" 
d="M168 668l-11 -53q-11 -4 -31 -4l-29 4l11 53q11 3 31 3zM317 668l-11 -53q-11 -4 -31 -4l-29 4l11 53q11 3 31 3z" />
    <glyph glyph-name="copyright" unicode="&#xa9;" horiz-adv-x="806" 
d="M339 2q-140 0 -218 99t-48 239t150 238.5t260 98.5t217.5 -98.5t47.5 -238.5t-149.5 -239t-259.5 -99zM475 639q-124 0 -231 -87.5t-133 -211.5t43 -212t193 -88t230.5 88t132.5 212t-42.5 211.5t-192.5 87.5zM372 147q-84 0 -115.5 51.5t-11.5 148.5q43 199 212 199
q29 0 53 -5.5t34 -10.5l9 -6q-3 -18 -21 -31q-34 18 -77 18q-69 0 -109 -38.5t-58 -125.5q-35 -163 97 -163q21 0 43 4t34 8l12 4q13 -8 9 -30q-42 -23 -111 -23z" />
    <glyph glyph-name="ordfeminine" unicode="&#xaa;" horiz-adv-x="361" 
d="M149 610q51 20 106 20q105 0 84 -105l-47 -219q-6 -4 -15 -4l-14 4l4 42q-41 -52 -115 -52q-43 0 -64 25.5t-11 70.5q21 94 134 94q23 0 83 -5l8 39q17 78 -59 78q-20 0 -42.5 -4t-34.5 -8l-13 -4q-9 13 -4 28zM288 453q-48 4 -78 4q-83 0 -97 -65q-13 -65 53 -65
q41 0 73 26t43 71zM50 244h226q1 -14 -7 -31h-226q-1 14 7 31z" />
    <glyph glyph-name="guillemotleft" unicode="&#xab;" horiz-adv-x="495" 
d="M55 291l252 218q15 -10 11 -34l-227 -205l140 -206q-7 -24 -26 -34l-159 218q-3 8 0 21zM224 290l230 199q14 -9 10 -33l-204 -186l125 -187q-7 -24 -24 -33l-146 199q-2 7 1 20z" />
    <glyph glyph-name="logicalnot" unicode="&#xac;" horiz-adv-x="598" 
d="M539 439l-54 -254q-9 -4 -24 -4l-21 4l45 209h-403q-3 8 0 22l9 23h448z" />
    <glyph glyph-name="uni00AD" unicode="&#xad;" horiz-adv-x="268" 
 />
    <glyph glyph-name="registered" unicode="&#xae;" horiz-adv-x="537" 
d="M259 263q-86 0 -134 61t-30 147q19 86 92.5 147t159.5 61t134.5 -61t29.5 -147q-18 -86 -92 -147t-160 -61zM342 655q-76 0 -141 -54t-81 -130t26 -130t118 -54t140.5 53.5t81.5 130.5t-25.5 130.5t-118.5 53.5zM344 589q72 0 58 -66q-9 -47 -57 -61l38 -97q-6 -4 -15 -4
l-14 3l-36 95h-63l-21 -95q-5 -3 -12 -3l-13 3l48 225h87zM259 481h62q46 0 55 42q9 44 -37 44h-62z" />
    <glyph glyph-name="macron" unicode="&#xaf;" horiz-adv-x="407" 
d="M323 630h-291q-6 19 8 40h291q6 -16 -8 -40z" />
    <glyph glyph-name="degree" unicode="&#xb0;" horiz-adv-x="360" 
d="M122 617q11 48 51.5 84.5t97.5 36.5q56 0 80 -35t14 -83q-11 -48 -50 -83.5t-95 -35.5q-59 0 -83.5 34t-14.5 82zM334 619q7 38 -10 64.5t-60 26.5t-73 -27.5t-38 -64.5q-7 -37 10.5 -63t61.5 -26q43 0 72 26.5t37 63.5z" />
    <glyph glyph-name="plusminus" unicode="&#xb1;" horiz-adv-x="516" 
d="M252 381h-148q-3 7 0 21l9 21h148l25 118q8 4 22 4l20 -4l-25 -118h148q2 -7 -1 -21l-8 -21h-148l-25 -118q-8 -4 -22 -4l-20 4zM391 143h-338q-2 7 1 21l8 21h338q3 -7 0 -21z" />
    <glyph glyph-name="twosuperior" unicode="&#xb2;" horiz-adv-x="302" 
d="M55 387q8 38 33 64.5t55.5 41t61 27.5t53.5 32.5t29 46.5q7 28 -9.5 46t-60.5 18q-16 0 -34 -2.5t-28 -4.5t-12 -3q-9 11 -2 28q37 13 88 13q58 0 81 -24.5t14 -67.5q-7 -35 -32 -59.5t-56 -39t-61.5 -28.5t-54.5 -38t-30 -58h182q2 -8 0 -17t-7 -16h-214q-1 18 4 41z
" />
    <glyph glyph-name="threesuperior" unicode="&#xb3;" horiz-adv-x="302" 
d="M287 439q-20 -98 -153 -98q-23 0 -44 3.5t-30 7.5l-10 4q2 17 14 26q33 -10 75 -10q56 0 81 18.5t32 50.5q14 69 -67 69h-44q-3 15 7 31h44q69 0 82 61q6 30 -10.5 45.5t-53.5 15.5q-20 0 -40 -2.5t-30 -4.5l-10 -2q-8 10 -2 27q37 13 90 13q55 0 79 -23t15 -66
q-13 -55 -64 -78q53 -23 39 -88z" />
    <glyph glyph-name="acute" unicode="&#xb4;" horiz-adv-x="224" 
d="M202 785l-156 -144q-23 3 -29 19l143 148q31 2 42 -23z" />
    <glyph glyph-name="mu" unicode="&#xb5;" horiz-adv-x="581" 
d="M475 522q8 4 26 4l24 -4l-110 -518q-8 -4 -26 -4l-24 4l16 75q-83 -89 -187 -89q-78 0 -107 47q-18 -95 -25 -163.5t-5 -89.5l2 -21q-26 -20 -58 -11q-6 67 30 234l114 536q9 4 26 4l24 -4l-80 -374q-23 -115 97 -115q52 0 102 33t81 79z" />
    <glyph glyph-name="paragraph" unicode="&#xb6;" horiz-adv-x="469" 
d="M35 -223l146 690q-53 1 -75 35.5t-12 80.5q11 47 49 81.5t92 34.5h39l-196 -922q-8 -4 -23 -4zM444 695l-195 -918q-7 -4 -22 -4l-21 4l195 918q7 4 23 4z" />
    <glyph glyph-name="periodcentered" unicode="&#xb7;" horiz-adv-x="221" 
d="M141 310l-11 -52q-11 -4 -31 -4l-29 4l11 52q11 4 31 4z" />
    <glyph glyph-name="cedilla" unicode="&#xb8;" horiz-adv-x="296" 
d="M-26 42l33 -5l-25 -63q57 0 79 -23.5t13 -66.5q-21 -98 -136 -98q-23 0 -44 6t-30 12l-9 5q6 18 20 28l5 -2q4 -2 10 -4.5t14.5 -5t19.5 -4t22 -1.5q73 0 88 65q5 27 -9.5 41.5t-48.5 14.5h-32l-5 10z" />
    <glyph glyph-name="onesuperior" unicode="&#xb9;" horiz-adv-x="242" 
d="M94 617q72 18 129 69q6 3 18 3q11 0 16 -3l-72 -338q-8 -2 -16 -2q-13 0 -19 2l54 253q3 16 9 40q-55 -40 -117 -54q-9 11 -2 30z" />
    <glyph glyph-name="ordmasculine" unicode="&#xba;" horiz-adv-x="379" 
d="M93 463q19 87 59 127t105 40q66 0 89 -39.5t4 -127.5q-18 -88 -58 -128t-106 -40q-65 0 -88 40t-5 128zM313 463q15 73 0 104.5t-63 31.5q-49 0 -76.5 -31.5t-43.5 -104.5q-16 -74 -1.5 -105t63.5 -31t77 31.5t44 104.5zM60 244h230v-15q-3 -12 -7 -16h-230q0 12 1 16
q2 10 6 15z" />
    <glyph glyph-name="guillemotright" unicode="&#xbb;" horiz-adv-x="495" 
d="M274 509l160 -218q2 -8 -1 -22l-8 -21l-253 -218q-13 12 -10 34l226 206l-139 205q7 22 25 34zM119 489l146 -199q1 -7 -2 -21l-7 -20l-230 -199q-13 9 -10 33l204 187l-125 186q7 24 24 33z" />
    <glyph glyph-name="onequarter" unicode="&#xbc;" horiz-adv-x="643" 
d="M42 -7l538 705q7 4 21 4l17 -4l-537 -705q-7 -3 -20 -3zM104 617q71 17 128 69q8 3 18 3q11 0 17 -3l-72 -338q-8 -2 -17 -2q-12 0 -18 2l54 253q3 16 9 40q-55 -40 -117 -54q-9 11 -2 30zM515 124h42q2 -7 0 -15q-2 -7 -6 -16h-42l-19 -90q-9 -3 -16 -3q-13 0 -16 3
l19 90h-180q-2 4 -1 11t6 12l224 224q9 3 19 3t16 -3zM520 295l-174 -171h137z" />
    <glyph glyph-name="onehalf" unicode="&#xbd;" horiz-adv-x="699" 
d="M580 698q7 4 21 4l17 -4l-537 -705q-7 -3 -20 -3l-19 3zM232 686q8 3 18 3q11 0 17 -3l-72 -338q-8 -2 -17 -2q-12 0 -18 2l54 253q3 16 9 40q-55 -40 -117 -54q-9 11 -2 30q71 17 128 69zM456 335q38 13 89 13q58 0 80.5 -25t13.5 -67q-7 -35 -32 -59.5t-56 -39
t-61.5 -28.5t-54.5 -38t-30 -58h182q3 -8 0 -17q-2 -9 -7 -16h-214q0 18 5 41q8 38 33 64.5t55.5 41t61 27.5t53.5 32.5t29 46.5q6 28 -10.5 46t-60.5 18q-16 0 -34 -2.5t-28 -4.5t-12 -3q-8 13 -2 28z" />
    <glyph glyph-name="threequarters" unicode="&#xbe;" horiz-adv-x="696" 
d="M633 698q7 4 21 4l17 -4l-537 -705q-7 -3 -20 -3l-19 3zM140 681q37 13 90 13q55 0 79 -23t15 -66q-13 -55 -64 -78q53 -23 39 -88q-20 -98 -153 -98q-23 0 -44 3.5t-30 7.5l-10 4q2 17 14 26q33 -10 75 -10q56 0 81 18.5t32 50.5q14 69 -67 69h-44q-3 15 7 31h44
q69 0 82 61q6 30 -10.5 45.5t-53.5 15.5q-20 0 -40 -2.5t-30 -4.5l-10 -2q-8 10 -2 27zM579 340q9 3 19 3t16 -3l-46 -216h42q2 -7 0 -15q-2 -7 -6 -16h-42l-19 -90q-9 -3 -16 -3q-13 0 -16 3l19 90h-180q-2 5 -1 12q1 6 6 11zM399 124h137l37 171z" />
    <glyph glyph-name="questiondown" unicode="&#xbf;" horiz-adv-x="418" 
d="M257 460l12 56q11 4 32 4l31 -4l-12 -56q-11 -4 -32 -4zM-20 -10q12 55 39.5 94.5t60.5 64.5t66 49.5t60.5 64t39.5 93.5q7 4 21 4l21 -4q-14 -63 -41.5 -107.5t-59 -70t-62 -48t-56 -56.5t-35.5 -81q-11 -54 15.5 -86t96.5 -32q36 0 70.5 6.5t51.5 12.5l16 6
q17 -13 8 -38q-67 -32 -161 -32q-90 0 -128.5 44.5t-22.5 115.5z" />
    <glyph glyph-name="Agrave" unicode="&#xc0;" horiz-adv-x="640" 
d="M393 922l79 -148q-13 -16 -37 -19l-94 144q21 25 52 23zM381 716q10 4 27 4l25 -4l124 -712q-10 -4 -29 -4l-23 4l-36 204h-337l-123 -204q-9 -4 -31 -4l-23 4zM397 653h-2q-10 -21 -27 -52l-210 -347h304l-60 347z" />
    <glyph glyph-name="Aacute" unicode="&#xc1;" horiz-adv-x="640" 
d="M374 775l142 148q31 2 42 -23l-155 -144q-23 3 -29 19zM381 716q10 4 27 4l25 -4l124 -712q-10 -4 -29 -4l-23 4l-36 204h-337l-123 -204q-12 -4 -31 -4l-23 4zM397 653h-2q-10 -21 -27 -52l-210 -347h304l-60 347z" />
    <glyph glyph-name="Acircumflex" unicode="&#xc2;" horiz-adv-x="640" 
d="M458 899l105 -104q-12 -22 -30 -26l-96 84l-132 -87q-22 9 -23 29l150 104h26zM381 716q10 4 27 4l25 -4l124 -712q-10 -4 -29 -4l-23 4l-36 204h-337l-123 -204q-9 -4 -31 -4l-23 4zM397 653h-2q-10 -21 -27 -52l-210 -347h304l-60 347z" />
    <glyph glyph-name="Atilde" unicode="&#xc3;" horiz-adv-x="640" 
d="M298 800q2 6 7 14t24 22.5t43 14.5q27 0 60.5 -18t51.5 -18q12 0 23.5 7t16.5 14l5 7q22 0 29 -17q-2 -5 -7.5 -13t-25 -22t-43.5 -14q-26 -1 -59.5 17t-51.5 18q-12 0 -23.5 -7t-17.5 -15l-5 -7q-24 0 -27 17zM381 716q10 4 27 4l25 -4l124 -712q-10 -4 -29 -4l-23 4
l-36 204h-337l-123 -204q-12 -4 -31 -4l-23 4zM397 653h-2q-10 -21 -27 -52l-210 -347h304l-60 347z" />
    <glyph glyph-name="Adieresis" unicode="&#xc4;" horiz-adv-x="640" 
d="M327 831q9 3 30 3l29 -3l-12 -53q-11 -4 -30 -4l-29 4zM475 831q10 3 30 3l30 -3l-12 -53q-11 -4 -31 -4l-29 4zM381 716q10 4 27 4l25 -4l124 -712q-10 -4 -29 -4l-23 4l-36 204h-337l-123 -204q-9 -4 -31 -4l-23 4zM397 653h-2q-10 -21 -27 -52l-210 -347h304l-60 347z
" />
    <glyph glyph-name="Aring" unicode="&#xc5;" horiz-adv-x="640" 
d="M437 696l120 -692q-10 -4 -29 -4l-23 4l-36 204h-337l-123 -204q-9 -4 -31 -4l-23 4l414 691q-35 8 -52 34t-8 67q11 49 51 77.5t86 28.5t75 -28t18 -78q-9 -40 -36.5 -66t-65.5 -34zM500 796q6 30 -10 50.5t-53 20.5q-35 0 -58.5 -21t-30.5 -50q-6 -30 8.5 -51t50.5 -21
q37 0 62 21.5t31 50.5zM462 254l-60 347l-5 52h-2q-10 -21 -27 -52l-210 -347h304z" />
    <glyph glyph-name="AE" unicode="&#xc6;" horiz-adv-x="851" 
d="M534 720h344q7 -22 -10 -46h-286l-61 -286h236q5 -24 -9 -46h-236l-63 -296h296q5 -24 -10 -46h-344l42 198h-267l-158 -194q-18 -4 -31 -4q-20 0 -28 4zM203 244h240l84 398z" />
    <glyph glyph-name="Ccedilla" unicode="&#xc7;" horiz-adv-x="552" 
d="M455 47l-2 -24q-67 -33 -183 -33l-25 -46q57 0 78 -22.5t12 -65.5q-19 -95 -135 -95q-23 0 -44 5.5t-30 11.5l-9 6q6 18 20 28l5 -2q4 -2 10 -4.5t14 -5t19 -4t22 -1.5q75 0 87 60q6 27 -8.5 41.5t-48.5 14.5h-32l-6 10l39 71q-232 21 -157 379q40 184 124 271.5
t220 87.5q48 0 88 -8t56 -16l16 -9q0 -9 -7 -21q-4 -6 -8.5 -11t-7.5 -7l-2 -1q-53 27 -138 27q-107 0 -180 -73.5t-111 -251.5q-17 -94 -17 -156t24 -99t59 -52t88 -15q41 0 81 6.5t60 13.5l19 7q7 -4 10 -17z" />
    <glyph glyph-name="Egrave" unicode="&#xc8;" horiz-adv-x="556" 
d="M405 755l-94 144q21 25 52 23l79 -148q-13 -16 -37 -19zM192 720h391q2 -10 -1 -22q-3 -16 -9 -24h-339l-61 -286h289q1 -10 0 -22q-3 -12 -9 -23h-289l-63 -297h349q0 -18 -1 -22q-3 -14 -9 -24h-401z" />
    <glyph glyph-name="Eacute" unicode="&#xc9;" horiz-adv-x="556" 
d="M506 901l-155 -144q-23 3 -29 19l142 148q31 2 42 -23zM192 720h391q2 -10 -1 -22q-3 -16 -9 -24h-339l-61 -286h289q1 -10 0 -22q-3 -12 -9 -23h-289l-63 -297h349q0 -18 -1 -22q-3 -14 -9 -24h-401z" />
    <glyph glyph-name="Ecircumflex" unicode="&#xca;" horiz-adv-x="556" 
d="M435 899l105 -104q-12 -23 -30 -27l-99 85l-133 -86q-18 7 -19 28l150 104h26zM192 720h391q2 -10 -1 -22q-3 -16 -9 -24h-339l-61 -286h289q1 -10 0 -22q-3 -12 -9 -23h-289l-63 -297h349q0 -18 -1 -22q-3 -14 -9 -24h-401z" />
    <glyph glyph-name="Edieresis" unicode="&#xcb;" horiz-adv-x="556" 
d="M369 823l-11 -53q-11 -4 -30 -4l-29 4l11 53q11 3 31 3zM518 823l-11 -53q-11 -4 -31 -4l-28 4l11 53q10 3 30 3zM192 720h391q2 -10 -1 -22q-3 -16 -9 -24h-339l-61 -286h289q1 -10 0 -22q-3 -12 -9 -23h-289l-63 -297h349q0 -18 -1 -22q-3 -14 -9 -24h-401z" />
    <glyph glyph-name="Igrave" unicode="&#xcc;" horiz-adv-x="259" 
d="M251 755l-94 144q21 25 52 23l79 -148q-13 -16 -37 -19zM40 4l151 712q9 4 27 4l25 -4l-151 -712q-9 -4 -27 -4z" />
    <glyph glyph-name="Iacute" unicode="&#xcd;" horiz-adv-x="259" 
d="M342 901l-155 -144q-23 3 -29 19l142 148q31 2 42 -23zM40 4l151 712q9 4 27 4l25 -4l-151 -712q-9 -4 -27 -4z" />
    <glyph glyph-name="Icircumflex" unicode="&#xce;" horiz-adv-x="259" 
d="M269 899l105 -104q-13 -24 -27 -27l-99 85l-133 -86q-21 9 -22 28l150 104h26zM40 4l151 712q9 4 27 4l25 -4l-151 -712q-9 -4 -27 -4z" />
    <glyph glyph-name="Idieresis" unicode="&#xcf;" horiz-adv-x="259" 
d="M196 823l-11 -53q-11 -4 -31 -4l-29 4l11 53q11 3 31 3zM345 823l-11 -53q-11 -4 -31 -4l-29 4l11 53q11 3 31 3zM40 4l151 712q9 4 27 4l25 -4l-151 -712q-9 -4 -27 -4z" />
    <glyph glyph-name="Eth" unicode="&#xd0;" horiz-adv-x="668" 
d="M198 720h192q149 0 204.5 -85.5t12.5 -284.5q-22 -102 -53.5 -170.5t-76.5 -108t-99.5 -55.5t-128.5 -16h-204l72 337h-85q-1 18 8 40h85zM248 46q60 0 105 14t84 48.5t67 96.5t48 155q16 75 17.5 129.5t-10 90t-37 56.5t-59.5 29.5t-82 8.5h-141l-63 -297h146
q1 -17 -8 -40h-146l-62 -291h141z" />
    <glyph glyph-name="Ntilde" unicode="&#xd1;" horiz-adv-x="696" 
d="M519 806q13 0 25.5 6.5t18.5 13.5l6 6q8 -2 15 -10t6 -16q-27 -40 -74 -40q-27 0 -59.5 18t-50.5 18q-13 0 -25.5 -7t-18.5 -15l-6 -7q-20 9 -21 25q2 5 7 12t24 19t43 12q27 0 60 -17.5t50 -17.5zM468 4l-243 639h-2q-6 -35 -26 -131l-108 -508q-9 -4 -27 -4l-23 4
l151 712q12 4 32 4l29 -4l245 -647h2q7 55 24 133l109 514q8 4 26 4l23 -4l-151 -712q-10 -4 -31 -4z" />
    <glyph glyph-name="Ograve" unicode="&#xd2;" horiz-adv-x="676" 
d="M432 922l74 -141q-13 -17 -37 -18l-89 136q21 25 52 23zM83 373q40 188 125 272.5t215 84.5q129 0 181 -94.5t11 -283.5q-40 -190 -123 -276t-212 -86q-130 0 -183.5 97t-13.5 286zM563 360q36 170 -5 247.5t-139 77.5q-215 0 -284 -325q-35 -167 8.5 -246t136.5 -79
q215 0 283 325z" />
    <glyph glyph-name="Oacute" unicode="&#xd3;" horiz-adv-x="676" 
d="M429 788l136 141q33 2 43 -23l-149 -136q-24 3 -30 18zM83 373q40 188 125 272.5t215 84.5q129 0 181 -94.5t11 -283.5q-40 -190 -123 -276t-212 -86q-130 0 -183.5 97t-13.5 286zM563 360q36 170 -5 247.5t-139 77.5q-215 0 -284 -325q-35 -167 8.5 -246t136.5 -79
q215 0 283 325z" />
    <glyph glyph-name="Ocircumflex" unicode="&#xd4;" horiz-adv-x="676" 
d="M479 899l105 -104q-13 -24 -27 -27l-99 85l-133 -86q-21 9 -22 28l150 104h26zM83 373q40 188 125 272.5t215 84.5q129 0 181 -94.5t11 -283.5q-40 -190 -123 -276t-212 -86q-130 0 -183.5 97t-13.5 286zM563 360q36 170 -5 247.5t-139 77.5q-215 0 -284 -325
q-35 -167 8.5 -246t136.5 -79q215 0 283 325z" />
    <glyph glyph-name="Otilde" unicode="&#xd5;" horiz-adv-x="676" 
d="M508 830q13 0 25.5 7.5t18.5 14.5l6 7q16 -5 18 -23q-2 -5 -6 -12.5t-22 -20t-42 -13.5q-26 -1 -60 15.5t-52 16.5q-13 0 -25.5 -7.5t-18.5 -14.5l-5 -7q-16 9 -19 23q2 5 6 12t22 19.5t42 13.5q27 1 61 -15t51 -16zM83 373q40 188 125 272.5t215 84.5q129 0 181 -94.5
t11 -283.5q-40 -190 -123 -276t-212 -86q-130 0 -183.5 97t-13.5 286zM563 360q36 170 -5 247.5t-139 77.5q-215 0 -284 -325q-35 -167 8.5 -246t136.5 -79q215 0 283 325z" />
    <glyph glyph-name="Odieresis" unicode="&#xd6;" horiz-adv-x="676" 
d="M347 843q11 3 31 3l29 -3l-11 -53q-11 -4 -31 -4l-29 4zM496 843q11 3 31 3l29 -3l-11 -53q-12 -4 -31 -4l-29 4zM83 373q40 188 125 272.5t215 84.5q129 0 181 -94.5t11 -283.5q-40 -190 -123 -276t-212 -86q-130 0 -183.5 97t-13.5 286zM563 360q36 170 -5 247.5
t-139 77.5q-215 0 -284 -325q-35 -167 8.5 -246t136.5 -79q215 0 283 325z" />
    <glyph glyph-name="multiply" unicode="&#xd7;" horiz-adv-x="456" 
d="M217 256l-140 -115q-8 3 -15 14q-4 4 -6.5 8.5t-3.5 6.5v3l139 116l-90 116q5 9 18 18q5 5 10 8.5t8 4.5l3 1l91 -115l141 115q8 -3 15 -14q4 -4 6.5 -8.5t2.5 -6.5l1 -3l-140 -116l91 -116q-5 -9 -18 -18q-5 -5 -10 -8.5t-8 -4.5l-3 -1z" />
    <glyph glyph-name="Oslash" unicode="&#xd8;" horiz-adv-x="675" 
d="M663 743l-70 -89q66 -97 22 -302q-40 -190 -123 -276t-212 -86q-102 0 -158 60l-74 -95q-24 5 -35 20l85 109q-55 101 -15 289t125 272.5t215 84.5q89 0 142 -45l61 79q22 -4 37 -21zM419 685q-215 0 -284 -325q-30 -146 0 -227l398 511q-42 41 -114 41zM280 35
q215 0 283 325q35 164 -5 248l-402 -515q41 -58 124 -58z" />
    <glyph glyph-name="Ugrave" unicode="&#xd9;" horiz-adv-x="668" 
d="M439 764l-88 135q21 25 52 23l73 -139q-12 -16 -37 -19zM658 716l-104 -488q-24 -114 -97 -176t-180 -62q-109 0 -164 63.5t-32 174.5l104 488q10 4 27 4l26 -4l-105 -495q-19 -89 19 -137.5t126 -48.5q87 0 146 49t78 137l105 495q9 4 26 4z" />
    <glyph glyph-name="Uacute" unicode="&#xda;" horiz-adv-x="668" 
d="M556 901l-155 -144q-23 3 -29 19l142 148q31 2 42 -23zM658 716l-104 -488q-24 -114 -97 -176t-180 -62q-109 0 -164 63.5t-32 174.5l104 488q10 4 27 4l26 -4l-105 -495q-19 -89 19 -137.5t126 -48.5q87 0 146 49t78 137l105 495q9 4 26 4z" />
    <glyph glyph-name="Ucircumflex" unicode="&#xdb;" horiz-adv-x="668" 
d="M477 899l105 -104q-13 -24 -26 -27l-99 85l-133 -86q-22 9 -23 28l150 104h26zM658 716l-104 -488q-24 -114 -97 -176t-180 -62q-109 0 -164 63.5t-32 174.5l104 488q10 4 27 4l26 -4l-105 -495q-19 -89 19 -137.5t126 -48.5q87 0 146 49t78 137l105 495q9 4 26 4z" />
    <glyph glyph-name="Udieresis" unicode="&#xdc;" horiz-adv-x="668" 
d="M402 839l-11 -53q-11 -4 -31 -4l-29 4l11 53q11 3 31 3zM551 839l-11 -53q-11 -4 -31 -4l-29 4l11 53q11 3 31 3zM658 716l-104 -488q-24 -114 -97 -176t-180 -62q-109 0 -164 63.5t-32 174.5l104 488q10 4 27 4l26 -4l-105 -495q-19 -89 19 -137.5t126 -48.5
q87 0 146 49t78 137l105 495q9 4 26 4z" />
    <glyph glyph-name="Yacute" unicode="&#xdd;" horiz-adv-x="614" 
d="M354 776l142 148q31 2 42 -23l-155 -144q-23 3 -29 19zM619 716q10 4 34 4l30 -4l-351 -412l-64 -300q-10 -4 -27 -4l-25 4l63 299l-169 413q12 4 33 4l24 -4l147 -357z" />
    <glyph glyph-name="Thorn" unicode="&#xde;" horiz-adv-x="604" 
d="M191 716q8 4 27 4l25 -4l-30 -141h195q92 0 134 -61t22 -155q-19 -91 -83 -141t-159 -50h-195l-35 -164q-8 -4 -27 -4l-25 4zM203 528l-66 -313h193q70 0 117 41t63 114q16 75 -14 116.5t-100 41.5h-193z" />
    <glyph glyph-name="germandbls" unicode="&#xdf;" horiz-adv-x="570" 
d="M23 4l117 552q41 194 236 194q91 0 129 -50.5t23 -120.5q-3 -15 -8 -29.5t-10.5 -25.5t-10 -19.5t-8.5 -14.5t-4 -7q-5 0 -13 -0.5t-29.5 -6t-39 -14.5t-34.5 -28.5t-23 -45.5q-6 -30 9 -53.5t40 -41.5t49 -38t37 -54.5t3 -80.5q-28 -130 -188 -130q-31 0 -55.5 4.5
t-33.5 9.5l-9 4q2 27 19 39q40 -14 80 -14q60 0 94.5 26.5t43.5 69.5q7 32 -2 57.5t-27.5 41t-40 32.5t-39.5 33t-27 42t-2 59q7 32 25 57t39.5 36.5t41.5 18.5t33 8l14 2q15 22 23 62q12 56 -13 92.5t-91 36.5q-149 0 -181 -151l-117 -552q-8 -4 -26 -4z" />
    <glyph glyph-name="agrave" unicode="&#xe0;" horiz-adv-x="554" 
d="M315 774l80 -148q-13 -16 -37 -19l-94 144q8 10 23 17t28 6zM467 524q8 4 23 4l23 -4l-110 -520q-9 -4 -22 -4l-21 4l13 77q-69 -91 -184 -91q-194 0 -134 283q31 145 93 204t157 59q108 0 143 -91zM421 327q13 63 -17 114t-97 51q-81 0 -128.5 -53t-73.5 -176
q-26 -124 -2 -176.5t105 -52.5q67 0 120 51.5t66 114.5z" />
    <glyph glyph-name="aacute" unicode="&#xe1;" horiz-adv-x="554" 
d="M267 627l143 148q31 2 42 -23l-156 -144q-23 3 -29 19zM467 524q8 4 23 4l23 -4l-110 -520q-9 -4 -22 -4l-21 4l13 77q-69 -91 -184 -91q-194 0 -134 283q31 145 93 204t157 59q108 0 143 -91zM421 327q13 63 -17 114t-97 51q-81 0 -128.5 -53t-73.5 -176
q-26 -124 -2 -176.5t105 -52.5q67 0 120 51.5t66 114.5z" />
    <glyph glyph-name="acircumflex" unicode="&#xe2;" horiz-adv-x="554" 
d="M382 730l103 -103q-11 -21 -29 -25l-92 83l-132 -84q-19 8 -22 26l147 103h25zM467 524q8 4 23 4l23 -4l-110 -520q-9 -4 -22 -4l-21 4l13 77q-69 -91 -184 -91q-194 0 -134 283q31 145 93 204t157 59q108 0 143 -91zM421 327q13 63 -17 114t-97 51q-81 0 -128.5 -53
t-73.5 -176q-26 -124 -2 -176.5t105 -52.5q67 0 120 51.5t66 114.5z" />
    <glyph glyph-name="atilde" unicode="&#xe3;" horiz-adv-x="554" 
d="M234 665q1 1 5.5 7t10 11t13.5 11.5t19 10t24 3.5q27 0 59.5 -17.5t50.5 -17.5q30 0 50 26q17 -5 17 -24q-3 -6 -9.5 -14t-23 -17.5t-36.5 -9.5q-27 0 -60.5 17.5t-50.5 17.5q-13 0 -25.5 -7t-19.5 -14l-6 -7q-15 7 -18 24zM467 524q8 4 23 4l23 -4l-110 -520
q-9 -4 -22 -4l-21 4l13 77q-69 -91 -184 -91q-194 0 -134 283q31 145 93 204t157 59q108 0 143 -91zM421 327q13 63 -17 114t-97 51q-81 0 -128.5 -53t-73.5 -176q-26 -124 -2 -176.5t105 -52.5q67 0 120 51.5t66 114.5z" />
    <glyph glyph-name="adieresis" unicode="&#xe4;" horiz-adv-x="554" 
d="M261 704q10 3 30 3l30 -3l-12 -53q-11 -4 -31 -4l-29 4zM410 704q10 3 30 3l30 -3l-12 -53q-11 -4 -31 -4l-29 4zM467 524q8 4 23 4l23 -4l-110 -520q-9 -4 -22 -4l-21 4l13 77q-69 -91 -184 -91q-194 0 -134 283q31 145 93 204t157 59q108 0 143 -91zM421 327
q13 63 -17 114t-97 51q-81 0 -128.5 -53t-73.5 -176q-26 -124 -2 -176.5t105 -52.5q67 0 120 51.5t66 114.5z" />
    <glyph glyph-name="aring" unicode="&#xe5;" horiz-adv-x="554" 
d="M254 697q10 45 47 71t80 26t69.5 -26t16.5 -71q-9 -46 -46 -72t-83 -26t-70 26t-14 72zM429 697q6 27 -8 45t-48 18q-32 0 -53.5 -18.5t-27.5 -44.5q-6 -27 8 -45.5t46 -18.5q33 0 55 19t28 45zM467 524q8 4 23 4l23 -4l-110 -520q-9 -4 -22 -4l-21 4l13 77
q-69 -91 -184 -91q-194 0 -134 283q31 145 93 204t157 59q108 0 143 -91zM421 327q13 63 -17 114t-97 51q-81 0 -128.5 -53t-73.5 -176q-26 -124 -2 -176.5t105 -52.5q67 0 120 51.5t66 114.5z" />
    <glyph glyph-name="ae" unicode="&#xe6;" horiz-adv-x="805" 
d="M631 536q83 0 116 -51t14 -137q-5 -24 -13 -47t-13 -35l-5 -11h-298q-19 -113 5.5 -166.5t94.5 -53.5q33 0 64 9t46 18l14 9q17 -12 12 -36q-6 -5 -18 -12.5t-51.5 -20t-82.5 -12.5q-98 0 -122 85l-15 -71q-9 -4 -20 -4l-21 4l9 68q-61 -82 -163 -82q-86 0 -123 69
t-6 215q30 143 93 202.5t152 59.5q54 0 83.5 -19t44.5 -61l17 68q8 4 23 4l21 -4l-14 -69q63 81 156 81zM441 296h255q9 18 17 58q13 62 -6.5 100.5t-81.5 38.5t-110.5 -47.5t-73.5 -149.5zM374 200l27 127q13 64 -12 114.5t-86 50.5q-76 0 -124 -54t-74 -175
q-25 -124 -1 -176.5t100 -52.5q66 0 111.5 50t58.5 116z" />
    <glyph glyph-name="ccedilla" unicode="&#xe7;" horiz-adv-x="442" 
d="M54 275q56 261 264 261q36 0 65 -6t40 -12l11 -6q-5 -26 -26 -39q-32 18 -90 18q-86 0 -139 -56t-77 -170q-49 -228 124 -228q27 0 52.5 5.5t37.5 10.5l12 5q17 -12 14 -39q-47 -28 -130 -29l-20 -51q56 0 78.5 -24t13.5 -66q-10 -47 -42.5 -67.5t-90.5 -20.5
q-23 0 -44 5.5t-30 11.5l-9 6q6 18 20 28l4 -2q5 -2 11 -4.5t14 -5t19 -4t22 -1.5q75 0 87 59q6 27 -9 40.5t-49 13.5h-32l-5 10l27 74q-84 12 -116.5 86.5t-6.5 196.5z" />
    <glyph glyph-name="egrave" unicode="&#xe8;" horiz-adv-x="505" 
d="M352 608l-94 144q21 25 52 23l79 -148q-13 -16 -37 -19zM429 247h-330q-37 -211 122 -211q35 0 69 9.5t50 18.5l17 10q18 -16 14 -39q-6 -5 -18.5 -12.5t-54.5 -20t-89 -12.5q-102 0 -143.5 77t-10.5 212q29 127 96 192t160 65q87 0 127 -54.5t21 -139.5
q-6 -28 -13.5 -51.5t-11.5 -33.5zM415 353q13 60 -13.5 100t-94.5 40q-147 0 -199 -205h287q12 23 20 65z" />
    <glyph glyph-name="eacute" unicode="&#xe9;" horiz-adv-x="505" 
d="M444 752l-156 -144q-23 3 -29 19l143 148q31 2 42 -23zM429 247h-330q-37 -211 122 -211q35 0 69 9.5t50 18.5l17 10q18 -16 14 -39q-6 -5 -18.5 -12.5t-54.5 -20t-89 -12.5q-102 0 -143.5 77t-10.5 212q29 127 96 192t160 65q87 0 127 -54.5t21 -139.5
q-6 -28 -13.5 -51.5t-11.5 -33.5zM415 353q13 60 -13.5 100t-94.5 40q-147 0 -199 -205h287q12 23 20 65z" />
    <glyph glyph-name="ecircumflex" unicode="&#xea;" horiz-adv-x="505" 
d="M370 731l103 -103q-11 -21 -29 -25l-93 83l-129 -84q-20 8 -23 26l146 103h25zM429 247h-330q-37 -211 122 -211q35 0 69 9.5t50 18.5l17 10q18 -16 14 -39q-6 -5 -18.5 -12.5t-54.5 -20t-89 -12.5q-102 0 -143.5 77t-10.5 212q29 127 96 192t160 65q87 0 127 -54.5
t21 -139.5q-6 -28 -13.5 -51.5t-11.5 -33.5zM415 353q13 60 -13.5 100t-94.5 40q-147 0 -199 -205h287q12 23 20 65z" />
    <glyph glyph-name="edieresis" unicode="&#xeb;" horiz-adv-x="505" 
d="M306 691l-11 -53q-11 -4 -31 -4l-29 4l11 53q10 3 30 3zM455 691l-11 -53q-11 -4 -31 -4l-29 4l11 53q10 3 30 3zM429 247h-330q-37 -211 122 -211q35 0 69 9.5t50 18.5l17 10q18 -16 14 -39q-6 -5 -18.5 -12.5t-54.5 -20t-89 -12.5q-102 0 -143.5 77t-10.5 212
q29 127 96 192t160 65q87 0 127 -54.5t21 -139.5q-6 -28 -13.5 -51.5t-11.5 -33.5zM415 353q13 60 -13.5 100t-94.5 40q-147 0 -199 -205h287q12 23 20 65z" />
    <glyph glyph-name="igrave" unicode="&#xec;" horiz-adv-x="230" 
d="M200 610l-95 144q21 25 52 23l80 -148q-13 -16 -37 -19zM186 522l-110 -518q-8 -4 -26 -4l-24 4l110 518q8 4 26 4z" />
    <glyph glyph-name="iacute" unicode="&#xed;" horiz-adv-x="230" 
d="M306 752l-156 -144q-23 3 -29 19l143 148q31 2 42 -23zM186 522l-110 -518q-8 -4 -26 -4l-24 4l110 518q8 4 26 4z" />
    <glyph glyph-name="icircumflex" unicode="&#xee;" horiz-adv-x="230" 
d="M212 731l110 -103q-11 -21 -29 -25l-96 83l-131 -84q-16 7 -19 26l140 103h25zM186 522l-110 -518q-8 -4 -26 -4l-24 4l110 518q8 4 26 4z" />
    <glyph glyph-name="idieresis" unicode="&#xef;" horiz-adv-x="230" 
d="M151 697l-11 -53q-11 -3 -31 -3l-29 3l11 53q11 4 31 4zM300 697l-11 -53q-11 -3 -31 -3l-29 3l11 53q11 4 31 4zM186 522l-110 -518q-8 -4 -26 -4l-24 4l110 518q8 4 26 4z" />
    <glyph glyph-name="eth" unicode="&#xf0;" horiz-adv-x="554" 
d="M491 699l-72 -39q117 -122 67 -353q-37 -174 -105 -245.5t-176 -71.5q-100 0 -140.5 68t-11.5 205q28 134 91.5 192.5t159.5 58.5q53 0 93.5 -25.5t54.5 -65.5q1 73 -17 122t-58 90l-117 -64q-19 12 -17 31l103 58q-49 38 -121 53q0 22 18 37q86 -16 148 -64l85 47
q16 -12 15 -34zM211 32q75 0 127.5 50.5t78.5 169.5q25 117 -10.5 168t-108.5 51q-75 0 -123.5 -49.5t-73.5 -169.5q-26 -119 4.5 -169.5t105.5 -50.5z" />
    <glyph glyph-name="ntilde" unicode="&#xf1;" 
d="M230 671q2 5 6.5 12.5t23 20t42.5 12.5q27 0 60.5 -17.5t51.5 -17.5q13 0 25 7.5t18 15.5l6 8q23 -6 21 -26q-2 -5 -7 -12.5t-24.5 -20t-43.5 -12.5q-26 0 -59 18t-51 18q-13 0 -25.5 -8.5t-18.5 -16.5l-6 -8q-21 9 -19 27zM482 377l-79 -373q-9 -4 -26 -4l-24 4l79 372
q25 117 -95 117q-48 0 -98.5 -30.5t-85.5 -82.5l-80 -376q-9 -4 -26 -4l-24 4l110 518q9 4 26 4l24 -4l-16 -77q86 91 187 91q72 0 107.5 -43.5t20.5 -115.5z" />
    <glyph glyph-name="ograve" unicode="&#xf2;" horiz-adv-x="538" 
d="M299 775l79 -148q-13 -16 -37 -19l-94 144q21 25 52 23zM55 274q56 262 260 262q211 0 151 -281q-56 -265 -261 -265q-210 0 -150 284zM416 263q26 127 -2 179t-105 52q-157 0 -205 -231q-27 -126 1.5 -178.5t105.5 -52.5q155 0 205 231z" />
    <glyph glyph-name="oacute" unicode="&#xf3;" horiz-adv-x="538" 
d="M257 627l143 148q31 2 42 -23l-156 -144q-23 3 -29 19zM55 274q56 262 260 262q211 0 151 -281q-56 -265 -261 -265q-210 0 -150 284zM416 263q26 127 -2 179t-105 52q-157 0 -205 -231q-27 -126 1.5 -178.5t105.5 -52.5q155 0 205 231z" />
    <glyph glyph-name="ocircumflex" unicode="&#xf4;" horiz-adv-x="538" 
d="M364 731l109 -103q-11 -21 -29 -25l-96 83l-131 -84q-16 7 -19 26l141 103h25zM55 274q56 262 260 262q211 0 151 -281q-56 -265 -261 -265q-210 0 -150 284zM416 263q26 127 -2 179t-105 52q-157 0 -205 -231q-27 -126 1.5 -178.5t105.5 -52.5q155 0 205 231z" />
    <glyph glyph-name="otilde" unicode="&#xf5;" horiz-adv-x="538" 
d="M219 663q2 5 7 12.5t23.5 20t42.5 12.5q27 0 60.5 -17.5t51.5 -17.5q13 0 25.5 7.5t18.5 15.5l6 8q18 -6 20 -26q-2 -5 -7 -12.5t-24 -20t-43 -12.5q-26 0 -59.5 18t-51.5 18q-13 0 -25.5 -7.5t-19.5 -15.5l-6 -8q-19 7 -19 25zM55 274q56 262 260 262q211 0 151 -281
q-56 -265 -261 -265q-210 0 -150 284zM416 263q26 127 -2 179t-105 52q-157 0 -205 -231q-27 -126 1.5 -178.5t105.5 -52.5q155 0 205 231z" />
    <glyph glyph-name="odieresis" unicode="&#xf6;" horiz-adv-x="538" 
d="M248 703q11 4 31 4l29 -4l-11 -53q-12 -4 -31 -4l-29 4zM397 703q10 4 31 4l28 -4l-11 -53q-11 -4 -30 -4l-29 4zM55 274q56 262 260 262q211 0 151 -281q-56 -265 -261 -265q-210 0 -150 284zM416 263q26 127 -2 179t-105 52q-157 0 -205 -231q-27 -126 1.5 -178.5
t105.5 -52.5q155 0 205 231z" />
    <glyph glyph-name="divide" unicode="&#xf7;" horiz-adv-x="559" 
d="M348 479l-12 -56q-12 -4 -33 -4l-31 4l12 56q12 4 33 4zM465 269h-389q-2 7 1 21l8 21h389q3 -7 0 -21zM279 157l-12 -56q-11 -4 -32 -4l-32 4l12 56q12 4 33 4z" />
    <glyph glyph-name="oslash" unicode="&#xf8;" horiz-adv-x="536" 
d="M511 551l-60 -76q46 -69 14 -220q-56 -265 -261 -265q-67 0 -106 30l-50 -64q-22 5 -31 20l55 70q-52 70 -18 228q56 262 260 262q72 0 112 -33l53 67q21 -3 32 -19zM308 494q-157 0 -205 -231q-26 -121 1 -176l293 377q-29 30 -89 30zM210 32q155 0 205 231
q23 115 2 169l-291 -376q30 -24 84 -24z" />
    <glyph glyph-name="ugrave" unicode="&#xf9;" 
d="M314 775l79 -148q-13 -16 -37 -19l-94 144q21 25 52 23zM51 152l78 370q9 4 26 4l24 -4l-79 -372q-25 -117 95 -117q48 0 98.5 30t85.5 83l80 376q9 4 26 4l24 -4l-110 -518q-9 -4 -26 -4l-24 4l16 72q-81 -86 -187 -86q-71 0 -106.5 45t-20.5 117z" />
    <glyph glyph-name="uacute" unicode="&#xfa;" 
d="M456 752l-156 -144q-23 3 -29 19l143 148q31 2 42 -23zM51 152l78 370q9 4 26 4l24 -4l-79 -372q-25 -117 95 -117q48 0 98.5 30t85.5 83l80 376q9 4 26 4l24 -4l-110 -518q-9 -4 -26 -4l-24 4l16 72q-81 -86 -187 -86q-71 0 -106.5 45t-20.5 117z" />
    <glyph glyph-name="ucircumflex" unicode="&#xfb;" 
d="M372 732l107 -104q-11 -21 -29 -25l-96 83l-131 -84q-16 7 -19 26l143 104h25zM51 152l78 370q9 4 26 4l24 -4l-79 -372q-25 -117 95 -117q48 0 98.5 30t85.5 83l80 376q9 4 26 4l24 -4l-110 -518q-9 -4 -26 -4l-24 4l16 72q-81 -86 -187 -86q-71 0 -106.5 45t-20.5 117z
" />
    <glyph glyph-name="udieresis" unicode="&#xfc;" 
d="M251 705q11 4 31 4l29 -4l-11 -53q-12 -3 -31 -3l-29 3zM400 705q10 4 30 4l29 -4l-11 -53q-11 -3 -31 -3l-28 3zM51 152l78 370q9 4 26 4l24 -4l-79 -372q-25 -117 95 -117q48 0 98.5 30t85.5 83l80 376q9 4 26 4l24 -4l-110 -518q-9 -4 -26 -4l-24 4l16 72
q-81 -86 -187 -86q-71 0 -106.5 45t-20.5 117z" />
    <glyph glyph-name="yacute" unicode="&#xfd;" 
d="M452 741l-152 -141q-24 3 -28 18l139 145q33 2 41 -22zM459 522q9 4 26 4l24 -4l-106 -500q-15 -72 -35 -120.5t-52 -84t-78.5 -51.5t-112.5 -16q-38 0 -72 7t-49 13l-14 7q5 27 23 38q53 -20 117 -20q98 0 147.5 46.5t79.5 180.5l12 54q-81 -86 -185 -86
q-79 0 -114 45.5t-19 121.5l78 365q9 4 26 4l24 -4l-79 -372q-25 -117 95 -117q48 0 98.5 30t85.5 83z" />
    <glyph glyph-name="thorn" unicode="&#xfe;" horiz-adv-x="557" 
d="M181 746q7 4 25 4l25 -4l-64 -298q68 88 180 88q195 0 136 -282q-31 -145 -93.5 -204.5t-158.5 -59.5q-53 0 -90.5 23.5t-51.5 64.5l-68 -319q-8 -4 -26 -4l-24 4zM431 263q27 124 3.5 176.5t-106.5 52.5q-67 0 -118.5 -49t-67.5 -112l-28 -131q-13 -62 19.5 -114
t94.5 -52q83 0 130 52.5t73 176.5z" />
    <glyph glyph-name="ydieresis" unicode="&#xff;" 
d="M316 706l-11 -53q-11 -4 -31 -4l-29 4l11 53q11 4 31 4zM465 706l-11 -53q-11 -4 -31 -4l-29 4l11 53q11 4 31 4zM459 522q9 4 26 4l24 -4l-106 -500q-15 -72 -35 -120.5t-52 -84t-78.5 -51.5t-112.5 -16q-38 0 -72 7t-49 13l-14 7q5 27 23 38q53 -20 117 -20
q98 0 147.5 46.5t79.5 180.5l12 54q-81 -86 -185 -86q-79 0 -114 45.5t-19 121.5l78 365q9 4 26 4l24 -4l-79 -372q-25 -117 95 -117q48 0 98.5 30t85.5 83z" />
    <glyph glyph-name="Amacron" unicode="&#x100;" horiz-adv-x="640" 
d="M290 832h275q5 -19 -9 -40h-275q-5 21 9 40zM381 716q10 4 27 4l25 -4l124 -712q-10 -4 -29 -4l-23 4l-36 204h-337l-123 -204q-9 -4 -31 -4l-23 4zM397 653h-2q-10 -21 -27 -52l-210 -347h304l-60 347z" />
    <glyph glyph-name="amacron" unicode="&#x101;" horiz-adv-x="554" 
d="M482 652h-249q-5 22 8 41h249q3 -17 -8 -41zM467 524q8 4 23 4l23 -4l-110 -520q-9 -4 -22 -4l-21 4l13 77q-69 -91 -184 -91q-194 0 -134 283q31 145 93 204t157 59q108 0 143 -91zM421 327q13 63 -17 114t-97 51q-81 0 -128.5 -53t-73.5 -176q-26 -124 -2 -176.5
t105 -52.5q67 0 120 51.5t66 114.5z" />
    <glyph glyph-name="Abreve" unicode="&#x102;" horiz-adv-x="640" 
d="M427 826q31 0 61.5 10t45.5 20l15 9q19 -6 19 -26q0 -5 -16.5 -17t-53.5 -24t-78 -12t-73.5 13.5t-44.5 26.5l-12 14q11 18 31 25q4 -4 12 -10.5t35.5 -17.5t58.5 -11zM381 716q10 4 27 4l25 -4l124 -712q-10 -4 -29 -4l-23 4l-36 204h-337l-123 -204q-12 -4 -31 -4
l-23 4zM397 653h-2q-10 -21 -27 -52l-210 -347h304l-60 347z" />
    <glyph glyph-name="abreve" unicode="&#x103;" horiz-adv-x="554" 
d="M357 671q30 0 59.5 10t44.5 20l15 10q17 -7 19 -30l-5.5 -5.5t-17 -13t-28 -16.5t-38.5 -12.5t-49 -5.5q-40 0 -73 14t-46 28l-14 14q11 20 30 27q4 -4 12 -11t34.5 -18t56.5 -11zM467 524q8 4 23 4l23 -4l-110 -520q-9 -4 -22 -4l-21 4l13 77q-69 -91 -184 -91
q-194 0 -134 283q31 145 93 204t157 59q108 0 143 -91zM421 327q13 63 -17 114t-97 51q-81 0 -128.5 -53t-73.5 -176q-26 -124 -2 -176.5t105 -52.5q67 0 120 51.5t66 114.5z" />
    <glyph glyph-name="Aogonek" unicode="&#x104;" horiz-adv-x="639" 
d="M469 -142q11 0 21.5 2t15.5 4l5 3q9 -10 4 -27q-26 -16 -62 -16q-40 0 -59 21t-11 57q18 81 121 110l-35 196h-337l-123 -204q-12 -4 -31 -4l-23 4l426 712q10 4 27 4l25 -4l123 -718q-5 -2 -14 -3q-101 -20 -116 -87q-5 -24 6.5 -37t36.5 -13zM462 254l-60 347l-5 52h-2
q-10 -21 -27 -52l-210 -347h304z" />
    <glyph glyph-name="aogonek" unicode="&#x105;" horiz-adv-x="556" 
d="M352 -134q10 0 20.5 2t15.5 4l5 3q9 -8 6 -26q-27 -17 -64 -17q-40 0 -59 18.5t-12 51.5q16 73 99 110l12 69q-69 -91 -184 -91q-195 0 -136 282q30 145 93.5 204.5t158.5 59.5q105 0 143 -91l19 79q8 4 23 4l23 -4l-110 -520q-46 -20 -68.5 -42.5t-29.5 -54.5
q-4 -22 8 -31.5t37 -9.5zM396 200l27 127q13 64 -17 114.5t-96 50.5q-82 0 -129.5 -53t-73.5 -176q-26 -124 -1.5 -176.5t105.5 -52.5q67 0 119.5 51t65.5 115z" />
    <glyph glyph-name="Cacute" unicode="&#x106;" horiz-adv-x="553" 
d="M557 895l-163 -135q-23 6 -27 22l151 140q31 -2 39 -27zM83 369q40 184 125 272.5t221 88.5q48 0 88 -8t56 -16l16 -9q-6 -22 -25 -40q-53 27 -138 27q-107 0 -180 -73.5t-111 -251.5q-17 -94 -17 -156t24 -99t59 -52t88 -15q41 0 81 6.5t60 13.5l19 7q11 -16 8 -41
q-67 -33 -185 -33q-268 0 -189 379z" />
    <glyph glyph-name="cacute" unicode="&#x107;" horiz-adv-x="442" 
d="M437 752l-156 -146q-22 3 -30 24l144 145q31 2 42 -23zM318 491q-86 0 -139 -56t-77 -170q-49 -228 124 -228q27 0 52.5 5.5t37.5 10.5l12 5q17 -12 14 -39q-48 -29 -133 -29q-101 0 -142.5 75.5t-12.5 209.5q56 261 264 261q36 0 65 -6t40 -12l11 -6q-5 -26 -26 -39
q-32 18 -90 18z" />
    <glyph glyph-name="Ccircumflex" unicode="&#x108;" horiz-adv-x="553" 
d="M482 883l104 -105q-10 -21 -28 -25l-97 84l-132 -86q-21 9 -24 27l151 105h26zM83 369q40 184 125 272.5t221 88.5q48 0 88 -8t56 -16l16 -9q-6 -22 -25 -40q-53 27 -138 27q-107 0 -180 -73.5t-111 -251.5q-17 -94 -17 -156t24 -99t59 -52t88 -15q41 0 81 6.5t60 13.5
l19 7q11 -16 8 -41q-67 -33 -185 -33q-268 0 -189 379z" />
    <glyph glyph-name="ccircumflex" unicode="&#x109;" horiz-adv-x="442" 
d="M362 733l103 -102q-11 -21 -29 -26l-93 83l-133 -83q-17 5 -19 26l146 102h25zM318 491q-86 0 -139 -56t-77 -170q-49 -228 124 -228q27 0 52.5 5.5t37.5 10.5l12 5q17 -12 14 -39q-48 -29 -133 -29q-101 0 -142.5 75.5t-12.5 209.5q56 261 264 261q36 0 65 -6t40 -12
l11 -6q-5 -26 -26 -39q-32 18 -90 18z" />
    <glyph glyph-name="Cdotaccent" unicode="&#x10a;" horiz-adv-x="553" 
d="M485 845l-12 -54q-12 -4 -32 -4l-29 4l12 54q9 4 30 4zM83 369q40 184 125 272.5t221 88.5q48 0 88 -8t56 -16l16 -9q-6 -22 -25 -40q-53 27 -138 27q-107 0 -180 -73.5t-111 -251.5q-17 -94 -17 -156t24 -99t59 -52t88 -15q41 0 81 6.5t60 13.5l19 7q11 -16 8 -41
q-67 -33 -185 -33q-268 0 -189 379z" />
    <glyph glyph-name="cdotaccent" unicode="&#x10b;" horiz-adv-x="442" 
d="M374 703l-11 -54q-12 -4 -32 -4l-29 4l11 54q11 4 31 4zM318 491q-86 0 -139 -56t-77 -170q-49 -228 124 -228q27 0 52.5 5.5t37.5 10.5l12 5q17 -12 14 -39q-48 -29 -133 -29q-101 0 -142.5 75.5t-12.5 209.5q56 261 264 261q36 0 65 -6t40 -12l11 -6q-5 -26 -26 -39
q-32 18 -90 18z" />
    <glyph glyph-name="Ccaron" unicode="&#x10c;" horiz-adv-x="553" 
d="M422 767l-106 104q11 22 27 28l99 -86l133 85q20 -6 22 -27l-149 -104h-26zM83 369q40 184 125 272.5t221 88.5q48 0 88 -8t56 -16l16 -9q-6 -22 -25 -40q-53 27 -138 27q-107 0 -180 -73.5t-111 -251.5q-17 -94 -17 -156t24 -99t59 -52t88 -15q41 0 81 6.5t60 13.5l19 7
q11 -16 8 -41q-67 -33 -185 -33q-268 0 -189 379z" />
    <glyph glyph-name="ccaron" unicode="&#x10d;" horiz-adv-x="442" 
d="M318 602l-98 96q10 19 26 25l90 -79l122 78q18 -5 20 -24l-137 -96h-23zM318 491q-86 0 -139 -56t-77 -170q-49 -228 124 -228q27 0 52.5 5.5t37.5 10.5l12 5q17 -12 14 -39q-48 -29 -133 -29q-101 0 -142.5 75.5t-12.5 209.5q56 261 264 261q36 0 65 -6t40 -12l11 -6
q-5 -26 -26 -39q-32 18 -90 18z" />
    <glyph glyph-name="Dcaron" unicode="&#x10e;" horiz-adv-x="662" 
d="M376 767l-106 104q10 20 27 26l97 -86l135 85q21 -6 22 -25l-149 -104h-26zM192 720h192q149 0 204.5 -85.5t12.5 -284.5q-22 -102 -53.5 -170.5t-76.5 -108t-99.5 -55.5t-128.5 -16h-204zM101 46h141q60 0 105 14t84 48.5t67 96.5t48 155q16 75 17.5 129.5t-10 90
t-37 56.5t-59.5 29.5t-82 8.5h-141z" />
    <glyph glyph-name="dcaron" unicode="&#x10f;" horiz-adv-x="566" 
d="M584 599q69 56 83 150q31 8 46 -4q-9 -46 -37.5 -91t-68.5 -69q-17 1 -23 14zM511 746q7 4 25 4l25 -4l-158 -742q-9 -4 -22 -4l-21 4l13 77q-69 -91 -177 -91q-200 0 -141 282q30 144 94 204t156 60q110 0 142 -88zM421 327q13 65 -15 115t-95 50q-81 0 -130.5 -53.5
t-75.5 -175.5q-26 -124 -1 -176.5t109 -52.5q68 0 118 50.5t63 115.5z" />
    <glyph glyph-name="Dcroat" unicode="&#x110;" horiz-adv-x="668" 
d="M198 720h192q149 0 204.5 -85.5t12.5 -284.5q-22 -102 -53.5 -170.5t-76.5 -108t-99.5 -55.5t-128.5 -16h-204l72 337h-85q-1 18 8 40h85zM248 46q60 0 105 14t84 48.5t67 96.5t48 155q16 75 17.5 129.5t-10 90t-37 56.5t-59.5 29.5t-82 8.5h-141l-63 -297h146
q1 -17 -8 -40h-146l-62 -291h141z" />
    <glyph glyph-name="dcroat" unicode="&#x111;" horiz-adv-x="555" 
d="M615 662q2 -5 -1 -18l-7 -18h-71l-132 -622q-9 -4 -22 -4l-21 4l11 77q-69 -91 -182 -91q-95 0 -131.5 63t-5.5 210q31 146 94.5 209.5t158.5 63.5q113 0 142 -88l38 178h-117q-2 5 1 18l7 18h117l18 84q7 4 25 4l25 -4l-18 -84h71zM395 200l27 127q13 65 -15 115t-95 50
q-84 0 -132 -53t-74 -176q-26 -124 -1 -176.5t109 -52.5q68 0 118 50.5t63 115.5z" />
    <glyph glyph-name="Emacron" unicode="&#x112;" horiz-adv-x="556" 
d="M539 792h-275q-2 22 9 40h275q3 -19 -9 -40zM192 720h391q2 -10 -1 -22q-3 -16 -9 -24h-339l-61 -286h289q1 -10 0 -22q-3 -12 -9 -23h-289l-63 -297h349q0 -18 -1 -22q-3 -14 -9 -24h-401z" />
    <glyph glyph-name="emacron" unicode="&#x113;" horiz-adv-x="505" 
d="M464 646h-241q-3 20 9 39h241q2 -23 -9 -39zM429 247h-330q-37 -211 122 -211q35 0 69 9.5t50 18.5l17 10q18 -16 14 -39q-6 -5 -18.5 -12.5t-54.5 -20t-89 -12.5q-102 0 -143.5 77t-10.5 212q29 127 96 192t160 65q87 0 127 -54.5t21 -139.5q-6 -28 -13.5 -51.5
t-11.5 -33.5zM415 353q13 60 -13.5 100t-94.5 40q-147 0 -199 -205h287q12 23 20 65z" />
    <glyph glyph-name="Ebreve" unicode="&#x114;" horiz-adv-x="556" 
d="M552 847q-7 -6 -19 -15t-51.5 -23.5t-80.5 -14.5q-26 0 -49 5.5t-37 13t-24 15.5t-15 14l-4 5q11 20 32 27q4 -4 12 -10.5t35 -17.5t58 -11t61.5 9.5t45.5 19.5l16 10q18 -6 20 -27zM192 720h391q2 -10 -1 -22q-3 -16 -9 -24h-339l-61 -286h289q1 -10 0 -22
q-3 -12 -9 -23h-289l-63 -297h349q0 -18 -1 -22q-3 -14 -9 -24h-401z" />
    <glyph glyph-name="ebreve" unicode="&#x115;" horiz-adv-x="505" 
d="M484 684q-6 -6 -16.5 -15.5t-46.5 -25t-76 -15.5t-73 14t-46 28l-14 14q11 20 30 27q4 -4 12 -11t34.5 -18t56.5 -11t59.5 10t44.5 20l15 10q20 -6 20 -27zM429 247h-330q-37 -211 122 -211q35 0 69 9.5t50 18.5l17 10q18 -16 14 -39q-6 -5 -18.5 -12.5t-54.5 -20
t-89 -12.5q-102 0 -143.5 77t-10.5 212q29 127 96 192t160 65q87 0 127 -54.5t21 -139.5q-6 -28 -13.5 -51.5t-11.5 -33.5zM415 353q13 60 -13.5 100t-94.5 40q-147 0 -199 -205h287q12 23 20 65z" />
    <glyph glyph-name="Edotaccent" unicode="&#x116;" horiz-adv-x="556" 
d="M447 842l-12 -54q-11 -4 -31 -4l-30 4l12 54q10 4 31 4zM192 720h391q2 -10 -1 -22q-3 -16 -9 -24h-339l-61 -286h289q1 -10 0 -22q-3 -12 -9 -23h-289l-63 -297h349q0 -18 -1 -22q-3 -14 -9 -24h-401z" />
    <glyph glyph-name="edotaccent" unicode="&#x117;" horiz-adv-x="505" 
d="M383 701l-12 -54q-10 -4 -30 -4l-30 4l12 54q10 4 31 4zM429 247h-330q-37 -211 122 -211q35 0 69 9.5t50 18.5l17 10q18 -16 14 -39q-6 -5 -18.5 -12.5t-54.5 -20t-89 -12.5q-102 0 -143.5 77t-10.5 212q29 127 96 192t160 65q87 0 127 -54.5t21 -139.5
q-6 -28 -13.5 -51.5t-11.5 -33.5zM415 353q13 60 -13.5 100t-94.5 40q-147 0 -199 -205h287q12 23 20 65z" />
    <glyph glyph-name="Eogonek" unicode="&#x118;" horiz-adv-x="556" 
d="M192 720h391q2 -10 -1 -22q-3 -16 -9 -24h-339l-61 -286h289q1 -10 0 -22q-3 -12 -9 -23h-289l-63 -297h349q0 -18 -1 -22q-3 -14 -9 -24q-52 -3 -90 -32t-46 -65q-5 -24 7 -37t37 -13q10 0 20.5 2.5t15.5 4.5l5 2q8 -10 5 -26q-28 -17 -64 -17q-40 0 -58.5 21.5
t-10.5 57.5q6 28 31.5 58t63.5 44h-317z" />
    <glyph glyph-name="eogonek" unicode="&#x119;" horiz-adv-x="503" 
d="M55 280q58 256 260 256q81 0 121.5 -52t22.5 -136q-6 -28 -14 -53t-13 -37l-6 -11h-328q-18 -112 12 -161t112 -49q35 0 68.5 9.5t49.5 18.5l16 9q17 -15 12 -39q-30 -25 -92 -38q-40 -8 -69.5 -35t-37.5 -64q-5 -22 7.5 -31t38.5 -9q10 0 20.5 2t15.5 4l5 3q8 -10 5 -28
q-28 -16 -64 -16q-41 0 -59.5 17.5t-11.5 52.5q13 63 71 97q-97 3 -134.5 79.5t-7.5 210.5zM410 354q13 61 -11 100t-91 39q-71 0 -123 -50.5t-78 -154.5h284q10 19 19 66z" />
    <glyph glyph-name="Ecaron" unicode="&#x11a;" horiz-adv-x="556" 
d="M372 767l-106 104q11 22 27 28l99 -86l133 85q20 -6 22 -27l-149 -104h-26zM192 720h391q2 -10 -1 -22q-3 -16 -9 -24h-339l-61 -286h289q1 -10 0 -22q-3 -12 -9 -23h-289l-63 -297h349q0 -18 -1 -22q-3 -14 -9 -24h-401z" />
    <glyph glyph-name="ecaron" unicode="&#x11b;" horiz-adv-x="505" 
d="M245 727l91 -82l127 81q19 -5 21 -25l-142 -99h-25l-101 99q11 20 29 26zM429 247h-330q-37 -211 122 -211q35 0 69 9.5t50 18.5l17 10q18 -16 14 -39q-6 -5 -18.5 -12.5t-54.5 -20t-89 -12.5q-102 0 -143.5 77t-10.5 212q29 127 96 192t160 65q87 0 127 -54.5t21 -139.5
q-6 -28 -13.5 -51.5t-11.5 -33.5zM415 353q13 60 -13.5 100t-94.5 40q-147 0 -199 -205h287q12 23 20 65z" />
    <glyph glyph-name="Gcircumflex" unicode="&#x11c;" horiz-adv-x="620" 
d="M503 899l105 -104q-13 -24 -27 -27l-99 85l-133 -86q-21 9 -22 28l150 104h26zM83 373q77 357 357 357q51 0 95 -8t63 -16l18 -9q-9 -24 -25 -39q-66 26 -154 26q-109 0 -187 -74t-116 -251q-17 -94 -15 -156t28 -99t63 -52t90 -15q59 0 139 16l60 282h-180q-2 9 1 23
l9 23h231l-76 -358q-81 -33 -201 -33q-135 0 -187 98.5t-13 284.5z" />
    <glyph glyph-name="gcircumflex" unicode="&#x11d;" horiz-adv-x="555" 
d="M378 731l103 -103q-11 -21 -29 -25l-92 83l-132 -86q-19 8 -22 28l147 103h25zM359 26l12 53q-68 -89 -175 -89q-94 0 -132.5 70t-7.5 217q30 144 92 201.5t157 57.5q107 0 142 -90l16 76q8 4 26 4l25 -4l-105 -496q-31 -146 -92 -211t-188 -65q-38 0 -72 7t-49 13l-14 7
q5 27 23 38q53 -20 117 -20q98 0 147.5 48t77.5 183zM105 263q-26 -124 -1 -176.5t109 -52.5q71 0 118.5 51.5t61.5 109.5l29 135q7 24 3 52.5t-14 52.5t-36 40.5t-64 16.5q-84 0 -132 -53t-74 -176z" />
    <glyph glyph-name="Gbreve" unicode="&#x11e;" horiz-adv-x="620" 
d="M605 839q-7 -6 -19 -15t-51 -24t-80 -15t-73.5 13.5t-43.5 27.5l-12 13q11 19 31 26q4 -4 12.5 -10.5t36 -17.5t58.5 -11t61.5 10t45.5 20l15 9q19 -6 19 -26zM83 373q77 357 357 357q51 0 95 -8t63 -16l18 -9q-9 -24 -25 -39q-66 26 -154 26q-109 0 -187 -74t-116 -251
q-17 -94 -15 -156t28 -99t63 -52t90 -15q59 0 139 16l60 282h-180q-2 9 1 23l9 23h231l-76 -358q-81 -33 -201 -33q-135 0 -187 98.5t-13 284.5z" />
    <glyph glyph-name="gbreve" unicode="&#x11f;" horiz-adv-x="555" 
d="M495 681q-6 -6 -16.5 -15.5t-46.5 -25t-76 -15.5t-72.5 14t-45.5 28l-13 14q9 20 29 27q4 -4 12 -11t34.5 -18t56.5 -11t59.5 10t44.5 20l15 10q19 -5 19 -27zM359 26l12 53q-68 -89 -175 -89q-94 0 -132.5 70t-7.5 217q30 144 92 201.5t157 57.5q107 0 142 -90l16 76
q8 4 26 4l25 -4l-105 -496q-31 -146 -92 -211t-188 -65q-38 0 -72 7t-49 13l-14 7q5 27 23 38q53 -20 117 -20q98 0 147.5 48t77.5 183zM105 263q-26 -124 -1 -176.5t109 -52.5q71 0 118.5 51.5t61.5 109.5l29 135q7 24 3 52.5t-14 52.5t-36 40.5t-64 16.5q-84 0 -132 -53
t-74 -176z" />
    <glyph glyph-name="Gdotaccent" unicode="&#x120;" horiz-adv-x="620" 
d="M496 842l-12 -54q-10 -4 -30 -4l-31 4l12 54q11 4 32 4zM83 373q77 357 357 357q51 0 95 -8t63 -16l18 -9q-9 -24 -25 -39q-66 26 -154 26q-109 0 -187 -74t-116 -251q-17 -94 -15 -156t28 -99t63 -52t90 -15q59 0 139 16l60 282h-180q-2 9 1 23l9 23h231l-76 -358
q-81 -33 -201 -33q-135 0 -187 98.5t-13 284.5z" />
    <glyph glyph-name="gdotaccent" unicode="&#x121;" horiz-adv-x="555" 
d="M393 699l-12 -54q-11 -4 -31 -4l-29 4l12 54q9 4 30 4zM359 26l12 53q-68 -89 -175 -89q-94 0 -132.5 70t-7.5 217q30 144 92 201.5t157 57.5q107 0 142 -90l16 76q8 4 26 4l25 -4l-105 -496q-31 -146 -92 -211t-188 -65q-38 0 -72 7t-49 13l-14 7q5 27 23 38
q53 -20 117 -20q98 0 147.5 48t77.5 183zM105 263q-26 -124 -1 -176.5t109 -52.5q71 0 118.5 51.5t61.5 109.5l29 135q7 24 3 52.5t-14 52.5t-36 40.5t-64 16.5q-84 0 -132 -53t-74 -176z" />
    <glyph glyph-name="Gcommaaccent" unicode="&#x122;" horiz-adv-x="620" 
d="M219 -219l-20 14q38 28 53 82l-22 4l11 52q13 4 35 4l32 -4l-8 -38q-7 -33 -27.5 -61.5t-36.5 -40.5zM83 373q77 357 357 357q51 0 95 -8t63 -16l18 -9q-9 -24 -25 -39q-66 26 -154 26q-109 0 -187 -74t-116 -251q-17 -94 -15 -156t28 -99t63 -52t90 -15q59 0 139 16
l60 282h-180q-2 9 1 23l9 23h231l-76 -358q-81 -33 -201 -33q-135 0 -187 98.5t-13 284.5z" />
    <glyph glyph-name="gcommaaccent" unicode="&#x123;" horiz-adv-x="555" 
d="M385 750l20 -13q-36 -26 -52 -77l22 -4l-10 -49q-12 -3 -33 -3l-32 3l8 36q7 31 26 58t35 38zM359 26l12 53q-68 -89 -175 -89q-94 0 -132.5 70t-7.5 217q30 144 92 201.5t157 57.5q107 0 142 -90l16 76q8 4 26 4l25 -4l-105 -496q-31 -146 -92 -211t-188 -65
q-38 0 -72 7t-49 13l-14 7q5 27 23 38q53 -20 117 -20q98 0 147.5 48t77.5 183zM105 263q-26 -124 -1 -176.5t109 -52.5q71 0 118.5 51.5t61.5 109.5l29 135q7 24 3 52.5t-14 52.5t-36 40.5t-64 16.5q-84 0 -132 -53t-74 -176z" />
    <glyph glyph-name="Hcircumflex" unicode="&#x124;" horiz-adv-x="679" 
d="M486 899l105 -104q-12 -23 -30 -27l-94 85l-138 -86q-18 7 -19 28l150 104h26zM542 393l69 323q10 4 27 4l25 -4l-151 -712q-9 -4 -27 -4l-25 4l72 341h-368l-72 -341q-10 -4 -27 -4l-25 4l151 712q10 4 27 4l25 -4l-69 -323h368z" />
    <glyph glyph-name="hcircumflex" unicode="&#x125;" horiz-adv-x="551" 
d="M246 891l110 -100q-12 -22 -29 -26l-95 82l-127 -82q-18 5 -19 26l135 100h25zM483 377l-80 -373q-9 -4 -26 -4l-24 4l79 372q25 117 -95 117q-48 0 -98.5 -30.5t-85.5 -82.5l-80 -376q-9 -4 -26 -4l-24 4l158 742q8 4 25 4l25 -4l-64 -297q79 87 190 87q72 0 107 -43
t19 -116z" />
    <glyph glyph-name="Hbar" unicode="&#x126;" horiz-adv-x="688" 
d="M643 592h75q4 -19 -8 -37h-75l-117 -551q-9 -4 -27 -4l-25 4l72 341h-368l-72 -341q-10 -4 -27 -4l-25 4l117 551h-65q-3 19 8 37h65l26 124q10 4 27 4l25 -4l-26 -124h368l26 124q10 4 27 4l25 -4zM215 555l-35 -162h368l35 162h-368z" />
    <glyph glyph-name="hbar" unicode="&#x127;" horiz-adv-x="551" 
d="M167 449q79 87 190 87q72 0 107 -43t19 -116l-80 -373q-9 -4 -26 -4l-24 4l79 372q25 117 -95 117q-48 0 -98.5 -30.5t-85.5 -82.5l-80 -376q-9 -4 -26 -4l-24 4l132 621h-71q-3 18 8 37h71l18 84q8 4 25 4l25 -4l-18 -84h153q3 -15 -8 -37h-153z" />
    <glyph glyph-name="Itilde" unicode="&#x128;" horiz-adv-x="259" 
d="M299 804q12 0 24.5 7t18.5 13l7 7q13 -5 15 -21q-4 -10 -27 -27t-51 -17q-26 0 -53.5 17.5t-44.5 17.5q-12 0 -24 -6.5t-18 -12.5l-5 -7q-17 8 -18 22q3 5 8.5 12t26 18.5t43.5 11.5q26 0 53.5 -17.5t44.5 -17.5zM40 4l151 712q9 4 27 4l25 -4l-151 -712q-9 -4 -27 -4z
" />
    <glyph glyph-name="itilde" unicode="&#x129;" horiz-adv-x="230" 
d="M239 671q10 0 20.5 7.5t16.5 15.5l5 7q17 -9 16 -25l-5 -8q-5 -8 -8.5 -12t-10.5 -10.5t-16.5 -9.5t-20.5 -3q-21 0 -48 17t-42 17q-10 0 -20.5 -7t-15.5 -14l-6 -7q-16 10 -15 25q23 41 60 41q22 0 49 -17t41 -17zM186 522l-110 -518q-8 -4 -26 -4l-24 4l110 518
q8 4 26 4z" />
    <glyph glyph-name="Imacron" unicode="&#x12a;" horiz-adv-x="259" 
d="M359 777h-255q-5 21 9 40h255q5 -19 -9 -40zM40 4l151 712q9 4 27 4l25 -4l-151 -712q-9 -4 -27 -4z" />
    <glyph glyph-name="imacron" unicode="&#x12b;" horiz-adv-x="230" 
d="M280 656h-180q-2 21 8 37h180q4 -20 -8 -37zM186 522l-110 -518q-8 -4 -26 -4l-24 4l110 518q8 4 26 4z" />
    <glyph glyph-name="Ibreve" unicode="&#x12c;" horiz-adv-x="259" 
d="M380 839q-7 -6 -19 -15t-51 -24t-80 -15t-73.5 13.5t-44.5 27.5l-11 13q11 19 32 26q4 -4 12 -10.5t35.5 -17.5t58.5 -11t61.5 10t45.5 20l15 9q19 -6 19 -26zM40 4l151 712q9 4 27 4l25 -4l-151 -712q-9 -4 -27 -4z" />
    <glyph glyph-name="ibreve" unicode="&#x12d;" horiz-adv-x="230" 
d="M330 687q-6 -6 -16.5 -15.5t-46.5 -25.5t-76 -16q-25 0 -48 6t-37.5 14t-25 16.5t-15.5 14.5l-5 6q11 21 30 26q4 -4 11.5 -11t34 -18t56.5 -11t60 10t45 20l15 10q18 -6 18 -26zM186 522l-110 -518q-8 -4 -26 -4l-24 4l110 518q8 4 26 4z" />
    <glyph glyph-name="Iogonek" unicode="&#x12e;" horiz-adv-x="259" 
d="M92 4v-1q-41 -12 -70.5 -39t-34.5 -55q-5 -24 6.5 -37t36.5 -13q10 0 20.5 2.5t15.5 4.5l5 2q10 -9 5 -27q-26 -17 -63 -17q-40 0 -59 21.5t-11 57.5q16 72 98 107l150 706q9 4 27 4l25 -4z" />
    <glyph glyph-name="iogonek" unicode="&#x12f;" horiz-adv-x="230" 
d="M159 666q11 4 32 4l32 -4l-12 -56q-12 -4 -33 -4l-31 4zM135 522q8 4 26 4l24 -4l-110 -516q-35 -14 -64 -45t-35 -61q-10 -44 44 -44q10 0 20.5 2t15.5 4l6 3q9 -9 4 -28q-26 -17 -63 -17q-41 0 -60.5 19.5t-12.5 54.5q7 32 34.5 64t61.5 51z" />
    <glyph glyph-name="Idotaccent" unicode="&#x130;" horiz-adv-x="259" 
d="M213 840q10 4 31 4l32 -4l-12 -56q-12 -4 -33 -4l-30 4zM191 716q9 4 27 4l25 -4l-151 -712q-9 -4 -27 -4l-25 4z" />
    <glyph glyph-name="dotlessi" unicode="&#x131;" horiz-adv-x="230" 
d="M186 522l-110 -518q-8 -4 -26 -4l-24 4l110 518q8 4 26 4z" />
    <glyph glyph-name="IJ" unicode="&#x132;" horiz-adv-x="641" 
d="M40 4l151 712q9 4 27 4l25 -4l-151 -712q-9 -4 -27 -4zM461 163l117 553q8 4 27 4l25 -4l-117 -553q-19 -89 -68.5 -131t-131.5 -42q-33 0 -66 7.5t-49 14.5l-16 8q5 28 24 41q50 -24 111 -24q116 0 144 126z" />
    <glyph glyph-name="ij" unicode="&#x133;" horiz-adv-x="428" 
d="M232 706l-12 -56q-12 -4 -33 -4l-31 4l12 56q12 4 33 4zM186 522l-110 -518q-8 -4 -26 -4l-24 4l110 518q8 4 26 4zM430 709l-12 -56q-11 -4 -32 -4l-31 4l12 56q11 4 33 4zM203 -92l131 614q7 4 26 4l24 -4l-130 -610q-34 -162 -169 -162q-19 0 -33 2t-19 4l-5 3
q-1 5 0 12q2 8 5 14.5t5 8.5l2 3q15 -4 42 -4q50 0 79 27t42 88z" />
    <glyph glyph-name="Jcircumflex" unicode="&#x134;" horiz-adv-x="427" 
d="M442 899l105 -104q-12 -23 -30 -27l-99 85l-133 -86q-18 7 -19 28l150 104h26zM247 163l117 553q8 4 27 4l25 -4l-117 -552q-37 -174 -200 -174q-34 0 -66.5 7.5t-48.5 14.5l-16 8q5 28 24 41q50 -24 111 -24q116 0 144 126z" />
    <glyph glyph-name="jcircumflex" unicode="&#x135;" horiz-adv-x="230" 
d="M209 712l108 -102q-13 -22 -30 -26l-96 83l-131 -84q-16 7 -18 27l141 102h26zM5 -92l131 614q7 4 26 4l24 -4l-130 -610q-34 -162 -169 -162q-19 0 -33 2t-19 4l-5 3q-1 5 0 12q2 8 5 14.5t5 8.5l2 3q15 -4 42 -4q50 0 79 27t42 88z" />
    <glyph glyph-name="Kcommaaccent" unicode="&#x136;" horiz-adv-x="608" 
d="M188 -207l-19 16q37 30 53 87l-21 4l12 56q11 4 32 4l32 -4l-9 -40q-8 -36 -28 -67t-36 -43zM298 397l290 319q12 4 30 4q13 0 29 -4l-309 -345l187 -367q-11 -4 -31 -4l-29 4l-173 347h-127l-74 -347q-9 -4 -27 -4l-25 4l151 712q10 4 28 4l24 -4l-68 -319h124z" />
    <glyph glyph-name="kcommaaccent" unicode="&#x137;" horiz-adv-x="495" 
d="M138 -207l-19 15q37 30 53 87l-22 4l12 56q12 4 33 4l31 -4l-8 -40q-8 -36 -28 -66.5t-36 -42.5zM241 296l202 226q8 4 29 4l27 -3l-225 -253l139 -265q-11 -5 -30 -5l-24 5l-128 249h-105l-53 -250q-9 -4 -26 -4l-24 4l158 742q8 4 25 4l25 -4l-96 -450h106z" />
    <glyph glyph-name="kgreenlandic" unicode="&#x138;" horiz-adv-x="500" 
d="M509 522l-244 -223l153 -294q-11 -5 -29 -5l-28 4l-135 260l-121 -110l-32 -150q-9 -4 -26 -4q-16 0 -24 4l110 519q11 3 27 3q18 0 23 -3l-61 -294l320 293q12 4 32 4q24 0 35 -4z" />
    <glyph glyph-name="Lacute" unicode="&#x139;" horiz-adv-x="505" 
d="M366 901l-155 -144q-23 3 -29 19l142 148q31 2 42 -23zM39 0l152 716q10 4 27 4l25 -4l-142 -669h323q0 -18 -1 -23q-1 -9 -9 -24h-375z" />
    <glyph glyph-name="lacute" unicode="&#x13a;" horiz-adv-x="234" 
d="M343 922l-156 -144q-23 3 -29 19l143 148q31 2 42 -23zM236 746l-158 -742q-8 -4 -26 -4l-24 4l158 742q7 4 25 4z" />
    <glyph glyph-name="Lcommaaccent" unicode="&#x13b;" horiz-adv-x="505" 
d="M39 0l152 716q10 4 27 4l25 -4l-142 -669h323q0 -18 -1 -23q-1 -9 -9 -24h-375zM166 -218l-18 16q36 30 53 87l-22 4l12 56q11 4 32 4l32 -4l-9 -40q-8 -36 -28 -67t-36 -44z" />
    <glyph glyph-name="lcommaaccent" unicode="&#x13c;" horiz-adv-x="234" 
d="M237 746l-158 -742q-8 -4 -26 -4l-24 4l158 742q7 4 25 4zM-13 -207l-18 16q36 30 53 87l-21 4l12 56q10 4 31 4l32 -4l-9 -40q-8 -36 -28 -67t-36 -43z" />
    <glyph glyph-name="Lcaron" unicode="&#x13d;" horiz-adv-x="505" 
d="M346 588q-17 3 -21 17q73 51 96 144q33 3 45 -10q-14 -46 -47 -89t-73 -62zM39 0l152 716q10 4 27 4l25 -4l-142 -669h323q0 -18 -1 -23q-1 -9 -9 -24h-375z" />
    <glyph glyph-name="lcaron" unicode="&#x13e;" horiz-adv-x="241" 
d="M282 585q-17 1 -23 14q69 56 83 150q31 8 46 -4q-9 -46 -37.5 -91t-68.5 -69zM236 746l-158 -742q-8 -4 -26 -4l-24 4l158 742q7 4 25 4z" />
    <glyph glyph-name="Ldot" unicode="&#x13f;" horiz-adv-x="507" 
d="M39 0l152 716q10 4 27 4l25 -4l-142 -669h323q0 -18 -1 -23q-1 -9 -9 -24h-375zM379 360l-11 -52q-10 -4 -30 -4l-30 4l11 52q11 4 31 4z" />
    <glyph glyph-name="ldot" unicode="&#x140;" horiz-adv-x="284" 
d="M236 746l-158 -742q-8 -4 -26 -4l-24 4l158 742q7 4 25 4zM299 360l-11 -52q-10 -4 -30 -4l-30 4l11 52q11 4 31 4z" />
    <glyph glyph-name="Lslash" unicode="&#x141;" horiz-adv-x="520" 
d="M207 716q10 4 27 4l25 -4l-65 -308l116 61q14 -11 12 -34l-138 -72l-67 -316h323q0 -18 -1 -23q-1 -9 -9 -24h-375l71 333l-80 -40q-15 13 -12 33l101 52z" />
    <glyph glyph-name="lslash" unicode="&#x142;" horiz-adv-x="304" 
d="M211 746q7 4 25 4l25 -4l-66 -306l93 47q7 -5 10 -14q5 -12 3 -20l-115 -59l-83 -390q-8 -4 -26 -4l-24 4l77 361l-84 -43q-3 2 -10 14q-3 9 -1 20l104 54z" />
    <glyph glyph-name="Nacute" unicode="&#x143;" horiz-adv-x="696" 
d="M601 901l-155 -144q-23 3 -29 19l142 148q31 2 42 -23zM468 4l-243 639h-2q-6 -35 -26 -131l-108 -508q-9 -4 -27 -4l-23 4l151 712q12 4 32 4l29 -4l245 -647h2q7 55 24 133l109 514q8 4 26 4l23 -4l-151 -712q-10 -4 -31 -4z" />
    <glyph glyph-name="nacute" unicode="&#x144;" 
d="M450 752l-156 -144q-23 3 -29 19l143 148q31 2 42 -23zM482 377l-79 -373q-9 -4 -26 -4l-24 4l79 372q25 117 -95 117q-48 0 -98.5 -30.5t-85.5 -82.5l-80 -376q-9 -4 -26 -4l-24 4l110 518q9 4 26 4l24 -4l-16 -77q86 91 187 91q72 0 107.5 -43.5t20.5 -115.5z" />
    <glyph glyph-name="Ncommaaccent" unicode="&#x145;" horiz-adv-x="696" 
d="M217 -211l-19 16q37 30 53 87l-21 4l12 56q11 4 32 4l32 -4l-9 -40q-8 -36 -28 -67t-36 -43zM468 4l-243 639h-2q-6 -35 -26 -131l-108 -508q-9 -4 -27 -4l-23 4l151 712q12 4 32 4l29 -4l245 -647h2q7 55 24 133l109 514q8 4 26 4l23 -4l-151 -712q-10 -4 -31 -4z" />
    <glyph glyph-name="ncommaaccent" unicode="&#x146;" 
d="M150 -213l-19 15q35 30 52 87l-21 4l12 57q12 4 33 4l30 -4l-8 -41q-8 -36 -27.5 -66.5t-35.5 -42.5zM482 377l-79 -373q-9 -4 -26 -4l-24 4l79 372q25 117 -95 117q-48 0 -98.5 -30.5t-85.5 -82.5l-80 -376q-9 -4 -26 -4l-24 4l110 518q9 4 26 4l24 -4l-16 -77
q86 91 187 91q72 0 107.5 -43.5t20.5 -115.5z" />
    <glyph glyph-name="Ncaron" unicode="&#x147;" horiz-adv-x="696" 
d="M441 767l-106 104q11 22 28 28l99 -86l130 87q9 -2 16 -11t8 -18l-149 -104h-26zM468 4l-243 639h-2q-6 -35 -26 -131l-108 -508q-9 -4 -27 -4l-23 4l151 712q12 4 32 4l29 -4l245 -647h2q7 55 24 133l109 514q8 4 26 4l23 -4l-151 -712q-10 -4 -31 -4z" />
    <glyph glyph-name="ncaron" unicode="&#x148;" 
d="M355 651l122 78q15 -4 18 -24l-133 -97h-23l-101 97q10 19 27 25zM482 377l-79 -373q-9 -4 -26 -4l-24 4l79 372q25 117 -95 117q-48 0 -98.5 -30.5t-85.5 -82.5l-80 -376q-9 -4 -26 -4l-24 4l110 518q9 4 26 4l24 -4l-16 -77q86 91 187 91q72 0 107.5 -43.5t20.5 -115.5
z" />
    <glyph glyph-name="napostrophe" unicode="&#x149;" 
d="M163 588q-17 3 -21 17q73 51 96 144q33 3 45 -10q-14 -46 -47 -89t-73 -62zM482 377l-79 -373q-9 -4 -26 -4l-24 4l79 372q25 117 -95 117q-48 0 -98.5 -30.5t-85.5 -82.5l-80 -376q-9 -4 -26 -4l-24 4l110 518q9 4 26 4l24 -4l-16 -77q86 91 187 91q72 0 107.5 -43.5
t20.5 -115.5z" />
    <glyph glyph-name="Eng" unicode="&#x14a;" horiz-adv-x="697" 
d="M631 716q9 4 27 4l23 -4l-163 -768q-15 -73 -47 -114t-101 -62q-17 12 -7 39q44 14 67 44t36 91l12 56l-9 2l-243 648h-2q-6 -44 -26 -140l-108 -508q-9 -4 -27 -4l-23 4l151 712q12 4 32 4l29 -4l245 -640h2q6 48 23 126z" />
    <glyph glyph-name="eng" unicode="&#x14b;" horiz-adv-x="551" 
d="M167 445q86 91 187 91q72 0 107.5 -43.5t20.5 -115.5l-91 -429q-15 -73 -47 -114t-101 -62q-15 13 -7 38q46 15 69.5 46t35.5 90l91 430q25 117 -95 117q-48 0 -98.5 -30.5t-85.5 -82.5l-80 -376q-9 -4 -26 -4l-24 4l110 518q9 4 26 4l24 -4z" />
    <glyph glyph-name="Omacron" unicode="&#x14c;" horiz-adv-x="676" 
d="M317 845h270q3 -19 -9 -40h-270q-3 18 9 40zM83 373q40 188 125 272.5t215 84.5q129 0 181 -94.5t11 -283.5q-40 -190 -123 -276t-212 -86q-130 0 -183.5 97t-13.5 286zM563 360q36 170 -5 247.5t-139 77.5q-215 0 -284 -325q-35 -167 8.5 -246t136.5 -79q215 0 283 325z
" />
    <glyph glyph-name="omacron" unicode="&#x14d;" horiz-adv-x="538" 
d="M233 694h234q5 -20 -8 -40h-234q-2 22 8 40zM55 274q56 262 260 262q211 0 151 -281q-56 -265 -261 -265q-210 0 -150 284zM416 263q26 127 -2 179t-105 52q-157 0 -205 -231q-27 -126 1.5 -178.5t105.5 -52.5q155 0 205 231z" />
    <glyph glyph-name="Obreve" unicode="&#x14e;" horiz-adv-x="676" 
d="M451 826q31 0 61.5 10t45.5 20l15 9q19 -6 19 -26q-6 -6 -17 -15t-48 -24t-78 -15t-75 13.5t-48 27.5l-13 13q11 19 32 26q4 -4 12 -10.5t35.5 -17.5t58.5 -11zM83 373q40 188 125 272.5t215 84.5q129 0 181 -94.5t11 -283.5q-40 -190 -123 -276t-212 -86
q-130 0 -183.5 97t-13.5 286zM563 360q36 170 -5 247.5t-139 77.5q-215 0 -284 -325q-35 -167 8.5 -246t136.5 -79q215 0 283 325z" />
    <glyph glyph-name="obreve" unicode="&#x14f;" horiz-adv-x="538" 
d="M347 678q30 0 60 10t45 20l15 10q18 -6 18 -26q-6 -6 -16.5 -15.5t-46.5 -25t-76 -15.5t-72.5 14t-45.5 28l-13 14q11 19 30 26q4 -4 11.5 -11t34 -18t56.5 -11zM55 274q56 262 260 262q211 0 151 -281q-56 -265 -261 -265q-210 0 -150 284zM416 263q26 127 -2 179
t-105 52q-157 0 -205 -231q-27 -126 1.5 -178.5t105.5 -52.5q155 0 205 231z" />
    <glyph glyph-name="Ohungarumlaut" unicode="&#x150;" horiz-adv-x="676" 
d="M340 792l111 124q33 2 45 -22l-129 -120q-23 3 -27 18zM486 792l113 124q31 2 44 -22l-129 -120q-22 3 -28 18zM83 373q40 188 125 272.5t215 84.5q129 0 181 -94.5t11 -283.5q-40 -190 -123 -276t-212 -86q-130 0 -183.5 97t-13.5 286zM563 360q36 170 -5 247.5
t-139 77.5q-215 0 -284 -325q-35 -167 8.5 -246t136.5 -79q215 0 283 325z" />
    <glyph glyph-name="ohungarumlaut" unicode="&#x151;" horiz-adv-x="538" 
d="M239 623l124 122q33 2 43 -19l-140 -119q-21 1 -27 16zM381 623l123 122q33 2 44 -19l-140 -119q-22 2 -27 16zM55 274q56 262 260 262q211 0 151 -281q-56 -265 -261 -265q-210 0 -150 284zM416 263q26 127 -2 179t-105 52q-157 0 -205 -231q-27 -126 1.5 -178.5
t105.5 -52.5q155 0 205 231z" />
    <glyph glyph-name="OE" unicode="&#x152;" horiz-adv-x="837" 
d="M84 374q41 188 129.5 272t223.5 84q44 0 84 -10h342q2 -7 -1 -23q-3 -14 -9 -23h-297l-61 -286h247q2 -7 0 -22q-3 -12 -9 -23h-247l-63 -297h307q2 -11 -1 -22q-3 -13 -9 -24h-353q-44 -10 -87 -10q-132 0 -184 97t-12 287zM508 672q-35 13 -80 13q-224 0 -294 -325
q-68 -325 155 -325q51 0 86 14z" />
    <glyph glyph-name="oe" unicode="&#x153;" horiz-adv-x="825" 
d="M747 247h-304q-19 -114 6 -163t99 -49q32 0 63.5 9t46.5 18l16 9q16 -10 13 -36q-7 -5 -19.5 -12.5t-54 -20t-86.5 -12.5q-118 0 -135 125q-35 -66 -80.5 -95.5t-110.5 -29.5q-207 0 -147 282q30 143 93.5 203.5t164.5 60.5q65 0 99 -30t41 -96q71 126 192 126
q85 0 119.5 -51t16.5 -137q-6 -28 -14 -53t-14 -37zM305 494q-74 0 -124 -52.5t-76 -178.5q-27 -126 0.5 -178.5t101.5 -52.5q72 0 116.5 52t72.5 181q21 87 14 138t-32 71t-73 20zM733 354q13 62 -7 100.5t-84 38.5t-114 -51t-76 -154h262q10 19 19 66z" />
    <glyph glyph-name="Racute" unicode="&#x154;" horiz-adv-x="620" 
d="M322 776l142 148q31 2 42 -23l-155 -144q-23 3 -29 19zM192 720h241q93 0 134.5 -59.5t21.5 -151.5q-16 -75 -64 -122t-122 -62l105 -321q-11 -4 -31 -4l-30 4l-101 315h-187l-67 -315q-9 -4 -26 -4l-26 4zM234 674l-65 -309h188q68 0 116 41t63 113q16 73 -15 114
t-99 41h-188z" />
    <glyph glyph-name="racute" unicode="&#x155;" horiz-adv-x="388" 
d="M215 627l143 148q31 2 42 -23l-156 -144q-23 3 -29 19zM165 441q29 43 64.5 65.5t55 25.5t46.5 3q50 0 79 -23q-8 -29 -33 -42q-31 18 -68 18q-84 0 -159 -119l-77 -365q-8 -4 -26 -4l-24 4l110 518q8 4 26 4l24 -4z" />
    <glyph glyph-name="Rcommaaccent" unicode="&#x156;" horiz-adv-x="620" 
d="M234 -54q11 4 32 4l32 -4l-9 -40q-8 -36 -28 -67t-36 -43l-16 -13l-19 16q37 30 53 87l-21 4zM192 720h241q93 0 134.5 -59.5t21.5 -151.5q-16 -75 -64 -122t-122 -62l105 -321q-11 -4 -31 -4l-30 4l-101 315h-187l-67 -315q-9 -4 -26 -4l-26 4zM234 674l-65 -309h188
q68 0 116 41t63 113q16 73 -15 114t-99 41h-188z" />
    <glyph glyph-name="rcommaaccent" unicode="&#x157;" horiz-adv-x="388" 
d="M8 -44q11 4 31 4l32 -4l-9 -40q-8 -36 -28 -67t-36 -43l-16 -13l-18 16q36 30 53 87l-21 4zM166 441q29 43 64.5 65.5t55 25.5t46.5 3q50 0 79 -23q-8 -29 -33 -42q-32 18 -68 18q-84 0 -159 -119l-77 -365q-8 -4 -26 -4l-24 4l110 518q8 4 26 4l24 -4z" />
    <glyph glyph-name="Rcaron" unicode="&#x158;" horiz-adv-x="620" 
d="M396 813l133 85q20 -6 22 -27l-149 -104h-26l-106 104q11 22 27 28zM192 720h241q93 0 134.5 -59.5t21.5 -151.5q-16 -75 -64 -122t-122 -62l105 -321q-11 -4 -31 -4l-30 4l-101 315h-187l-67 -315q-9 -4 -26 -4l-26 4zM234 674l-65 -309h188q68 0 116 41t63 113
q16 73 -15 114t-99 41h-188z" />
    <glyph glyph-name="rcaron" unicode="&#x159;" horiz-adv-x="388" 
d="M276 645l122 78q15 -4 17 -25l-131 -96h-23l-104 96q10 19 29 26zM165 441q29 43 64.5 65.5t55 25.5t46.5 3q50 0 79 -23q-8 -29 -33 -42q-31 18 -68 18q-84 0 -159 -119l-77 -365q-8 -4 -26 -4l-24 4l110 518q8 4 26 4l24 -4z" />
    <glyph glyph-name="Sacute" unicode="&#x15a;" horiz-adv-x="560" 
d="M522 902l-148 -132q-23 3 -28 20l134 136q32 2 42 -24zM118 548q19 89 87 135.5t180 46.5q50 0 94.5 -6t64.5 -12l20 -7q-7 -27 -23 -42q-71 21 -159 21q-92 0 -146 -38.5t-68 -106.5q-4 -17 -4 -31.5t2.5 -26t9 -21.5t13 -18t19 -15.5t22.5 -12t26.5 -11t28.5 -10
t32 -9.5q23 -7 40 -13.5t37.5 -16.5t33.5 -21t27 -27t18.5 -34.5t7.5 -43t-5 -53.5q-19 -91 -90 -138t-185 -47q-55 0 -103.5 9.5t-69.5 18.5l-22 10q5 25 23 43q82 -32 177 -32q91 0 148 38t72 109q7 21 4 39t-6 31t-14.5 25t-21.5 19.5t-27.5 15t-31.5 12.5t-34 11
q-21 6 -34 10.5t-32 12t-31 14t-27.5 17t-24.5 21t-17.5 24.5t-12 30t-3.5 36.5t5 43.5z" />
    <glyph glyph-name="sacute" unicode="&#x15b;" horiz-adv-x="442" 
d="M406 752l-156 -144q-23 3 -29 19l143 148q31 2 42 -23zM82 405q29 131 201 131q36 0 67 -6t44 -12l14 -5q-4 -25 -23 -39q-45 18 -106 18q-130 0 -150 -96q-9 -42 18 -66t80 -40q15 -5 26 -9t25.5 -10.5t24 -13t21.5 -16.5t17 -20.5t11 -25t4.5 -30t-3.5 -36.5
q-30 -139 -208 -139q-43 0 -80 8t-53 16l-15 8q3 25 22 39q59 -26 131 -26q60 0 100.5 25t51.5 77q6 27 1 46.5t-23 32.5t-34 19.5t-46 15.5q-142 44 -118 154z" />
    <glyph glyph-name="Scircumflex" unicode="&#x15c;" horiz-adv-x="560" 
d="M432 904l105 -104q-7 -23 -26 -27l-99 85l-133 -86q-20 9 -23 28l150 104h26zM118 548q19 89 87 135.5t180 46.5q50 0 94.5 -6t64.5 -12l20 -7q-7 -27 -23 -42q-71 21 -159 21q-92 0 -146 -38.5t-68 -106.5q-4 -17 -4 -31.5t2.5 -26t9 -21.5t13 -18t19 -15.5t22.5 -12
t26.5 -11t28.5 -10t32 -9.5q23 -7 40 -13.5t37.5 -16.5t33.5 -21t27 -27t18.5 -34.5t7.5 -43t-5 -53.5q-19 -91 -90 -138t-185 -47q-55 0 -103.5 9.5t-69.5 18.5l-22 10q5 25 23 43q82 -32 177 -32q91 0 148 38t72 109q7 21 4 39t-6 31t-14.5 25t-21.5 19.5t-27.5 15
t-31.5 12.5t-34 11q-21 6 -34 10.5t-32 12t-31 14t-27.5 17t-24.5 21t-17.5 24.5t-12 30t-3.5 36.5t5 43.5z" />
    <glyph glyph-name="scircumflex" unicode="&#x15d;" horiz-adv-x="442" 
d="M324 728l109 -102q-13 -22 -30 -26l-96 83l-131 -84q-16 7 -18 27l141 102h25zM82 405q29 131 201 131q36 0 67 -6t44 -12l14 -5q-4 -25 -23 -39q-45 18 -106 18q-130 0 -150 -96q-9 -42 18 -66t80 -40q15 -5 26 -9t25.5 -10.5t24 -13t21.5 -16.5t17 -20.5t11 -25
t4.5 -30t-3.5 -36.5q-30 -139 -208 -139q-43 0 -80 8t-53 16l-15 8q3 25 22 39q59 -26 131 -26q60 0 100.5 25t51.5 77q6 27 1 46.5t-23 32.5t-34 19.5t-46 15.5q-142 44 -118 154z" />
    <glyph glyph-name="Scedilla" unicode="&#x15e;" horiz-adv-x="560" 
d="M118 548q19 89 87 135.5t180 46.5q50 0 94.5 -6t64.5 -12l20 -7q-7 -27 -23 -42q-71 21 -159 21q-92 0 -146 -38.5t-68 -106.5q-4 -17 -4 -31.5t2.5 -26t9 -21.5t13 -18t19 -15.5t22.5 -12t26.5 -11t28.5 -10t32 -9.5q23 -7 40 -13.5t37.5 -16.5t33.5 -21t27 -27
t18.5 -34.5t7.5 -43t-5 -53.5q-38 -176 -254 -185l-19 -48q110 0 91 -93q-20 -95 -135 -95q-23 0 -44 6t-30 12l-9 5q4 19 20 28q34 -17 70 -17q73 0 88 65q5 27 -9.5 41.5t-47.5 14.5h-32l-6 10l27 71q-51 1 -96 10.5t-64 18.5l-20 9q5 25 23 43q82 -32 177 -32
q91 0 148 38t72 109q7 21 4 39t-6 31t-14.5 25t-21.5 19.5t-27.5 15t-31.5 12.5t-34 11q-21 6 -34 10.5t-32 12t-31 14t-27.5 17t-24.5 21t-17.5 24.5t-12 30t-3.5 36.5t5 43.5z" />
    <glyph glyph-name="scedilla" unicode="&#x15f;" horiz-adv-x="442" 
d="M82 405q29 131 201 131q36 0 67 -6t44 -12l14 -5q-4 -25 -23 -39q-45 18 -106 18q-130 0 -150 -96q-9 -42 18 -66t80 -40q15 -5 26 -9t25.5 -10.5t24 -13t21.5 -16.5t17 -20.5t11 -25t4.5 -30t-3.5 -36.5q-27 -127 -179 -138l-20 -50q55 0 77 -22.5t13 -63.5
q-20 -94 -132 -94q-23 0 -43 5.5t-29 11.5l-9 5q3 16 19 27q34 -17 68 -17q73 0 86 63q6 26 -8 40t-47 14h-32l-6 9l28 71q-41 0 -76.5 8t-50.5 16l-15 8q3 25 22 39q59 -26 131 -26q60 0 100.5 25t51.5 77q6 27 1 46.5t-23 32.5t-34 19.5t-46 15.5q-142 44 -118 154z" />
    <glyph glyph-name="Scaron" unicode="&#x160;" horiz-adv-x="560" 
d="M385 778l-106 103q11 22 28 28l99 -86l132 85q20 -5 22 -27l-149 -103h-26zM118 548q19 89 87 135.5t180 46.5q50 0 94.5 -6t64.5 -12l20 -7q-7 -27 -23 -42q-71 21 -159 21q-92 0 -146 -38.5t-68 -106.5q-4 -17 -4 -31.5t2.5 -26t9 -21.5t13 -18t19 -15.5t22.5 -12
t26.5 -11t28.5 -10t32 -9.5q23 -7 40 -13.5t37.5 -16.5t33.5 -21t27 -27t18.5 -34.5t7.5 -43t-5 -53.5q-19 -91 -90 -138t-185 -47q-55 0 -103.5 9.5t-69.5 18.5l-22 10q5 25 23 43q82 -32 177 -32q91 0 148 38t72 109q7 21 4 39t-6 31t-14.5 25t-21.5 19.5t-27.5 15
t-31.5 12.5t-34 11q-21 6 -34 10.5t-32 12t-31 14t-27.5 17t-24.5 21t-17.5 24.5t-12 30t-3.5 36.5t5 43.5z" />
    <glyph glyph-name="scaron" unicode="&#x161;" horiz-adv-x="442" 
d="M291 608l-99 94q10 20 28 24l89 -77l116 78q19 -8 21 -25l-131 -94h-24zM82 405q29 131 201 131q36 0 67 -6t44 -12l14 -5q-4 -25 -23 -39q-45 18 -106 18q-130 0 -150 -96q-9 -42 18 -66t80 -40q15 -5 26 -9t25.5 -10.5t24 -13t21.5 -16.5t17 -20.5t11 -25t4.5 -30
t-3.5 -36.5q-30 -139 -208 -139q-43 0 -80 8t-53 16l-15 8q3 25 22 39q59 -26 131 -26q60 0 100.5 25t51.5 77q6 27 1 46.5t-23 32.5t-34 19.5t-46 15.5q-142 44 -118 154z" />
    <glyph glyph-name="Tcommaaccent" unicode="&#x162;" horiz-adv-x="529" 
d="M120 720h463q2 -8 -1 -23l-9 -23h-203l-142 -670q-9 -4 -27 -4l-25 4l142 670h-208q-2 9 1 23zM137 -223l-19 16q35 30 52 87l-21 4l12 56q12 4 33 4l30 -4l-8 -40q-5 -23 -15 -44t-20.5 -34.5t-20.5 -24t-16 -15.5z" />
    <glyph glyph-name="Tcommaaccent" unicode="&#x21a;" horiz-adv-x="529" 
d="M120 720h463q2 -8 -1 -23l-9 -23h-203l-142 -670q-9 -4 -27 -4l-25 4l142 670h-208q-2 9 1 23zM137 -223l-19 16q35 30 52 87l-21 4l12 56q12 4 33 4l30 -4l-8 -40q-5 -23 -15 -44t-20.5 -34.5t-20.5 -24t-16 -15.5z" />
    <glyph glyph-name="tcommaaccent" unicode="&#x163;" horiz-adv-x="351" 
d="M198 484l-66 -308q-19 -74 -4.5 -108t75.5 -34l65 5q0 -1 0.5 -2.5t1.5 -7.5t-1 -12l-7 -19q-48 -8 -70 -8q-82 0 -106 46t-4 139l66 309h-80q-3 6 0 21q1 7 3.5 12t4.5 7l1 2h80l21 99q25 15 52 12l-23 -111h153q3 -7 0 -21l-9 -21h-153zM76 -243l-17 16q35 30 52 87
l-22 4l12 56q12 4 33 4l31 -4l-9 -41q-8 -36 -28 -66.5t-36 -42.5z" />
    <glyph glyph-name="tcommaaccent" unicode="&#x21b;" horiz-adv-x="351" 
d="M198 484l-66 -308q-19 -74 -4.5 -108t75.5 -34l65 5q0 -1 0.5 -2.5t1.5 -7.5t-1 -12l-7 -19q-48 -8 -70 -8q-82 0 -106 46t-4 139l66 309h-80q-3 6 0 21q1 7 3.5 12t4.5 7l1 2h80l21 99q25 15 52 12l-23 -111h153q3 -7 0 -21l-9 -21h-153zM76 -243l-17 16q35 30 52 87
l-22 4l12 56q12 4 33 4l31 -4l-9 -41q-8 -36 -28 -66.5t-36 -42.5z" />
    <glyph glyph-name="Tcaron" unicode="&#x164;" horiz-adv-x="529" 
d="M352 767l-106 104q10 19 27 28l99 -86l133 85q20 -6 22 -27l-149 -104h-26zM120 720h463q2 -8 -1 -23l-9 -23h-203l-142 -670q-9 -4 -27 -4l-25 4l142 670h-208q-2 9 1 23z" />
    <glyph glyph-name="tcaron" unicode="&#x165;" horiz-adv-x="350" 
d="M348 588q-17 3 -21 17q73 51 96 144q33 3 45 -10q-14 -46 -47 -89t-73 -62zM198 484l-66 -308q-19 -74 -4.5 -108t75.5 -34l65 5q0 -1 0.5 -2.5t1.5 -7.5t-1 -12l-7 -19q-48 -8 -70 -8q-82 0 -106 46t-4 139l66 309h-80q-3 6 0 21q1 7 3.5 12t4.5 7l1 2h80l21 99
q25 15 52 12l-23 -111h153q3 -7 0 -21l-9 -21h-153z" />
    <glyph glyph-name="Tbar" unicode="&#x166;" horiz-adv-x="545" 
d="M311 363h131q2 -19 -8 -38h-131l-68 -321q-9 -4 -27 -4l-25 4l68 321h-132q0 19 8 38h132l66 311h-208q-2 9 1 23l9 23h463q2 -8 -1 -23l-9 -23h-203z" />
    <glyph glyph-name="tbar" unicode="&#x167;" horiz-adv-x="355" 
d="M206 34l65 5q0 -1 0.5 -2.5t1.5 -7.5t-1 -12l-7 -19q-48 -8 -70 -8q-82 0 -106 46t-4 139l19 90h-67q0 19 8 37h67l39 182h-80q-3 6 0 21q1 7 3.5 12l3.5 7l2 2h80l21 99q25 15 52 12l-23 -111h153q3 -7 0 -21l-9 -21h-153l-39 -182h126q2 -18 -8 -37h-126l-19 -89
q-19 -74 -4.5 -108t75.5 -34z" />
    <glyph glyph-name="Utilde" unicode="&#x168;" horiz-adv-x="668" 
d="M503 821q13 0 25 6.5t18 13.5l5 7q17 -6 19 -24q-2 -5 -6 -11.5t-22 -18t-42 -11.5q-25 0 -58.5 17.5t-51.5 17.5q-13 0 -25 -7t-18 -15l-6 -7q-17 8 -19 24q2 5 6.5 12t23 19t42.5 12q26 0 58.5 -17.5t50.5 -17.5zM658 716l-104 -488q-24 -114 -97 -176t-180 -62
q-109 0 -164 63.5t-32 174.5l104 488q10 4 27 4l26 -4l-105 -495q-19 -89 19 -137.5t126 -48.5q87 0 146 49t78 137l105 495q9 4 26 4z" />
    <glyph glyph-name="utilde" unicode="&#x169;" 
d="M228 670q2 5 7 12.5t24 20t43 12.5q27 0 60 -17.5t50 -17.5q13 0 26 7.5t20 14.5l6 8q19 -7 19 -25q-2 -5 -7 -12.5t-24 -19.5t-43 -12q-27 0 -60 17.5t-50 17.5q-13 0 -26 -8t-19 -16l-7 -7q-19 7 -19 25zM51 152l78 370q9 4 26 4l24 -4l-79 -372q-25 -117 95 -117
q48 0 98.5 30t85.5 83l80 376q9 4 26 4l24 -4l-110 -518q-9 -4 -26 -4l-24 4l16 72q-81 -86 -187 -86q-71 0 -106.5 45t-20.5 117z" />
    <glyph glyph-name="Umacron" unicode="&#x16a;" horiz-adv-x="668" 
d="M578 800h-274q-3 21 8 40h274q5 -18 -8 -40zM658 716l-104 -488q-24 -114 -97 -176t-180 -62q-109 0 -164 63.5t-32 174.5l104 488q10 4 27 4l26 -4l-105 -495q-19 -89 19 -137.5t126 -48.5q87 0 146 49t78 137l105 495q9 4 26 4z" />
    <glyph glyph-name="umacron" unicode="&#x16b;" 
d="M247 699h225q3 -16 -8 -37h-225q-3 19 8 37zM51 152l78 370q9 4 26 4l24 -4l-79 -372q-25 -117 95 -117q48 0 98.5 30t85.5 83l80 376q9 4 26 4l24 -4l-110 -518q-9 -4 -26 -4l-24 4l16 72q-81 -86 -187 -86q-71 0 -106.5 45t-20.5 117z" />
    <glyph glyph-name="Ubreve" unicode="&#x16c;" horiz-adv-x="668" 
d="M585 839q-6 -6 -16.5 -15t-47 -24t-77.5 -15t-75.5 13.5t-48.5 27.5l-14 13q9 19 31 26q4 -4 12 -10.5t35.5 -17.5t58.5 -11t61.5 10t45.5 20l15 9q18 -6 20 -26zM658 716l-104 -488q-24 -114 -97 -176t-180 -62q-109 0 -164 63.5t-32 174.5l104 488q10 4 27 4l26 -4
l-105 -495q-19 -89 19 -137.5t126 -48.5q87 0 146 49t78 137l105 495q9 4 26 4z" />
    <glyph glyph-name="ubreve" unicode="&#x16d;" 
d="M352 675q30 0 59.5 10t44.5 20l15 10q19 -5 19 -27q-5 -6 -15.5 -15.5t-46 -25t-75.5 -15.5t-73.5 14t-47.5 28l-13 14q11 20 31 27q4 -4 11.5 -11t34 -18t56.5 -11zM51 152l78 370q9 4 26 4l24 -4l-79 -372q-25 -117 95 -117q48 0 98.5 30t85.5 83l80 376q9 4 26 4
l24 -4l-110 -518q-9 -4 -26 -4l-24 4l16 72q-81 -86 -187 -86q-71 0 -106.5 45t-20.5 117z" />
    <glyph glyph-name="Uring" unicode="&#x16e;" horiz-adv-x="668" 
d="M436 767q-46 0 -75 30.5t-18 77.5q11 50 49.5 78t84.5 28q44 0 75 -30t20 -76q-12 -50 -49.5 -79t-86.5 -29zM533 875q6 30 -9.5 50.5t-52.5 20.5q-36 0 -59 -20.5t-30 -50.5t8 -51t51 -21q37 0 61 21t31 51zM658 716l-104 -488q-24 -114 -97 -176t-180 -62
q-109 0 -164 63.5t-32 174.5l104 488q10 4 27 4l26 -4l-105 -495q-19 -89 19 -137.5t126 -48.5q87 0 146 49t78 137l105 495q9 4 26 4z" />
    <glyph glyph-name="uring" unicode="&#x16f;" 
d="M244 701q11 49 49.5 77.5t84.5 28.5q47 0 76.5 -28.5t18.5 -77.5q-11 -50 -48 -79t-86 -29q-50 0 -78 29t-17 79zM434 701q6 30 -9.5 50.5t-52.5 20.5q-36 0 -59 -20.5t-30 -50.5t8 -51t51 -21q37 0 61 21t31 51zM51 152l78 370q9 4 26 4l24 -4l-79 -372
q-25 -117 95 -117q48 0 98.5 30t85.5 83l80 376q9 4 26 4l24 -4l-110 -518q-9 -4 -26 -4l-24 4l16 72q-81 -86 -187 -86q-71 0 -106.5 45t-20.5 117z" />
    <glyph glyph-name="Uhungarumlaut" unicode="&#x170;" horiz-adv-x="668" 
d="M498 896l-144 -133q-21 3 -27 19l126 137q33 2 45 -23zM647 896l-144 -133q-22 3 -28 19l127 137q31 1 45 -23zM658 716l-104 -488q-24 -114 -97 -176t-180 -62q-109 0 -164 63.5t-32 174.5l104 488q10 4 27 4l26 -4l-105 -495q-19 -89 19 -137.5t126 -48.5q87 0 146 49
t78 137l105 495q9 4 26 4z" />
    <glyph glyph-name="uhungarumlaut" unicode="&#x171;" 
d="M402 740l-144 -132q-20 1 -26 17l127 135q31 2 43 -20zM544 740l-143 -132q-21 1 -27 17l127 135q30 2 43 -20zM51 152l78 370q9 4 26 4l24 -4l-79 -372q-25 -117 95 -117q48 0 98.5 30t85.5 83l80 376q9 4 26 4l24 -4l-110 -518q-9 -4 -26 -4l-24 4l16 72
q-81 -86 -187 -86q-71 0 -106.5 45t-20.5 117z" />
    <glyph glyph-name="Uogonek" unicode="&#x172;" horiz-adv-x="668" 
d="M607 716q9 4 26 4l25 -4l-104 -488q-37 -174 -175 -222q-74 -27 -86 -84q-5 -24 7 -37t37 -13q10 0 20.5 2t15.5 4l5 3q9 -9 5 -28q-27 -17 -64 -17q-40 0 -58.5 22.5t-10.5 58.5q10 45 51 74l-24 -1q-109 0 -164 63.5t-32 174.5l104 488q10 4 27 4l26 -4l-105 -495
q-19 -89 19 -137.5t126 -48.5q87 0 146 49t78 137z" />
    <glyph glyph-name="uogonek" unicode="&#x173;" 
d="M459 522q9 4 26 4l24 -4l-110 -519q-36 -12 -69.5 -41t-41.5 -64q-4 -20 6.5 -29.5t34.5 -9.5q10 0 20.5 2.5t15.5 4.5l5 2q9 -9 5 -28q-27 -17 -64 -17q-39 0 -55.5 19t-10.5 50q8 36 37.5 67t67.5 51l15 71q-86 -91 -187 -91q-72 0 -108.5 41t-21.5 108l81 383
q9 4 26 4l24 -4l-79 -372q-25 -117 95 -117q48 0 98.5 30t85.5 83z" />
    <glyph glyph-name="Wcircumflex" unicode="&#x174;" horiz-adv-x="947" 
d="M617 899l105 -104q-13 -24 -27 -27l-99 85l-133 -86q-21 9 -22 28l150 104h26zM594 4l-42 545q-2 34 -2 56.5t2 33.5l1 11h-3q-7 -34 -41 -101l-278 -545q-16 -4 -29 -4q-9 0 -25 4l-61 712q9 4 27 4l26 -4l44 -546q2 -25 2.5 -51t0.5 -39l-1 -13h3q13 45 43 103l279 546
q8 4 26 4l24 -4l40 -546q2 -26 2 -52v-38l-1 -13h2q12 43 42 103l273 546q9 4 29 4l24 -4l-355 -712q-10 -4 -27 -4z" />
    <glyph glyph-name="wcircumflex" unicode="&#x175;" horiz-adv-x="792" 
d="M497 731l107 -103q-11 -21 -29 -25l-95 83l-131 -84q-16 7 -19 26l142 103h25zM479 4l-40 334q-8 68 -8 127h-3q-7 -27 -61 -127l-182 -334q-16 -4 -25 -4q-5 0 -25 4l-57 518q8 4 25 4l23 -4l41 -374q6 -60 2 -85h3q0 1 5 13t14 31.5t21 40.5l202 374q10 4 31 4l19 -4
l45 -372q6 -58 1 -87h3q0 1 5 12.5t14.5 31t21.5 42.5l198 373q6 4 28 4l26 -4l-277 -518q-20 -4 -26 -4q-4 0 -24 4z" />
    <glyph glyph-name="Ycircumflex" unicode="&#x176;" horiz-adv-x="614" 
d="M454 899l105 -104q-11 -20 -27 -27l-98 85l-133 -86q-22 9 -23 28l150 104h26zM619 716q10 4 34 4l30 -4l-351 -412l-64 -300q-10 -4 -27 -4l-25 4l63 299l-169 413q12 4 33 4l24 -4l147 -357z" />
    <glyph glyph-name="ycircumflex" unicode="&#x177;" 
d="M377 731l107 -103q-11 -21 -29 -25l-95 83l-131 -84q-16 7 -19 26l142 103h25zM459 522q9 4 26 4l24 -4l-106 -500q-15 -72 -35 -120.5t-52 -84t-78.5 -51.5t-112.5 -16q-38 0 -72 7t-49 13l-14 7q5 27 23 38q53 -20 117 -20q98 0 147.5 46.5t79.5 180.5l12 54
q-81 -86 -185 -86q-79 0 -114 45.5t-19 121.5l78 365q9 4 26 4l24 -4l-79 -372q-25 -117 95 -117q48 0 98.5 30t85.5 83z" />
    <glyph glyph-name="Ydieresis" unicode="&#x178;" horiz-adv-x="614" 
d="M317 840q10 3 30 3l30 -3l-12 -53q-11 -4 -31 -4l-29 4zM466 840q10 3 30 3l30 -3l-12 -53q-11 -4 -31 -4l-29 4zM619 716q10 4 34 4l30 -4l-351 -412l-64 -300q-10 -4 -27 -4l-25 4l63 299l-169 413q12 4 33 4l24 -4l147 -357z" />
    <glyph glyph-name="Zacute" unicode="&#x179;" horiz-adv-x="577" 
d="M344 785l133 139q31 2 42 -23l-146 -135q-25 3 -29 19zM160 720h445q0 -19 -1 -23q-2 -11 -9 -25l-545 -624h425q3 -8 -1 -24q-2 -9 -9 -24h-485q0 18 1 24q3 12 9 24l545 624h-385q0 21 1 25q3 15 9 23z" />
    <glyph glyph-name="zacute" unicode="&#x17a;" horiz-adv-x="451" 
d="M436 752l-156 -144q-23 3 -29 19l143 148q31 2 42 -23zM45 44h299q3 -6 0 -22l-9 -22h-355q0 18 1 23q1 6 3 10.5t3.5 7t1.5 3.5l390 438h-274q-2 7 1 22q1 7 3.5 12.5t4.5 7.5l1 2h329q0 -17 -1 -21q-2 -12 -9 -23z" />
    <glyph glyph-name="Zdotaccent" unicode="&#x17b;" horiz-adv-x="577" 
d="M375 842q10 4 31 4l29 -4l-12 -54q-10 -4 -30 -4l-30 4zM160 720h445q0 -19 -1 -23q-2 -11 -9 -25l-545 -624h425q3 -8 -1 -24q-2 -9 -9 -24h-485q0 18 1 24q3 12 9 24l545 624h-385q0 21 1 25q3 15 9 23z" />
    <glyph glyph-name="zdotaccent" unicode="&#x17c;" horiz-adv-x="451" 
d="M353 709l-12 -54q-11 -4 -31 -4l-29 4l12 54q10 4 31 4zM45 44h299q3 -6 0 -22l-9 -22h-355q0 18 1 23q1 6 3 10.5t3.5 7t1.5 3.5l390 438h-274q-2 7 1 22q1 7 3.5 12.5t4.5 7.5l1 2h329q0 -17 -1 -21q-2 -12 -9 -23z" />
    <glyph glyph-name="Zcaron" unicode="&#x17d;" horiz-adv-x="577" 
d="M398 813l135 87q19 -5 21 -29l-149 -104h-26l-106 104q10 21 31 28zM160 720h445q0 -19 -1 -23q-2 -11 -9 -25l-545 -624h425q3 -8 -1 -24q-2 -9 -9 -24h-485q0 18 1 24q3 12 9 24l545 624h-385q0 21 1 25q3 15 9 23z" />
    <glyph glyph-name="zcaron" unicode="&#x17e;" horiz-adv-x="451" 
d="M287 602l-96 94q10 19 28 25l89 -77l120 76q13 -2 17 -24l-135 -94h-23zM45 44h299q3 -6 0 -22l-9 -22h-355q0 18 1 23q1 6 3 10.5t3.5 7t1.5 3.5l390 438h-274q-2 7 1 22q1 7 3.5 12.5t4.5 7.5l1 2h329q0 -17 -1 -21q-2 -12 -9 -23z" />
    <glyph glyph-name="longs" unicode="&#x17f;" horiz-adv-x="265" 
d="M219 591l-125 -587q-8 -4 -26 -4l-24 4l102 480h-74q0 21 9 42h74l13 60q16 80 58 122t127 42q24 0 47 -3.5t34 -6.5l11 -4q-3 -24 -22 -40q-29 11 -73 11q-62 0 -90.5 -28t-40.5 -88z" />
    <glyph glyph-name="florin" unicode="&#x192;" horiz-adv-x="441" 
d="M255 414l-125 -402q-26 -80 -67.5 -116.5t-107.5 -36.5q-21 0 -41.5 4.5t-30.5 9.5l-10 5q3 22 20 35q32 -11 68 -11q42 0 71 24.5t48 83.5l126 404h-95q-3 7 0 21l8 19h99l26 83q26 81 66.5 117.5t106.5 36.5q23 0 44 -4.5t30 -8.5l9 -4q-5 -21 -20 -35q-32 11 -70 11
q-43 0 -70.5 -25t-45.5 -86l-27 -85h99q3 -7 0 -20l-8 -20h-103z" />
    <glyph glyph-name="Aringacute" unicode="&#x1fa;" horiz-adv-x="640" 
d="M591 1035l-140 -106q-19 1 -27 13l127 110q30 2 40 -17zM437 696l120 -692q-10 -4 -29 -4l-23 4l-36 204h-337l-123 -204q-12 -4 -31 -4l-23 4l413 691q-29 6 -48.5 34t-11.5 67q11 49 51 77.5t87 28.5q46 0 74.5 -28t17.5 -78q-8 -39 -36 -65t-65 -35zM499 796
q6 30 -10 50.5t-52 20.5t-59.5 -21t-30.5 -50q-6 -30 9 -51t51 -21t61 21.5t31 50.5zM462 254l-60 347l-5 52h-2q-10 -21 -27 -52l-210 -347h304z" />
    <glyph glyph-name="aringacute" unicode="&#x1fb;" horiz-adv-x="554" 
d="M332 820l127 110q30 2 40 -17l-140 -106q-19 1 -27 13zM253 680q10 45 47 70t81 25q43 0 70 -25t17 -70q-9 -45 -46 -70.5t-83 -25.5q-47 0 -71 25.5t-15 70.5zM430 680q6 26 -8.5 44.5t-48.5 18.5q-32 0 -54 -19t-28 -44q-5 -26 9 -44.5t46 -18.5q34 0 56.5 19t27.5 44z
M467 524q8 4 23 4l23 -4l-110 -520q-9 -4 -22 -4l-21 4l13 77q-69 -91 -184 -91q-194 0 -134 283q31 145 93 204t157 59q108 0 143 -91zM421 327q13 63 -17 114t-97 51q-81 0 -128.5 -53t-73.5 -176q-26 -124 -2 -176.5t105 -52.5q67 0 120 51.5t66 114.5z" />
    <glyph glyph-name="AEacute" unicode="&#x1fc;" horiz-adv-x="852" 
d="M834 901l-155 -144q-23 3 -29 19l142 148q31 2 42 -23zM8 4q-18 -4 -32 -4q-20 0 -27 4l585 716h344q5 -24 -10 -46h-287l-61 -286h237q5 -24 -9 -46h-237l-63 -296h297q5 -23 -10 -46h-344l42 198h-268zM527 642l-324 -398h240z" />
    <glyph glyph-name="aeacute" unicode="&#x1fd;" horiz-adv-x="805" 
d="M604 752l-156 -144q-23 3 -29 19l143 148q31 2 42 -23zM631 536q83 0 116 -51t14 -137q-5 -24 -13 -47t-13 -35l-5 -11h-298q-19 -113 5.5 -166.5t94.5 -53.5q33 0 64 9t46 18l14 9q17 -12 12 -36q-6 -5 -18 -12.5t-51.5 -20t-82.5 -12.5q-98 0 -122 85l-15 -71
q-9 -4 -20 -4l-21 4l9 68q-61 -82 -163 -82q-86 0 -123 69t-6 215q30 143 93 202.5t152 59.5q54 0 83.5 -19t44.5 -61l17 68q8 4 23 4l21 -4l-14 -69q63 81 156 81zM441 296h255q9 18 17 58q13 62 -6.5 100.5t-81.5 38.5t-110.5 -47.5t-73.5 -149.5zM374 200l27 127
q13 64 -12 114.5t-86 50.5q-76 0 -124 -54t-74 -175q-25 -124 -1 -176.5t100 -52.5q66 0 111.5 50t58.5 116z" />
    <glyph glyph-name="Oslashacute" unicode="&#x1fe;" horiz-adv-x="675" 
d="M565 900l-163 -134q-22 4 -27 21l150 140q32 -2 40 -27zM663 743l-70 -89q66 -97 22 -302q-40 -190 -123 -276t-212 -86q-102 0 -158 60l-74 -95q-24 5 -35 20l85 109q-55 101 -15 289t125 272.5t215 84.5q89 0 142 -45l61 79q22 -4 37 -21zM419 685q-215 0 -284 -325
q-30 -146 0 -227l398 511q-42 41 -114 41zM280 35q215 0 283 325q35 164 -5 248l-402 -515q41 -58 124 -58z" />
    <glyph glyph-name="oslashacute" unicode="&#x1ff;" horiz-adv-x="536" 
d="M444 752l-156 -144q-23 3 -29 19l143 148q31 2 42 -23zM511 551l-60 -76q46 -69 14 -220q-56 -265 -261 -265q-67 0 -106 30l-50 -64q-22 5 -31 20l55 70q-52 70 -18 228q56 262 260 262q72 0 112 -33l53 67q21 -3 32 -19zM308 494q-157 0 -205 -231q-26 -121 1 -176
l293 377q-29 30 -89 30zM210 32q155 0 205 231q23 115 2 169l-291 -376q30 -24 84 -24z" />
    <glyph glyph-name="Scommaaccent" unicode="&#x218;" horiz-adv-x="560" 
d="M152 -223l-19 16q35 30 52 87l-21 4l12 56q12 4 33 4l30 -4l-8 -40q-5 -23 -15 -44t-20.5 -34.5t-20.5 -24t-17 -15.5zM118 548q19 89 87 135.5t180 46.5q50 0 94.5 -6t64.5 -12l20 -7q-7 -27 -23 -42q-71 21 -159 21q-92 0 -146 -38.5t-68 -106.5q-4 -17 -4 -31.5
t2.5 -26t9 -21.5t13 -18t19 -15.5t22.5 -12t26.5 -11t28.5 -10t32 -9.5q23 -7 40 -13.5t37.5 -16.5t33.5 -21t27 -27t18.5 -34.5t7.5 -43t-5 -53.5q-19 -91 -90 -138t-185 -47q-55 0 -103.5 9.5t-69.5 18.5l-22 10q5 25 23 43q82 -32 177 -32q91 0 148 38t72 109q7 21 4 39
t-6 31t-14.5 25t-21.5 19.5t-27.5 15t-31.5 12.5t-34 11q-21 6 -34 10.5t-32 12t-31 14t-27.5 17t-24.5 21t-17.5 24.5t-12 30t-3.5 36.5t5 43.5z" />
    <glyph glyph-name="scommaaccent" unicode="&#x219;" horiz-adv-x="442" 
d="M85 -243l-17 16q35 30 52 87l-22 4l12 56q12 4 33 4l31 -4l-9 -41q-8 -36 -28 -66.5t-36 -42.5zM82 405q29 131 201 131q36 0 67 -6t44 -12l14 -5q-4 -25 -23 -39q-45 18 -106 18q-130 0 -150 -96q-9 -42 18 -66t80 -40q15 -5 26 -9t25.5 -10.5t24 -13t21.5 -16.5
t17 -20.5t11 -25t4.5 -30t-3.5 -36.5q-30 -139 -208 -139q-43 0 -80 8t-53 16l-15 8q3 25 22 39q59 -26 131 -26q60 0 100.5 25t51.5 77q6 27 1 46.5t-23 32.5t-34 19.5t-46 15.5q-142 44 -118 154z" />
    <glyph glyph-name="dotlessj" unicode="&#x237;" horiz-adv-x="230" 
d="M5 -92l131 614q7 4 26 4l24 -4l-130 -610q-34 -162 -169 -162q-19 0 -33 2t-19 4l-5 3q-1 5 0 12q2 8 5 14.5t5 8.5l2 3q15 -4 42 -4q50 0 79 27t42 88z" />
    <glyph glyph-name="circumflex" unicode="&#x2c6;" horiz-adv-x="396" 
d="M205 693l105 -105q-13 -22 -30 -26l-99 85l-133 -86q-17 7 -19 27l150 105h26z" />
    <glyph glyph-name="caron" unicode="&#x2c7;" horiz-adv-x="404" 
d="M149 550l-106 104q10 21 31 28l99 -86l133 85q16 -4 18 -27l-149 -104h-26z" />
    <glyph glyph-name="breve" unicode="&#x2d8;" horiz-adv-x="324" 
d="M286 678q-6 -6 -18 -15.5t-50.5 -25t-78.5 -15.5t-70.5 14t-41.5 28l-11 14q11 20 30 27q4 -4 11.5 -11t34 -18t56.5 -11t60 10t45 20l15 10q18 -6 18 -27z" />
    <glyph glyph-name="dotaccent" unicode="&#x2d9;" horiz-adv-x="176" 
d="M104 661l-11 -54q-11 -4 -31 -4l-29 4l11 54q10 4 31 4z" />
    <glyph glyph-name="ring" unicode="&#x2da;" horiz-adv-x="344" 
d="M125 507q-50 0 -75.5 29t-14.5 79q10 49 49.5 77.5t86.5 28.5q46 0 75 -28t18 -78t-50.5 -79t-88.5 -29zM225 615q6 30 -9.5 50.5t-52.5 20.5q-36 0 -59.5 -21t-29.5 -50q-7 -30 7.5 -51t50.5 -21q37 0 61.5 21.5t31.5 50.5z" />
    <glyph glyph-name="ogonek" unicode="&#x2db;" horiz-adv-x="283" 
d="M-26 -169q9 -8 6 -26q-27 -17 -64 -17q-40 0 -58.5 21.5t-10.5 57.5q11 51 58.5 83t111.5 37l-2 -20q-109 -22 -125 -95q-5 -24 6.5 -37t36.5 -13q10 0 20.5 2t15.5 4z" />
    <glyph glyph-name="tilde" unicode="&#x2dc;" horiz-adv-x="327" 
d="M217 657q13 0 25.5 7.5t19.5 15.5l6 7q18 -7 18 -25q-3 -5 -9.5 -12.5t-28 -20t-45.5 -12.5q-27 0 -55 17.5t-45 17.5q-13 0 -25.5 -7.5t-19.5 -14.5l-6 -8q-20 8 -20 24q3 5 10 12.5t28.5 20.5t45.5 13q27 0 55.5 -17.5t45.5 -17.5z" />
    <glyph glyph-name="hungarumlaut" unicode="&#x2dd;" horiz-adv-x="386" 
d="M200 785l-156 -144q-23 3 -29 19l138 148q33 2 47 -23zM353 785l-156 -144q-21 3 -29 19l139 148q34 2 46 -23z" />
    <glyph glyph-name="pi" unicode="&#x3c0;" horiz-adv-x="601" 
d="M230 526h376q2 -11 -1 -22q-4 -16 -9 -22h-73l-52 -246q-16 -75 -19 -131t2 -74l5 -18q-15 -13 -40 -13q-12 0 -16 2q-2 6 -4.5 20.5t1.5 74.5t20 139l52 246h-277l-101 -478q-8 -4 -26 -4l-24 4l101 476l-72 -9q-3 8 1 22q2 13 8 21q44 12 148 12z" />
    <glyph glyph-name="uni0401" unicode="&#x401;" horiz-adv-x="556" 
d="M320 857q11 4 31 4l29 -4l-11 -53q-11 -4 -31 -4l-29 4zM469 857q11 4 31 4l29 -4l-11 -53q-11 -4 -31 -4l-29 4zM192 720h391q2 -10 -1 -22q-3 -13 -9 -24h-339l-61 -286h289q1 -10 0 -22q-1 -4 -9 -23h-289l-63 -297h349q0 -18 -1 -22q-1 -6 -9 -24h-401z" />
    <glyph glyph-name="uni0410" unicode="&#x410;" horiz-adv-x="640" 
d="M381 716q10 4 27 4l25 -4l124 -712q-10 -4 -29 -4l-23 4l-36 204h-337l-123 -204q-9 -4 -31 -4l-23 4zM397 653h-2q-10 -21 -27 -52l-210 -347h304l-60 347z" />
    <glyph glyph-name="uni0411" unicode="&#x411;" horiz-adv-x="612" 
d="M192 720h383q3 -9 0 -24l-10 -23h-331l-57 -268h203q92 0 134 -59.5t22 -152.5q-19 -92 -83.5 -142.5t-158.5 -50.5h-255zM168 361l-68 -317h195q74 0 124.5 43t65.5 116q16 74 -15.5 116t-106.5 42h-195z" />
    <glyph glyph-name="uni0412" unicode="&#x412;" horiz-adv-x="629" 
d="M192 720h242q52 0 87.5 -16.5t51 -43.5t20 -62.5t-5.5 -73.5q-4 -17 -9.5 -33t-11.5 -28.5t-14 -23.5t-14.5 -19t-15.5 -16t-15.5 -12.5t-14.5 -9.5l-12 -7.5t-10.5 -5.5t-7.5 -3l6 -2q5 -3 9 -5.5t11.5 -8t13.5 -10.5t13 -14t12 -18.5t9.5 -22.5t6 -27.5t0.5 -33
t-5 -38.5q-19 -91 -79 -138.5t-174 -47.5h-246zM173 386h180q149 0 181 145q14 70 -13 107t-109 37h-178zM101 45h188q88 0 133.5 37.5t61.5 110.5q17 77 -15.5 113t-117.5 36h-187z" />
    <glyph glyph-name="uni0413" unicode="&#x413;" horiz-adv-x="499" 
d="M192 720h364q2 -9 -1 -23l-9 -24h-312l-142 -669q-10 -4 -27 -4l-25 4z" />
    <glyph glyph-name="uni0414" unicode="&#x414;" horiz-adv-x="680" 
d="M497 46h78l-39 -184q-16 -4 -25 -4q-12 0 -24 4l29 138h-511l-29 -138q-20 -4 -26 -4q-15 0 -23 4l39 184h61q78 78 149 321l102 353h362zM315 677l-90 -316q-64 -227 -139 -315h359l134 631h-264z" />
    <glyph glyph-name="uni0415" unicode="&#x415;" horiz-adv-x="556" 
d="M192 720h391q2 -10 -1 -22q-3 -16 -9 -24h-339l-61 -286h289q2 -9 0 -22q-3 -13 -9 -23h-289l-63 -297h349q0 -18 -1 -22q-3 -14 -9 -24h-401z" />
    <glyph glyph-name="uni0416" unicode="&#x416;" horiz-adv-x="941" 
d="M918 716q12 4 34 4q14 0 26 -4l-286 -346l166 -366q-12 -4 -32 -4l-29 4l-153 347h-135l-74 -347q-9 -4 -27 -4l-25 4l74 347h-140l-297 -347q-12 -4 -32 -4l-28 4l320 379l-140 333q16 4 29 4q15 0 27 -4l135 -320h135l68 320q10 4 27 4l25 -4l-68 -320h133z" />
    <glyph glyph-name="uni0417" unicode="&#x417;" horiz-adv-x="544" 
d="M136 697q81 33 187 33q108 0 153.5 -52.5t29.5 -141.5q-8 -44 -28 -77.5t-46 -51.5t-43.5 -26t-34.5 -13l-1 -2q12 -3 25 -9.5t31 -21.5t28.5 -35.5t16.5 -52t-4 -72.5q-40 -185 -294 -185q-50 0 -93.5 7.5t-62.5 14.5l-19 8q4 28 25 41q72 -24 154 -24q206 0 237 149
q5 34 4 59t-14 42.5t-28 28.5t-38 17.5t-45 9t-48 2.5h-54q-7 24 10 46h54q182 0 214 150q14 67 -22.5 104.5t-121.5 37.5q-40 0 -80.5 -6.5t-61.5 -12.5l-20 -7q-18 13 -10 40z" />
    <glyph glyph-name="uni0418" unicode="&#x418;" horiz-adv-x="688" 
d="M612 716q10 4 31 4l29 -4l-151 -712q-9 -4 -27 -4l-25 4l103 484q12 54 21.5 94.5t13.5 53.5l4 13h-3q-22 -38 -85 -116l-422 -529h-1q-2 -1 -5 -1.5t-7 -1t-9 -1t-11 -0.5l-29 4l151 712q10 4 27 4l26 -4l-104 -490l-38 -157h2q11 24 90 124z" />
    <glyph glyph-name="uni0419" unicode="&#x419;" horiz-adv-x="688" 
d="M475 868q30 0 63 10t50 20l18 9q18 -8 20 -32q-7 -6 -20 -14.5t-53.5 -23t-81.5 -14.5t-76.5 13.5t-50.5 27.5l-15 14q12 21 32 29q45 -39 114 -39zM612 716q10 4 31 4l29 -4l-151 -712q-9 -4 -27 -4l-25 4l103 484q12 54 21.5 94.5t13.5 53.5l4 13h-3q-24 -38 -86 -116
l-421 -529h-1q-2 -1 -5 -1.5t-7 -1t-9 -1t-11 -0.5l-29 4l151 712q10 4 27 4l26 -4l-104 -490l-38 -157h2q10 21 91 124z" />
    <glyph glyph-name="uni041A" unicode="&#x41a;" horiz-adv-x="608" 
d="M298 397l290 319q12 4 30 4q13 0 29 -4l-309 -345l187 -367q-11 -4 -31 -4l-29 4l-173 347h-127l-74 -347q-9 -4 -27 -4l-25 4l151 712q10 4 28 4l24 -4l-68 -319h124z" />
    <glyph glyph-name="uni041B" unicode="&#x41b;" horiz-adv-x="660" 
d="M-10 -6q-16 0 -32 6v20q2 11 9 21q3 0 10.5 -0.5t12.5 -0.5q19 0 32 4.5t33.5 23.5t39 55.5t44.5 105t54 166.5l94 325h356l-152 -716q-10 -4 -27 -4q-5 0 -9.5 0.5t-7.5 1t-5 1t-2 1.5h-1l142 671h-258l-81 -282q-31 -107 -60.5 -183t-52.5 -117.5t-49 -64t-45 -28.5
t-45 -6z" />
    <glyph glyph-name="uni041C" unicode="&#x41c;" horiz-adv-x="844" 
d="M755 716q20 4 39 4l34 -4l-151 -712q-9 -4 -27 -4l-25 4l108 507q21 101 36 148h-3q-16 -33 -73 -105l-281 -356q-9 -4 -21 -4l-19 4q-16 47 -57.5 168t-63.5 187q-28 79 -28 106h-3q0 -33 -25 -152l-107 -503q-8 -4 -25 -4l-24 4l151 712q14 4 34 4l28 -4l150 -454h2z
" />
    <glyph glyph-name="uni041D" unicode="&#x41d;" horiz-adv-x="679" 
d="M542 393l69 323q10 4 27 4l25 -4l-151 -712q-9 -4 -27 -4l-25 4l72 341h-368l-72 -341q-10 -4 -27 -4l-25 4l151 712q10 4 27 4l25 -4l-69 -323h368z" />
    <glyph glyph-name="uni041E" unicode="&#x41e;" horiz-adv-x="676" 
d="M83 373q40 188 125 272.5t215 84.5q129 0 181 -94.5t11 -283.5q-40 -190 -123 -276t-212 -86q-130 0 -183.5 97t-13.5 286zM563 360q36 170 -5 247.5t-139 77.5q-215 0 -284 -325q-35 -167 8.5 -246t136.5 -79q215 0 283 325z" />
    <glyph glyph-name="uni041F" unicode="&#x41f;" horiz-adv-x="668" 
d="M652 720l-152 -716q-10 -4 -26 -4l-26 4l142 669h-355l-142 -669q-11 -4 -28 -4l-25 4l152 716h460z" />
    <glyph glyph-name="uni0420" unicode="&#x420;" horiz-adv-x="599" 
d="M155 301l-63 -297q-9 -4 -26 -4l-26 4l152 716h247q92 0 132 -62t19 -158q-20 -93 -83 -146t-157 -53h-195zM165 348h193q70 0 117.5 43t63.5 118q17 78 -12.5 121.5t-99.5 43.5h-193z" />
    <glyph glyph-name="uni0421" unicode="&#x421;" horiz-adv-x="553" 
d="M83 369q40 184 125 272.5t221 88.5q48 0 88 -8t56 -16l16 -9q-6 -22 -25 -40q-53 27 -138 27q-107 0 -180 -73.5t-111 -251.5q-17 -94 -17 -156t24 -99t59 -52t88 -15q41 0 81 6.5t60 13.5l19 7q11 -16 8 -41q-67 -33 -185 -33q-268 0 -189 379z" />
    <glyph glyph-name="uni0422" unicode="&#x422;" horiz-adv-x="529" 
d="M120 720h463q2 -8 -1 -23l-9 -23h-203l-142 -670q-9 -4 -27 -4l-25 4l142 670h-208q-2 9 1 23z" />
    <glyph glyph-name="uni0423" unicode="&#x423;" horiz-adv-x="609" 
d="M610 716q9 4 27 4l31 -4l-317 -525q-71 -117 -123.5 -154t-116.5 -37q-15 0 -28 2t-19 4l-6 1q-2 8 1 23t9 21q22 -4 40 -4q47 0 81.5 19t78.5 87h-5l-158 563q10 4 30 4l25 -4l126 -460q3 -11 6 -24t4.5 -24t2.5 -13h2q2 3 12.5 25.5t20.5 38.5z" />
    <glyph glyph-name="uni0424" unicode="&#x424;" horiz-adv-x="796" 
d="M446 649l16 77q10 4 27 4l25 -4l-16 -77q70 0 121.5 -14t91 -47t50 -87.5t-3.5 -134.5q-17 -78 -52.5 -131.5t-87 -81.5t-108 -39.5t-127.5 -11.5l-21 -98q-11 -4 -27 -4l-25 4l21 98q-315 0 -256 281q13 63 39 110t60 76.5t79 47.5t91.5 25t102.5 7zM339 146l98 460
q-61 0 -108 -10.5t-89 -35.5t-71 -71t-43 -113q-27 -129 30 -179.5t183 -50.5zM489 606l-98 -460q61 0 108.5 10.5t89.5 35.5t71 71t43 113q27 129 -30 179.5t-184 50.5z" />
    <glyph glyph-name="uni0425" unicode="&#x425;" horiz-adv-x="597" 
d="M580 716q16 4 36 4q13 0 29 -4l-298 -344l158 -367q-12 -5 -33 -5l-24 4l-141 328l-275 -328q-16 -4 -37 -4q-13 0 -29 4l308 366l-147 346q11 4 33 4l24 -4l131 -308z" />
    <glyph glyph-name="uni0426" unicode="&#x426;" horiz-adv-x="700" 
d="M39 0l152 716q9 4 27 4l25 -4l-142 -669h364l142 669q9 4 27 4l25 -4l-142 -669h77l-39 -185q-11 -4 -26 -4t-23 4l29 138h-496z" />
    <glyph glyph-name="uni0427" unicode="&#x427;" horiz-adv-x="632" 
d="M494 385l70 331q10 4 27 4l25 -4l-151 -712q-10 -4 -27 -4l-25 4l70 332q-108 -36 -203 -36q-107 0 -152 51.5t-19 177.5l40 187q9 4 26 4l26 -4l-40 -187q-21 -102 12 -142t128 -40q25 0 50 2.5t44.5 6.5t38.5 9t30 9t20 8z" />
    <glyph glyph-name="uni0428" unicode="&#x428;" horiz-adv-x="958" 
d="M39 0l152 716q9 4 27 4l25 -4l-142 -669h297l142 669q7 4 28 4l25 -4l-142 -669h297l142 669q8 4 27 4l25 -4l-152 -716h-751z" />
    <glyph glyph-name="uni0429" unicode="&#x429;" horiz-adv-x="983" 
d="M39 0l152 716q9 4 27 4l25 -4l-142 -669h297l142 669q10 4 28 4l25 -4l-142 -669h297l142 669q9 4 27 4l25 -4l-142 -669h77l-39 -185q-11 -4 -25 -4q-15 0 -24 4l29 138h-779z" />
    <glyph glyph-name="uni042A" unicode="&#x42a;" horiz-adv-x="690" 
d="M254 406h202q93 0 136 -58.5t24 -156.5q-18 -91 -84.5 -141t-161.5 -50h-254l143 673h-154q-2 9 1 23l9 24h206zM244 360l-66 -314h196q74 0 123.5 42.5t64.5 115.5q16 73 -16 114.5t-106 41.5h-196z" />
    <glyph glyph-name="uni042B" unicode="&#x42b;" horiz-adv-x="862" 
d="M191 716q9 4 28 4l24 -4l-66 -310h202q93 0 136.5 -58.5t24.5 -151.5q-19 -91 -85.5 -143.5t-161.5 -52.5h-254zM794 716q9 4 27 4l25 -4l-151 -712q-9 -4 -27 -4l-25 4zM167 360l-66 -314h196q74 0 123.5 42.5t64.5 115.5q16 73 -16 114.5t-106 41.5h-196z" />
    <glyph glyph-name="uni042C" unicode="&#x42c;" horiz-adv-x="611" 
d="M177 406h202q92 0 135.5 -60t24.5 -153q-20 -91 -85.5 -142t-160.5 -51h-254l152 716q9 4 28 4l24 -4zM101 46h196q74 0 123.5 42.5t64.5 115.5q16 73 -16 114.5t-106 41.5h-196z" />
    <glyph glyph-name="uni042D" unicode="&#x42d;" horiz-adv-x="578" 
d="M135 697q70 33 184 33q139 0 189 -98.5t10 -283.5q-38 -184 -126.5 -271t-229.5 -87q-55 0 -100 8t-63 16l-18 9q7 26 25 40q61 -26 159 -26q110 0 184 68.5t113 237.5h-285q-2 9 1 23l9 23h284q29 160 -16.5 227.5t-152.5 67.5q-40 0 -79.5 -6.5t-58.5 -13.5l-20 -6
q-14 15 -9 39z" />
    <glyph glyph-name="uni042E" unicode="&#x42e;" horiz-adv-x="949" 
d="M40 4l151 712q10 4 27 4l26 -4l-71 -333h184q83 347 341 347q130 0 181 -94t10 -284q-40 -189 -126.5 -275.5t-217.5 -86.5q-263 0 -197 347h-184l-71 -333q-11 -4 -27 -4zM691 685q-104 0 -175.5 -76.5t-108.5 -248.5q-36 -172 2.5 -248.5t142.5 -76.5q105 0 176 76.5
t107 248.5q37 173 -1.5 249t-142.5 76z" />
    <glyph glyph-name="uni042F" unicode="&#x42f;" horiz-adv-x="624" 
d="M608 720l-152 -716q-9 -4 -28 -4l-25 4l65 307h-189l-230 -307q-13 -4 -32 -4l-28 4l234 313q-67 15 -94.5 67.5t-10.5 131.5q20 93 85 148.5t158 55.5h247zM545 674h-192q-68 0 -116 -42t-64 -116q-17 -76 9 -117t94 -41h202z" />
    <glyph glyph-name="uni0430" unicode="&#x430;" horiz-adv-x="554" 
d="M467 524q8 4 23 4l23 -4l-110 -520q-9 -4 -22 -4l-21 4l13 77q-69 -91 -184 -91q-194 0 -134 283q31 145 93 204t157 59q108 0 143 -91zM421 327q13 63 -17 114t-97 51q-81 0 -128.5 -53t-73.5 -176q-26 -124 -2 -176.5t105 -52.5q67 0 120 51.5t66 114.5z" />
    <glyph glyph-name="uni0431" unicode="&#x431;" horiz-adv-x="568" 
d="M86 351q13 64 30 112.5t34.5 84t44.5 62t51.5 43.5t64.5 30.5t74 21t89 17.5q30 5 42 11t27 24q26 -2 33 -18q-14 -29 -34.5 -42t-65.5 -21q-68 -13 -106.5 -23t-80 -29t-65 -46.5t-46 -70.5t-39.5 -107h4q70 114 205 114q96 0 135 -67t11 -201q-29 -135 -92.5 -195.5
t-165.5 -60.5q-41 0 -71 8t-55 31.5t-36 62.5t-9 104.5t21 154.5zM331 472q-74 0 -126.5 -48.5t-78.5 -171.5q-26 -121 5.5 -170.5t106.5 -49.5t127.5 49.5t78.5 170.5q25 121 -6.5 170.5t-106.5 49.5z" />
    <glyph glyph-name="uni0432" unicode="&#x432;" horiz-adv-x="515" 
d="M338 526q67 0 98 -38.5t17 -104.5q-18 -85 -95 -118q83 -29 62 -131q-29 -134 -186 -134h-212l112 526h204zM133 287h144q50 0 83 26.5t43 73.5q21 97 -84 97h-144zM81 42h155q111 0 132 100q11 49 -11 76.5t-78 27.5h-155z" />
    <glyph glyph-name="uni0433" unicode="&#x433;" horiz-adv-x="398" 
d="M134 526h282q2 -8 -1 -22l-9 -22h-232l-101 -478q-7 -4 -26 -4l-24 4z" />
    <glyph glyph-name="uni0434" unicode="&#x434;" horiz-adv-x="569" 
d="M-30 42h44q57 55 111 246l70 238h312l-103 -484h63l-35 -166q-16 -4 -23 -4q-12 0 -24 4l26 124h-403l-26 -124q-16 -4 -25 -4q-14 0 -22 4zM229 483l-58 -199q-47 -167 -100 -242h283l94 441h-219z" />
    <glyph glyph-name="uni0435" unicode="&#x435;" horiz-adv-x="505" 
d="M429 247h-330q-37 -211 122 -211q35 0 69 9.5t50 18.5l17 10q18 -16 14 -39q-6 -5 -18.5 -12.5t-54.5 -20t-89 -12.5q-102 0 -143.5 77t-10.5 212q29 127 96 192t160 65q87 0 127 -54.5t21 -139.5q-6 -28 -13.5 -51.5t-11.5 -33.5zM415 353q13 60 -13.5 100t-94.5 40
q-147 0 -199 -205h287q12 23 20 65z" />
    <glyph glyph-name="uni0436" unicode="&#x436;" horiz-adv-x="769" 
d="M712 522q11 4 34 4l24 -4l-209 -250l124 -267q-10 -5 -31 -5l-25 5l-115 249h-113l-53 -250q-9 -4 -26 -4l-24 4l53 250h-113l-215 -249q-12 -5 -34 -5q-9 0 -16 1t-9 3l-3 1l240 278l-106 239q9 4 28 4l26 -4l98 -226h113l48 226q9 4 26 4l24 -4l-48 -226h113z" />
    <glyph glyph-name="uni0437" unicode="&#x437;" horiz-adv-x="449" 
d="M98 512q55 24 152 24q89 0 122 -42.5t20 -107.5q-18 -92 -102 -120v-1q41 -14 56 -50t6 -82q-15 -70 -67 -106.5t-166 -36.5q-42 0 -77.5 7t-49.5 13l-14 7q5 24 23 38q45 -21 125 -21q82 0 124.5 27.5t54.5 82.5q10 51 -22.5 76.5t-102.5 25.5h-57q-3 9 0 22l9 21h57
q132 0 154 100q11 53 -15.5 78.5t-98.5 25.5q-32 0 -63.5 -4.5t-46.5 -9.5l-15 -5q-14 11 -6 38z" />
    <glyph glyph-name="uni0438" unicode="&#x438;" horiz-adv-x="578" 
d="M143 140l339 382q9 4 28 4l27 -4l-110 -518q-10 -4 -26 -4l-25 4l74 348q23 107 26 107h-3q3 -3 -76 -94l-320 -361q-10 -4 -29 -4l-26 4l110 518q9 4 26 4l24 -4l-75 -353l-25 -102h2q22 31 59 73z" />
    <glyph glyph-name="uni0439" unicode="&#x439;" horiz-adv-x="578" 
d="M367 671q30 0 59.5 10t44.5 20l15 10q20 -6 20 -29q-6 -6 -17.5 -15t-48.5 -24t-77 -15t-72.5 14t-44.5 28l-12 14q11 20 30 27q4 -4 12 -11t34.5 -18t56.5 -11zM482 522q9 4 28 4l27 -4l-110 -518q-10 -4 -26 -4l-25 4l74 348q21 105 26 107h-3q-27 -37 -63 -78
l-333 -377q-10 -4 -29 -4l-26 4l110 518q9 4 26 4l24 -4l-75 -353l-25 -102h2q22 31 59 73z" />
    <glyph glyph-name="uni043A" unicode="&#x43a;" horiz-adv-x="496" 
d="M240 296l200 226q8 4 31 4l27 -3l-225 -253l139 -265q-11 -5 -30 -5l-24 5l-128 249h-105l-53 -250q-9 -4 -26 -4l-24 4l110 518q8 4 25 4l25 -4l-48 -226h106z" />
    <glyph glyph-name="uni043B" unicode="&#x43b;" horiz-adv-x="551" 
d="M184 290q-30 -97 -54.5 -157.5t-48 -90t-43 -39t-47.5 -9.5l-31 5q-3 6 0 18l8 20l27 -1q38 1 69.5 58.5t72.5 199.5l68 232h306l-111 -522q-10 -4 -26 -4l-24 4l102 479h-212z" />
    <glyph glyph-name="uni043C" unicode="&#x43c;" horiz-adv-x="672" 
d="M571 522q12 4 33 4l27 -4l-110 -518q-8 -4 -25 -4l-24 4l76 357q8 41 24 95h-2q-34 -50 -54 -74l-209 -255q-7 -3 -16 -3l-14 3l-93 250q-16 46 -21 78h-3q-3 -44 -14 -94l-76 -357q-9 -4 -25 -4l-23 4l110 518q11 4 28 4l24 -4l118 -334h2z" />
    <glyph glyph-name="uni043D" unicode="&#x43d;" horiz-adv-x="561" 
d="M124 249l-52 -245q-8 -4 -26 -4l-24 4l110 518q8 4 26 4l24 -4l-49 -229h288l49 229q9 4 26 4l24 -4l-110 -518q-9 -4 -26 -4l-24 4l52 245h-288z" />
    <glyph glyph-name="uni043E" unicode="&#x43e;" horiz-adv-x="538" 
d="M55 274q56 262 260 262q211 0 151 -281q-56 -265 -261 -265q-210 0 -150 284zM416 263q26 127 -2 179t-105 52q-157 0 -205 -231q-27 -126 1.5 -178.5t105.5 -52.5q155 0 205 231z" />
    <glyph glyph-name="uni043F" unicode="&#x43f;" horiz-adv-x="551" 
d="M174 482l-101 -478q-9 -4 -26 -4l-24 4l111 522h377l-111 -522q-8 -4 -25 -4l-25 4l101 478h-277z" />
    <glyph glyph-name="uni0440" unicode="&#x440;" horiz-adv-x="555" 
d="M167 448q68 88 180 88q194 0 134 -283q-31 -145 -92.5 -204t-157.5 -59q-49 0 -87 28.5t-53 69.5l-70 -329q-8 -4 -26 -4l-24 4l162 763q8 4 26 4l24 -4zM431 263q26 124 2 176.5t-107 52.5q-67 0 -118.5 -49t-65.5 -112l-26 -121q-13 -62 22 -119t95 -57q83 0 127.5 52
t70.5 177z" />
    <glyph glyph-name="uni0441" unicode="&#x441;" horiz-adv-x="442" 
d="M318 491q-86 0 -139 -56t-77 -170q-49 -228 124 -228q27 0 52.5 5.5t37.5 10.5l12 5q17 -12 14 -39q-48 -29 -133 -29q-101 0 -142.5 75.5t-12.5 209.5q56 261 264 261q36 0 65 -6t40 -12l11 -6q-5 -26 -26 -39q-32 18 -90 18z" />
    <glyph glyph-name="uni0442" unicode="&#x442;" horiz-adv-x="429" 
d="M76 526h372q3 -7 0 -22q-1 -7 -3.5 -12.5t-4.5 -7.5l-2 -3h-161l-101 -477q-8 -4 -26 -4l-24 4l101 477h-161q-3 8 0 23q1 7 3.5 12.5t4.5 7.5z" />
    <glyph glyph-name="uni0443" unicode="&#x443;" 
d="M459 522q9 4 26 4l24 -4l-106 -500q-15 -72 -35 -120.5t-52 -84t-78.5 -51.5t-112.5 -16q-38 0 -72 7t-49 13l-14 7q5 27 23 38q53 -20 117 -20q98 0 147.5 46.5t79.5 180.5l12 54q-81 -86 -185 -86q-79 0 -114 45.5t-19 121.5l78 365q9 4 26 4l24 -4l-79 -372
q-25 -117 95 -117q48 0 98.5 30t85.5 83z" />
    <glyph glyph-name="uni0444" unicode="&#x444;" horiz-adv-x="778" 
d="M458 746q7 4 25 4l25 -4l-50 -232q6 3 17 6.5t44 9.5t64 6q96 -1 124 -73.5t-3 -205.5q-29 -137 -84.5 -202t-152.5 -65q-33 0 -62 6t-41 12l-12 7l-55 -261q-8 -4 -26 -4l-24 4l55 261q-50 -25 -125 -25q-96 0 -124.5 73t3.5 206q29 137 84.5 202t152.5 65
q31 0 59.5 -5.5t41.5 -10.5l14 -6zM400 470l-4 2q-5 2 -14 5.5t-21 7t-30.5 6t-38.5 2.5q-74 0 -117 -55t-68 -175q-26 -117 -6.5 -173t93.5 -56q29 0 59 7t45 13l15 7zM653 263q26 117 6 173.5t-93 56.5q-20 0 -39.5 -2.5t-33 -6t-24 -7t-15.5 -5.5l-6 -2l-87 -409
q41 -27 107 -27q74 0 117 55t68 174z" />
    <glyph glyph-name="uni0445" unicode="&#x445;" horiz-adv-x="488" 
d="M205 268l-124 254q10 4 29 4l24 -4l108 -218l198 218q4 4 29 4l31 -4l-233 -255l129 -263q-10 -4 -29 -4l-23 4l-113 226l-205 -226q-4 -5 -31 -5l-30 5z" />
    <glyph glyph-name="uni0446" unicode="&#x446;" horiz-adv-x="576" 
d="M462 522q9 4 26 4l25 -4l-102 -478h63l-35 -168q-16 -4 -24 -4q-15 0 -23 4l26 124h-396l111 522q9 4 26 4l25 -4l-102 -478h278z" />
    <glyph glyph-name="uni0447" unicode="&#x447;" horiz-adv-x="519" 
d="M477 522l-110 -518q-8 -4 -26 -4l-24 4l50 234q-70 -35 -158 -35q-179 0 -144 160l34 159q9 4 26 4l24 -4l-34 -160q-13 -60 12.5 -88t96.5 -28q85 0 152 38l51 238q8 4 26 4z" />
    <glyph glyph-name="uni0448" unicode="&#x448;" horiz-adv-x="792" 
d="M22 0l111 522q8 4 26 4l24 -4l-102 -478h233l102 478q8 4 26 4l25 -4l-102 -478h234l102 478q8 4 26 4l24 -4l-111 -522h-618z" />
    <glyph glyph-name="uni0449" unicode="&#x449;" horiz-adv-x="814" 
d="M712 44l-35 -168q-16 -4 -24 -4q-15 0 -23 4l26 124h-634l111 522q8 4 26 4l24 -4l-102 -478h233l102 478q8 4 26 4l25 -4l-102 -478h234l102 478q8 4 26 4l24 -4l-102 -478h63z" />
    <glyph glyph-name="uni044A" unicode="&#x44a;" horiz-adv-x="561" 
d="M196 300h169q70 0 100.5 -44t15.5 -114q-14 -68 -61 -105t-119 -37h-219l102 481h-119l-1 3v9t1 11q3 11 10 22h169zM141 42h161q105 0 129 107q22 109 -83 109h-161z" />
    <glyph glyph-name="uni044B" unicode="&#x44b;" horiz-adv-x="714" 
d="M133 522q16 4 26 4q12 0 24 -4l-47 -222h169q70 0 100 -44t15 -114q-14 -68 -60.5 -105t-118.5 -37h-219zM622 522q16 4 27 4q8 0 24 -4l-110 -518q-16 -4 -27 -4q-8 0 -24 4zM127 258l-46 -216h161q105 0 129 107q22 109 -83 109h-161z" />
    <glyph glyph-name="uni044C" unicode="&#x44c;" horiz-adv-x="499" 
d="M136 300h169q70 0 100 -43.5t15 -113.5q-14 -68 -60.5 -105.5t-118.5 -37.5h-219l111 522q16 4 26 4q12 0 24 -4zM81 42h161q105 0 129 107q22 109 -83 109h-161z" />
    <glyph glyph-name="uni044D" unicode="&#x44d;" horiz-adv-x="451" 
d="M324 245h-213v21q4 14 9 21h212q37 206 -125 206q-26 0 -52 -4.5t-39 -8.5l-13 -4q-12 13 -7 36q49 24 130 24q103 0 143 -70t12 -203t-98.5 -203t-172.5 -70q-38 0 -71 7t-47 15l-13 7q6 24 25 37q41 -21 101 -21q168 0 219 210z" />
    <glyph glyph-name="uni044E" unicode="&#x44e;" horiz-adv-x="779" 
d="M290 281q61 255 265 255q211 0 152 -278q-30 -143 -97 -205.5t-171 -62.5q-98 0 -139.5 58.5t-19.5 188.5h-158l-49 -233q-12 -4 -26 -4q-8 0 -24 4l110 518q16 4 26 4q12 0 24 -4l-51 -241h158zM656 263q26 126 -3 178.5t-107 52.5t-130 -52.5t-78 -178.5
q-27 -126 2.5 -178.5t107.5 -52.5t129.5 52.5t78.5 178.5z" />
    <glyph glyph-name="uni044F" unicode="&#x44f;" horiz-adv-x="521" 
d="M203 218l-161 -214q-16 -4 -33 -4q-10 0 -26 4l171 222q-95 30 -71 145q15 71 66.5 113t129.5 42h202l-111 -522q-16 -4 -26 -4q-12 0 -24 4l45 214h-162zM278 484q-119 0 -143 -113q-24 -111 85 -111h154l48 224h-144z" />
    <glyph glyph-name="uni0451" unicode="&#x451;" horiz-adv-x="505" 
d="M247 699q10 4 30 4l30 -4l-12 -53q-11 -4 -31 -4l-29 4zM396 699q10 4 30 4l30 -4l-12 -53q-11 -4 -31 -4l-29 4zM429 247h-330q-37 -211 122 -211q35 0 69 9.5t50 18.5l17 10q18 -16 14 -39q-6 -5 -18.5 -12.5t-54.5 -20t-89 -12.5q-102 0 -143.5 77t-10.5 212
q29 127 96 192t160 65q87 0 127 -54.5t21 -139.5q-6 -28 -13.5 -51.5t-11.5 -33.5zM415 353q13 60 -13.5 100t-94.5 40q-147 0 -199 -205h287q12 23 20 65z" />
    <glyph glyph-name="Wgrave" unicode="&#x1e80;" horiz-adv-x="947" 
d="M581 763l-89 136q21 25 52 23l74 -141q-13 -17 -37 -18zM594 4l-42 545q-2 34 -2 56.5t2 33.5l1 11h-3q-7 -34 -41 -101l-278 -545q-16 -4 -29 -4q-9 0 -25 4l-61 712q9 4 27 4l26 -4l44 -546q2 -25 2.5 -51t0.5 -39l-1 -13h3q13 45 43 103l279 546q8 4 26 4l24 -4
l40 -546q2 -26 2 -52v-38l-1 -13h2q12 43 42 103l273 546q9 4 29 4l24 -4l-355 -712q-10 -4 -27 -4z" />
    <glyph glyph-name="wgrave" unicode="&#x1e81;" horiz-adv-x="792" 
d="M463 608l-94 144q21 25 52 23l79 -148q-13 -16 -37 -19zM479 4l-40 334q-8 68 -8 127h-3q-7 -27 -61 -127l-182 -334q-16 -4 -25 -4q-5 0 -25 4l-57 518q8 4 25 4l23 -4l41 -374q6 -60 2 -85h3q0 1 5 13t14 31.5t21 40.5l202 374q10 4 31 4l19 -4l45 -372q6 -58 1 -87h3
q0 1 5 12.5t14.5 31t21.5 42.5l198 373q6 4 28 4l26 -4l-277 -518q-20 -4 -26 -4q-4 0 -24 4z" />
    <glyph glyph-name="Wacute" unicode="&#x1e82;" horiz-adv-x="947" 
d="M686 901l-149 -137q-23 3 -29 19l136 141q31 2 42 -23zM594 4l-42 545q-2 34 -2 56.5t2 33.5l1 11h-3q-7 -34 -41 -101l-278 -545q-16 -4 -29 -4q-9 0 -25 4l-61 712q9 4 27 4l26 -4l44 -546q2 -25 2.5 -51t0.5 -39l-1 -13h3q13 45 43 103l279 546q8 4 26 4l24 -4
l40 -546q2 -26 2 -52v-38l-1 -13h2q12 43 42 103l273 546q9 4 29 4l24 -4l-355 -712q-10 -4 -27 -4z" />
    <glyph glyph-name="wacute" unicode="&#x1e83;" horiz-adv-x="792" 
d="M570 752l-156 -144q-23 3 -29 19l143 148q31 2 42 -23zM479 4l-40 334q-8 68 -8 127h-3q-7 -27 -61 -127l-182 -334q-16 -4 -25 -4q-5 0 -25 4l-57 518q8 4 25 4l23 -4l41 -374q6 -60 2 -85h3q0 1 5 13t14 31.5t21 40.5l202 374q10 4 31 4l19 -4l45 -372q6 -58 1 -87h3
q0 1 5 12.5t14.5 31t21.5 42.5l198 373q6 4 28 4l26 -4l-277 -518q-20 -4 -26 -4q-4 0 -24 4z" />
    <glyph glyph-name="Wdieresis" unicode="&#x1e84;" horiz-adv-x="947" 
d="M546 843l-11 -53q-11 -4 -31 -4l-29 4l11 53q11 3 31 3zM695 843l-11 -53q-11 -4 -31 -4l-29 4l11 53q11 3 31 3zM594 4l-42 545q-2 34 -2 56.5t2 33.5l1 11h-3q-7 -34 -41 -101l-278 -545q-16 -4 -29 -4q-9 0 -25 4l-61 712q9 4 27 4l26 -4l44 -546q2 -25 2.5 -51
t0.5 -39l-1 -13h3q13 45 43 103l279 546q8 4 26 4l24 -4l40 -546q2 -26 2 -52v-38l-1 -13h2q12 43 42 103l273 546q9 4 29 4l24 -4l-355 -712q-10 -4 -27 -4z" />
    <glyph glyph-name="wdieresis" unicode="&#x1e85;" horiz-adv-x="792" 
d="M438 699l-12 -53q-11 -4 -31 -4l-29 4l12 53q10 4 30 4zM587 699l-12 -53q-11 -4 -31 -4l-29 4l12 53q10 4 30 4zM479 4l-40 334q-8 68 -8 127h-3q-7 -27 -61 -127l-182 -334q-16 -4 -25 -4q-5 0 -25 4l-57 518q8 4 25 4l23 -4l41 -374q6 -60 2 -85h3q0 1 5 13t14 31.5
t21 40.5l202 374q10 4 31 4l19 -4l45 -372q6 -58 1 -87h3q0 1 5 12.5t14.5 31t21.5 42.5l198 373q6 4 28 4l26 -4l-277 -518q-20 -4 -26 -4q-4 0 -24 4z" />
    <glyph glyph-name="Ygrave" unicode="&#x1ef2;" horiz-adv-x="614" 
d="M375 922l79 -148q-13 -16 -37 -19l-94 144q21 25 52 23zM619 716q10 4 34 4l30 -4l-351 -412l-64 -300q-10 -4 -27 -4l-25 4l63 299l-169 413q12 4 33 4l24 -4l147 -357z" />
    <glyph glyph-name="ygrave" unicode="&#x1ef3;" 
d="M356 602l-94 144q8 10 23 17t28 6l80 -148q-13 -16 -37 -19zM459 522q9 4 26 4l24 -4l-106 -500q-15 -72 -35 -120.5t-52 -84t-78.5 -51.5t-112.5 -16q-38 0 -72 7t-49 13l-14 7q5 27 23 38q53 -20 117 -20q98 0 147.5 46.5t79.5 180.5l12 54q-81 -86 -185 -86
q-79 0 -114 45.5t-19 121.5l78 365q9 4 26 4l24 -4l-79 -372q-25 -117 95 -117q48 0 98.5 30t85.5 83z" />
    <glyph glyph-name="endash" unicode="&#x2013;" horiz-adv-x="570" 
d="M470 269h-388q-2 7 1 21l8 21h388q3 -7 0 -21z" />
    <glyph glyph-name="emdash" unicode="&#x2014;" horiz-adv-x="820" 
d="M720 269h-638q-2 7 1 21l8 21h638q3 -7 0 -21z" />
    <glyph glyph-name="quoteleft" unicode="&#x2018;" horiz-adv-x="211" 
d="M211 720l18 -16q-37 -29 -54 -87l23 -3l-12 -57q-11 -4 -32 -4l-32 4l9 41q8 36 28 66.5t36 43.5z" />
    <glyph glyph-name="quoteright" unicode="&#x2019;" horiz-adv-x="204" 
d="M138 553l-18 16q35 30 52 87l-21 4l12 56q11 4 32 4l31 -4l-8 -40q-8 -36 -28 -67t-36 -43z" />
    <glyph glyph-name="quotesinglbase" unicode="&#x201a;" horiz-adv-x="217" 
d="M5 -102l-19 15q37 30 53 87l-21 4l12 56q12 4 33 4l31 -4l-9 -40q-8 -36 -28 -66.5t-36 -43.5z" />
    <glyph glyph-name="quotedblleft" unicode="&#x201c;" horiz-adv-x="317" 
d="M317 719l19 -16q-36 -30 -52 -87l21 -4l-12 -56q-11 -4 -33 -4l-30 4l8 40q8 36 28 66.5t36 43.5zM205 719l19 -16q-35 -30 -52 -87l21 -4l-12 -56q-11 -4 -33 -4l-30 4l8 40q8 36 27.5 66.5t35.5 43.5z" />
    <glyph glyph-name="quotedblright" unicode="&#x201d;" horiz-adv-x="317" 
d="M139 553l-19 16q36 30 52 87l-21 4l12 56q11 4 33 4l30 -4l-8 -40q-5 -23 -15 -44t-20.5 -34.5t-20.5 -24t-16 -15.5zM251 553l-19 16q35 30 52 87l-21 4l12 56q11 4 33 4l30 -4l-8 -40q-8 -36 -28 -67t-36 -43z" />
    <glyph glyph-name="quotedblbase" unicode="&#x201e;" horiz-adv-x="330" 
d="M5 -102l-19 15q36 30 53 87l-21 4l12 56q11 4 33 4l30 -4l-9 -40q-8 -36 -27.5 -66.5t-35.5 -43.5zM119 -102l-19 15q37 30 53 87l-21 4l12 56q11 4 33 4l30 -4l-9 -40q-8 -36 -27.5 -66.5t-35.5 -43.5z" />
    <glyph glyph-name="dagger" unicode="&#x2020;" horiz-adv-x="574" 
d="M196 -127l-21 18l123 545l-238 -6q-2 9 1 23l9 22l235 -6l41 229q10 3 26 3l23 -3l-55 -229l236 6q2 -8 -1 -22l-9 -23l-233 6l-109 -545z" />
    <glyph glyph-name="daggerdbl" unicode="&#x2021;" horiz-adv-x="631" 
d="M298 142l238 7q1 -7 -2 -23l-8 -22l-234 7l-42 -230q-9 -3 -26 -3l-23 3l56 230l-237 -7q-2 7 1 22l9 23l233 -7l24 147l39 147l-238 -6q-1 7 2 23l8 22l235 -6l41 229q9 3 26 3l23 -3l-55 -229l236 6q2 -7 -1 -22l-9 -23l-233 6l-25 -147z" />
    <glyph glyph-name="bullet" unicode="&#x2022;" horiz-adv-x="299" 
d="M189 282q-4 -20 -19 -32t-35 -12q-19 0 -29.5 12t-6.5 32q4 21 19.5 33t34.5 12q20 0 30 -12t6 -33z" />
    <glyph glyph-name="ellipsis" unicode="&#x2026;" horiz-adv-x="546" 
d="M93 60l-12 -56q-12 -4 -33 -4l-31 4l12 56q12 4 33 4zM256 60l-12 -56q-12 -4 -33 -4l-30 4l12 56q11 4 32 4zM419 60l-12 -56q-12 -4 -33 -4l-30 4l12 56q11 4 32 4z" />
    <glyph glyph-name="perthousand" unicode="&#x2030;" horiz-adv-x="1064" 
d="M676 698l-537 -704q-9 -4 -27 -4l-22 4l537 704q8 4 26 4zM188 345q-129 0 -92 173t166 173q131 0 94 -173t-168 -173zM254 653q-41 0 -69 -31t-44 -104q-16 -74 -0.5 -104t56.5 -30t68.5 30t43.5 104q29 135 -55 135zM498 -10q-129 0 -92 173t165 173q131 0 95 -173
q-37 -173 -168 -173zM820 -10q-129 0 -92 173t165 173q131 0 95 -173q-37 -173 -168 -173zM563 298q-41 0 -69 -31t-43 -104q-16 -74 -1 -104t56 -30t69 30t44 104q28 135 -56 135zM885 298q-41 0 -69 -31t-43 -104q-16 -74 -1 -104t56 -30t69 30t44 104q28 135 -56 135z
" />
    <glyph glyph-name="guilsinglleft" unicode="&#x2039;" horiz-adv-x="340" 
d="M55 291l252 218q15 -10 11 -34l-227 -205l140 -206q-7 -24 -26 -34l-159 218q-3 8 0 21z" />
    <glyph glyph-name="guilsinglright" unicode="&#x203a;" horiz-adv-x="339" 
d="M119 509l160 -218q2 -8 -1 -22l-8 -21l-253 -218q-13 10 -10 34l226 206l-139 205q7 24 25 34z" />
    <glyph glyph-name="fraction" unicode="&#x2044;" horiz-adv-x="127" 
d="M-219 -5l536 703q9 4 25 4l21 -4l-537 -703q-9 -5 -25 -5q-6 0 -11 1t-7 3z" />
    <glyph glyph-name="zeroinferior" unicode="&#x2080;" horiz-adv-x="345" 
d="M85 -101q-66 0 -87.5 42.5t-2.5 134.5q19 90 60 133t106 43t87.5 -42.5t3.5 -133.5q-37 -177 -167 -177zM154 221q-49 0 -77 -34t-45 -111q-16 -78 -2.5 -111.5t62.5 -33.5q48 0 77.5 34t45.5 111q16 76 1.5 110.5t-62.5 34.5z" />
    <glyph glyph-name="oneinferior" unicode="&#x2081;" horiz-adv-x="241" 
d="M0 175q72 18 129 69q6 3 18 3q11 0 16 -3l-72 -337q-6 -3 -16 -3q-13 0 -19 3l54 252q4 20 9 41q-51 -38 -117 -55q-9 11 -2 30z" />
    <glyph glyph-name="twoinferior" unicode="&#x2082;" horiz-adv-x="302" 
d="M-39 -55q8 38 33 64.5t55.5 41t61 27.5t53.5 32.5t29 46.5q7 28 -9.5 46t-60.5 18q-16 0 -34 -2.5t-28 -4.5t-12 -3q-8 13 -2 28q38 13 89 13q58 0 80.5 -24.5t13.5 -67.5q-7 -35 -32 -59.5t-56 -39t-61.5 -28.5t-54.5 -38t-30 -58h182q2 -5 0 -17q-2 -9 -7 -16h-214
q-1 18 4 41z" />
    <glyph glyph-name="threeinferior" unicode="&#x2083;" horiz-adv-x="302" 
d="M193 -3q-20 -98 -153 -98q-23 0 -44 3.5t-30 7.5l-10 4q2 17 14 26q33 -10 75 -10q56 0 81 18.5t32 50.5q14 69 -67 69h-44q-3 15 7 31h44q69 0 82 61q6 30 -10.5 45.5t-53.5 15.5q-20 0 -40 -2.5t-30 -4.5l-10 -2q-8 10 -2 27q38 13 91 13q54 0 78 -23t15 -66
q-12 -55 -64 -78q53 -23 39 -88z" />
    <glyph glyph-name="fourinferior" unicode="&#x2084;" horiz-adv-x="324" 
d="M186 28h42v-15q-3 -12 -7 -16h-42l-19 -90q-6 -3 -15 -3q-11 0 -17 3l19 90h-180v12q0 2 5 11l225 224q9 3 18 3q11 0 17 -3zM190 199l-172 -171h136z" />
    <glyph glyph-name="fiveinferior" unicode="&#x2085;" horiz-adv-x="300" 
d="M78 214l-22 -104q81 0 116.5 -24t23.5 -83q-23 -104 -156 -104q-23 0 -44 3.5t-30 7.5l-10 4q2 16 14 27q33 -11 74 -11q100 0 114 72q9 43 -16.5 59.5t-92.5 16.5h-34l35 169h178q3 -17 -7 -33h-143z" />
    <glyph glyph-name="sixinferior" unicode="&#x2086;" horiz-adv-x="309" 
d="M-12 47q18 85 78.5 139.5t157.5 63.5q2 -15 -6 -29q-142 -19 -182 -136q44 22 89 22q49 0 72 -27.5t13 -74.5q-11 -51 -49 -78.5t-86 -27.5q-57 0 -80 37.5t-7 110.5zM173 5q7 32 -8.5 51.5t-50.5 19.5q-51 0 -88 -26q-26 -121 56 -121q34 0 59 20t32 56z" />
    <glyph glyph-name="seveninferior" unicode="&#x2087;" horiz-adv-x="275" 
d="M185 214h-174q-4 18 7 33h209q1 -10 -2 -24q-8 -38 -28 -69t-44 -54t-48.5 -47.5t-46 -62t-31.5 -84.5q-20 -5 -36 0q11 50 31.5 89t43.5 63.5t46 46.5t43.5 49.5t29.5 59.5z" />
    <glyph glyph-name="eightinferior" unicode="&#x2088;" horiz-adv-x="323" 
d="M25 169q8 38 41 60.5t85 22.5q50 0 73.5 -22t15.5 -61q-12 -56 -75 -90q61 -33 49 -88q-9 -43 -45.5 -67.5t-92.5 -24.5q-55 0 -82.5 23.5t-17.5 67.5q12 62 87 100q-49 31 -38 79zM204 167q6 27 -10 41.5t-51 14.5q-33 0 -55 -14t-27 -38q-4 -6 -1 -13t1.5 -11t4 -9.5
t6.5 -8.5t8.5 -7.5t10 -6.5t11 -6.5t12 -6t12.5 -5.5t13 -6q56 32 65 76zM178 -11q3 15 0 26t-15.5 21t-19.5 14.5t-28 14t-26 12.5q-67 -34 -78 -85q-7 -32 12 -47.5t61 -15.5q36 0 62 15.5t32 44.5z" />
    <glyph glyph-name="nineinferior" unicode="&#x2089;" horiz-adv-x="308" 
d="M1 146q11 51 49.5 78.5t86.5 27.5q57 0 79.5 -37.5t6.5 -110.5q-18 -85 -78 -139.5t-156 -63.5q-7 12 4 29q142 19 182 136q-42 -22 -89 -22q-49 0 -72 27.5t-13 74.5zM186 101q24 121 -56 121q-35 0 -60 -20t-32 -56q-7 -31 8.5 -51t50.5 -20q53 0 89 26z" />
    <glyph glyph-name="Euro" unicode="&#x20ac;" horiz-adv-x="581" 
d="M164 435q85 245 287 245q45 0 80 -8t48 -16l13 -7q-6 -22 -24 -36q-44 24 -119 24q-80 0 -137.5 -46t-95.5 -156h270q0 -21 -15 -38h-268q-3 -11 -7.5 -33.5t-6.5 -29.5q-7 -30 -12 -59h234q0 -20 -14 -37h-223q-11 -112 27.5 -158t119.5 -46q36 0 71 6t52 12l16 6
q11 -13 8 -37q-58 -31 -163 -31q-205 0 -183 248h-82q0 17 13 37h73q2 13 11 60q13 55 15 62h-79q2 18 14 38h77z" />
    <glyph glyph-name="uni2113" unicode="&#x2113;" horiz-adv-x="453" 
d="M169 526q25 119 69 171.5t128 52.5q67 0 93 -40t11 -109q-20 -91 -103.5 -182.5t-205.5 -164.5l-24 -114q-12 -58 3 -81.5t59 -23.5q30 0 64 14t53 28l20 14q22 -3 22 -26q-3 -3 -9 -8t-25 -18t-38.5 -23t-49.5 -18t-59 -8q-68 0 -86 44t4 145l10 46q-35 -18 -83 -40
q-12 12 -8 36q44 19 101 52zM419 600q25 110 -59 110q-51 0 -83.5 -32t-49.5 -111l-55 -260q218 150 247 293z" />
    <glyph glyph-name="uni2117" unicode="&#x2117;" horiz-adv-x="806" 
d="M73 340q30 140 150 238.5t260 98.5t217.5 -98.5t47.5 -238.5t-149.5 -239t-259.5 -99t-218 99t-48 239zM710 340q26 124 -42.5 211.5t-192.5 87.5t-231 -87.5t-133 -211.5t43 -212t193 -88t230.5 88t132.5 212zM346 523h139q59 0 87 -35.5t16 -92.5q-13 -59 -56 -94
t-102 -35h-99l-26 -124q-21 -9 -40 0zM378 487l-39 -185h95q42 0 72 24t40 69q10 44 -10.5 68t-62.5 24h-95z" />
    <glyph glyph-name="trademark" unicode="&#x2122;" horiz-adv-x="625" 
d="M127 720h203q2 -7 0 -12q-1 -7 -5 -13h-87l-56 -260q-4 -3 -14 -3l-13 3l56 260h-89v13q2 8 5 12zM382 717q6 3 17 3q8 0 14 -3l32 -108q13 -41 19 -73q25 40 50 70l79 111q7 3 17 3l15 -3l-60 -282q-4 -3 -12 -3l-13 3l28 128l24 117q-28 -42 -44 -62l-77 -106
q-5 -3 -14 -3l-12 3l-30 106q-3 12 -9.5 32.5t-9.5 29.5q-6 -40 -22 -116l-28 -129q-4 -3 -12 -3l-12 3z" />
    <glyph glyph-name="Omega" unicode="&#x2126;" horiz-adv-x="715" 
d="M95 380q38 178 130.5 264t222.5 86t186.5 -86t18.5 -264q-8 -35 -21 -70t-28.5 -62.5t-34.5 -54.5t-35.5 -46.5t-35.5 -38.5t-30.5 -29t-24 -20.5t-13.5 -11.5h165q2 -15 0 -23q0 -1 -10 -24h-231q-9 25 11 50q29 21 57.5 46.5t66 67t67 98t42.5 118.5q32 153 -11 229
t-148 76t-181 -76t-108 -229q-9 -42 -9.5 -82t7.5 -72.5t18.5 -60t26 -50.5t26.5 -37.5t24 -27.5q5 -25 -11 -50h-231q-3 11 0 23q4 17 10 24h165q0 1 -7.5 9.5t-13 17t-15.5 23.5t-17 31.5t-15.5 37.5t-13 44.5t-7.5 50t-1 57t9 62.5z" />
    <glyph glyph-name="estimated" unicode="&#x212e;" horiz-adv-x="814" 
d="M559 95h67q-120 -105 -276 -105q-146 0 -227 103.5t-50 248.5q31 146 156 249t270 103q146 0 227.5 -103.5t50.5 -248.5l-5 -24h-544l-47 -218q77 -67 178 -67q99 0 200 62zM668 583q-71 68 -178 68q-104 0 -206 -67l-47 -222h384z" />
    <glyph glyph-name="uni2153" unicode="&#x2153;" horiz-adv-x="704" 
d="M585 698q7 4 21 4l17 -4l-537 -705q-7 -3 -20 -3l-19 3zM232 686q6 3 18 3t16 -3l-72 -338q-8 -2 -16 -2q-13 0 -19 2l54 253q3 16 9 40q-55 -40 -117 -54q-9 11 -2 30q72 18 129 69zM450 335q38 13 91 13q54 0 77.5 -23t14.5 -66q-12 -56 -63 -78q54 -23 40 -88
q-22 -98 -154 -98q-23 0 -44 3.5t-30 7.5l-10 4q2 17 15 26q31 -10 74 -10q56 0 81 18.5t32 50.5q15 69 -66 69h-44q-4 17 6 31h44q70 0 82 61q7 30 -9.5 45.5t-54.5 15.5q-20 0 -40 -2.5t-30 -4.5l-10 -2q-7 10 -2 27z" />
    <glyph glyph-name="uni2154" unicode="&#x2154;" horiz-adv-x="767" 
d="M111 -7l538 705q7 4 21 4l17 -4l-537 -705q-7 -3 -20 -3zM67 387q8 38 33 64.5t55.5 41t61 27.5t53.5 32.5t29 46.5q7 28 -9 45.5t-60 18.5q-16 0 -34.5 -2.5t-28.5 -4.5t-12 -3q-7 11 -2 28q37 13 88 13q58 0 81 -24.5t14 -67.5q-7 -35 -32 -59.5t-56 -39t-61.5 -28.5
t-54.5 -38t-30 -58h182q2 -8 0 -17t-7 -16h-214q-1 18 4 41zM674 93q-22 -98 -154 -98q-23 0 -44 3.5t-30 7.5l-10 4q2 17 15 26q31 -10 74 -10q56 0 81 18.5t32 50.5q15 69 -66 69h-44q-4 17 6 31h44q70 0 82 61q7 30 -9.5 45.5t-54.5 15.5q-20 0 -40 -2.5t-30 -4.5l-10 -2
q-7 10 -2 27q38 13 91 13q54 0 77.5 -23t14.5 -66q-12 -56 -63 -78q54 -23 40 -88z" />
    <glyph glyph-name="oneeighth" unicode="&#x215b;" horiz-adv-x="703" 
d="M585 698q7 4 21 4l17 -4l-537 -705q-7 -3 -20 -3l-19 3zM232 686q6 3 18 3t16 -3l-72 -338q-8 -2 -16 -2q-13 0 -19 2l54 253q3 16 9 40q-55 -40 -117 -54q-9 11 -2 30q72 18 129 69zM420 265q9 38 41 60.5t84 22.5q50 0 74 -22t15 -61q-12 -56 -75 -90q61 -33 49 -88
q-9 -43 -45 -67.5t-92 -24.5q-54 0 -82 23.5t-19 67.5q14 62 87 100q-47 30 -37 79zM599 263q6 27 -10 41.5t-51 14.5q-33 0 -55 -14t-27 -38q-3 -15 0 -26t15.5 -20.5t21.5 -14.5t30 -14q7 -3 11 -5q56 32 65 76zM573 85q3 15 0 26.5t-15 21t-20 14.5t-28 14t-26 12
q-67 -34 -78 -85q-7 -32 11.5 -47.5t60.5 -15.5q36 0 62.5 15.5t32.5 44.5z" />
    <glyph glyph-name="threeeighths" unicode="&#x215c;" horiz-adv-x="747" 
d="M629 698q7 4 21 4l17 -4l-537 -705q-7 -3 -20 -3l-19 3zM140 681q37 13 90 13q55 0 79 -23t15 -66q-13 -55 -64 -78q53 -23 39 -88q-20 -98 -153 -98q-23 0 -44 3.5t-30 7.5l-10 4q2 17 14 26q33 -10 75 -10q56 0 81 18.5t32 50.5q14 69 -67 69h-44q-3 15 7 31h44
q70 0 83 61q6 30 -10.5 45.5t-54.5 15.5q-20 0 -40 -2.5t-30 -4.5l-10 -2q-8 10 -2 27zM464 265q9 38 41 60.5t84 22.5q50 0 74 -22t15 -61q-12 -56 -75 -90q61 -33 49 -88q-9 -43 -45 -67.5t-92 -24.5q-54 0 -82 23.5t-19 67.5q14 62 87 100q-47 30 -37 79zM643 263
q6 27 -10 41.5t-51 14.5q-33 0 -55 -14t-27 -38q-3 -15 0 -26t15.5 -20.5t21.5 -14.5t30 -14q7 -3 11 -5q56 32 65 76zM617 85q3 15 0 26.5t-15 21t-20 14.5t-28 14t-26 12q-67 -34 -78 -85q-7 -32 11.5 -47.5t60.5 -15.5q36 0 62.5 15.5t32.5 44.5z" />
    <glyph glyph-name="fiveeighths" unicode="&#x215d;" horiz-adv-x="746" 
d="M628 698q7 4 21 4l17 -4l-537 -705q-7 -3 -20 -3l-19 3zM157 689h178q3 -17 -7 -33h-143l-22 -104q81 0 116.5 -24t23.5 -83q-23 -104 -156 -104q-23 0 -44 3.5t-31 7.5l-9 4q4 18 14 27q33 -11 74 -11q100 0 114 72q9 43 -17 59.5t-93 16.5h-34zM463 265q9 38 41 60.5
t84 22.5q50 0 74 -22t15 -61q-12 -56 -75 -90q61 -33 49 -88q-9 -43 -45 -67.5t-92 -24.5q-54 0 -82 23.5t-19 67.5q14 62 87 100q-47 30 -37 79zM642 263q6 27 -10 41.5t-51 14.5q-33 0 -55 -14t-27 -38q-3 -15 0 -26t15.5 -20.5t21.5 -14.5t30 -14q7 -3 11 -5q56 32 65 76
zM616 85q3 15 0 26.5t-15 21t-20 14.5t-28 14t-26 12q-67 -34 -78 -85q-7 -32 11.5 -47.5t60.5 -15.5q36 0 62.5 15.5t32.5 44.5z" />
    <glyph glyph-name="seveneighths" unicode="&#x215e;" horiz-adv-x="660" 
d="M542 698q7 4 21 4l17 -4l-537 -705q-7 -3 -20 -3l-19 3zM134 689h209q1 -10 -2 -24q-8 -38 -28 -69t-43.5 -54t-48 -47.5t-45.5 -62t-31 -84.5q-20 -5 -36 0q11 49 31 88t43 64t46 47t43 49.5t29 59.5h-174q-2 18 7 33zM377 265q9 38 41 60.5t84 22.5q50 0 74 -22t15 -61
q-12 -56 -75 -90q61 -33 49 -88q-9 -43 -45 -67.5t-92 -24.5q-54 0 -82 23.5t-19 67.5q14 62 87 100q-47 30 -37 79zM556 263q6 27 -10 41.5t-51 14.5q-33 0 -55 -14t-27 -38q-3 -15 0 -26t15.5 -20.5t21.5 -14.5t30 -14q7 -3 11 -5q56 32 65 76zM530 85q3 15 0 26.5t-15 21
t-20 14.5t-28 14t-26 12q-67 -34 -78 -85q-7 -32 11.5 -47.5t60.5 -15.5q36 0 62.5 15.5t32.5 44.5z" />
    <glyph glyph-name="arrowleft" unicode="&#x2190;" horiz-adv-x="619" 
d="M56 350l253 208q19 -7 20 -26l-197 -162h447q0 -13 -2 -20q-3 -16 -7 -20h-447l128 -163q-10 -20 -31 -25z" />
    <glyph glyph-name="arrowup" unicode="&#x2191;" horiz-adv-x="487" 
d="M310 610l163 -208q-8 -18 -30 -26l-128 163l-95 -447q-9 -3 -21 -3q-13 0 -19 3l95 447l-197 -163q-18 7 -21 26z" />
    <glyph glyph-name="arrowright" unicode="&#x2192;" horiz-adv-x="618" 
d="M581 350l-252 -208q-16 5 -21 25l198 163h-447q0 14 1 20q4 16 8 20h447l-129 162q12 19 32 26z" />
    <glyph glyph-name="arrowdown" unicode="&#x2193;" horiz-adv-x="488" 
d="M288 607q9 3 21 3q13 0 19 -3l-95 -447l198 163q17 -6 19 -26l-252 -208l-164 208q11 20 32 26l127 -163z" />
    <glyph glyph-name="uni2196" unicode="&#x2196;" horiz-adv-x="509" 
d="M126 534h295q2 -10 -1 -19q-2 -9 -6 -18h-230l249 -315q-11 -18 -36 -29l-248 317l-48 -230q-8 -4 -19 -4t-18 4z" />
    <glyph glyph-name="uni2197" unicode="&#x2197;" horiz-adv-x="512" 
d="M480 534l-62 -294q-9 -4 -20 -4q-12 0 -17 4l49 229l-383 -316q-19 9 -22 29l383 315h-230q-2 9 0 18q3 12 7 19h295z" />
    <glyph glyph-name="uni2198" unicode="&#x2198;" horiz-adv-x="504" 
d="M363 207l49 229q7 4 18 4t19 -4l-63 -294h-295q-1 6 1 19q1 6 7 18h230l-249 315q10 18 35 29z" />
    <glyph glyph-name="uni2199" unicode="&#x2199;" horiz-adv-x="510" 
d="M99 208l382 316q21 -11 23 -29l-383 -315h230q2 -10 -1 -19q-1 -9 -7 -18h-295l63 294q8 4 20 4q10 0 17 -4z" />
    <glyph glyph-name="partialdiff" unicode="&#x2202;" horiz-adv-x="556" 
d="M226 707q2 28 17 43q158 -27 222 -138t23 -302q-37 -173 -107 -246.5t-177 -73.5q-210 0 -154 262q28 135 94.5 198.5t161.5 63.5q104 0 146 -76q-1 105 -57.5 176.5t-168.5 92.5zM445 372q-14 48 -53 73.5t-92 25.5q-75 0 -123.5 -49.5t-73.5 -169.5
q-26 -119 4.5 -169.5t105.5 -50.5q161 0 209 220q21 107 23 120z" />
    <glyph glyph-name="Delta" unicode="&#x2206;" horiz-adv-x="641" 
d="M386 716q16 4 28 4q10 0 26 -4l117 -685q-11 -20 -27 -31h-544q-13 13 -12 31zM400 657h-2q-1 -1 -7 -14t-17 -33.5t-25 -42.5l-315 -521h467l-91 522q-10 46 -10 89z" />
    <glyph glyph-name="product" unicode="&#x220f;" horiz-adv-x="711" 
d="M686 693l-190 -896q-8 -4 -27 -4l-23 4l180 849h-397l-180 -849q-8 -4 -27 -4l-23 4l190 896h497z" />
    <glyph glyph-name="summation" unicode="&#x2211;" horiz-adv-x="573" 
d="M-64 -178l320 439l-123 409l5 24h467q3 -8 0 -23l-9 -23h-400l116 -387l-305 -422h423q2 -8 -1 -23l-9 -23h-490z" />
    <glyph glyph-name="minus" unicode="&#x2212;" horiz-adv-x="466" 
d="M375 307h-288q-2 7 1 23l9 23h288q3 -7 -1 -23z" />
    <glyph glyph-name="uni2215" unicode="&#x2215;" horiz-adv-x="471" 
d="M-47 -5l536 703q9 4 25 4l21 -4l-537 -703q-9 -5 -25 -5q-6 0 -11 1t-7 3z" />
    <glyph glyph-name="uni2219" unicode="&#x2219;" horiz-adv-x="228" 
d="M112 303q-14 0 -21.5 8.5t-4.5 24.5q8 33 40 33q13 0 21.5 -9t4.5 -24q-3 -15 -15 -24t-25 -9z" />
    <glyph glyph-name="radical" unicode="&#x221a;" horiz-adv-x="628" 
d="M241 -15l-75 380l-118 -46q-18 12 -8 38l163 65l73 -371l372 679q27 5 38 -11l-401 -734h-44z" />
    <glyph glyph-name="infinity" unicode="&#x221e;" horiz-adv-x="822" 
d="M556 160q-36 0 -64.5 13t-44 31.5t-25 37t-12.5 31.5l-3 13q-3 -5 -9 -13.5t-25.5 -30.5t-41.5 -38.5t-56.5 -30t-70.5 -13.5q-82 0 -115.5 48.5t-19.5 116.5q14 67 68.5 116t136.5 49q36 0 64.5 -13t44 -32t25 -37.5t12.5 -31.5l3 -13q3 5 9.5 13.5t27 30.5t43 39
t56 30.5t67.5 13.5q82 0 115.5 -48.5t19.5 -116.5q-14 -67 -68.5 -116t-136.5 -49zM212 202q31 0 60 12.5t49 31t35.5 36.5t23.5 30l7 13q-1 5 -2.5 13.5t-9.5 29.5t-20.5 37t-36 29.5t-54.5 13.5q-64 0 -102.5 -36.5t-48.5 -86.5t12.5 -86.5t86.5 -36.5zM618 448
q-31 0 -60 -12.5t-49 -31t-35.5 -36.5t-23.5 -30l-7 -13q1 -5 2.5 -13.5t9.5 -29.5t20.5 -37t36 -29.5t54.5 -13.5q64 0 102.5 36.5t48.5 86.5t-12.5 86.5t-86.5 36.5z" />
    <glyph glyph-name="integral" unicode="&#x222b;" horiz-adv-x="499" 
d="M153 -41l130 611q15 72 57 111.5t107 39.5q62 0 116 -36q-8 -22 -27 -32q-44 28 -96 28q-91 -2 -113 -109l-131 -613q-32 -150 -167 -150q-56 0 -109 37q7 21 27 32q41 -30 96 -29q88 2 110 110z" />
    <glyph glyph-name="approxequal" unicode="&#x2248;" horiz-adv-x="541" 
d="M203 370q-21 0 -42 -9t-31 -18l-11 -9q-22 5 -22 29q5 6 14 14.5t40 23t65 14.5q33 0 74 -25.5t72 -25.5q21 0 42 9t32 18l10 9q22 -4 24 -28q-5 -6 -14 -15t-40.5 -23.5t-66.5 -14.5q-33 0 -74 25.5t-72 25.5zM168 207q-21 0 -42 -9t-32 -18l-10 -9q-22 5 -22 29
q5 6 14.5 14.5t40.5 23t65 14.5q33 0 74 -25.5t72 -25.5q21 0 42 9t31 18l10 9q22 -4 24 -28q-5 -6 -14 -15t-40.5 -23.5t-66.5 -14.5q-33 0 -74 25.5t-72 25.5z" />
    <glyph glyph-name="notequal" unicode="&#x2260;" horiz-adv-x="472" 
d="M167 184l-72 -95q-12 -4 -24 -4q-7 0 -19 4l73 95h-84q0 17 1 21q2 12 8 21h107l97 128h-177q0 17 1 21q2 12 8 21h201l67 87q12 4 22 4q9 0 21 -4l-68 -87h93v-21q-3 -12 -9 -21h-116l-98 -128h187v-21q-3 -12 -9 -21h-210z" />
    <glyph glyph-name="lessequal" unicode="&#x2264;" horiz-adv-x="472" 
d="M364 226l-269 117q-2 11 2 27l9 26l319 117q3 -6 -1 -22l-9 -23l-270 -99l229 -97q2 -7 -1 -23zM341 119h-294q-2 6 1 21l8 21h294q3 -7 0 -21z" />
    <glyph glyph-name="greaterequal" unicode="&#x2265;" horiz-adv-x="469" 
d="M391 343l-319 -117q-2 8 1 23l9 23l269 97l-228 99q-2 8 1 23l9 22l269 -117q2 -10 -1 -26zM343 119h-294q-2 7 1 21l8 21h294q3 -7 0 -21q-1 -7 -3.5 -12t-4.5 -7z" />
    <glyph glyph-name="lozenge" unicode="&#x25ca;" 
d="M198 7l-136 345l283 344h23l140 -344l-287 -345h-23zM456 351l-112 282l-229 -282l109 -282z" />
    <glyph glyph-name="commaaccentcomb" unicode="&#xf6c3;" horiz-adv-x="0" 
d="M-107 -102l-19 15q37 30 53 87l-21 4l12 56q12 4 33 4l31 -4l-9 -40q-8 -36 -28 -66.5t-36 -43.5z" />
    <glyph glyph-name="CR" horiz-adv-x="322" 
 />
    <glyph glyph-name="_0020" horiz-adv-x="0" 
 />
    <glyph glyph-name="_375" horiz-adv-x="646" 
d="M298 716q16 4 28 4q10 0 26 -4l117 -685q-11 -20 -27 -31h-544q-13 13 -12 31zM312 657h-2q-1 -1 -7 -14t-17 -33.5t-25 -42.5l-315 -521h467l-91 522q-10 46 -10 89z" />
    <glyph glyph-name="_376" horiz-adv-x="700" 
d="M488 0h-231q-9 25 11 50q29 21 57.5 46.5t66 67t67 98t42.5 118.5q32 153 -11 229t-148 76t-181 -76t-108 -229q-9 -42 -9.5 -82t7.5 -72.5t18.5 -60t26 -50.5t26.5 -37.5t24 -27.5q5 -25 -11 -50h-231q-3 11 0 23q4 17 10 24h165q0 1 -7.5 9.5t-13 17t-15.5 23.5
t-17 31.5t-15.5 37.5t-13 44.5t-7.5 50t-1 57t9 62.5q38 178 130.5 264t222.5 86t186.5 -86t18.5 -264q-8 -35 -21 -70t-28.5 -62.5t-34.5 -54.5t-35.5 -46.5t-35.5 -38.5t-30.5 -29t-24 -20.5t-13.5 -11.5h165q2 -15 0 -23q0 -1 -10 -24z" />
    <glyph glyph-name="commaaccentcomb.alt" horiz-adv-x="0" 
d="M101 720l18 -16q-37 -29 -54 -87l23 -3l-12 -57q-11 -4 -32 -4l-32 4l9 41q8 36 28 66.5t36 43.5z" />
    <glyph glyph-name="eight.denom" horiz-adv-x="323" 
d="M45 265q8 38 41 60.5t85 22.5q50 0 74 -22t15 -61q-12 -56 -75 -90q61 -33 49 -88q-9 -43 -45 -67.5t-92 -24.5q-55 0 -83 23.5t-18 67.5q14 62 87 100q-48 30 -38 79zM225 263q6 27 -10 41.5t-51 14.5q-33 0 -55 -14t-27 -38q-3 -15 0 -26t15.5 -20.5t21.5 -14.5t30 -14
q7 -3 11 -5q56 32 65 76zM198 85q3 15 0 26.5t-14.5 21t-19.5 14.5t-28 14t-26 12q-67 -34 -78 -85q-7 -32 11.5 -47.5t60.5 -15.5q36 0 62 15.5t32 44.5z" />
    <glyph glyph-name="eight.num" horiz-adv-x="322" 
d="M118 611q8 38 40.5 60.5t84.5 22.5q50 0 74 -22t16 -61q-13 -57 -75 -90q61 -33 49 -88q-9 -43 -45.5 -67.5t-92.5 -24.5q-55 0 -82.5 23.5t-17.5 67.5q12 62 87 100q-49 31 -38 79zM297 609q6 27 -10 41.5t-51 14.5q-33 0 -55 -14t-27 -38q-4 -6 -1 -13t1.5 -11t4 -9.5
t6.5 -8.5t8.5 -7.5t10 -6.5t11 -6.5t12 -6t12.5 -5.5t13 -6q56 32 65 76zM271 431q3 15 0 26t-15.5 21t-19.5 14.5t-28 14t-26 12.5q-67 -34 -78 -85q-7 -32 12 -47.5t61 -15.5q36 0 62 15.5t32 44.5z" />
    <glyph glyph-name="five.denom" horiz-adv-x="300" 
d="M99 310l-22 -104q81 0 116.5 -24t22.5 -83q-22 -104 -155 -104q-23 0 -44.5 3.5t-30.5 7.5l-10 4q2 17 15 27q32 -11 73 -11q99 0 115 72q9 43 -17 59.5t-93 16.5h-34l36 169h178q3 -17 -7 -33h-143z" />
    <glyph glyph-name="five.num" horiz-adv-x="300" 
d="M172 656l-22 -104q81 0 116.5 -24t23.5 -83q-23 -104 -156 -104q-23 0 -44 3.5t-30 7.5l-10 4q2 16 14 27q33 -11 74 -11q100 0 114 72q9 43 -17 59.5t-93 16.5h-34l36 169h178q3 -17 -7 -33h-143z" />
    <glyph glyph-name="four.denom" horiz-adv-x="324" 
d="M206 124h42q2 -7 0 -15q-2 -7 -6 -16h-42l-19 -90q-9 -3 -16 -3q-13 0 -16 3l19 90h-180q-2 5 -1 12q1 6 6 11l224 224q9 3 19 3t16 -3zM211 295l-173 -171h136z" />
    <glyph glyph-name="four.num" horiz-adv-x="324" 
d="M280 470h42v-15q-3 -12 -7 -16h-42l-19 -90q-6 -3 -15 -3q-11 0 -17 3l19 90h-180v12q0 2 5 11l225 224q9 3 18 3q11 0 17 -3zM284 641l-172 -171h136z" />
    <glyph glyph-name="g.alt" horiz-adv-x="518" 
d="M134 210q-38 20 -52 64t-3 100q35 162 217 162q61 0 101 -24l137 23q5 -22 -10 -47l-97 -7q30 -43 11 -127q-17 -80 -72 -121.5t-143 -41.5q-28 0 -56 7q-43 -41 -54 -91q-5 -26 17 -39.5t58 -16.5t77 -10t75 -17.5t52 -41t8 -79.5q-14 -69 -83 -111t-186 -42
q-103 0 -146.5 45.5t-27.5 110.5q19 81 116 137q-20 22 -13 58q14 60 74 109zM287 496q-60 0 -103 -34t-57 -98q-14 -65 15 -99t89 -34q61 0 103.5 34t56.5 99q14 64 -14.5 98t-89.5 34zM132 -208q88 0 147.5 31.5t70.5 84.5q9 41 -17 63t-63 26.5t-89 11t-77 16.5
q-38 -22 -64.5 -55.5t-34.5 -66.5q-11 -52 22 -81.5t105 -29.5z" />
    <glyph glyph-name="gbreve.alt" horiz-adv-x="518" 
d="M465 684q-6 -6 -16.5 -15.5t-46.5 -25t-76 -15.5t-72.5 14t-45.5 28l-13 14q11 20 30 27q4 -4 12 -11t34.5 -18t56.5 -11t59.5 10t44.5 20l15 10q18 -6 18 -27zM134 210q-38 20 -52 64t-3 100q35 162 217 162q61 0 101 -24l137 23q5 -22 -10 -47l-97 -7q30 -43 11 -127
q-17 -80 -72 -121.5t-143 -41.5q-28 0 -56 7q-43 -41 -54 -91q-5 -26 17 -39.5t58 -16.5t77 -10t75 -17.5t52 -41t8 -79.5q-14 -69 -83 -111t-186 -42q-103 0 -146.5 45.5t-27.5 110.5q19 81 116 137q-20 22 -13 58q14 60 74 109zM287 496q-60 0 -103 -34t-57 -98
q-14 -65 15 -99t89 -34q61 0 103.5 34t56.5 99q14 64 -14.5 98t-89.5 34zM132 -208q88 0 147.5 31.5t70.5 84.5q9 41 -17 63t-63 26.5t-89 11t-77 16.5q-38 -22 -64.5 -55.5t-34.5 -66.5q-11 -52 22 -81.5t105 -29.5z" />
    <glyph glyph-name="gcircumflex.alt" horiz-adv-x="518" 
d="M345 731l106 -103q-11 -21 -29 -25l-96 83l-131 -84q-16 7 -19 26l144 103h25zM134 210q-38 20 -52 64t-3 100q35 162 217 162q61 0 101 -24l137 23q5 -22 -10 -47l-97 -7q30 -43 11 -127q-17 -80 -72 -121.5t-143 -41.5q-28 0 -56 7q-43 -41 -54 -91q-5 -26 17 -39.5
t58 -16.5t77 -10t75 -17.5t52 -41t8 -79.5q-14 -69 -83 -111t-186 -42q-103 0 -146.5 45.5t-27.5 110.5q19 81 116 137q-20 22 -13 58q14 60 74 109zM287 496q-60 0 -103 -34t-57 -98q-14 -65 15 -99t89 -34q61 0 103.5 34t56.5 99q14 64 -14.5 98t-89.5 34zM132 -208
q88 0 147.5 31.5t70.5 84.5q9 41 -17 63t-63 26.5t-89 11t-77 16.5q-38 -22 -64.5 -55.5t-34.5 -66.5q-11 -52 22 -81.5t105 -29.5z" />
    <glyph glyph-name="gcommaaccent.alt" horiz-adv-x="518" 
d="M365 750l20 -13q-36 -26 -52 -77l22 -4l-10 -49q-12 -3 -33 -3l-32 3l8 36q7 31 26 58t35 38zM134 210q-38 20 -52 64t-3 100q35 162 217 162q61 0 101 -24l137 23q5 -22 -10 -47l-97 -7q30 -43 11 -127q-17 -80 -72 -121.5t-143 -41.5q-28 0 -56 7q-43 -41 -54 -91
q-5 -26 17 -39.5t58 -16.5t77 -10t75 -17.5t52 -41t8 -79.5q-14 -69 -83 -111t-186 -42q-103 0 -146.5 45.5t-27.5 110.5q19 81 116 137q-20 22 -13 58q14 60 74 109zM287 496q-60 0 -103 -34t-57 -98q-14 -65 15 -99t89 -34q61 0 103.5 34t56.5 99q14 64 -14.5 98t-89.5 34
zM132 -208q88 0 147.5 31.5t70.5 84.5q9 41 -17 63t-63 26.5t-89 11t-77 16.5q-38 -22 -64.5 -55.5t-34.5 -66.5q-11 -52 22 -81.5t105 -29.5z" />
    <glyph glyph-name="gdotaccent.alt" horiz-adv-x="518" 
d="M365 699l-12 -54q-11 -4 -31 -4l-29 4l12 54q9 4 30 4zM134 210q-38 20 -52 64t-3 100q35 162 217 162q61 0 101 -24l137 23q5 -22 -10 -47l-97 -7q30 -43 11 -127q-17 -80 -72 -121.5t-143 -41.5q-28 0 -56 7q-43 -41 -54 -91q-5 -26 17 -39.5t58 -16.5t77 -10t75 -17.5
t52 -41t8 -79.5q-14 -69 -83 -111t-186 -42q-103 0 -146.5 45.5t-27.5 110.5q19 81 116 137q-20 22 -13 58q14 60 74 109zM287 496q-60 0 -103 -34t-57 -98q-14 -65 15 -99t89 -34q61 0 103.5 34t56.5 99q14 64 -14.5 98t-89.5 34zM132 -208q88 0 147.5 31.5t70.5 84.5
q9 41 -17 63t-63 26.5t-89 11t-77 16.5q-38 -22 -64.5 -55.5t-34.5 -66.5q-11 -52 22 -81.5t105 -29.5z" />
    <glyph glyph-name="nine.denom" horiz-adv-x="309" 
d="M22 242q11 51 49.5 78.5t86.5 27.5q57 0 79.5 -37.5t6.5 -110.5q-18 -85 -77.5 -139.5t-156.5 -63.5q-5 12 4 29q143 19 182 136q-42 -22 -88 -22q-50 0 -73 27.5t-13 74.5zM208 197q24 121 -56 121q-35 0 -60 -20t-33 -56q-6 -32 9.5 -51.5t49.5 -19.5q51 0 90 26z" />
    <glyph glyph-name="nine.num" horiz-adv-x="308" 
d="M95 588q11 51 49 78.5t86 27.5q57 0 80 -37.5t7 -110.5q-18 -85 -78 -139.5t-156 -63.5q-7 12 4 29q141 19 182 136q-42 -22 -89 -22q-49 0 -72 27.5t-13 74.5zM280 543q24 121 -56 121q-35 0 -60 -20t-32 -56q-7 -31 8.5 -51t50.5 -20q53 0 89 26z" />
    <glyph glyph-name="_300" horiz-adv-x="0" 
 />
    <glyph glyph-name="one.denom" horiz-adv-x="241" 
d="M22 271q71 18 128 69q8 3 19 3q12 0 15 -3l-71 -337q-7 -3 -18 -3t-17 3l53 252q1 4 4.5 19t5.5 22q-51 -39 -118 -55q-9 13 -1 30z" />
    <glyph glyph-name="one.num" horiz-adv-x="257" 
d="M94 617q72 18 129 69q6 3 18 3q11 0 16 -3l-72 -337q-6 -3 -16 -3q-13 0 -19 3l54 252q4 20 9 41q-51 -38 -117 -55q-9 11 -2 30z" />
    <glyph glyph-name="seven.denom" horiz-adv-x="275" 
d="M206 310h-174q-2 5 0 16q2 10 7 17h209q1 -10 -2 -24q-8 -38 -28 -69t-44 -54t-48 -47.5t-45.5 -62t-31.5 -84.5q-10 -2 -19 -2t-17 2q13 61 41.5 107t56 69.5t56 58t39.5 73.5z" />
    <glyph glyph-name="seven.num" horiz-adv-x="275" 
d="M112 689h209q1 -10 -2 -24q-8 -38 -28 -69t-43.5 -54t-48 -47.5t-45.5 -62t-31 -84.5q-20 -5 -36 0q11 50 31 88.5t43 63.5t46 47t43 49.5t29 59.5h-174q-4 18 7 33z" />
    <glyph glyph-name="six.denom" horiz-adv-x="309" 
d="M8 143q19 85 79.5 139.5t157.5 63.5q4 -15 -7 -29q-141 -19 -182 -136q44 22 89 22q50 0 72.5 -27.5t12.5 -74.5q-11 -51 -49 -78.5t-85 -27.5q-118 0 -88 148zM193 101q7 32 -8 51.5t-50 19.5q-52 0 -89 -26q-25 -121 56 -121q34 0 59 20t32 56z" />
    <glyph glyph-name="six.num" horiz-adv-x="309" 
d="M82 491q18 84 78.5 139t157.5 64q5 -14 -6 -30q-141 -17 -182 -136q41 23 89 23q50 0 72.5 -27.5t12.5 -74.5q-11 -52 -48.5 -79t-85.5 -27q-58 0 -81 37.5t-7 110.5zM267 449q7 32 -8.5 51.5t-50.5 19.5q-54 0 -88 -27q-26 -121 56 -121q34 0 59 20.5t32 56.5z" />
    <glyph glyph-name="three.denom" horiz-adv-x="302" 
d="M214 93q-22 -98 -153 -98q-23 0 -44.5 3.5t-30.5 7.5l-10 4q2 17 15 26q32 -10 74 -10q56 0 81 18.5t32 50.5q15 69 -66 69h-44q-4 17 6 31h44q70 0 82 61q7 30 -9.5 45.5t-54.5 15.5q-20 0 -40 -2.5t-30 -4.5l-10 -2q-7 10 -2 27q38 13 91 13q54 0 78 -23t15 -66
q-12 -55 -64 -78q54 -23 40 -88z" />
    <glyph glyph-name="three.num" horiz-adv-x="302" 
d="M287 439q-20 -98 -153 -98q-23 0 -44 3.5t-30 7.5l-10 4q2 17 14 26q33 -10 75 -10q56 0 81 18.5t32 50.5q14 69 -67 69h-44q-3 15 7 31h44q69 0 82 61q6 30 -10.5 45.5t-53.5 15.5q-20 0 -40 -2.5t-30 -4.5l-10 -2q-8 10 -2 27q37 13 90 13q55 0 79 -23t15 -66
q-13 -55 -64 -78q53 -23 39 -88z" />
    <glyph glyph-name="two.denom" horiz-adv-x="300" 
d="M-20 41q8 38 33 64.5t55.5 41t61 27.5t53.5 32.5t29 46.5q6 28 -10 45.5t-60 18.5q-16 0 -34.5 -2.5t-28.5 -4.5t-12 -3q-8 13 -2 28q38 13 89 13q58 0 80.5 -25t13.5 -67q-7 -35 -32 -59.5t-56 -39t-61.5 -28.5t-54.5 -38t-30 -58h182q3 -8 0 -17q-2 -9 -7 -16h-214
q0 18 5 41z" />
    <glyph glyph-name="two.num" horiz-adv-x="302" 
d="M55 387q8 38 33 64.5t55.5 41t61 27.5t53.5 32.5t29 46.5q7 28 -9 46t-60 18q-45 0 -75 -10q-9 11 -2 28q37 13 88 13q58 0 81 -24.5t14 -67.5q-7 -35 -32 -59.5t-56 -39t-61.5 -28.5t-54.5 -38t-30 -58h182q2 -8 0 -17t-7 -16h-214q-1 18 4 41z" />
    <glyph glyph-name="zero.denom" horiz-adv-x="346" 
d="M106 -5q-66 0 -88 42.5t-2 134.5q19 90 59 133t106 43q129 0 92 -176q-20 -91 -61 -134t-106 -43zM174 317q-49 0 -77.5 -34t-44.5 -111q-17 -78 -3 -111.5t64 -33.5q48 0 76.5 33.5t45.5 111.5q16 76 1.5 110.5t-62.5 34.5z" />
    <glyph glyph-name="zero.num" horiz-adv-x="345" 
d="M179 341q-66 0 -87.5 42.5t-2.5 134.5q19 91 59.5 133.5t105.5 42.5t88 -42.5t4 -133.5q-37 -177 -167 -177zM248 663q-49 0 -77 -34t-45 -111q-16 -78 -2.5 -111.5t62.5 -33.5q48 0 77.5 34t45.5 111q16 76 1.5 110.5t-62.5 34.5z" />
    </font>
</defs>
</svg>
